/* XPM */
static char *animx[] = {
/* columns rows colors chars-per-pixel */
"32 32 252 2",
"   c #020202",
".  c #0C0C0C",
"X  c #131414",
"o  c #1A1A1A",
"O  c #1F1F20",
"+  c #1C1C36",
"@  c #1F201F",
"#  c #201F20",
"$  c #26261D",
"%  c #2B2A1C",
"&  c #232323",
"*  c #272827",
"=  c #272828",
"-  c #282728",
";  c #282827",
":  c #2B2B2B",
">  c #2B2C32",
",  c #2F2F3B",
"<  c #233830",
"1  c #302E2C",
"2  c #3D2E2E",
"3  c #333229",
"4  c #303F2E",
"5  c #353535",
"6  c #3F3333",
"7  c #3B3B3B",
"8  c #1C1C4C",
"9  c #151568",
"0  c #12127F",
"q  c #1C1B7E",
"w  c #212050",
"e  c #273254",
"r  c #3E3F42",
"t  c #1B751B",
"y  c #3F561C",
"u  c #224822",
"i  c #254A30",
"p  c #285C21",
"a  c #324931",
"s  c #214A5D",
"d  c #225F51",
"f  c #3F4040",
"g  c #2C4460",
"h  c #274972",
"j  c #325464",
"k  c #433232",
"l  c #532B2B",
"z  c #5F2B2B",
"x  c #503A3A",
"c  c #792424",
"v  c #474516",
"b  c #494716",
"n  c #4F4C17",
"m  c #4D4A1B",
"M  c #504701",
"N  c #524F16",
"B  c #514E19",
"V  c #5F5604",
"C  c #555113",
"Z  c #464525",
"A  c #4C4A23",
"S  c #454432",
"D  c #46453A",
"F  c #4B4532",
"G  c #504E25",
"H  c #54473C",
"J  c #504F39",
"K  c #535123",
"L  c #595728",
"P  c #5B5827",
"I  c #5F5C28",
"U  c #535135",
"Y  c #53533E",
"T  c #645700",
"R  c #645C06",
"E  c #6B5D00",
"W  c #645F1F",
"Q  c #615E23",
"!  c #615E2B",
"~  c #676108",
"^  c #6B6508",
"/  c #67621C",
"(  c #766A04",
")  c #736C09",
"_  c #7B6B00",
"`  c #77710B",
"'  c #7A730A",
"]  c #666325",
"[  c #646128",
"{  c #65633B",
"}  c #686638",
"|  c #726E2B",
" . c #777335",
".. c #424242",
"X. c #4D4242",
"o. c #4B4A4A",
"O. c #4B4A5D",
"+. c #475148",
"@. c #465C4F",
"#. c #5C4B4B",
"$. c #52524D",
"%. c #535D45",
"&. c #5B584E",
"*. c #535353",
"=. c #5B5B5B",
"-. c #444366",
";. c #42426F",
":. c #4C496C",
">. c #417B44",
",. c #4B7B4A",
"<. c #596159",
"1. c #547B4D",
"2. c #624142",
"3. c #684C4D",
"4. c #6E5C54",
"5. c #705151",
"6. c #616040",
"7. c #67654D",
"8. c #676553",
"9. c #706E54",
"0. c #73725F",
"q. c #646464",
"w. c #676868",
"e. c #6F6262",
"r. c #686867",
"t. c #6D6C6C",
"y. c #716060",
"u. c #7D6160",
"i. c #747264",
"p. c #797863",
"a. c #727272",
"s. c #797976",
"d. c #7C7B7B",
"f. c #0F0F94",
"g. c #0D199F",
"h. c #181780",
"j. c #18188E",
"k. c #1C1C97",
"l. c #1D1D9B",
"z. c #0D0DAB",
"x. c #1C1CAD",
"c. c #1010BC",
"v. c #1E28BA",
"b. c #2B2B8B",
"n. c #2D2D9B",
"m. c #3F3E83",
"M. c #2C2DA6",
"N. c #2222BB",
"B. c #0909C7",
"V. c #0806DC",
"C. c #0A08D2",
"Z. c #0E0EDE",
"A. c #1A1AC3",
"S. c #1919CC",
"D. c #1212D7",
"F. c #1313D9",
"G. c #0303EE",
"H. c #0D0DE4",
"J. c #0C0CE8",
"K. c #0202F3",
"L. c #0101FA",
"P. c #7E7F80",
"I. c #179217",
"U. c #189818",
"Y. c #0DBC0D",
"T. c #13A312",
"R. c #10B80F",
"E. c #17B413",
"W. c #14BA12",
"Q. c #1BB81B",
"!. c #319E31",
"~. c #3C9739",
"^. c #3C9F39",
"/. c #23BC24",
"(. c #3EA926",
"). c #30A635",
"_. c #3EA034",
"`. c #3D8647",
"'. c #06DF06",
"]. c #09D508",
"[. c #0BDB09",
"{. c #13C712",
"}. c #17C817",
"|. c #1CCC1C",
" X c #14D314",
".X c #10DD10",
"XX c #0CE40A",
"oX c #04F303",
"OX c #02F902",
"+X c #10E110",
"@X c #489438",
"#X c #5D852E",
"$X c #60852A",
"%X c #438545",
"&X c #4C844C",
"*X c #971919",
"=X c #9C1717",
"-X c #8A2323",
";X c #9E3B3B",
":X c #A71A1A",
">X c #AF1616",
",X c #B92F2F",
"<X c #B73131",
"1X c #847300",
"2X c #867C09",
"3X c #8A7A02",
"4X c #845B5A",
"5X c #895857",
"6X c #964141",
"7X c #944E4F",
"8X c #9F4041",
"9X c #9C4A4A",
"0X c #935150",
"qX c #C30E0E",
"wX c #C11111",
"eX c #CC1313",
"rX c #C91E1E",
"tX c #D30C0C",
"yX c #DD0D0D",
"uX c #D31414",
"iX c #D21E1E",
"pX c #DD1313",
"aX c #C12A2A",
"sX c #CA2323",
"dX c #E10808",
"fX c #ED0505",
"gX c #EF0808",
"hX c #F20808",
"jX c #FB0202",
"kX c #8E8207",
"lX c #8E8308",
"zX c #978300",
"xX c #9F9006",
"cX c #AD9600",
"vX c #B19A00",
"bX c #BCA804",
"nX c #80807F",
"mX c #C0A700",
"MX c #C5AF03",
"NX c #CAAF00",
"BX c #CEB300",
"VX c #D0B500",
"CX c #D9BC00",
"ZX c #E1C300",
"AX c #ECCD00",
"SX c #858585",
"DX c #ABABAB",
"FX c gray69",
"GX c #CDCDCD",
"HX c #DEDEDE",
"JX c #EEEEEE",
"KX c gray100",
/* pixels */
"SXSXSXSXSXSXSXSXSXSXSXSXSXSXSXSXSXSXSXSXSXSXSXSXSXSXSXSXSXSXSXSX",
"d.d.P.P.P.P.4XP.P.P.P.P.P.P.P.P.P.d.P.P.P.P.P.P.P.P.P.P.nXP.nXnX",
"d.d.d.s.d.d.SXP.s.s.d.d.s.s.d.d.s.s.s.d.s.d.s.s.s.s.p.s.d.d.d.s.",
"s.a.a.a.a.a.a.a.a.a.a.a.a.a.a.a.a.a.a.a.a.a.a.i. .' 2X`  .i.a.a.",
"t.t.t.t.t.4.5X9X4X0X0Xu.t.t.t.t.t.t.t.t.t.t.9.2XbXAXAXBX3X` 9.t.",
"w.w.w.e.<XfXhXaX<XsXsXiXsX8Xy.w.w.q.w.w.w.w.| NXAXAXAXAXmX( | w.",
"q.q.q.1.#X$X(.@X_._.&X4.6XsXuX;Xq.=.q.=.q.7.2XAXAXAXAXAXBX1X) 4.",
"=.=.,.+X+X/.`.&X)./.|.|.~.=.4.rXpX5.=.=.=.{ xXAXAXAXAXAXBX_ R 6.",
"*.:.M.v.S.F.S.H.H.N.m.>./.XX!.&.pXgX3.*.*.{ 3XZXAXAXAXZXcXT ~ 6.",
"*.;.A.n.;.*.O.-.:.n.D.Z.n.@.[. X%.uXuX#.*.&.' vXVXCXBXvX( M ` *.",
"o.o.o.o.o.Y [ 2X2X' ] -.S.Z.j oX}.+.eXyX2.o.! ` 3XzX3XE M ^ ! o.",
"o.......Y ' bXAXAXVX3X) J b.L.h XXQ.H fXyXX.X.! ) ~ T V ) I o...",
"f f a ..W NXAXAXAXAXmX( W r x.L.g XX{.F tXuXx a D L Q L D r r D ",
"7 7 7 F 2XAXAXAXAXAXBX1X) S 7 l.K.d OXE.7 :XfX-X5 7 7 7 7 7 7 7 ",
"5 5 5 K cXAXAXAXAXAXMX_ R G 5 5 k.L.s [.R.a z qXdX>Xc l 6 k 5 5 ",
"5 > 5 A 2XZXAXAXAXZXcXT R Z 5 1 , c.K.e E.oXU.4 l *XqXtXjX=X2 2 ",
"> : : 3 ' vXVXCXBXvX_ M ` 1 : : : > j.K.h.i T.].W.I.t p y 3 : 1 ",
"= = = = B ) 3XzX3XE M ^ m = - = - - ; w C.V.h.< t T.Y.'.].u ; ; ",
"; & * & & C ) ~ V V ) n * & & & & & & & & 8 z.G.K.B.z.g.8 & & * ",
"@ @ o O O @ % b C v $ O O O O O @ # # # O o O + 8 9 f.0 + # # # ",
"o o o o o o o o o o o o o o o o o o o o o o o o o o o o o o o o ",
"o o o o X o o o o o X o o o o X o o X o o o o o o o o o o o o o ",
"X X X X X X X X o X X X X X o X X X X X X X X X X X X X X X X X ",
"X X X DXDXX X FXFXd.KXKXKXKXJXD KXKXKXKXKXD JXKXKXKXFX. X X X . ",
". . . x KXa r KX7 d.JX. X . . 7 KX7 X . X . JXd.. $.JXd.X . X . ",
". . . . d.HXHXP.. d.JXX . . . 7 KX7 . . . . JXd.. . JXd.. . . . ",
". . . .   DXDX. . d.KXKXKXJX. 7 KXKXKXKX7 . JXGXDXGXJXo.  . . . ",
"  .     d.HXHXd.  d.JX    .   7 KX7   .     JXGXJXJXo.  . .     ",
"      5 KX5 5 KX5 s.JX        5 KX5         JXd.o.JXDX        . ",
"      DXDX    DXDXs.JX        5 KXKXKXKXKX5 JXs.  ..JXs.        ",
"                                                                ",
"                                                                "
};
