/* XPM */ 
static char * arc_tracker_xpm[] = {
"32 32 241 2",
"  	c None",
"! 	c #C4BAAA",
"# 	c #F5F3D5",
"$ 	c #F3F1CC",
"% 	c #F3F1CD",
"& 	c #F4F2D0",
"' 	c #F5EED1",
"( 	c #F4F2D3",
") 	c #F1EFCA",
"* 	c #F2F0CB",
"+ 	c #CDCBAC",
", 	c #F5E8CD",
"- 	c #FC2721",
". 	c #FB2F28",
"0 	c #E8E6C8",
"1 	c #E5E3C0",
"2 	c #EAE8C5",
"3 	c #F0EECA",
"4 	c #F4F2D1",
"5 	c #FA5E57",
"6 	c #ECE7CC",
"7 	c #E9AB9A",
"8 	c #F04641",
"9 	c #D0CEAE",
": 	c #DBD9B8",
"; 	c #E9E8C4",
"< 	c #F7E8D6",
"= 	c #F2E8D3",
"> 	c #DCDAB9",
"? 	c #C8C6A8",
"@ 	c #E1ADA5",
"A 	c #D2B8A6",
"B 	c #CAC8AA",
"C 	c #DEDCBA",
"D 	c #ECEAC6",
"E 	c #F95D4F",
"F 	c #E5E1BF",
"G 	c #D4D2B2",
"H 	c #C3C2A4",
"I 	c #C8B9A4",
"J 	c #DBA7A1",
"K 	c #C1C0A2",
"L 	c #E6E4C1",
"M 	c #F5F3D6",
"N 	c #F2EFD8",
"O 	c #DFDDBB",
"P 	c #E6928A",
"Q 	c #D2CBB3",
"R 	c #F8A495",
"S 	c #EDAE94",
"T 	c #D9D7B6",
"U 	c #D5D4B3",
"V 	c #E4CFBA",
"W 	c #DBDAC4",
"X 	c #CCCAAB",
"Y 	c #D8D7B6",
"Z 	c #E8E6C2",
"[ 	c #F5F3DC",
"] 	c #E5E0BF",
"^ 	c #D6D5B4",
"_ 	c #E9E7C3",
"` 	c #E7E5C3",
"a 	c #EDADA5",
"b 	c #D1CFB2",
"c 	c #D5D3B2",
"d 	c #E3E1BE",
"e 	c #EFEDC9",
"f 	c #F5CFB1",
"g 	c #F4C8BA",
"h 	c #EEECC8",
"i 	c #F09A8F",
"j 	c #D9D7BB",
"k 	c #D3D1B1",
"l 	c #EBE9C6",
"m 	c #F6F1DA",
"n 	c #F0A089",
"o 	c #E7E5C2",
"p 	c #EBE9CC",
"q 	c #E0DFC4",
"r 	c #F8D9C4",
"s 	c #FC2923",
"t 	c #F93A31",
"u 	c #EAE6C8",
"v 	c #F4F3DA",
"w 	c #E8E6C6",
"x 	c #EDECCE",
"y 	c #F4574D",
"z 	c #D5D3B3",
"{ 	c #E4E2BF",
"| 	c #F6F3DA",
"} 	c #FC2521",
"~ 	c #ECD3B9",
" !	c #E3C2AD",
"!!	c #F0463D",
"#!	c #D6D4B3",
"$!	c #F7A59F",
"%!	c #E2DFBE",
"&!	c #D7D6B5",
"'!	c #E2E0BE",
"(!	c #EDEBC7",
")!	c #EEECCA",
"*!	c #F0EFDE",
"+!	c #D7D6B6",
",!	c #E1DFBD",
"-!	c #FA7975",
".!	c #EBE4C8",
"0!	c #C2C1A3",
"1!	c #D7B4A8",
"2!	c #D7C1B0",
"3!	c #CFCDAE",
"4!	c #F4F2D2",
"5!	c #F48B7B",
"6!	c #DAD8B7",
"7!	c #ECEAD2",
"8!	c #DDD5BC",
"9!	c #D2D0B0",
":!	c #DDDBBA",
";!	c #F7D1BC",
"<!	c #F5ADA1",
"=!	c #C7C6A7",
">!	c #BBB99D",
"?!	c #C0AE94",
"@!	c #E27D7A",
"A!	c #CAC9AA",
"B!	c #F4F3D4",
"C!	c #EDECD0",
"D!	c #F09A84",
"E!	c #EB9683",
"F!	c #F2F0CE",
"G!	c #F8CFC8",
"H!	c #E6E4C4",
"I!	c #C4C3A5",
"J!	c #DFC0B2",
"K!	c #D8BBA6",
"L!	c #C9C7A8",
"M!	c #F5EEDA",
"N!	c #EAE9CA",
"O!	c #EAE8D3",
"P!	c #F2F0D3",
"Q!	c #F6887D",
"R!	c #C9C7A9",
"S!	c #E6DBC2",
"T!	c #E4C4B3",
"U!	c #C6C4A6",
"V!	c #F9675C",
"W!	c #E7E6C7",
"X!	c #ECEBD5",
"Y!	c #F4CCBF",
"Z!	c #E9E8C9",
"[!	c #EE948D",
"]!	c #D8D6BA",
"^!	c #C4C2A4",
"_!	c #F3F2DB",
"`!	c #E2E0BF",
"a!	c #F27261",
"b!	c #E3C1A7",
"c!	c #E1DFBE",
"d!	c #F3796F",
"e!	c #CECCAD",
"f!	c #F07C68",
"g!	c #DFDEC4",
"h!	c #C3C1A3",
"i!	c #F0EED5",
"j!	c #E0DEBC",
"k!	c #EFCDBA",
"l!	c #E6E5CC",
"m!	c #E5D5BE",
"n!	c #E6E5CB",
"o!	c #EAE6C7",
"p!	c #E9E3D3",
"q!	c #F6E9D4",
"r!	c #EFEED4",
"s!	c #EDEBCB",
"t!	c #E9E7CF",
"u!	c #ED867A",
"v!	c #E0D9C0",
"w!	c #ECEAC8",
"x!	c #F35246",
"y!	c #D5CCAD",
"z!	c #F89F95",
"{!	c #EFDEC7",
"|!	c #EEEBC8",
"}!	c #F39086",
"~!	c #DCDBBD",
" #	c #E2E1CC",
"!#	c #D1CFB0",
"##	c #ECEBD3",
"$#	c #DDDCBF",
"%#	c #F4F3DC",
"&#	c #E6E4C3",
"'#	c #F0EDC9",
"(#	c #F08575",
")#	c #E9BCAA",
"*#	c #E08978",
"+#	c #CBC9AA",
",#	c #ECEACF",
"-#	c #E98F7C",
".#	c #C5BBAB",
"0#	c #F3F2DD",
"1#	c #EEEDD1",
"2#	c #EFEEE0",
"3#	c #D4D1BA",
"4#	c #C5C4A6",
"5#	c #E1D9BD",
"6#	c #6B342C",
"7#	c #9B9A83",
"8#	c #CCC3B5",
"9#	c #F3F2DC",
":#	c #EACDC3",
";#	c #545447",
"<#	c #527171",
"=#	c #2A2D2C",
">#	c #D4BCB0",
"?#	c #F4AA99",
"@#	c #EFE4C5",
"A#	c #EE7C69",
"B#	c #D1CFAF",
"C#	c #22221D",
"D#	c #828282",
"E#	c #252525",
"F#	c #A9A78E",
"G#	c #C2B9A9",
"H#	c #E9E7C6",
"I#	c #E6E3C1",
"J#	c #706F5E",
"K#	c black",
"L#	c #1B1A16",
"M#	c #8C8B76",
"N#	c #C2B8A8",
"O#	c #E9E8C7",
"P#	c #9E9D85",
"Q#	c #898873",
"R#	c #C3B9A9",
"S#	c #EDEBCA",
"T#	c #B1B095",
"U#	c #A09F86",
"V#	c #C3C2A3",
"W#	c #BCBB9E",
"X#	c #BFBEA1",
"Y#	c #C1BFA2",
"Z#	c #BFB6A6",
"! ! ! ! ! ! ! ! ! ! ! ! ! ! ! ! ! ! ! ! ! ! ! ! ! ! ! ! ! ! ! ! ",
"! # $ $ $ $ $ $ $ $ $ $ $ $ $ $ $ $ $ $ $ $ $ $ $ $ $ $ $ $ % ! ",
"! & $ $ $ $ $ ' ( ) ) * $ $ $ $ $ $ $ $ $ $ $ $ $ $ $ $ $ $ + ! ",
"! & $ $ $ $ , - . 0 1 2 3 $ $ $ $ $ $ $ $ $ $ $ $ $ $ $ $ $ + ! ",
"! & $ $ $ 4 5 6 7 8 9 : ; ) $ $ $ $ $ $ $ $ $ $ $ $ $ $ $ $ + ! ",
"! & $ $ $ < = > ? @ A B C D * $ $ $ $ $ $ $ $ $ $ $ $ $ $ $ + ! ",
"! & $ $ $ E F G H I J K G L 3 $ $ $ $ $ $ $ $ $ $ $ $ $ $ $ + ! ",
"! & $ $ M N O 9 B ? P Q + C D * $ $ $ $ $ $ $ $ $ $ $ $ $ $ + ! ",
"! & $ $ R S T 9 U : V W X Y Z * $ $ $ $ $ $ $ $ $ $ $ $ $ $ + ! ",
"! & $ $ [ ] ^ G C _ ` a b c d e $ $ $ $ $ $ $ $ $ $ $ $ $ $ + ! ",
"! & $ f g O c ^ d h D i j k C l * $ $ $ $ & % * * * $ $ $ $ + ! ",
"! & $ m n > c : o ) 3 p q k : _ * $ $ $ r s t u Z D ) $ $ $ + ! ",
"! & $ v w T c C 2 * * x y z Y { e $ $ | } ~  !!!#!O 2 ) $ $ + ! ",
"! & & $!%!&!&!'!(!$ $ )!*!+!U ,!D $ % -!.!c 0!1!2!3!,!D * $ X ! ",
"! & 4!5!O U 6!L e $ $ e 7!8!9!:!; * ;!<!: =!>!?!@!=!^ L 3 $ A!! ",
"! & B!C!:!U C _ * $ $ * D!E!9!6!o F!G!H!k I!H ? J!K!9 O D * L!! ",
"! & M!N!> ^ ,!l $ $ $ * x O!k &!{ P!Q!> + R!k O S!T!9 T Z ) U!! ",
"! & V!W!T Y d (!$ $ $ $ (!X!+!U ,!Y!Z!^ X k ,!D ; [!]!U '!h ^!! ",
"! 4 _!`!Y : L e $ $ $ $ e a!b!U c!d!,!k e!6!_ * h f!g!k C ; h!! ",
"! # i!j!U > o ) $ $ $ $ * k!l!U m!n!: 9!c ,!h $ ) o!p!k T o X ! ",
"! q!r!O &!O ; * $ $ $ $ $ s!t!U u!v!U 9!6!o ) $ * w!x!y!U '!A!! ",
"! z!{!: &!,!l $ $ $ $ $ $ |!}!~! #!#9 c j!D * $ $ e ##$#c O L!! ",
"! %#&#Y Y d (!$ $ $ $ $ $ '#(#)#*#B +#&!{ e $ $ $ * ,#-#G > X ! ",
".#0#c!U Y { e $ $ $ $ $ $ * 1#2#3#4#B : _ * $ $ $ * 5#6#7#U X ! ",
"8#9#,!&!> o 3 $ $ $ $ $ $ $ s!:#B H +#C D * $ $ $ $ ;#<#=#I!A!! ",
">#?#O &!O ; * $ $ $ $ $ $ $ @#A#e!=!B#d e $ $ $ $ * C#D#E#F#L!! ",
"G#H#C T d D $ $ $ $ $ $ $ $ 3 I#Y 9!: Z * $ $ $ $ $ J#K#L#M#U!! ",
"N#O#j!:!1 (!$ $ $ $ $ $ $ $ ) ; ,!> { D * $ $ $ $ $ Z B P#Q#^!! ",
"R#S#_ o l 3 $ $ $ $ $ $ $ $ * e 2 _ D 3 $ $ $ $ $ $ 2 G T#U#h!! ",
"R#F!e e 3 * $ $ $ $ $ $ $ $ $ * 3 e ) * $ $ $ $ $ $ e { k B V#! ",
"! ; I!H W#X#Y#H H H H H H Y#H H Y#H H X#Y#H H X#Y#H H X#Y#H H Z#",
"! ! ! ! ! ! ! ! ! ! ! ! ! ! ! ! ! ! ! ! ! ! ! ! ! ! ! ! ! ! ! ! "};