/* XPM */
static char *cams[] = {
/* columns rows colors chars-per-pixel */
"32 32 196 2",
"   c #020202",
".  c #0B0B0B",
"X  c #131313",
"o  c #15191A",
"O  c #1A1A1A",
"+  c #161D21",
"@  c #1D1F20",
"#  c #1C2123",
"$  c #19252A",
"%  c #1D292E",
"&  c #192D35",
"*  c #1D353E",
"=  c #201F1F",
"-  c #242424",
";  c #252729",
":  c #272827",
">  c #262829",
",  c #282727",
"<  c #282827",
"1  c #2B2B2B",
"2  c #222E33",
"3  c #2D2F31",
"4  c #243035",
"5  c #24353B",
"6  c #2D3132",
"7  c #28383E",
"8  c #333334",
"9  c #353B3D",
"0  c #3B3B3B",
"q  c #1C3641",
"w  c #233841",
"e  c #223C48",
"r  c #2B3C43",
"t  c #393F42",
"y  c #1C4252",
"u  c #1D4C5F",
"i  c #1F4F63",
"p  c #2D4955",
"a  c #2F4E5B",
"s  c #304047",
"d  c #34474F",
"f  c #3D4243",
"g  c #3E4649",
"h  c #374D56",
"j  c #3D4D54",
"k  c #33515E",
"l  c #3B525B",
"z  c #234E60",
"x  c #25586E",
"c  c #28576B",
"v  c #2B5A6D",
"b  c #225B72",
"n  c #315F73",
"m  c #395F70",
"M  c #2E6177",
"N  c #2E6278",
"B  c #316074",
"V  c #33677D",
"C  c #376A7E",
"Z  c #3C6779",
"A  c #3B6B7F",
"S  c #403F40",
"D  c #424243",
"F  c #44494B",
"G  c #484747",
"H  c #4A4A4A",
"J  c #4A4E50",
"K  c #4D5355",
"L  c #535353",
"P  c #555859",
"I  c #5B5B5C",
"U  c #515D62",
"Y  c #595F62",
"T  c #49606A",
"R  c #496D7C",
"E  c #55656C",
"W  c #5F6466",
"Q  c #5C686D",
"!  c #526C76",
"~  c #5F7179",
"^  c #636363",
"/  c #666869",
"(  c #6C6C6C",
")  c #626C71",
"_  c #6A6F70",
"`  c #677176",
"'  c #6F7678",
"]  c #727272",
"[  c #777B7C",
"{  c #7B7B7B",
"}  c #216582",
"|  c #276883",
" . c #226A89",
".. c #2B6984",
"X. c #216F90",
"o. c #2F708C",
"O. c #267090",
"+. c #22769A",
"@. c #24799D",
"#. c #287190",
"$. c #346B83",
"%. c #3A6F85",
"&. c #32718B",
"*. c #3E7187",
"=. c #3B738A",
"-. c #317795",
";. c #337C9B",
":. c #3C7A94",
">. c #247BA0",
",. c #457285",
"<. c #41758A",
"1. c #4D7586",
"2. c #4B7789",
"3. c #447E96",
"4. c #517787",
"5. c #517888",
"6. c #5C7D8A",
"7. c #647E8A",
"8. c #6A7A81",
"9. c #7E7F80",
"0. c #3F829F",
"q. c #2E86AC",
"w. c #2E88AF",
"e. c #268BB6",
"r. c #258DB8",
"t. c #2A8BB5",
"y. c #298EB9",
"u. c #2690BD",
"i. c #3089AF",
"p. c #388BAD",
"a. c #328FB7",
"s. c #3690B6",
"d. c #3294BD",
"f. c #3D98BE",
"g. c #2693C1",
"h. c #269BCC",
"j. c #2996C4",
"k. c #2C98C5",
"l. c #2B9BCA",
"z. c #279ED0",
"x. c #2C9FD0",
"c. c #3099C6",
"v. c #329DCB",
"b. c #389BC5",
"n. c #26A3D7",
"m. c #27A5DB",
"M. c #2AA2D5",
"N. c #29A4D8",
"B. c #3CA3CF",
"V. c #35A3D2",
"C. c #32A9DB",
"Z. c #3AABDB",
"A. c #2AACE4",
"S. c #28AFE9",
"D. c #28B0EA",
"F. c #4B8097",
"G. c #4B839A",
"H. c #528093",
"J. c #588193",
"K. c #4188A6",
"L. c #478DAA",
"P. c #4594B5",
"I. c #4F96B4",
"U. c #4896B8",
"Y. c #528BA3",
"T. c #518EA9",
"R. c #5493AD",
"E. c #5899B5",
"W. c #5EA1BE",
"Q. c #6D828B",
"!. c #62899A",
"~. c #6B8590",
"^. c #728187",
"/. c #73868E",
"(. c #7D8284",
"). c #788388",
"_. c #718790",
"`. c #7C9199",
"'. c #6F9DB0",
"]. c #7795A2",
"[. c #459DC2",
"{. c #46A0C6",
"}. c #72AAC2",
"|. c #848484",
" X c #87898A",
".X c #8B9295",
"XX c #9D9D9D",
"oX c #8EA0A8",
"OX c #80AABC",
"+X c #ACACAC",
"@X c gray69",
"#X c gray",
"$X c #CDCDCD",
"%X c #DEDEDE",
"&X c #EEEEEE",
"*X c gray100",
/* pixels */
"|.|.|.|.|.|.|.|.|.|.|.|.|.|.|.|.|.|.|.|.|.].}.oX.X X X|.|.|.|.|.",
"{ { 9.{ 9.9.9.9.{ { 9.9.9.9./.Q.(.(.9.).{.Z.W.'.}..X{ { { |.9.9.",
"{ { { { ] { { { [ [ [ { ).[.B.I.R.!.{ [.D.!.{ { ~.E.^.[ [ { { [ ",
"] ] ] ] ] ] ] ] ] ] ] 8.C.V.Q.] ' Y.R.A.P.' ] ] ] Y.~.` ] ] ] ] ",
"( ( ( ( ( ( ( ( ( ( ( P.S.6.( ( ( ` V.S.J.( ( ( ( Y.J._ ( ( ( ( ",
"^ ( ^ ^ / / / ^ / / ) C.f./ / / / / L.V.` / / / / H.G./ ^ / / ^ ",
"^ ^ ^ I ^ I ^ ^ ^ I 5.D.F.^ I ^ I ^ G.b.Q W W I I G.4.^ ^ I ^ ^ ",
"I I I I I I I I I I 2.D.2.I I I I I 3.v.E I I I W K.Q I I I I I ",
"L L L I L L P L L L R S.,.P L L P P ,.A.R P I L 3.0.U P L L L L ",
"H L L H L L L L L H L d.=.K K L L L l.D.p.K K ,.a.:.T L L L L L ",
"H G H H H H H H H H H *.d.K H H H :.D.D.D.k.s.M.l.M.<.H H H H H ",
"G D G G G D D D D D F s.D.=.F F %.m.D.D.D.C.k.;.Z %.%.F G D D D ",
"S S S S S S 0 D D f j M.S.A.M.M.D.S.M.i.A l g f D m C g D S S S ",
"0 0 0 0 0 0 C q.t.;.&.N.D.D.D.A.t.V h f 0 0 0 0 0 #.&.f 0 0 0 0 ",
"8 8 0 8 8 l q.n M.S.S.D.D.M.D.j.d 8 8 8 8 8 8 8 8 &.B 9 8 8 8 8 ",
"8 1 8 1 8 B a 8 M S.D.D.D.k.M.j.s 6 8 8 1 8 8 8 8 M p 6 8 8 8 6 ",
"1 1 1 1 6 v r 1 r M.D.D.S.j.r.j.r 1 1 6 1 1 1 1 1 ..p 3 1 1 3 1 ",
"< < < > 1 v w > 2 h.D.D.D.e.y.h.7 < < < < < < r ..#.7 > < < , , ",
", - , - - z q ; > h.D.D.h.b n.g.5 - - : 5 x >. .b 2 ; , - - - - ",
"- O O @ - q a # w m.D.e.e | D.r.& & a @.z.D.j.e - @ @ O = = = = ",
"O O O O O # b z >.m. .q # * >.g.@.h.D.D.D.r.b % O O O O O O O O ",
"o X O O X O & @.+.y $ O O O # q } n.g. .u * + O O O O X O O X O ",
"X X X X o X X o + o o X X X X X o & & $ X X X X X X X X X X X X ",
"X X X X { *X*X%X= X X { &XX X D *X{ X { *Xf L &X*X*X+XX X X X X ",
". X X S *X9.= %X@XX . &X*X{ . 0 *X%XS %X*XD &X@X. L &X{ . X . X ",
". . . +X+X. . . . . H &X$X@X. 0 *X&X#X&X*X0 &X+X. . . . . . . . ",
".   . +X+X. . . .   { &X{ &X. 0 *XXX*XXX*X0 H &X*X*X+X.   . .   ",
"  .   +X+X.     .   &X$X+X&X{ 0 *XH +XD *X0 .     H &X{ . .   . ",
".     8 *X] X %X+XG &X+X+X$X+X8 *X8   0 *X8 &X+X  D &X{     .   ",
"        [ *X*X%XX ] &X    { &X8 *X8   8 *X8 D &X*X*X+X          ",
"                                                                ",
"                                                                "
};
