/* XPM */
static char *dummy[] =
{
/* width height ncolors chars_per_pixel */
"32 32 32 2",
/* colors */
"AA c #FFFFFFFFFFFF",
"BA c #F7F7F7F7F7F7",
"CA c #EFEFEFEFEFEF",
"DA c #E7E7E7E7E7E7",
"EA c #DEDEDEDEDEDE",
"FA c #D6D6D6D6D6D6",
"GA c #CECECECECECE",
"HA c #C6C6C6C6C6C6",
"IA c #BDBDBDBDBDBD",
"JA c #B5B5B5B5B5B5",
"KA c #ADADADADADAD",
"LA c #A5A5A5A5A5A5",
"MA c #9C9C9C9C9C9C",
"NA c #949494949494",
"OA c #8C8C8C8C8C8C",
"PA c #848484848484",
"AB c #7B7B7B7B7B7B",
"BB c #737373737373",
"CB c #6B6B6B6B6B6B",
"DB c #636363636363",
"EB c #5A5A5A5A5A5A",
"FB c #525252525252",
"GB c #4A4A4A4A4A4A",
"HB c #424242424242",
"IB c #393939393939",
"JB c #313131313131",
"KB c #292929292929",
"LB c #212121212121",
"MB c #181818181818",
"NB c #101010101010",
"OB c #080808080808",
"PB c #000000000000",
/* pixels */
"EAIAHAHAHAHAHAHAHAHAHAHAHAHAHAHAHAHAHAHAHAHAHAHAHAHAHAHAHAHAIAEA",
"JAIAJAJAJAJAJAJAJAJAJAJAJAJAJAJAJAIAJAJAJAJAJAJAJAJAJAJAJAJAJAJA",
"HAJAJAJAJAJAJAJAJAJAJAIAJAJAJAJAJAJAIAJAJAJAJAJAJAJAJAJAJAIAJAHA",
"HAJAJAJAIAJAIAJAJAJAJAKAJAJAGAIAHAIAKAJAJAIAJAJAJAJAIAJAJAJAJAHA",
"HAJAJAJAJAJAJAJAJAIAKADAEAIAKAAAIAJAEADAKAJAJAJAJAJAJAJAJAJAJAHA",
"HAJAJAJAJAJAJAJAJALADAOAFBOANBPBOBCBFBMAEAKAJAJAJAIAJAJAJAJAJAHA",
"HAJAIAJAJAJAIAJAJAGABAOBPAHAABMACBCAKALBCAHAJAJAJAJAJAJAJAIAJAHA",
"HAJAJAIAJAJAJAJAKAAAPBAABAFACBAADBPAOANAOBAAKAJAJAJAJAIAJAJAJAHA",
"HAJAJAJAJAJAJAKAEAPAPABBABOBEAJAGAFBAAAACBIAJAJAJAJAJAJAJAIAJAHA",
"HAJAJAJAJAJAJAKABABBAAEAAACBGAKAEALBBBBBJBNAGAJAJAJAJAJAJAJAJAHA",
"HAJAJAJAJAJAFAGAAAPBDBKALBCBBADAFANAAABAAAOAAALAJAJAJAJAJAJAIAHA",
"HAJAJAJAKAAADBPBMBBBKBPBFBAAIADBJAPBOBABLBEBHBEAJAJAJAJAJAJAJAHA",
"HAJAJAJAAAPBGAAAAAPBJBBBBBOBJBABFBMADBPBLBDBPANADAKAJAJAKAJAJAHA",
"HAIAKAAAIBCACBABPBJAAABAEBEAFAIAHAAAAAIAAAAAAAJBAAAAFACABAKAJAHA",
"HAJAIALAEBDAAAFANAPAHAEADBIAIAFAEAIAHBFBHBPBPBPBPBLBMBPBEBDAKAHA",
"HAKADAABFBEBDBKBBAFBEADAEBIAAALBPBNBLAPBJBEBPBAAIAPBAADAFBDAKAHA",
"HAKAEACBAAAAIABBEAEBEAEAEBHALANAGAAADAPBAALAPBBAAAMBLAHABBEAJAHA",
"HAKADAFBIBNAFAABFADBEAEAEBEABBIAHBCAJAPBDAAAPBAAAAPBAAHACBDAKAHA",
"HAKADADBBAMAIBOAFAEBDAEADBHANAABHAKAAAJBPBDAPBPBPBPBIAFAGBDAKAHA",
"HAJAGAKAIBAAFAMAGAGBHAGADBIANAJAFAAANAMAEAFBDBAAIAMAMBPBJAEAKAHA",
"HAJAKABALBEBGAJBAAMAAAAABBNANAJBOAFBLALAIBAAJBCAFADAAAAAHAKAJAHA",
"HAJAJALAAABBNBKAKBHBABFANAFBLAABAADACBKAGBPBOBAAKAKAKAKAJAIAJAHA",
"HAJAJAJAJAGAGANBPBPBMBPBPBGBJBCBOBPBABJBLAAAAALAJAJAJAJAJAJAJAHA",
"HAJAJAJAJAJAIAAAAACALAHAHAGAIBOAAAFAEABAEAJAKAJAJAJAJAJAJAJAJAHA",
"HAIAJAJAIAJAJAKALAIAEAGAFAJAAAEAKAJAJAKAKAJAJAJAIAJAJAJAJAJAJAHA",
"HAJAJAJAJAJAIAJAJAJAKAJAKAJAKAKAJAJAIAJAJAJAJAJAJAJAIAJAJAJAJAHA",
"HAJAIAJAJAJAJAJAJAJAJAJAJAJAJAJAJAJAJAJAJAJAIAJAJAJAJAJAJAIAJAHA",
"HAJAJAJAJAIAJAJAJAJAJAIAJAJAJAIAJAJAIAJAJAJAJAJAJAJAJAIAJAJAJAHA",
"HAIAJAJAJAJAJAJAJAJAJAJAJAJAJAJAJAJAJAJAJAIAJAJAJAJAJAJAJAJAJAHA",
"HAJAJAJAJAJAJAJAJAJAIAJAJAJAIAKAIAJAJAIAJAJAJAJAJAJAJAJAIAJAJAGA",
"IAJAJAJAJAJAJAJAIAJAJAJAJAJAJAJAJAJAJAJAJAJAJAJAJAJAJAJAJAJAJAJA",
"FAHAHAHAHAHAHAHAHAHAHAHAHAHAHAHAHAHAHAHAHAHAHAHAHAHAHAHAHAGAIAEA",
};
