/* XPM */
static char *manip[] = {
/* columns rows colors chars-per-pixel */
"32 32 131 2",
"   c #010101",
".  c #0C0C0C",
"X  c #141414",
"o  c #14171B",
"O  c #1B1B1B",
"+  c #131B23",
"@  c #1F1F20",
"#  c #1F201F",
"$  c #16202C",
"%  c #1F2123",
"&  c #1B232C",
"*  c #132030",
"=  c #221F1F",
"-  c #232323",
";  c #272728",
":  c #272827",
">  c #272828",
",  c #282727",
"<  c #282827",
"1  c #2C2C2C",
"2  c #202E3D",
"3  c #2B2F35",
"4  c #24303C",
"5  c #352121",
"6  c #333333",
"7  c #363638",
"8  c #3A3A3B",
"9  c #122E4C",
"0  c #133253",
"q  c #1C3D5E",
"w  c #0F3A66",
"e  c #143F6C",
"r  c #263747",
"t  c #2A3945",
"y  c #293B4E",
"u  c #313C47",
"i  c #3F3F41",
"p  c #3F403F",
"a  c #0C447C",
"s  c #17416B",
"d  c #1F4063",
"f  c #1D456F",
"g  c #174777",
"h  c #114479",
"j  c #164A7E",
"k  c #3E4040",
"l  c #441D1D",
"z  c #4B1B1B",
"x  c #551717",
"c  c #412829",
"v  c #4E2929",
"b  c #403F3F",
"n  c #4C3030",
"m  c #403F40",
"M  c #40403F",
"N  c #434343",
"B  c #484748",
"V  c #4A4A4A",
"C  c #525352",
"Z  c #5B5B5B",
"A  c #646364",
"S  c #6C6C6C",
"D  c #727272",
"F  c #7B7B7B",
"G  c #0A5097",
"H  c #114E8D",
"J  c #184E84",
"K  c #0D57A4",
"L  c #0D5CAB",
"P  c #075EB7",
"I  c #065FB9",
"U  c #0664C3",
"Y  c #0667C9",
"T  c #0768CB",
"R  c #0967C8",
"E  c #026EDB",
"W  c #0171E3",
"Q  c #0074EC",
"!  c #7E7F80",
"~  c #20AC11",
"^  c #21AD1B",
"/  c #25B117",
"(  c #27B319",
")  c #2AB61B",
"_  c #2DB91E",
"`  c #20A921",
"'  c #2FBA20",
"]  c #32BE23",
"[  c #3BB72E",
"{  c #1CCD09",
"}  c #1CCC11",
"|  c #1ED00C",
" . c #17ED01",
".. c #1FE20B",
"X. c #19EB03",
"o. c #2DCB1D",
"O. c #20D20E",
"+. c #24D511",
"@. c #2BD819",
"#. c #33C225",
"$. c #3CCA2D",
"%. c #43AA39",
"&. c #40BC33",
"*. c #648560",
"=. c #669061",
"-. c #7D817D",
";. c #64A45E",
":. c #881515",
">. c #980F0F",
",. c #951518",
"<. c #991313",
"1. c #99161C",
"2. c #9B1818",
"3. c #AB0A0A",
"4. c #BC0A0A",
"5. c #B5172A",
"6. c #CE0606",
"7. c #CD0608",
"8. c #C80A0A",
"9. c #D00606",
"0. c #D90404",
"q. c #E30202",
"w. c #ED0000",
"e. c #848484",
"r. c #ACACAC",
"t. c #B0B0B0",
"y. c gray74",
"u. c #CDCDCD",
"i. c #DEDEDE",
"p. c #EEEEEE",
"a. c gray100",
/* pixels */
"e.e.e.e.e.e.e.e.e.e.e.e.e.e.;.$.e.e.e.e.e.e.e.e.e.e.e.e.e.e.e.e.",
"F F F F F e.e.F -.-.! ! -.e.@.X.-.-.! e.F F F F F e.F F F F F e.",
"F F F F F D F F F D F F F =. . .&.F F F F F F F F F F F F F F F ",
"D D D D D D D D D D D D D +. . .X.*.D S D D S D D D D D D D D D ",
"S S S S S S S S D S S D [ o.o.+.%.] S S S S S S S S S S S S S S ",
"A A A S A S A A A A A A A S #.+.S A A S S A S A A A S A A A A S ",
"A A A Z A Z A A A Z A A A Z ] O.Z A Z A Z A A Z A A A Z A A A Z ",
"Z Z Z Z Z Z Z Z Z Z Z Z Z Z ' O.Z Z Z Z Z Z Z Z Z Z Z Z Z Z Z Z ",
"C C C C C C Z Z C C C Z C Z _ O.Z C Z C C C C C C C C C C C C Z ",
"C C C C C C C V C V V C V C ) O.C C V C C C C C C C C C C C V C ",
"V V V V V V V V V V V V V V ( O.B V V V V V V V V V V V V V V V ",
"N B N N N N N N N N B N N B ( O.N N N B N N N B N B N N B N N B ",
"m m M M b b b b M M M M M M / | k k k k M p p M M M p M k 8 M M ",
"8 8 8 8 8 8 8 8 8 8 8 8 8 8 ^ } 8 p 8 8 8 8 8 7 8 8 8 8 8 8 8 8 ",
"7 7 7 7 7 7 7 6 7 6 6 6 6 u ` } 7 7 7 7 6 7 7 6 n 2.7 7 7 6 7 7 ",
"6 1 6 1 6 1 6 6 6 6 6 t y t ~ { 6 6 1 3 6 1 6 6 v 8.4.1 6 6 1 6 ",
"1 1 1 1 1 1 e r 1 3 f L R J 1.2.,.<.<.<.<.<.<.<.<.6.w.q.<.v 1 1 ",
", > , , , 4 R g e L T R L j 5.7.6.6.6.6.6.6.6.6.6.0.w.w.q.:., , ",
"; - - - - H Q Y U I L s & > z l l l l l l l l l z 4.w.>.l 5 - - ",
"- O = @ g E Q W R s & % % % # O # O # # - O = # z 3.x = O = @ @ ",
"O O O & I E Q W P 0 O O O O O O O O O O O O O O O O O O O O O O ",
"o O O + 9 J w G a 9 O O X O O O O O O O O X X O O X O o O O O o ",
"X X X X X X X + * O X X X X X X X X X X X X X X X X X X X X X X ",
"X t.i.- - i.t.X X F p.. X M a.! . N a.M X p.a.a.-.X t.a.a.a.i.# ",
". t.a.F F a.r.. . p.a.! . M a.i.O M a.k . X p.F . . t.t.. = i.t.",
". r.p.i.p.p.r.. V p.u.t.. 8 a.i.t.8 a.8 . . p.F . . r.r.. . r.t.",
". r.y.i.i.y.r.. F p.F p.. 8 a.S a.S a.8 .   p.F . . r.i.r.r.a.F ",
"  r.r.F F r.r.  p.u.r.p.F 8 a.7 r.i.a.8   . p.F .   r.i.r.r.F . ",
"  r.r.    r.r.B p.r.r.u.r.6 a.6 X i.a.6     p.F     r.r.    .   ",
"  r.r.    r.r.D p.    D p.6 a.6   F a.6   p.a.a.F   r.r.        ",
"                                                                ",
"                                                                "
};
