/* XPM */
static char *rvplay[] = {
/* columns rows colors chars-per-pixel */
"32 32 105 2",
"   c #020202",
".  c #080B07",
"X  c #05090A",
"o  c #0B0B0B",
"O  c #100F0F",
"+  c #11130F",
"@  c #0F0F10",
"#  c #0A181B",
"$  c #141414",
"%  c #161814",
"&  c #1C1C1C",
"*  c #1E201E",
"=  c #1D2324",
"-  c #1B2629",
";  c #102C2F",
":  c #153036",
">  c #193239",
",  c #242424",
"<  c #282727",
"1  c #272827",
"2  c #2B2B2B",
"3  c #273438",
"4  c #333433",
"5  c #383738",
"6  c #3B3B3B",
"7  c #3F403F",
"8  c #223C40",
"9  c #1C4F5B",
"0  c #28454F",
"q  c #3F4040",
"w  c #29575F",
"e  c #245460",
"r  c #2B5966",
"t  c #215D6A",
"y  c #444444",
"u  c #484749",
"i  c #4C4C4C",
"p  c #51514F",
"a  c #504F50",
"s  c #4F5050",
"d  c #545454",
"f  c #5A5A5A",
"g  c #636363",
"h  c #6B6B6B",
"j  c #747474",
"k  c #7C7C7C",
"l  c #297286",
"z  c #327B8A",
"x  c #347990",
"c  c #3D7E95",
"v  c #3CA2B4",
"b  c #36A2B9",
"n  c #409DB6",
"m  c #31A4C7",
"M  c #39A6C5",
"N  c #34A7C9",
"B  c #36A9CC",
"V  c #28B0D6",
"C  c #2CB4D9",
"Z  c #36B6D5",
"A  c #31B6DA",
"S  c #39B7DA",
"D  c #34BCDD",
"F  c #3ABCDC",
"G  c #30BDE2",
"H  c #49A8C7",
"J  c #43ABC9",
"K  c #48AAC9",
"L  c #47B2D4",
"P  c #4FB0D4",
"I  c #48B6D9",
"U  c #44BADC",
"Y  c #49BBDC",
"T  c #4ABBE0",
"R  c #37C0E1",
"E  c #3BC4E2",
"W  c #3FC9E5",
"Q  c #3FCCEB",
"!  c #4CCDDD",
"~  c #4DC3E4",
"^  c #42CCE6",
"/  c #4FC9E6",
"(  c #40CEEB",
")  c #45D2EB",
"_  c #49D8EE",
"`  c #47D7F2",
"'  c #4EDDF3",
"]  c #4FE0F6",
"[  c #838283",
"{  c #878888",
"}  c #8B8B8B",
"|  c #949494",
" . c #9D9D9D",
".. c #A4A4A4",
"X. c gray67",
"o. c #B5B5B5",
"O. c #BBBBBB",
"+. c #C3C3C3",
"@. c #CCCCCC",
"#. c #D3D3D3",
"$. c #DBDBDB",
"%. c #E3E3E3",
"&. c #ECECEC",
"*. c #F5F5F5",
"=. c #FDFDFD",
/* pixels */
"| | | | | | | | | | | | | | | | | | | | | | | | | | | | | | | | ",
"} } } } } | } } } } } } | 7 d d d p } } } } } | } } } } } | } } ",
"} } { } { { } { { { g ..%.*.=.*.*.=.%...a { { { } { { { { { } { ",
"[ [ [ [ [ [ [ [ g #.=.#.| j g f g j  .#.=.O.f { [ [ [ [ [ [ [ [ ",
"k k k k k k h  .=.o.h s d f g g g f d d h O.=.X.< k k k k k k k ",
"k j k j j y $.&.g u d f d a s d f f f d d u h &.#.y j j k j j k ",
"j h j h 6 $.#., 5 u u u 5 6 6 i i y i i i i 5 < $.$.5 j h j j j ",
"h h h h +.&.%   6 5 4 < < 2 2 y p 7 y 5 5 5 6 . * &.O.h h h h h ",
"g g g j =.6     % 2 < & c 0 < 2 i 5 5 2 2 < &     7 =.h g g g h ",
"g g i *.|         o $ $ P Y x 3 2 2 1 & $ $          .&.6 g f g ",
"f f h =.%           o @ H I T L r = % + $ %         & =.h f f f ",
"f d @.X.            . X K I I Y / v : .               o.#.d f d ",
"a 6 =.f                 K I I Y Y ~ / z #             g =.2 d i ",
"u a =.<                 K Y Y Y U F F E F 9 X         2 =.u u i ",
"u d *.$             X   K U S A A D E E E Q b ;       $ =.g y u ",
"7 d *.o             o o J C C A R E W ^ ^ ) ` t       O *.j 7 y ",
"5 a *.$   . o o o o + $ m V A F E ^ ^ _ ] v > $ o     $ *.j 6 6 ",
"5 u =.,   O O O $ $ $ & N C D E ^ ) ] ! w = & & O o   < =.d 4 5 ",
"4 4 =.a   $ % & & & & & N C F E ) ' n + , 1 = & $ O   a =.4 4 2 ",
"< < &.| . & & , , < 2 5 B C G ( v 3 % % < 2 , & % %    .*.2 2 2 ",
"< < X.%.& & , < < 2 4 2 B G Z e & , < < 2 2 1 < * $ & &. .< < < ",
"< , 2 =.j % 2 2 4 5 6 4 M l - & = 1 2 2 4 2 < < < @ k =.4 , , , ",
"& * = } &.5 < 4 5 6 8 y 4 * * % & < < 2 4 1 2 2 , 4 *.o.* * & & ",
"& & & * *.O.2 5 7 y i f f 6 6 5 2 4 < 2 4 , 5 4 < O.*.* & & % & ",
"$ $ $ $ d =...5 y u i a d i d d u 6 < < q 6 6 4 X.=.i % % $ $ $ ",
"$ $ $ $ $ g =.O.a y d f f f p i i u 6 y a 7 u O.=.g $ $ $ $ $ % ",
"$ O O O O @ a =.%.[ a d f g g g g g d i a [ &.=.d $ @ @ @ @ @ @ ",
"o o o o o o o & @.=.%. .k g g f g g k  .%.=.+.< o o o o o O o o ",
"X . o . X . X o X 4 +.=.=.*.&.%.&.=.=.=.+.d X o o X . o o o X o ",
". .   . . .   . o   . & y g | ..X.} f , o   .   . .   .   .   . ",
"                                                                ",
"                                                                "
};
