/* XPM */
static char * nrm_back_A_xpm[] = {
"32 32 291 2",
"  	c #C3C2C2",
". 	c #C0BFBF",
"+ 	c #BDBCBC",
"@ 	c #787B7B",
"# 	c #848A8A",
"$ 	c #8E9192",
"% 	c #7B7B7B",
"& 	c #B8B7B7",
"* 	c #BEBEBD",
"= 	c #BCBCBB",
"- 	c #AEAEAE",
"; 	c #8E9393",
"> 	c #9CA6A5",
", 	c #7E8383",
"' 	c #696B6B",
") 	c #676868",
"! 	c #636463",
"~ 	c #A2A2A1",
"{ 	c #BBBBBA",
"] 	c #818686",
"^ 	c #9DA9AA",
"/ 	c #696E6E",
"( 	c #4F4F4F",
"_ 	c #5E5E5E",
": 	c #6E6E6E",
"< 	c #717171",
"[ 	c #5F5F5F",
"} 	c #A4A4A3",
"| 	c #BCBCBC",
"1 	c #B9B9B9",
"2 	c #979898",
"3 	c #798283",
"4 	c #555A5A",
"5 	c #383838",
"6 	c #494949",
"7 	c #696969",
"8 	c #6D6D6D",
"9 	c #676767",
"0 	c #7A7A7A",
"a 	c #B9B9B8",
"b 	c #7C7F7E",
"c 	c #606768",
"d 	c #303131",
"e 	c #333232",
"f 	c #4C4C4C",
"g 	c #636363",
"h 	c #727272",
"i 	c #666666",
"j 	c #646464",
"k 	c #BBBABA",
"l 	c #B5B4B4",
"m 	c #717474",
"n 	c #4C5151",
"o 	c #272828",
"p 	c #353535",
"q 	c #686868",
"r 	c #BAB9B8",
"s 	c #B7B6B5",
"t 	c #A5A4A3",
"u 	c #64696A",
"v 	c #35393A",
"w 	c #242424",
"x 	c #393939",
"y 	c #4B4B4B",
"z 	c #5B5B5B",
"A 	c #626262",
"B 	c #606060",
"C 	c #5F5E5E",
"D 	c #B8B8B8",
"E 	c #B5B5B4",
"F 	c #909190",
"G 	c #555B5B",
"H 	c #252728",
"I 	c #3B3B3B",
"J 	c #575757",
"K 	c #5D5D5D",
"L 	c #5C5C5C",
"M 	c #B8B8B7",
"N 	c #B4B4B3",
"O 	c #7F8080",
"P 	c #484E4E",
"Q 	c #1E1F1F",
"R 	c #252525",
"S 	c #3A3A3A",
"T 	c #555555",
"U 	c #5A5A5A",
"V 	c #B7B7B6",
"W 	c #B3B3B2",
"X 	c #737575",
"Y 	c #383D3D",
"Z 	c #171818",
"` 	c #484848",
" .	c #545454",
"..	c #595959",
"+.	c #B6B4B5",
"@.	c #B2B0B1",
"#.	c #767677",
"$.	c #2A2D2E",
"%.	c #131314",
"&.	c #272626",
"*.	c #474747",
"=.	c #525252",
"-.	c #565656",
";.	c #535353",
">.	c #636263",
",.	c #B4B4B4",
"'.	c #B0B0B0",
").	c #838383",
"!.	c #191B1B",
"~.	c #0A0A0A",
"{.	c #212121",
"].	c #363636",
"^.	c #454545",
"/.	c #515151",
"(.	c #444444",
"_.	c #858585",
":.	c #B4B2B2",
"<.	c #B0AEAE",
"[.	c #A9A7A7",
"}.	c #535455",
"|.	c #0C0D0E",
"1.	c #0E0E0E",
"2.	c #404040",
"3.	c #3D3D3D",
"4.	c #464646",
"5.	c #A2A1A1",
"6.	c #B3B1B1",
"7.	c #AFADAD",
"8.	c #858787",
"9.	c #889293",
"0.	c #2D3030",
"a.	c #020202",
"b.	c #131313",
"c.	c #232323",
"d.	c #2C2C2C",
"e.	c #373737",
"f.	c #757373",
"g.	c #B1B0B0",
"h.	c #ADACAC",
"i.	c #787C7D",
"j.	c #575C5D",
"k.	c #2A2C2B",
"l.	c #292929",
"m.	c #343434",
"n.	c #585858",
"o.	c #616161",
"p.	c #A4A3A3",
"q.	c #B0AFAF",
"r.	c #ACABAB",
"s.	c #797A7A",
"t.	c #363A3B",
"u.	c #121111",
"v.	c #2E2D2D",
"w.	c #AAA9A9",
"x.	c #AEADAE",
"y.	c #AAA9AA",
"z.	c #808081",
"A.	c #1A1D1D",
"B.	c #000000",
"C.	c #161616",
"D.	c #2B2C2C",
"E.	c #424242",
"F.	c #ADACAD",
"G.	c #A9A8A9",
"H.	c #9D9C9D",
"I.	c #424445",
"J.	c #3D4242",
"K.	c #3B3F3E",
"L.	c #929192",
"M.	c #A8A7A7",
"N.	c #A5A4A4",
"O.	c #767A7A",
"P.	c #6E7777",
"Q.	c #484A4A",
"R.	c #6B6B6B",
"S.	c #565555",
"T.	c #A7A6A6",
"U.	c #ABAAAA",
"V.	c #6D7171",
"W.	c #434748",
"X.	c #292828",
"Y.	c #434343",
"Z.	c #9A9A9A",
"`.	c #A6A5A5",
" +	c #666869",
".+	c #2A2C2C",
"++	c #1D1D1D",
"@+	c #4A4A4A",
"#+	c #908F8F",
"$+	c #AFA1A1",
"%+	c #E39191",
"&+	c #FD7575",
"*+	c #E95C5C",
"=+	c #B48F8F",
"-+	c #A9A8A8",
";+	c #646565",
">+	c #1E2020",
",+	c #161717",
"'+	c #474848",
")+	c #414141",
"!+	c #858484",
"~+	c #E58A8A",
"{+	c #FF7272",
"]+	c #FF5252",
"^+	c #FF1A1A",
"/+	c #E41717",
"(+	c #A7A7A7",
"_+	c #A3A3A3",
":+	c #636464",
"<+	c #151616",
"[+	c #1C1D1D",
"}+	c #464849",
"|+	c #595C5C",
"1+	c #686B6C",
"2+	c #5F6061",
"3+	c #3E3E3E",
"4+	c #DB3B3B",
"5+	c #FF1111",
"6+	c #FF0303",
"7+	c #FF0000",
"8+	c #FF0E0E",
"9+	c #FF2A2A",
"0+	c #FD3737",
"a+	c #FF0C0C",
"b+	c #EB0000",
"c+	c #CC0000",
"d+	c #A89292",
"e+	c #A7A5A6",
"f+	c #A3A1A2",
"g+	c #818081",
"h+	c #363939",
"i+	c #656C6C",
"j+	c #737979",
"k+	c #737676",
"l+	c #717374",
"m+	c #686A6A",
"n+	c #999798",
"o+	c #D32222",
"p+	c #E30000",
"q+	c #D90000",
"r+	c #C00000",
"s+	c #AF0B0B",
"t+	c #A49B9C",
"u+	c #A1A0A0",
"v+	c #6F7474",
"w+	c #696F6F",
"x+	c #454747",
"y+	c #4E4E4E",
"z+	c #868585",
"A+	c #AA8484",
"B+	c #BE1515",
"C+	c #B00000",
"D+	c #AF0D0D",
"E+	c #A57777",
"F+	c #A4A3A4",
"G+	c #A09E9F",
"H+	c #646768",
"I+	c #2F3031",
"J+	c #2B2B2B",
"K+	c #777677",
"L+	c #A28B8C",
"M+	c #9F9E9E",
"N+	c #626363",
"O+	c #202020",
"P+	c #3F3F3F",
"Q+	c #6F6F6F",
"R+	c #A4A2A2",
"S+	c #9F9D9D",
"T+	c #171919",
"U+	c #1E1E1E",
"V+	c #747373",
"W+	c #A2A1A2",
"X+	c #919091",
"Y+	c #303233",
"Z+	c #3C3C3C",
"`+	c #858485",
" @	c #A19FA0",
".@	c #9C9A9B",
"+@	c #333536",
"@@	c #3B3A3A",
"#@	c #414040",
"$@	c #9A9899",
"%@	c #9F9E9F",
"&@	c #9B9A9B",
"*@	c #333636",
"=@	c #8D8C8D",
"-@	c #A3A2A3",
";@	c #8A8A8B",
">@	c #404242",
",@	c #424141",
"'@	c #646364",
"  . . . . . + @ # $ % & . . . . . . . . . . . . . . . . . . .   ",
"* = = = = - ; > , ' ) ! ~ = = = = = = = = = = = = = = = = = = * ",
"* { { { { ] ^ / ( _ : < [ } { { { { { { { { { { { { { { { { { * ",
"| 1 1 1 2 3 4 5 6 7 % 8 9 0 1 1 1 1 1 1 1 1 1 1 1 1 1 1 1 1 1 | ",
"= a a a b c d e f g h 7 i j a a a a a a a a a a a a a a a a a = ",
"k & & l m n o p f _ q i g _ & & & & & & & & & & & & & & & & & k ",
"r s s t u v w x y z g A B C s s s s s s s s s s s s s s s s s r ",
"D E E F G H w I y J _ [ K L E E E E E E E E E E E E E E E E E D ",
"M N N O P Q R S 6 T L L U K N N N N N N N N N N N N N N N N N M ",
"V W W X Y Z R S `  .....J z W W W W W W W W W W W W W W W W W V ",
"+.@.@.#.$.%.&.S *.=.J -.;.>.@.@.@.@.@.@.@.@.@.@.@.@.@.@.@.@.@.+.",
",.'.'.).!.~.{.].^.( ;./.(._.'.'.'.'.'.'.'.'.'.'.'.'.'.'.'.'.'.,.",
":.<.<.[.}.|.1.o 5 2.(.3.4.5.<.<.<.<.<.<.<.<.<.<.<.<.<.<.<.<.<.:.",
"6.7.7.8.9.0.a.b.c.d.e.3.f.7.7.7.7.7.7.7.7.7.7.7.7.7.7.7.7.7.7.6.",
"g.h.h.i.j.k.l.m.*.-.n.o.T p.h.h.h.h.h.h.h.h.h.h.h.h.h.h.h.h.h.g.",
"q.r.r.s.t.u.v.(.-.o.K  .n.w.r.r.r.r.r.r.r.r.r.r.r.r.r.r.r.r.r.q.",
"x.y.y.z.A.B.C.D.S E.4.I < y.y.y.y.y.y.y.y.y.y.y.y.y.y.y.y.y.y.x.",
"F.G.G.H.I.J.K.I ^.f f 2.L.G.G.G.G.G.G.G.G.G.G.G.G.G.G.G.G.G.G.F.",
"r.M.M.N.O.P.Q.f j R.g S.T.M.M.M.M.M.M.M.M.M.M.M.M.M.M.M.M.M.M.r.",
"U.T.T.N.V.W.X.Y.K i _ /.Z.T.T.T.T.T.T.T.T.T.T.T.T.T.T.T.T.T.T.U.",
"w.`.`.`. +.+++I f -.n.@+#+`.`.`.`.`.`.`.`.`.`.$+%+&+*+=+`.`.`.w.",
"-+N.N.N.;+>+,+].'+;. .)+!+N.N.N.N.N.N.N.N.N.N.~+{+]+^+/+N.N.N.-+",
"(+_+_+_+:+<+[+}+|+1+2+3+4+5+6+7+7+7+7+7+7+8+9+0+9+a+b+c+d+_+_+(+",
"e+f+f+f+g+h+i+j+k+l+m+/.n+f+f+f+f+f+f+f+f+f+f+o+p+q+r+s+t+f+f+e+",
"N.u+u+u+u+v+w+x+/.i j y+z+u+u+u+u+u+u+u+u+u+u+A+B+C+D+E+u+u+u+N.",
"F+G+G+G+G+H+I+J+^.n.L y K+G+G+G+G+G+G+G+G+G+G+G+G+L+G+G+G+G+G+F+",
"p.M+M+M+M+N+>+O+P+( y+^.Q+M+M+M+M+M+M+M+M+M+M+M+M+M+M+M+M+M+M+p.",
"R+S+S+S+S+Q+T+U+2.;.*.x V+S+S+S+S+S+S+S+S+S+S+S+S+S+S+S+S+S+S+R+",
"W+H.H.H.H.X+Y+Y+Z+=.)+p `+H.H.H.H.H.H.H.H.H.H.H.H.H.H.H.H.H.H.W+",
" @.@.@.@.@.@>.+@@@;.p #@$@.@.@.@.@.@.@.@.@.@.@.@.@.@.@.@.@.@.@ @",
"%@&@&@&@&@&@`+*@x ;.4.=@&@&@&@&@&@&@&@&@&@&@&@&@&@&@&@&@&@&@&@%@",
"-@%@%@%@%@%@;@>@,@-.'@%@%@%@%@%@%@%@%@%@%@%@%@%@%@%@%@%@%@%@%@-@"};
