/* XPM */
static char * nrm_fkikmtch_xpm[] = {
"32 32 151 2",
"  	c #C3C2C2",
". 	c #C0BFBF",
"+ 	c #BEBEBD",
"@ 	c #BCBCBB",
"# 	c #BBBBBA",
"$ 	c #BCBCBC",
"% 	c #B9B9B9",
"& 	c #B9B9B8",
"* 	c #BBBABA",
"= 	c #B8B7B7",
"- 	c #939292",
"; 	c #000000",
"> 	c #3D3D3D",
", 	c #0C0C0C",
"' 	c #9F9F9F",
") 	c #7B7A7A",
"! 	c #878686",
"~ 	c #626262",
"{ 	c #BAB9B8",
"] 	c #B7B6B5",
"^ 	c #868585",
"/ 	c #313130",
"( 	c #6E6D6D",
"_ 	c #929291",
": 	c #B8B8B8",
"< 	c #B5B5B4",
"[ 	c #858584",
"} 	c #6D6D6C",
"| 	c #9D9D9C",
"1 	c #A9A9A8",
"2 	c #484848",
"3 	c #B8B8B7",
"4 	c #B4B4B3",
"5 	c #848483",
"6 	c #60605F",
"7 	c #6C6C6B",
"8 	c #303030",
"9 	c #242424",
"0 	c #B7B7B6",
"a 	c #B3B3B2",
"b 	c #838383",
"c 	c #5F5F5F",
"d 	c #6B6B6B",
"e 	c #A7A7A6",
"f 	c #B6B4B5",
"g 	c #B2B0B1",
"h 	c #838182",
"i 	c #5F5E5E",
"j 	c #9A9999",
"k 	c #6B6A6A",
"l 	c #8E8D8E",
"m 	c #474647",
"n 	c #B4B4B4",
"o 	c #B0B0B0",
"p 	c #818181",
"q 	c #171717",
"r 	c #464646",
"s 	c #6A6A6A",
"t 	c #757575",
"u 	c #8D8D8D",
"v 	c #B4B2B2",
"w 	c #B0AEAE",
"x 	c #818080",
"y 	c #6A6868",
"z 	c #999797",
"A 	c #2F2E2E",
"B 	c #232323",
"C 	c #B3B1B1",
"D 	c #AFADAD",
"E 	c #8C8A8A",
"F 	c #525151",
"G 	c #807F7F",
"H 	c #989696",
"I 	c #5D5C5C",
"J 	c #B1B0B0",
"K 	c #ADACAC",
"L 	c #B0AFAF",
"M 	c #ACABAB",
"N 	c #AEADAE",
"O 	c #AAA9AA",
"P 	c #ADACAD",
"Q 	c #A9A8A9",
"R 	c #A8A7A7",
"S 	c #ABAAAA",
"T 	c #A7A6A6",
"U 	c #717070",
"V 	c #5A5959",
"W 	c #3B3B3B",
"X 	c #9F9E9E",
"Y 	c #888787",
"Z 	c #333333",
"` 	c #797878",
" .	c #4A4A4A",
"..	c #908F8F",
"+.	c #AAA9A9",
"@.	c #A6A5A5",
"#.	c #878787",
"$.	c #707070",
"%.	c #A9A8A8",
"&.	c #A5A4A4",
"*.	c #515151",
"=.	c #8E8D8D",
"-.	c #706F6F",
";.	c #595959",
">.	c #686868",
",.	c #A7A7A7",
"'.	c #A3A3A3",
").	c #6F6F6F",
"!.	c #585858",
"~.	c #3A3A3A",
"{.	c #858585",
"].	c #494949",
"^.	c #A7A5A6",
"/.	c #A3A1A2",
"(.	c #515051",
"_.	c #605F5F",
":.	c #424242",
"<.	c #6F6E6E",
"[.	c #949293",
"}.	c #858484",
"|.	c #A1A0A0",
"1.	c #505050",
"2.	c #666666",
"3.	c #8B8A8A",
"4.	c #7C7C7C",
"5.	c #848383",
"6.	c #A4A3A4",
"7.	c #A09E9F",
"8.	c #494849",
"9.	c #747374",
"0.	c #6D6C6D",
"a.	c #424141",
"b.	c #666565",
"c.	c #A4A3A3",
"d.	c #828181",
"e.	c #656565",
"f.	c #6D6C6C",
"g.	c #898989",
"h.	c #A4A2A2",
"i.	c #9F9D9D",
"j.	c #898888",
"k.	c #575656",
"l.	c #504F4F",
"m.	c #414141",
"n.	c #A2A1A2",
"o.	c #9D9C9D",
"p.	c #A19FA0",
"q.	c #9C9A9B",
"r.	c #9F9E9F",
"s.	c #9B9A9B",
"t.	c #A3A2A3",
"  . . . . . . . . . . . . . . . . . . . . . . . . . . . . . .   ",
"+ @ @ @ @ @ @ @ @ @ @ @ @ @ @ @ @ @ @ @ @ @ @ @ @ @ @ @ @ @ @ + ",
"+ # # # # # # # # # # # # # # # # # # # # # # # # # # # # # # + ",
"$ % % % % % % % % % % % % % % % % % % % % % % % % % % % % % % $ ",
"@ & & & & & & & & & & & & & & & & & & & & & & & & & & & & & & @ ",
"* = = - ; ; ; > - , = ' , ) = = = = = ! ; = ! ; = = ~ ; - = = * ",
"{ ] ] ^ ; ] ] ] ^ ; ] / / ] ] ] ] ] ] ( ; ] ( ; ] _ ; ( ] ] ] { ",
": < < [ ; < < < [ ; } , | < < < < < < } ; < } ; 1 , 2 < < < < : ",
"3 4 4 5 ; 4 4 4 5 ; , 6 4 4 4 4 4 4 4 7 ; 4 7 ; 8 9 4 4 4 4 4 3 ",
"0 a a b ; ; ; c b ; ; c a a a a a a a d ; a d ; ; , e a a a a 0 ",
"f g g h ; g g g h ; i ; j g g g g g g k ; g k ; l , m g g g g f ",
"n o o p ; o o o p ; o q r o o o o o o s ; o s ; o t ; u o o o n ",
"v w w x ; w w w x ; w y ; z w w w w w y ; w y ; w w A B w w w v ",
"C D D E , D D D E , D D B F D D D D D G ; D G ; D D H ; I D D C ",
"J K K K K K K K K K K K K K K K K K K K K K K K K K K K K K K J ",
"L M M M M M M M M M M M M M M M M M M M M M M M M M M M M M M L ",
"N O O O O O O O O O O O O O O O O O O O O O O O O O O O O O O N ",
"P Q Q Q Q Q Q Q Q Q Q Q Q Q Q Q Q Q Q Q Q Q Q Q Q Q Q Q Q Q Q P ",
"M R R R R R R R R R R R R R R R R R R R R R R R R R R R R R R M ",
"S T T T T U V T T W U X W Y V Z Z Z U ` W  ...W T ..W T T T T S ",
"+.@.@.@.@.F Z @.#.Z $.#.Z $.@.#.Z @.#.W G G G Z @.#.Z @.@.@.@.+.",
"%.&.&.&.&.*.Z =.-.Z -.-.Z *.&.! Z &.;.>.&.&.! Z &.! Z &.&.&.&.%.",
",.'.'.'.'.*.Z ).!.~.).!.*.~.'.{.Z '.].{.'.'.{.Z '.{.Z '.'.'.'.,.",
"^././././.(.(._.:.(.<.:.<.Z [.}.Z /.Z }././.}.Z Z Z Z /./././.^.",
"&.|.|.|.|.1.2.].Z ( ( Z 3.Z 4.5.Z |.~.5.|.|.5.Z |.5.Z |.|.|.|.&.",
"6.7.7.7.7.8.9.Z 1.0.a.Z Z Z 0.h Z 7.1.b.7.7.h Z 7.h Z 7.7.7.7.6.",
"c.X X X X Z d.~.e.f.Z 1.X e.1.d.Z X ) ~.g.) ) Z X d.Z X X X X c.",
"h.i.i.i.i.~.j.k.) f.l.f.i.d.m.j.~.i.i.f.~.m.j.~.i.j.~.i.i.i.i.h.",
"n.o.o.o.o.o.o.o.o.o.o.o.o.o.o.o.o.o.o.o.o.o.o.o.o.o.o.o.o.o.o.n.",
"p.q.q.q.q.q.q.q.q.q.q.q.q.q.q.q.q.q.q.q.q.q.q.q.q.q.q.q.q.q.q.p.",
"r.s.s.s.s.s.s.s.s.s.s.s.s.s.s.s.s.s.s.s.s.s.s.s.s.s.s.s.s.s.s.r.",
"t.r.r.r.r.r.r.r.r.r.r.r.r.r.r.r.r.r.r.r.r.r.r.r.r.r.r.r.r.r.r.t."};
