/* XPM */
static char * nrm_rtlips_xpm[] = {
"32 32 433 2",
"  	c #393939",
". 	c #434242",
"+ 	c #4C4C4C",
"@ 	c #545454",
"# 	c #5B5B5B",
"$ 	c #626262",
"% 	c #666666",
"& 	c #6A6A6A",
"* 	c #6E6E6E",
"= 	c #717171",
"- 	c #727171",
"; 	c #747575",
"> 	c #636363",
", 	c #535757",
"' 	c #848D8E",
") 	c #8E9596",
"! 	c #7E8080",
"~ 	c #848484",
"{ 	c #8E8E8E",
"] 	c #939393",
"^ 	c #A5A5A5",
"/ 	c #AEAEAE",
"( 	c #ACACAC",
"_ 	c #A9A9A9",
": 	c #A6A6A6",
"< 	c #ADADAD",
"[ 	c #B0B0B0",
"} 	c #B1B1B1",
"| 	c #B4B4B4",
"1 	c #333434",
"2 	c #3E3E3E",
"3 	c #484848",
"4 	c #505050",
"5 	c #575757",
"6 	c #5E5E5E",
"7 	c #676868",
"8 	c #6B6C6C",
"9 	c #6F6F6F",
"0 	c #727272",
"a 	c #555A5B",
"b 	c #899394",
"c 	c #868B8C",
"d 	c #797A7A",
"e 	c #909090",
"f 	c #949494",
"g 	c #A1A1A1",
"h 	c #AAAAAA",
"i 	c #A4A4A4",
"j 	c #B2B2B2",
"k 	c #ABABAB",
"l 	c #A2A2A2",
"m 	c #2D2E2E",
"n 	c #454545",
"o 	c #4D4D4D",
"p 	c #5A5A5A",
"q 	c #616161",
"r 	c #656565",
"s 	c #686969",
"t 	c #646464",
"u 	c #393A3A",
"v 	c #555B5B",
"w 	c #848E8E",
"x 	c #777D7E",
"y 	c #747475",
"z 	c #868686",
"A 	c #989898",
"B 	c #A3A3A3",
"C 	c #9D9D9D",
"D 	c #292929",
"E 	c #363636",
"F 	c #424242",
"G 	c #4B4B4B",
"H 	c #525252",
"I 	c #595959",
"J 	c #5F5F5F",
"K 	c #646565",
"L 	c #686868",
"M 	c #6D6D6D",
"N 	c #505151",
"O 	c #2B2B2C",
"P 	c #595D5E",
"Q 	c #7B8484",
"R 	c #6E7373",
"S 	c #737474",
"T 	c #898989",
"U 	c #959595",
"V 	c #999999",
"W 	c #9F9F9F",
"X 	c #A8A8A8",
"Y 	c #A0A0A0",
"Z 	c #242424",
"` 	c #323232",
" .	c #494949",
"..	c #515151",
"+.	c #565656",
"@.	c #616262",
"#.	c #676767",
"$.	c #6C6C6C",
"%.	c #353535",
"&.	c #232526",
"*.	c #595F5F",
"=.	c #6E7574",
"-.	c #666969",
";.	c #747474",
">.	c #8D8D8D",
",.	c #969696",
"'.	c #A7A7A7",
").	c #9C9C9C",
"!.	c #202020",
"~.	c #2D2D2D",
"{.	c #464646",
"].	c #4E4F4F",
"^.	c #555656",
"/.	c #5C5C5C",
"(.	c #494A4A",
"_.	c #1F1F1F",
":.	c #272829",
"<.	c #585F5F",
"[.	c #616767",
"}.	c #5F6161",
"|.	c #757575",
"1.	c #9E9E9E",
"2.	c #9B9B9B",
"3.	c #979797",
"4.	c #1C1C1C",
"5.	c #282828",
"6.	c #343434",
"7.	c #404040",
"8.	c #535454",
"9.	c #585858",
"0.	c #313232",
"a.	c #161717",
"b.	c #2C2E2E",
"c.	c #545A5B",
"d.	c #525858",
"e.	c #545656",
"f.	c #919191",
"g.	c #929292",
"h.	c #1B1B1B",
"i.	c #232323",
"j.	c #2F2F2F",
"k.	c #3B3B3B",
"l.	c #474747",
"m.	c #4F4F4F",
"n.	c #1D1E1E",
"o.	c #141414",
"p.	c #2F3231",
"q.	c #464B4B",
"r.	c #383A3A",
"s.	c #777777",
"t.	c #7F7F7F",
"u.	c #9A9A9A",
"v.	c #8F8F8F",
"w.	c #1B1C1C",
"x.	c #2A2A2A",
"y.	c #414141",
"z.	c #161515",
"A.	c #26292A",
"B.	c #2A2C2C",
"C.	c #1E1E1E",
"D.	c #222222",
"E.	c #3F4040",
"F.	c #737373",
"G.	c #8B8B8B",
"H.	c #1D1D1D",
"I.	c #181818",
"J.	c #212121",
"K.	c #2E2E2E",
"L.	c #444444",
"M.	c #4E4E4E",
"N.	c #434343",
"O.	c #2C2C2C",
"P.	c #373737",
"Q.	c #707070",
"R.	c #818181",
"S.	c #8A8A8A",
"T.	c #1F2121",
"U.	c #161616",
"V.	c #4D4C4C",
"W.	c #4A4949",
"X.	c #524F4F",
"Y.	c #535151",
"Z.	c #595858",
"`.	c #5D5D5D",
" +	c #6B6B6B",
".+	c #7E7E7E",
"++	c #8C8C8C",
"@+	c #232424",
"#+	c #1A1A1A",
"$+	c #3A3A3A",
"%+	c #504C4C",
"&+	c #614C4C",
"*+	c #774848",
"=+	c #864545",
"-+	c #7B4F4F",
";+	c #6C6161",
">+	c #7A7A7A",
",+	c #888888",
"'+	c #292C2C",
")+	c #2B2B2B",
"!+	c #373535",
"~+	c #4D3C3C",
"{+	c #773838",
"]+	c #AA2828",
"^+	c #C81E1E",
"/+	c #CC1D1D",
"(+	c #AD3232",
"_+	c #775858",
":+	c #696969",
"<+	c #303232",
"[+	c #212122",
"}+	c #1A1B1B",
"|+	c #2C2929",
"1+	c #4C2C2C",
"2+	c #902222",
"3+	c #C91313",
"4+	c #E10D0D",
"5+	c #DE1010",
"6+	c #DA1515",
"7+	c #725A5A",
"8+	c #686666",
"9+	c #797979",
"0+	c #8E8F8F",
"a+	c #8D8E8E",
"b+	c #373939",
"c+	c #262727",
"d+	c #211E1E",
"e+	c #402323",
"f+	c #911B1B",
"g+	c #D90B0B",
"h+	c #DD0C0C",
"i+	c #C91414",
"j+	c #BC1B1B",
"k+	c #D41414",
"l+	c #A13232",
"m+	c #685656",
"n+	c #626363",
"o+	c #3E4243",
"p+	c #2D2F2F",
"q+	c #1E2020",
"r+	c #281B1B",
"s+	c #6A1A1A",
"t+	c #C10F0F",
"u+	c #DA0C0C",
"v+	c #B71E1E",
"w+	c #863131",
"x+	c #9E2323",
"y+	c #CF1212",
"z+	c #9A2D2D",
"A+	c #5A4E4E",
"B+	c #6C6D6D",
"C+	c #767676",
"D+	c #858585",
"E+	c #828282",
"F+	c #808080",
"G+	c #848585",
"H+	c #484C4D",
"I+	c #333636",
"J+	c #2D1B1B",
"K+	c #851313",
"L+	c #CF0B0B",
"M+	c #B91717",
"N+	c #7A3B3C",
"O+	c #6B4B4B",
"P+	c #A52D2D",
"Q+	c #D21515",
"R+	c #A33232",
"S+	c #635656",
"T+	c #5C5A5A",
"U+	c #747676",
"V+	c #7D7D7D",
"W+	c #7B7B7B",
"X+	c #939292",
"Y+	c #858686",
"Z+	c #4F5353",
"`+	c #393D3D",
" @	c #262929",
".@	c #301C1C",
"+@	c #7A1414",
"@@	c #BE0E0E",
"#@	c #A51919",
"$@	c #693636",
"%@	c #633E3E",
"&@	c #A92525",
"*@	c #D41313",
"=@	c #A22F2F",
"-@	c #675656",
";@	c #626161",
">@	c #797878",
",@	c #535A59",
"'@	c #3F4444",
")@	c #292D2D",
"!@	c #281E1E",
"~@	c #511818",
"{@	c #9C1212",
"]@	c #B11313",
"^@	c #882222",
"/@	c #693232",
"(@	c #A82020",
"_@	c #D41111",
":@	c #9F2B2B",
"<@	c #5F4E4E",
"[@	c #5D5C5C",
"}@	c #7C7C7C",
"|@	c #878787",
"1@	c #858484",
"2@	c #5A5F60",
"3@	c #45494B",
"4@	c #2E3131",
"5@	c #221F1F",
"6@	c #2E1C1C",
"7@	c #671B1B",
"8@	c #A61313",
"9@	c #AC1515",
"0@	c #922121",
"a@	c #B31A1A",
"b@	c #D90F0F",
"c@	c #9E2929",
"d@	c #5D4D4D",
"e@	c #868787",
"f@	c #626566",
"g@	c #4B4E51",
"h@	c #323535",
"i@	c #1F2020",
"j@	c #201E1E",
"k@	c #392222",
"l@	c #6E1F1F",
"m@	c #A51616",
"n@	c #BA1414",
"o@	c #CD1111",
"p@	c #DE0C0C",
"q@	c #992B2B",
"r@	c #584F4F",
"s@	c #878888",
"t@	c #727273",
"u@	c #505455",
"v@	c #343737",
"w@	c #262424",
"x@	c #3C2626",
"y@	c #6E2323",
"z@	c #A81919",
"A@	c #CE0F0F",
"B@	c #D40F0F",
"C@	c #893131",
"D@	c #554F4F",
"E@	c #878686",
"F@	c #575A5A",
"G@	c #353838",
"H@	c #2A2828",
"I@	c #3F2D2D",
"J@	c #602B2B",
"K@	c #872525",
"L@	c #8B2929",
"M@	c #5F4141",
"N@	c #8B8C8C",
"O@	c #898A8A",
"P@	c #A19FA0",
"Q@	c #676768",
"R@	c #3B3E3E",
"S@	c #222424",
"T@	c #262626",
"U@	c #2E2D2D",
"V@	c #383434",
"W@	c #463939",
"X@	c #4C4040",
"Y@	c #4B4848",
"Z@	c #888989",
"`@	c #A5A4A4",
" #	c #848383",
".#	c #474949",
"+#	c #252626",
"@#	c #191919",
"##	c #3A3939",
"$#	c #838383",
"%#	c #A4A3A4",
"&#	c #999798",
"*#	c #272727",
"=#	c #535353",
"-#	c #808081",
";#	c #79797A",
">#	c #A4A3A3",
",#	c #9F9E9E",
"'#	c #8A8989",
")#	c #161617",
"!#	c #3D3D3D",
"~#	c #787878",
"{#	c #898888",
"]#	c #A4A2A2",
"^#	c #9F9D9D",
"/#	c #9E9C9C",
"(#	c #7A7878",
"_#	c #383838",
":#	c #5C5B5B",
"<#	c #767575",
"[#	c #A09E9E",
"}#	c #A2A1A2",
"|#	c #9D9C9D",
"1#	c #373637",
"2#	c #252525",
"3#	c #303030",
"4#	c #606060",
"5#	c #636464",
"6#	c #555555",
"7#	c #6B6A6B",
"8#	c #949394",
"9#	c #9C9A9B",
"0#	c #989697",
"a#	c #7A797A",
"b#	c #4D4C4D",
"c#	c #2D2C2D",
"d#	c #232222",
"e#	c #777676",
"f#	c #959494",
"g#	c #9F9E9F",
"h#	c #9B9A9B",
"i#	c #908F90",
"j#	c #767576",
"k#	c #565556",
"l#	c #2C2D2D",
"m#	c #262828",
"n#	c #333333",
"o#	c #666566",
"p#	c #777677",
"q#	c #8E8D8E",
"r#	c #A3A2A3",
"s#	c #787979",
"t#	c #6C7373",
"u#	c #434647",
"v#	c #242425",
"w#	c #313131",
"x#	c #4A4A4A",
"y#	c #6F7070",
"z#	c #999899",
"  . + @ # $ % & * = - ; > , ' ) ! ~ { ] ^ / ( _ : _ < [ } | } _ ",
"1 2 3 4 5 6 > 7 8 9 0 = 4 a b c d ~ e f g h : i ^ ( j | | } k l ",
"m   n o @ p q r s * 0 t u v w x y z ] A B _ i l i h / / / k ^ C ",
"D E F G H I J K L M 9 N O P Q R S T U V W : ^ B : X h h _ ^ Y V ",
"Z ` 2  ...+.6 @.#.$.q %.&.*.=.-.;.>.V ,.,.l ^ i : : '.: ^ Y ).U ",
"!.~.  {.].^./.J r #.(._.:.<.[.}.|.] 1.f ] l '.^ i i i g W 2.3.] ",
"4.5.6.7.G 8.9.J $ 9.0.a.b.c.d.e.9 >.2.f.f.Y '.^ B Y W C 2.,.g.e ",
"h.i.j.k.l.m.+././.F n.o.p.q.r.  + K s.t.T u.^ B W 1.2.V U g.v.{ ",
"w.4.x.%.y. .H 5 o x.z.a.A.B.C.D.j.E.m.6 F.g.B Y C 2.A f g.v.>.G.",
"H.I.J.K.  L.M.H N.K.O.j.%.%.P.7.G 5 r Q.R.V l W C u.,.] v.{ G.S.",
"T.U.H.5.6.2  .m.V.W.X.Y.Z.`.>  +|..+G.3.C l l g W 2.U g.v.++S.T ",
"@+I.#+Z j.$+L.%+&+*+=+-+;+& M ;.>+~ v.u.l ^ B B B 1.3.g.v.>.S.,+",
"'+w.#+J.)+!+~+{+]+^+/+(+_+:+M ;.>+R.>.u.i X _ _ ^ W 3.g.v.>.S.,+",
"<+[+}+!.|+1+2+3+4+5+6+(+7+8+$.;.9+R.S.3.B h h '.Y 3.f.e 0+a+S.T ",
"b+c+w.d+e+f+g+h+i+j+k+l+m+n+:+9 ;.>+R.G.f u.C V e ,+,+G.>.>.G.,+",
"o+p+q+r+s+t+u+v+w+x+y+z+A+^.6 #.B+S C+;.s..+z D+E+F+G+T G.G.S.,+",
"H+I+Z J+K+L+M+N+O+P+Q+R+S+T+t * U+V+t.9+W+~ ++v.e f.X+{ ++S.T Y+",
"Z+`+ @.@+@@@#@$@%@&@*@=@-@;@:+Q.>@R.S.v.f ,.,.3.A 3.f e { S.T Y+",
",@'@)@!@~@{@]@^@/@(@_@:@<@[@>  +F.}@z { g.] ] f.e v.{ >.G.T |@1@",
"2@3@4@5@6@7@8@9@0@a@b@c@d@p q :+= >+R.T >.v.v.v.>.++G.G.S.T e@~ ",
"f@g@h@i@j@k@l@m@n@o@p@q@r@p q L = >+E+T ++{ { { >.>.G.S.T ,+s@E+",
"t@u@v@i@H.w@x@y@z@A@B@C@D@9.q :+0 }@~ S.>.{ { { { >.>.G.S.T E@F+",
"S.F@G@i@#+D.H@I@J@K@L@M@..5 6 L 0 }@~ S.>.{ v.{ v.>.>.N@O@,+D+V+",
"P@Q@R@S@#+C.T@U@V@W@X@Y@m.+./.% = W+D+S.>.{ { { { { ++S.Z@z R.|.",
"`@ #.#+#@#h.D.x.` ##F 3 m.+.`.r Q.W+$#G.>.>.>.>.>.++S.T z $#>+$.",
"%#&#> j.#+U.C.*#j.P.7.l.M.=## r Q.>+$#,+++>.++++++S.T z -#;#* M ",
">#,#'#+ _.)#I.!.x.%.!#{.o @ /.% Q.>+R.,+S.G.G.G.S.,+D+t.~#M > {#",
"]#^#/#(#  #+U.#+D.~._#y. ...p r 9 s.F+D+,+T S.T |@$#t.C+:+:#<#[#",
"}#|#|#3.$.1#C.@#h.2#3#$+F + +.4#& 0 >+t.E+~ ~ E+F+V+|.5#6#7#8#}#",
"P@9#9#9#0#a#b#c#_.4.d#j.$+L.M.p t $.F.~#W+}@>+s.;. +J # e#f#9#P@",
"g#h#h#h#h#h#i#j#k#$+l#m#x.n#7.+ 5 6 $ % #.#.L #.4#o#p#q#h#h#h#g#",
"r#g#g#g#g#g#g#g#h#s#t#u#v#D.5.w#  2 L.x#4 4#y#B+9 z#g#g#g#g#g#r#"};
