/* XPM */
static char * nrm_brow_xpm[] = {
"32 32 583 2",
"  	c #C3C2C2",
". 	c #AAA9A9",
"+ 	c #A9B2B3",
"@ 	c #D1E2E4",
"# 	c #D2E2E3",
"$ 	c #D2E1E3",
"% 	c #C6D3D4",
"& 	c #B2BCBD",
"* 	c #A1A9AA",
"= 	c #989FA0",
"- 	c #959A9A",
"; 	c #929697",
"> 	c #8E9494",
", 	c #8B8F90",
"' 	c #8A8D8E",
") 	c #878A8A",
"! 	c #848787",
"~ 	c #808181",
"{ 	c #7C7D7D",
"] 	c #7A7B7B",
"^ 	c #797A7A",
"/ 	c #7A7A7A",
"( 	c #797979",
"_ 	c #787878",
": 	c #767676",
"< 	c #727272",
"[ 	c #6A6A6A",
"} 	c #717070",
"| 	c #B5B4B4",
"1 	c #AAABAA",
"2 	c #A4ACAC",
"3 	c #CFE0E1",
"4 	c #D2E3E4",
"5 	c #D9E8E9",
"6 	c #C7D4D5",
"7 	c #ACB6B8",
"8 	c #9BA2A4",
"9 	c #909597",
"0 	c #8A8F90",
"a 	c #888D8D",
"b 	c #85898A",
"c 	c #848686",
"d 	c #818383",
"e 	c #7E8181",
"f 	c #7B7D7D",
"g 	c #777979",
"h 	c #767777",
"i 	c #777777",
"j 	c #7D7D7D",
"k 	c #7F7F7F",
"l 	c #808080",
"m 	c #818181",
"n 	c #828282",
"o 	c #7B7B7B",
"p 	c #6F6F6F",
"q 	c #999D9D",
"r 	c #CADBDC",
"s 	c #CADADB",
"t 	c #D2E1E2",
"u 	c #C5D1D2",
"v 	c #A9B3B4",
"w 	c #969E9E",
"x 	c #8C9292",
"y 	c #86898A",
"z 	c #7F8383",
"A 	c #7C7F7F",
"B 	c #757676",
"C 	c #747575",
"D 	c #727273",
"E 	c #747474",
"F 	c #7E7E7E",
"G 	c #838383",
"H 	c #848484",
"I 	c #878787",
"J 	c #888888",
"K 	c #7E7F7F",
"L 	c #ADB8B8",
"M 	c #C5D5D6",
"N 	c #BFCECF",
"O 	c #B8C6C7",
"P 	c #A4ADAF",
"Q 	c #919999",
"R 	c #868D8D",
"S 	c #818686",
"T 	c #7C7E7F",
"U 	c #767878",
"V 	c #727373",
"W 	c #6F7070",
"X 	c #6D6E6E",
"Y 	c #6D6D6D",
"Z 	c #737373",
"` 	c #7C7C7C",
" .	c #868686",
"..	c #8B8B8B",
"+.	c #8C8C8C",
"@.	c #8D8D8D",
"#.	c #858585",
"$.	c #BDCDCE",
"%.	c #B4C2C3",
"&.	c #AAB8B9",
"*.	c #9DA7A8",
"=.	c #8B9394",
"-.	c #7F8586",
";.	c #7A7E7E",
">.	c #767979",
",.	c #717272",
"'.	c #6C6D6D",
").	c #686969",
"!.	c #686768",
"~.	c #6B6B6B",
"{.	c #717171",
"].	c #898989",
"^.	c #8E8E8E",
"/.	c #919191",
"(.	c #909090",
"_.	c #8F8F8F",
":.	c #B4C4C5",
"<.	c #A1AEAF",
"[.	c #939F9E",
"}.	c #868E8F",
"|.	c #7B8282",
"1.	c #747979",
"2.	c #6F7172",
"3.	c #6A6C6C",
"4.	c #656767",
"5.	c #636464",
"6.	c #676767",
"7.	c #696969",
"8.	c #6C6C6C",
"9.	c #707070",
"0.	c #8A8A8A",
"a.	c #939393",
"b.	c #949494",
"c.	c #929292",
"d.	c #A5B2B2",
"e.	c #929D9D",
"f.	c #808A8A",
"g.	c #767E7E",
"h.	c #707575",
"i.	c #696D6D",
"j.	c #646566",
"k.	c #5F6060",
"l.	c #5E5F5F",
"m.	c #626363",
"n.	c #686868",
"o.	c #6E6E6E",
"p.	c #757575",
"q.	c #959595",
"r.	c #969696",
"s.	c #979797",
"t.	c #99A5A6",
"u.	c #848E8F",
"v.	c #737B7C",
"w.	c #6B7171",
"x.	c #656A6A",
"y.	c #5F6262",
"z.	c #5B5C5C",
"A.	c #585858",
"B.	c #5D5D5D",
"C.	c #656565",
"D.	c #989898",
"E.	c #999999",
"F.	c #8E9A9A",
"G.	c #7A8284",
"H.	c #6C7373",
"I.	c #686D6D",
"J.	c #64696A",
"K.	c #626565",
"L.	c #5D6060",
"M.	c #5A5A5A",
"N.	c #5F5F5F",
"O.	c #879192",
"P.	c #778080",
"Q.	c #72797A",
"R.	c #737B7B",
"S.	c #727878",
"T.	c #6E7374",
"U.	c #6A6E6E",
"V.	c #646666",
"W.	c #8B9596",
"X.	c #82898B",
"Y.	c #899292",
"Z.	c #8A9192",
"`.	c #83898A",
" +	c #7E8383",
".+	c #6D6F6F",
"++	c #8C8C8D",
"@+	c #939E9E",
"#+	c #909C9B",
"$+	c #9EA9AA",
"%+	c #B3BFC0",
"&+	c #B3C0C0",
"*+	c #9CA5A6",
"=+	c #8A9090",
"-+	c #808382",
";+	c #787979",
">+	c #777779",
",+	c #767778",
"'+	c #777878",
")+	c #79797A",
"!+	c #818282",
"~+	c #858586",
"{+	c #898888",
"]+	c #8C8C8B",
"^+	c #8F8E8E",
"/+	c #97A2A3",
"(+	c #9EABA8",
"_+	c #AFBBB7",
":+	c #B0BCB6",
"<+	c #939A95",
"[+	c #6E6F67",
"}+	c #5C584D",
"|+	c #504A40",
"1+	c #524C3F",
"2+	c #5C574D",
"3+	c #67645D",
"4+	c #716F6B",
"5+	c #7C7A76",
"6+	c #83837F",
"7+	c #888884",
"8+	c #878785",
"9+	c #818180",
"0+	c #7D7D79",
"a+	c #787876",
"b+	c #787874",
"c+	c #767673",
"d+	c #73716E",
"e+	c #716F69",
"f+	c #6B665E",
"g+	c #615A52",
"h+	c #5F584F",
"i+	c #676158",
"j+	c #706B65",
"k+	c #807E7B",
"l+	c #8E8D8D",
"m+	c #96A19C",
"n+	c #A0A881",
"o+	c #A3A95D",
"p+	c #979940",
"q+	c #817D20",
"r+	c #746C13",
"s+	c #716913",
"t+	c #6E6510",
"u+	c #69600D",
"v+	c #685E0F",
"w+	c #6B6215",
"x+	c #776F20",
"y+	c #807A31",
"z+	c #8A8640",
"A+	c #969450",
"B+	c #A3A263",
"C+	c #9F9F60",
"D+	c #969657",
"E+	c #8B8A43",
"F+	c #837F38",
"G+	c #7D7835",
"H+	c #787128",
"I+	c #6B631D",
"J+	c #645A13",
"K+	c #5D520F",
"L+	c #5D5311",
"M+	c #61571E",
"N+	c #605720",
"O+	c #655D2D",
"P+	c #88845C",
"Q+	c #9C9C7E",
"R+	c #919186",
"S+	c #949E82",
"T+	c #AEB23E",
"U+	c #CDCD13",
"V+	c #D5D408",
"W+	c #D6D305",
"X+	c #D5D407",
"Y+	c #D5D40A",
"Z+	c #D6D40A",
"`+	c #D4D208",
" @	c #CECB08",
".@	c #D0CD06",
"+@	c #CFCC04",
"@@	c #CDCA05",
"#@	c #D4D20E",
"$@	c #DFDE1C",
"%@	c #E0E020",
"&@	c #DCDC1B",
"*@	c #D4D310",
"=@	c #CFCD07",
"-@	c #CCC905",
";@	c #CAC704",
">@	c #CAC705",
",@	c #CCC908",
"'@	c #CECB0B",
")@	c #D2D00F",
"!@	c #D5D415",
"~@	c #D3D115",
"{@	c #CAC70E",
"]@	c #BDB915",
"^@	c #BDBC42",
"/@	c #A7A76D",
"(@	c #858D74",
"_@	c #9B9E2F",
":@	c #C8C80F",
"<@	c #DBDA09",
"[@	c #DEDD09",
"}@	c #E0E00B",
"|@	c #E3E30B",
"1@	c #E4E40A",
"2@	c #E7E708",
"3@	c #E8E807",
"4@	c #E9E806",
"5@	c #EAE905",
"6@	c #E9E804",
"7@	c #EDEC08",
"8@	c #F1F10D",
"9@	c #F0F00E",
"0@	c #F0F00C",
"a@	c #EEEE09",
"b@	c #EAE904",
"c@	c #ECEB07",
"d@	c #EFEE08",
"e@	c #EFEE09",
"f@	c #F2F208",
"g@	c #F6F605",
"h@	c #F7F706",
"i@	c #F7F606",
"j@	c #F5F507",
"k@	c #ECEC0C",
"l@	c #DADA26",
"m@	c #B8B759",
"n@	c #6C746E",
"o@	c #545737",
"p@	c #727229",
"q@	c #8C8C34",
"r@	c #949437",
"s@	c #9D9E3A",
"t@	c #A7A93C",
"u@	c #A9AB3A",
"v@	c #A7A933",
"w@	c #A1A129",
"x@	c #9E9E23",
"y@	c #9B9B1F",
"z@	c #A2A120",
"A@	c #AAA927",
"B@	c #B9B934",
"C@	c #C0C03A",
"D@	c #C2C239",
"E@	c #C3C338",
"F@	c #C0C035",
"G@	c #BBBB2C",
"H@	c #BEBD2C",
"I@	c #C4C331",
"J@	c #C6C635",
"K@	c #C7C730",
"L@	c #CFD02A",
"M@	c #DDDD1E",
"N@	c #DDDD1B",
"O@	c #DADA19",
"P@	c #D5D51D",
"Q@	c #C4C433",
"R@	c #B1B15B",
"S@	c #9E9E79",
"T@	c #575E5E",
"U@	c #343635",
"V@	c #4B4A45",
"W@	c #696A65",
"X@	c #848984",
"Y@	c #8A8F88",
"Z@	c #7E827B",
"`@	c #7D8075",
" #	c #828277",
".#	c #808075",
"+#	c #79796E",
"@#	c #68685D",
"##	c #505045",
"$#	c #585848",
"%#	c #67685E",
"&#	c #797969",
"*#	c #838370",
"=#	c #888874",
"-#	c #8A8A73",
";#	c #878775",
">#	c #858572",
",#	c #959580",
"'#	c #9D9D89",
")#	c #A9A985",
"!#	c #AFAF7B",
"~#	c #A9A977",
"{#	c #A2A272",
"]#	c #909065",
"^#	c #797966",
"/#	c #84847D",
"(#	c #8D8D8B",
"_#	c #484D4D",
":#	c #313232",
"<#	c #575656",
"[#	c #727777",
"}#	c #7C8383",
"|#	c #818484",
"1#	c #AAABAB",
"2#	c #CDCDCD",
"3#	c #DADADA",
"4#	c #DBDBDB",
"5#	c #A5A5A5",
"6#	c #565656",
"7#	c #545454",
"8#	c #ACABAB",
"9#	c #D7D7D7",
"0#	c #E4E4E4",
"a#	c #E5E5E5",
"b#	c #DDDDDC",
"c#	c #C3C3C1",
"d#	c #A2A2A0",
"e#	c #939391",
"f#	c #8C8D8D",
"g#	c #424747",
"h#	c #343434",
"i#	c #565757",
"j#	c #666A6B",
"k#	c #A1A2A4",
"l#	c #EAE9E9",
"m#	c #FFFFFF",
"n#	c #F8F8F8",
"o#	c #C0C0C0",
"p#	c #595959",
"q#	c #646464",
"r#	c #CACACA",
"s#	c #EFEFEF",
"t#	c #B0B0B0",
"u#	c #454A4A",
"v#	c #383A39",
"w#	c #494B4B",
"x#	c #929596",
"y#	c #FEFEFE",
"z#	c #B5B5B5",
"A#	c #F7F7F7",
"B#	c #5E5E5E",
"C#	c #616161",
"D#	c #BABABA",
"E#	c #F6F6F6",
"F#	c #D2D2D2",
"G#	c #F1F1F1",
"H#	c #9E9E9E",
"I#	c #474C4C",
"J#	c #343536",
"K#	c #464949",
"L#	c #D2D4D4",
"M#	c #E9E9E9",
"N#	c #3C3C3C",
"O#	c #000000",
"P#	c #303030",
"Q#	c #BEBEBE",
"R#	c #606060",
"S#	c #626262",
"T#	c #9C9C9C",
"U#	c #9D9D9D",
"V#	c #111111",
"W#	c #C7C7C7",
"X#	c #4A4F50",
"Y#	c #343636",
"Z#	c #393B3B",
"`#	c #CECFCF",
" $	c #070707",
".$	c #ECECEC",
"+$	c #D1D1D1",
"@$	c #666666",
"#$	c #A4A4A4",
"$$	c #AAAAAA",
"%$	c #F2F2F2",
"&$	c #D0D0D0",
"*$	c #0F0F0F",
"=$	c #CBCBCB",
"-$	c #4E5252",
";$	c #3D3E3E",
">$	c #2F3030",
",$	c #7E8080",
"'$	c #B3B3B3",
")$	c #E6E6E6",
"!$	c #B3B4B4",
"~$	c #DDDDDD",
"{$	c #D3D3D3",
"]$	c #B8B8B8",
"^$	c #F4F4F4",
"/$	c #A9A9A9",
"($	c #4E5454",
"_$	c #424545",
":$	c #363636",
"<$	c #383939",
"[$	c #ABABAB",
"}$	c #FCFCFC",
"|$	c #FDFEFE",
"1$	c #ADADAD",
"2$	c #A8A8A8",
"3$	c #FDFDFD",
"4$	c #C4C5C5",
"5$	c #505555",
"6$	c #434646",
"7$	c #313131",
"8$	c #383838",
"9$	c #EAEAEA",
"0$	c #E5E6E6",
"a$	c #D0D1D1",
"b$	c #9FA1A1",
"c$	c #828383",
"d$	c #707171",
"e$	c #878887",
"f$	c #A4A3A3",
"g$	c #BBBBBB",
"h$	c #E2E2E2",
"i$	c #EDEDED",
"j$	c #AFAFAF",
"k$	c #4F5454",
"l$	c #404343",
"m$	c #404040",
"n$	c #444444",
"o$	c #424242",
"p$	c #414141",
"q$	c #4C4C4C",
"r$	c #706F6F",
"s$	c #797D7D",
"t$	c #888D8E",
"u$	c #848585",
"v$	c #9C9B9B",
"w$	c #B4B4B4",
"x$	c #999A9A",
"y$	c #4D5253",
"z$	c #3F4142",
"A$	c #3E4040",
"B$	c #454545",
"C$	c #515151",
"D$	c #555555",
"E$	c #575757",
"F$	c #7D8383",
"G$	c #898E8E",
"H$	c #939494",
"I$	c #9E9F9F",
"J$	c #A7A7A7",
"K$	c #505556",
"L$	c #3C3F3F",
"M$	c #393939",
"N$	c #404141",
"O$	c #4E4E4E",
"P$	c #575858",
"Q$	c #5D5F5E",
"R$	c #7C8484",
"S$	c #898E8F",
"T$	c #808081",
"U$	c #A3A3A3",
"V$	c #B1B1B1",
"W$	c #AEAEAE",
"X$	c #A2A2A2",
"Y$	c #9B9B9B",
"Z$	c #ACACAC",
"`$	c #9A9A9A",
" %	c #525757",
".%	c #393D3D",
"+%	c #333535",
"@%	c #3A3B3B",
"#%	c #474747",
"$%	c #535353",
"%%	c #5C5C5C",
"&%	c #636363",
"*%	c #6E6F6F",
"=%	c #575A59",
"-%	c #838C8C",
";%	c #B2B2B2",
">%	c #53595A",
",%	c #383B3C",
"'%	c #2D3030",
")%	c #333434",
"!%	c #747373",
"~%	c #535758",
"{%	c #8A9394",
"]%	c #808384",
"^%	c #565C5D",
"/%	c #383C3C",
"(%	c #282929",
"_%	c #2C2D2D",
":%	c #494949",
"<%	c #5B5B5B",
"[%	c #4E5354",
"}%	c #828C8C",
"|%	c #737576",
"1%	c #818080",
"2%	c #A6A6A6",
"  . + @ # $ % & * = - ; > , ' ) ! ~ { ] ^ ^ / / / ( _ : < [ } | ",
"1 2 3 4 5 6 7 8 9 0 a b c d e f g h i _ / j k l m m n l k o p _ ",
"q r s t u v w x y z A f g B C D E i / F l n G H I I J I I H K p ",
"L M N O P Q R S T U V W X Y p Z i ` k G H  . .J ..+.@.@.+...#.( ",
"$.%.&.*.=.-.;.>.,.'.).!.~.Y {.i o k n #.J ].].+.^./././.(._.].l ",
":.<.[.}.|.1.2.3.4.5.6.7.8.9.Z _ F m #.I 0...@._./.a.a.b.a.c.@.#.",
"d.e.f.g.h.i.j.k.l.m.n.~.o.{.p./ k H I ..+.^.(.c.q.r.s.s.r.q._.J ",
"t.u.v.w.x.y.z.A.B.C.7.Y p {.p.o k #...^./.c.a.q.D.E.D.E.D.q.c.0.",
"F.G.H.I.J.K.L.M.N.6.8.p {.Z _ j l #.0.^._._.(.a.r.D.D.D.D.r.c.@.",
"O.P.Q.R.S.T.U.V.m.n.p {.Z p./ k m G  .0.0.....@./.b.r.s.s.q./.+.",
"W.f.X.Y.Z.`. +g .+8.9.E p._ F l l l H I I I I J ++_.c.a.a.a.^.0.",
"@+#+$+%+&+*+=+-+;+>+,+'+)+j ~ m m l m n m l !+H ~+{+]+^+(.(.^.0.",
"/+(+_+:+<+[+}+|+1+2+3+4+5+6+7+8+9+0+a+b+c+d+e+f+g+h+i+j+k+l+^.0.",
"m+n+o+p+q+r+s+t+u+v+w+x+y+z+A+B+C+D+E+F+G+H+I+J+K+L+M+N+O+P+Q+R+",
"S+T+U+V+W+X+Y+Z+`+ @.@+@@@.@#@$@%@&@*@=@-@;@>@,@'@)@!@~@{@]@^@/@",
"(@_@:@<@[@}@|@1@2@2@3@4@5@6@7@8@9@0@a@b@6@c@d@e@f@g@h@i@j@k@l@m@",
"n@o@p@q@r@s@t@u@v@w@x@y@z@A@B@C@D@E@F@G@H@I@J@K@L@M@N@O@P@Q@R@S@",
"T@U@V@W@X@Y@Z@`@ #.#+#@###$#%#&#*#=#-#;#>#=#,#'#)#!#~#{#]#^#/#(#",
"_#:#<#[#}#|#1#2#3#4#2#5#j 6#7#[ / H J ~ ~ 8#9#0#a#b#c#d#e#` F f#",
"g#h#i#j#k#l#m#m#m#m#m#n#o#j p#q#F ^.^. .r#m#m#m#m#m#m#s#t# .H ^.",
"u#v#w#x#m#m#m#y#z#q#t#m#A#E.B#C#l r.^.D#m#E#/.Y F#m#m#m#G#H#^./.",
"I#J#K#L#m#m#m#M#N#O#P#0#m#Q#R#S#H T#U#M#m#D#V#O#7.y#m#m#m#W#a.a.",
"X#Y#Z#`#m#m#m#G#N. $A..$m#+$@$q# .#$$$%$m#&$h#*$..m#m#m#m#=$c.b.",
"-$;$>$,$m#m#m#m#0#'$)$m#y#!$q#6.].$$5#~$m#m#{$]$^$m#m#m#A#/$b.r.",
"($_$:$<$[$}$m#m#m#m#m#|$F#j 6.8.].1$2$5#M#m#m#m#m#m#m#3$4$b.s.r.",
"5$6$;$7$8$/ =$)$9$0$a$b$c${.d$e e$f$'$D.c.g$h$.$%$i$3#j$r.D.E.r.",
"k$l$m$n$o$p$q$7.B '+< < h r$s$t$u$v$w$1$q.]. .c.U#x$/.s.H#H#E.a.",
"y$z$A$B$C$D$7#E$B.@$o.{.{.~.F$G$!+q.[$'$$$T#^...(.H$I$[$J$H#D./.",
"K$L$M$N$O$P$B#C.7.'.9.{.9.Q$R$S$T$/.U$V$W$X$Y$Y$H#U$Z$1$U$`$r._.",
" %.%+%@%#%$%%%&%7.Y {.Z *%=%-%t$m @.`$W$j$2$#$J$$$W$;%[$H#D.b...",
">%,%'%)%p$O$E$N.C.~.p !%S#~%{%]%l _.s.2$2$5#/$V$w$w$j$#$E.q./.J ",
"^%/%(%_%N#:%$%<%S#6.o.r$:%[%}%|%1%a.Y$J$5#X$J$1$W$W$2%U#r.a.+.H "};
