/* XPM */
static char * nrm_neck_xpm[] = {
"32 32 385 2",
"  	c #C3C2C2",
". 	c #C0BFBF",
"+ 	c #B3B2B2",
"@ 	c #939494",
"# 	c #808484",
"$ 	c #7C8181",
"% 	c #7B7D7E",
"& 	c #7A7C7C",
"* 	c #7F8080",
"= 	c #A4A3A3",
"- 	c #BEBEBD",
"; 	c #BCBCBB",
"> 	c #A4A4A3",
", 	c #828787",
"' 	c #879192",
") 	c #8A9495",
"! 	c #828989",
"~ 	c #797F7F",
"{ 	c #747A7A",
"] 	c #6E7273",
"^ 	c #66696A",
"/ 	c #5B5E5E",
"( 	c #6B6C6B",
"_ 	c #A7A7A6",
": 	c #BBBBBA",
"< 	c #898C8B",
"[ 	c #9AA6A7",
"} 	c #959FA0",
"| 	c #757C7C",
"1 	c #666A6A",
"2 	c #5C5F5F",
"3 	c #575959",
"4 	c #555656",
"5 	c #545454",
"6 	c #535353",
"7 	c #525353",
"8 	c #4A4B4B",
"9 	c #969695",
"0 	c #BCBCBC",
"a 	c #B9B9B9",
"b 	c #8B8D8D",
"c 	c #A1AEAF",
"d 	c #8C9697",
"e 	c #606565",
"f 	c #505151",
"g 	c #4E4E4E",
"h 	c #575757",
"i 	c #5B5B5B",
"j 	c #5C5C5C",
"k 	c #585858",
"l 	c #4D4D4D",
"m 	c #969696",
"n 	c #B9B9B8",
"o 	c #A7A7A7",
"p 	c #8D9898",
"q 	c #818A8C",
"r 	c #545859",
"s 	c #444545",
"t 	c #414242",
"u 	c #474747",
"v 	c #595959",
"w 	c #5D5D5D",
"x 	c #616161",
"y 	c #636363",
"z 	c #646464",
"A 	c #5E5E5E",
"B 	c #B1B1B0",
"C 	c #BBBABA",
"D 	c #B8B7B7",
"E 	c #848686",
"F 	c #7B8687",
"G 	c #4C5151",
"H 	c #3C3E3E",
"I 	c #393939",
"J 	c #424242",
"K 	c #4A4A4A",
"L 	c #505050",
"M 	c #555555",
"N 	c #666666",
"O 	c #6A6A6A",
"P 	c #6B6B6B",
"Q 	c #696969",
"R 	c #656565",
"S 	c #5A5A5A",
"T 	c #727272",
"U 	c #BAB9B8",
"V 	c #B7B6B5",
"W 	c #828888",
"X 	c #7E8889",
"Y 	c #494D4D",
"Z 	c #373838",
"` 	c #444444",
" .	c #565656",
"..	c #6F6F6F",
"+.	c #7A7A7A",
"@.	c #777777",
"#.	c #6D6D6D",
"$.	c #626262",
"%.	c #595858",
"&.	c #B8B8B8",
"*.	c #B5B5B4",
"=.	c #848C8D",
"-.	c #798182",
";.	c #494C4C",
">.	c #3A3A3A",
",.	c #3F3F3F",
"'.	c #464646",
").	c #4B4B4B",
"!.	c #818181",
"~.	c #808080",
"{.	c #525252",
"].	c #B8B8B7",
"^.	c #B4B4B3",
"/.	c #797A79",
"(.	c #2D3131",
"_.	c #2D2E2E",
":.	c #383838",
"<.	c #3D3D3D",
"[.	c #494949",
"}.	c #717171",
"|.	c #7C7C7C",
"1.	c #7B7B7B",
"2.	c #6E6E6E",
"3.	c #9B9B9B",
"4.	c #B7B7B6",
"5.	c #B3B3B2",
"6.	c #8F8F8F",
"7.	c #303535",
"8.	c #2E3131",
"9.	c #282727",
"0.	c #3B3B3B",
"a.	c #999998",
"b.	c #B6B4B5",
"c.	c #B2B0B1",
"d.	c #ACAAAB",
"e.	c #3F4343",
"f.	c #151616",
"g.	c #333333",
"h.	c #666767",
"i.	c #696A6A",
"j.	c #656666",
"k.	c #4C4C4C",
"l.	c #A2A1A2",
"m.	c #B4B4B4",
"n.	c #B0B0B0",
"o.	c #BBBBBB",
"p.	c #AEAEAE",
"q.	c #181919",
"r.	c #2D2D2D",
"s.	c #414141",
"t.	c #505051",
"u.	c #585959",
"v.	c #595C5D",
"w.	c #616363",
"x.	c #656566",
"y.	c #626363",
"z.	c #B4B2B2",
"A.	c #B0AEAE",
"B.	c #B9BABA",
"C.	c #ABACAC",
"D.	c #1D1F1F",
"E.	c #2E2E2E",
"F.	c #515151",
"G.	c #5C5E5E",
"H.	c #434747",
"I.	c #4F4F4F",
"J.	c #606060",
"K.	c #5B5C5C",
"L.	c #878686",
"M.	c #B3B1B1",
"N.	c #AFADAD",
"O.	c #959393",
"P.	c #777C7D",
"Q.	c #444748",
"R.	c #272929",
"S.	c #313131",
"T.	c #616060",
"U.	c #323434",
"V.	c #575858",
"W.	c #B1B0B0",
"X.	c #ADACAC",
"Y.	c #AAA9A9",
"Z.	c #505252",
"`.	c #656E6E",
" +	c #494F4F",
".+	c #232323",
"++	c #343434",
"@+	c #424343",
"#+	c #606161",
"$+	c #242424",
"%+	c #4F5050",
"&+	c #4B4C4C",
"*+	c #8D8D8D",
"=+	c #B0AFAF",
"-+	c #ACABAB",
";+	c #676868",
">+	c #242626",
",+	c #5D6565",
"'+	c #2F3232",
")+	c #212121",
"!+	c #363737",
"~+	c #484848",
"{+	c #5F5F5F",
"]+	c #1E1E1F",
"^+	c #494A4A",
"/+	c #3D3C3C",
"(+	c #7F7F7F",
"_+	c #AEADAE",
":+	c #AAA9AA",
"<+	c #858485",
"[+	c #171818",
"}+	c #1A1B1B",
"|+	c #4E5556",
"1+	c #232322",
"2+	c #353535",
"3+	c #565657",
"4+	c #131414",
"5+	c #646028",
"6+	c #BDB424",
"7+	c #97923D",
"8+	c #868586",
"9+	c #ADACAD",
"0+	c #A9A8A9",
"a+	c #727172",
"b+	c #262526",
"c+	c #1F2020",
"d+	c #454B4B",
"e+	c #151515",
"f+	c #323232",
"g+	c #3E3E3E",
"h+	c #464747",
"i+	c #3C3C3C",
"j+	c #928D35",
"k+	c #FFF000",
"l+	c #D0C62B",
"m+	c #9D9C9D",
"n+	c #A8A7A7",
"o+	c #464C4D",
"p+	c #111111",
"q+	c #1E1F1F",
"r+	c #2F2F2F",
"s+	c #454646",
"t+	c #636464",
"u+	c #8C8844",
"v+	c #D7CC20",
"w+	c #ABAAAA",
"x+	c #A7A6A6",
"y+	c #8A8A8A",
"z+	c #3D4242",
"A+	c #111212",
"B+	c #1E1E1E",
"C+	c #3B3C3C",
"D+	c #454545",
"E+	c #5E5F5F",
"F+	c #666667",
"G+	c #807D4A",
"H+	c #E0D417",
"I+	c #A6A5A5",
"J+	c #858585",
"K+	c #424848",
"L+	c #303131",
"M+	c #3D3D3E",
"N+	c #515252",
"O+	c #68696A",
"P+	c #757352",
"Q+	c #EBDE10",
"R+	c #A9A8A8",
"S+	c #A5A4A4",
"T+	c #888787",
"U+	c #393D3D",
"V+	c #121212",
"W+	c #1D1D1D",
"X+	c #323333",
"Y+	c #3F4040",
"Z+	c #545555",
"`+	c #5F6161",
" @	c #666768",
".@	c #626464",
"+@	c #686857",
"@@	c #F5E708",
"#@	c #A3A3A3",
"$@	c #8B8B8B",
"%@	c #3C4041",
"&@	c #131515",
"*@	c #1B1B1B",
"=@	c #444546",
"-@	c #595B5B",
";@	c #656767",
">@	c #5B5C5D",
",@	c #FDEE01",
"'@	c #5B5B58",
")@	c #A7A5A6",
"!@	c #A3A1A2",
"~@	c #929091",
"{@	c #3E4343",
"]@	c #4A4C4C",
"^@	c #525454",
"/@	c #535656",
"(@	c #555858",
"_@	c #565858",
":@	c #515454",
"<@	c #696754",
"[@	c #A2A0A1",
"}@	c #A1A0A0",
"|@	c #9C9B9B",
"1@	c #363839",
"2@	c #262828",
"3@	c #363838",
"4@	c #3C3F40",
"5@	c #454848",
"6@	c #545656",
"7@	c #9A9999",
"8@	c #636667",
"9@	c #4E5050",
"0@	c #EADE0F",
"a@	c #74724D",
"b@	c #9D9C9C",
"c@	c #A4A3A4",
"d@	c #A09E9F",
"e@	c #424141",
"f@	c #5D5C5C",
"g@	c #6E6D6E",
"h@	c #818081",
"i@	c #969596",
"j@	c #505353",
"k@	c #E0D518",
"l@	c #85824C",
"m@	c #858384",
"n@	c #9F9E9E",
"o@	c #969595",
"p@	c #525656",
"q@	c #535556",
"r@	c #D9CF22",
"s@	c #A29F55",
"t@	c #A4A2A2",
"u@	c #9F9D9D",
"v@	c #7F7E7E",
"w@	c #80898A",
"x@	c #8C9596",
"y@	c #D8D139",
"z@	c #B4B057",
"A@	c #666868",
"B@	c #858383",
"C@	c #9E9C9C",
"D@	c #9C9B9C",
"E@	c #7C7D7E",
"F@	c #97A0A1",
"G@	c #AAB5B6",
"H@	c #8F9798",
"I@	c #9D9D5F",
"J@	c #A6A141",
"K@	c #7E7E56",
"L@	c #676869",
"M@	c #5D5E5E",
"N@	c #575758",
"O@	c #919091",
"P@	c #A19FA0",
"Q@	c #9C9A9B",
"R@	c #7D8384",
"S@	c #AAB8B9",
"T@	c #AAB6B6",
"U@	c #7F8687",
"V@	c #6A6E6E",
"W@	c #5D5F5F",
"X@	c #676767",
"Y@	c #908E8F",
"Z@	c #9F9E9F",
"`@	c #9B9A9B",
" #	c #757879",
".#	c #A0AEAF",
"+#	c #97A3A4",
"@#	c #7A8182",
"##	c #5E6162",
"$#	c #525251",
"%#	c #6C6C6C",
"&#	c #A3A2A3",
"*#	c #949495",
"=#	c #879091",
"-#	c #848E8F",
";#	c #6F7777",
">#	c #585C5D",
",#	c #4C4E4E",
"'#	c #737373",
")#	c #767676",
"!#	c #636263",
"  . . . . . . . . . . . + @ # $ % & * = . . . . . . . . . . .   ",
"- ; ; ; ; ; ; ; ; ; > , ' ) ! ~ { ] ^ / ( _ ; ; ; ; ; ; ; ; ; - ",
"- : : : : : : : : < [ } | 1 2 3 4 5 6 6 7 8 9 : : : : : : : : - ",
"0 a a a a a a a b c d e f 8 8 g 6 h i j i k l m a a a a a a a 0 ",
"; n n n n n n o p q r s t u g 5 v w x y z y A 5 B n n n n n n ; ",
"C D D D D D D E F G H I J K L M i x N O P Q R S T D D D D D D C ",
"U V V V V V V W X Y Z I ` K L  .i y ..+.@.#.Q $.%.V V V V V V U ",
"&.*.*.*.*.*.> =.-.;.>.,.'.).L M i y T !.~...O z {._ *.*.*.*.*.&.",
"].^.^.^.^.^./.(._.:.<.` [.g {. .i z }.|.1.2.Q z L 3.^.^.^.^.^.].",
"4.5.5.5.5.5.6.7.8.9.0.` K L 5 h j y P ..2.Q N x l a.5.5.5.5.5.4.",
"b.c.c.c.c.c.d.% e.f.g.J K L M S h.i.N j.N R y j k.l.c.c.c.c.c.b.",
"m.n.n.n.n.n.n.o.p.q.r.s.K t.k u.v.w.x.y y.x w M j n.n.n.n.n.n.m.",
"z.A.A.A.A.A.A.B.C.D.E.s.K F.i G.H.I.h.J.A K.h u L.A.A.A.A.A.A.z.",
"M.N.N.N.N.N.O.P.Q.R.S.J K F.T.y.U.[.R u.V.5 g {.N.N.N.N.N.N.N.M.",
"W.X.X.X.X.Y.Z.`. +.+++@+K F.x #+$+,.u.f %+&+,.*+X.X.X.X.X.X.X.W.",
"=+-+-+-+-+;+>+,+'+)+!+s.~+L {+j ]+>.^+@+<./+(+-+-+-+-+-+-+-+-+=+",
"_+:+:+:+<+[+}+|+D.1+2+,.u L {+3+4+5+6+7+g 8+:+:+:+:+:+:+:+:+:+_+",
"9+0+0+0+a+b+c+d+e+)+f+g+h+L {+V.i+j+k+l+v m+0+0+0+0+0+0+0+0+0+9+",
"-+n+n+n+n+n+|.o+p+q+r+i+s+L A j.t+u+k+v+k n+n+n+n+n+n+n+n+n+n+-+",
"w+x+x+x+x+x+y+z+A+B+r+C+D+F.E+F+y.G+k+H+A x+x+x+x+x+x+x+x+x+x+w+",
"Y.I+I+I+I+I+J+K+[+B+L+M+h+N+E+O+t+P+k+Q+i I+I+I+I+I+I+I+I+I+I+Y.",
"R+S+S+S+S+S+T+U+V+W+X+Y+K Z+`+ @.@+@k+@@S S+S+S+S+S+S+S+S+S+S+R+",
"o #@#@#@#@#@$@%@&@*@g.=@7 -@w.;@>@7 ,@k+'@#@#@#@#@#@#@#@#@#@#@o ",
")@!@!@!@!@!@~@{@A+B+!+]@^@/@(@_@:@8 @@k+<@[@!@!@!@!@!@!@!@!@!@)@",
"S+}@}@}@}@}@|@1@p+2@3@4@5@6@T 7@8@9@0@k+a@b@}@}@}@}@}@}@}@}@}@S+",
"c@d@d@d@d@d@d@T.e@f@g@h@i@d@d@d@8@j@k@k+l@m@d@d@d@d@d@d@d@d@d@c@",
"= n@n@n@n@n@n@n@n@n@n@n@n@n@n@o@p@q@r@k+s@y n@n@n@n@n@n@n@n@n@= ",
"t@u@u@u@u@u@u@u@u@u@u@u@u@u@u@v@w@x@y@k+z@A@B@C@u@u@u@u@u@u@u@t@",
"l.m+m+m+m+m+m+m+m+m+m+m+m+D@E@F@G@H@I@J@K@L@M@N@O@m+m+m+m+m+m+l.",
"P@Q@Q@Q@Q@Q@Q@Q@Q@Q@Q@Q@~@R@S@T@U@V@W@v J.R X@z 6 Y@Q@Q@Q@Q@Q@P@",
"Z@`@`@`@`@`@`@`@`@`@`@`@ #.#+#@###7 $#A N P %#O $.F.y+`@`@`@`@Z@",
"&#Z@Z@Z@Z@Z@Z@Z@Z@Z@Z@*#=#-#;#>#,#).k R '#)#}...O J.!#Z@Z@Z@Z@&#"};
