/* XPM */
static char * nrm_lfbrow_xpm[] = {
"32 32 325 2",
"  	c #737373",
". 	c #767676",
"+ 	c #7A7A7A",
"@ 	c #7B7B7B",
"# 	c #7E7E7E",
"$ 	c #808080",
"% 	c #818181",
"& 	c #838383",
"* 	c #848484",
"= 	c #858585",
"- 	c #868686",
"; 	c #898989",
"> 	c #888888",
", 	c #6C6C6C",
"' 	c #939292",
") 	c #BFBEBE",
"! 	c #C0BFBF",
"~ 	c #C3C2C2",
"{ 	c #797979",
"] 	c #7C7C7C",
"^ 	c #7F7F7F",
"/ 	c #8A8A8A",
"( 	c #8B8B8B",
"_ 	c #8D8D8D",
": 	c #8E8E8E",
"< 	c #707070",
"[ 	c #787878",
"} 	c #B0B0AF",
"| 	c #BCBCBB",
"1 	c #BEBEBD",
"2 	c #8F8F8F",
"3 	c #919191",
"4 	c #777777",
"5 	c #969695",
"6 	c #BABAB9",
"7 	c #BBBBBA",
"8 	c #929292",
"9 	c #939393",
"0 	c #B1B1B1",
"a 	c #B9B9B9",
"b 	c #BCBCBC",
"c 	c #949494",
"d 	c #969696",
"e 	c #6E6E6E",
"f 	c #9F9F9E",
"g 	c #B9B9B8",
"h 	c #979797",
"i 	c #6E6D6D",
"j 	c #8B8A8A",
"k 	c #B6B5B5",
"l 	c #B8B7B7",
"m 	c #BBBABA",
"n 	c #989898",
"o 	c #999999",
"p 	c #717171",
"q 	c #7D7D7C",
"r 	c #B2B1B0",
"s 	c #B7B6B5",
"t 	c #BAB9B8",
"u 	c #747474",
"v 	c #AAAAA9",
"w 	c #B5B5B4",
"x 	c #B8B8B8",
"y 	c #6D6D6D",
"z 	c #A1A1A0",
"A 	c #B4B4B3",
"B 	c #B8B8B7",
"C 	c #949493",
"D 	c #B3B3B2",
"E 	c #B7B7B6",
"F 	c #8D8C8C",
"G 	c #B2B0B1",
"H 	c #B6B4B5",
"I 	c #AFAFAF",
"J 	c #B0B0B0",
"K 	c #B4B4B4",
"L 	c #7F807E",
"M 	c #80807F",
"N 	c #818280",
"O 	c #828581",
"P 	c #868684",
"Q 	c #888887",
"R 	c #8A8988",
"S 	c #8C8B8B",
"T 	c #7D7C7C",
"U 	c #ADABAB",
"V 	c #B0AEAE",
"W 	c #B4B2B2",
"X 	c #797A79",
"Y 	c #767A77",
"Z 	c #757873",
"` 	c #75816C",
" .	c #758B67",
"..	c #73955D",
"+.	c #6E9752",
"@.	c #6B954C",
"#.	c #6B8F4F",
"$.	c #6F8A58",
"%.	c #788469",
"&.	c #7F8177",
"*.	c #858481",
"=.	c #6F6F6F",
"-.	c #797878",
";.	c #ABA9A9",
">.	c #AFADAD",
",.	c #B3B1B1",
"'.	c #71716F",
").	c #696F64",
"!.	c #68795C",
"~.	c #668D4C",
"{.	c #61A139",
"].	c #5CB824",
"^.	c #58C417",
"/.	c #55C90F",
"(.	c #53CD0A",
"_.	c #51CB08",
":.	c #51C609",
"<.	c #51BC0D",
"[.	c #53AC17",
"}.	c #538927",
"|.	c #616F4A",
"1.	c #7D7B76",
"2.	c #888989",
"3.	c #717070",
"4.	c #A5A4A4",
"5.	c #ADACAC",
"6.	c #B1B0B0",
"7.	c #848483",
"8.	c #737771",
"9.	c #627852",
"0.	c #558D2E",
"a.	c #53B019",
"b.	c #56D70C",
"c.	c #57EB04",
"d.	c #56EF02",
"e.	c #55EA02",
"f.	c #54E103",
"g.	c #53DD03",
"h.	c #53DC04",
"i.	c #54DE04",
"j.	c #55E504",
"k.	c #56E705",
"l.	c #53D607",
"m.	c #4CA310",
"n.	c #51702E",
"o.	c #787E6C",
"p.	c #8E8D8C",
"q.	c #A2A2A2",
"r.	c #ACABAB",
"s.	c #B0AFAF",
"t.	c #838282",
"u.	c #6F7969",
"v.	c #5A9732",
"w.	c #53CF0B",
"x.	c #56EA03",
"y.	c #57F501",
"z.	c #57F301",
"A.	c #4EC306",
"B.	c #47940D",
"C.	c #478713",
"D.	c #4A8917",
"E.	c #50941D",
"F.	c #58AB23",
"G.	c #5BCD19",
"H.	c #59E60B",
"I.	c #57E308",
"J.	c #52BE0E",
"K.	c #58902C",
"L.	c #818E75",
"M.	c #8C8E8B",
"N.	c #6D6C6D",
"O.	c #A1A0A1",
"P.	c #AAA9AA",
"Q.	c #AEADAE",
"R.	c #818180",
"S.	c #717D6A",
"T.	c #5DA532",
"U.	c #56E108",
"V.	c #56EE02",
"W.	c #54E204",
"X.	c #4FC009",
"Y.	c #4B9016",
"Z.	c #4E662E",
"`.	c #565C46",
" +	c #5E5D54",
".+	c #5F6056",
"++	c #64655E",
"@+	c #6B7464",
"#+	c #6C8F57",
"$+	c #64C032",
"%+	c #5EDE17",
"&+	c #5AE50C",
"*+	c #5AD713",
"=+	c #72B64B",
"-+	c #899780",
";+	c #A09FA0",
">+	c #A9A8A9",
",+	c #ADACAD",
"'+	c #777C75",
")+	c #5DBB26",
"!+	c #53B714",
"~+	c #508B22",
"{+	c #5E6F4B",
"]+	c #666B5E",
"^+	c #6C6C6A",
"/+	c #686767",
"(+	c #656565",
"_+	c #666565",
":+	c #636363",
"<+	c #666666",
"[+	c #646663",
"}+	c #667B5A",
"|+	c #66AC41",
"1+	c #61D820",
"2+	c #5EEA13",
"3+	c #68D92C",
"4+	c #82A76E",
"5+	c #898B88",
"6+	c #727272",
"7+	c #6C6B6B",
"8+	c #9F9E9E",
"9+	c #A8A7A7",
"0+	c #7C7D7C",
"a+	c #787E75",
"b+	c #708765",
"c+	c #6C7F5F",
"d+	c #6E7568",
"e+	c #747472",
"f+	c #757575",
"g+	c #7C7E7E",
"h+	c #636562",
"i+	c #636F5D",
"j+	c #66984B",
"k+	c #66CA30",
"l+	c #6AD332",
"m+	c #81A86B",
"n+	c #9E9D9D",
"o+	c #A7A6A6",
"p+	c #ABAAAA",
"q+	c #7A7B7A",
"r+	c #777876",
"s+	c #6A7067",
"t+	c #6E8861",
"u+	c #7A9F66",
"v+	c #879481",
"w+	c #8A8A89",
"x+	c #6D6C6C",
"y+	c #9D9C9C",
"z+	c #A6A5A5",
"A+	c #AAA9A9",
"B+	c #B5B5B5",
"C+	c #BDBDBD",
"D+	c #A5A5A5",
"E+	c #9C9C9C",
"F+	c #9D9D9D",
"G+	c #80817E",
"H+	c #8B8B8A",
"I+	c #737474",
"J+	c #9C9B9B",
"K+	c #A9A8A8",
"L+	c #808181",
"M+	c #858686",
"N+	c #ABABAB",
"O+	c #E6E6E6",
"P+	c #FFFFFF",
"Q+	c #F4F4F4",
"R+	c #C7C7C7",
"S+	c #8B8D8D",
"T+	c #818383",
"U+	c #6B6B6B",
"V+	c #9B9B9B",
"W+	c #A3A3A3",
"X+	c #A7A7A7",
"Y+	c #C2C2C2",
"Z+	c #FDFDFD",
"`+	c #9A9899",
" @	c #A3A1A2",
".@	c #A7A5A6",
"+@	c #B3B3B3",
"@@	c #BFBFBF",
"#@	c #C9C9C9",
"$@	c #6C6D6D",
"%@	c #908F8F",
"&@	c #EEEEEE",
"*@	c #2C2C2C",
"=@	c #161616",
"-@	c #323232",
";@	c #C6C6C6",
">@	c #E3E3E3",
",@	c #828687",
"'@	c #9DA2A4",
")@	c #8C8C8C",
"!@	c #777677",
"~@	c #919091",
"{@	c #A0A0A0",
"]@	c #9E9E9E",
"^@	c #101010",
"/@	c #0F0F0F",
"(@	c #141414",
"_@	c #797A7A",
":@	c #8F9393",
"<@	c #A5A9A9",
"[@	c #A6A6A6",
"}@	c #BBBBBB",
"|@	c #1E1E1E",
"1@	c #212121",
"2@	c #616060",
"3@	c #AAAAAA",
"4@	c #A9A9A9",
"5@	c #696969",
"6@	c #E1E1E1",
"7@	c #8D8E8E",
"8@	c #939494",
"9@	c #ACACAC",
"0@	c #D5D5D5",
"a@	c #646464",
"b@	c #6A696A",
"c@	c #A1A1A1",
"d@	c #C8C9C9",
"e@	c #767777",
"f@	c #616161",
"g@	c #7F8080",
"h@	c #E0E0E0",
"i@	c #5F5F5F",
"j@	c #7E7D7E",
"  . + @ # $ % & * = = - ; ; ; ; ; ; > = $ . , ' ) ! ! ! ! ! ! ~ ",
". { ] ^ % & * = - - > / ( _ _ : : _ ( / = ] < [ } | | | | | | 1 ",
"{ @ ^ $ & = - > > ; / _ : 2 3 2 3 2 : _ > % 4 , 5 6 7 7 7 7 7 1 ",
"+ # $ & = - ; ; / ( _ 2 2 8 8 8 9 8 3 2 ( = ] < ] 0 a a a a a b ",
"@ ^ % * - ; / / _ : : 3 8 9 c c d c 9 8 : ; % . e f g g g g g | ",
"] $ * - ; ( ( _ : 2 3 9 c d d h h d d c 2 / * @ i j k l l l l m ",
"] % = ; ( _ 2 3 8 9 c d n o n o o n h c 8 ( - ^ p q r s s s s t ",
"# % = ; _ 2 3 3 9 8 9 h n o o n o n h c 8 : > % u   v w w w w x ",
"^ % * ; ( _ : : : 2 3 9 d d n n n n n d 8 : / & 4 y z A A A A B ",
"$ % & - > / / ( ( ( _ 2 8 c d d h h d c 8 : / * + , C D D D D E ",
"$ $ % & - > ; ; ; ; ; _ 2 3 9 c c c 9 8 2 ( ; * @ , F G G G G H ",
"% $ $ & * = = - * * = > / ( : 2 3 8 8 3 : ( > * ] , = I J J J K ",
"% % $ $ % % $ ^ # L M N O P Q R S _ 2 2 : ( > * # e T U V V V W ",
"* $ ] @ X { Y Z `  ...+.@.#.$.%.&.*.S : _ ( > & ] =.-.;.>.>.>.,.",
"= # 4 '.).!.~.{.].^./.(._.:.<.[.}.|.1.S : ( 2.& ] e 3.4.5.5.5.6.",
"7.] 8.9.0.a.b.c.d.e.f.g.h.i.j.k.l.m.n.o.p.: > & + e y q.r.r.r.s.",
"t.] u.v.w.x.y.z.e.A.B.C.D.E.F.G.H.I.J.K.L.M.> % + =.N.O.P.P.P.Q.",
"R.@ S.T.U.V.W.X.Y.Z.`. +.+++@+#+$+%+&+*+=+-+; & ] =., ;+>+>+>+,+",
"# # '+#+)+!+~+{+]+^+/+(+_+:+<+[+}+|+1+2+3+4+5+* # 6+7+8+9+9+9+r.",
"+ ] 0+a+b+c+d+e+f+g+@ { $ ^ @ < h+i+j+k+l+m+5+= ^ 6+, n+o+o+o+p+",
". ] # ] @ q+{ # = : 2 3 h o o 9 ; r+s+t+u+v+w+- $   x+y+z+z+z+A+",
"  ] % & & ^ g+$ _ q.B+C+C+0 D+E+F+c # 6+G+H+( > % I+, J+4.4.4.K+",
"6+$ - ( ( L+M+N+O+P+P+P+P+P+Q+R+D+n _ + $ S+S+> T+u U+V+W+W+W+X+",
"< * : 3 / - Y+P+P+P+P+P+P+P+P+P+Z+x 8 * = _ : ; & . U+`+ @ @ @.@",
"< - c c / +@P+P+P+@@o #@P+P+P+P+P+P+N+( : 3 : / % u $@= - %@y+4.",
"p / o o o &@P+P+0 *@=@-@;@P+P+P+P+P+>@n h 9 3 / & 4 ,@'@)@4 !@~@",
"  _ {@]@J P+P+P+e ^@/@(@; P+P+P+P+P+P+D+n c 3 / & _@:@<@h - y /+",
"  2 [@W+}@P+P+P+n |@/@1@J P+P+P+P+P+P+X+d d 8 ( & + S+E+d = y 2@",
". 3 3@4@0 P+P+P+P+n 5@o P+P+P+P+P+P+6@V+h h 8 ( & _@7@]@8@& 5@:+",
". 8 9@9@{@0@P+P+P+P+P+P+P+P+P+P+P+P+K c n h 9 ( % 4 S+E+8 ^ a@b@",
"{ 8 9@J c@]@6@P+P+P+P+P+P+P+P+P+P+d@V+d n h 9 ( % e@> n : _@f@p ",
"g@: W+0 N+8 9 B+6@P+P+P+P+P+P+h@0 V+h n o h 8 / g@  * d ( . i@j@"};
