/* XPM */
static char * nrm_lflips_xpm[] = {
"32 32 429 2",
"  	c #393939",
". 	c #434242",
"+ 	c #4C4C4C",
"@ 	c #545454",
"# 	c #5B5B5B",
"$ 	c #626262",
"% 	c #666666",
"& 	c #6A6A6A",
"* 	c #6E6E6E",
"= 	c #717171",
"- 	c #727171",
"; 	c #747575",
"> 	c #636363",
", 	c #535757",
"' 	c #848D8E",
") 	c #8E9596",
"! 	c #7E8080",
"~ 	c #848484",
"{ 	c #8E8E8E",
"] 	c #939393",
"^ 	c #A5A5A5",
"/ 	c #AEAEAE",
"( 	c #ACACAC",
"_ 	c #A9A9A9",
": 	c #A6A6A6",
"< 	c #ADADAD",
"[ 	c #B0B0B0",
"} 	c #B1B1B1",
"| 	c #B4B4B4",
"1 	c #333434",
"2 	c #3E3E3E",
"3 	c #484848",
"4 	c #505050",
"5 	c #575757",
"6 	c #5E5E5E",
"7 	c #676868",
"8 	c #6B6C6C",
"9 	c #6F6F6F",
"0 	c #727272",
"a 	c #555A5B",
"b 	c #899394",
"c 	c #868B8C",
"d 	c #797A7A",
"e 	c #909090",
"f 	c #949494",
"g 	c #A1A1A1",
"h 	c #AAAAAA",
"i 	c #A4A4A4",
"j 	c #B2B2B2",
"k 	c #ABABAB",
"l 	c #A2A2A2",
"m 	c #2D2E2E",
"n 	c #454545",
"o 	c #4D4D4D",
"p 	c #5A5A5A",
"q 	c #616161",
"r 	c #656565",
"s 	c #686969",
"t 	c #646464",
"u 	c #393A3A",
"v 	c #555B5B",
"w 	c #848E8E",
"x 	c #777D7E",
"y 	c #747475",
"z 	c #868686",
"A 	c #989898",
"B 	c #A3A3A3",
"C 	c #9D9D9D",
"D 	c #292929",
"E 	c #363636",
"F 	c #424242",
"G 	c #4B4B4B",
"H 	c #525252",
"I 	c #595959",
"J 	c #5F5F5F",
"K 	c #646565",
"L 	c #686868",
"M 	c #6D6D6D",
"N 	c #505151",
"O 	c #2B2B2C",
"P 	c #595D5E",
"Q 	c #7B8484",
"R 	c #6E7373",
"S 	c #737474",
"T 	c #898989",
"U 	c #959595",
"V 	c #999999",
"W 	c #9F9F9F",
"X 	c #A8A8A8",
"Y 	c #A0A0A0",
"Z 	c #242424",
"` 	c #323232",
" .	c #494949",
"..	c #515151",
"+.	c #565656",
"@.	c #616262",
"#.	c #676767",
"$.	c #6C6C6C",
"%.	c #353535",
"&.	c #232526",
"*.	c #595F5F",
"=.	c #6E7574",
"-.	c #666969",
";.	c #747474",
">.	c #8D8D8D",
",.	c #969696",
"'.	c #A7A7A7",
").	c #9C9C9C",
"!.	c #202020",
"~.	c #2D2D2D",
"{.	c #464646",
"].	c #4E4F4F",
"^.	c #555656",
"/.	c #5C5C5C",
"(.	c #494A4A",
"_.	c #1F1F1F",
":.	c #272829",
"<.	c #585F5F",
"[.	c #616767",
"}.	c #5F6161",
"|.	c #757575",
"1.	c #9E9E9E",
"2.	c #9B9B9B",
"3.	c #979797",
"4.	c #1C1C1C",
"5.	c #282828",
"6.	c #343434",
"7.	c #404040",
"8.	c #535454",
"9.	c #585858",
"0.	c #313232",
"a.	c #161717",
"b.	c #2C2E2E",
"c.	c #545A5B",
"d.	c #525858",
"e.	c #545656",
"f.	c #919191",
"g.	c #929292",
"h.	c #1B1B1B",
"i.	c #232323",
"j.	c #2F2F2F",
"k.	c #3B3B3B",
"l.	c #474747",
"m.	c #4F4F4F",
"n.	c #1D1E1E",
"o.	c #141414",
"p.	c #2F3231",
"q.	c #464B4B",
"r.	c #383A3A",
"s.	c #777777",
"t.	c #7F7F7F",
"u.	c #9A9A9A",
"v.	c #8F8F8F",
"w.	c #1B1C1C",
"x.	c #2A2A2A",
"y.	c #414141",
"z.	c #161515",
"A.	c #26292A",
"B.	c #2A2C2C",
"C.	c #1E1E1E",
"D.	c #222222",
"E.	c #3F4040",
"F.	c #737373",
"G.	c #8B8B8B",
"H.	c #1D1D1D",
"I.	c #181818",
"J.	c #212121",
"K.	c #2E2E2E",
"L.	c #444444",
"M.	c #4E4E4E",
"N.	c #434343",
"O.	c #2C2C2C",
"P.	c #373737",
"Q.	c #707070",
"R.	c #818181",
"S.	c #8A8A8A",
"T.	c #1F2121",
"U.	c #161616",
"V.	c #5D5D5D",
"W.	c #6B6B6B",
"X.	c #7E7E7E",
"Y.	c #A0A1A0",
"Z.	c #8C8C8C",
"`.	c #232424",
" +	c #1A1A1A",
".+	c #3A3A3A",
"++	c #535353",
"@+	c #606060",
"#+	c #7A7A7A",
"$+	c #9EA69E",
"%+	c #96AB96",
"&+	c #99A999",
"*+	c #9CA09C",
"=+	c #888888",
"-+	c #292C2C",
";+	c #2B2B2B",
">+	c #4A4A4A",
",+	c #696969",
"'+	c #A7A9A7",
")+	c #8EB68E",
"!+	c #5DCF5D",
"~+	c #5ACE5A",
"{+	c #77B777",
"]+	c #8BA08B",
"^+	c #909490",
"/+	c #8E8F8E",
"(+	c #303232",
"_+	c #212122",
":+	c #1A1B1B",
"<+	c #555555",
"[+	c #797979",
"}+	c #A7ABA7",
"|+	c #76C476",
"1+	c #29EA29",
"2+	c #17F117",
"3+	c #24E724",
"4+	c #42CD42",
"5+	c #70A970",
"6+	c #869587",
"7+	c #8D8E8E",
"8+	c #373939",
"9+	c #262727",
"0+	c #1A1C1C",
"a+	c #272727",
"b+	c #626363",
"c+	c #999B99",
"d+	c #73B873",
"e+	c #20E920",
"f+	c #0DF50D",
"g+	c #0DF40D",
"h+	c #0EF20E",
"i+	c #27DF27",
"j+	c #5DB45D",
"k+	c #879287",
"l+	c #3E4243",
"m+	c #2D2F2F",
"n+	c #1E2020",
"o+	c #262626",
"p+	c #313131",
"q+	c #3F3F3F",
"r+	c #434444",
"s+	c #454747",
"t+	c #6C6D6D",
"u+	c #767676",
"v+	c #66A366",
"w+	c #1DE41D",
"x+	c #19E619",
"y+	c #28D728",
"z+	c #13EE13",
"A+	c #0BF60B",
"B+	c #22E322",
"C+	c #62AD62",
"D+	c #7D957D",
"E+	c #484C4D",
"F+	c #333636",
"G+	c #222424",
"H+	c #1C1D1D",
"I+	c #4F4E4F",
"J+	c #535555",
"K+	c #525353",
"L+	c #595A5A",
"M+	c #5A5B5B",
"N+	c #747676",
"O+	c #7D7D7D",
"P+	c #7B7B7B",
"Q+	c #70A370",
"R+	c #1EE71E",
"S+	c #22E522",
"T+	c #67B067",
"U+	c #4FC44E",
"V+	c #1AEB1A",
"W+	c #0AF70A",
"X+	c #32D532",
"Y+	c #5DAE5D",
"Z+	c #858686",
"`+	c #4F5353",
" @	c #393D3D",
".@	c #262929",
"+@	c #1D1F1F",
"@@	c #383838",
"#@	c #444343",
"$@	c #484949",
"%@	c #4C4D4D",
"&@	c #4F5050",
"*@	c #797878",
"=@	c #7BA97B",
"-@	c #25E625",
";@	c #75AF75",
">@	c #8A9C8A",
",@	c #48C848",
"'@	c #0EF40E",
")@	c #19E919",
"!@	c #43C643",
"~@	c #535A59",
"{@	c #3F4444",
"]@	c #292D2D",
"^@	c #1E1F1F",
"/@	c #454444",
"(@	c #7C7C7C",
"_@	c #7BA57B",
":@	c #28E028",
"<@	c #6CAB6C",
"[@	c #8A918A",
"}@	c #58B858",
"|@	c #11F011",
"1@	c #3BCB3B",
"2@	c #858484",
"3@	c #5A5F60",
"4@	c #45494B",
"5@	c #2E3131",
"6@	c #809B80",
"7@	c #3FCD3F",
"8@	c #29DD29",
"9@	c #61B061",
"0@	c #66A966",
"a@	c #1FE41F",
"b@	c #4ABD4A",
"c@	c #626566",
"d@	c #4B4E51",
"e@	c #323535",
"f@	c #1F2020",
"g@	c #252525",
"h@	c #2C2D2D",
"i@	c #323333",
"j@	c #828282",
"k@	c #879487",
"l@	c #50BF50",
"m@	c #29DE29",
"n@	c #33D633",
"o@	c #28DE28",
"p@	c #13EF13",
"q@	c #43C443",
"r@	c #69A26A",
"s@	c #727273",
"t@	c #505455",
"u@	c #343737",
"v@	c #3D3D3D",
"w@	c #899289",
"x@	c #51BE51",
"y@	c #17ED17",
"z@	c #0FF30F",
"A@	c #12F012",
"B@	c #20E420",
"C@	c #41C741",
"D@	c #749B74",
"E@	c #828A81",
"F@	c #808080",
"G@	c #575A5A",
"H@	c #353838",
"I@	c #313030",
"J@	c #3C3C3C",
"K@	c #8B928B",
"L@	c #5BB75B",
"M@	c #24E324",
"N@	c #25E125",
"O@	c #41CA41",
"P@	c #60AF61",
"Q@	c #7A977B",
"R@	c #878987",
"S@	c #858585",
"T@	c #A19FA0",
"U@	c #676768",
"V@	c #3B3E3E",
"W@	c #7E9B7E",
"X@	c #65AE65",
"Y@	c #6DA96D",
"Z@	c #809580",
"`@	c #878C87",
" #	c #878988",
".#	c #A5A4A4",
"+#	c #848383",
"@#	c #474949",
"##	c #252626",
"$#	c #191919",
"%#	c #838383",
"&#	c #8C8D8C",
"*#	c #8A8F8A",
"=#	c #8A8E8A",
"-#	c #898A89",
";#	c #A4A3A4",
">#	c #999798",
",#	c #808081",
"'#	c #79797A",
")#	c #A4A3A3",
"!#	c #9F9E9E",
"~#	c #8A8989",
"{#	c #161617",
"]#	c #787878",
"^#	c #898888",
"/#	c #A4A2A2",
"(#	c #9F9D9D",
"_#	c #9E9C9C",
":#	c #7A7878",
"<#	c #878787",
"[#	c #5C5B5B",
"}#	c #767575",
"|#	c #A09E9E",
"1#	c #A2A1A2",
"2#	c #9D9C9D",
"3#	c #373637",
"4#	c #303030",
"5#	c #636464",
"6#	c #6B6A6B",
"7#	c #949394",
"8#	c #9C9A9B",
"9#	c #989697",
"0#	c #7A797A",
"a#	c #4D4C4D",
"b#	c #2D2C2D",
"c#	c #232222",
"d#	c #777676",
"e#	c #959494",
"f#	c #9F9E9F",
"g#	c #9B9A9B",
"h#	c #908F90",
"i#	c #767576",
"j#	c #565556",
"k#	c #262828",
"l#	c #333333",
"m#	c #666566",
"n#	c #777677",
"o#	c #8E8D8E",
"p#	c #A3A2A3",
"q#	c #787979",
"r#	c #6C7373",
"s#	c #434647",
"t#	c #242425",
"u#	c #6F7070",
"v#	c #999899",
"  . + @ # $ % & * = - ; > , ' ) ! ~ { ] ^ / ( _ : _ < [ } | } _ ",
"1 2 3 4 5 6 > 7 8 9 0 = 4 a b c d ~ e f g h : i ^ ( j | | } k l ",
"m   n o @ p q r s * 0 t u v w x y z ] A B _ i l i h / / / k ^ C ",
"D E F G H I J K L M 9 N O P Q R S T U V W : ^ B : X h h _ ^ Y V ",
"Z ` 2  ...+.6 @.#.$.q %.&.*.=.-.;.>.V ,.,.l ^ i : : '.: ^ Y ).U ",
"!.~.  {.].^./.J r #.(._.:.<.[.}.|.] 1.f ] l '.^ i i i g W 2.3.] ",
"4.5.6.7.G 8.9.J $ 9.0.a.b.c.d.e.9 >.2.f.f.Y '.^ B Y W C 2.,.g.e ",
"h.i.j.k.l.m.+././.F n.o.p.q.r.  + K s.t.T u.^ B W 1.2.V U g.v.{ ",
"w.4.x.%.y. .H 5 o x.z.a.A.B.C.D.j.E.m.6 F.g.B Y C 2.A f g.v.>.G.",
"H.I.J.K.  L.M.H N.K.O.j.%.%.P.7.G 5 r Q.R.V l W C u.,.] v.{ G.S.",
"T.U.H.5.6.2  .m.+  .4 H 9.V.> W.|.X.G.3.C l l Y.W 2.U g.v.Z.S.T ",
"`.I. +Z j..+L.o ++9./.@+r & M ;.#+~ v.u.l ^ $+%+&+*+3.g.v.>.S.=+",
"-+w. +J.;+%.7.>+H I V.@+t ,+M ;.#+R.>.u.i '+)+!+~+{+]+^+/+>.S.=+",
"(+_+:+!.D ` k.N.+ <+# @+> #.$.;.[+R.S.3.B }+|+1+2+3+4+5+6+7+S.T ",
"8+9+0+C.a+` k.F L.3 ..9.V.b+,+9 ;.#+R.G.f c+d+e+f+g+h+i+j+k+G.=+",
"l+m+n+4.o+p+q+>+(.r+s+].H ^.6 #.t+S u+;.s.X.v+w+x+y+z+A+B+C+D+=+",
"E+F+G+H+i.p+7.I+e.J+K+L+M+# t * N+O+t.[+P+~ Q+R+S+T+U+V+W+X+Y+Z+",
"`+ @.@+@J.~.@@#@$@%@&@+./.q ,+Q.*@R.S.v.f ,.=@-@e+;@>@,@'@)@!@Z+",
"~@{@]@^@_.a+p+  7./@3 M.@ /.> W.F.(@z { g.] _@:@R+<@[@}@|@z+1@2@",
"3@4@5@_.C.o+K.6.k.F l.+ H p q ,+= #+R.T >.v.6@7@8@9@0@X+A+a@b@~ ",
"c@d@e@f@C.g@h@i@@@q+n G H p q L = #+j@T Z.{ k@l@m@n@o@z+p@q@r@j@",
"s@t@u@f@H.Z x.0.@@v@L.G ..9.q ,+0 (@~ S.>.{ w@x@y@z@A@B@C@D@E@F@",
"S.G@H@f@ +D.5.I@E J@N.>+..5 6 L 0 (@~ S.>.{ K@L@M@N@O@P@Q@R@S@O+",
"T@U@V@G+ +C.o+~.%.J@N. .m.+./.% = P+S@S.>.{ { W@X@Y@Z@`@ #z R.|.",
".#+#@###$#h.D.x.`   F 3 m.+.V.r Q.P+%#G.>.>.>.&#*#=#-#T z %##+$.",
";#>#> j. +U.C.a+j.P.7.l.M.++# r Q.#+%#=+Z.>.Z.Z.Z.S.T z ,#'#* M ",
")#!#~#+ _.{#I.!.x.%.v@{.o @ /.% Q.#+R.=+S.G.G.G.S.=+S@t.]#M > ^#",
"/#(#_#:#   +U. +D.~.@@y. ...p r 9 s.F@S@=+T S.T <#%#t.u+,+[#}#|#",
"1#2#2#3.$.3#C.$#h.g@4#.+F + +.@+& 0 #+t.j@~ ~ j@F@O+|.5#<+6#7#1#",
"T@8#8#8#9#0#a#b#_.4.c#j..+L.M.p t $.F.]#P+(@#+s.;.W.J # d#e#8#T@",
"f#g#g#g#g#g#h#i#j#.+h@k#x.l#7.+ 5 6 $ % #.#.L #.@+m#n#o#g#g#g#f#",
"p#f#f#f#f#f#f#f#g#q#r#s#t#D.5.p+  2 L.>+4 @+u#t+9 v#f#f#f#f#f#p#"};
