/* XPM */
static char * nrm_zeromouth_xpm[] = {
"32 32 471 2",
"  	c #C3C2C2",
". 	c #C0BFBF",
"+ 	c #BEBEBD",
"@ 	c #BCBCBB",
"# 	c #C8C699",
"$ 	c #E6E046",
"% 	c #E3DE4E",
"& 	c #CFCD85",
"* 	c #BABAB9",
"= 	c #B3B3B2",
"- 	c #9C9C9C",
"; 	c #909292",
"> 	c #8C8E8D",
", 	c #8B8C8C",
"' 	c #919291",
") 	c #A7A7A6",
"! 	c #B7B8B7",
"~ 	c #C4C3A4",
"{ 	c #BBBBBA",
"] 	c #D9D568",
"^ 	c #FFF600",
"/ 	c #FBF20C",
"( 	c #FDF406",
"_ 	c #DFDA58",
": 	c #A9AAA9",
"< 	c #808383",
"[ 	c #838B8C",
"} 	c #899293",
"| 	c #899191",
"1 	c #848C8C",
"2 	c #7D8585",
"3 	c #757C7C",
"4 	c #6D7071",
"5 	c #6A6C6C",
"6 	c #878887",
"7 	c #B1B1B0",
"8 	c #C8C697",
"9 	c #CCCA8B",
"0 	c #BCBCBC",
"a 	c #B9B9B9",
"b 	c #D8D468",
"c 	c #BDBDAD",
"d 	c #F7EF15",
"e 	c #F3EC1D",
"f 	c #8C8E8E",
"g 	c #8E989A",
"h 	c #C4C765",
"i 	c #DAD72D",
"j 	c #909568",
"k 	c #717577",
"l 	c #6B6F70",
"m 	c #B1AF35",
"n 	c #D8D218",
"o 	c #C9C422",
"p 	c #6A6B5C",
"q 	c #555757",
"r 	c #5E5E5E",
"s 	c #C8C462",
"t 	c #E9E339",
"u 	c #C6C498",
"v 	c #E3DD4B",
"w 	c #ECE534",
"x 	c #B9B9B8",
"y 	c #D8D467",
"z 	c #DEDA56",
"A 	c #FCF309",
"B 	c #E4DE23",
"C 	c #9BA8A7",
"D 	c #EEE921",
"E 	c #FEF501",
"F 	c #F5ED07",
"G 	c #9B9838",
"H 	c #A19D30",
"I 	c #DFD80F",
"J 	c #F7EE04",
"K 	c #E8E00C",
"L 	c #5B5B5B",
"M 	c #E5DD0F",
"N 	c #FAF10B",
"O 	c #FEF601",
"P 	c #D4D170",
"Q 	c #ECE532",
"R 	c #F4ED1C",
"S 	c #BBBABA",
"T 	c #B8B7B7",
"U 	c #D7D367",
"V 	c #EFE81F",
"W 	c #92977A",
"X 	c #A0AC9D",
"Y 	c #D7D117",
"Z 	c #9D9A2E",
"` 	c #F1E906",
" .	c #DDD60E",
"..	c #B6B021",
"+.	c #FCF302",
"@.	c #D3CC19",
"#.	c #C2BC25",
"$.	c #C0BB28",
"%.	c #777657",
"&.	c #FDF401",
"*.	c #D2CB1A",
"=.	c #B4B044",
"-.	c #F9F10E",
";.	c #EEE72C",
">.	c #CAC789",
",.	c #BAB9B8",
"'.	c #B7B6B5",
").	c #D7D266",
"!.	c #CCC97F",
"~.	c #FCF406",
"{.	c #F2EA10",
"].	c #8B9586",
"^.	c #A1A342",
"/.	c #F6ED04",
"(.	c #605F50",
"_.	c #E1DA11",
":.	c #F9F004",
"<.	c #F1E909",
"[.	c #ACA83C",
"}.	c #C9C688",
"|.	c #B8B8B8",
"1.	c #B5B5B4",
"2.	c #D6D265",
"3.	c #D4D063",
"4.	c #DCD81E",
"5.	c #535747",
"6.	c #F9F002",
"7.	c #BCB614",
"8.	c #424141",
"9.	c #E3DC0B",
"0.	c #E4DD0C",
"a.	c #BEB921",
"b.	c #F4EB07",
"c.	c #706F60",
"d.	c #D6D01C",
"e.	c #89875B",
"f.	c #FDF402",
"g.	c #C7C12A",
"h.	c #595959",
"i.	c #EFE717",
"j.	c #F4EC1C",
"k.	c #C8C587",
"l.	c #CBC87E",
"m.	c #B8B8B7",
"n.	c #B4B4B3",
"o.	c #D5D164",
"p.	c #AEAEAD",
"q.	c #ECE510",
"r.	c #808449",
"s.	c #CDC81E",
"t.	c #F9F003",
"u.	c #969332",
"v.	c #777549",
"w.	c #EAE20D",
"x.	c #686868",
"y.	c #DAD31A",
"z.	c #FBF202",
"A.	c #FEF502",
"B.	c #CECB75",
"C.	c #FEF503",
"D.	c #C2C091",
"E.	c #B7B7B6",
"F.	c #BCBB9C",
"G.	c #D4D064",
"H.	c #ABACAB",
"I.	c #7F8265",
"J.	c #B2B448",
"K.	c #8C9367",
"L.	c #676C6C",
"M.	c #666748",
"N.	c #A6A22A",
"O.	c #616152",
"P.	c #5D5D5D",
"Q.	c #94903C",
"R.	c #717161",
"S.	c #6D6D6D",
"T.	c #696969",
"U.	c #7A7A5B",
"V.	c #AAA62E",
"W.	c #858575",
"X.	c #C5C387",
"Y.	c #B8B7A7",
"Z.	c #B6B4B5",
"`.	c #B2B0B1",
" +	c #AAA9AA",
".+	c #6E7374",
"++	c #656E6F",
"@+	c #383C3C",
"#+	c #2C2C2C",
"$+	c #323232",
"%+	c #3C3C3C",
"&+	c #4C4C4C",
"*+	c #666666",
"=+	c #636363",
"-+	c #4F4F4F",
";+	c #525252",
">+	c #585858",
",+	c #5C5C5C",
"'+	c #606060",
")+	c #676767",
"!+	c #696A6A",
"~+	c #767576",
"{+	c #B4B4B4",
"]+	c #B0B0B0",
"^+	c #A8A9A9",
"/+	c #676C6D",
"(+	c #464B4C",
"_+	c #252424",
":+	c #393B3B",
"<+	c #3A3D3D",
"[+	c #323333",
"}+	c #2A2B2B",
"|+	c #434343",
"1+	c #545454",
"2+	c #515151",
"3+	c #4E4E4E",
"4+	c #505050",
"5+	c #5F5F5F",
"6+	c #767676",
"7+	c #B4B2B2",
"8+	c #B0AEAE",
"9+	c #A4A3A3",
"0+	c #616666",
"a+	c #333636",
"b+	c #333434",
"c+	c #707474",
"d+	c #A9A9A9",
"e+	c #BBBBBB",
"f+	c #848484",
"g+	c #404040",
"h+	c #494949",
"i+	c #C4C4C4",
"j+	c #9E9E9E",
"k+	c #646464",
"l+	c #797878",
"m+	c #AFADAD",
"n+	c #B3B1B1",
"o+	c #949394",
"p+	c #686A6A",
"q+	c #565C5D",
"r+	c #252929",
"s+	c #525354",
"t+	c #ECEDED",
"u+	c #E0E0E0",
"v+	c #BFBFBF",
"w+	c #7D7D7D",
"x+	c #484848",
"y+	c #6B6B6B",
"z+	c #C0C0C0",
"A+	c #8B8B8B",
"B+	c #8C8C8C",
"C+	c #FFFFFF",
"D+	c #626262",
"E+	c #676868",
"F+	c #7A7979",
"G+	c #B1B0B0",
"H+	c #ADACAC",
"I+	c #7D8181",
"J+	c #535A5A",
"K+	c #444A4B",
"L+	c #25292A",
"M+	c #F3F3F3",
"N+	c #DADADA",
"O+	c #C8C8C8",
"P+	c #8F8F8F",
"Q+	c #7A7A7A",
"R+	c #D7D7D7",
"S+	c #818181",
"T+	c #C9C9C9",
"U+	c #5A5A5A",
"V+	c #707070",
"W+	c #535353",
"X+	c #B0AFAF",
"Y+	c #ACABAB",
"Z+	c #7D7F7F",
"`+	c #4D5454",
" @	c #3B4041",
".@	c #333737",
"+@	c #1E1F1F",
"@@	c #727272",
"#@	c #D4D4D4",
"$@	c #E2E2E2",
"%@	c #ADADAD",
"&@	c #585959",
"*@	c #545555",
"=@	c #777777",
"-@	c #8D8D8D",
";@	c #D2D2D2",
">@	c #E6E6E6",
",@	c #C5C5C5",
"'@	c #828282",
")@	c #AEADAE",
"!@	c #868687",
"~@	c #464C4C",
"{@	c #373C3D",
"]@	c #393C3C",
"^@	c #212121",
"/@	c #232323",
"(@	c #3D3D3D",
"_@	c #454444",
":@	c #4C4D4D",
"<@	c #5E6060",
"[@	c #747474",
"}@	c #6E6E6E",
"|@	c #6C6C6C",
"1@	c #626363",
"2@	c #575757",
"3@	c #ADACAD",
"4@	c #A9A8A9",
"5@	c #979697",
"6@	c #3C3F41",
"7@	c #35393A",
"8@	c #363A3B",
"9@	c #1F2020",
"0@	c #3B3B3B",
"a@	c #444444",
"b@	c #4A4A4A",
"c@	c #4D4F51",
"d@	c #5D5F60",
"e@	c #7F7F7F",
"f@	c #656565",
"g@	c #636263",
"h@	c #A8A7A7",
"i@	c #A5A4A4",
"j@	c #4D4D4D",
"k@	c #2E3131",
"l@	c #373C3C",
"m@	c #151515",
"n@	c #282828",
"o@	c #3C3D3D",
"p@	c #414646",
"q@	c #5A5C5D",
"r@	c #7B7B7B",
"s@	c #444545",
"t@	c #838282",
"u@	c #ABAAAA",
"v@	c #A7A6A6",
"w@	c #848383",
"x@	c #343637",
"y@	c #121313",
"z@	c #1D1D1D",
"A@	c #383939",
"B@	c #464646",
"C@	c #242424",
"D@	c #2A2F2E",
"E@	c #4D4F4F",
"F@	c #6A6A6A",
"G@	c #737373",
"H@	c #787878",
"I@	c #757575",
"J@	c #9F9E9E",
"K@	c #AAA9A9",
"L@	c #A6A5A5",
"M@	c #46494A",
"N@	c #171919",
"O@	c #111111",
"P@	c #313131",
"Q@	c #333333",
"R@	c #181919",
"S@	c #616060",
"T@	c #9A9999",
"U@	c #A9A8A8",
"V@	c #A2A1A1",
"W@	c #595A5A",
"X@	c #212323",
"Y@	c #070707",
"Z@	c #343434",
"`@	c #3D3B3B",
" #	c #4B4747",
".#	c #666161",
"+#	c #797575",
"@#	c #767272",
"##	c #6B6767",
"$#	c #646060",
"%#	c #7E7D7D",
"&#	c #A7A7A7",
"*#	c #A3A3A3",
"=#	c #A2A2A2",
"-#	c #2A2E2E",
";#	c #0B0B0B",
">#	c #191616",
",#	c #342B2B",
"'#	c #513535",
")#	c #6C3737",
"!#	c #863B3B",
"~#	c #9B4040",
"{#	c #AA4444",
"]#	c #9E4747",
"^#	c #805454",
"/#	c #6A6060",
"(#	c #616161",
"_#	c #939393",
":#	c #A7A5A6",
"<#	c #A3A1A2",
"[#	c #908E8F",
"}#	c #434646",
"|#	c #161818",
"1#	c #1B1414",
"2#	c #612223",
"3#	c #B31414",
"4#	c #E00A0A",
"5#	c #ED0808",
"6#	c #F30707",
"7#	c #F50606",
"8#	c #EE0C0C",
"9#	c #BE2A2A",
"0#	c #7E5454",
"a#	c #5C5858",
"b#	c #686666",
"c#	c #A2A0A1",
"d#	c #A1A0A0",
"e#	c #606161",
"f#	c #202222",
"g#	c #180E0E",
"h#	c #641717",
"i#	c #C50D0D",
"j#	c #E50808",
"k#	c #EA0909",
"l#	c #E80F0F",
"m#	c #E51212",
"n#	c #D91A1A",
"o#	c #AE3535",
"p#	c #795858",
"q#	c #575555",
"r#	c #848282",
"s#	c #A4A3A4",
"t#	c #A09E9F",
"u#	c #818081",
"v#	c #120F0F",
"w#	c #281B1B",
"x#	c #4D2424",
"y#	c #5E3030",
"z#	c #6F3E3E",
"A#	c #7D5050",
"B#	c #7B5757",
"C#	c #715D5D",
"D#	c #675E5E",
"E#	c #5E5C5C",
"F#	c #9D9C9C",
"G#	c #0D0D0D",
"H#	c #161616",
"I#	c #292929",
"J#	c #383838",
"K#	c #555555",
"L#	c #A4A2A2",
"M#	c #9F9D9D",
"N#	c #8B8989",
"O#	c #303030",
"P#	c #0E0E0E",
"Q#	c #1C1C1C",
"R#	c #5D5E5E",
"S#	c #505151",
"T#	c #A2A1A2",
"U#	c #9D9C9D",
"V#	c #8C8B8C",
"W#	c #545354",
"X#	c #262627",
"Y#	c #202020",
"Z#	c #2F2F2F",
"`#	c #737374",
" $	c #A19FA0",
".$	c #9C9A9B",
"+$	c #9A9899",
"@$	c #898888",
"#$	c #414444",
"$$	c #151616",
"%$	c #9B999A",
"&$	c #999798",
"*$	c #9F9E9F",
"=$	c #9B9A9B",
"-$	c #A3A2A3",
"  . . . . . . . . . . . . . . . . . . . . . . . . . . . . . .   ",
"+ @ # $ $ $ % & @ @ @ * = - ; > , ' ) ! @ @ @ @ @ @ @ # ~ @ @ + ",
"+ { ] ^ / / ( ^ _ * : < [ } | 1 2 3 4 5 6 7 { { { { 8 ( 9 { { + ",
"0 a b ^ a a c d e f g h i j k l m n o p q r s t u a v ^ w a a 0 ",
"@ x y ^ y y z A B C D E F E G H ^ I J K L M E N O P Q ^ R x x @ ",
"S T U ^ ^ ^ ^ V W X E Y Z `  ...+.@.#.$.%.&.*.=.-.;.>.^ >.T T S ",
",.'.).^ '.!.~.{.].^.^ ^ ^ ^ /.(._.:.^ <.[.^ ^ ^ ^ -.}.^ }.'.'.,.",
"|.1.2.^ 1.1.3.^ 4.5.6.7.8.9.0.a.b.c.d.^ e.f.g.h.i.j.k.^ l.1.1.|.",
"m.n.o.^ n.n.p.q.+.r.s.E t.E u.v.E f.&.w.x.y.E z.A.B.n.C.^ D.n.m.",
"E.= F.G.= = H.I.J.K.L.M.N.O.P.P.(.H Q.R.S.T.U.V.W.= = X.G.Y.= E.",
"Z.`.`.`.`.`. +.+++@+#+$+%+&+*+=+-+;+>+,+'+)+!+L ~+`.`.`.`.`.`.Z.",
"{+]+]+]+]+]+^+/+(+_+:+<+[+}+|+>+1+2+3+4+&+-+=+5+6+]+]+]+]+]+]+{+",
"7+8+8+8+8+8+9+0+a+b+c+d+e+f+g+h+P.)+d+i+j+k+,+'+l+m+8+8+8+8+8+7+",
"n+m+m+m+m+o+p+q+r+s+t+u+T.v+w+x+y+z+A+B+C+a D+,+E+F+m+m+m+m+m+n+",
"G+H+H+H+H+I+J+K+L+1+M+N+L O+P+&+Q+R+S+S+C+T+x.U+V+W+H+H+H+H+H+G+",
"X+Y+Y+Y+Y+Z+`+ @.@+@@@#@$@%@&@*@=@-@;@>@,@'@*+P.)+;+Y+Y+Y+Y+Y+X+",
")@ + + + +!@~@{@]@^@/@(@-+_@:@<@[@@@=+}@|@V+S.L 1@2@ + + + + +)@",
"3@4@4@4@4@5@6@7@8@9@$+0@a@b@c@d@y+e@[@[@w+6+f@2@&@g@4@4@4@4@4@3@",
"Y+h@h@h@h@i@j@k@l@m@n@o@&+g+p@q@|@=@r@S+Q+y+'+>+s@t@h@h@h@h@h@Y+",
"u@v@v@v@v@v@w@x@l@y@z@A@B@C@D@E@F@G@H@I@}@*+,+b@2@J@v@v@v@v@v@u@",
"K@L@L@L@L@L@i@'@M@N@O@P@Q@y@R@#+3+S.G@y+f@D+2@S@T@L@L@L@L@L@L@K@",
"U@i@i@i@i@i@i@V@W@X@Y@^@P@Z@`@ #.#+#@###$#D+2+%#i@i@i@i@i@i@i@U@",
"&#*#*#*#*#*#*#=#G@-#;#>#,#'#)#!#~#{#]#^#/#(#W+_#*#*#*#*#*#*#*#&#",
":#<#<#<#<#<#<#<#[#}#|#1#2#3#4#5#6#7#8#9#0#a#b#c#<#<#<#<#<#<#<#:#",
"i@d#d#d#d#d#d#d#d#e#f#g#h#i#j#k#l#m#n#o#p#q#r#d#d#d#d#d#d#d#d#i@",
"s#t#t#t#t#t#t#t#t#u#}+v#w#x#y#z#A#^#B#C#D#E#t#t#t#t#t#t#t#t#t#s#",
"9+J@J@J@J@J@J@J@J@F#4+G#H#I#J#j@(#f@*+f@K#e@J@J@J@J@J@J@J@J@J@9+",
"L#M#M#M#M#M#M#M#M#M#N#O#P#Q#Z@&+,+r R#S#g@M#M#M#M#M#M#M#M#M#M#L#",
"T#U#U#U#U#U#U#U#U#U#U#V#W#X#Y#Z#g+-+;+`#U#U#U#U#U#U#U#U#U#U#U#T#",
" $.$.$.$.$.$+$+$+$+$+$.$@$#$$$z@B@1@,+.$%$+$+$+$&$%$.$.$.$.$.$ $",
"*$=$=$=$=$=$=$=$=$=$=$=$=$=$=$=$=$=$=$=$=$=$=$=$=$=$=$=$=$=$=$*$",
"-$*$*$*$*$*$*$*$*$*$*$*$*$*$*$*$*$*$*$*$*$*$*$*$*$*$*$*$*$*$*$-$"};
