/* XPM */
static char * nrm_lfikarm_xpm[] = {
"32 32 481 2",
"  	c #C3C2C2",
". 	c #C0BFBF",
"+ 	c #BEBEBD",
"@ 	c #BCBCBB",
"# 	c #BBBBBA",
"$ 	c #898988",
"% 	c #000000",
"& 	c #646463",
"* 	c #969695",
"= 	c #BCBCBC",
"- 	c #B9B9B9",
"; 	c #6F6F6F",
"> 	c #949494",
", 	c #B9B9B8",
"' 	c #6F6F6E",
") 	c #ADADAC",
"! 	c #0C0C0C",
"~ 	c #4A4A4A",
"{ 	c #ABBAAA",
"] 	c #91E191",
"^ 	c #95D094",
"/ 	c #A6B8A6",
"( 	c #B6B6B5",
"_ 	c #B8B8B7",
": 	c #BBBABA",
"< 	c #B8B7B7",
"[ 	c #6E6E6E",
"} 	c #313131",
"| 	c #252525",
"1 	c #82D182",
"2 	c #9AFF9A",
"3 	c #9FFF9F",
"4 	c #82F980",
"5 	c #78B478",
"6 	c #A8B0A7",
"7 	c #B6B5B5",
"8 	c #BAB9B8",
"9 	c #B7B6B5",
"0 	c #6E6D6D",
"a 	c #ABAAA9",
"b 	c #B5B6B3",
"c 	c #ADBDAC",
"d 	c #93C392",
"e 	c #61F661",
"f 	c #78FF78",
"g 	c #92FF92",
"h 	c #9BFF9B",
"i 	c #5FEB5F",
"j 	c #56B656",
"k 	c #ACABAA",
"l 	c #B1B1B1",
"m 	c #B1B1B0",
"n 	c #B4B4B3",
"o 	c #B5B5B4",
"p 	c #6D6D6C",
"q 	c #919190",
"r 	c #484848",
"s 	c #7DB87D",
"t 	c #9DFF9D",
"u 	c #69FF6B",
"v 	c #45F645",
"w 	c #37FF37",
"x 	c #5FFF5F",
"y 	c #82F982",
"z 	c #67D767",
"A 	c #52AD50",
"B 	c #9C9C9B",
"C 	c #D9D9D9",
"D 	c #D5D5D5",
"E 	c #C2C2C2",
"F 	c #A0A09F",
"G 	c #ACB0AB",
"H 	c #B3B3B2",
"I 	c #6C6C6B",
"J 	c #787877",
"K 	c #90908F",
"L 	c #79AB79",
"M 	c #2ADC2A",
"N 	c #2AF42A",
"O 	c #21E621",
"P 	c #21FF21",
"Q 	c #00F700",
"R 	c #00DE00",
"S 	c #37B937",
"T 	c #3B913A",
"U 	c #949493",
"V 	c #AEAEAD",
"W 	c #D7D7D7",
"X 	c #DBDBDB",
"Y 	c #D0D3D0",
"Z 	c #99E499",
"` 	c #7AF87A",
" .	c #6DDC6C",
"..	c #9FAE9E",
"+.	c #AFAFAF",
"@.	c #B2B2B1",
"#.	c #6B6B6B",
"$.	c #30302F",
"%.	c #242424",
"&.	c #519C51",
"*.	c #0AD00A",
"=.	c #0CC90C",
"-.	c #02EE02",
";.	c #1FF21F",
">.	c #22D122",
",.	c #209F20",
"'.	c #3A7D3A",
").	c #939393",
"!.	c #D1D0D1",
"~.	c #D3D3D3",
"{.	c #B5D8B6",
"].	c #8FFF8F",
"^.	c #A7FFA7",
"/.	c #9CFF9C",
"(.	c #45D845",
"_.	c #A3A1A2",
":.	c #AFADAE",
"<.	c #B2B0B1",
"[.	c #838182",
"}.	c #9A9999",
"|.	c #5F5E5E",
"1.	c #B1AFB0",
"2.	c #81A081",
"3.	c #0DAD0D",
"4.	c #0FB80F",
"5.	c #019601",
"6.	c #00D200",
"7.	c #2EBF2E",
"8.	c #188918",
"9.	c #497349",
"0.	c #959495",
"a.	c #ADACAC",
"b.	c #CCCBCB",
"c.	c #CACACA",
"d.	c #A3D4A3",
"e.	c #77FF76",
"f.	c #93FF93",
"g.	c #87F185",
"h.	c #53D653",
"i.	c #709070",
"j.	c #A5A5A5",
"k.	c #B0B0B0",
"l.	c #ACACAC",
"m.	c #35A335",
"n.	c #1DAD1D",
"o.	c #029B02",
"p.	c #00CF00",
"q.	c #27AD27",
"r.	c #2A732A",
"s.	c #667C66",
"t.	c #999999",
"u.	c #AEAEAE",
"v.	c #C5C5C5",
"w.	c #C2C1C1",
"x.	c #97C897",
"y.	c #4BFE4B",
"z.	c #64F764",
"A.	c #5FE25F",
"B.	c #37C737",
"C.	c #5C815B",
"D.	c #9E9C9C",
"E.	c #ADABAB",
"F.	c #B0AEAE",
"G.	c #AFADAD",
"H.	c #59CD59",
"I.	c #2BAD2B",
"J.	c #00B000",
"K.	c #02CD02",
"L.	c #199E19",
"M.	c #4A7249",
"N.	c #8B8B8A",
"O.	c #A09E9E",
"P.	c #B0AFAF",
"Q.	c #C1C1C1",
"R.	c #88BA88",
"S.	c #0AEF0A",
"T.	c #2BEC2B",
"U.	c #23E223",
"V.	c #14CA14",
"W.	c #71856F",
"X.	c #ABA9A9",
"Y.	c #80C67F",
"Z.	c #2CFF2C",
"`.	c #00A700",
" +	c #02C102",
".+	c #0D940D",
"++	c #707D6F",
"@+	c #969494",
"#+	c #A7A5A5",
"$+	c #B2B0B0",
"%+	c #BDBDBD",
"&+	c #B5B5B5",
"*+	c #8E9D8E",
"=+	c #149814",
"-+	c #00B300",
";+	c #16E316",
">+	c #74DF73",
",+	c #40AF40",
"'+	c #979696",
")+	c #A8A7A7",
"!+	c #86BF85",
"~+	c #73FF73",
"{+	c #A1FFA0",
"]+	c #5AFF5A",
"^+	c #009300",
"/+	c #00B600",
"(+	c #157F15",
"_+	c #868686",
":+	c #9C9B9B",
"<+	c #AAA9A9",
"[+	c #B1B0B0",
"}+	c #BABABA",
"|+	c #ADADAD",
"1+	c #858585",
"2+	c #5A5A5A",
"3+	c #267E26",
"4+	c #35DE35",
"5+	c #7FEF7F",
"6+	c #6AE46C",
"7+	c #6C956B",
"8+	c #A1A0A0",
"9+	c #ABAAAA",
"0+	c #ACABAB",
"a+	c #82C282",
"b+	c #69FF69",
"c+	c #76FF76",
"d+	c #83FF83",
"e+	c #12E014",
"f+	c #009800",
"g+	c #386B39",
"h+	c #8A8989",
"i+	c #B6B7B6",
"j+	c #A6A6A6",
"k+	c #737374",
"l+	c #595959",
"m+	c #768276",
"n+	c #0BAF0B",
"o+	c #53F353",
"p+	c #86F586",
"q+	c #3CC43C",
"r+	c #A5A4A5",
"s+	c #AAA9AA",
"t+	c #81C281",
"u+	c #6BFF6B",
"v+	c #66FF66",
"w+	c #60FF5E",
"x+	c #71EE71",
"y+	c #68C86A",
"z+	c #4AA14A",
"A+	c #387C38",
"B+	c #8D8C8D",
"C+	c #A1A0A1",
"D+	c #AEADAE",
"E+	c #B2B2B2",
"F+	c #9E9E9E",
"G+	c #656565",
"H+	c #5E5D5E",
"I+	c #438943",
"J+	c #10EC10",
"K+	c #70FC70",
"L+	c #74EC74",
"M+	c #589A58",
"N+	c #9D9C9D",
"O+	c #A8A7A8",
"P+	c #A9A8A9",
"Q+	c #6AFF6A",
"R+	c #67FF67",
"S+	c #5AFF58",
"T+	c #4CEE4C",
"U+	c #40CB40",
"V+	c #3AA23A",
"W+	c #2A912A",
"X+	c #367736",
"Y+	c #A09FA0",
"Z+	c #ADACAD",
"`+	c #989898",
" @	c #5D5D5D",
".@	c #686868",
"+@	c #929191",
"@@	c #9B9B9B",
"#@	c #1B9B1B",
"$@	c #3FF841",
"%@	c #83F883",
"&@	c #42D942",
"*@	c #8F918E",
"=@	c #A2A1A1",
"-@	c #7FC27F",
";@	c #6CFF6C",
">@	c #72FF72",
",@	c #56FF56",
"'@	c #4BEB4B",
")@	c #39C839",
"!@	c #229E22",
"~@	c #0C910C",
"{@	c #396639",
"]@	c #818080",
"^@	c #919090",
"/@	c #AAAAAA",
"(@	c #8F8F90",
"_@	c #535353",
":@	c #757474",
"<@	c #959494",
"[@	c #6F936E",
"}@	c #01E101",
"|@	c #64FD64",
"1@	c #7EF17E",
"2@	c #4EAB4E",
"3@	c #999898",
"4@	c #A5A4A4",
"5@	c #A7A6A6",
"6@	c #84BD83",
"7@	c #6AFF6C",
"8@	c #64FF66",
"9@	c #53FF53",
"0@	c #48E748",
"a@	c #35C335",
"b@	c #219920",
"c@	c #068F06",
"d@	c #436842",
"e@	c #808080",
"f@	c #8E8D8D",
"g@	c #9D9C9C",
"h@	c #848484",
"i@	c #4D4D4D",
"j@	c #989797",
"k@	c #A4A3A3",
"l@	c #329332",
"m@	c #28F628",
"n@	c #7EFC7E",
"o@	c #5AE85A",
"p@	c #7A9479",
"q@	c #9E9D9D",
"r@	c #A6A5A5",
"s@	c #64FF64",
"t@	c #50FF50",
"u@	c #44E144",
"v@	c #2FBA31",
"w@	c #1C921D",
"x@	c #028D02",
"y@	c #456945",
"z@	c #807F7F",
"A@	c #8F8E8E",
"B@	c #777777",
"C@	c #4E4D4D",
"D@	c #858484",
"E@	c #90988F",
"F@	c #0FBC0F",
"G@	c #57FE57",
"H@	c #8AFE8A",
"I@	c #4AD049",
"J@	c #949393",
"K@	c #84BC83",
"L@	c #69FF68",
"M@	c #73FF72",
"N@	c #64FF62",
"O@	c #4DFE4D",
"P@	c #3ED940",
"Q@	c #2AB02A",
"R@	c #1A911A",
"S@	c #0B7A0B",
"T@	c #576D56",
"U@	c #A9A8A8",
"V@	c #888888",
"W@	c #A3A3A3",
"X@	c #A0A0A0",
"Y@	c #4A924A",
"Z@	c #10F510",
"`@	c #7BFF7D",
" #	c #8DFF8D",
".#	c #77A376",
"+#	c #7FAC7F",
"@#	c #62FE62",
"##	c #61FF61",
"$#	c #49F849",
"%#	c #3ACF3A",
"&#	c #25A525",
"*#	c #139113",
"=#	c #176817",
"-#	c #6A746A",
";#	c #828282",
">#	c #909090",
",#	c #9C9C9C",
"'#	c #A2A2A2",
")#	c #A7A7A7",
"!#	c #7B7B7B",
"~#	c #4D4C4D",
"{#	c #7A7879",
"]#	c #8F8D8E",
"^#	c #9F9D9E",
"/#	c #9C9A9B",
"(#	c #1DA41D",
"_#	c #47FF47",
":#	c #56F456",
"<#	c #49EB49",
"[#	c #5BFF5B",
"}#	c #44EF44",
"|#	c #31C131",
"1#	c #1E981E",
"2#	c #099107",
"3#	c #2A622A",
"4#	c #7B797A",
"5#	c #858384",
"6#	c #939192",
"7#	c #9E9C9D",
"8#	c #A2A0A1",
"9#	c #A7A5A6",
"0#	c #5F5F5F",
"a#	c #636262",
"b#	c #848383",
"c#	c #969595",
"d#	c #A09F9F",
"e#	c #9F9E9E",
"f#	c #648B63",
"g#	c #00E600",
"h#	c #70FF70",
"i#	c #44FF44",
"j#	c #1CFF1E",
"k#	c #45FF45",
"l#	c #3EDE3E",
"m#	c #29B029",
"n#	c #179117",
"o#	c #078107",
"p#	c #3E663E",
"q#	c #7B7A7A",
"r#	c #605F60",
"s#	c #868485",
"t#	c #8D8B8C",
"u#	c #A09E9F",
"v#	c #9B999A",
"w#	c #299229",
"x#	c #16E016",
"y#	c #00B700",
"z#	c #00CC00",
"A#	c #1CBE1C",
"B#	c #1E9B1E",
"C#	c #0A910B",
"D#	c #1A661A",
"E#	c #657064",
"F#	c #7E7D7D",
"G#	c #898889",
"H#	c #969495",
"I#	c #A4A3A4",
"J#	c #1A8B19",
"K#	c #008800",
"L#	c #007700",
"M#	c #007D00",
"N#	c #067306",
"O#	c #3B633B",
"P#	c #787878",
"Q#	c #828181",
"R#	c #989696",
"S#	c #9B9999",
"T#	c #9F9D9D",
"U#	c #9D9B9B",
"V#	c #61885F",
"W#	c #0F7C0F",
"X#	c #0B5C0B",
"Y#	c #185618",
"Z#	c #666F64",
"`#	c #7D7C7C",
" $	c #898787",
".$	c #949292",
"+$	c #9C9A9A",
"@$	c #A4A2A2",
"#$	c #9B9A9B",
"$$	c #9C9B9C",
"%$	c #989798",
"&$	c #8C8B8C",
"*$	c #818081",
"=$	c #7E7D7E",
"-$	c #838283",
";$	c #969596",
">$	c #A2A1A2",
",$	c #A19FA0",
"'$	c #979596",
")$	c #939292",
"!$	c #929091",
"~$	c #949293",
"{$	c #999798",
"]$	c #9F9E9F",
"^$	c #A3A2A3",
"  . . . . . . . . . . . . . . . . . . . . . . . . . . . . . .   ",
"+ @ @ @ @ @ @ @ @ @ @ @ @ @ @ @ @ @ @ @ @ @ @ @ @ @ @ @ @ @ @ + ",
"+ # # # # # # # # # $ % # $ % # # & % * # # # # # # # # # # # + ",
"= - - - - - - - - - ; % - ; % - > % ; - - - - - - - - - - - - = ",
"@ , , , , , , , , , ' % , ' % ) ! ~ , , , , , , { ] ^ / ( _ , @ ",
": < < < < < < < < < [ % < [ % } | < < < < < < < 1 2 3 4 5 6 7 : ",
"8 9 9 9 9 9 9 9 9 9 0 % 9 0 % % ! a 9 9 9 b c d e f g h i j k 9 ",
", l m n o o o o o o p % o p % q ! r o o o s t u v w x y z A B l ",
"C D E F G H n n n n I % n I % n J % K n n L M N O P Q R S T U V ",
"W X Y Z `  ...+.@.H #.% H #.% H H $.%.H H V &.*.=.-.;.>.,.'.).) ",
"!.~.{.].^./.(._.:.<.[.% <.[.% <.<.}.% |.<.1.2.3.4.5.6.7.8.9.0.a.",
"b.c.d.e.f.g.h.i.j.+.k.k.k.k.k.k.k.k.k.k.k.k.l.m.n.o.p.q.r.s.t.u.",
"v.w.x.y.z.A.B.C.D.E.F.F.F.F.F.F.F.F.F.F.F.F.G.H.I.J.K.L.M.N.O.P.",
"Q.= R.S.T.U.V.W.}.X.G.G.G.G.G.G.G.G.G.G.G.G.Y.f.Z.`. +.+++@+#+$+",
"%+&+*+=+-+;+>+,+'+)+a.a.a.a.a.a.a.a.a.a.a.!+~+{+]+^+/+(+_+:+<+[+",
"}+|+1+2+3+4+5+6+7+8+9+0+0+0+0+0+0+0+0+0+a+b+c+d+/.e+f+g+h+8+9+P.",
"i+j+k+l+m+n+o+p+q+0.r+s+s+s+s+s+s+s+s+t+u+~+v+w+x+y+z+A+B+C+s+D+",
"E+F+G+H+B+I+J+K+L+M+N+O+P+P+P+P+P+P+t+Q+~+R+S+T+U+V+W+X+B+Y+P+Z+",
"u.`+ @.@+@@@#@$@%@&@*@=@)+)+)+)+)+-@;@>@v+,@'@)@!@~@{@]@^@=@)+0+",
"/@(@_@:@<@=@[@}@|@1@2@3@4@5@5@5@6@7@~+8@9@0@a@b@c@d@e@f@g@4@5@9+",
"j.h@i@]@j@k@8+l@m@n@o@p@q@4@r@6@Q+~+s@t@u@v@w@x@y@z@A@g@k@r@r@<+",
"F+B@C@D@}.k@k@E@F@G@H@I@J@=@K@L@M@N@O@P@Q@R@S@T@]@A@g@k@4@4@4@U@",
").G+l+V@@@W@W@X@Y@Z@`@ #.#+#@#>@##$#%#&#*#=#-#;#>#,#'#W@W@W@W@)#",
"!#~#{#]#^#_._._./#(#_#2 :#<#b+[#}#|#1#2#3#4#5#6#7#8#_._._._._.9#",
"0#a#b#c#d#8+8+8+e#f#g#h#i#j#k#l#m#n#o#p#q#_+J@q@d#8+8+8+8+8+8+4@",
"r#s#t#/#u#u#u#u#u#v#w#x#y#z#A#B#C#D#E#F#G#H#7#u#u#u#u#u#u#u#u#I#",
"e@A@c#q@e#e#e#e#e#q@c#J#K#L#M#N#O#P#Q#A@j@g@e#e#e#e#e#e#e#e#e#k@",
"D.R#S#T#T#T#T#T#T#T#U#V#W#X#Y#Z#`# $.$+$D.T#T#T#T#T#T#T#T#T#T#@$",
"C+#$$$N+N+N+N+N+N+N+N+%$&$*$=$-$B+;$#$N+N+N+N+N+N+N+N+N+N+N+N+>$",
",$/#/#/#/#/#/#/#/#/#/#v#'$)$!$~${$v#/#/#/#/#/#/#/#/#/#/#/#/#/#,$",
"]$#$#$#$#$#$#$#$#$#$#$#$#$#$#$#$#$#$#$#$#$#$#$#$#$#$#$#$#$#$#$]$",
"^$]$]$]$]$]$]$]$]$]$]$]$]$]$]$]$]$]$]$]$]$]$]$]$]$]$]$]$]$]$]$^$"};
