/* XPM */
static char * nrm_lffkarm_xpm[] = {
"32 32 477 2",
"  	c #C3C2C2",
". 	c #C0BFBF",
"+ 	c #BEBEBD",
"@ 	c #BCBCBB",
"# 	c #BBBBBA",
"$ 	c #969695",
"% 	c #000000",
"& 	c #3E3E3E",
"* 	c #0C0C0C",
"= 	c #898988",
"- 	c #BCBCBC",
"; 	c #B9B9B9",
"> 	c #888888",
", 	c #ADADAD",
"' 	c #565656",
") 	c #B9B9B8",
"! 	c #888887",
"~ 	c #252525",
"{ 	c #4A4A4A",
"] 	c #ABBAAA",
"^ 	c #91E191",
"/ 	c #95D094",
"( 	c #A6B8A6",
"_ 	c #B6B6B5",
": 	c #B8B8B7",
"< 	c #BBBABA",
"[ 	c #B8B7B7",
"} 	c #878686",
"| 	c #626262",
"1 	c #565555",
"2 	c #82D182",
"3 	c #9AFF9A",
"4 	c #9FFF9F",
"5 	c #82F980",
"6 	c #78B478",
"7 	c #A8B0A7",
"8 	c #B6B5B5",
"9 	c #BAB9B8",
"0 	c #B7B6B5",
"a 	c #868585",
"b 	c #B5B6B3",
"c 	c #ADBDAC",
"d 	c #93C392",
"e 	c #61F661",
"f 	c #78FF78",
"g 	c #92FF92",
"h 	c #9BFF9B",
"i 	c #5FEB5F",
"j 	c #56B656",
"k 	c #ACABAA",
"l 	c #B1B1B1",
"m 	c #B1B1B0",
"n 	c #B4B4B3",
"o 	c #B5B5B4",
"p 	c #858584",
"q 	c #545454",
"r 	c #181818",
"s 	c #A9A9A8",
"t 	c #7DB87D",
"u 	c #9DFF9D",
"v 	c #69FF6B",
"w 	c #45F645",
"x 	c #37FF37",
"y 	c #5FFF5F",
"z 	c #82F982",
"A 	c #67D767",
"B 	c #52AD50",
"C 	c #9C9C9B",
"D 	c #D9D9D9",
"E 	c #D5D5D5",
"F 	c #C2C2C2",
"G 	c #A0A09F",
"H 	c #ACB0AB",
"I 	c #B3B3B2",
"J 	c #90908F",
"K 	c #A8A8A7",
"L 	c #242424",
"M 	c #60605F",
"N 	c #79AB79",
"O 	c #2ADC2A",
"P 	c #2AF42A",
"Q 	c #21E621",
"R 	c #21FF21",
"S 	c #00F700",
"T 	c #00DE00",
"U 	c #37B937",
"V 	c #3B913A",
"W 	c #949493",
"X 	c #AEAEAD",
"Y 	c #D7D7D7",
"Z 	c #DBDBDB",
"` 	c #D0D3D0",
" .	c #99E499",
"..	c #7AF87A",
"+.	c #6DDC6C",
"@.	c #9FAE9E",
"#.	c #AFAFAF",
"$.	c #B2B2B1",
"%.	c #519C51",
"&.	c #0AD00A",
"*.	c #0CC90C",
"=.	c #02EE02",
"-.	c #1FF21F",
";.	c #22D122",
">.	c #209F20",
",.	c #3A7D3A",
"'.	c #939393",
").	c #ADADAC",
"!.	c #D1D0D1",
"~.	c #D3D3D3",
"{.	c #B5D8B6",
"].	c #8FFF8F",
"^.	c #A7FFA7",
"/.	c #9CFF9C",
"(.	c #45D845",
"_.	c #A3A1A2",
":.	c #AFADAE",
"<.	c #B2B0B1",
"[.	c #B1AFB0",
"}.	c #81A081",
"|.	c #0DAD0D",
"1.	c #0FB80F",
"2.	c #019601",
"3.	c #00D200",
"4.	c #2EBF2E",
"5.	c #188918",
"6.	c #497349",
"7.	c #959495",
"8.	c #ADACAC",
"9.	c #CCCBCB",
"0.	c #CACACA",
"a.	c #A3D4A3",
"b.	c #77FF76",
"c.	c #93FF93",
"d.	c #87F185",
"e.	c #53D653",
"f.	c #709070",
"g.	c #A5A5A5",
"h.	c #B0B0B0",
"i.	c #ACACAC",
"j.	c #35A335",
"k.	c #1DAD1D",
"l.	c #029B02",
"m.	c #00CF00",
"n.	c #27AD27",
"o.	c #2A732A",
"p.	c #667C66",
"q.	c #999999",
"r.	c #AEAEAE",
"s.	c #C5C5C5",
"t.	c #C2C1C1",
"u.	c #97C897",
"v.	c #4BFE4B",
"w.	c #64F764",
"x.	c #5FE25F",
"y.	c #37C737",
"z.	c #5C815B",
"A.	c #9E9C9C",
"B.	c #ADABAB",
"C.	c #B0AEAE",
"D.	c #AFADAD",
"E.	c #59CD59",
"F.	c #2BAD2B",
"G.	c #00B000",
"H.	c #02CD02",
"I.	c #199E19",
"J.	c #4A7249",
"K.	c #8B8B8A",
"L.	c #A09E9E",
"M.	c #B0AFAF",
"N.	c #C1C1C1",
"O.	c #88BA88",
"P.	c #0AEF0A",
"Q.	c #2BEC2B",
"R.	c #23E223",
"S.	c #14CA14",
"T.	c #71856F",
"U.	c #9A9999",
"V.	c #ABA9A9",
"W.	c #80C67F",
"X.	c #2CFF2C",
"Y.	c #00A700",
"Z.	c #02C102",
"`.	c #0D940D",
" +	c #707D6F",
".+	c #969494",
"++	c #A7A5A5",
"@+	c #B2B0B0",
"#+	c #BDBDBD",
"$+	c #B5B5B5",
"%+	c #8E9D8E",
"&+	c #149814",
"*+	c #00B300",
"=+	c #16E316",
"-+	c #74DF73",
";+	c #40AF40",
">+	c #979696",
",+	c #A8A7A7",
"'+	c #86BF85",
")+	c #73FF73",
"!+	c #A1FFA0",
"~+	c #5AFF5A",
"{+	c #009300",
"]+	c #00B600",
"^+	c #157F15",
"/+	c #868686",
"(+	c #9C9B9B",
"_+	c #AAA9A9",
":+	c #B1B0B0",
"<+	c #BABABA",
"[+	c #858585",
"}+	c #5A5A5A",
"|+	c #267E26",
"1+	c #35DE35",
"2+	c #7FEF7F",
"3+	c #6AE46C",
"4+	c #6C956B",
"5+	c #A1A0A0",
"6+	c #ABAAAA",
"7+	c #ACABAB",
"8+	c #82C282",
"9+	c #69FF69",
"0+	c #76FF76",
"a+	c #83FF83",
"b+	c #12E014",
"c+	c #009800",
"d+	c #386B39",
"e+	c #8A8989",
"f+	c #B6B7B6",
"g+	c #A6A6A6",
"h+	c #737374",
"i+	c #595959",
"j+	c #768276",
"k+	c #0BAF0B",
"l+	c #53F353",
"m+	c #86F586",
"n+	c #3CC43C",
"o+	c #A5A4A5",
"p+	c #AAA9AA",
"q+	c #81C281",
"r+	c #6BFF6B",
"s+	c #66FF66",
"t+	c #60FF5E",
"u+	c #71EE71",
"v+	c #68C86A",
"w+	c #4AA14A",
"x+	c #387C38",
"y+	c #8D8C8D",
"z+	c #A1A0A1",
"A+	c #AEADAE",
"B+	c #B2B2B2",
"C+	c #9E9E9E",
"D+	c #656565",
"E+	c #5E5D5E",
"F+	c #438943",
"G+	c #10EC10",
"H+	c #70FC70",
"I+	c #74EC74",
"J+	c #589A58",
"K+	c #9D9C9D",
"L+	c #A8A7A8",
"M+	c #A9A8A9",
"N+	c #6AFF6A",
"O+	c #67FF67",
"P+	c #5AFF58",
"Q+	c #4CEE4C",
"R+	c #40CB40",
"S+	c #3AA23A",
"T+	c #2A912A",
"U+	c #367736",
"V+	c #A09FA0",
"W+	c #ADACAD",
"X+	c #989898",
"Y+	c #5D5D5D",
"Z+	c #686868",
"`+	c #929191",
" @	c #9B9B9B",
".@	c #1B9B1B",
"+@	c #3FF841",
"@@	c #83F883",
"#@	c #42D942",
"$@	c #8F918E",
"%@	c #A2A1A1",
"&@	c #7FC27F",
"*@	c #6CFF6C",
"=@	c #72FF72",
"-@	c #56FF56",
";@	c #4BEB4B",
">@	c #39C839",
",@	c #229E22",
"'@	c #0C910C",
")@	c #396639",
"!@	c #818080",
"~@	c #919090",
"{@	c #AAAAAA",
"]@	c #8F8F90",
"^@	c #535353",
"/@	c #757474",
"(@	c #959494",
"_@	c #6F936E",
":@	c #01E101",
"<@	c #64FD64",
"[@	c #7EF17E",
"}@	c #4EAB4E",
"|@	c #999898",
"1@	c #A5A4A4",
"2@	c #A7A6A6",
"3@	c #84BD83",
"4@	c #6AFF6C",
"5@	c #64FF66",
"6@	c #53FF53",
"7@	c #48E748",
"8@	c #35C335",
"9@	c #219920",
"0@	c #068F06",
"a@	c #436842",
"b@	c #808080",
"c@	c #8E8D8D",
"d@	c #9D9C9C",
"e@	c #848484",
"f@	c #4D4D4D",
"g@	c #989797",
"h@	c #A4A3A3",
"i@	c #329332",
"j@	c #28F628",
"k@	c #7EFC7E",
"l@	c #5AE85A",
"m@	c #7A9479",
"n@	c #9E9D9D",
"o@	c #A6A5A5",
"p@	c #64FF64",
"q@	c #50FF50",
"r@	c #44E144",
"s@	c #2FBA31",
"t@	c #1C921D",
"u@	c #028D02",
"v@	c #456945",
"w@	c #807F7F",
"x@	c #8F8E8E",
"y@	c #777777",
"z@	c #4E4D4D",
"A@	c #858484",
"B@	c #90988F",
"C@	c #0FBC0F",
"D@	c #57FE57",
"E@	c #8AFE8A",
"F@	c #4AD049",
"G@	c #949393",
"H@	c #84BC83",
"I@	c #69FF68",
"J@	c #73FF72",
"K@	c #64FF62",
"L@	c #4DFE4D",
"M@	c #3ED940",
"N@	c #2AB02A",
"O@	c #1A911A",
"P@	c #0B7A0B",
"Q@	c #576D56",
"R@	c #A9A8A8",
"S@	c #A3A3A3",
"T@	c #A0A0A0",
"U@	c #4A924A",
"V@	c #10F510",
"W@	c #7BFF7D",
"X@	c #8DFF8D",
"Y@	c #77A376",
"Z@	c #7FAC7F",
"`@	c #62FE62",
" #	c #61FF61",
".#	c #49F849",
"+#	c #3ACF3A",
"@#	c #25A525",
"##	c #139113",
"$#	c #176817",
"%#	c #6A746A",
"&#	c #828282",
"*#	c #909090",
"=#	c #9C9C9C",
"-#	c #A2A2A2",
";#	c #A7A7A7",
">#	c #7B7B7B",
",#	c #4D4C4D",
"'#	c #7A7879",
")#	c #8F8D8E",
"!#	c #9F9D9E",
"~#	c #9C9A9B",
"{#	c #1DA41D",
"]#	c #47FF47",
"^#	c #56F456",
"/#	c #49EB49",
"(#	c #5BFF5B",
"_#	c #44EF44",
":#	c #31C131",
"<#	c #1E981E",
"[#	c #099107",
"}#	c #2A622A",
"|#	c #7B797A",
"1#	c #858384",
"2#	c #939192",
"3#	c #9E9C9D",
"4#	c #A2A0A1",
"5#	c #A7A5A6",
"6#	c #5F5F5F",
"7#	c #636262",
"8#	c #848383",
"9#	c #969595",
"0#	c #A09F9F",
"a#	c #9F9E9E",
"b#	c #648B63",
"c#	c #00E600",
"d#	c #70FF70",
"e#	c #44FF44",
"f#	c #1CFF1E",
"g#	c #45FF45",
"h#	c #3EDE3E",
"i#	c #29B029",
"j#	c #179117",
"k#	c #078107",
"l#	c #3E663E",
"m#	c #7B7A7A",
"n#	c #605F60",
"o#	c #868485",
"p#	c #8D8B8C",
"q#	c #A09E9F",
"r#	c #9B999A",
"s#	c #299229",
"t#	c #16E016",
"u#	c #00B700",
"v#	c #00CC00",
"w#	c #1CBE1C",
"x#	c #1E9B1E",
"y#	c #0A910B",
"z#	c #1A661A",
"A#	c #657064",
"B#	c #7E7D7D",
"C#	c #898889",
"D#	c #969495",
"E#	c #A4A3A4",
"F#	c #1A8B19",
"G#	c #008800",
"H#	c #007700",
"I#	c #007D00",
"J#	c #067306",
"K#	c #3B633B",
"L#	c #787878",
"M#	c #828181",
"N#	c #989696",
"O#	c #9B9999",
"P#	c #9F9D9D",
"Q#	c #9D9B9B",
"R#	c #61885F",
"S#	c #0F7C0F",
"T#	c #0B5C0B",
"U#	c #185618",
"V#	c #666F64",
"W#	c #7D7C7C",
"X#	c #898787",
"Y#	c #949292",
"Z#	c #9C9A9A",
"`#	c #A4A2A2",
" $	c #9B9A9B",
".$	c #9C9B9C",
"+$	c #989798",
"@$	c #8C8B8C",
"#$	c #818081",
"$$	c #7E7D7E",
"%$	c #838283",
"&$	c #969596",
"*$	c #A2A1A2",
"=$	c #A19FA0",
"-$	c #979596",
";$	c #939292",
">$	c #929091",
",$	c #949293",
"'$	c #999798",
")$	c #9F9E9F",
"!$	c #A3A2A3",
"  . . . . . . . . . . . . . . . . . . . . . . . . . . . . . .   ",
"+ @ @ @ @ @ @ @ @ @ @ @ @ @ @ @ @ @ @ @ @ @ @ @ @ @ @ @ @ @ @ + ",
"+ # # # # # # # # $ % % % & $ * # $ * = # # # # # # # # # # # + ",
"- ; ; ; ; ; ; ; ; > % ; ; ; > % , * ' ; ; ; ; ; ; ; ; ; ; ; ; - ",
"@ ) ) ) ) ) ) ) ) ! % ) ) ) ! % ~ { ) ) ) ) ) ) ] ^ / ( _ : ) @ ",
"< [ [ [ [ [ [ [ [ } % % % | } % % 1 [ [ [ [ [ [ 2 3 4 5 6 7 8 < ",
"9 0 0 0 0 0 0 0 0 a % 0 0 0 a % a % a 0 0 b c d e f g h i j k 0 ",
") l m n o o o o o p % o o o p % o q r s o t u v w x y z A B C l ",
"D E F G H I n n n J * n n n J * n K L M n N O P Q R S T U V W X ",
"Y Z `  ...+.@.#.$.I I I I I I I I I I I I X %.&.*.=.-.;.>.,.'.).",
"!.~.{.].^./.(._.:.<.<.<.<.<.<.<.<.<.<.<.<.[.}.|.1.2.3.4.5.6.7.8.",
"9.0.a.b.c.d.e.f.g.#.h.h.h.h.h.h.h.h.h.h.h.h.i.j.k.l.m.n.o.p.q.r.",
"s.t.u.v.w.x.y.z.A.B.C.C.C.C.C.C.C.C.C.C.C.C.D.E.F.G.H.I.J.K.L.M.",
"N.- O.P.Q.R.S.T.U.V.D.D.D.D.D.D.D.D.D.D.D.D.W.c.X.Y.Z.`. +.+++@+",
"#+$+%+&+*+=+-+;+>+,+8.8.8.8.8.8.8.8.8.8.8.'+)+!+~+{+]+^+/+(+_+:+",
"<+, [+}+|+1+2+3+4+5+6+7+7+7+7+7+7+7+7+7+8+9+0+a+/.b+c+d+e+5+6+M.",
"f+g+h+i+j+k+l+m+n+7.o+p+p+p+p+p+p+p+p+q+r+)+s+t+u+v+w+x+y+z+p+A+",
"B+C+D+E+y+F+G+H+I+J+K+L+M+M+M+M+M+M+q+N+)+O+P+Q+R+S+T+U+y+V+M+W+",
"r.X+Y+Z+`+ @.@+@@@#@$@%@,+,+,+,+,+&@*@=@s+-@;@>@,@'@)@!@~@%@,+7+",
"{@]@^@/@(@%@_@:@<@[@}@|@1@2@2@2@3@4@)+5@6@7@8@9@0@a@b@c@d@1@2@6+",
"g.e@f@!@g@h@5+i@j@k@l@m@n@1@o@3@N+)+p@q@r@s@t@u@v@w@x@d@h@o@o@_+",
"C+y@z@A@U.h@h@B@C@D@E@F@G@%@H@I@J@K@L@M@N@O@P@Q@!@x@d@h@1@1@1@R@",
"'.D+i+>  @S@S@T@U@V@W@X@Y@Z@`@=@ #.#+#@###$#%#&#*#=#-#S@S@S@S@;#",
">#,#'#)#!#_._._.~#{#]#3 ^#/#9+(#_#:#<#[#}#|#1#2#3#4#_._._._._.5#",
"6#7#8#9#0#5+5+5+a#b#c#d#e#f#g#h#i#j#k#l#m#/+G@n@0#5+5+5+5+5+5+1@",
"n#o#p#~#q#q#q#q#q#r#s#t#u#v#w#x#y#z#A#B#C#D#3#q#q#q#q#q#q#q#q#E#",
"b@x@9#n@a#a#a#a#a#n@9#F#G#H#I#J#K#L#M#x@g@d@a#a#a#a#a#a#a#a#a#h@",
"A.N#O#P#P#P#P#P#P#P#Q#R#S#T#U#V#W#X#Y#Z#A.P#P#P#P#P#P#P#P#P#P#`#",
"z+ $.$K+K+K+K+K+K+K+K++$@$#$$$%$y+&$ $K+K+K+K+K+K+K+K+K+K+K+K+*$",
"=$~#~#~#~#~#~#~#~#~#~#r#-$;$>$,$'$r#~#~#~#~#~#~#~#~#~#~#~#~#~#=$",
")$ $ $ $ $ $ $ $ $ $ $ $ $ $ $ $ $ $ $ $ $ $ $ $ $ $ $ $ $ $ $)$",
"!$)$)$)$)$)$)$)$)$)$)$)$)$)$)$)$)$)$)$)$)$)$)$)$)$)$)$)$)$)$)$!$"};
