/* XPM */
static char * nrm_rtbrow_xpm[] = {
"32 32 602 2",
"  	c #C3C2C2",
". 	c #C0BFBF",
"+ 	c #B4B3B3",
"@ 	c #9A9F9F",
"# 	c #C2D0D1",
"$ 	c #BDCCCD",
"% 	c #BBC9CB",
"& 	c #B1BEBF",
"* 	c #A2ACAE",
"= 	c #969D9E",
"- 	c #8A9292",
"; 	c #858A8B",
"> 	c #818686",
", 	c #7E8181",
"' 	c #797B7C",
") 	c #757777",
"! 	c #717373",
"~ 	c #707171",
"{ 	c #6D6E6E",
"] 	c #6C6D6D",
"^ 	c #6D6D6D",
"/ 	c #707070",
"( 	c #737373",
"_ 	c #767676",
": 	c #797979",
"< 	c #BEBEBD",
"[ 	c #BCBCBB",
"} 	c #BBBBBA",
"| 	c #9E9F9E",
"1 	c #ABB6B7",
"2 	c #BECDCE",
"3 	c #B4C2C3",
"4 	c #B1BFC1",
"5 	c #AAB6B8",
"6 	c #9EA9AA",
"7 	c #91999B",
"8 	c #868D8E",
"9 	c #808585",
"0 	c #7C8181",
"a 	c #797C7C",
"b 	c #727373",
"c 	c #6E7070",
"d 	c #6B6C6C",
"e 	c #686869",
"f 	c #696969",
"g 	c #6B6B6B",
"h 	c #6C6C6C",
"i 	c #6E6E6E",
"j 	c #717171",
"k 	c #757575",
"l 	c #7B7B7B",
"m 	c #B3B3B2",
"n 	c #959898",
"o 	c #B8C6C7",
"p 	c #B1C1C1",
"q 	c #A9B6B8",
"r 	c #A1AEAE",
"s 	c #97A2A2",
"t 	c #8D9697",
"u 	c #838A8A",
"v 	c #7C8383",
"w 	c #777C7C",
"x 	c #737777",
"y 	c #6D7070",
"z 	c #696B6B",
"A 	c #676767",
"B 	c #777777",
"C 	c #7A7A7A",
"D 	c #7E7E7E",
"E 	c #BCBCBC",
"F 	c #B9B9B9",
"G 	c #A2A2A2",
"H 	c #A0A8A9",
"I 	c #B5C4C6",
"J 	c #A7B5B5",
"K 	c #9CA9AA",
"L 	c #929D9D",
"M 	c #869191",
"N 	c #7F8686",
"O 	c #797F7F",
"P 	c #737979",
"Q 	c #707373",
"R 	c #6B6D6E",
"S 	c #686B6B",
"T 	c #646666",
"U 	c #626363",
"V 	c #666666",
"W 	c #686868",
"X 	c #7F7F7F",
"Y 	c #B9B9B8",
"Z 	c #B8B8B7",
"` 	c #969797",
" .	c #ACB8B9",
"..	c #ABB9B9",
"+.	c #9EAAAB",
"@.	c #858F8F",
"#.	c #7B8484",
"$.	c #767C7C",
"%.	c #717676",
"&.	c #6C7070",
"*.	c #636466",
"=.	c #616262",
"-.	c #5E5F5F",
";.	c #5F5F5F",
">.	c #636363",
",.	c #727272",
"'.	c #7C7C7C",
").	c #808080",
"!.	c #BBBABA",
"~.	c #B8B7B7",
"{.	c #B3B2B2",
"].	c #919393",
"^.	c #AFBABB",
"/.	c #A2AFB0",
"(.	c #96A1A2",
"_.	c #889293",
":.	c #7A8384",
"<.	c #727A7B",
"[.	c #6D7373",
"}.	c #696E6E",
"|.	c #646868",
"1.	c #5F6262",
"2.	c #5D5E5E",
"3.	c #595A5A",
"4.	c #5A5A5A",
"5.	c #646464",
"6.	c #818181",
"7.	c #BAB9B8",
"8.	c #B7B6B5",
"9.	c #ADACAB",
"0.	c #919596",
"a.	c #9CA9A9",
"b.	c #8E999B",
"c.	c #7F8889",
"d.	c #727B7B",
"e.	c #6B7171",
"f.	c #676C6C",
"g.	c #636868",
"h.	c #616464",
"i.	c #5D5F5F",
"j.	c #5A5C5C",
"k.	c #585858",
"l.	c #B8B8B8",
"m.	c #B5B5B4",
"n.	c #A3A3A2",
"o.	c #949C9C",
"p.	c #A7B4B5",
"q.	c #96A1A1",
"r.	c #869192",
"s.	c #798183",
"t.	c #6E7676",
"u.	c #686E6E",
"v.	c #646869",
"w.	c #636666",
"x.	c #5F6162",
"y.	c #5C5D5D",
"z.	c #5D5D5D",
"A.	c #626262",
"B.	c #B4B4B3",
"C.	c #999A99",
"D.	c #9AA4A4",
"E.	c #A0ACAE",
"F.	c #838D8D",
"G.	c #778080",
"H.	c #71797A",
"I.	c #727A7A",
"J.	c #717777",
"K.	c #6E7375",
"L.	c #6C7071",
"M.	c #696C6C",
"N.	c #646767",
"O.	c #B7B7B6",
"P.	c #949594",
"Q.	c #9BA4A5",
"R.	c #9BA7A7",
"S.	c #8E9899",
"T.	c #858F91",
"U.	c #7C8586",
"V.	c #7A8183",
"W.	c #7E8686",
"X.	c #808889",
"Y.	c #7B8081",
"Z.	c #757979",
"`.	c #707272",
" +	c #B6B4B5",
".+	c #B2B0B1",
"++	c #B1AFB0",
"@+	c #8F8F90",
"#+	c #9CA7A8",
"$+	c #9BA6A7",
"%+	c #8B9697",
"&+	c #868F91",
"*+	c #8E9898",
"=+	c #949E9E",
"-+	c #949D9E",
";+	c #8E9697",
">+	c #888E8E",
",+	c #838889",
"'+	c #767979",
")+	c #B4B4B4",
"!+	c #B0B0B0",
"~+	c #ADADAD",
"{+	c #8A8D8D",
"]+	c #A1ACAE",
"^+	c #9BA7A9",
"/+	c #919C9C",
"(+	c #98A3A5",
"_+	c #A9B4B5",
":+	c #B6C3C4",
"<+	c #B6C3C3",
"[+	c #A7B0B2",
"}+	c #949A9A",
"|+	c #8A8F8F",
"1+	c #838584",
"2+	c #7E7B7B",
"3+	c #787779",
"4+	c #767474",
"5+	c #B4B2B2",
"6+	c #B0AEAE",
"7+	c #ACAAAA",
"8+	c #898B8B",
"9+	c #A2AEAF",
"0+	c #ABB8B9",
"a+	c #B8C4C6",
"b+	c #B9C6C7",
"c+	c #A7B0B0",
"d+	c #8E8E8C",
"e+	c #816B69",
"f+	c #825450",
"g+	c #824642",
"h+	c #873F3B",
"i+	c #88433F",
"j+	c #89504E",
"k+	c #83605E",
"l+	c #7D6867",
"m+	c #7A7473",
"n+	c #7C7878",
"o+	c #818080",
"p+	c #848484",
"q+	c #858585",
"r+	c #B3B1B1",
"s+	c #AFADAD",
"t+	c #A7A5A5",
"u+	c #888C8C",
"v+	c #A5B1B3",
"w+	c #9EABAC",
"x+	c #97A3A3",
"y+	c #99A5A6",
"z+	c #929C9C",
"A+	c #808485",
"B+	c #745755",
"C+	c #8A2C27",
"D+	c #AB1813",
"E+	c #BE110D",
"F+	c #C80C08",
"G+	c #CC0A07",
"H+	c #CD0A07",
"I+	c #C70E0A",
"J+	c #C11410",
"K+	c #B5201C",
"L+	c #9F3632",
"M+	c #8F4F4C",
"N+	c #856764",
"O+	c #837775",
"P+	c #84817F",
"Q+	c #888888",
"R+	c #B1B0B0",
"S+	c #ADACAC",
"T+	c #A4A3A3",
"U+	c #939EA0",
"V+	c #8F999B",
"W+	c #685E5E",
"X+	c #743936",
"Y+	c #A61510",
"Z+	c #D60805",
"`+	c #E60503",
" @	c #E60604",
".@	c #DF0604",
"+@	c #DE0604",
"@@	c #DF0603",
"#@	c #E30503",
"$@	c #EB0402",
"%@	c #EF0302",
"&@	c #EB0403",
"*@	c #D70C09",
"=@	c #B51E1A",
"-@	c #94342E",
";@	c #7F5751",
">@	c #847C79",
",@	c #848483",
"'@	c #B0AFAF",
")@	c #ACABAB",
"!@	c #A3A2A2",
"~@	c #878B8B",
"{@	c #A3B0B1",
"]@	c #8E9999",
"^@	c #6D7272",
"/@	c #5D4B4B",
"(@	c #842725",
"_@	c #BD0F0C",
":@	c #E10604",
"<@	c #E10605",
"[@	c #C3100D",
"}@	c #A21B18",
"|@	c #941F1A",
"1@	c #8D1C16",
"2@	c #8C1A12",
"3@	c #9B150E",
"4@	c #C70B07",
"5@	c #F40201",
"6@	c #F50201",
"7@	c #D00B08",
"8@	c #922A23",
"9@	c #7D6863",
"0@	c #838282",
"a@	c #AEADAE",
"b@	c #AAA9AA",
"c@	c #A1A0A1",
"d@	c #85898A",
"e@	c #A2AFAF",
"f@	c #97A2A3",
"g@	c #727B7C",
"h@	c #655455",
"i@	c #8E2425",
"j@	c #CF0D0C",
"k@	c #E00706",
"l@	c #D40B09",
"m@	c #A91B19",
"n@	c #6B3331",
"o@	c #4E3F3E",
"p@	c #484342",
"q@	c #4A413F",
"r@	c #473F3B",
"s@	c #503C38",
"t@	c #66332E",
"u@	c #961E19",
"v@	c #C40E0A",
"w@	c #E30604",
"x@	c #E00704",
"y@	c #9F2923",
"z@	c #836D6A",
"A@	c #818180",
"B@	c #ADACAD",
"C@	c #A9A8A9",
"D@	c #858989",
"E@	c #696D6F",
"F@	c #6F3939",
"G@	c #BE1212",
"H@	c #E00A0A",
"I@	c #CB1312",
"J@	c #942929",
"K@	c #614040",
"L@	c #4E4D4D",
"M@	c #4B4C4C",
"N@	c #494A4A",
"O@	c #474949",
"P@	c #424444",
"Q@	c #3D3E3D",
"R@	c #403F3F",
"S@	c #483E3D",
"T@	c #5C3C39",
"U@	c #902A27",
"V@	c #B91713",
"W@	c #B11B17",
"X@	c #8B504D",
"Y@	c #827B7A",
"Z@	c #A8A7A7",
"`@	c #A09F9F",
" #	c #838888",
".#	c #99A6A7",
"+#	c #899494",
"@#	c #767F7F",
"##	c #5C6061",
"$#	c #682D2D",
"%#	c #B41313",
"&#	c #B71D1D",
"*#	c #883B3B",
"=#	c #655353",
"-#	c #5E5D5D",
";#	c #6D7071",
">#	c #636464",
",#	c #545555",
"'#	c #4A4A4A",
")#	c #404040",
"!#	c #3B3939",
"~#	c #4A3D3D",
"{#	c #654645",
"]#	c #755251",
"^#	c #746B6B",
"/#	c #777676",
"(#	c #ABAAAA",
"_#	c #A7A6A6",
":#	c #9E9D9D",
"<#	c #828586",
"[#	c #94A0A1",
"}#	c #80898A",
"|#	c #6B7273",
"1#	c #505454",
"2#	c #413030",
"3#	c #682F2F",
"4#	c #6F4949",
"5#	c #696262",
"6#	c #7A7B7B",
"7#	c #888D8E",
"8#	c #8A8F91",
"9#	c #848989",
"0#	c #7B7E7E",
"a#	c #767777",
"b#	c #565656",
"c#	c #414141",
"d#	c #474646",
"e#	c #AAA9A9",
"f#	c #A6A5A5",
"g#	c #818585",
"h#	c #778081",
"i#	c #5F6667",
"j#	c #444949",
"k#	c #303131",
"l#	c #494646",
"m#	c #8F9797",
"n#	c #777B7B",
"o#	c #777979",
"p#	c #888989",
"q#	c #9D9D9D",
"r#	c #A6A6A6",
"s#	c #A3A3A3",
"t#	c #979797",
"u#	c #8D8D8D",
"v#	c #4E4E4E",
"w#	c #4C4C4C",
"x#	c #A9A8A8",
"y#	c #A5A4A4",
"z#	c #9D9C9C",
"A#	c #808384",
"B#	c #8D9899",
"C#	c #757C7E",
"D#	c #595F5F",
"E#	c #3B3D3D",
"F#	c #2F3131",
"G#	c #505050",
"H#	c #676969",
"I#	c #727979",
"J#	c #73797A",
"K#	c #7A7C7C",
"L#	c #A6A7A7",
"M#	c #E1E1E1",
"N#	c #FFFFFF",
"O#	c #E4E4E4",
"P#	c #AFAFAF",
"Q#	c #969696",
"R#	c #555555",
"S#	c #A7A7A7",
"T#	c #9A9A9A",
"U#	c #7E8383",
"V#	c #8A9696",
"W#	c #717A7A",
"X#	c #565D5D",
"Y#	c #383B3B",
"Z#	c #333333",
"`#	c #515151",
" $	c #6B7071",
".$	c #939496",
"+$	c #EBEBEB",
"@$	c #C6C6C6",
"#$	c #989898",
"$$	c #595959",
"%$	c #616161",
"&$	c #A7A5A6",
"*$	c #9F9D9E",
"=$	c #918F90",
"-$	c #848384",
";$	c #808081",
">$	c #7E8283",
",$	c #8A9393",
"'$	c #707979",
")$	c #555C5C",
"!$	c #3C4040",
"~$	c #383939",
"{$	c #56595A",
"]$	c #919494",
"^$	c #C8C8C8",
"/$	c #999999",
"($	c #BFBFBF",
"_$	c #AEAEAE",
":$	c #5C5C5C",
"<$	c #868686",
"[$	c #949494",
"}$	c #828383",
"|$	c #6F7374",
"1$	c #5D6262",
"2$	c #656A6B",
"3$	c #838B8B",
"4$	c #707779",
"5$	c #3E4242",
"6$	c #393B3B",
"7$	c #444545",
"8$	c #626666",
"9$	c #DADCDC",
"0$	c #323232",
"a$	c #161616",
"b$	c #2D2D2D",
"c$	c #B1B1B1",
"d$	c #D6D6D6",
"e$	c #5E5E5E",
"f$	c #8A8A8A",
"g$	c #969C9D",
"h$	c #AEBCBC",
"i$	c #838B8D",
"j$	c #4E5454",
"k$	c #4E5353",
"l$	c #6D7676",
"m$	c #404445",
"n$	c #363738",
"o$	c #3B3C3C",
"p$	c #727575",
"q$	c #898989",
"r$	c #141414",
"s$	c #0F0F0F",
"t$	c #8F8F8F",
"u$	c #ABB5B5",
"v$	c #C8D7D8",
"w$	c #899394",
"x$	c #4B5050",
"y$	c #6D7576",
"z$	c #555C5D",
"A$	c #444647",
"B$	c #373939",
"C$	c #323333",
"D$	c #FDFDFD",
"E$	c #232323",
"F$	c #1E1E1E",
"G$	c #9C9C9C",
"H$	c #9AA1A1",
"I$	c #C6D5D6",
"J$	c #8D9898",
"K$	c #363839",
"L$	c #6C7373",
"M$	c #848E8F",
"N$	c #585D5E",
"O$	c #464B4B",
"P$	c #3D3E3E",
"Q$	c #333434",
"R$	c #444646",
"S$	c #BFC1C1",
"T$	c #929292",
"U$	c #919191",
"V$	c #8B8F90",
"W$	c #BDCBCC",
"X$	c #8F9B9C",
"Y$	c #505656",
"Z$	c #313334",
"`$	c #636B6B",
" %	c #838D8E",
".%	c #585E5E",
"+%	c #494C4C",
"@%	c #404242",
"#%	c #C1C3C3",
"$%	c #858687",
"%%	c #B1BFBF",
"&%	c #949EA0",
"*%	c #555A5C",
"=%	c #2D2F2F",
"-%	c #545A5A",
";%	c #494E4E",
">%	c #424545",
",%	c #3C3C3C",
"'%	c #3B3B3B",
")%	c #F0F0F0",
"!%	c #DBDBDC",
"~%	c #8B8B8B",
"{%	c #858586",
"]%	c #A4B0B0",
"^%	c #4F5454",
"/%	c #7E8888",
"(%	c #4B4F4F",
"_%	c #3E4040",
":%	c #383838",
"<%	c #2F2F2F",
"[%	c #B5B5B5",
"}%	c #F8F8F8",
"|%	c #CED0D0",
"1%	c #A3A5A5",
"2%	c #797A7A",
"3%	c #7F8080",
"4%	c #8E8E8E",
"5%	c #8D8D8E",
"6%	c #959D9E",
"7%	c #5C6262",
"8%	c #2E3131",
"9%	c #454A4A",
"0%	c #7A8383",
"a%	c #4A4E4F",
"b%	c #414445",
"c%	c #3E3E3E",
"d%	c #393939",
"e%	c #3D3D3D",
"f%	c #4F4F4F",
"g%	c #A1A2A2",
"h%	c #9B9B9B",
"i%	c #8B8D8D",
"j%	c #7B7C7C",
"k%	c #838484",
"  . . . . . . + @ # $ $ % & * = - ; > , ' ) ! ~ { ] ^ ^ / ( _ : ",
"< [ [ [ [ [ } | 1 2 3 4 5 6 7 8 9 0 a ) b c d e f g h i j k : l ",
"< } } } } } m n o p q r s t u v w x ! y z A A A f g i / ( B C D ",
"E F F F F F G H I J K L M N O P Q R S T U U V W g h i j ( B l X ",
"[ Y Y Y Y Z `  ...+.L @.#.$.%.&.S *.=.-.;.>.A f h i / ,.k : '.).",
"!.~.~.~.~.{.].^./.(._.:.<.[.}.|.1.2.3.4.;.5.A g h i j ,._ : '.6.",
"7.8.8.8.8.9.0...a.b.c.d.e.f.g.h.i.j.k.4.;.V f h i / j ( _ l D 6.",
"l.m.m.m.m.n.o.p.q.r.s.t.e.u.f.v.w.x.y.z.A.A g i / j ,.k : '.X 6.",
"Z B.B.B.B.C.D.E.b.F.G.H.I.I.J.K.L.M.N.A.>.W ^ / j ,.k _ l X ).6.",
"O.m m m m P.Q.R.S.T.U.V.W.X.N Y.w Z.`.z A g ^ j ( k _ : '.X ).).",
" +.+.+.+++@+#+$+L %+@.&+*+=+-+;+>+,+, '+~ i / ,.k k B l X ).6.).",
")+!+!+!+~+{+]+^+(.L /+(+_+:+<+[+}+|+1+2+B 3+4+k _ : l D ).6.6.6.",
"5+6+6+6+7+8+9++.(+(.a.0+a+b+c+d+e+f+g+h+i+j+k+l+m+n+D o+p+q+p+).",
"r+s+s+s+t+u+v+w+x+(.y+$+z+A+B+C+D+E+F+G+H+I+J+K+L+M+N+O+P+Q+q+D ",
"R+S+S+S+T+u+v++.U+V+@.<.W+X+Y+Z+`+ @.@+@@@#@$@%@&@*@=@-@;@>@,@'.",
"'@)@)@)@!@~@{@R.]@F.^@/@(@_@:@<@[@}@|@1@2@3@4@$@5@6@$@7@8@9@0@'.",
"a@b@b@b@c@d@e@f@r.g@h@i@j@k@l@m@n@o@p@q@r@s@t@u@v@w@%@x@y@z@A@l ",
"B@C@C@C@c@D@E.L c.E@F@G@H@I@J@K@L@M@N@O@P@Q@R@S@T@U@V@W@X@Y@D D ",
")@Z@Z@Z@`@ #.#+#@###$#%#&#*#=#-#N.;#Q &.>#,#'#)#!#~#{#]#^#/#C '.",
"(#_#_#_#:#<#[#}#|#1#2#3#4#5#6#7#8#9#0#a#_ k _ i b#c#d#b#5.i _ '.",
"e#f#f#f#:#g#/+h#i#j#k#l#>.Z.m#>+n#o#p#q#r#s#t#u#q+i v#w#4.W ( '.",
"x#y#y#y#z#A#B#C#D#E#F#G#H#I#J#K#L#M#N#N#N#N#N#O#P#Q#B R#R#5.,.).",
"S#s#s#s#T#U#V#W#X#Y#Z#`#1. $.$+$N#N#N#N#N#N#N#N#N#@$#$/ $$%$/ p+",
"&$*$=$-$;$>$,$'$)$!$~$M@{$]$N#N#N#N#N#N#^$/$($N#N#N#_$D :$z./ <$",
"[$}$|$1$2$3$_.4$X#5$6$7$8$9$N#N#N#N#N#@$0$a$b$c$N#N#d$).;.e$j f$",
"g$h$i$j$k$#.T.l$)$m$n$o$p$N#N#N#N#N#N#q$r$s$s$i N#N#N#t$>.%$( u#",
"u$v$w$x$!$W#T.y$z$A$B$C$N.D$N#N#N#N#N#!+E$s$F$#$N#N#N#G$V A.( t$",
"H$I$J$k$K$L$M$l$N$O$P$Q$R$S$N#N#N#N#N#N#/$f #$N#N#N#N#T$A 5._ U$",
"V$W$X$Y$Z$`$ %y$.%+%@%~$Q$b N#N#N#N#N#N#N#N#N#N#N#N##%6#A V _ T$",
"$%%%&%*%=%-%}#y$.%;%>%,%0$'%f$)%N#N#N#N#N#N#N#N#N#!%~%( W g : T$",
"{%]%f@D#=%^%/%y$D#(%R$_%:%<%'%W [%}%N#N#N#N#N#|%1%f$2%/ i 0#3%4%",
"5%6%(+7%8%9%0%t.D#a%b%_%)#c%d%e%f%f U$s#g%h%i%l : j%_ ^ Z.7#k%q$"};
