/* XPM */
static char * nrm_head_xpm[] = {
"32 32 396 2",
"  	c #C3C2C2",
". 	c #C0BFBF",
"+ 	c #B3B2B2",
"@ 	c #939494",
"# 	c #808484",
"$ 	c #7C8181",
"% 	c #7B7D7E",
"& 	c #7A7C7C",
"* 	c #7F8080",
"= 	c #A4A3A3",
"- 	c #BEBEBD",
"; 	c #BCBCBB",
"> 	c #A4A4A3",
", 	c #828787",
"' 	c #879192",
") 	c #8A9495",
"! 	c #828989",
"~ 	c #797F7F",
"{ 	c #747A7A",
"] 	c #6E7273",
"^ 	c #66696A",
"/ 	c #5B5E5E",
"( 	c #6B6C6B",
"_ 	c #A7A7A6",
": 	c #BBBBBA",
"< 	c #898C8B",
"[ 	c #9AA6A7",
"} 	c #959FA0",
"| 	c #757C7C",
"1 	c #666A6A",
"2 	c #5C5F5F",
"3 	c #575959",
"4 	c #555656",
"5 	c #545454",
"6 	c #535353",
"7 	c #525353",
"8 	c #4A4B4B",
"9 	c #969695",
"0 	c #BCBCBC",
"a 	c #B9B9B9",
"b 	c #8B8D8D",
"c 	c #A1AEAF",
"d 	c #8C9697",
"e 	c #606565",
"f 	c #505151",
"g 	c #4E4E4E",
"h 	c #575757",
"i 	c #5B5B5B",
"j 	c #5C5C5C",
"k 	c #585858",
"l 	c #4D4D4D",
"m 	c #969696",
"n 	c #B9B9B8",
"o 	c #A7A7A7",
"p 	c #8D9898",
"q 	c #818A8C",
"r 	c #545859",
"s 	c #444545",
"t 	c #414242",
"u 	c #494946",
"v 	c #9D962B",
"w 	c #DDD111",
"x 	c #FDEE01",
"y 	c #DFD313",
"z 	c #A8A136",
"A 	c #656562",
"B 	c #646464",
"C 	c #636363",
"D 	c #5E5E5E",
"E 	c #B1B1B0",
"F 	c #BBBABA",
"G 	c #B8B7B7",
"H 	c #848686",
"I 	c #7B8687",
"J 	c #4C5151",
"K 	c #3C3E3E",
"L 	c #393939",
"M 	c #444441",
"N 	c #D2C712",
"O 	c #FFF000",
"P 	c #DACF1A",
"Q 	c #6D6D6A",
"R 	c #696969",
"S 	c #656565",
"T 	c #5A5A5A",
"U 	c #727272",
"V 	c #BAB9B8",
"W 	c #B7B6B5",
"X 	c #828888",
"Y 	c #7E8889",
"Z 	c #494D4D",
"` 	c #373838",
" .	c #9E9723",
"..	c #B9B13E",
"+.	c #6D6D6D",
"@.	c #626262",
"#.	c #595858",
"$.	c #B8B8B8",
"%.	c #B5B5B4",
"&.	c #848C8D",
"*.	c #798182",
"=.	c #494C4C",
"-.	c #3A3A3A",
";.	c #3F3F3F",
">.	c #E7DA09",
",.	c #EFE211",
"'.	c #6F6F6F",
").	c #6A6A6A",
"!.	c #525252",
"~.	c #B8B8B7",
"{.	c #B4B4B3",
"].	c #797A79",
"^.	c #2D3131",
"/.	c #2D2E2E",
"(.	c #383838",
"_.	c #3D3D3D",
":.	c #444444",
"<.	c #FBEC02",
"[.	c #FCED03",
"}.	c #6E6E6E",
"|.	c #505050",
"1.	c #9B9B9B",
"2.	c #B7B7B6",
"3.	c #B3B3B2",
"4.	c #8F8F8F",
"5.	c #303535",
"6.	c #2E3131",
"7.	c #282727",
"8.	c #3B3B3B",
"9.	c #E8DB0A",
"0.	c #ECDF0E",
"a.	c #666666",
"b.	c #616161",
"c.	c #999998",
"d.	c #B6B4B5",
"e.	c #B2B0B1",
"f.	c #ACAAAB",
"g.	c #3F4343",
"h.	c #151616",
"i.	c #333333",
"j.	c #424242",
"k.	c #A8A024",
"l.	c #B5AD31",
"m.	c #4C4C4C",
"n.	c #A2A1A2",
"o.	c #B4B4B4",
"p.	c #B0B0B0",
"q.	c #BBBBBB",
"r.	c #AEAEAE",
"s.	c #181919",
"t.	c #2D2D2D",
"u.	c #414141",
"v.	c #505047",
"w.	c #D8CC12",
"x.	c #DED215",
"y.	c #686860",
"z.	c #5D5D5D",
"A.	c #555555",
"B.	c #B4B2B2",
"C.	c #B0AEAE",
"D.	c #B9BABA",
"E.	c #ABACAC",
"F.	c #1D1F1F",
"G.	c #2E2E2E",
"H.	c #4A4A4A",
"I.	c #535350",
"J.	c #A69F31",
"K.	c #E0D512",
"L.	c #DED20F",
"M.	c #ACA638",
"N.	c #62625F",
"O.	c #5B5C5C",
"P.	c #474747",
"Q.	c #878686",
"R.	c #B3B1B1",
"S.	c #AFADAD",
"T.	c #959393",
"U.	c #777C7D",
"V.	c #444748",
"W.	c #272929",
"X.	c #313131",
"Y.	c #515151",
"Z.	c #616060",
"`.	c #626363",
" +	c #323434",
".+	c #494949",
"++	c #585959",
"@+	c #575858",
"#+	c #B1B0B0",
"$+	c #ADACAC",
"%+	c #AAA9A9",
"&+	c #505252",
"*+	c #656E6E",
"=+	c #494F4F",
"-+	c #232323",
";+	c #343434",
">+	c #424343",
",+	c #606161",
"'+	c #242424",
")+	c #4F5050",
"!+	c #4B4C4C",
"~+	c #8D8D8D",
"{+	c #B0AFAF",
"]+	c #ACABAB",
"^+	c #676868",
"/+	c #242626",
"(+	c #5D6565",
"_+	c #2F3232",
":+	c #212121",
"<+	c #363737",
"[+	c #484848",
"}+	c #5F5F5F",
"|+	c #1E1E1F",
"1+	c #494A4A",
"2+	c #3D3C3C",
"3+	c #7F7F7F",
"4+	c #AEADAE",
"5+	c #AAA9AA",
"6+	c #858485",
"7+	c #171818",
"8+	c #1A1B1B",
"9+	c #4E5556",
"0+	c #232322",
"a+	c #353535",
"b+	c #565657",
"c+	c #131414",
"d+	c #5A5B5B",
"e+	c #868586",
"f+	c #ADACAD",
"g+	c #A9A8A9",
"h+	c #727172",
"i+	c #262526",
"j+	c #1F2020",
"k+	c #454B4B",
"l+	c #151515",
"m+	c #323232",
"n+	c #3E3E3E",
"o+	c #464747",
"p+	c #3C3C3C",
"q+	c #535454",
"r+	c #7E7E7E",
"s+	c #7A7A7A",
"t+	c #595959",
"u+	c #9D9C9D",
"v+	c #A8A7A7",
"w+	c #7C7C7C",
"x+	c #464C4D",
"y+	c #111111",
"z+	c #1E1F1F",
"A+	c #2F2F2F",
"B+	c #454646",
"C+	c #656666",
"D+	c #636464",
"E+	c #717171",
"F+	c #ABAAAA",
"G+	c #A7A6A6",
"H+	c #8A8A8A",
"I+	c #3D4242",
"J+	c #111212",
"K+	c #1E1E1E",
"L+	c #3B3C3C",
"M+	c #454545",
"N+	c #5E5F5F",
"O+	c #666667",
"P+	c #6D6E6E",
"Q+	c #A6A5A5",
"R+	c #858585",
"S+	c #424848",
"T+	c #303131",
"U+	c #3D3D3E",
"V+	c #515252",
"W+	c #68696A",
"X+	c #6A6B6B",
"Y+	c #A9A8A8",
"Z+	c #A5A4A4",
"`+	c #888787",
" @	c #393D3D",
".@	c #121212",
"+@	c #1D1D1D",
"@@	c #323333",
"#@	c #3F4040",
"$@	c #545555",
"%@	c #5F6161",
"&@	c #666768",
"*@	c #626464",
"=@	c #5D5E5E",
"-@	c #6C6D6D",
";@	c #757575",
">@	c #A3A3A3",
",@	c #8B8B8B",
"'@	c #3C4041",
")@	c #131515",
"!@	c #1B1B1B",
"~@	c #444546",
"{@	c #595B5B",
"]@	c #616363",
"^@	c #656767",
"/@	c #5B5C5D",
"(@	c #6E6F6F",
"_@	c #A7A5A6",
":@	c #A3A1A2",
"<@	c #929091",
"[@	c #3E4343",
"}@	c #4A4C4C",
"|@	c #525454",
"1@	c #535656",
"2@	c #555858",
"3@	c #565858",
"4@	c #515454",
"5@	c #6F7070",
"6@	c #7E7F7F",
"7@	c #A2A0A1",
"8@	c #A1A0A0",
"9@	c #9C9B9B",
"0@	c #363839",
"a@	c #262828",
"b@	c #363838",
"c@	c #3C3F40",
"d@	c #454848",
"e@	c #545656",
"f@	c #9A9999",
"g@	c #636667",
"h@	c #4E5050",
"i@	c #828383",
"j@	c #9D9C9C",
"k@	c #A4A3A4",
"l@	c #A09E9F",
"m@	c #424141",
"n@	c #5D5C5C",
"o@	c #6E6D6E",
"p@	c #818081",
"q@	c #969596",
"r@	c #505353",
"s@	c #6E6F70",
"t@	c #858686",
"u@	c #858384",
"v@	c #9F9E9E",
"w@	c #969595",
"x@	c #525656",
"y@	c #535556",
"z@	c #787A7A",
"A@	c #8D8F90",
"B@	c #797B7B",
"C@	c #A4A2A2",
"D@	c #9F9D9D",
"E@	c #7F7E7E",
"F@	c #80898A",
"G@	c #8C9596",
"H@	c #939B9B",
"I@	c #909697",
"J@	c #868A8B",
"K@	c #666868",
"L@	c #858383",
"M@	c #9E9C9C",
"N@	c #9C9B9C",
"O@	c #7C7D7E",
"P@	c #97A0A1",
"Q@	c #AAB5B6",
"R@	c #8F9798",
"S@	c #7B8080",
"T@	c #6A6D6D",
"U@	c #676869",
"V@	c #575758",
"W@	c #919091",
"X@	c #A19FA0",
"Y@	c #9C9A9B",
"Z@	c #7D8384",
"`@	c #AAB8B9",
" #	c #AAB6B6",
".#	c #7F8687",
"+#	c #6A6E6E",
"@#	c #5D5F5F",
"##	c #606060",
"$#	c #676767",
"%#	c #908E8F",
"&#	c #9F9E9F",
"*#	c #9B9A9B",
"=#	c #757879",
"-#	c #A0AEAF",
";#	c #97A3A4",
">#	c #7A8182",
",#	c #5E6162",
"'#	c #525251",
")#	c #6B6B6B",
"!#	c #6C6C6C",
"~#	c #A3A2A3",
"{#	c #949495",
"]#	c #879091",
"^#	c #848E8F",
"/#	c #6F7777",
"(#	c #585C5D",
"_#	c #4C4E4E",
":#	c #4B4B4B",
"<#	c #737373",
"[#	c #767676",
"}#	c #636263",
"  . . . . . . . . . . . + @ # $ % & * = . . . . . . . . . . .   ",
"- ; ; ; ; ; ; ; ; ; > , ' ) ! ~ { ] ^ / ( _ ; ; ; ; ; ; ; ; ; - ",
"- : : : : : : : : < [ } | 1 2 3 4 5 6 6 7 8 9 : : : : : : : : - ",
"0 a a a a a a a b c d e f 8 8 g 6 h i j i k l m a a a a a a a 0 ",
"; n n n n n n o p q r s t u v w x y z A B C D 5 E n n n n n n ; ",
"F G G G G G G H I J K L M N O O O O O P Q R S T U G G G G G G F ",
"V W W W W W W X Y Z ` L  .O O O O O O O ..+.R @.#.W W W W W W V ",
"$.%.%.%.%.%.> &.*.=.-.;.>.O O O O O O O ,.'.).B !._ %.%.%.%.%.$.",
"~.{.{.{.{.{.].^./.(._.:.<.O O O O O O O [.}.R B |.1.{.{.{.{.{.~.",
"2.3.3.3.3.3.4.5.6.7.8.:.9.O O O O O O O 0.R a.b.l c.3.3.3.3.3.2.",
"d.e.e.e.e.e.f.% g.h.i.j.k.O O O O O O O l.S C j m.n.e.e.e.e.e.d.",
"o.p.p.p.p.p.p.q.r.s.t.u.v.w.O O O O O x.y.b.z.A.j p.p.p.p.p.p.o.",
"B.C.C.C.C.C.C.D.E.F.G.u.H.I.J.K.O L.M.N.D O.h P.Q.C.C.C.C.C.C.B.",
"R.S.S.S.S.S.T.U.V.W.X.j.H.Y.Z.`. +.+S ++@+5 g !.S.S.S.S.S.S.S.R.",
"#+$+$+$+$+%+&+*+=+-+;+>+H.Y.b.,+'+;.++f )+!+;.~+$+$+$+$+$+$+$+#+",
"{+]+]+]+]+^+/+(+_+:+<+u.[+|.}+j |+-.1+>+_.2+3+]+]+]+]+]+]+]+]+{+",
"4+5+5+5+6+7+8+9+F.0+a+;.P.|.}+b+c+;+d+D g e+5+5+5+5+5+5+5+5+5+4+",
"f+g+g+g+h+i+j+k+l+:+m+n+o+|.}+@+p+q+r+s+t+u+g+g+g+g+g+g+g+g+g+f+",
"]+v+v+v+v+v+w+x+y+z+A+p+B+|.D C+D+}+E+E+k v+v+v+v+v+v+v+v+v+v+]+",
"F+G+G+G+G+G+H+I+J+K+A+L+M+Y.N+O+`.D R P+D G+G+G+G+G+G+G+G+G+G+F+",
"%+Q+Q+Q+Q+Q+R+S+7+K+T+U+o+V+N+W+D+N+X+E+i Q+Q+Q+Q+Q+Q+Q+Q+Q+Q+%+",
"Y+Z+Z+Z+Z+Z+`+ @.@+@@@#@H.$@%@&@*@=@-@;@T Z+Z+Z+Z+Z+Z+Z+Z+Z+Z+Y+",
"o >@>@>@>@>@,@'@)@!@i.~@7 {@]@^@/@7 (@s+t+>@>@>@>@>@>@>@>@>@>@o ",
"_@:@:@:@:@:@<@[@J+K+<+}@|@1@2@3@4@8 5@6@i 7@:@:@:@:@:@:@:@:@:@_@",
"Z+8@8@8@8@8@9@0@y+a@b@c@d@e@U f@g@h@-@i@i j@8@8@8@8@8@8@8@8@8@Z+",
"k@l@l@l@l@l@l@Z.m@n@o@p@q@l@l@l@g@r@s@t@@.u@l@l@l@l@l@l@l@l@l@k@",
"= v@v@v@v@v@v@v@v@v@v@v@v@v@v@w@x@y@z@A@B@C v@v@v@v@v@v@v@v@v@= ",
"C@D@D@D@D@D@D@D@D@D@D@D@D@D@D@E@F@G@H@I@J@K@L@M@D@D@D@D@D@D@D@C@",
"n.u+u+u+u+u+u+u+u+u+u+u+u+N@O@P@Q@R@S@T@^@U@=@V@W@u+u+u+u+u+u+n.",
"X@Y@Y@Y@Y@Y@Y@Y@Y@Y@Y@Y@<@Z@`@ #.#+#@#t+##S $#B 6 %#Y@Y@Y@Y@Y@X@",
"&#*#*#*#*#*#*#*#*#*#*#*#=#-#;#>#,#7 '#D a.)#!#).@.Y.H+*#*#*#*#&#",
"~#&#&#&#&#&#&#&#&#&#&#{#]#^#/#(#_#:#k S <#[#E+'.).##}#&#&#&#&#~#"};
