/* XPM */
static char * nrm_lffkshldr_xpm[] = {
"32 32 220 2",
"  	c #C3C2C2",
". 	c #C0BFBF",
"+ 	c #BEBEBD",
"@ 	c #BCBCBB",
"# 	c #BBBBBA",
"$ 	c #BCBCBC",
"% 	c #B9B9B9",
"& 	c #949494",
"* 	c #000000",
"= 	c #3E3E3E",
"- 	c #0C0C0C",
"; 	c #888888",
"> 	c #B9B9B8",
", 	c #888887",
"' 	c #ADADAC",
") 	c #565656",
"! 	c #BBBABA",
"~ 	c #B8B7B7",
"{ 	c #878686",
"] 	c #252525",
"^ 	c #4A4949",
"/ 	c #BAB9B8",
"( 	c #B7B6B5",
"_ 	c #868585",
": 	c #626161",
"< 	c #555554",
"[ 	c #B8B8B8",
"} 	c #B5B5B4",
"| 	c #858584",
"1 	c #B8B8B7",
"2 	c #B4B4B3",
"3 	c #848483",
"4 	c #545454",
"5 	c #181818",
"6 	c #A8A8A7",
"7 	c #B7B7B6",
"8 	c #B3B3B2",
"9 	c #8F8F8E",
"0 	c #A7A7A6",
"a 	c #242424",
"b 	c #5F5F5F",
"c 	c #B6B4B5",
"d 	c #B2B0B1",
"e 	c #B4B4B4",
"f 	c #B0B0B0",
"g 	c #B4B2B2",
"h 	c #B0AEAE",
"i 	c #B3B1B1",
"j 	c #AFADAD",
"k 	c #A9ACA9",
"l 	c #9AA99E",
"m 	c #8EA995",
"n 	c #B1B0B0",
"o 	c #ADACAC",
"p 	c #6A9C79",
"q 	c #1F873E",
"r 	c #178A3B",
"s 	c #19923E",
"t 	c #1A9D42",
"u 	c #4EA669",
"v 	c #4DA568",
"w 	c #4DA668",
"x 	c #4DA769",
"y 	c #4DA669",
"z 	c #52A56B",
"A 	c #5EA373",
"B 	c #5EA272",
"C 	c #5EA372",
"D 	c #5DA272",
"E 	c #5DA372",
"F 	c #59A36F",
"G 	c #44AA64",
"H 	c #59A771",
"I 	c #9FA9A1",
"J 	c #80A38A",
"K 	c #269749",
"L 	c #19933E",
"M 	c #19923D",
"N 	c #18913D",
"O 	c #178C3B",
"P 	c #1DAE4A",
"Q 	c #1DAF4A",
"R 	c #1DB44C",
"S 	c #1EB54D",
"T 	c #1EB54C",
"U 	c #1EB64D",
"V 	c #40C041",
"W 	c #4AC23C",
"X 	c #4AC13C",
"Y 	c #4ABF3B",
"Z 	c #1CAC49",
"` 	c #1CA948",
" .	c #1CA947",
"..	c #1CAB49",
"+.	c #1DAC49",
"@.	c #22D559",
"#.	c #1FBB50",
"$.	c #199640",
"%.	c #1BA044",
"&.	c #199840",
"*.	c #19963F",
"=.	c #188F3C",
"-.	c #1C923C",
";.	c #57AB2B",
">.	c #95C81A",
",.	c #CBE40D",
"'.	c #E1EF07",
").	c #FFFF00",
"!.	c #ECF404",
"~.	c #D0E50B",
"{.	c #A7CE14",
"].	c #62A723",
"^.	c #268430",
"/.	c #157933",
"(.	c #147632",
"_.	c #137431",
":.	c #168137",
"<.	c #1BA445",
"[.	c #1A9640",
"}.	c #19953E",
"|.	c #1A9840",
"1.	c #1A9941",
"2.	c #1A9B41",
"3.	c #1B9F43",
"4.	c #D6EB0B",
"5.	c #F1F703",
"6.	c #409029",
"7.	c #137230",
"8.	c #13702F",
"9.	c #105A26",
"0.	c #1B9D42",
"a.	c #1CA445",
"b.	c #81BA1E",
"c.	c #D8EA09",
"d.	c #A3C612",
"e.	c #23752A",
"f.	c #12682C",
"g.	c #11652A",
"h.	c #0E4F21",
"i.	c #116029",
"j.	c #17893A",
"k.	c #188C3B",
"l.	c #126C2E",
"m.	c #2A7426",
"n.	c #5C921B",
"o.	c #709F18",
"p.	c #9FBF10",
"q.	c #A5C20F",
"r.	c #CFDE08",
"s.	c #CFDF08",
"t.	c #B0C90D",
"u.	c #9FBD0F",
"v.	c #7DA515",
"w.	c #699718",
"x.	c #3A771F",
"y.	c #105E28",
"z.	c #105F28",
"A.	c #105C27",
"B.	c #0B411B",
"C.	c #0C441E",
"D.	c #126D2E",
"E.	c #157C34",
"F.	c #178839",
"G.	c #168037",
"H.	c #0D4F23",
"I.	c #0C4C20",
"J.	c #0D491F",
"K.	c #0E4E21",
"L.	c #0E4D21",
"M.	c #0D4D20",
"N.	c #0D4B20",
"O.	c #0D4C20",
"P.	c #0E4C20",
"Q.	c #0D4A1F",
"R.	c #0E5022",
"S.	c #0C481F",
"T.	c #0B451E",
"U.	c #0C441D",
"V.	c #2E8348",
"W.	c #177734",
"X.	c #13692D",
"Y.	c #168237",
"Z.	c #157E35",
"`.	c #147933",
" +	c #749E81",
".+	c #719B7D",
"++	c #789D83",
"@+	c #869F8D",
"#+	c #859E8D",
"$+	c #87A08F",
"%+	c #769C81",
"&+	c #719B7E",
"*+	c #6E9B7C",
"=+	c #879F8E",
"-+	c #A3A3A3",
";+	c #308B4C",
">+	c #12692D",
",+	c #0F5725",
"'+	c #A7A5A6",
")+	c #A3A1A2",
"!+	c #819D89",
"~+	c #4D9362",
"{+	c #3E8D56",
"]+	c #2F8649",
"^+	c #207C3C",
"/+	c #A5A4A4",
"(+	c #A1A0A0",
"_+	c #A4A3A4",
":+	c #A09E9F",
"<+	c #A4A3A3",
"[+	c #9F9E9E",
"}+	c #A4A2A2",
"|+	c #9F9D9D",
"1+	c #A2A1A2",
"2+	c #9D9C9D",
"3+	c #A19FA0",
"4+	c #9C9A9B",
"5+	c #9F9E9F",
"6+	c #9B9A9B",
"7+	c #A3A2A3",
"  . . . . . . . . . . . . . . . . . . . . . . . . . . . . . .   ",
"+ @ @ @ @ @ @ @ @ @ @ @ @ @ @ @ @ @ @ @ @ @ @ @ @ @ @ @ @ @ @ + ",
"+ # # # # # # # # # # # # # # # # # # # # # # # # # # # # # # + ",
"$ % % % % % % % % % % % % % % % % % % & * * * = & - % & - ; % $ ",
"@ > > > > > > > > > > > > > > > > > > , * > > > , * ' - ) > > @ ",
"! ~ ~ ~ ~ ~ ~ ~ ~ ~ ~ ~ ~ ~ ~ ~ ~ ~ ~ { * ~ ~ ~ { * ] ^ ~ ~ ~ ! ",
"/ ( ( ( ( ( ( ( ( ( ( ( ( ( ( ( ( ( ( _ * * * : _ * * < ( ( ( / ",
"[ } } } } } } } } } } } } } } } } } } | * } } } | * | * | } } [ ",
"1 2 2 2 2 2 2 2 2 2 2 2 2 2 2 2 2 2 2 3 * 2 2 2 3 * 2 4 5 6 2 1 ",
"7 8 8 8 8 8 8 8 8 8 8 8 8 8 8 8 8 8 8 9 - 8 8 8 9 - 8 0 a b 8 7 ",
"c d d d d d d d d d d d d d d d d d d d d d d d d d d d d d d c ",
"e f f f f f f f f f f f f f f f f f f f f f f f f f f f f f f e ",
"g h h h h h h h h h h h h h h h h h h h h h h h h h h h h h h g ",
"i j j j j j j j j j j j j j j j j j j j j j j j j j j j j k l m ",
"n o o o o o o o o o o o o o o o o o o o o o o o o o o p q r s t ",
"u v w x y x z A B B B B C D D E D F y w w w v G H I J K L M N O ",
"P Q R S T U V W X X X X X Y Y P Z ` Z  . ...+.Q @.#.$.%.&.*.L =.",
"-.;.>.,.'.).).).).).).).).).).).!.~.{.].^./.(._.:.<.[.}.|.1.2.3.",
"4.).).).).).).).).).).).).).).).).).).).5.6.7.8.9.7.0.}.|.|.0.a.",
"b.c.).).).).).).).).).).).).).).).).).5.d.e.f.g.h.i.j.k.M N M =.",
"l.f.m.n.o.p.q.r.r.s.s.r.r.r.t.u.v.w.x.y.z.i.i.A.B.C.D.E.k.O F.G.",
"H.I.J.K.L.M.M.M.N.M.M.M.N.N.O.P.Q.N.N.K.R.S.T.U.h.V.W.X.Y.Z.`.7.",
" +.+++@+#+#+@+#+#+#+#+#+#+#+#+$+#+#+#+@+#+%+&+*+=+-+-+;+>+g.z.,+",
"'+)+)+)+)+)+)+)+)+)+)+)+)+)+)+)+)+)+)+)+)+)+)+)+)+)+)+!+~+{+]+^+",
"/+(+(+(+(+(+(+(+(+(+(+(+(+(+(+(+(+(+(+(+(+(+(+(+(+(+(+(+(+(+(+/+",
"_+:+:+:+:+:+:+:+:+:+:+:+:+:+:+:+:+:+:+:+:+:+:+:+:+:+:+:+:+:+:+_+",
"<+[+[+[+[+[+[+[+[+[+[+[+[+[+[+[+[+[+[+[+[+[+[+[+[+[+[+[+[+[+[+<+",
"}+|+|+|+|+|+|+|+|+|+|+|+|+|+|+|+|+|+|+|+|+|+|+|+|+|+|+|+|+|+|+}+",
"1+2+2+2+2+2+2+2+2+2+2+2+2+2+2+2+2+2+2+2+2+2+2+2+2+2+2+2+2+2+2+1+",
"3+4+4+4+4+4+4+4+4+4+4+4+4+4+4+4+4+4+4+4+4+4+4+4+4+4+4+4+4+4+4+3+",
"5+6+6+6+6+6+6+6+6+6+6+6+6+6+6+6+6+6+6+6+6+6+6+6+6+6+6+6+6+6+6+5+",
"7+5+5+5+5+5+5+5+5+5+5+5+5+5+5+5+5+5+5+5+5+5+5+5+5+5+5+5+5+5+5+7+"};
