/* XPM */
static char * nrm_tng_Reset_xpm[] = {
"32 32 556 2",
"  	c #C3C2C2",
". 	c #C0BFBF",
"+ 	c #B8B8B8",
"@ 	c #A0A2A4",
"# 	c #8F9497",
"$ 	c #949A9C",
"% 	c #9B9FA2",
"& 	c #848788",
"* 	c #77797B",
"= 	c #818385",
"- 	c #878B8D",
"; 	c #8E9293",
"> 	c #94989A",
", 	c #979B9D",
"' 	c #9B9EA0",
") 	c #9CA0A3",
"! 	c #A2A6A7",
"~ 	c #BEBEBD",
"{ 	c #BCBCBB",
"] 	c #B4B5B4",
"^ 	c #9B9E9F",
"/ 	c #757879",
"( 	c #65686A",
"_ 	c #65696B",
": 	c #6D7173",
"< 	c #777C7E",
"[ 	c #7F8487",
"} 	c #868B8F",
"| 	c #8B9093",
"1 	c #8E9396",
"2 	c #919699",
"3 	c #959B9D",
"4 	c #BBBBBA",
"5 	c #B3B4B3",
"6 	c #7C7B79",
"7 	c #646768",
"8 	c #676C6E",
"9 	c #6D7274",
"0 	c #767B7D",
"a 	c #808588",
"b 	c #878C8F",
"c 	c #909699",
"d 	c #979C9F",
"e 	c #BCBCBC",
"f 	c #B9B9B9",
"g 	c #A0A0A0",
"h 	c #0C0C0C",
"i 	c #000000",
"j 	c #191919",
"k 	c #949494",
"l 	c #3E3E3E",
"m 	c #1C1C1D",
"n 	c #09090A",
"o 	c #8B9194",
"p 	c #8E9497",
"q 	c #969C9F",
"r 	c #B9B9B8",
"s 	c #888887",
"t 	c #636362",
"u 	c #A1A19D",
"v 	c #71706B",
"w 	c #6B6D6C",
"x 	c #6C6F71",
"y 	c #545758",
"z 	c #808688",
"A 	c #868C8E",
"B 	c #8B9193",
"C 	c #8F9597",
"D 	c #919799",
"E 	c #BBBABA",
"F 	c #B8B7B7",
"G 	c #878686",
"H 	c #7B7A7A",
"I 	c #191818",
"J 	c #4A4949",
"K 	c #908F8A",
"L 	c #72716D",
"M 	c #6E6F6E",
"N 	c #707274",
"O 	c #56595A",
"P 	c #82888A",
"Q 	c #8C9194",
"R 	c #8F9598",
"S 	c #92979A",
"T 	c #969C9E",
"U 	c #BAB9B8",
"V 	c #B7B6B5",
"W 	c #868585",
"X 	c #626161",
"Y 	c #929291",
"Z 	c #181818",
"` 	c #3C3C3C",
" .	c #747777",
"..	c #595C5D",
"+.	c #84898B",
"@.	c #878D8F",
"#.	c #8C9294",
"$.	c #909698",
"%.	c #92989A",
"&.	c #B5B5B4",
"*.	c #858584",
"=.	c #303030",
"-.	c #484848",
";.	c #919190",
">.	c #848483",
",.	c #6E6F6F",
"'.	c #747474",
").	c #757678",
"!.	c #797C7D",
"~.	c #5C5F5F",
"{.	c #868A8C",
"].	c #898F91",
"^.	c #8C9395",
"/.	c #B8B8B7",
"(.	c #B4B4B3",
"_.	c #6C6C6B",
":.	c #90908F",
"<.	c #9C9C9B",
"[.	c #838383",
"}.	c #727376",
"|.	c #777779",
"1.	c #7F8082",
"2.	c #7E8183",
"3.	c #5D6162",
"4.	c #888C8E",
"5.	c #929899",
"6.	c #969C9D",
"7.	c #B7B7B6",
"8.	c #B3B3B2",
"9.	c #8F8F8E",
"0.	c #9B9B9A",
"a.	c #3C3C3B",
"b.	c #30302F",
"c.	c #6B6B6B",
"d.	c #2C2D2E",
"e.	c #838788",
"f.	c #696B6D",
"g.	c #090909",
"h.	c #898E90",
"i.	c #8C9093",
"j.	c #8F9496",
"k.	c #969B9D",
"l.	c #B6B4B5",
"m.	c #B2B0B1",
"n.	c #929092",
"o.	c #788687",
"p.	c #858B8D",
"q.	c #86898B",
"r.	c #878B8E",
"s.	c #909597",
"t.	c #93989B",
"u.	c #979C9E",
"v.	c #B4B4B4",
"w.	c #B0B0B0",
"x.	c #B4ADAD",
"y.	c #C4A09F",
"z.	c #C18C8B",
"A.	c #8A7274",
"B.	c #6E8387",
"C.	c #858D90",
"D.	c #888D90",
"E.	c #909498",
"F.	c #B4B2B2",
"G.	c #B0AEAE",
"H.	c #BFA0A0",
"I.	c #D49291",
"J.	c #E17C7C",
"K.	c #E3696C",
"L.	c #EF5D60",
"M.	c #D66264",
"N.	c #907778",
"O.	c #71878A",
"P.	c #818C8F",
"Q.	c #898D90",
"R.	c #909598",
"S.	c #93999B",
"T.	c #B3B1B1",
"U.	c #AFADAD",
"V.	c #C59A99",
"W.	c #DC8887",
"X.	c #E16C6C",
"Y.	c #DF5A5E",
"Z.	c #E25D60",
"`.	c #E96264",
" +	c #F46A69",
".+	c #FF706E",
"++	c #E86968",
"@+	c #A06567",
"#+	c #787B7E",
"$+	c #858E90",
"%+	c #B1B0B0",
"&+	c #ADACAC",
"*+	c #BD9395",
"=+	c #D97C7D",
"-+	c #DD6262",
";+	c #D95055",
">+	c #E3595D",
",+	c #EC6164",
"'+	c #F46B6A",
")+	c #F06967",
"!+	c #E56061",
"~+	c #D24F54",
"{+	c #C33944",
"]+	c #AE2533",
"^+	c #7E525B",
"/+	c #7F8A8D",
"(+	c #8C9295",
"_+	c #8F9396",
":+	c #B0AFAF",
"<+	c #ACABAB",
"[+	c #B29B9C",
"}+	c #CD7577",
"|+	c #D6585C",
"1+	c #D0474E",
"2+	c #DA4F55",
"3+	c #EB5D5E",
"4+	c #EE6363",
"5+	c #DE585A",
"6+	c #CD4A4F",
"7+	c #BB3A45",
"8+	c #AA2D3B",
"9+	c #A02335",
"0+	c #A3263A",
"a+	c #BB2C43",
"b+	c #9F4B5A",
"c+	c #7A7E81",
"d+	c #879195",
"e+	c #91979A",
"f+	c #AEADAE",
"g+	c #AAA9AA",
"h+	c #B98184",
"i+	c #CC555A",
"j+	c #C73F47",
"k+	c #D4464D",
"l+	c #DF5055",
"m+	c #DD5356",
"n+	c #BF3D44",
"o+	c #A92A36",
"p+	c #9F2232",
"q+	c #9D2132",
"r+	c #A5273A",
"s+	c #B13347",
"t+	c #C14359",
"u+	c #D55A6E",
"v+	c #F76F86",
"w+	c #C8717F",
"x+	c #7D7D81",
"y+	c #858F91",
"z+	c #ADACAD",
"A+	c #A9A8A9",
"B+	c #AA9D9F",
"C+	c #BB6268",
"D+	c #C44249",
"E+	c #C53B43",
"F+	c #CF4349",
"G+	c #CF484D",
"H+	c #B6363F",
"I+	c #9C202E",
"J+	c #901527",
"K+	c #971B2F",
"L+	c #A62A3E",
"M+	c #B93C50",
"N+	c #D15468",
"O+	c #E86B7F",
"P+	c #F6798D",
"Q+	c #FD7E93",
"R+	c #FF7188",
"S+	c #BC6F7B",
"T+	c #808486",
"U+	c #879093",
"V+	c #8F9498",
"W+	c #92989B",
"X+	c #A8A7A7",
"Y+	c #A88D8F",
"Z+	c #B1474F",
"`+	c #BB373F",
" @	c #C43941",
".@	c #C13A42",
"+@	c #B0313A",
"@@	c #991F2D",
"#@	c #8E1528",
"$@	c #951C30",
"%@	c #A92E41",
"&@	c #BF4357",
"*@	c #D75B6E",
"=@	c #EC6D81",
"-@	c #F57488",
";@	c #F26E83",
">@	c #E46176",
",@	c #D84A63",
"'@	c #B95060",
")@	c #87797C",
"!@	c #808A8B",
"~@	c #8A9092",
"{@	c #8E9498",
"]@	c #959A9D",
"^@	c #ABAAAA",
"/@	c #A7A6A6",
"(@	c #A38488",
"_@	c #A4343F",
":@	c #AE2934",
"<@	c #B12C37",
"[@	c #A62933",
"}@	c #951D2B",
"|@	c #8A1325",
"1@	c #92192C",
"2@	c #A52B3E",
"3@	c #BB4054",
"4@	c #D4576B",
"5@	c #E8687C",
"6@	c #ED6A7E",
"7@	c #E45E74",
"8@	c #D34E64",
"9@	c #C4445A",
"0@	c #BA3A53",
"a@	c #A94456",
"b@	c #8B7677",
"c@	c #859191",
"d@	c #8B9295",
"e@	c #8E9496",
"f@	c #AAA9A9",
"g@	c #A6A5A5",
"h@	c #9F8386",
"i@	c #982C39",
"j@	c #9E1E2B",
"k@	c #9B1E2A",
"l@	c #8A1523",
"m@	c #840F1F",
"n@	c #8A1326",
"o@	c #9A2336",
"p@	c #B03649",
"q@	c #C94C5F",
"r@	c #DD5D71",
"s@	c #E45F74",
"t@	c #DB546A",
"u@	c #CC495F",
"v@	c #BD4158",
"w@	c #B03F54",
"x@	c #9E384C",
"y@	c #88263A",
"z@	c #7F565C",
"A@	c #899190",
"B@	c #90989A",
"C@	c #A9A8A8",
"D@	c #A5A4A4",
"E@	c #A09092",
"F@	c #8C2B38",
"G@	c #8C1121",
"H@	c #86111F",
"I@	c #760718",
"J@	c #78081A",
"K@	c #8B1527",
"L@	c #A1293C",
"M@	c #BC3E52",
"N@	c #D14F63",
"O@	c #DA5469",
"P@	c #D54E65",
"Q@	c #C8465C",
"R@	c #B94158",
"S@	c #A73C51",
"T@	c #8C3042",
"U@	c #722031",
"V@	c #5E0D1A",
"W@	c #591C24",
"X@	c #777072",
"Y@	c #8E999B",
"Z@	c #94999C",
"`@	c #A7A7A7",
" #	c #A3A3A3",
".#	c #A19E9E",
"+#	c #843A45",
"@#	c #7A0716",
"##	c #740717",
"$#	c #6D0212",
"%#	c #77071A",
"&#	c #8D182A",
"*#	c #A62A3D",
"=#	c #BE3C50",
"-#	c #CF475C",
";#	c #D14960",
">#	c #C8455D",
",#	c #B9445A",
"'#	c #9F3A4E",
")#	c #7E2738",
"!#	c #651A27",
"~#	c #581420",
"{#	c #67373A",
"]#	c #877274",
"^#	c #827578",
"/#	c #848D8D",
"(#	c #8E9699",
"_#	c #8E9598",
":#	c #8F9699",
"<#	c #90979A",
"[#	c #93999C",
"}#	c #A7A5A6",
"|#	c #A3A1A2",
"1#	c #8D6268",
"2#	c #700A19",
"3#	c #670010",
"4#	c #750616",
"5#	c #8C1527",
"6#	c #A52439",
"7#	c #BB3249",
"8#	c #C83F55",
"9#	c #C9455D",
"0#	c #BE485F",
"a#	c #A03B4F",
"b#	c #782535",
"c#	c #5E1724",
"d#	c #5D252E",
"e#	c #7A585D",
"f#	c #95888A",
"g#	c #858B8C",
"h#	c #81888B",
"i#	c #8B9396",
"j#	c #8D9396",
"k#	c #A1A0A0",
"l#	c #9D9596",
"m#	c #752833",
"n#	c #61000F",
"o#	c #64000F",
"p#	c #720213",
"q#	c #890D21",
"r#	c #A01B2F",
"s#	c #B52C43",
"t#	c #C63F57",
"u#	c #C74B63",
"v#	c #A84257",
"w#	c #7A2738",
"x#	c #5D1C27",
"y#	c #663B41",
"z#	c #887476",
"A#	c #9F9D9D",
"B#	c #9A9B9B",
"C#	c #767A7B",
"D#	c #7A8184",
"E#	c #858C90",
"F#	c #878F92",
"G#	c #888F92",
"H#	c #899093",
"I#	c #8C9396",
"J#	c #8D9497",
"K#	c #A4A3A4",
"L#	c #A09E9F",
"M#	c #855A61",
"N#	c #5E0513",
"O#	c #62000F",
"P#	c #700012",
"Q#	c #820519",
"R#	c #971127",
"S#	c #B62D44",
"T#	c #CB4B64",
"U#	c #BC4F66",
"V#	c #892F41",
"W#	c #60202B",
"X#	c #6E484D",
"Y#	c #8C7C7E",
"Z#	c #908F90",
"`#	c #6D7074",
" $	c #737B7E",
".$	c #7D8589",
"+$	c #80888C",
"@$	c #828B8E",
"#$	c #8A9194",
"$$	c #A4A3A3",
"%$	c #9F9E9E",
"&$	c #6C2E38",
"*$	c #5F000F",
"=$	c #6E0011",
"-$	c #7A0012",
";$	c #920A21",
">$	c #BA324A",
",$	c #CE566E",
"'$	c #A7465A",
")$	c #6C2835",
"!$	c #673F43",
"~$	c #8B7D7E",
"{$	c #808182",
"]$	c #5F6669",
"^$	c #6B7377",
"/$	c #747C80",
"($	c #7A8286",
"_$	c #7E868A",
":$	c #868E91",
"<$	c #A4A2A2",
"[$	c #5F101D",
"}$	c #690010",
"|$	c #75000E",
"1$	c #8F091E",
"2$	c #C03B53",
"3$	c #CA5971",
"4$	c #8B394A",
"5$	c #65343C",
"6$	c #847373",
"7$	c #888888",
"8$	c #697072",
"9$	c #666F73",
"0$	c #727A7E",
"a$	c #798185",
"b$	c #7F878B",
"c$	c #838B8F",
"d$	c #A2A1A2",
"e$	c #9D9C9D",
"f$	c #72000D",
"g$	c #911023",
"h$	c #C3435C",
"i$	c #BB5369",
"j$	c #773743",
"k$	c #795E61",
"l$	c #9A9698",
"m$	c #909092",
"n$	c #70767A",
"o$	c #636C70",
"p$	c #6A7376",
"q$	c #737C7F",
"r$	c #7B8386",
"s$	c #80888B",
"t$	c #848C8F",
"u$	c #878D90",
"v$	c #A19FA0",
"w$	c #9C9A9B",
"x$	c #62000D",
"y$	c #8A1023",
"z$	c #B73F58",
"A$	c #A4475B",
"B$	c #71434B",
"C$	c #877B7C",
"D$	c #919193",
"E$	c #6E7376",
"F$	c #656E71",
"G$	c #6E787A",
"H$	c #778083",
"I$	c #818A8D",
"J$	c #9F9E9F",
"K$	c #9B9A9B",
"L$	c #72343E",
"M$	c #882D3E",
"N$	c #874854",
"O$	c #82656A",
"P$	c #979395",
"Q$	c #686F72",
"R$	c #6B7376",
"S$	c #7A8285",
"T$	c #80878A",
"U$	c #838B8E",
"V$	c #898F92",
"W$	c #A3A2A3",
"X$	c #999092",
"Y$	c #947E83",
"Z$	c #989092",
"`$	c #797E80",
" %	c #70777A",
".%	c #787F82",
"+%	c #7E8588",
"@%	c #828A8D",
"  . . . . . . . . . . . . . . . . + @ # $ % & * = - ; > , ' ) ! ",
"~ { { { { { { { { { { { { { { { { { { ] ^ / ( _ : < [ } | 1 2 3 ",
"~ 4 4 4 4 4 4 4 4 4 4 4 4 4 4 4 4 4 4 4 5 6 7 8 9 0 a b | 1 c d ",
"e f f g h i j k k i i i l k j i h f k i i i m i i i i n o p c q ",
"{ r r s i r t h s i r r r j t r s r s i u v w x y i z A B C D q ",
"E F F G i F H h G i F F F I J F F F G i K L M N O i P A Q R S T ",
"U V V W i i i W W i i i X Y Z i X V W i i i `  ...i +.@.#.$.%.T ",
"+ &.&.*.i &.=.-.*.i &.&.&.&.&.;.i ;.>.i ,.'.).!.~.i {.].^.$.%.T ",
"/.(.(.>.i (._.Z >.i (.(.(._.(.:.i <.[.i }.|.1.2.3.i 4.| p $.5.6.",
"7.8.8.9.h 8.0.h 9.i i i a.b.i h c.8.9.i i i d.e.f.g.h.i.j.$.%.k.",
"l.m.m.m.m.m.m.m.m.m.m.m.m.m.m.m.m.m.m.m.m.n.o.p.q.r.h.Q s.D t.u.",
"v.w.w.w.w.w.w.w.w.w.w.w.w.w.w.w.w.w.w.x.y.z.A.B.C.4.D.Q E.S t.u.",
"F.G.G.G.G.G.G.G.G.G.G.G.G.G.G.G.G.H.I.J.K.L.M.N.O.P.Q.Q R.S S.u.",
"T.U.U.U.U.U.U.U.U.U.U.U.U.U.U.V.W.X.Y.Z.`. +.+++@+#+$+#.# S S.u.",
"%+&+&+&+&+&+&+&+&+&+&+&+&+*+=+-+;+>+,+'+)+!+~+{+]+^+/+(+_+%.S.T ",
":+<+<+<+<+<+<+<+<+<+<+[+}+|+1+2+3+4+5+6+7+8+9+0+a+b+c+d+p e+S.T ",
"f+g+g+g+g+g+g+g+g+g+h+i+j+k+l+m+n+o+p+q+r+s+t+u+v+w+x+y+p e+S.3 ",
"z+A+A+A+A+A+A+A+B+C+D+E+F+G+H+I+J+K+L+M+N+O+P+Q+R+S+T+U+V+D W+3 ",
"<+X+X+X+X+X+X+Y+Z+`+ @.@+@@@#@$@%@&@*@=@-@;@>@,@'@)@!@~@{@D W+]@",
"^@/@/@/@/@/@(@_@:@<@[@}@|@1@2@3@4@5@6@7@8@9@0@a@b@c@d@e@R c W+]@",
"f@g@g@g@g@h@i@j@k@l@m@n@o@p@q@r@s@t@u@v@w@x@y@z@A@B@s.p R.e+W+]@",
"C@D@D@D@E@F@G@H@I@J@K@L@M@N@O@P@Q@R@S@T@U@V@W@X@Y@c R R c e+e+Z@",
"`@ # #.#+#@###$#%#&#*#=#-#;#>#,#'#)#!#~#{#]#^#/#(#_#{@R :#c <#[#",
"}#|#|#1#2#3#3#4#5#6#7#8#9#0#a#b#c#d#e#f#|#|#g#h#d@i#(+j#_#:#:#t.",
"D@k#l#m#n#o#p#q#r#s#t#u#v#w#x#y#z#A#k#k#k#B#C#D#E#F#G#H#I#J#_#W+",
"K#L#M#N#O#P#Q#R#S#T#U#V#W#X#Y#L#L#L#L#L#L#Z#`# $.$+$@$C.H##$I#c ",
"$$%$&$*$=$-$;$>$,$'$)$!$~$%$%$%$%$%$%$%$%${$]$^$/$($_$@$:$G##$p ",
"<$A#[$}$|$1$2$3$4$5$6$A#A#A#A#A#A#A#A#A#A#7$8$9$^$0$a$b$c$:$G#j#",
"d$e$*$f$g$h$i$j$k$l$e$e$e$e$e$e$e$e$e$e$e$e$m$n$o$p$q$r$s$t$u$(+",
"v$w$x$y$z$A$B$C$w$w$w$w$w$w$w$w$w$w$w$w$w$w$w$D$E$F$G$H$.$I$C.o ",
"J$K$L$M$N$O$P$K$K$K$K$K$K$K$K$K$K$K$K$K$K$K$K$K$m$Q$R$q$S$T$U$V$",
"W$J$X$Y$Z$J$J$J$J$J$J$J$J$J$J$J$J$J$J$J$J$J$J$J$J$`$F$ %.%+%@%G#"};
