/* XPM */
static char * nrm_face_all_xpm[] = {
"32 32 384 2",
"  	c #C3C2C2",
". 	c #C0BFBF",
"+ 	c #BEBEBD",
"@ 	c #BCBCBB",
"# 	c #BABAB9",
"$ 	c #B3B3B2",
"% 	c #9C9C9C",
"& 	c #909292",
"* 	c #8C8E8D",
"= 	c #8B8C8C",
"- 	c #919291",
"; 	c #A7A7A6",
"> 	c #B7B8B7",
", 	c #BBBBBA",
"' 	c #A9AAA9",
") 	c #808383",
"! 	c #838B8C",
"~ 	c #899293",
"{ 	c #899191",
"] 	c #848C8C",
"^ 	c #7D8585",
"/ 	c #757C7C",
"( 	c #6D7071",
"_ 	c #6A6C6C",
": 	c #878887",
"< 	c #B1B1B0",
"[ 	c #BCBCBC",
"} 	c #B9B9B9",
"| 	c #B7B7B7",
"1 	c #8C8E8E",
"2 	c #8E989A",
"3 	c #9CA8A9",
"4 	c #78807F",
"5 	c #717577",
"6 	c #6B6F70",
"7 	c #656969",
"8 	c #616363",
"9 	c #616263",
"0 	c #606262",
"a 	c #555757",
"b 	c #5E5E5E",
"c 	c #A3A3A3",
"d 	c #B9B9B8",
"e 	c #B8B8B7",
"f 	c #919392",
"g 	c #9BA8A7",
"h 	c #A3B0B0",
"i 	c #798081",
"j 	c #636768",
"k 	c #5D6161",
"l 	c #5A5C5C",
"m 	c #565757",
"n 	c #545454",
"o 	c #565656",
"p 	c #585757",
"q 	c #5B5B5B",
"r 	c #5C5C5C",
"s 	c #AEAEAD",
"t 	c #BBBABA",
"u 	c #B8B7B7",
"v 	c #AAA9A9",
"w 	c #838A8B",
"x 	c #9AA7A7",
"y 	c #707779",
"z 	c #5A5D5E",
"A 	c #505252",
"B 	c #4C4C4C",
"C 	c #4B4C4C",
"D 	c #50504F",
"E 	c #5F5F5F",
"F 	c #636363",
"G 	c #646464",
"H 	c #676767",
"I 	c #7A7979",
"J 	c #BAB9B8",
"K 	c #B7B6B5",
"L 	c #8F8F8E",
"M 	c #838F8F",
"N 	c #656D6D",
"O 	c #4D5151",
"P 	c #454747",
"Q 	c #434444",
"R 	c #464646",
"S 	c #555555",
"T 	c #626262",
"U 	c #666666",
"V 	c #696969",
"W 	c #6B6B6B",
"X 	c #AAA9A8",
"Y 	c #B8B8B8",
"Z 	c #B5B5B4",
"` 	c #B2B2B1",
" .	c #7C7F7E",
"..	c #717B7B",
"+.	c #474C4C",
"@.	c #3E4141",
"#.	c #3A3A3A",
"$.	c #424141",
"%.	c #4B4B4B",
"&.	c #505050",
"*.	c #575757",
"=.	c #606060",
"-.	c #686868",
";.	c #6C6C6C",
">.	c #6F6F6F",
",.	c #6D6D6D",
"'.	c #595959",
").	c #959595",
"!.	c #B4B4B3",
"~.	c #727676",
"{.	c #697273",
"].	c #586060",
"^.	c #5D6262",
"/.	c #4F5151",
"(.	c #494A49",
"_.	c #4E4E4E",
":.	c #535353",
"<.	c #6A6A6A",
"[.	c #6A6969",
"}.	c #898988",
"|.	c #B7B7B6",
"1.	c #ABACAB",
"2.	c #6D7273",
"3.	c #768081",
"4.	c #737D7E",
"5.	c #676C6C",
"6.	c #515252",
"7.	c #5D5D5D",
"8.	c #676868",
"9.	c #5A5A5A",
"0.	c #7D7D7D",
"a.	c #B6B4B5",
"b.	c #B2B0B1",
"c.	c #AAA9AA",
"d.	c #6E7374",
"e.	c #656E6F",
"f.	c #383C3C",
"g.	c #2C2C2C",
"h.	c #323232",
"i.	c #3C3C3C",
"j.	c #4F4F4F",
"k.	c #525252",
"l.	c #585858",
"m.	c #696A6A",
"n.	c #767576",
"o.	c #B4B4B4",
"p.	c #B0B0B0",
"q.	c #A8A9A9",
"r.	c #676C6D",
"s.	c #464B4C",
"t.	c #252424",
"u.	c #393B3B",
"v.	c #3A3D3D",
"w.	c #323333",
"x.	c #2A2B2B",
"y.	c #434343",
"z.	c #515151",
"A.	c #767676",
"B.	c #B4B2B2",
"C.	c #B0AEAE",
"D.	c #A4A3A3",
"E.	c #616666",
"F.	c #333636",
"G.	c #333434",
"H.	c #707474",
"I.	c #A9A9A9",
"J.	c #BBBBBB",
"K.	c #848484",
"L.	c #404040",
"M.	c #494949",
"N.	c #C4C4C4",
"O.	c #9E9E9E",
"P.	c #797878",
"Q.	c #AFADAD",
"R.	c #B3B1B1",
"S.	c #949394",
"T.	c #686A6A",
"U.	c #565C5D",
"V.	c #252929",
"W.	c #525354",
"X.	c #ECEDED",
"Y.	c #E0E0E0",
"Z.	c #BFBFBF",
"`.	c #484848",
" +	c #C0C0C0",
".+	c #8B8B8B",
"++	c #8C8C8C",
"@+	c #FFFFFF",
"#+	c #B1B0B0",
"$+	c #ADACAC",
"%+	c #7D8181",
"&+	c #535A5A",
"*+	c #444A4B",
"=+	c #25292A",
"-+	c #F3F3F3",
";+	c #DADADA",
">+	c #C8C8C8",
",+	c #8F8F8F",
"'+	c #7A7A7A",
")+	c #D7D7D7",
"!+	c #818181",
"~+	c #C9C9C9",
"{+	c #707070",
"]+	c #B0AFAF",
"^+	c #ACABAB",
"/+	c #7D7F7F",
"(+	c #4D5454",
"_+	c #3B4041",
":+	c #333737",
"<+	c #1E1F1F",
"[+	c #727272",
"}+	c #D4D4D4",
"|+	c #E2E2E2",
"1+	c #ADADAD",
"2+	c #585959",
"3+	c #545555",
"4+	c #777777",
"5+	c #8D8D8D",
"6+	c #D2D2D2",
"7+	c #E6E6E6",
"8+	c #C5C5C5",
"9+	c #828282",
"0+	c #AEADAE",
"a+	c #868687",
"b+	c #464C4C",
"c+	c #373C3D",
"d+	c #393C3C",
"e+	c #212121",
"f+	c #232323",
"g+	c #3D3D3D",
"h+	c #454444",
"i+	c #4C4D4D",
"j+	c #5E6060",
"k+	c #747474",
"l+	c #6E6E6E",
"m+	c #626363",
"n+	c #ADACAD",
"o+	c #A9A8A9",
"p+	c #979697",
"q+	c #3C3F41",
"r+	c #35393A",
"s+	c #363A3B",
"t+	c #1F2020",
"u+	c #3B3B3B",
"v+	c #444444",
"w+	c #4A4A4A",
"x+	c #4D4F51",
"y+	c #5D5F60",
"z+	c #7F7F7F",
"A+	c #656565",
"B+	c #636263",
"C+	c #A8A7A7",
"D+	c #A5A4A4",
"E+	c #4D4D4D",
"F+	c #2E3131",
"G+	c #373C3C",
"H+	c #151515",
"I+	c #282828",
"J+	c #3C3D3D",
"K+	c #414646",
"L+	c #5A5C5D",
"M+	c #7B7B7B",
"N+	c #444545",
"O+	c #838282",
"P+	c #ABAAAA",
"Q+	c #A7A6A6",
"R+	c #848383",
"S+	c #343637",
"T+	c #121313",
"U+	c #1D1D1D",
"V+	c #383939",
"W+	c #242424",
"X+	c #2A2F2E",
"Y+	c #4D4F4F",
"Z+	c #737373",
"`+	c #787878",
" @	c #757575",
".@	c #9F9E9E",
"+@	c #A6A5A5",
"@@	c #46494A",
"#@	c #171919",
"$@	c #111111",
"%@	c #313131",
"&@	c #333333",
"*@	c #181919",
"=@	c #616060",
"-@	c #9A9999",
";@	c #A9A8A8",
">@	c #A2A1A1",
",@	c #595A5A",
"'@	c #212323",
")@	c #070707",
"!@	c #343434",
"~@	c #3C3B3B",
"{@	c #494848",
"]@	c #7E7D7D",
"^@	c #A7A7A7",
"/@	c #A2A2A2",
"(@	c #2A2E2E",
"_@	c #0B0B0B",
":@	c #171616",
"<@	c #2D2D2D",
"[@	c #606161",
"}@	c #525353",
"|@	c #939393",
"1@	c #A7A5A6",
"2@	c #A3A1A2",
"3@	c #908E8F",
"4@	c #434646",
"5@	c #321615",
"6@	c #FF0600",
"7@	c #C6110C",
"8@	c #353535",
"9@	c #3E3E3E",
"0@	c #E4110C",
"a@	c #A23532",
"b@	c #676666",
"c@	c #A2A0A1",
"d@	c #A1A0A0",
"e@	c #A9110D",
"f@	c #E90701",
"g@	c #F00802",
"h@	c #2F2F2F",
"i@	c #DF130E",
"j@	c #A73A37",
"k@	c #555656",
"l@	c #A4A3A4",
"m@	c #A09E9F",
"n@	c #818081",
"o@	c #E90A04",
"p@	c #8E0A07",
"q@	c #EE0802",
"r@	c #9B1714",
"s@	c #DE130E",
"t@	c #A63936",
"u@	c #5D5C5C",
"v@	c #B47977",
"w@	c #A50905",
"x@	c #E50803",
"y@	c #C80F0A",
"z@	c #383838",
"A@	c #A4A2A2",
"B@	c #9F9D9D",
"C@	c #E52F2A",
"D@	c #ED1A15",
"E@	c #B21612",
"F@	c #F90701",
"G@	c #4D2E2E",
"H@	c #A43634",
"I@	c #5D5E5E",
"J@	c #505151",
"K@	c #A2A1A2",
"L@	c #9D9C9D",
"M@	c #F8100A",
"N@	c #BE6967",
"O@	c #8C8B8C",
"P@	c #545354",
"Q@	c #E60A04",
"R@	c #A0110E",
"S@	c #D90E09",
"T@	c #E70D08",
"U@	c #DF130F",
"V@	c #DF140F",
"W@	c #A34E4C",
"X@	c #ED221D",
"Y@	c #F01D18",
"Z@	c #A19FA0",
"`@	c #9C9A9B",
" #	c #9A9899",
".#	c #B37373",
"+#	c #898888",
"@#	c #593C3B",
"##	c #321413",
"$#	c #481918",
"%#	c #743634",
"&#	c #894C4A",
"*#	c #854645",
"=#	c #A29191",
"-#	c #B47473",
";#	c #999798",
">#	c #9B999A",
",#	c #9F9E9F",
"'#	c #9B9A9B",
")#	c #A3A2A3",
"  . . . . . . . . . . . . . . . . . . . . . . . . . . . . . .   ",
"+ @ @ @ @ @ @ @ @ @ @ # $ % & * = - ; > @ @ @ @ @ @ @ @ @ @ @ + ",
"+ , , , , , , , , # ' ) ! ~ { ] ^ / ( _ : < , , , , , , , , , + ",
"[ } } } } } } } | 1 2 3 { 4 5 6 7 8 9 0 a b c } } } } } } } } [ ",
"@ d d d d d d e f g h i j k l m n n o p q r b s d d d d d d d @ ",
"t u u u u u u v w x y z A B C D o q E F G H r I u u u u u u u t ",
"J K K K K K K L M N O P Q R B S b T U V W W V b X K K K K K K J ",
"Y Z Z Z Z Z `  ...+.@.#.$.%.&.*.=.U -.;.>.,.,.'.).Z Z Z Z Z Z Y ",
"e !.!.!.!.!.s ~.{.].^./.(._.:.'.b T =.T -.<.[.'.}.!.!.!.!.!.!.e ",
"|.$ $ $ $ $ 1.2.3.4.5.A 6.m 7.7.S o q -.,.V 8.9.0.$ $ $ $ $ $ |.",
"a.b.b.b.b.b.c.d.e.f.g.h.i.B U F j.k.l.r =.H m.q n.b.b.b.b.b.b.a.",
"o.p.p.p.p.p.q.r.s.t.u.v.w.x.y.l.n z._.&.B j.F E A.p.p.p.p.p.p.o.",
"B.C.C.C.C.C.D.E.F.G.H.I.J.K.L.M.7.H I.N.O.G r =.P.Q.C.C.C.C.C.B.",
"R.Q.Q.Q.Q.S.T.U.V.W.X.Y.V Z.0.`.W  +.+++@+} T r 8.I Q.Q.Q.Q.Q.R.",
"#+$+$+$+$+%+&+*+=+n -+;+q >+,+B '+)+!+!+@+~+-.9.{+:.$+$+$+$+$+#+",
"]+^+^+^+^+/+(+_+:+<+[+}+|+1+2+3+4+5+6+7+8+9+U 7.H k.^+^+^+^+^+]+",
"0+c.c.c.c.a+b+c+d+e+f+g+j.h+i+j+k+[+F l+;.{+,.q m+*.c.c.c.c.c.0+",
"n+o+o+o+o+p+q+r+s+t+h.u+v+w+x+y+W z+k+k+0.A.A+*.2+B+o+o+o+o+o+n+",
"^+C+C+C+C+D+E+F+G+H+I+J+B L.K+L+;.4+M+!+'+W =.l.N+O+C+C+C+C+C+^+",
"P+Q+Q+Q+Q+Q+R+S+G+T+U+V+R W+X+Y+<.Z+`+ @l+U r w+*..@Q+Q+Q+Q+Q+P+",
"v +@+@+@+@+@D+9+@@#@$@%@&@T+*@g._.,.Z+W A+T *.=@-@+@+@+@+@+@+@v ",
";@D+D+D+D+D+D+>@,@'@)@e+%@!@~@{@F 4+k+V T T z.]@D+D+D+D+D+D+D+;@",
"^@c c c c c c /@Z+(@_@:@<@u+R :.G [+;.A+G [@}@|@c c c c c c c ^@",
"1@2@2@2@2@2@2@2@3@4@5@6@7@8@9@0@a@F U A+6@'.b@c@2@2@2@2@2@2@2@1@",
"D+d@d@d@d@d@d@d@d@[@e@f@g@h@g+i@j@H H G 6@k@R+d@d@d@d@d@d@d@d@D+",
"l@m@m@m@m@m@m@m@m@n@o@p@q@r@#.s@t@A+A+A+6@u@m@m@m@m@m@m@m@m@m@l@",
"D..@.@.@.@.@.@.@.@v@6@w@x@y@z@s@t@A+U A+6@z+.@.@.@.@.@.@.@.@.@D.",
"A@B@B@B@B@B@B@B@B@C@D@E@w@F@G@s@H@b I@J@6@B@B@B@B@B@B@B@B@B@B@A@",
"K@L@L@L@L@L@L@L@L@M@N@O@P@Q@R@S@T@U@V@W@6@X@X@Y@L@L@L@L@L@L@L@K@",
"Z@`@`@`@`@`@ # # #.# #`@+#@###$#%#&#*#=#-#.#.#.#;#>#`@`@`@`@`@Z@",
",#'#'#'#'#'#'#'#'#'#'#'#'#'#'#'#'#'#'#'#'#'#'#'#'#'#'#'#'#'#'#,#",
")#,#,#,#,#,#,#,#,#,#,#,#,#,#,#,#,#,#,#,#,#,#,#,#,#,#,#,#,#,#,#)#"};
