/* XPM */
static char * nrm_visctrls_xpm[] = {
"32 32 472 2",
"  	c #434343",
". 	c #454545",
"+ 	c #484848",
"@ 	c #515151",
"# 	c #585858",
"$ 	c #5B5B5C",
"% 	c #5C5C5C",
"& 	c #595959",
"* 	c #515152",
"= 	c #4B4B4B",
"- 	c #474747",
"; 	c #444444",
"> 	c #464646",
", 	c #686868",
"' 	c #777777",
") 	c #797979",
"! 	c #777776",
"~ 	c #757575",
"{ 	c #747473",
"] 	c #727271",
"^ 	c #70706F",
"/ 	c #6A6A6A",
"( 	c #575757",
"_ 	c #484849",
": 	c #464647",
"< 	c #474647",
"[ 	c #434344",
"} 	c #4B4B4C",
"| 	c #6B6B6B",
"1 	c #7A7A7A",
"2 	c #646463",
"3 	c #424242",
"4 	c #2C2C2B",
"5 	c #1F1F1E",
"6 	c #181816",
"7 	c #1D1D1C",
"8 	c #2B2B2A",
"9 	c #3E3E3D",
"0 	c #5A5A5A",
"a 	c #737373",
"b 	c #545455",
"c 	c #424243",
"d 	c #444545",
"e 	c #474848",
"f 	c #474748",
"g 	c #454646",
"h 	c #585959",
"i 	c #79797A",
"j 	c #646464",
"k 	c #30302F",
"l 	c #171716",
"m 	c #131312",
"n 	c #191918",
"o 	c #1A1A19",
"p 	c #181817",
"q 	c #151514",
"r 	c #141413",
"s 	c #272726",
"t 	c #565655",
"u 	c #7D7D7D",
"v 	c #636363",
"w 	c #454546",
"x 	c #464748",
"y 	c #616161",
"z 	c #1A1A1A",
"A 	c #131313",
"B 	c #181818",
"C 	c #191919",
"D 	c #161616",
"E 	c #373737",
"F 	c #757574",
"G 	c #6C6C6D",
"H 	c #464747",
"I 	c #494A4A",
"J 	c #4A4A4B",
"K 	c #5A5B5B",
"L 	c #7A7B7B",
"M 	c #393938",
"N 	c #292827",
"O 	c #727372",
"P 	c #676767",
"Q 	c #494849",
"R 	c #7B7B7B",
"S 	c #444443",
"T 	c #161615",
"U 	c #121211",
"V 	c #2F2F2E",
"W 	c #5A5A5B",
"X 	c #484949",
"Y 	c #4B4C4C",
"Z 	c #706F6F",
"` 	c #151515",
" .	c #141414",
"..	c #121212",
"+.	c #0F0F0F",
"@.	c #1C1C1C",
"#.	c #212121",
"$.	c #232323",
"%.	c #222222",
"&.	c #1D1D1D",
"*.	c #101010",
"=.	c #111110",
"-.	c #4B4A4A",
";.	c #4C4C4D",
">.	c #4A4B4B",
",.	c #4C4D4D",
"'.	c #565757",
").	c #787978",
"!.	c #292929",
"~.	c #0E0E0E",
"{.	c #A0A3A2",
"].	c #BEC6C2",
"^.	c #D5DFD7",
"/.	c #C6CEC6",
"(.	c #A8ACA7",
"_.	c #838483",
":.	c #535253",
"<.	c #202020",
"[.	c #282727",
"}.	c #7B7B7A",
"|.	c #606061",
"1.	c #4A4C4B",
"2.	c #4D4F4E",
"3.	c #4B4D4D",
"4.	c #6B6C6B",
"5.	c #5F605F",
"6.	c #111111",
"7.	c #0B0B0B",
"8.	c #343434",
"9.	c #898989",
"0.	c #B0B0B0",
"a.	c #C0C1C0",
"b.	c #D6C0C6",
"c.	c #BE88A4",
"d.	c #B068A0",
"e.	c #B67CB4",
"f.	c #CDB4CE",
"g.	c #C6C6C4",
"h.	c #B3B3B2",
"i.	c #9A9A98",
"j.	c #0E0E0D",
"k.	c #2E2E2C",
"l.	c #5E5E5D",
"m.	c #767777",
"n.	c #4D4E4E",
"o.	c #4C4C4C",
"p.	c #4F4F4F",
"q.	c #505050",
"r.	c #3E3E3E",
"s.	c #0A0A08",
"t.	c #10100F",
"u.	c #0C0C0B",
"v.	c #454544",
"w.	c #969695",
"x.	c #8B8C8C",
"y.	c #967E7E",
"z.	c #522129",
"A.	c #540025",
"B.	c #740055",
"C.	c #7A007A",
"D.	c #74178B",
"E.	c #9D7EB3",
"F.	c #9A9A99",
"G.	c #858584",
"H.	c #BBBBBA",
"I.	c #60605F",
"J.	c #161515",
"K.	c #2A2929",
"L.	c #2F2D2D",
"M.	c #444343",
"N.	c #787878",
"O.	c #555556",
"P.	c #4E4E4E",
"Q.	c #4F5050",
"R.	c #525353",
"S.	c #262625",
"T.	c #090908",
"U.	c #3A3A39",
"V.	c #B8B8B8",
"W.	c #8F8F8F",
"X.	c #4A4D4C",
"Y.	c #B5A29D",
"Z.	c #582A26",
"`.	c #010000",
" +	c #270F16",
".+	c #AF77A0",
"++	c #B064B5",
"@+	c #5E198C",
"#+	c #3E128A",
"$+	c #9E96BB",
"%+	c #5C5D5A",
"&+	c #707070",
"*+	c #C5C5C5",
"=+	c #6B6B6A",
"-+	c #2B2928",
";+	c #343332",
">+	c #737372",
",+	c #5C5D5D",
"'+	c #4C4F4F",
")+	c #4F5252",
"!+	c #555757",
"~+	c #7D7E7E",
"{+	c #090909",
"]+	c #9A9A9A",
"^+	c #A4A4A4",
"/+	c #2D2D2D",
"(+	c #5B6063",
"_+	c #BB9C85",
":+	c #551F03",
"<+	c #28140F",
"[+	c #676162",
"}+	c #F4F5F3",
"|+	c #F6EEF8",
"1+	c #8675B9",
"2+	c #0C0081",
"3+	c #5F5BAB",
"4+	c #8A8985",
"5+	c #2C2C2C",
"6+	c #949494",
"7+	c #BDBDBD",
"8+	c #434141",
"9+	c #21201F",
"0+	c #242322",
"a+	c #727171",
"b+	c #646565",
"c+	c #4D4F4F",
"d+	c #4E4F4F",
"e+	c #515252",
"f+	c #575858",
"g+	c #828282",
"h+	c #060606",
"i+	c #070707",
"j+	c #2A2A2A",
"k+	c #C8C8C8",
"l+	c #62656C",
"m+	c #B8A571",
"n+	c #744F00",
"o+	c #AF9E77",
"p+	c #F1F0F1",
"q+	c #FFFFFF",
"r+	c #B1B7D8",
"s+	c #041682",
"t+	c #36469F",
"u+	c #A2A09B",
"v+	c #222020",
"w+	c #4E4D4D",
"x+	c #CBCBCB",
"y+	c #636262",
"z+	c #181717",
"A+	c #696A6A",
"B+	c #7E7F7F",
"C+	c #0C0C0C",
"D+	c #242424",
"E+	c #B9B9B9",
"F+	c #858585",
"G+	c #000000",
"H+	c #57575F",
"I+	c #BBB981",
"J+	c #7C7B00",
"K+	c #B1B464",
"L+	c #F6F9ED",
"M+	c #F9FDFE",
"N+	c #8AB2C5",
"O+	c #014380",
"P+	c #5277A9",
"Q+	c #95928F",
"R+	c #0C0B0B",
"S+	c #6B6A69",
"T+	c #CCCCCC",
"U+	c #515050",
"V+	c #171616",
"W+	c #6E6E6E",
"X+	c #686969",
"Y+	c #505151",
"Z+	c #535454",
"`+	c #050505",
" @	c #696969",
".@	c #413F44",
"+@	c #BDBFA4",
"@@	c #7B901C",
"#@	c #628B18",
"$@	c #89BA75",
"%@	c #B2D8B5",
"&@	c #8AC5B0",
"*@	c #319596",
"=@	c #057084",
"-@	c #91B3C1",
";@	c #676563",
">@	c #40403F",
",@	c #C1C2C1",
"'@	c #909090",
")@	c #515352",
"!@	c #525352",
"~@	c #555655",
"{@	c #565756",
"]@	c #323232",
"^@	c #010101",
"/@	c #0D0D0D",
"(@	c #7C7C7C",
"_@	c #C1C1C1",
":@	c #7D7C7C",
"<@	c #969595",
"[@	c #A6BA84",
"}@	c #3F870E",
"|@	c #117F00",
"1@	c #058210",
"2@	c #02803C",
"3@	c #03826C",
"4@	c #64AEAE",
"5@	c #A6AAAB",
"6@	c #717070",
"7@	c #969697",
"8@	c #3F3F3F",
"9@	c #1C1B1B",
"0@	c #0F0E0E",
"a@	c #272727",
"b@	c #6C6C6C",
"c@	c #5B5B5B",
"d@	c #545553",
"e@	c #535353",
"f@	c #565656",
"g@	c #555555",
"h@	c #676867",
"i@	c #080808",
"j@	c #303030",
"k@	c #ABABAB",
"l@	c #BABABB",
"m@	c #CACACC",
"n@	c #B3CEAA",
"o@	c #60A95A",
"p@	c #2D9637",
"q@	c #4AA26C",
"r@	c #96C6B7",
"s@	c #CBD0D0",
"t@	c #BFBDBC",
"u@	c #B2B2B2",
"v@	c #7F7F7F",
"w@	c #393939",
"x@	c #201F1F",
"y@	c #3A3A3A",
"z@	c #717171",
"A@	c #535554",
"B@	c #565857",
"C@	c #555656",
"D@	c #5B5C5B",
"E@	c #6D6D6D",
"F@	c #030303",
"G@	c #AFAFAF",
"H@	c #CFCDD0",
"I@	c #E5E0E5",
"J@	c #F5EFF5",
"K@	c #EBE5E9",
"L@	c #D6D2D3",
"M@	c #B9B8B8",
"N@	c #8A8A8A",
"O@	c #2F2F2F",
"P@	c #1E1E1E",
"Q@	c #606060",
"R@	c #525453",
"S@	c #585859",
"T@	c #494949",
"U@	c #5D5D5D",
"V@	c #626262",
"W@	c #0A0A0A",
"X@	c #020202",
"Y@	c #727272",
"Z@	c #515353",
"`@	c #58595A",
" #	c #595A59",
".#	c #575857",
"+#	c #262626",
"@#	c #040404",
"##	c #5B5C5C",
"$#	c #555756",
"%#	c #595A5A",
"&#	c #595858",
"*#	c #575959",
"=#	c #5A5C5C",
"-#	c #5B5D5D",
";#	c #606161",
">#	c #1F1F1F",
",#	c #2C979E",
"'#	c #0ED8E4",
")#	c #0CE2F0",
"!#	c #0CCEDB",
"~#	c #03969F",
"{#	c #00B5C0",
"]#	c #00B9C4",
"^#	c #008088",
"/#	c #00B6C1",
"(#	c #041314",
"_#	c #21C6D1",
":#	c #2EAEB6",
"<#	c #4D4E4D",
"[#	c #595B5A",
"}#	c #5C5E5D",
"|#	c #3C9095",
"1#	c #00F0FF",
"2#	c #11CED9",
"3#	c #1AB8C2",
"4#	c #0CE1EE",
"5#	c #11D8E4",
"6#	c #17ADB7",
"7#	c #06C4D0",
"8#	c #01D6E3",
"9#	c #0097A0",
"0#	c #008F98",
"a#	c #01D0DD",
"b#	c #07ADB7",
"c#	c #03E5F3",
"d#	c #1AC7D2",
"e#	c #0ADDEA",
"f#	c #13C8D3",
"g#	c #5C5E5E",
"h#	c #5D5F5F",
"i#	c #14D1DC",
"j#	c #0FD9E5",
"k#	c #5F6161",
"l#	c #585A5A",
"m#	c #486668",
"n#	c #3AA3AA",
"o#	c #13D6E3",
"p#	c #19CED9",
"q#	c #16D2DE",
"r#	c #10D4E0",
"s#	c #17CDD8",
"t#	c #5B5D5C",
"u#	c #5E605F",
"v#	c #0BDEEC",
"w#	c #17CCD7",
"x#	c #606160",
"y#	c #5F6060",
"z#	c #555856",
"A#	c #2A949A",
"B#	c #0ED2DE",
"C#	c #4D4D4D",
"D#	c #09DCE9",
"E#	c #10CDD8",
"F#	c #01EDFC",
"G#	c #2BA0A7",
"H#	c #5D5F5E",
"I#	c #0CDFEC",
"J#	c #5F6160",
"K#	c #14D1DD",
"L#	c #606261",
"M#	c #359FA5",
"N#	c #11D5E1",
"O#	c #5A5C5B",
"P#	c #16CBD7",
"Q#	c #08E3F0",
"R#	c #0BE0ED",
"S#	c #03ECFA",
"T#	c #507C7E",
"U#	c #29B3BB",
"V#	c #02EEFD",
"W#	c #31A8AF",
"X#	c #547375",
"Y#	c #1BC8D3",
"Z#	c #1EC4CE",
"`#	c #36A0A6",
" $	c #12D6E2",
".$	c #18CDD8",
"+$	c #5A6A6B",
"@$	c #09E3F0",
"#$	c #488589",
"$$	c #01EEFD",
"%$	c #04EAF9",
"&$	c #31A7AE",
"*$	c #4F7B7E",
"=$	c #09E3F1",
"-$	c #24BBC4",
";$	c #4E7C7F",
"  . . . . . . . . .     + @ # $ % & * = - . . . . . . . . . .   ",
"; > > > > > > > ; ; @ , ' ) ! ~ { ] ^ / ( _ ; > > > > > > > > ; ",
"; : : : : : < [ } | 1 2 3 4 5 6 7 8 9 0 ! a b c : < : : : : : ; ",
"d e e e e f g h i j k l m l n o o p q r s t u v f : e e e e e d ",
"w _ _ _ _ x y 1 > z A B C C C C C C C C q D E F G _ _ _ _ _ _ w ",
"H I I J : K L M r l n n n n n n n n n n n p r N O P f J I I I H ",
"+ = = Q @ R S m l l l l T q r r r q T l l l p U V 1 W _ = = = + ",
"X Y Y I Z y `  .` ` ..+.` @.#.$.%.&.l *.*.` ` ` =.-.R ;.>.Y Y X ",
"I ,.>.'.).!.~. . .~.C . 1 {.].^./.(._.:.<.~.A  .U [.}.|.X ,.,.I ",
"1.2.3.4.5.~.6...7.8.9.0.a.b.c.d.e.f.g.h.i.+ j.+.o k.l.m.,.n.2.1.",
"o.p.q.a r.s.t.u.v.h.w.x.y.z.A.B.C.D.E.F.G.H.I.J.K.L.M.N.O.P.p.o.",
",.Q.R.' S.u.T.U.V.W.X.Y.Z.`. +.+++@+#+$+%+&+*+=+N -+;+>+,+n.Q.,.",
"'+)+!+~+..{+` ]+^+/+(+_+:+<+[+}+|+1+2+3+4+5+6+7+8+9+0+a+b+c+)+'+",
"d+e+f+g+h+i+j+k+0 7.l+m+n+o+p+q+q+r+s+t+u+v+w+x+y+z+z+&+A+d+e+d+",
"Q.R.h B+C+h+D+E+F+G+H+I+J+K+L+q+M+N+O+P+Q+R+S+T+U+J.V+W+X+Q.R.Q.",
"Y+Z+f+m.@.`+ . @*+# .@+@@@#@$@%@&@*@=@-@;@>@,@'@5+ .@.| v )@Z+Y+",
"!@~@{@W+]@^@/@!.(@_@:@<@[@}@|@1@2@3@4@5@6@E+7@8@9@0@a@b@c@d@~@!@",
"e@f@g@h@@ G+i@z j@b@k@l@m@n@o@p@q@r@s@t@u@v@w@x@6.i@y@z@e@f@f@e@",
"A@B@C@D@E@` F@/@z !.- (@G@H@I@J@K@L@M@N@@ O@P@+.{+C+Q@2 R@B@B@A@",
"C@h S@Z+| T@F@h+i@A P@j+; U@E@~ &+V@= O@#.D W@i+X@j@Y@Z@`@h h C@",
"{@ # #.#~@z@+#G+F@@#{+..z #.+#!.a@%.@. .7.`+F@G+../ ##$# # # #{@",
"'.%#%###R.0 , ` G+^@^@X@@#h+i@{+{+i+`+X@^@^@G+i+&#j Q.##%#%#%#'.",
"*#=#=#=#-#e+;#P >#G+G+G+G+G+G+G+G+G+G+^@G+G+6.#  @Q.##=#=#=#=#*#",
"& % % % % ,+,#'#)#!#~#{#{#{#{#]#^#{#{#/#(#/+_#:#<#K % % % % % & ",
"[#}#}#}#}#|#1#2#3#4#5#6#7#8#9#0#{#a#b#c#d#W+e#f#}#g#}#}#}#}#}#[#",
"=#h#h#h#h#i#j#k#l#T@m#j n#o#j j p#p#P q#r#T@e#s#h#h#h#h#h#h#h#=#",
"t#u#u#u#u#v#w#u#x#y#z#<#A#B#<#C#f#D#E#F#G#H#I#w#u#u#u#u#u#u#u#t#",
"}#J#J#J#J#K#K#J#J#;#L#L#M#N#t#O#P#Q#R#S#T#L#I#s#J#J#J#J#J#J#J#}#",
";#;#;#;#;#U#V#W#X#Y#Z#;#`# $;#;#.$.$+$@$@$+$I# $#$#$X#;#;#;#;#;#",
";#;#;#;#;#;# $$$1#%$&$;#`#I#;#;#.$ $;#*$S# $=$1#1#1#-$;#;#;#;#;#",
";#;#;#;#;#;#;#;#;$;#;#;#;#;#;#;#;#;#;#;#;#;#;#;#;#;#;#;#;#;#;#;#",
";#;#;#;#;#;#;#;#;#;#;#;#;#;#;#;#;#;#;#;#;#;#;#;#;#;#;#;#;#;#;#;#"};
