/* XPM */
static char *185m[] =
{
/* width height ncolors chars_per_pixel */
"32 32 32 2",
/* colors */
"AA c #DEDEDEDEE7E7",
"BA c #B5B5B5B5B5B5",
"CA c #ADADADADBDBD",
"DA c #ADADADADADAD",
"EA c #A5A59C9CA5A5",
"FA c #9C9C9C9CA5A5",
"GA c #9C9C9C9C9C9C",
"HA c #8C8C94949494",
"IA c #8C8C8C8C9C9C",
"JA c #848484848C8C",
"KA c #7B7B7B7B9494",
"LA c #7B7B7B7B8C8C",
"MA c #737373737B7B",
"NA c #6B6B73738C8C",
"OA c #6B6B6B6B8C8C",
"PA c #6B6B6B6B7B7B",
"AB c #5A5A63637373",
"BB c #5A5A5A5A8484",
"CB c #5A5A5A5A7B7B",
"DB c #5A5A5A5A6B6B",
"EB c #5A5A5A5A5A5A",
"FB c #4A4A4A4A7B7B",
"GB c #4A4A4A4A6B6B",
"HB c #4A4A4A4A4A4A",
"IB c #42424A4A5A5A",
"JB c #393942427373",
"KB c #393939396B6B",
"LB c #393939393939",
"MB c #313139395252",
"NB c #292929295A5A",
"OB c #181818181818",
"PB c #000000000000",
/* pixels */
"PBPBPBPBPBPBPBOBPBOBPBOBPBOBPBOBPBOBPBOBPBOBPBOBPBOBPBOBPBOBPBLB",
"PBPBPBPBPBPBPBPBPBPBPBPBPBPBPBPBPBPBPBPBPBPBPBPBPBPBPBPBPBPBPBPB",
"PBPBPBPBPBPBPBPBPBPBPBPBPBPBPBPBPBPBPBPBPBPBPBPBPBPBPBPBPBPBPBOB",
"PBPBPBPBPBPBPBPBPBPBPBPBPBPBPBPBPBPBPBPBPBPBPBPBPBPBPBPBPBPBPBPB",
"PBPBPBPBPBPBPBPBPBPBPBPBPBPBPBPBPBPBPBPBPBPBPBPBPBPBPBPBPBPBPBOB",
"PBPBPBPBPBPBLBLBLBLBLBLBLBLBLBLBLBLBLBLBLBLBHBLBLBLBLBLBLBLBLBHB",
"PBPBPBPBPBPBDADADADADADADADADADADADADADADAGAIADADADADADADADADADA",
"PBPBPBPBPBPBDAGAGAGAGAGAGAGAGAGAGAGADAGAPANBCBGAGAGAGAGAGAGAGADA",
"PBPBPBPBPBPBGADAGADAGADAGADAGADAGAEAGAOAFBPAGAGADADAGADAGAGAGADA",
"PBPBPBPBPBPBDAGAGAGADAGAGAGADAGAFAJAOAIAGADAGAGAGALAFAGAGADAGADA",
"PBPBPBPBPBPBGADAGAGAGADAGAGAGADAFBCBLAHADAGADAGAPACBGADAGAGADAGA",
"PBPBPBPBPBPBDAGAGADAGAGADAGADAPADBIAKALAJADAGAIAJBJADAGADAGAGADA",
"PBPBPBPBPBPBGADAGAGADAGAGADAPAGBGANALAOAJADAGAGBKADAGAGAGADAGADA",
"PBPBPBPBPBPBGAGAGADAGAGADAHANBOAJACBCBLADAGAFBPADAGAGAGADAGAGADA",
"PBPBPBPBPBPBDAGAGAGADAGAGAGALACAABGBGADAGACBGBFADAGADAGAGADAGADA",
"PBPBPBPBPBPBGADAGADAGAGADAIAJAAAFAOAIAOACBOAGADAGAGAGADAGAGAGADA",
"PBPBPBPBPBPBGAGADAGADAGAGADBJAJAPAIBKBPAIAGADAGAGADAGAGADAGAGADA",
"PBPBPBPBPBPBGADAGAGAGALALAGBMBDBMAIAJADAGADAGAGADAGAGAGAGADAGADA",
"PBPBPBPBPBPBDAGAGAOAGBDBGAPADBFADADAGAGADAGAGAGAGADAGADAGAGADAGA",
"PBPBPBPBPBPBHAJACBGBCBCBIBDBGADAGAGAGADAGAGAGADAGAGADAGAGAGAGADA",
"PBPBPBPBPBPBNBJBOAJAOAMBCBGADAGAGADAGAGAGADAGAGADAGAGADAGADAGADA",
"PBPBPBPBPBPBBBJBCBOAIBPAGADAGAGADAGAGAGADAGADAGAGADAGAGADAGAGADA",
"PBPBPBPBPBPBOAIANAGBLAFADAGAGADAGAGADAGAGAGAGADAGAGAGAGAGADAGADA",
"PBPBPBPBPBPBGAEADAFAGADAGAGADAGAGADAGAGADAGADAGAGAGADAGADAGAGADA",
"PBPBPBPBPBPBDAGAGADAGAGAEAGAGAGADAGAGADAGAGAGADAGADAGAGAGAGADAGA",
"PBPBPBPBPBPBDADADADADADADADADADADADADADADADADADADADADADADADADABA",
"PBPBPBPBPBPBHBHBHBHBHBHBHBHBHBHBHBHBHBHBHBHBHBHBHBHBHBHBHBHBHBEB",
"PBPBPBPBPBPBPBPBPBPBPBPBPBPBPBPBPBPBPBPBPBPBPBPBPBPBPBPBPBPBPBPB",
"PBPBPBPBPBPBPBPBPBPBPBPBPBPBPBPBPBPBPBPBPBPBPBPBPBPBPBPBPBPBPBOB",
"PBPBPBPBPBPBPBPBPBPBPBPBPBPBPBPBPBPBPBPBPBPBPBPBPBPBPBPBPBPBPBPB",
"PBPBPBPBPBPBPBPBPBPBPBPBPBPBPBPBPBPBPBPBPBPBPBPBPBPBPBPBPBPBPBOB",
"PBPBPBPBPBPBPBOBPBOBPBOBPBOBPBOBPBOBPBOBPBOBPBOBPBOBPBOBOBPBOBOB",
};
