/* XPM */
static char*[] = {
/* width height ncolors chars_per_pixel */
"32 32 166 2",
/* colors */
"aa c #000000",
"ba c #0B0B0B",
"ca c #3F4172",
"da c #0F0F0F",
"ea c #3E4170",
"fa c #1E1E1E",
"ga c #393939",
"ha c #3C3C3A",
"ia c #454545",
"ja c #5F6077",
"ka c #4E4E4E",
"la c #474859",
"ma c #31335A",
"na c #1F2265",
"oa c #373954",
"pa c #585858",
"qa c #41435F",
"ra c #2C2E5D",
"sa c #414262",
"ta c #464769",
"ua c #383A6A",
"va c #4C4E6A",
"wa c #5A5B6A",
"xa c #5D5E6A",
"ya c #4D4E6E",
"ab c #7F8091",
"bb c #55566E",
"cb c #4D4F72",
"db c #4B4C76",
"eb c #454770",
"fb c #616273",
"gb c #57587B",
"hb c #525374",
"ib c #505272",
"jb c #545576",
"kb c #696A7B",
"lb c #55577A",
"mb c #525378",
"nb c #4D4E78",
"ob c #52547A",
"pb c #5D5E78",
"qb c #62637F",
"rb c #66677E",
"sb c #686981",
"tb c #61637E",
"ub c #6C6D83",
"vb c #6A6B83",
"wb c #53557D",
"xb c #6C6D82",
"yb c #747587",
"ac c #686A87",
"bc c #8F9097",
"cc c #75768A",
"dc c #7C7D89",
"ec c #696B8A",
"fc c #81828A",
"gc c #717178",
"hc c #6D6E8D",
"ic c #76778E",
"jc c #7E7F8E",
"kc c #757692",
"lc c #808193",
"mc c #717290",
"nc c #818192",
"oc c #787992",
"pc c #8D8E95",
"qc c #8E8E97",
"rc c #787991",
"sc c #8D8E9A",
"tc c #93939A",
"uc c #8C8D95",
"vc c #9A9B9D",
"wc c #95969E",
"xc c #9B9B9D",
"yc c #99999F",
"ad c #98989D",
"bd c #A1A1A1",
"cd c #A2A2A2",
"dd c #A5A5A3",
"ed c #A4A3A3",
"fd c #A5A5A5",
"gd c #A6A6A6",
"hd c #A7A7A7",
"id c #A9A9A8",
"jd c #A2A2A3",
"kd c #AAAAAA",
"ld c #A3A3A2",
"md c #A4A3A2",
"nd c #A7A7A4",
"od c #A1A1A2",
"pd c #A3A2A3",
"qd c #A8A8A6",
"rd c #9E9EA0",
"sd c #A4A4A3",
"td c #A2A2A1",
"ud c #A6A6A4",
"vd c #A8A8A4",
"wd c #A3A3A3",
"xd c #96959C",
"yd c #7E7F91",
"ae c #A4A4A2",
"be c #97969C",
"ce c #878891",
"de c #A9A8A5",
"ee c #797B8C",
"fe c #ADAEB9",
"ge c #A9A9A5",
"he c #9F9FA0",
"ie c #A7A7A5",
"je c #8A8A91",
"ke c #888896",
"le c #9999A2",
"me c #8C8C99",
"ne c #575981",
"oe c #99999D",
"pe c #969698",
"qe c #84848E",
"re c #6A6B87",
"se c #94949A",
"te c #A6A6A3",
"ue c #98989C",
"ve c #787885",
"we c #7F7F91",
"xe c #777782",
"ye c #8D8D95",
"af c #8A8A93",
"bf c #96969C",
"cf c #6C6D8A",
"df c #464873",
"ef c #92939B",
"ff c #666677",
"gf c #9E9EA1",
"hf c #A6A6A5",
"if c #97979D",
"jf c #838493",
"kf c #545678",
"lf c #57597A",
"mf c #515271",
"nf c #9E9E9F",
"of c #A5A4A3",
"pf c #8C8C97",
"qf c #4C4D7B",
"rf c #DEDFE2",
"sf c #6D6E81",
"tf c #8C8D93",
"uf c #6F7084",
"vf c #404269",
"wf c #555774",
"xf c #A09FA0",
"yf c #747487",
"ag c #717287",
"bg c #5E5F84",
"cg c #38396F",
"dg c #5B5D7D",
"eg c #6D6E87",
"fg c #616279",
"gg c #A0A0A0",
"hg c #65677E",
"ig c #919198",
"jg c #6F7088",
"kg c #797A88",
"lg c #A5A5A4",
"mg c #9D9D9E",
"ng c #9F9FA1",
"og c #B0B0B0",
"pg c #ABABAB",
/* pixels */
"fadadadadadadadadadadadadadadadadadadadadadadadadadadadadadadafa",
"baaaaaaaaaaaaaaaaaaaaaaaaaaaaaaaaaaaaaaaaaaaaaaaaaaaaaaaaaaaaaba",
"daaaaaaaaaaaaaaaaaaaaaaaaaaaaaaaaaaaaaaaaaaaaaaaaaaaaaaaaaaaaada",
"daaaaaaaaaaaaaaaaaaaaaaaaaaaaaaaaaaaaaaaaaaaaaaaaaaaaaaaaaaaaada",
"daaaaaaaaaaaaaaaaaaaaaaaaaaaaaaaaaaaaaaaaaaaaaaaaaaaaaaaaaaaaada",
"iagagagagagagagagagagagagagagagagagagagagahahagagagagagagagagaia",
"kdfdfdfdfdfdfdfdfdfdfdfdfdfdfdfdfdfdfdgdidwcscfdfdfdfdfdfdfdfdkd",
"hdcdcdcdcdcdcdcdcdcdcdcdcdcdcdcdcdcdddedubmahbjdldcdcdcdcdcdcdhd",
"hdbdbdbdbdbdbdbdbdbdbdbdbdbdbdbdcdmdycmcebkbxccdldndbdbdbdbdbdhd",
"hdbdbdbdbdbdbdbdbdbdbdbdbdbdbdldodlchcncpdqdldldadicrdcdbdbdbdhd",
"hdbdbdbdbdbdbdbdbdbdbdbdbdbdldddnbgbjctcsdbdbdldrblbrdldbdbdbdhd",
"hdbdbdbdbdbdbdbdbdbdbdbdbdtdudubjbpcockcbcldvdabebqcsdbdbdbdbdhd",
"hdbdbdbdbdbdbdbdbdbdbdbdtdwdybtavcccrcsbucvdxddbydndbdbdbdbdbdhd",
"hdbdbdbdbdbdbdbdbdbdbdbdaeberaqbceobpbdcdeldmbvbndbdbdbdbdbdbdhd",
"hdbdbdbdbdbdbdbdbdbdbdbdcdxceefetbyaodgewcwbcbheldbdbdbdbdbdbdhd",
"hdbdbdbdbdbdbdbdbdbdbdbdiejekerflexbmeecneacoesdbdbdbdbdbdbdbdhd",
"hdbdbdbdbdbdbdbdbdtdaecdpejafcqegcqauareseteldbdbdbdbdbdbdbdbdhd",
"hdbdbdbdbdbdbdbdaecduevewevaoawaxeyeafsdsdbdbdbdbdbdbdbdbdbdbdhd",
"hdbdbdbdbdcdaeudbfcfdffbefffbbgfhfddddbdbdbdbdbdbdbdbdbdbdbdbdhd",
"hdbdbdbdsdheifjfkfiblfmflaxanfofbdbdbdbdbdbdbdbdbdbdbdbdbdbdbdhd",
"hdbdbdldpfqfnaeasftfufvfwfxfsdbdbdbdbdbdbdbdbdbdbdbdbdbdbdbdbdhd",
"hdbdbdcdyfagbgcgdgegsafggfsdbdbdbdbdbdbdbdbdbdbdbdbdbdbdbdbdbdhd",
"hdbdbdbdtdgghgigjgcakglgaebdbdbdbdbdbdbdbdbdbdbdbdbdbdbdbdbdbdhd",
"hdbdbdbdtdbdmgaelgnglgtdbdbdbdbdbdbdbdbdbdbdbdbdbdbdbdbdbdbdbdhd",
"hdbdbdbdbdbdcdbdbdcdbdbdbdbdbdbdbdbdbdbdbdbdbdbdbdbdbdbdbdbdbdhd",
"ogpgpgpgpgpgpgpgpgpgpgpgpgpgpgpgpgpgpgpgpgpgpgpgpgpgpgpgpgpgpgog",
"pakakakakakakakakakakakakakakakakakakakakakakakakakakakakakakapa",
"daaaaaaaaaaaaaaaaaaaaaaaaaaaaaaaaaaaaaaaaaaaaaaaaaaaaaaaaaaaaada",
"daaaaaaaaaaaaaaaaaaaaaaaaaaaaaaaaaaaaaaaaaaaaaaaaaaaaaaaaaaaaada",
"daaaaaaaaaaaaaaaaaaaaaaaaaaaaaaaaaaaaaaaaaaaaaaaaaaaaaaaaaaaaada",
"baaaaaaaaaaaaaaaaaaaaaaaaaaaaaaaaaaaaaaaaaaaaaaaaaaaaaaaaaaaaaba",
"fadadadadadadadadadadadadadadadadadadadadadadadadadadadadadadafa"
};
