/* XPM */
static char*[] = {
/* width height ncolors chars_per_pixel */
"32 32 173 2",
/* colors */
"aa c #A5A5A4",
"ba c #9D9D9E",
"ca c #9F9FA1",
"da c #B0B0B0",
"ea c #ABABAB",
"fa c #0BEB1A",
"ga c #09EA19",
"ha c #08F018",
"ia c #05B211",
"ja c #00AD0C",
"ka c #069610",
"la c #3F4172",
"ma c #3E4170",
"na c #5F6077",
"oa c #474859",
"pa c #31335A",
"qa c #1F2265",
"ra c #373954",
"sa c #41435F",
"ta c #2C2E5D",
"ua c #414262",
"va c #464769",
"wa c #383A6A",
"xa c #4C4E6A",
"ya c #5A5B6A",
"ab c #5D5E6A",
"bb c #4D4E6E",
"cb c #7F8091",
"db c #55566E",
"eb c #4D4F72",
"fb c #4B4C76",
"gb c #454770",
"hb c #616273",
"ib c #57587B",
"jb c #525374",
"kb c #505272",
"lb c #545576",
"mb c #696A7B",
"nb c #55577A",
"ob c #525378",
"pb c #4D4E78",
"qb c #52547A",
"rb c #5D5E78",
"sb c #62637F",
"tb c #66677E",
"ub c #686981",
"vb c #61637E",
"wb c #6C6D83",
"xb c #6A6B83",
"yb c #53557D",
"ac c #6C6D82",
"bc c #747587",
"cc c #686A87",
"dc c #8F9097",
"ec c #75768A",
"fc c #7C7D89",
"gc c #696B8A",
"hc c #81828A",
"ic c #717178",
"jc c #6D6E8D",
"kc c #76778E",
"lc c #7E7F8E",
"mc c #757692",
"nc c #808193",
"oc c #717290",
"pc c #818192",
"qc c #787992",
"rc c #8D8E95",
"sc c #9FA8A0",
"tc c #8E8E97",
"uc c #8D8E9A",
"vc c #93939A",
"wc c #787991",
"xc c #9A9B9D",
"yc c #95969E",
"ad c #9B9B9D",
"bd c #99999F",
"cd c #A0A0A0",
"dd c #A1A1A1",
"ed c #A2A2A2",
"fd c #A5A5A3",
"gd c #A4A3A3",
"hd c #A5A5A5",
"id c #A6A6A6",
"jd c #A7A7A7",
"kd c #A9A9A8",
"ld c #A2A2A3",
"md c #AAAAAA",
"nd c #A3A3A2",
"od c #A4A3A2",
"pd c #A7A7A4",
"qd c #A1A1A2",
"rd c #A3A2A3",
"sd c #A8A8A6",
"td c #81B484",
"ud c #98989D",
"vd c #77B87C",
"wd c #9E9EA0",
"xd c #A4A4A3",
"yd c #A2A2A1",
"ae c #80B384",
"be c #A6A6A4",
"ce c #A8A8A4",
"de c #A3A3A3",
"ee c #84B788",
"fe c #8C8D95",
"ge c #96959C",
"he c #7E7F91",
"ie c #88BB8C",
"je c #A4A4A2",
"ke c #60C667",
"le c #97969C",
"me c #878891",
"ne c #A9A8A5",
"oe c #797B8C",
"pe c #ADAEB9",
"qe c #A9A9A5",
"re c #9F9FA0",
"se c #A7A7A5",
"te c #8A8A91",
"ue c #888896",
"ve c #9999A2",
"we c #8C8C99",
"xe c #61C768",
"ye c #575981",
"af c #99999D",
"bf c #969698",
"cf c #84848E",
"df c #6A6B87",
"ef c #94949A",
"ff c #A6A6A3",
"gf c #98989C",
"hf c #787885",
"if c #7F7F91",
"jf c #777782",
"kf c #8D8D95",
"lf c #8A8A93",
"mf c #96969C",
"nf c #6C6D8A",
"of c #464873",
"pf c #92939B",
"qf c #666677",
"rf c #9E9EA1",
"sf c #A6A6A5",
"tf c #DEDFE2",
"uf c #97979D",
"vf c #838493",
"wf c #545678",
"xf c #57597A",
"yf c #515271",
"ag c #9E9E9F",
"bg c #A5A4A3",
"cg c #8C8C97",
"dg c #4C4D7B",
"eg c #00FF12",
"fg c #6D6E81",
"gg c #8C8D93",
"hg c #6F7084",
"ig c #404269",
"jg c #555774",
"kg c #A09FA0",
"lg c #747487",
"mg c #717287",
"ng c #5E5F84",
"og c #38396F",
"pg c #5B5D7D",
"qg c #6D6E87",
"rg c #616279",
"sg c #65677E",
"tg c #919198",
"ug c #5FC567",
"vg c #6F7088",
"wg c #797A88",
/* pixels */
"dddddddddddddddddddddddddddddddddddddddddddddddddddddddddddddddd",
"dddddddddddddddddddddddddddddddddddddddddddddddddddddddddddddddd",
"ddddddddddddddddddddddddddddddcdddcdddddddddddddcdddddddcddddddd",
"aetdaeaeaevdkekekekekekekekekekekekekekekekexekekekekekekekekeug",
"egegegegegegegegegegegegegegegegegegegegegegegegegegegegegegegeg",
"egegegegegegegegegegegegegegegegegegegegegegegegegegegegegegegeg",
"ieeeeeeeeeeeeeeeeeeeeeeeeeeeeeeeeeschdidkdycuchdhdhdhdhdhdhdhdmd",
"jdedededededededededededededededededfdgdwbpajbldndededededededjd",
"jdddddddddddddddddddddddddddddddedodbdocgbmbadedndpdddddddddddjd",
"jdddddddddddddddddddddddddddddndqdncjcpcrdsdndndudkcwdedddddddjd",
"jdddddddddddddddddddddddddddndfdpbiblcvcxdddddndtbnbwdndddddddjd",
"jdddddddddddddddddddddddddydbewblbrcqcmcdcndcecbgbtcxdddddddddjd",
"jdddddddddddddddddddddddyddebcvaxcecwcubfecegefbhepdddddddddddjd",
"jdddddddddddddddddddddddjeletasbmeqbrbfcnendobxbpdddddddddddddjd",
"jdddddddddddddddddddddddedadoepevbbbqdqeycybebrendddddddddddddjd",
"jdddddddddddddddddddddddseteuetfveacwegcyeccafxdddddddddddddddjd",
"jdddddddddddddddddydjeedbfnahccficsawadfefffndddddddddddddddddjd",
"jdddddddddddddddjeedgfhfifxarayajfkflfxdxdddddddddddddddddddddjd",
"jdddddddddedjebemfnfofhbpfqfdbrfsffdfdddddddddddddddddddddddddjd",
"jdddddddxdreufvfwfkbxfyfoaabagbgddddddddddddddddddddddddddddddjd",
"jdddddndcgdgqamafggghgigjgkgxdddddddddddddddddddddddddddddddddjd",
"jdddddedlgmgngogpgqguargrfxdddddddddddddddddddddddddddddddddddjd",
"jdddddddydcdsgtgvglawgaajeddddddddddddddddddddddddddddddddddddjd",
"jdddddddydddbajeaacaaaydddddddddddddddddddddddddddddddddddddddjd",
"jdddddddddddedddddedddddddddddddddddddddddddddddddddddddddddddjd",
"daeaeaeaeaeaeaeaeaeaeaeaeaeaeaeaeaeaeaeaeaeaeaeaeaeaeaeaeaeaeada",
"fagagagagagagagagagagagagagagagagagagagagagagagagagagagagagagaha",
"egegegegegegegegegegegegegegegegegegegegegegegegegegegegegegegeg",
"iajajajajajajajajajajajajajajajajajajajajajajajajajajajajajajaka",
"dddddddddddddddddddddddddddddddddddddddddddddddddddddddddddddddd",
"dddddddddddddddddddddddddddddddddddddddddddddddddddddddddddddddd",
"dddddddddddddddddddddddddddddddddddddddddddddddddddddddddddddddd"
};
