/* XPM */
static char *aclip[] = {
/* columns rows colors chars-per-pixel */
"32 32 171 2",
"   c #131313",
".  c #181615",
"X  c #181817",
"o  c #1B1B1C",
"O  c #211E1E",
"+  c #23201F",
"@  c #1C2224",
"#  c #242323",
"$  c #282727",
"%  c #2C2C2C",
"&  c #312E2E",
"*  c #312F30",
"=  c #283439",
"-  c #353333",
";  c #33373B",
":  c #3C3A3B",
">  c #2F3B42",
",  c #3F4446",
"<  c #314651",
"1  c #3A4B54",
"2  c #3D6073",
"3  c #434243",
"4  c #484647",
"5  c #424A4B",
"6  c #4C4B4C",
"7  c #514E4F",
"8  c #4F5255",
"9  c #46555D",
"0  c #4C535A",
"q  c #565454",
"w  c #595757",
"e  c #5D5A5B",
"r  c #625E5E",
"t  c #425D6A",
"y  c #5C5D60",
"u  c #5F6569",
"i  c #546B6F",
"p  c #426371",
"a  c #596774",
"s  c #646264",
"d  c #686566",
"f  c #60666B",
"g  c #717578",
"h  c #707D7F",
"j  c #486E81",
"k  c #467186",
"l  c #4A778D",
"z  c #517182",
"x  c #50788C",
"c  c #687F81",
"v  c #747E86",
"b  c #5C8494",
"n  c #50819A",
"m  c #598A9E",
"M  c #6C8184",
"N  c #69838D",
"B  c #73828D",
"V  c #61839D",
"C  c #7B8993",
"Z  c #6C939E",
"A  c #72959C",
"S  c #5187A2",
"D  c #548CA6",
"F  c #5C8EA5",
"G  c #558EAB",
"H  c #5997B5",
"J  c #5A9BB8",
"K  c #6A8AA7",
"L  c #648EA9",
"P  c #6C97A9",
"I  c #6C99A9",
"U  c #7096A1",
"Y  c #7B93A6",
"T  c #789FA8",
"R  c #6188B4",
"E  c #629AB3",
"W  c #609FBD",
"Q  c #7BA4AF",
"!  c #63A1BE",
"~  c #6DA3B9",
"^  c #73A4B5",
"/  c #7FA7B5",
"(  c #72A7B9",
")  c #71A9BF",
"_  c #7FACB8",
"`  c #6AA6C1",
"'  c #6DA9C2",
"]  c #73ADC5",
"[  c #7CAAC7",
"{  c #77B1C6",
"}  c #7EB4C6",
"|  c #7CB6CA",
" . c #818386",
".. c #8C8F95",
"X. c #8B949D",
"o. c #8698A2",
"O. c #859AAD",
"+. c #8A9EAC",
"@. c #81A7AF",
"#. c #8BAAAD",
"$. c #86A6B2",
"%. c #8DA2B4",
"&. c #87ADB4",
"*. c #8BADB1",
"=. c #8BA5BA",
"-. c #82AFBA",
";. c #90AEBC",
":. c #8DB3B7",
">. c #8DB7BF",
",. c #A0A0A0",
"<. c #B3B3B3",
"1. c #85B9C7",
"2. c #8ABBC6",
"3. c #85BDCE",
"4. c #94BFC5",
"5. c #87B2D5",
"6. c #8EB7D7",
"7. c #83BCD1",
"8. c #8DBED8",
"9. c #94B2D1",
"0. c #90BBDB",
"q. c #9BBFDD",
"w. c #9EC5CB",
"e. c #8CC3D2",
"r. c #91C5D6",
"t. c #9BC6D7",
"y. c #94C9D6",
"u. c #99CBD6",
"i. c #95C3D8",
"p. c #97CDD9",
"a. c #9CCED9",
"s. c #9DD2DC",
"d. c #A2C8CD",
"f. c #BCC6C6",
"g. c #B5C1CC",
"h. c #A0CDD3",
"j. c #A7C1D8",
"k. c #A0CAD8",
"l. c #B3C9DE",
"z. c #A3D3DC",
"x. c #A8D6DE",
"c. c #B4D0DD",
"v. c #BECFE3",
"b. c #A7D2E1",
"n. c #A7D8E0",
"m. c #AADBE2",
"M. c #BAD1E5",
"N. c #C7D0D7",
"B. c #CAD5DB",
"V. c #CDD8DE",
"C. c #CDD8E1",
"Z. c #C0D3E8",
"A. c #D1DCE9",
"S. c #D5E7EF",
"D. c #DBE4ED",
"F. c #D3E1F0",
"G. c #DDE8F1",
"H. c #E0E4EB",
"J. c #E4E9EC",
"K. c #ECEDEE",
"L. c #ECF0EF",
"P. c #ECEDF1",
"I. c #E2EFF8",
"U. c #EDF2F6",
"Y. c #ECF6F8",
"T. c #F2F2F3",
"R. c #FCF8F5",
"E. c #F1F6F9",
"W. c #F5FAFC",
"Q. c #FEFEFE",
"!. c None",
/* pixels */
"!.!.!.!.!.!.!.!.!.!.!.Q.U.G.!.!.!.!.!.!.!.!.!.!.!.!.!.!.!.!.!.!.",
"!.!.!.!.!.!.!.!.!.!.Q.Q.Q.W.R.N.q e !.!.!.!.!.!.!.!.!.!.!.!.!.!.",
"!.!.!.!.!.!.!.!.!.W.W.!.!.!.D.U...d 6 !.!.!.!.!.!.!.!.!.!.!.!.!.",
"!.!.!.!.!.!.!.!.!.Q.!.!.- q  .L.<.!.r - !.!.!.!.!.!.!.!.!.!.!.!.",
"!.!.!.!.!.!.!.!.Q.Q.!.q r r u V.Y.!.w 7 !.!.!.!.!.!.!.!.!.!.!.!.",
"!.!.!.!.!.!.!.!.Q.C y r f b D R.J.4 q q - !.!.!.!.!.!.!.!.!.!.!.",
"!.!.!.!.!.!.!.J.J.r s N ( ` t.W.o.q : !.4 !.!.!.!.!.!.!.!.!.!.!.",
"!.!.!.!.!.!.g Q.+.c _ 7.a.] K.D.z 3 !.!.6 : !.!.!.!.!.!.!.!.!.!.",
"!.!.!.!.4 s E.Q./ y.r.S.T.9.K.[ S 6 & : 4 3 O !.!.!.!.!.!.!.!.!.",
"!.!.4 r d v Q.8.p.p.i.J.j.c.l.E x 9 3 3 - !.- !.!.!.!.!.!.!.!.!.",
"!.!.e s 3 Q.E.>.n.7.H.J.e.} P b F G 9 & !.!.: # !.!.!.!.!.!.!.!.",
"!.!.: s !.Q.K c u.i.K.t.-.Z I ) ` W n ; # % - & !.!.!.!.!.!.!.!.",
"!.!.!.7 B Q.V q #.M.D.$.Q 1.3.{ ' ! J t * - % & # !.!.!.!.!.!.!.",
"!.!.!.%.Y V.T.l.Z.R.;.w.u.e.3.| ] ' ! x & #   $ $ !.!.!.!.!.!.!.",
"!.!.!.W.g.a A.P.D.%.k.x.u.y.e.3.| ) m j 1 + X # !.O !.!.!.!.!.!.",
"!.!.Z.T.R 4 3 0 3 8 d.n.k.u.y.e.^ b b J G > # !.!.@ . !.!.!.!.!.",
"!.!.P.G.!.* 4 4 & !.f.z.s.s.2.A Z ~ ] ! ! k O X   X X !.!.!.!.!.",
"!.!.U.D.!.!.: : !.U.U.:.a.$.A _ e.3.{ ] ! H <     X .   !.!.!.!.",
"!.!.D.Q.!.!.$ : =.Q.X., h &.u.y.e.3.| { ' ! 2   X .   !.!.!.!.!.",
"!.!.!.Q.F.5.K O.W.A.$ O M x.z.u.y.e.3.| ~ p @     !.!.!.!.!.!.!.",
"!.!.!.q.E.Q.Q.Q.V.1   X 5 h.x.s.y.y.3.b =     !.!.!.!.!.!.!.!.!.",
"!.!.!.!.!.6.0.!.; % O + !.M m.x.s./ 1       !.!.!.!.!.!.!.!.!.!.",
"!.!.!.!.!.!.!.!.!.$ $ !.!.% :.4.i o     !.!.!.!.!.!.!.!.!.!.!.!.",
"!.!.!.!.!.!.Q.Q.!.o # w K.Q.L.u 3 Q.!.!.!.!.!.Q.Q.Q.Q.Q.!.!.!.!.",
"!.!.!.!.!.!.Q.Q.!.!.o K.<.. <.T.d Q.!.!.!.!.!.Q.!.!.!.Q.!.!.!.!.",
"!.!.!.!.!.!.Q.Q.!.!.,.T.    !.!.!.Q.!.!.!.!.!.Q.!.!.!.Q.!.!.!.!.",
"!.!.!.!.!.Q.Q.Q.Q.!.!.T.o !.!.!.!.Q.!.!.!.!.!.Q.W.T.R.Q.!.!.!.!.",
"!.!.!.!.!.Q.Q.Q.Q.!.!.Q.!.!.!.!.!.Q.!.!.!.!.!.Q.Q.Q.Q.!.w !.!.!.",
"!.!.!.!.!.Q.Q.Q.Q.!.!.Q.Q.!.Q.Q.!.Q.!.!.!.!.!.Q.!.!.!.!.!.!.!.!.",
"!.!.!.!.Q.Q.!.!.Q.Q.!.!.Q.Q.Q.!.!.Q.Q.Q.Q.Q.!.Q.!.!.!.!.!.!.!.!.",
"!.!.!.!.!.!.!.!.!.!.!.!.!.!.!.!.!.!.!.!.!.!.!.!.!.!.!.!.!.!.!.!.",
"!.!.!.!.!.!.!.!.!.!.!.!.!.!.!.!.!.!.!.!.!.!.!.!.!.!.!.!.!.!.!.!."
};
