/* XPM */
static char *AMXtras[] = {
/* columns rows colors chars-per-pixel */
"32 32 256 2",
"   c #7C280E",
".  c #7D2E13",
"X  c #735D57",
"o  c #5C6A55",
"O  c #823B1F",
"+  c #953A18",
"@  c #AD441D",
"#  c #8A4427",
"$  c #9E4D33",
"%  c #91573E",
"&  c #A44F2F",
"*  c #A55233",
"=  c #DE7A00",
"-  c #C6592E",
";  c #C55D36",
":  c #CD673C",
">  c #D7673C",
",  c #9B5A41",
"<  c #9C684D",
"1  c #AE6043",
"2  c #B96543",
"3  c #A26A55",
"4  c #A1775E",
"5  c #A87356",
"6  c #8A7967",
"7  c #927F6D",
"8  c #8B7674",
"9  c #8A7F72",
"0  c #A7766A",
"q  c #D56C42",
"w  c #DE7349",
"e  c #E77446",
"r  c #E57A4E",
"t  c #EF7B4E",
"y  c #EA7342",
"u  c #F67D4D",
"i  c #FD7E4B",
"p  c #F77945",
"a  c #E77F58",
"s  c #E17F54",
"d  c #F37D50",
"f  c #678262",
"g  c #E08605",
"h  c #E08608",
"j  c #E1890B",
"k  c #E28C13",
"l  c #E28F18",
"z  c #E3911C",
"x  c #E39423",
"c  c #E49729",
"v  c #E5982A",
"b  c #E69F39",
"n  c #E49B33",
"m  c #E7A13C",
"M  c #8E887B",
"N  c #978D76",
"B  c #988773",
"V  c #9F917D",
"C  c #B28A6E",
"Z  c #A28C74",
"A  c #A88371",
"S  c #A69077",
"D  c #A3947D",
"F  c #A99279",
"G  c #B6987C",
"H  c #FE814E",
"J  c #EA845E",
"K  c #F58153",
"L  c #FD8554",
"P  c #FF8856",
"I  c #FF8A59",
"U  c #E5A243",
"Y  c #E8A443",
"T  c #E6A64A",
"R  c #E9A849",
"E  c #E9AC53",
"W  c #E8AF5B",
"Q  c #CF8765",
"!  c #D7926C",
"~  c #CE8E7A",
"^  c #C09173",
"/  c #DE9F7E",
"(  c #DA9672",
")  c #EA8A65",
"_  c #F0966A",
"`  c #E69879",
"'  c #D8A37F",
"]  c #EBB364",
"[  c #E8B46A",
"{  c #EABA74",
"}  c #ECBC79",
"|  c #EFC07F",
" . c #9E8E82",
".. c #9E988D",
"X. c #A69583",
"o. c #A99482",
"O. c #A49D86",
"+. c #AA9982",
"@. c #A59C8F",
"#. c #B49D88",
"$. c #A79E9E",
"%. c #A99895",
"&. c #8DAA8B",
"*. c #90A48E",
"=. c #9AB89F",
"-. c #ACA28A",
";. c #B3A58D",
":. c #B7A589",
">. c #AAA490",
",. c #BAAB90",
"<. c #B4A59C",
"1. c #BAA999",
"2. c #BFB192",
"3. c #BEB09B",
"4. c #AB9FA0",
"5. c #ADA6A2",
"6. c #B7A7A2",
"7. c #B8ABAC",
"8. c #B4AAA7",
"9. c #BEB9AB",
"0. c #BEB5AB",
"q. c #AEA7B0",
"w. c #BBB3B5",
"e. c #C69C85",
"r. c #E09B80",
"t. c #C5AB8D",
"y. c #C8A38C",
"u. c #DBA98F",
"i. c #DDB28E",
"p. c #C6AF93",
"a. c #C3A898",
"s. c #D6AB9B",
"d. c #C0B496",
"f. c #C3B59C",
"g. c #CBBC9D",
"h. c #C7B89B",
"j. c #D4B799",
"k. c #E6A089",
"l. c #F0A68A",
"z. c #E9BE80",
"x. c #EFAD93",
"c. c #E8B798",
"v. c #C5B7A0",
"b. c #CEBDA2",
"n. c #C7B9A2",
"m. c #DEB3A2",
"M. c #D1BFA1",
"N. c #C5BFBC",
"B. c #CABBB2",
"V. c #D2BFB9",
"C. c #E6BEAF",
"Z. c #E8B8A4",
"A. c #A7C0A7",
"S. c #AEC1AA",
"D. c #EBC48D",
"F. c #EDC892",
"G. c #F1CA93",
"H. c #F3CE9B",
"J. c #FAC09F",
"K. c #F3D19F",
"L. c #CEC2A3",
"P. c #CDC4AD",
"I. c #D4C4A5",
"U. c #D8C8A6",
"Y. c #D5C4AB",
"T. c #D5C9AA",
"R. c #DCCCAC",
"E. c #DBC6AA",
"W. c #DFD2AE",
"Q. c #CDC3BB",
"!. c #CFC2B3",
"~. c #D4C7B9",
"^. c #E7C7A1",
"/. c #EDCEA1",
"(. c #E2CEAE",
"). c #F7CDAB",
"_. c #EFD1A6",
"`. c #EDD1AA",
"'. c #F4D3A5",
"]. c #F3D6AC",
"[. c #EAC5B7",
"{. c #E4D5B2",
"}. c #EFD6B0",
"|. c #E9DAB6",
" X c #ECDDB9",
".X c #E6D8B3",
"XX c #F4DBB5",
"oX c #F4DEBB",
"OX c #F1D7B1",
"+X c #EFE1BC",
"@X c #F3E2BE",
"#X c #F6E2B5",
"$X c #C9C4C2",
"%X c #CAC7C7",
"&X c #D2C9C3",
"*X c #C6DECE",
"=X c #DCD4CA",
"-X c #D9D8CA",
";X c #CACBD0",
":X c #CED9D2",
">X c #D6D7D4",
",X c #E4CDC4",
"<X c #EDDCC2",
"1X c #E1D8CF",
"2X c #E1D1CD",
"3X c #E8D7D1",
"4X c #E2D8D5",
"5X c #CDE5D6",
"6X c #EFE8C7",
"7X c #E6E4CE",
"8X c #F5E4C3",
"9X c #F6E9C4",
"0X c #F3E3CC",
"qX c #F8E5C9",
"wX c #FBEDCA",
"eX c #F8E9C7",
"rX c #FDF2CD",
"tX c #EBE3D5",
"yX c #EBE3DE",
"uX c #F2E5D1",
"iX c #FAEBD3",
"pX c #F4EBDE",
"aX c #FAEEDC",
"sX c #F5EBD5",
"dX c #F6F2D6",
"fX c #FEF5D3",
"gX c #FFF9D6",
"hX c #F6F7DD",
"jX c #FBF5DC",
"kX c #FFFCDB",
"lX c #DFE6E9",
"zX c #E3E3E3",
"xX c #EBEAE6",
"cX c #E1E6EF",
"vX c #E2EAEA",
"bX c #EDECEC",
"nX c #E8E4E5",
"mX c #F4EEE4",
"MX c #F8EEE0",
"NX c #F3EEE8",
"BX c #F9F2E5",
"VX c #FEFCE3",
"CX c #F5F2EB",
"ZX c #FBF5EC",
"AX c #FDFAED",
"SX c #F4F0E7",
"DX c #EDF2F3",
"FX c #EDF7FC",
"GX c #F3F3F3",
"HX c #F8F7F7",
"JX c #F7F8F7",
"KX c #FDFBF5",
"LX c #F3F6FA",
"PX c #F9F7F8",
"IX c #F5FAFC",
"UX c #FEFEFE",
/* pixels */
"zXzXzXzXzXzXzXzXzXnXvXlXlXcXvXzXnXzXzXzXzXzXzXzXzXzXzXzXzXzXzXzX",
"GXGXGXGXGXGXGXLXDX=XZ.l.l.x.[.yXvXLXGXGXGXGXGXGXGXGXLXLXGXLXLXGX",
"GXGXbXDXDXGXLX3Xr.u i H i i i ) ) 3XFXDXbXGXGXDXGXbX} `.n T NXGX",
"GXGXGXCXGXFXm.t i P P P L K u d u ) r.` 2XFXCXCXLX`.U } x U z.LX",
"GXCXCXLXxXu.> - ; q e p L K d L P P i p C.LXGXGXLXD.D.W { D.[ LX",
"GXGXGXLX~ @ # 5 t.T.j.( s e d P P P P L K ,XLXGXLX0Xz j `.c ^.LX",
"LXGXIXn.+ # j.wXgXrXfXVXhXj.2 : K I I P u J nXGXLXLX<X<XLX<XGXLX",
"GXPXnX$ . y.8Xc.! ' i.c.).VX7XG * : r r w > s.LXGXGXIXNXD.U /.IX",
"LXIXa.  % c.U.C ^ ;.+.:.t. XkXVX3., & 2 q q J bXPXmX[ v j U uXLX",
"HXPX3 . 3 C p.g.,.+.0.>X-XP. XkXVXP.1 y / <X_ [.IX`.= D.{ `.UXHX",
"PXIX0 , G Z F g.I.%XlX5XvXGX|.fXfXkXg.; Z.7X^.Z.IXSX{ c g m uXIX",
"PXIXB.< o.8.<.t.E.>X*Xf &.IXsXrXfXgXfXe.Q rXfXZ.LXLXUXSXF.U '.IX",
"PXPXGXA q.cXA.2.E.%X5X*.=.CXrXrXfXrXrX6Xp.dXuXy.GXLXpXCXIXCXmXLX",
"PXPXUX=Xw.:Xo B XXV.&X>XtXwXrXfXrXwX9X9X8X>.4 e.UXaXz v v h /.UX",
"IXPXUXzXq.;X9.3.wX|.I.(.XXwXrXrXwX9X@X+X|.T.4 V.UXOXW { T 8XCXPX",
"UXPXUXbX4.7.P. XkXfX9XXX X9X9X9X9X@X X.XR.f.X.GXUXOXE [ E OXaXUX",
"UXPXUXPX1.#.,.8XfXrX+XR.{.|.+X+X|. X.XW.g.>.vXUXUX0Xx x x k '.UX",
"PXPXUXIX!.(.F S d.U.R.L.R.{..X.X{.W.R.L.-.Q.UXUXUXaX8XPXKXHXIXPX",
"UXUXUXUX&Xb.#.7 -.I.R.,.;.I.R.W.W.R.T.-.5.IXUXUXUX].] KXHXZXKXUX",
"UXUXUXUXCXf.,.o.n.L.2.V 6 ;.T.R.R.T.2.<.GXUXUXUXUXoXg j j g '.UX",
"PXUXUXUXUX4X+.D o.3.b.U.g.h.R.W.R.g.9.LXUXUXUXUXUXXXm K.H.H.aXUX",
"UXUXUXUXUXUXB.V o.3.T.R.U.T.W.R.M.*.yXUXIXUXUXUXUX8XK.UXUXUXUXUX",
"UXUXUXUXUXUXUX<.7 X.v.I.L.g.g.,.N M xXUXUXUXUXUXUX8XG.UXUX} '.UX",
"UXUXUXUXUXUXUXbX .6 V O.V N -.B.6 M.jXUXUXUXUXUXUXaXb E E Y iXUX",
"UXUXUXUXUXUXUXUXbX@.9 9 ..w.%XN.S #XfXGXUXUXUXUXUXKX} j g G.KXUX",
"UXUXUXUXUXUXUXUXUXUXCXGXUXKX8 X I.rXAXZXGXUXUXUXUXoXx qX8Xl '.UX",
"UXUXUXUXUXUXUXUXUXUXUXUXUX>X8 ~.ZXBXAXAXUXGXPXUXUXKXUXUXUXKXBXUX",
"UXUXUXUXUXUXUXUXUXUXUXUXUX$X<.ZXaXAXxX=XKXPXCXUXUXiXXXaXMX'.qXUX",
"UXUXUXUXUXUXUXUXUXUXUXUXUXw.6.pXBXKXCX!.BXKXDXUXUX].} G.'.E G.UX",
"UXUXUXUXUXUXUXUXUXUXUXUXUX8.%.tXSXKXKXQ.yXUXbXUXUXXXv m Y z H.UX",
"UXUXUXUXUXUXUXUXUXUXUXUXUX4.%.tXZXKXUXQ.4XUXGXPXUXiXY R R Y @XUX",
"UXUXUXUXUXUXUXUXUXUXUXUXUX5.8.pXAXIXUXQ.~.KXPXGXUXUXUXUXUXUXUXUX"
};
