/* XPM */
static char *animutil[] = {
/* columns rows colors chars-per-pixel */
"32 32 59 1",
"  c #2C2C2C",
". c #323232",
"X c #3B3B3B",
"o c #424242",
"O c #4A4A4A",
"+ c #4F4F50",
"@ c #4F504F",
"# c #4F5050",
"$ c #504F4F",
"% c #504F50",
"& c #50504F",
"* c #545454",
"= c #575758",
"- c #585857",
"; c #5D5D5D",
": c #646464",
"> c #6B6B6B",
", c #706F70",
"< c #747474",
"1 c #7B7B7B",
"2 c #12FE00",
"3 c #1EF10E",
"4 c #19F808",
"5 c #24EA15",
"6 c #2AE71B",
"7 c #2AE81B",
"8 c #20F211",
"9 c #2EE121",
"0 c #34E427",
"q c #4ABC41",
"w c #5EAA59",
"e c #57BB4F",
"r c #5ABC53",
"t c #6E9D6A",
"y c #748273",
"u c #7A8279",
"i c #729D6E",
"p c #7FA67C",
"a c #77B273",
"s c #46D23C",
"d c #818B7F",
"f c #828282",
"g c #8B8B8B",
"h c #889987",
"j c #939393",
"k c #9A9A9A",
"l c #A0A0A0",
"z c #A7A7A8",
"x c #AAABAA",
"c c #B2B2B2",
"v c #BDBDBD",
"b c #C1C1C1",
"n c #CBCBCB",
"m c #D0D0D0",
"M c #D8D8D8",
"N c #E6E6E6",
"B c gray92",
"V c #F2F2F2",
"C c gray100",
/* pixels */
"                                ",
" . .. .... ..  ..  ....  . ..  .",
"................................",
"X.X.X.;V.X;V>.bv.VCC;;CjXvv..X.X",
"XXXXXXvCjX;CvXvvXXVjX;CN1VvXXXXX",
"XXXXXONMbX:VBkbvXXVko:CVMVbXXXXX",
"ooooo:CcVo:VkbbbooVko:CcVvbooooo",
"ooooobNbVk>VoVNbooVko>C<zkbooooo",
"OOOO*NbbMx>VOkCboOVkO>C>OkbOOOOO",
"OOOO>C<Olb<VO-NbOVCC><C>OlbOOOOO",
"#O##O*O**O@**OO***O%%+O*@$$O%#*O",
"*********$**********************",
"==;*==*=***--*****=*;*********=-",
";;bz;1C1VCCC1;nCCz1C1;;;;nCCN>;;",
";;nx;fC1;xn;;;;nx;1C1;;;1Vg>Nn;;",
";:nx;fCf:xn::;:nx;fCf:::fVg::::;",
">:nx:fCf:xn::;>nc:fCf::::nCCN<::",
">>nc>gCf>cm>>>>nc>gCg>>>>>><Bn>>",
">>cm>cB1>cn>>,>mc>gCg>,>gVj1Bn>>",
"<<1VCCc<<cn<<<mCCcgCCCCm<nCCB1<<",
"<<<<<<1<1<<<<<<<<<<<<<<<<<<<<<<<",
"1<11111<111111111111y11111111111",
"111111111111111f11115qu11u111111",
"fffffffffffffffuffff823wffffffff",
"ffffgfgfuttttttttttt82229iffffff",
"gggfgfggp77777776666422222eggggg",
"gggggggggggggggggggg82224rgggggj",
"jjjjjjjjjgjjjjjjjjjj822shjjjjjgj",
"jjkjjjjjjkjjjjjjjjjk50pjjjjjjjjj",
"kjkkkkkkkkkkkkkkkjkkakkjkkkkkkkk",
"kklkkkkkkklkkklkkkkklkklkkklklkk",
"llllllllllllllllllllllllllllllll"
};
