/* XPM */
static char *animoffset[] = {
/* columns rows colors chars-per-pixel */
"32 32 104 2",
"   c #020202",
".  c #0A0A0A",
"X  c #131313",
"o  c #1A1A1A",
"O  c #1F1F20",
"+  c #1E211E",
"@  c #201F1F",
"#  c #242424",
"$  c #272728",
"%  c #252B25",
"&  c #272828",
"*  c #282727",
"=  c #282728",
"-  c #282827",
";  c #2B2B2B",
":  c #2D342D",
">  c #363426",
",  c #333333",
"<  c #353835",
"1  c #3A3A3A",
"2  c #3E443F",
"3  c #3E583E",
"4  c #2F702F",
"5  c #346234",
"6  c #3F4040",
"7  c #403F3F",
"8  c #403F40",
"9  c #4B4525",
"0  c #40403F",
"q  c #4A4834",
"w  c #524C23",
"e  c #625C33",
"r  c #75691F",
"t  c #726C3F",
"y  c #7B712F",
"u  c #7F7533",
"i  c #424242",
"p  c #434943",
"a  c #484748",
"s  c #4D4B41",
"d  c #4A4A4A",
"f  c #475148",
"g  c #4E534E",
"h  c #535353",
"j  c #545954",
"k  c #5B5B5B",
"l  c #596158",
"z  c #6A664A",
"x  c #666455",
"c  c #696654",
"v  c #7C7540",
"b  c #646364",
"n  c #646B64",
"m  c #6C6C6C",
"M  c #607F60",
"N  c #6B706A",
"B  c #727272",
"V  c #7B7B7B",
"C  c #7E7F80",
"Z  c #0E970E",
"A  c #0CA60C",
"S  c #0EB60E",
"D  c #0CB80B",
"F  c #11AA11",
"G  c #1FAC1F",
"H  c #14B314",
"J  c #14B914",
"K  c #1BB21B",
"L  c #1AB81A",
"P  c #20B220",
"I  c #22BB22",
"U  c #07CD07",
"Y  c #0FD60F",
"T  c #1BC51B",
"R  c #10D510",
"E  c #24C424",
"W  c #25C925",
"Q  c #28C428",
"!  c #2AC92A",
"~  c #30C330",
"^  c #598659",
"/  c #519251",
"(  c #45AA44",
")  c #678067",
"_  c #887A1C",
"`  c #887F40",
"'  c #968614",
"]  c #908226",
"[  c #90832A",
"{  c #9F8F28",
"}  c #B39D11",
"|  c #A99827",
" . c #C4AB0A",
".. c #C0AA10",
"X. c #C9B00C",
"o. c #D7BC08",
"O. c #DDC109",
"+. c #E3C503",
"@. c #E7C903",
"#. c #ECCD00",
"$. c gray52",
"%. c #ACACAC",
"&. c #EEEEEE",
"*. c gray100",
/* pixels */
"$.$.$.$.$.$.$.$.$.$.$.$.$.$.$.$.$.$.$.$.C $.$.$.$.$.$.$.$.$.$.$.",
"C V V V ` C C C C ` C C C C C C C C C C C C C C C C C C C ` C C ",
"V V V V C C C C V V V V C C C C C C C C C C V V V V B V C C C C ",
"B B B B b m C C B B M ~ ~ ~ I ~ ~ ( I I I ( B B B B B B m b C C ",
"m B m B b C b m m N ! W / ^ ^ ^ ^ ^ ^ ^ ^ ) B m b C b C b C b m ",
"b b b b b b b b b Q W n b b m b n b b b b n b b b b b b b b b b ",
"b b b k b k b b Q W k b b b b k b b k b b b k b k b b k b b b k ",
"k k k k k k k I T k ` c k k k k k x k k k k k k k k k k k k k k ",
"h h h k h h I T j v @.O.z h h h j O.| h h h k h h h j j h h h k ",
"d h h d g I T h h { #.#.@.t h h h @.@.h h h g h h h h j h h d h ",
"d d d d I T d d d d [ #.#.#.` d d @.@.g d d h d 8 h d 6 h 6 d d ",
"L P G R R 6 6 6 p p p u #.#.@.[ s #.O.d 6 6 6 6 6 P P G P K G G ",
"6 6 6 6 6 6 6 6 8 8 8 8 e @.#.#...#.o.i 6 6 6 6 H U 4 6 5 5 5 5 ",
"1 1 1 1 1 1 1 1 1 1 1 1 1 q +.#.#.#.X.1 1 1 1 H J 2 6 1 1 1 1 1 ",
", , , , < , , , , , , , < , _ #.#.#.} < , , H J < , , < < , , < ",
", , , ; , , , , , , r ..+.#.#.#.#.@._ , : F J : , , , ; , , ; , ",
"; ; ; ; ; ; ; ; ; ; 9 @.#.@. .' w ; ; ; F D : ; ; ; ; ; ; ; ; ; ",
"& & - & & - & & & - - > > & - & * - & F D % = * & & = = = & * ; ",
"# # # # # # # # # # # # # # # # # # A S % # # # # # # # # # # # ",
"@ @ + O O @ O o + Z A A A A A A A U U + @ @ @ @ @ @ @ @ o @ @ @ ",
"o o o o o o o o o o o o o o o o o o o o o o o o o o o o o o o o ",
"o o X o X o o o o X o o X o o o o o o X o o X o o o o o o o o o ",
"X X X o X X X X X X X X X X X X X X X X X X X X X X X X X X X X ",
"X . X X X X X X X X X X X X X X X X X X X X X X X X . X X X X X ",
"X . V *.*.V X V *.*.*.*.&.1 *.*.*.*.*.1 g &.*.*.%.. 1 *.*.*.*.i ",
". 1 *.V V *.1 V &.. . . . 1 *.1 . . . . &.%.. d &.V . . %.%.. . ",
". %.%.. X %.%.` &.. . . . 1 *.1 . . . . &.%.. . . . . . %.%.. . ",
". %.%.. . %.%.C *.*.*.&.. 1 *.*.*.*.< . d &.*.*.%..   . %.%..   ",
"  %.%.  . %.%.C &.        , *.,       .       a &.V     %.%.    ",
"  , *.V C &., C &.        , *.,         &.%.  a &.V     %.%.    ",
"    B *.*.B   C &.        , *.,         i &.*.*.%.      %.%.    ",
"                                                                "
};
