/* XPM */ 
static char * anim_transfer_xpm[] = {
"32 32 563 2",
"  	c None",
"! 	c #C5B9AD",
"# 	c #C3BAAB",
"$ 	c #C2B9AA",
"% 	c #C6BAAC",
"& 	c #C3BAA8",
"' 	c #C3BAA9",
"( 	c #C2BBA9",
") 	c #C5B9A9",
"* 	c #C5B9AB",
"+ 	c #C6BAAA",
", 	c #C6B9A9",
"- 	c #C2BCA6",
". 	c #C4BBA9",
"0 	c #F5F1CE",
"1 	c #F5F3CD",
"2 	c #F4F0CD",
"3 	c #F3F0CD",
"4 	c #F3F1CB",
"5 	c #F3F1CA",
"6 	c #F4F2CC",
"7 	c #ECE7C7",
"8 	c #D9D2B5",
"9 	c #C7BDA2",
": 	c #B7AD92",
"; 	c #B6AC93",
"< 	c #B7AC96",
"= 	c #B6AB95",
"> 	c #BAB097",
"? 	c #CDC6AA",
"@ 	c #E1DDBA",
"A 	c #F3EFCC",
"B 	c #F3F3CD",
"C 	c #F1F2CA",
"D 	c #F2F2D0",
"E 	c #F5F1CC",
"F 	c #F1F1CD",
"G 	c #F4F1CE",
"H 	c #EBE5C5",
"I 	c #9F9480",
"J 	c #8B7E6E",
"K 	c #8D7D6D",
"L 	c #8C7C6D",
"M 	c #8B7E6D",
"N 	c #8A7D6D",
"O 	c #8D7E6B",
"P 	c #8C7C6C",
"Q 	c #988B78",
"R 	c #DCD5B9",
"S 	c #F6F2CF",
"T 	c #F5F1CB",
"U 	c #F0EEC8",
"V 	c #F2F2CC",
"W 	c #F1F1CB",
"X 	c #F4F2C9",
"Y 	c #E2DDBD",
"Z 	c #978C78",
"[ 	c #8D7D6E",
"] 	c #8B7D70",
"^ 	c #8A7D6C",
"_ 	c #8E7C6E",
"` 	c #8D7B6D",
"a 	c #8E7E6F",
"b 	c #8A7C6F",
"c 	c #8C806A",
"d 	c #CBC4A7",
"e 	c #EFEBC6",
"f 	c #DFD6B9",
"g 	c #918674",
"h 	c #8D7D70",
"i 	c #928574",
"j 	c #C1B59D",
"k 	c #D7CEB1",
"l 	c #DEDAB7",
"m 	c #DFDCB9",
"n 	c #DDDAB9",
"o 	c #DFDABA",
"p 	c #D4CDB0",
"q 	c #A39C82",
"r 	c #A39980",
"s 	c #F4EFCF",
"t 	c #F0F2CA",
"u 	c #EFECC9",
"v 	c #C4BAAE",
"w 	c #C7BBAB",
"x 	c #F2EFCC",
"y 	c #AFA38B",
"z 	c #897C6C",
"{ 	c #B3A892",
"| 	c #EFE9C5",
"} 	c #D9D4B4",
"~ 	c #C9C4A4",
" !	c #8D7B6F",
"!!	c #8F7F6F",
"#!	c #A19481",
"$!	c #A0957F",
"%!	c #B2AB91",
"&!	c #C1BA9D",
"'!	c #EEECC6",
"(!	c #EDE9C4",
")!	c #8C816F",
"*!	c #8E7C70",
"+!	c #8C816D",
",!	c #F1ECCC",
"-!	c #EDE8C8",
".!	c #A49A81",
"0!	c #A19680",
"1!	c #EAE6C3",
"2!	c #F4F0CB",
"3!	c #C4B8A8",
"4!	c #897D6D",
"5!	c #8D7C6C",
"6!	c #A69784",
"7!	c #F2EECB",
"8!	c #AFA48E",
"9!	c #8C7D6A",
":!	c #AA9E86",
";!	c #ECECC6",
"<!	c #ECECC8",
"=!	c #8A7E6E",
">!	c #9B907A",
"?!	c #F2F2CE",
"@!	c #F4F0CA",
"A!	c #BBB49A",
"B!	c #877E6C",
"C!	c #B6AF95",
"D!	c #F3F0CF",
"E!	c #F6F0CE",
"F!	c #EEEBCA",
"G!	c #C2B9A7",
"H!	c #F5F2CF",
"I!	c #DCD3B6",
"J!	c #F4F2CB",
"K!	c #F5EFCB",
"L!	c #C6BFA2",
"M!	c #907F6F",
"N!	c #C2BB9F",
"O!	c #ECECCA",
"P!	c #C4BBAA",
"Q!	c #DEDBBA",
"R!	c #DED9B9",
"S!	c #E0DDBC",
"T!	c #EFEFC9",
"U!	c #FAF6D0",
"V!	c #F7F2CC",
"W!	c #F2F3CB",
"X!	c #F2EEC9",
"Y!	c #F5F0CA",
"Z!	c #DACFB1",
"[!	c #D1CCAC",
"]!	c #F8F5D2",
"^!	c #F0F2CB",
"_!	c #C3B7A9",
"`!	c #C5BCAB",
"a!	c #F3F3CF",
"b!	c #F2E5BB",
"c!	c #F8E2B3",
"d!	c #FBE4B0",
"e!	c #FBE6B1",
"f!	c #FCE5B3",
"g!	c #F5E0AB",
"h!	c #F1E8BF",
"i!	c #F4F4CE",
"j!	c #F4DFB4",
"k!	c #F8E4B2",
"l!	c #FCE5B1",
"m!	c #FDE6B2",
"n!	c #F9E2B0",
"o!	c #F3E2B4",
"p!	c #F1EEC3",
"q!	c #F6F1CB",
"r!	c #F0E1B6",
"s!	c #F5DEAC",
"t!	c #FBE6AD",
"u!	c #FFF5BA",
"v!	c #FFF8C1",
"w!	c #FFF1B8",
"x!	c #FEE9B2",
"y!	c #FFE4AC",
"z!	c #F3D9A6",
"{!	c #E9E2B8",
"|!	c #F3F3D1",
"}!	c #F6F2CD",
"~!	c #EFEDC7",
" #	c #E9D7A9",
"!#	c #FEE1A9",
"##	c #FEE9B0",
"$#	c #FEEEB3",
"%#	c #FCF6BA",
"&#	c #FEF8BC",
"'#	c #FEEBB3",
"(#	c #FBDFAD",
")#	c #F3DEB3",
"*#	c #F0ECC6",
"+#	c #F6F4CE",
",#	c #F5F0D0",
"-#	c #F7F3CD",
".#	c #D7C9A4",
"0#	c #D5BA8B",
"1#	c #E2C696",
"2#	c #E0C693",
"3#	c #D8C18B",
"4#	c #EDDCA4",
"5#	c #FFF7BA",
"6#	c #FEEEBA",
"7#	c #FEE7B1",
"8#	c #FEE0AA",
"9#	c #E8D0A0",
":#	c #EFEAC4",
";#	c #E7D4AA",
"<#	c #F8D9A3",
"=#	c #FFE6AD",
">#	c #FFEAB8",
"?#	c #FFF6BB",
"@#	c #F9EDB3",
"A#	c #DEC992",
"B#	c #DCC291",
"C#	c #E4C899",
"D#	c #DBC091",
"E#	c #D1BC8F",
"F#	c #EDE7C3",
"G#	c #F6F3D0",
"H#	c #C2B9A8",
"I#	c #F5F2D1",
"J#	c #DFDAB4",
"K#	c #AE9873",
"L#	c #C7B084",
"M#	c #DEC394",
"N#	c #BEAB8B",
"O#	c #D3C6BE",
"P#	c #D9CBBE",
"Q#	c #E5DBAA",
"R#	c #FFF3B9",
"S#	c #FFEAB1",
"T#	c #FFE5AE",
"U#	c #F1D3A1",
"V#	c #E1CEA3",
"W#	c #F1F2D0",
"X#	c #EDE5C0",
"Y#	c #E4CA97",
"Z#	c #FDE1AF",
"[#	c #FFE7B4",
"]#	c #FDF1B7",
"^#	c #F6E6B2",
"_#	c #DACAB1",
"`#	c #D5CCC5",
"a#	c #BFB099",
"b#	c #CFB78B",
"c#	c #D5BF90",
"d#	c #AF9970",
"e#	c #C4B492",
"f#	c #C3BCAC",
"g#	c #C5C19C",
"h#	c #9E8D71",
"i#	c #C5B18E",
"j#	c #D6C08F",
"k#	c #EDE9E6",
"l#	c #CAD8C9",
"m#	c #C7D4CD",
"n#	c #EDE6D6",
"o#	c #FAE9B3",
"p#	c #FFEAB3",
"q#	c #FCE3AD",
"r#	c #ECD2A1",
"s#	c #D7C297",
"t#	c #D0BE98",
"u#	c #E1C697",
"v#	c #F5DFA6",
"w#	c #FFE6B3",
"x#	c #FFEFB3",
"y#	c #E8D9BC",
"z#	c #E1E5E6",
"{#	c #B4C7B3",
"|#	c #F6F8F7",
"}#	c #DCCDB0",
"~#	c #D2BA8E",
" $	c #AF9E80",
"!$	c #A29978",
"#$	c #CEC9A9",
"$$	c #E7E6E2",
"%$	c #B5B4A0",
"&$	c #C5AF88",
"'$	c white",
"($	c #81937B",
")$	c #748572",
"*$	c #FDF9EE",
"+$	c #FAE3AD",
",$	c #F7D9A5",
"-$	c #C6B48C",
".$	c #F2F0CA",
"0$	c #BDAF8C",
"1$	c #D3BC90",
"2$	c #EED4A1",
"3$	c #FDDFAB",
"4$	c #FFE5B0",
"5$	c #FCF3D6",
"6$	c #BCCEC2",
"7$	c #4E6845",
"8$	c #F3FEF6",
"9$	c #ECDEC4",
":$	c #AFA582",
";$	c #E2E4DF",
"<$	c #D0C9B9",
"=$	c #EFEDC6",
">$	c #C4BBAC",
"?$	c #F4F4D2",
"@$	c #EFEACD",
"A$	c #FDFFFA",
"B$	c #707F68",
"C$	c #BEA97C",
"D$	c #E5D8C5",
"E$	c #E5E7DA",
"F$	c #EAE8CF",
"G$	c #FDEAC0",
"H$	c #F4DBA5",
"I$	c #E1C999",
"J$	c #C8B084",
"K$	c #BAAA86",
"L$	c #C2B998",
"M$	c #BAA47B",
"N$	c #DBC093",
"O$	c #EFD5A2",
"P$	c #F9E5AA",
"Q$	c #FEE9B4",
"R$	c #F4EACF",
"S$	c #E7EAD5",
"T$	c #E3DFD6",
"U$	c #E6CEA8",
"V$	c #767A59",
"W$	c #CADCCE",
"X$	c #F8F4E9",
"Y$	c #EFF0C8",
"Z$	c #F4F1D0",
"[$	c #E9E9C5",
"]$	c #E2DDD9",
"^$	c #D4CDBA",
"_$	c #EADEA4",
"`$	c #EEE1AC",
"a$	c #DCC196",
"b$	c #F7DBA9",
"c$	c #F9E0AA",
"d$	c #EFD3A1",
"e$	c #DFC998",
"f$	c #C9B489",
"g$	c #AA946F",
"h$	c #BCB28F",
"i$	c #E6E2BF",
"j$	c #A28F6E",
"k$	c #C0A882",
"l$	c #D7C190",
"m$	c #E7CD9C",
"n$	c #F9DAAB",
"o$	c #FDDFA9",
"p$	c #E4C99A",
"q$	c #DFCE9A",
"r$	c #FFF0B4",
"s$	c #D9CBA8",
"t$	c #E1E0DC",
"u$	c #D4D2B9",
"v$	c #B8AC86",
"w$	c #B89C77",
"x$	c #D8C492",
"y$	c #F9E4AB",
"z$	c #F3D8A1",
"{$	c #EDD49C",
"|$	c #E6CC99",
"}$	c #DCC192",
"~$	c #C9B088",
" %	c #A8946F",
"!%	c #988B6B",
"#%	c #EBE8C7",
"$%	c #F7F8D0",
"%%	c #B0A788",
"&%	c #978766",
"'%	c #C0A77F",
"(%	c #D7BB93",
")%	c #E1C796",
"*%	c #E8D19F",
"+%	c #F0D7A1",
",%	c #FCDEAC",
"-%	c #E9D7A5",
".%	c #C3AC80",
"0%	c #B49E77",
"1%	c #E4E0BB",
"2%	c #F8F6D0",
"3%	c #D7D2B2",
"4%	c #9A8661",
"5%	c #A28F67",
"6%	c #CDB086",
"7%	c #D1B689",
"8%	c #C9B183",
"9%	c #C2A883",
":%	c #B2A378",
";%	c #A58E6C",
"<%	c #918464",
"=%	c #DDD8B8",
">%	c #F6F6D2",
"?%	c #A49B7A",
"@%	c #978263",
"A%	c #B29C75",
"B%	c #BBA87D",
"C%	c #C7AE85",
"D%	c #CCB589",
"E%	c #D1B687",
"F%	c #B59B76",
"G%	c #94805D",
"H%	c #BAAB8A",
"I%	c #F9F3CF",
"J%	c #F7F8CE",
"K%	c #BCB096",
"L%	c #877A58",
"M%	c #A7916C",
"N%	c #A8906E",
"O%	c #9F8D65",
"P%	c #9B8965",
"Q%	c #917E5E",
"R%	c #89785C",
"S%	c #F8F8D2",
"T%	c #97896E",
"U%	c #897656",
"V%	c #988463",
"W%	c #A28B69",
"X%	c #A58D67",
"Y%	c #AB956E",
"Z%	c #928260",
"[%	c #9C9175",
"]%	c #F7F3D0",
"^%	c #F7F5CF",
"_%	c #D6D3B0",
"`%	c #87795C",
"a%	c #7B6A4E",
"b%	c #918062",
"c%	c #9A8D6D",
"d%	c #716646",
"e%	c #D1CDA8",
"f%	c #FAFCD7",
"g%	c #F6F6D0",
"h%	c #86785B",
"i%	c #887A5F",
"j%	c #9A8B6C",
"k%	c #8A7653",
"l%	c #837052",
"m%	c #79684A",
"n%	c #B6B194",
"o%	c #CCC8A3",
"p%	c #CDC4A5",
"q%	c #817C69",
"r%	c #7B6C4F",
"s%	c #BDAB85",
"t%	c #E2D6AE",
"u%	c #F3F4CC",
"v%	c #EBE1BD",
"w%	c #CBBD98",
"x%	c #9C8C6A",
"y%	c #645F4C",
"z%	c #C5C4A8",
"{%	c #D4D0AD",
"|%	c #C8C2A0",
"}%	c #E0DDBA",
"~%	c #FAF8D2",
" &	c #FAF8D1",
"!&	c #FFFFDB",
"#&	c #CCC9A8",
"$&	c #4D412B",
"%&	c #9A896B",
"&&	c #CAB588",
"'&	c #E7CB9B",
"(&	c #F4E5BC",
")&	c #EED6A6",
"*&	c #DDC392",
"+&	c #B8A27B",
",&	c #5F503D",
"-&	c #9F997F",
".&	c #FFFFDD",
"0&	c #F8F8D4",
"1&	c #F7F4D1",
"2&	c #F5F7D0",
"3&	c #DAD4B0",
"4&	c #B39C7A",
"5&	c #D0B98F",
"6&	c #F5D9A7",
"7&	c #E2C694",
"8&	c #F2E3B8",
"9&	c #EDD6A4",
":&	c #F1D7A4",
";&	c #E6CC9B",
"<&	c #BBA478",
"=&	c #D0C7A0",
">&	c #F7F7D1",
"?&	c #D8D2AE",
"@&	c #BFA87C",
"A&	c #ECD09E",
"B&	c #FDDFAD",
"C&	c #DEC795",
"D&	c #F2E4B7",
"E&	c #F3EFCA",
"F&	c #F0D6A3",
"G&	c #F7DEA8",
"H&	c #CFB485",
"I&	c #C9BB98",
"J&	c #F7F7D3",
"K&	c #D3CDAB",
"L&	c #C7AF81",
"M&	c #F3D9A8",
"N&	c #DAC292",
"O&	c #F1E1B0",
"P&	c #F0EBC5",
"Q&	c #E3C89B",
"R&	c #F3D7A5",
"S&	c #FBE4AE",
"T&	c #D9C191",
"U&	c #C0B28F",
"V&	c #F5F5CF",
"W&	c #D9CDA7",
"X&	c #D7BB8B",
"Y&	c #FFEDB3",
"Z&	c #DCC496",
"[&	c #F4E4B3",
"]&	c #F0E9BD",
"^&	c #F4DDA9",
"_&	c #E6CB96",
"`&	c #F1EDC8",
"a&	c #F3F1C8",
"b&	c #F1F1CF",
"c&	c #E4DAB6",
"d&	c #EAD5AA",
"e&	c #F9E9B8",
"f&	c #FAF0BD",
"g&	c #E9D6AC",
"h&	c #F2E7BA",
"i&	c #F4EDC3",
"j&	c #DED0A3",
"k&	c #F4E6B7",
"l&	c #FDECC0",
"m&	c #F3E1B1",
"n&	c #D9CBA4",
"o&	c #F2ECC8",
"p&	c #F0F0CE",
"q&	c #E8E8C6",
"r&	c #C4C4A2",
"s&	c #C4C1A2",
"t&	c #BCBB9D",
"u&	c #C0BCA1",
"v&	c #C1C0A2",
"w&	c #C3C2A3",
"x&	c #C2C1A2",
"y&	c #C3C2A4",
"z&	c #C5C1A4",
"{&	c #C0BFA1",
"|&	c #C6C2A5",
"}&	c #C1C0A4",
"~&	c #C4C0A5",
" '	c #C2C3A3",
"!'	c #BEBFA0",
"#'	c #C3BFA2",
"$'	c #C1C2A2",
"%'	c #BFBEA2",
"&'	c #BFC0A1",
"''	c #C2C3A4",
"('	c #C4C4A8",
")'	c #C4C3A5",
"*'	c #A5A488",
"+'	c #C2BBAB",
"! # $ % & ' & # ( ' # ) * + ) ) + ) % # # ) + ' ' ' + ) # , - ( ",
". 0 1 2 3 3 4 5 6 7 8 9 : ; < = ; ; ; > ? @ A B C C 4 3 D E F ' ",
"' 0 3 3 6 4 G H I J K L M M N M M M K K O P Q R S 4 T T 5 3 U ' ",
"' 6 4 V W X Y Z M P [ K ] ^ K P _ _ ` a b [ P c d 6 4 4 6 E e # ",
") 4 5 4 G f g b K O [ h i j k l m n o p q K h [ r s 4 G 4 t u v ",
"w x 3 6 4 y z K K M M { | 4 4 G s } ~ 0 3 O _  !!!#!$!%!&!3 '!+ ",
"* V 6 4 (!)!M ` *![ +!,!W 4 G W 6 -!.!K K P [ K K L [ 0!1!2!'!) ",
"3!G 4 6 W 4![ P J 5!6!4 V V 4 0 F C 7!8!N 9!] P K _ :!;!G C <!. ",
"' x 6 4 6 K _ J =!P >!4 2!2!6 4 0 ?!@!0 A![ B![ 5!C!D!6 5 E!F!G!",
"( H!E 0 4 K [ K K M M I!G 2!6 F J!K!?!5 ?!L!M!*!N!B F G J!3 O!P!",
"( H!2!3 W Q!R!S!T!U!V!@!W D 2!W!V 4 H!?!X!Y!Z![!]!2!4 T C ^!U _!",
"`!S G V V a!4 b!c!d!e!f!g!h!i!6 0 ?!V A j!k!l!m!n!o!p!F H!J!2!* ",
"' S V V q!r!s!t!u!v!w!x!y!z!{!|!2!}!~! #!###$#%#&#'#(#)#*#+#2 % ",
"P!,#W -#.#0#1#2#3#4#5#6#7#8#9#:#G 1 ;#<#=#>#?#@#A#B#C#D#E#F#G#H#",
"' I#^!J#K#L#M#N#O#P#Q#R#S#T#U#V#W#X#Y#Z#[#]#^#_#`#a#b#c#d#e#+#f#",
"& S 3 g#h#i#j#k#l#m#n#o#p#q#r#s#6 t#u#v#w#x#y#z#{#|#}#~# $!$T # ",
"P!|!3 #$$$%$&$'$($)$*$+$T#,$u#-$.$0$1$2$3$4$5$6$7$8$9$:$;$<$=$) ",
">$?$2!@$A$B$C$D$E$F$G$=#H$I$J$K$4 L$M$N$O$P$Q$R$S$T$U$V$W$X$Y$+ ",
"P!Z$V [$]$^$_$`$a$b$c$d$e$f$g$h$2!i$j$k$l$m$n$o$p$q$r$s$t$u$i!* ",
"# 0 5 S v$w$x$y$z${$|$}$~$ %!%#%2!$%%%&%'%(%)%*%+%,%-%.%0%1%G#P!",
"# I#5 2%3%4%5%6%7%8%9%:%;%<%=%>%2 V Z$?%@%A%B%C%D%E%F%G%H%I%G & ",
"# I#2!0 J%K%L%M%N%O%P%Q%R%R!S%4 G G }!G#T%U%V%W%X%Y%Z%[%1!]%4 P!",
". D G 2!H!^%_%`%a%U%b%c%d%e%f%3 5 6 g%D h%i%j%k%l%m%n%W 2%C W!! ",
"' G#4 6 6 W!S%<!o%p%Q!q%r%s%t%3 K!u%v%w%x%y%z%{%|%}%~%1 W 4 4 ) ",
"' G 6 6 4 3 3 G# &!&#&$&%&&&'&(&F V )&*&+&,&-&.&0&1&6 2!3 6 4 + ",
"' I#3 4 4 4 0 4 5 2&3&4&5&6&7&8&V .$9&:&;&<&=&>&V 3 3 5 J!6 3 H#",
">$I#G 3 4 W!2!V 6 ^%?&@&A&B&C&D&4 E&9#F&G&H&I&1&4 4 4 W 3 3 3 + ",
"+ I#6 6 6 V 2 ?!3 J&K&L&M&w#N&O&G P&Q&R&S&T&U&H!W!5 5 5 2 5 3 ) ",
"' H!6 4 6 4 G 4 4 V&W&X&c$Y&Z&[&5 ]&N&^&7#_&-$`&6 2 2 6 2!a&4 ) ",
"' a!x G b&3 ?!3 3 i!c&d&e&f&g&h&4 i&j&k&l&m&n&o&1 2!4 W J!W p&) ",
"' q&r&s&t&u&v&w&x&y&y&y&z&{&|&x&}&~& '!'#'$'z&%'&'w&''('|&)'*'# ",
"# ' ' ' # ' ' ' ' ' ' ' ' ' ' ' ' ' ' ' ' ' ' ' ' ' ' ' ' # . +'"};