/* XPM */
static char *animtools_cl[] = {
/* columns rows colors chars-per-pixel */
"32 32 256 2",
"   c #2C2C2C",
".  c #2C2D2C",
"X  c #2C2D2D",
"o  c #2D2C2C",
"O  c #2D2C2D",
"+  c #2D2D2C",
"@  c #2D2D2D",
"#  c #2E2D2C",
"$  c gray19",
"%  c #303031",
"&  c #303130",
"*  c #303131",
"=  c #313030",
"-  c #313031",
";  c gray20",
":  c #333334",
">  c #333433",
",  c #333434",
"<  c #343333",
"1  c #343334",
"2  c #343433",
"3  c #343434",
"4  c gray21",
"5  c #363736",
"6  c #363737",
"7  c #373636",
"8  c #373637",
"9  c #373736",
"0  c #373737",
"q  c #3A3A3A",
"w  c #3A3A3B",
"e  c #3A3B3A",
"r  c #3B3A3A",
"t  c #3B3A3B",
"y  c #3B3B3A",
"u  c gray24",
"i  c #3D3D3E",
"p  c #3D3E3E",
"a  c #3E3D3E",
"s  c #3E3E3D",
"d  c #3E3E3E",
"f  c #414141",
"g  c #404142",
"h  c #414142",
"j  c #414241",
"k  c #424141",
"l  c #444445",
"z  c #444545",
"x  c #454444",
"c  c #454445",
"v  c #454544",
"b  c gray27",
"n  c #484848",
"m  c #484849",
"M  c #494848",
"N  c #494849",
"B  c #4B4C4C",
"V  c #4C4B4C",
"C  c #4C4C4C",
"Z  c gray31",
"A  c #4F4F50",
"S  c #4F5050",
"D  c #504F4F",
"F  c #504F50",
"G  c #505050",
"H  c #535353",
"J  c #535354",
"K  c #535453",
"L  c #545353",
"P  c #545354",
"I  c gray33",
"U  c gray34",
"Y  c #575758",
"T  c #5A5A5B",
"R  c #5A5B5B",
"E  c #5B5A5A",
"W  c #5B5A5B",
"Q  c #5B5B5A",
"!  c #5B5B5B",
"~  c #5E5F5E",
"^  c #5E5F5F",
"/  c #5F5E5E",
"(  c #5F5E5F",
")  c #5F5F5E",
"_  c #5F5F5F",
"`  c gray38",
"'  c #616162",
"]  c #626262",
"[  c #626263",
"{  c #626362",
"}  c #626363",
"|  c #636262",
" . c #636263",
".. c #636362",
"X. c gray39",
"o. c #646465",
"O. c #646564",
"+. c #646565",
"@. c gray40",
"#. c #666667",
"$. c #666766",
"%. c #676666",
"&. c #676767",
"*. c #676768",
"=. c #6A6969",
"-. c #6A696A",
";. c #6A6A6A",
":. c #6C6C6C",
">. c #6C6C6D",
",. c #6D6D6D",
"<. c gray43",
"1. c #6F6F6F",
"2. c #706F70",
"3. c gray44",
"4. c #717171",
"5. c #717272",
"6. c #727272",
"7. c #737273",
"8. c #747474",
"9. c #767676",
"0. c gray47",
"q. c #797979",
"w. c #79797A",
"e. c #797A79",
"r. c #797A7A",
"t. c #7A7979",
"y. c #7A797A",
"u. c #7A7A79",
"i. c gray48",
"p. c #7B7B7B",
"a. c #7C7C7C",
"s. c #7D7D7E",
"d. c #7D7E7D",
"f. c #7D7E7E",
"g. c #7E7D7D",
"h. c #7E7D7E",
"j. c #7E7E7D",
"k. c #7E7E7E",
"l. c #7F7E7F",
"z. c #97816B",
"x. c #96826B",
"c. c #988877",
"v. c #998977",
"b. c #B78E63",
"n. c #DF821F",
"m. c #D5832B",
"M. c #D5832C",
"N. c #EB8415",
"B. c #F68206",
"V. c #F38209",
"C. c #C58746",
"Z. c #CE8C46",
"A. c #818181",
"S. c #818182",
"D. c #818281",
"F. c #818282",
"G. c #828181",
"H. c #828281",
"J. c gray51",
"K. c gray52",
"L. c #858586",
"P. c #858685",
"I. c #858686",
"U. c #868585",
"Y. c #868586",
"T. c #868685",
"R. c #868686",
"E. c #888888",
"W. c #898989",
"Q. c #89898A",
"!. c #898A89",
"~. c #8A8989",
"^. c #8A898A",
"/. c #8A8A89",
"(. c #8B8B8B",
"). c #8D8D8D",
"_. c #8D8E8D",
"`. c #8E8D8D",
"'. c #8E8E8E",
"]. c #96908A",
"[. c gray57",
"{. c #959594",
"}. c #959595",
"|. c gray59",
" X c #989898",
".X c #989999",
"XX c #999898",
"oX c #999899",
"OX c #999998",
"+X c gray60",
"@X c #999A9A",
"#X c #9A9A9A",
"$X c #9B9B9B",
"%X c #9B9B9C",
"&X c #9C9B9C",
"*X c #9C9C9B",
"=X c gray61",
"-X c #9C9D9D",
";X c #9D9C9C",
":X c #9D9C9D",
">X c #9D9D9C",
",X c #9D9D9D",
"<X c #9D9D9E",
"1X c #9FA0A0",
"2X c #A0A0A0",
"3X c #A0A0A1",
"4X c #A0A1A0",
"5X c #A0A1A1",
"6X c #A1A0A0",
"7X c #A1A0A1",
"8X c #A1A1A0",
"9X c gray63",
"0X c #A1A2A2",
"qX c #A2A1A2",
"wX c #A2A2A2",
"eX c #AAAAAA",
"rX c gray67",
"tX c #ABACAB",
"yX c gray68",
"uX c #AEADAD",
"iX c gray69",
"pX c #B2B2B2",
"aX c #B4B4B3",
"sX c #B4B4B4",
"dX c #B6B6B6",
"fX c gray74",
"gX c #BDBDBE",
"hX c #BEBDBD",
"jX c #BEBFBF",
"kX c #BFBEBF",
"lX c #C1C1C1",
"zX c gray76",
"xX c #C3C3C3",
"cX c #C4C5C4",
"vX c #C5C5C4",
"bX c #C5C5C5",
"nX c #CACACA",
"mX c #CBCBCB",
"MX c gray80",
"NX c #CDCDCD",
"BX c gray81",
"VX c #D0D0D0",
"CX c gray82",
"ZX c gray85",
"AX c #E6E6E6",
"SX c #E7E7E7",
"DX c #EAEAEA",
"FX c gray92",
"GX c #ECECEC",
"HX c gray93",
"JX c gray95",
"KX c #F3F3F3",
"LX c #F4F4F4",
"PX c gray96",
"IX c #F6F6F6",
"UX c gray100",
/* pixels */
"@ @ @ @ @ @ @ @ @ X @ @ @ @ @ @ o   O @ @ @ @ @ @ @ @ @ @ o @ @ ",
"$ $ $ $ $ $ $ $ & $ $ $ $ $ $ & & $ $ $ $ $ $ $ - - $ $ & & $ & ",
"$ $ 0 $ 0 $ 2 0 ; 2 ; < ; < $ < 2 $ < $ $ 1 0 $ < $ 0 $ $ 0 < 2 ",
"q 0 0 0 0 0 0 0 0 0 0 7 0 0 q 0 7 0 0 q 0 0 0 1 0 0 0 0 0 9 7 7 ",
"q q q q q gXgXq q |.KX1.q |.KXq  .UXUXUX .q JXfXq ,.KX|.q q r r ",
"p p p p X.UXUXO.p  XUXgXp |.KXp p O.UXO.p p KXKX6.gXUX Xp p p p ",
"f f f g #XAXAX#Xf #XKXKX#X#XKXf f &.UXO.f f KXKXZXKXKX#Xf f f f ",
"b b b z lXlXlXlXx #XKX-XKX#XKXb b ;.UX;.b x KXlXKXlXKX&Xb b x x ",
"M M M ,.UXlXzXUX,.-XKXM KXSXKXn b ,.UX,.M b LX-XeXe.KX-XM M M M ",
"C C C 1XSXbXzXSX6X6XKXC l.LXKXV C 6.UX2.C C LX6XC C KX6XC C C C ",
"S S S bXbXS F bXbXwXKXS S bXLXD 8.UXUXUX8.F LX6XZ S LXwXF S S S ",
"H J J P S U S H U S U S S S U K H H S U S J H K K S U S P J J P ",
"U U U U U U Y U U U Y U U U Y U U Y Y U U U U U U U U U U U U U ",
"Q Q Q Q R Q R Q Q Q Q Q R Q Q Q Q Q Q Q Q Q Q Q Q ^ W R W R W W ",
"l.UXUXUXUXl.^ /.LXUXmX^ ^ ;.SXUXDX-.^ KXeX^ ^ ^ ^ ;.FXUXUXFX;._ ",
" . .mXmX . . .LXmX).LXrX .mXFXJ.DXmX .LXeX . . . .mXSX,.,.SXmXX.",
"&.O.mXmXO.&.uXIXO.O.uXIXU.UXU.&.U.UXK.LXuXO.*.*.O.mXFX2.*.O.O.&.",
";.;.BXmX;.-.iXLX,.;.pXLXL.UX/.-./.UX/.LXpX;.;.;.;.8.FXUXUXFX9.;.",
",.2.VXVX2.,.pXLX,.,.sXLX).UX(.,.(.UX/.LXpX,.,.,.2.,.1.,.e.FXVX,.",
"6.6.VXVX6.8.7.LXVX#XLXpX6.VXFX).FXVX7.IXsX6.6.6.6.VXFXa.a.FXVX6.",
"9.9.VXVXy.8.9.&XLXUXVX9.9.l.FXUXFXJ.9.LXUXUXUXUXsXl.FXUXUXFXl.y.",
"e.p.e.e.e.e.e.e.e.a.p.e.y.y.e.p.e.e.e.e.e.e.e.e.p.e.e.y.e.y.e.e.",
"l.l.l.l.l.a.l.a.a.l.l.l.a.l.f.f.l.l.l.a.l.l.a.a.l.l.a.l.l.l.l.a.",
"l.J.G.l.J.l.J.J.J.J.J.z.m.N.m.N.n.n.n.x.J.J.J.J.G.J.J.J.A.J.J.l.",
"U.U.I.L.L.L.L.L.I.L.I.L.M.B.B.B.B.B.M.U.K.K.K.K.K.K.U.I.L.L.I.L.",
"/./.Q.Q./.Q.Q.Q.Q.Q.Q.Q.v.V.B.B.B.V.c./.^./.^.^./.E.Q.Q././.Q.Q.",
").).).)._._._._.).).(.`.).C.V.V.B.C.(.).`.`.`.`.)._._._.).).).).",
"].[.[.[.[.[.[.[.[.[.].[.].].N.V.N.].[.[.[.[.[.[.].[.[.[.[.[.[.].",
"{.|.|.|.{.|.{.{.}.}.}.}.}.|.b.B.b.|.}.}.}.}.}.|.}.}.|.|.}.}.}.}.",
".X#X|.#X.X.X#X.X#X#X X#X X X#XZ.#X XoX|.#XoX X X X#X XoX.X.X.X.X",
"-X-X-X-X-X-X$X-X1X-X-X-X-X-X1X&X-X-X1X&X&X-X-X-X-X&X<X&X1X1X<X<X",
"6X6X6X6X6X6X6X6X1X6X6X6X6X6X6X6X6X6X3X3XqX3X3X3X3XqX1X3X1X1X1X1X"
};
