/* XPM */
static char *animtools[] = {
/* columns rows colors chars-per-pixel */
"32 32 236 2",
"   c #286922",
".  c #286923",
"X  c #296922",
"o  c #296923",
"O  c #286A22",
"+  c #2B6B24",
"@  c #2B6B25",
"#  c #2B6C24",
"$  c #2B6C25",
"%  c #2D6D26",
"&  c #2D6D27",
"*  c #2D6E26",
"=  c #2D6E27",
"-  c #2F7029",
";  c #2F7129",
":  c #307029",
">  c #32722B",
",  c #32732B",
"<  c #32722C",
"1  c #32732C",
"2  c #34742E",
"3  c #34742F",
"4  c #34752E",
"5  c #35742E",
"6  c #35752E",
"7  c #377532",
"8  c #377631",
"9  c #377730",
"0  c #377731",
"q  c #367830",
"w  c #387432",
"e  c #397933",
"r  c #397A33",
"t  c #3A7933",
"y  c #3A7A33",
"u  c #3B7D35",
"i  c #3C7C35",
"p  c #3C7D35",
"a  c #3E7F37",
"s  c #3F7F37",
"d  c #3E7F38",
"f  c #3F7F38",
"g  c #17EB01",
"h  c #17EA02",
"j  c #17EB02",
"k  c #17EC01",
"l  c #17ED01",
"z  c #17EC02",
"x  c #19E304",
"c  c #18E802",
"v  c #18E902",
"b  c #16F101",
"n  c #12FF00",
"m  c #13FE01",
"M  c #17FA06",
"N  c #1BF60B",
"B  c #1CF50B",
"V  c #1DF60C",
"C  c #1DF60D",
"Z  c #1EF60D",
"A  c #18FA06",
"S  c #3ADF2C",
"D  c #3CD030",
"F  c #24EF14",
"G  c #27EA18",
"H  c #2BEC1C",
"J  c #20F00F",
"K  c #41823A",
"L  c #41823B",
"P  c #42823A",
"I  c #42823B",
"U  c #44843D",
"Y  c #44843E",
"T  c #46863F",
"R  c #46873F",
"E  c #468640",
"W  c #468740",
"Q  c #498942",
"!  c #498943",
"~  c #498A42",
"^  c #498A43",
"/  c #4B8C45",
"(  c #4B8D45",
")  c #4C8C45",
"_  c #4C8D45",
"`  c #4E8F48",
"'  c #4F8F48",
"]  c #598D54",
"[  c #5B8F55",
"{  c #5B8E56",
"}  c #5B8F56",
"|  c #51924A",
" . c #55914F",
".. c #54944D",
"X. c #559150",
"o. c #559250",
"O. c #579451",
"+. c #579750",
"@. c #5A9654",
"#. c #5D9058",
"$. c #5D9158",
"%. c #5F9259",
"&. c #5F925A",
"*. c #599A53",
"=. c #5B9C55",
"-. c #5B9D55",
";. c #5D9956",
":. c #5C9C55",
">. c #5C9D55",
",. c #5F9B59",
"<. c #5E9F58",
"1. c #5F9E58",
"2. c #5F9E59",
"3. c #5F9F58",
"4. c #5CA756",
"5. c #5EA058",
"6. c #5FA058",
"7. c #58BB4F",
"8. c #5AB952",
"9. c #5BBC53",
"0. c #61945C",
"q. c #61955C",
"w. c #63965D",
"e. c #63975D",
"r. c #629E5C",
"t. c #669662",
"y. c #679662",
"u. c #659960",
"i. c #699864",
"p. c #6E9E69",
"a. c #61A25A",
"s. c #61A25B",
"d. c #62A25A",
"f. c #62A25B",
"g. c #61A75B",
"h. c #64A15E",
"j. c #65A05F",
"k. c #64A45D",
"l. c #64A55D",
"z. c #64A45E",
"x. c #64A55E",
"c. c #65AE5E",
"v. c #67A760",
"b. c #67A761",
"n. c #67A860",
"m. c #67A861",
"M. c #6DA169",
"N. c #6FA36A",
"B. c #69AA63",
"V. c #69AB63",
"C. c #6AAA63",
"Z. c #6CAD66",
"A. c #6BB763",
"S. c #6EB167",
"D. c #6FB068",
"F. c #70A06B",
"G. c #71A56D",
"H. c #74A86E",
"J. c #76A971",
"K. c #7AA974",
"L. c #79AC73",
"P. c #7CAB77",
"I. c #71B26B",
"U. c #72B26A",
"Y. c #72B26B",
"T. c #75B46D",
"R. c #75B56D",
"E. c #74B56E",
"W. c #75B46E",
"Q. c #75B56E",
"!. c #46D03B",
"~. c #49D13D",
"^. c #45F134",
"/. c #4CC342",
"(. c #65C15C",
"). c #84B37F",
"_. c #85B581",
"`. c #90B38D",
"'. c #92B48E",
"]. c #93B590",
"[. c #94B691",
"{. c #95B892",
"}. c #96BA93",
"|. c #97BA93",
" X c #98BB95",
".X c #99BB95",
"XX c #9EC19B",
"oX c #9FC29C",
"OX c #A1C39D",
"+X c #A2C59E",
"@X c #A3C59E",
"#X c #A3C1A0",
"$X c #A4C6A0",
"%X c #A5C8A1",
"&X c #A5C8A2",
"*X c #A6C9A3",
"=X c #BACFB8",
"-X c #BBD0B9",
";X c #BCD1BA",
":X c #BCD1BB",
">X c #BDD1BA",
",X c #BCD2BA",
"<X c #BDD3BB",
"1X c #BED4BC",
"2X c #BFD4BC",
"3X c #BFD4BD",
"4X c #C2D8C0",
"5X c #C3D9C1",
"6X c #C4DAC2",
"7X c #C5DBC3",
"8X c #C6DBC4",
"9X c #C7DCC4",
"0X c #C7DCC5",
"qX c #C8DDC5",
"wX c #C8DDC6",
"eX c #D6E3D5",
"rX c #E4ECE3",
"tX c #E5EDE4",
"yX c #E5EEE4",
"uX c #E7EFE6",
"iX c #E7F0E6",
"pX c #E7F0E7",
"aX c #E8F0E7",
"sX c #E8F1E7",
"dX c #E9F1E8",
"fX c #E9F2E8",
"gX c #F1F5F1",
"hX c #F1F6F1",
"jX c #F2F6F1",
"kX c #F2F6F2",
"lX c #F3F7F2",
"zX c #F3F7F3",
"xX c #F3F8F3",
"cX c #F4F8F3",
"vX c #F4F8F4",
"bX c gray100",
/* pixels */
"c c c c c c c v h h h h h h c h h h h k v v v k k k h k k k k k ",
"x               O O                         # O O             k ",
"k + $   $ # = # $ # $ $ +   % + # # + +   + # # $ #   = # $ # k ",
"k = = = = = = = = = = $ = = = = = = = = = = = = = = = = = * * l ",
"k : : : : =X=X: : '.zXt.= `.zX: [ bXbXbX[ - hX=X: t.gX`.: : : k ",
"k > 1 1 [ bXbX[ , '.bX=X> `.zX> > [ bX} > > hXhXi.=XbX'.> 1 , k ",
"k 3 3 3 '.rXrX'., '.zXzX'.'.hX, 1 $.bX$.3 3 hXhXeXlXzX'., 7 , l ",
"k 7 w 7 <X:X:X:X7 '.zX'.zX|.zXq 7 %.bX$.7 7 hX1XlX=XzX|.q q q l ",
"k r r q.bX1X:XbXq.|.zXr zXrXzXr r q.bXw.r r zX}.#XM.lX|.q r r k ",
"l u p |.yX2X3XrX|.|.zXy M.zXzXy u w.bXw.i r zX}.u u lX Xu p p k ",
"k d s 3X1Xp f <X3X|.zXp d 3XlXp e.bXbXbXu.d kX Xd p lX.Xd s d k ",
"k I I I I I I I I I I I I I I I I I d I I I I d I I I d I I U l ",
"k U U U U U U U U U U U U U U U R I R I I R I E U U U U U I U k ",
"k R W W W W W W R R W W W W W W R R R W R R W W R ~ U ~ R ~ ~ k ",
"^.bXbXbXbXM.! K.lXbX4X~ ~ X.uXbXyX .! zXoX~ ~ ^ ~ X.uXbXbXuX .k ",
"l ( 5X5X( ( ( zX5XP.lXoX( 5XuXN.aX5X) zXoX( ( ( ( 5XuXo.o.uX5Xk ",
"v _ 6X6X` _ @XzX` _ @XzXG.bXG.` G.bXG.zX@X_ ` ` ` 7XsX@.` ` ` k ",
"l | 7X7X| | +XzX| | @XzXH.bXH.| H.bXH.zX@X| | | | ;.sXbXbXsX;.k ",
"l +.7X9X....%XzX....%XzXJ.bXJ...J.bXJ.zX@X..............1.sX8Xk ",
"l +.9XwX+.*.o.vXqX).vX%Xo.9XsXL.aX9X*.zX%X+.*.o.+.9XsXr.r.sX9Xk ",
"l *.qXqX*.*.*._.vXbXwX*.*.h.aXbXsXh.*.vXbXbXbXbX*Xh.sXbXbXsXj.k ",
"l -.-.-.-.-.-.-.>.>.>.>.>.>.>.>.>.>.>.-.>.-.>.*.>.>.>.>.>.;.>.k ",
"k 6.6.6.6.1.1.6.1.6.6.6.a.>.a.a.6.6.6.6.6.1.1.a.a.1.6.1.1.6.6.k ",
"k a.a.a.f.f.f.a.a.f.f.a.a.a.a.k.a.a.a.a.4.a.a.f.a.a.a.a.a.a.g.k ",
"l z.x.k.x.k.x.k.k.x.x.x.x.k.x.x.x.x.k.k.J D 4.z.k.k.x.x.x.k.k.v ",
"l x.x.x.x.C.C.x.x.x.x.C.C.x.x.x.x.x.x.x.B m C /.x.x.x.C.x.Z.x.l ",
"l V.x.C.V.Z.Z.x.c.7.7.7.9.7.7.7.9.9.7.7.B m n n H 8.x.x.x.Z.Z.l ",
"l S.D.S.Z.Z.Z.D.9.F F F F F F F F F F F M m n n m m ~.S.D.Z.Z.l ",
"k D.D.D.D.D.D.D.D.D.D.S.D.D.D.D.S.S.S.D.C m m m M ~.S.D.D.D.D.v ",
"l U.U.E.D.T.T.D.U.E.U.E.D.E.D.E.R.U.T.D.C m m S A.E.D.E.T.D.T.l ",
"l E.R.Q.R.R.T.T.Q.Q.R.R.T.Q.Q.Q.T.R.T.T.C H (.T.T.T.R.T.T.R.R.l ",
"l l l l l l l v l l l l l v l l l k k k b l l l k k l l l l l l "
};
