/* XPM */
static char *arigb[] = {
/* columns rows colors chars-per-pixel */
"32 32 62 1",
"  c #040404",
". c #0C0C0C",
"X c #100F0F",
"o c #0F100F",
"O c #10100F",
"+ c #0F0F10",
"@ c #100F10",
"# c #0F1010",
"$ c #141414",
"% c #1C1C1C",
"& c #1F1F20",
"* c #242424",
"= c #282727",
"- c #272827",
"; c #282827",
": c #272728",
"> c #282728",
", c #272828",
"< c #2B2B2B",
"1 c #302F30",
"2 c #333333",
"3 c #3B3B3B",
"4 c #3F403F",
"5 c #40403F",
"6 c #403F40",
"7 c #3F4040",
"8 c #434444",
"9 c #484748",
"0 c #474848",
"q c #4A4A4A",
"w c #4F504F",
"e c #50504F",
"r c #4F4F50",
"t c #504F50",
"y c #4F5050",
"u c #535353",
"i c #5B5B5B",
"p c #5F6060",
"a c #636363",
"s c #6B6B6B",
"d c #747474",
"f c #7C7D7C",
"g c #838383",
"h c #878888",
"j c #8B8B8B",
"k c #908F8F",
"l c #90908F",
"z c #939393",
"x c #9A9A9A",
"c c #A2A2A2",
"v c #ACACAC",
"b c #B3B3B3",
"n c #BCBCBC",
"m c #C3C3C3",
"M c #CDCDCD",
"N c #D0CFD0",
"B c LightGray",
"V c #DDDDDD",
"C c gray89",
"Z c #ECECEC",
"A c #F4F4F4",
"S c #FEFEFE",
/* pixels */
"%$..$..X.OO.$..+.$@.@X@.$..$.+.&",
".             3dfsa8.          .",
"$            scs828ii.         $",
"$..... .. ..zj$=X. .qd... ... .%",
"%..........fx.%q>....gu........%",
"%@@..$O..o<m<.8auo.$.3cX$OO.O+.%",
"*$$$$$$$#$sc$$sqf$$$$%v3$$$OO$$*",
"*$%$$$$$%$fz$%k=h3$$$dZi$$$%$%$*",
">%%%%%%%%%dz%0x%fs%%%3Zs%%%%%%%=",
"<&%%&&%%%%ab%fz%sz%&&&hk&%&%%%&,",
"<*********<Mqcd=um3&**=mx******<",
"2===,------xnMu,3Bf1==;gz,--;,,2",
"3<<<<<<<<<<4CC2<<mci,<<q3<<<<<<3",
"321122121122xSd21vMl32uc91222223",
"822322222232mAAz2jVxd2sc62222325",
"83333343333yZlzSmjAfbkzk33333338",
"q8663855686gSd6jASSxqxBd6585684q",
"y8888888888vSa88aNSM88888888888w",
"uqqqqqqqqqqCZuqqqqBAaqqqqqqqqqqu",
"iueutuuuuedSNettuwbSjeeuurquuqui",
"iuuiuuuuuuxSbuiuuuzSnuuuuuuuuuua",
"aiiiiiiipjVZkiiiiifZZzpiiiiiiiia",
"spppapagvvhsppppaapahvbgaaaaaaas",
"sasaasdzjssaasaaaaasashzfaaaaaas",
"dssssssssssssssssssssssssssssssd",
"ddsdddsddddsdddddsddddsdddsdddsf",
"gddddddfddddddfdddfddddfddfddfff",
"gfgfgfffffgffffffffffffffffffffg",
"jggggggggggggggghggggggggggggggh",
"kjhhhhhhhhhhhhhhhhhhhhhhhhhhhhhl",
"zkkjjkkkkjjkjkkkkjkkjkkkjkkjkjkz",
"cxxxxxxxxxxxxxxxxxxxxxxxxxxxxxxc"
};
