/* XPM */
static char * arig_xpm[] = {
"32 32 341 2",
"  	c #E1E1E1",
". 	c #E0E0E0",
"+ 	c #A8A8A8",
"@ 	c #A3A2A3",
"# 	c #A2A3A3",
"$ 	c #A3A3A3",
"% 	c #A3A3A2",
"& 	c #A4A4A4",
"* 	c #B7B7B7",
"= 	c #CBCACB",
"- 	c #CECDCD",
"; 	c #CACACA",
"> 	c #C6C6C6",
", 	c #B8B7B8",
"' 	c #A7A6A7",
") 	c #DFDFDF",
"! 	c #9D9E9E",
"~ 	c #999898",
"{ 	c #999999",
"] 	c #999998",
"^ 	c #C3C3C3",
"/ 	c #D7D7D7",
"( 	c #C1C1C0",
"_ 	c #B3B3B3",
": 	c #ADADAD",
"< 	c #B2B2B2",
"[ 	c #BCBCBC",
"} 	c #BBBBBB",
"| 	c #9C9B9C",
"1 	c #999899",
"2 	c #9E9E9E",
"3 	c #9C9C9C",
"4 	c #959595",
"5 	c #959594",
"6 	c #D0D0D0",
"7 	c #CECECE",
"8 	c #A1A1A1",
"9 	c #979797",
"0 	c #DEDEDE",
"a 	c #989898",
"b 	c #919191",
"c 	c #D1D1D1",
"d 	c #AFAEAE",
"e 	c #9D9D9D",
"f 	c #C5C5C5",
"g 	c #949494",
"h 	c #8D8D8D",
"i 	c #8E8D8D",
"j 	c #8D8E8D",
"k 	c #9A9A9A",
"l 	c #E2E2E2",
"m 	c #9B9B9B",
"n 	c #A6A6A6",
"o 	c #B4B4B4",
"p 	c #A2A2A2",
"q 	c #D3D3D3",
"r 	c #DDDDDD",
"s 	c #909090",
"t 	c #898989",
"u 	c #8A8989",
"v 	c #898A89",
"w 	c #D2D2D2",
"x 	c #8A8A8A",
"y 	c #B8B8B8",
"z 	c #A3A4A3",
"A 	c #BDBDBD",
"B 	c #8C8C8C",
"C 	c #D4D4D4",
"D 	c #89898A",
"E 	c #8A898A",
"F 	c #909091",
"G 	c #868685",
"H 	c #858685",
"I 	c #858586",
"J 	c #858585",
"K 	c #858686",
"L 	c #868585",
"M 	c #868586",
"N 	c #BABABB",
"O 	c #868686",
"P 	c #8B8B8A",
"Q 	c #C5C6C6",
"R 	c #8D8E8E",
"S 	c #C1C1C1",
"T 	c #969696",
"U 	c #B6B6B6",
"V 	c #F5F5F6",
"W 	c #A7A7A8",
"X 	c #8D8D8E",
"Y 	c #DCDCDC",
"Z 	c #898A8A",
"` 	c #828181",
" .	c #818281",
"..	c #828282",
"+.	c #818182",
"@.	c #818282",
"#.	c #828281",
"$.	c #B5B5B5",
"%.	c #C4C4C5",
"&.	c #9B9B9A",
"*.	c #C7C7C6",
"=.	c #818181",
"-.	c #B9B9B9",
";.	c #ABABAB",
">.	c #969595",
",.	c #F5F5F5",
"'.	c #AEAEAE",
").	c #7E7D7E",
"!.	c #7D7E7D",
"~.	c #7D7D7E",
"{.	c #7E7D7D",
"].	c #7E7E7E",
"^.	c #D5D5D4",
"/.	c #B1B2B2",
"(.	c #AAABAB",
"_.	c #C4C4C3",
":.	c #B9B8B8",
"<.	c #BFBEBF",
"[.	c #807F80",
"}.	c #7E7E7D",
"|.	c #DCDCDB",
"1.	c #838382",
"2.	c #797A79",
"3.	c #797979",
"4.	c #7A797A",
"5.	c #7A7A7A",
"6.	c #79797A",
"7.	c #828182",
"8.	c #919090",
"9.	c #C7C7C7",
"0.	c #ACACAC",
"a.	c #969797",
"b.	c #878786",
"c.	c #797A7A",
"d.	c #7D7D7D",
"e.	c #DADADA",
"f.	c #C5C5C4",
"g.	c #838383",
"h.	c #DBDCDC",
"i.	c #DBDBDB",
"j.	c #7F7F7F",
"k.	c #767675",
"l.	c #767575",
"m.	c #767676",
"n.	c #D6D6D6",
"o.	c #929292",
"p.	c #7E7F7F",
"q.	c #E4E4E4",
"r.	c #7B7B7B",
"s.	c #757676",
"t.	c #B1B1B1",
"u.	c #727272",
"v.	c #727271",
"w.	c #7F7F7E",
"x.	c #EDEDED",
"y.	c #ECECEC",
"z.	c #C4C4C4",
"A.	c #737373",
"B.	c #787878",
"C.	c #6E6E6E",
"D.	c #6D6E6E",
"E.	c #FFFFFF",
"F.	c #D8D8D8",
"G.	c #848484",
"H.	c #BEBEBE",
"I.	c #747474",
"J.	c #6A6A6A",
"K.	c #6B6A6A",
"L.	c #F7F7F7",
"M.	c #F9F9F9",
"N.	c #A9A9A9",
"O.	c #707070",
"P.	c #D9D9D9",
"Q.	c #676766",
"R.	c #666766",
"S.	c #666666",
"T.	c #676666",
"U.	c #787777",
"V.	c #F4F4F4",
"W.	c #A7A7A7",
"X.	c #A9A9AA",
"Y.	c #666667",
"Z.	c #707170",
"`.	c #6D6D6D",
" +	c #636362",
".+	c #626363",
"++	c #626263",
"@+	c #636263",
"#+	c #636262",
"$+	c #626262",
"%+	c #636363",
"&+	c #626362",
"*+	c #969796",
"=+	c #F6F6F6",
"-+	c #ABACAB",
";+	c #696969",
">+	c #B0B0B0",
",+	c #888888",
"'+	c #696A69",
")+	c #5E5E5E",
"!+	c #5F5E5F",
"~+	c #5E5F5F",
"{+	c #5F5F5E",
"]+	c #5F5F5F",
"^+	c #FCFCFC",
"/+	c #777677",
"(+	c #5F5E5E",
"_+	c #616160",
":+	c #5E5E5F",
"<+	c #6A696A",
"[+	c #666565",
"}+	c #5A5B5B",
"|+	c #5B5B5B",
"1+	c #5B5B5A",
"2+	c #606060",
"3+	c #636464",
"4+	c #5B5A5B",
"5+	c #575757",
"6+	c #5F5F60",
"7+	c #535354",
"8+	c #545354",
"9+	c #535353",
"0+	c #545353",
"a+	c #535453",
"b+	c #545454",
"c+	c #5B5C5C",
"d+	c #504F50",
"e+	c #505050",
"f+	c #50504F",
"g+	c #504F4F",
"h+	c #EEEEEE",
"i+	c #4F504F",
"j+	c #4F5050",
"k+	c #E7E7E7",
"l+	c #EAEAEA",
"m+	c #555555",
"n+	c #4F4F4F",
"o+	c #5C5C5C",
"p+	c #575858",
"q+	c #4C4C4C",
"r+	c #A3A4A4",
"s+	c #777777",
"t+	c #565656",
"u+	c #4C4C4B",
"v+	c #4B4C4C",
"w+	c #727172",
"x+	c #A0A0A0",
"y+	c #525252",
"z+	c #585858",
"A+	c #484848",
"B+	c #484948",
"C+	c #5B5C5B",
"D+	c #757575",
"E+	c #494848",
"F+	c #484849",
"G+	c #494849",
"H+	c #4A4A4A",
"I+	c #717171",
"J+	c #D6D6D5",
"K+	c #454545",
"L+	c #444545",
"M+	c #505151",
"N+	c #444445",
"O+	c #454445",
"P+	c #515150",
"Q+	c #767777",
"R+	c #B5B4B4",
"S+	c #444544",
"T+	c #F3F3F3",
"U+	c #9B9C9B",
"V+	c #515151",
"W+	c #CDCDCD",
"X+	c #E6E6E6",
"Y+	c #525152",
"Z+	c #D6D5D5",
"`+	c #D5D5D5",
" @	c #4E4F4E",
".@	c #414141",
"+@	c #404142",
"@@	c #999A9A",
"#@	c #F2F2F2",
"$@	c #424141",
"%@	c #4E4E4E",
"&@	c #414241",
"*@	c #CCCCCC",
"=@	c #414142",
"-@	c #C0C0C0",
";@	c #4E4F4F",
">@	c #4B4B4A",
",@	c #3D3E3E",
"'@	c #CBCBCC",
")@	c #8B8B8B",
"!@	c #646565",
"~@	c #3E3E3E",
"{@	c #585758",
"]@	c #CCCCCB",
"^@	c #3D3D3E",
"/@	c #A4A5A4",
"(@	c #3E3D3E",
"_@	c #3E3E3D",
":@	c #E5E5E5",
"<@	c #4A4B4B",
"[@	c #3A3A3A",
"}@	c #474747",
"|@	c #474748",
"1@	c #CBCACA",
"2@	c #CACACB",
"3@	c #3A3B3A",
"4@	c #A4A3A3",
"5@	c #373636",
"6@	c #363736",
"7@	c #373737",
"8@	c #878787",
"9@	c #CAC9CA",
"0@	c #373736",
"a@	c #373637",
"b@	c #363737",
"c@	c #6C6C6C",
"d@	c #434443",
"e@	c #343434",
"f@	c #929293",
"g@	c #343433",
"h@	c #5C5D5D",
"i@	c #5C5D5C",
"j@	c #333333",
"k@	c #C9C9C9",
"l@	c #333433",
"m@	c #939292",
"n@	c #F1F1F1",
"o@	c #696A6A",
"p@	c #939392",
"q@	c #333434",
"r@	c #343334",
"s@	c #777877",
"t@	c #424142",
"u@	c #3E3F3E",
"v@	c #D3D4D3",
"w@	c #4B4B4B",
"x@	c #FDFDFD",
"y@	c #F0F0F0",
"z@	c #E3E4E3",
"  . . . . . . . . . . . . . . . . . . . . . . . . . . . . . .   ",
"  + @ # $ $ % $ @ $ $ % $ & * = - ; > , ' # $ $ $ @ $ @ @ # +   ",
") ! ~ { { { { ] ] { { { { ^ / ( _ : < [ } | { 1 { { { { { { 2 ) ",
") 3 4 4 4 4 4 4 5 4 4 4 6 7 3 8 9 4 4 4 < ^ 4 4 4 4 4 4 4 4 3 ) ",
"0 a b b b b b b b b b ^ c b 9 d e b b b b f _ b b b b b b b a 0 ",
"0 g h i j j h h h h k l m h n o : h h h h p q h j h h i h h g 0 ",
"r s t u u v t t u v o w x u y z A B t u t j C e v v t D u E F r ",
"r j G H I J K H L M N f O P Q R S T G L J U V W J J G K J M X r ",
"Y Z `  ...+.@.#.#...$.%. .&.*.=.-.;... .@.>.,.'.` #.` #. . .v Y ",
"Y G ).!.~.~.).{.~.].$ ^.{./.S ].(._.~.~.].{.:.<.[.}.}.~.).}.H Y ",
"|.1.2.3.4.5.5.2.6.4.7.) 8.9.0.5.a.Y b.c.5.c.d.e.f.5.5.4.4.4.g.h.",
"i.j.k.l.m.m.m.m.m.m.m.[ n.) o.m.p.q.0.r.m.s.m.t.-.m.m.m.m.m.j.i.",
"i.r.u.u.u.u.u.u.u.u.v.w.x.y.3.u.u.n.z.s u.u.A.O r.v.u.u.u.u.r.i.",
"e.B.C.C.C.C.C.C.C.C.C.D.* E.2 C.C.> F.t.u.C.G.H.j.C.C.C.C.C.B.e.",
"e.I.J.J.J.J.J.J.J.J.K.K.c L.M.'.J.N.q.-.T J.b -.O.J.J.J.J.J.I.e.",
"P.O.Q.R.S.T.T.S.S.R.T.U.V.W.X.E.7 W.,.k 9.N.0.W S.S.S.S.Y.S.Z.P.",
"P.`. +.+++@+#+$+%+%+&+*+E.s ++2 =+E.E.-+;+>+/ ,+&+++#+$+++.+`.P.",
"F.'+)+!+~+!+~+{+{+]+]+} ^+/+(+(+r.C E.q ]+]+_+]+!+]+!+{+(+:+<+F.",
"F.[+}+|+|+|+}+|+1+|+2+  x.3+|+|+|+:+n.M.u.|+|+|+|+|+|+|+4+}+S.F.",
"F.$+5+5+5+5+5+5+5+5+3.E.w 5+5+5+5+5+_ E.s 5+5+5+5+5+5+5+5+5+$+F.",
"/ 6+7+8+9+9+9+0+a+9+{ E.y 7+b+a+9+0+g E.[ 9+9+a+a+9+7+7+0+7+]+/ ",
"/ c+d+e+f+g+d+e+b+g.Y h+O i+e+g+d+j+m.k+l+B m+e+j+n+g+d+d+e+o+/ ",
"n.p+q+q+q+q+e+C.W.r+s+t+q+u+q+q+q+q+v+8+w+x+N.I.y+q+q+q+q+q+z+n.",
"n.m+A+A+A+B+C+g.D+q+A+E+A+A+A+A+E+A+A+F+G+H+I+G.2+B+A+F+E+A+m+n.",
"J+y+K+L+M+E.+ N+O+E.E.E.e.P+Q+E.E.R+S+3 E.E.T+U+V+W+E.E.X+L+Y+Z+",
"`+ @.@+@@@#@X+.@$@E.I.%@#@h &@h *@=@h #@I..@h -@k X+;@=@.@.@%@`+",
"`+>@,@,@'@)@E.!@~@E.I+{@#@].~@)@]@^@F./@(@_@~@,@a :@z+,@^@(@<@`+",
"C F+[@}@E.|@1@z [@E.E.E.$ [@[@t 2@[@:@t [@E.E.; 3@4@E.#@T [@E+C ",
"C K+5@O E.E.E.q.6@E.5.q.p 5@7@8@9@0@/ p 7@a@g 9@7@5@b@c@E.d@K+C ",
"q ~@e@} f@g@ @E.h@E.'+i@E.U.j@J k@l@m@n@o@j@p@k@q@l@r@s@E.t@u@v@",
"n.q+w@x@w@~@~@/ a x@w+~@a y@a x@x@t.~@& x@x@z@a a x@x@x@a ~@q+n.",
"`+q q q q q q q q q q q q q q q q q q q q q q q q q q q q q q `+"};
