/* XPM */
static char *arsketch[] = {
/* columns rows colors chars-per-pixel */
"32 32 205 2",
"   c #020202",
".  c #0C0C0C",
"X  c #15150C",
"o  c #1C1C05",
"O  c #141414",
"+  c #171815",
"@  c #1D1D14",
"#  c #1A1A1A",
"$  c #1F1F20",
"%  c #1F201F",
"&  c #201F1F",
"*  c #2C2C0C",
"=  c #242413",
"-  c #26261E",
";  c #2E2E12",
":  c #2A2A1A",
">  c #33330A",
",  c #3A3A01",
"<  c #3F3F09",
"1  c #373710",
"2  c #393911",
"3  c #3A3A1A",
"4  c #242324",
"5  c #262628",
"6  c #272827",
"7  c #272828",
"8  c #282727",
"9  c #282827",
"0  c #2C2B2B",
"q  c #2F2F30",
"w  c #35352B",
"e  c #383820",
"r  c #333333",
"t  c #3D3733",
"y  c #3A3A30",
"u  c #3A3A3A",
"i  c #3F403F",
"p  c #3F4040",
"a  c #443F3A",
"s  c #403F40",
"d  c #434302",
"f  c #404009",
"g  c #494902",
"h  c #4D4D0A",
"j  c #434310",
"k  c #4B4B17",
"l  c #545409",
"z  c #5C5C06",
"x  c #5F5F0C",
"c  c #5D5D11",
"v  c #464628",
"b  c #464632",
"n  c #40403F",
"m  c #4B413A",
"M  c #4F4F35",
"N  c #515120",
"B  c #53533E",
"V  c #59593B",
"C  c #636306",
"Z  c #63630A",
"A  c #7B7B05",
"S  c #7B7B1C",
"D  c #6D6D2B",
"F  c #616139",
"G  c #7B7B23",
"H  c #717134",
"J  c #424242",
"K  c #4A4A4A",
"L  c #574E46",
"P  c #54514A",
"I  c #525252",
"U  c #5B5B5B",
"Y  c #5F6061",
"T  c #61594F",
"R  c #615B55",
"E  c #605D5B",
"W  c #725E4F",
"Q  c #605F60",
"!  c #616147",
"~  c #62624F",
"^  c #63635F",
"/  c #6D6153",
"(  c #696955",
")  c #6C6C5B",
"_  c #786857",
"`  c #7C7C42",
"'  c #7C7C4A",
"]  c #7C7C50",
"[  c #7A7A59",
"{  c #636363",
"}  c #6A6A63",
"|  c #6C6C6C",
" . c #726861",
".. c #777864",
"X. c #7D7165",
"o. c #7A7A6E",
"O. c #727272",
"+. c #7E7E74",
"@. c #7C7C7C",
"#. c #7E7F80",
"$. c #BD7739",
"%. c #BE7A3B",
"&. c #847260",
"*. c #817E78",
"=. c #A76C44",
"-. c #B87B40",
";. c #C27B39",
":. c #CA7E3E",
">. c #D77D30",
",. c #EC6F15",
"<. c #EE741B",
"1. c #F37D17",
"2. c #F67D18",
"3. c #818105",
"4. c #969619",
"5. c #838333",
"6. c #969623",
"7. c #969630",
"8. c #AAAA0A",
"9. c #A6A615",
"0. c #ACAB1C",
"q. c #B6B60F",
"w. c #BBBA13",
"e. c #B8B81D",
"r. c #ADAD26",
"t. c #A6A63C",
"y. c #ACAD3D",
"u. c #B6B636",
"i. c #B4B43A",
"p. c #BABA37",
"a. c #B8B83A",
"s. c #81814E",
"d. c #8B8A49",
"f. c #8C8C55",
"g. c #8F905B",
"h. c #9E825E",
"j. c #989845",
"k. c #818266",
"l. c #86847B",
"z. c #8A8A7B",
"x. c #96836B",
"c. c #9C8B6A",
"v. c #99997B",
"b. c #A38156",
"n. c #B28456",
"m. c #A7A741",
"M. c #A4A549",
"N. c #CF853F",
"B. c #D58636",
"V. c #D7863A",
"C. c #D08C3B",
"Z. c #D88535",
"A. c #F5831C",
"S. c #F68A1C",
"D. c #F99A1F",
"F. c #EE8A2F",
"G. c #E0853C",
"H. c #E0933E",
"J. c #EE9C34",
"K. c #FAA42A",
"L. c #F4A431",
"P. c #FBB533",
"I. c #CC924A",
"U. c #D99B44",
"Y. c #C38967",
"T. c #C18A6B",
"R. c #C49B7E",
"E. c #C8977D",
"W. c #D3B36F",
"Q. c #E4A141",
"!. c #E9B453",
"~. c #E9AA60",
"^. c #F1B460",
"/. c #C3C316",
"(. c #C1C11F",
"). c #C4C424",
"_. c #C2C22A",
"`. c #CBCB26",
"'. c #D1D121",
"]. c #C6C679",
"[. c #848484",
"{. c #8D8D8D",
"}. c #979798",
"|. c #979B9F",
" X c #99A2A7",
".X c #B19987",
"XX c #A2A2A2",
"oX c #ACACAC",
"OX c gray69",
"+X c #B7B7B8",
"@X c #BABBBB",
"#X c #BEC0C2",
"$X c #BEC6CA",
"%X c #C19F89",
"&X c #C0C0BE",
"*X c #C6C6C6",
"=X c #C3C8CC",
"-X c #CCCDCD",
";X c #CBCED1",
":X c gray83",
">X c #DDDDDD",
",X c #E1E1DE",
"<X c #EEEEEE",
"1X c #F4F4EE",
"2X c gray100",
/* pixels */
"[.[.[.[.[.[.[.[.[.[.[.[.[.[.[.[.[.[.[.[.[.[.[.[.[.[.[.[.[.[.[.[.",
"l.@.l.@.#.#.@.#.@.@.@.#.l.#.#.#.#.@.#.#.#.#.#.#.#.#.#.#.#.#.*.#.",
"@.@.@.@.@.+.+.@.@.@.@.@.@.@.O.@.@.@.@.@.@.O.@.@.@.@.o.l.@.@.@.@.",
"O.O.| o.M.a.i.M.g.o.O.O.O.O.O.O.| O.O.| O.O.O.O.O.O.c.W.&.O.O.O.",
"| | f.'._.m.i._./.`.m...| | | | | | | | | | | | x.U.P.Q.&.| | | ",
"} } ).t.} { } } [ j._._.[ { } { } { | } { { { h.Q.~.L.n.| } | { ",
"Q s.).) Q Q { { { { { d.] { { { Q Q Q Q Y Q &.L.!.^.C. .Q Q Y Q ",
"U ' ).( U U U U U U U U U U U U U U Q U Y U V.K.L.I./ U U U Q U ",
"I ~ (.` I I I I I I I U I I I I I U U I I $.D.J.b.R I I U I I I ",
"I I r.7.P I I I I I I I I I I I I K P I =.S.H._ I I I I P I I I ",
"K K 5.e.K K K K K K K K K K K K K K L =.S.I.R K K K K K K K K K ",
"J J B /.H K J J J K J p J Y .X-.;.$.>.2.:.L J J J J J J J J K J ",
"J J s 6.0.J s s p p p u Y @X|.R.<.2.A.F.W p p p s p i s s p J s ",
"u u u M w.D u u u u u s @X{.oX$XT.<.2.V.m u u u u u u u u u u u ",
"r r u r G w.b r u u u K @.@X-X+X*X%X,.Z.n r r r r r r u r u u r ",
"r q q r w 9.4.r q 0 0 4 r oX*X:X-X XY.V.m q r r q r r q q q q q ",
"0 0 w 0 0 v q.S 0 5 0 r 0 J oX>XXXoX;X%Xa 8 0 0 0 0 q 0 q 0 0 q ",
"5 7 5 7 8 8 N 8.2 w y r u 7 J }.+X:X#XK 8 5 5 5 8 8 8 8 8 8 8 8 ",
"4 4 4 4 4 4 4 c , f k 3 : w 0 u oX#XK 4 4 4 4 4 5 & 5 & 4 4 4 4 ",
"$ $ # $ $ $ $ 4 Z g h j 2 ; ; X 3 a & & $ $ $ $ & & & & & & & & ",
"# # # # # # # # # z g g > * o o : # # # # # # # # # # # # # $ # ",
"# + + # + + # + # = z g , o o @ # + # + # + # + # # + O + + # + ",
"O O O O O O O O O O + l d d = O O O O O O O O O O O O O O O O O ",
"O O <X2X2X2XOXX O J 2XJ f 3.u.2X2X2Xs #.<XI O #.<Xs 2X2X2X2Xs O ",
". O <X#.. I <X@.O oX2XoX. . Z p.2XB O l.2XOX. @.<X. . OXOX. . O ",
". . <X@.. . <X@.# >X@X<X# . . V 2Xi.C z.<X1X@.@.<X. . oXoX. . . ",
"  . <X-XoX-X<XK u 2X} 2Xu . . u 2XF A ].1Xv.1X@.<X.   oXoX. .   ",
".   <X-XoXoXK . oX>XoX>XoX    u 2Xu   z.1X3.1X,X<X. . oXoX.   . ",
"    <X@.      + >XoXoXoX,X+   r 2Xr   @.<Xo ! <X<X    oXoX      ",
"    <XO.      u 2Xr   r 2Xr r 2X2X2Xr @.<X    oX<X    oXoX      ",
"                                                                ",
"                                                                "
};
