/* XPM */
static char *1_xpm[]={
"32 32 96 2",
"      c #FFB414",
" 0    c #FFC643",
" 1    c #A29567",
" 2    c #332F20",
" 3    c #333120",
" 4    c #33332A",
" 5    c #DA9A11",
" 6    c #E8A412",
" 7    c #CC9010",
" 8    c #CC9A0D",
" 9    c #CCB604",
" a    c #CCBC02",
" b    c #CCBD02",
" c    c #F6AE13",
" d    c #C78C10",
" e    c #C48749",
" f    c #906475",
" g    c #CCBA33",
" h    c #FAED05",
" i    c #FFF300",
" j    c #9E6A6A",
" k    c #D3923C",
" l    c #383424",
" m    c #795509",
" n    c #E19D2E",
" o    c #6E4595",
" p    c #4325BB",
" q    c #3F22BE",
" r    c #4E2DB1",
" s    c #895A7D",
" t    c #C58848",
" u    c #CEA838",
" v    c #9C6C6C",
" w    c #8B5C7B",
" x    c #4627B9",
" y    c #7A4E8B",
" z    c #ECB73E",
" A    c #704794",
" B    c #8C5C7A",
" C    c #F0A921",
" D    c #A67063",
" E    c #5D38A4",
" F    c #7D580A",
" G    c #A77162",
" H    c #D4A336",
" I    c #FFCF0B",
" J    c #ECC23B",
" K    c #38382E",
" L    c #9C8D61",
" M    c #FCEE04",
" N    c #FFE604",
" O    c #ECA713",
" P    c #EEC31A",
" Q    c #937D6B",
" R    c #5D5C4C",
" S    c #F1AA13",
" T    c #7B4F8A",
" U    c #724991",
" V    c #825583",
" W    c #1300E6",
" X    c #603BA2",
" Y    c #E5C420",
" Z    c #F6E30B",
" &    c #F8E609",
"0     c #6B4398",
"00    c #4728B8",
"01    c #AA822B",
"02    c #BAAE12",
"03    c #CABF02",
"04    c #867546",
"05    c #7A586D",
"06    c #CC9E33",
"07    c #DAA226",
"08    c #58471F",
"09    c #332D1B",
"0a    c #332E1E",
"0b    c #333020",
"0c    c #866D30",
"0d    c #FFBD2C",
"0e    c #FFC541",
"0f    c #FFC540",
"0g    c #DF9D11",
"0h    c #BB840F",
"0i    c #EFA913",
"0j    c #CF9210",
"0k    c #553C07",
"0l    c #000000",
"0m    c #8A610B",
"0n    c #453105",
"0o    c #765309",
"0p    c #211703",
"0q    c #AA780D",
"0r    c #312304",
"0s    c #9A6D0C",
"0t    c #110C01",
"0u    c #664808",
"                                                                ",
"                                                                ",
"                                                                ",
"   0 0 0 0 0 0                                                  ",
"   1 2 2 2 2 3 4 4 4 4 4 4 4 5                                  ",
"   6 7 7 7 8 9 a b 7 7 7 7 7 c d                                ",
"       e e f g h i j k         l m                              ",
" n o p q r s t u v w x r y n   z l m                            ",
" A B C                   D E s   z l F                          ",
" G                           r H I J K F                        ",
"                               L M N O 4 F                      ",
"                               P i Q C O R S                   G",
"                                   T U                     e q V",
"                                     s W e             n w X e  ",
"                                         r r Y Z & Y0 00 j k    ",
"                                 c 7 7 7 7010202030405060607    ",
"                                080909090a 2 20b 2 20a09090c    ",
"                                0d0e0f0f0d                      ",
"                                                                ",
"                                                                ",
"                                                                ",
"        0g0h0i    0i0h      0g0j0i0h0h0h0h0h0g    0i0h0j        ",
"        0k0l0m    0h0l      0m0n0h0l0l0l0l0l0m  0o0l0l0l0p0j    ",
"      0i0l0o0p    0h0l      0m0n      0l0h    0q0l0m  0g0r0r    ",
"      0s0p  0t0h  0h0l      0m0n      0l0h    0k0k      0j0l0j  ",
"      0r0k0h0n0u  0h0l      0m0n      0l0h    0n0m        0l0h  ",
"    0g0l0l0l0l0l0i0h0l      0m0n      0l0h    0k0k      0j0l0j  ",
"    0m0p      0p0m0g0l0m  0g0p0u      0l0h    0q0l0m  0g0r0r    ",
"    0p0o      0o0p  0m0l0l0l0p0g      0l0h      0m0l0l0l0p0j    ",
"    0h0i      0i0h    0g0h0h          0h0i        0i0h0j        ",
"                                                                ",
"                                                                "};
