/* XPM */
static char * image_name[]={
"32 32 79 2",
"  	c #91D2A0",
". 	c #9BEEB4",
"X 	c #509F69",
"o 	c #8FBC8F",
"O 	c #238E23",
"+ 	c #41AC41",
"@ 	c #00562D",
"# 	c #CCCCCC",
"$ 	c #8F8F8F",
"% 	c #666666",
"& 	c #FCFCFC",
"* 	c #919191",
"= 	c #DCDCDC",
"- 	c #8C8C8C",
"; 	c #BABABA",
": 	c #ADADAD",
"> 	c #6E6E6E",
", 	c #262626",
"< 	c #707070",
"1 	c #EBEBEB",
"2 	c #171717",
"3 	c #212121",
"4 	c #242424",
"5 	c #1A1A1A",
"6 	c #292929",
"7 	c #ABABAB",
"8 	c #4A4A4A",
"9 	c #EDEDED",
"0 	c #F7F7F7",
"q 	c #333333",
"w 	c #9C9C9C",
"e 	c #878787",
"r 	c #1C1C1C",
"t 	c #9E9E9E",
"y 	c #C2C2C2",
"u 	c #1F1F1F",
"i 	c #5C5C5C",
"p 	c #616161",
"a 	c #545454",
"s 	c #D1D1D1",
"d 	c #F0F0F0",
"f 	c #DBDBDB",
"g 	c #8A8A8A",
"h 	c #121212",
"j 	c #636363",
"k 	c #969696",
"l 	c #575757",
"z 	c #B6E191",
"x 	c #D9D9D9",
"c 	c #525252",
"v 	c #000000",
"b 	c #030303",
"n 	c #050505",
"m 	c #0A0A0A",
"M 	c #080808",
"N 	c #0F0F0F",
"B 	c #141414",
"V 	c #FAFAFA",
"C 	c #A8A8A8",
"Z 	c #C9C9C9",
"A 	c #303030",
"S 	c #F5F5F5",
"D 	c #858585",
"F 	c #828282",
"G 	c #737373",
"H 	c #424242",
"J 	c #757575",
"K 	c #B0B0B0",
"L 	c #B8B8B8",
"P 	c #3D3D3D",
"I 	c #CFCFCF",
"U 	c #404040",
"Y 	c #4F4F4F",
"T 	c #3B3B3B",
"R 	c #363636",
"E 	c #454545",
"W 	c #B3B3B3",
"Q 	c #A3A3A3",
"! 	c #0D0D0D",
"    . . . . . . . . . . . . . . . . . . . . . . . . . . . .     ",
"X o     o o o o                             o o o o           X ",
"O + X X X X X X X X X X X X X X X X X X X X X X X X X X X X + + ",
"@ @ @ @ @ @ @ @ @ @ @ @ O O O O O O O @ @ @ @ @ @ @ @ @ @ O O O ",
"@ @ X # # # # # # $ % @ @ O O O O O @ @ @ X # & & # $ @ @ @ @ @ ",
"@ @ $ & & & & & & & & * @ @ O O O @ @ @ # & & & & & & = @ @ @ @ ",
"@ @ - & ; - $ $ $ : & & % @ @ O @ @ @ = & # > , , < # & 1 @ @ @ ",
"@ @ - & - 2 3 @ 4 5 - & : @ @ O @ @ : &   6 @ @ @ @ 5 : & 7 4 @ ",
"@ @ - & - 3 @ @ @ @ @ & # @ @ @ @ 8 & 9 , @ @ @ @ @ @ , 1 0 @ @ ",
"@ @ - & $ 3 @ @ @ @ q & # @ @ @ @ X & : 3 @ O O O O @ @ w 0 e @ ",
"@ @ - & - 5 @ @ @ r X & t @ @ @ @   & < @ @ O O O O @ @ < 0 y u ",
"@ @ - & 7 i p p p - 9 9 6 @ @ @ 3 # & a @ @ O O O O O @ @ 0 s r ",
"@ @ - & & & & & & & 1 i 5 @ @ @ @ & & 6 @ O O O O O O @ 6 0 d , ",
"@ @ - & f # # # = & & 9 @ @ @ @ @ & & 6 @ O O O O O O @ 6 0 d , ",
"@ @ - & g h 5 u r @ - & 9 @ @ @ u 9 & 6 @ O O O O O O @ @ 0 d , ",
"@ @ - & - u @ @ @ @ 5   & X @ @ u # & j @ @ O O O O @ @ j 0 y r ",
"@ @ - & $ @ @ O @ @ 3 - & $ @ @ @ t & X @ @ O O O O @ @ X 0 k 3 ",
"@ @ - & $ @ @ @ @ @ 3 - & $ @ @ @ l & = r @ @ O O @ @ r f 0 > @ ",
"@ @ - & - 5 @ @ @ @ 2 = & X @ @ @ @ z & X 3 @ @ @ @ 3 X & x u @ ",
"@ @ - & g r 4 6 , c : & 9 3 @ O @ @ l & & $ 5 u u 5 $ & & j @ @ ",
"@ @ $ & & & & & & & & & X @ @ O O @ @ X & & 9 # # 9 & & X @ @ @ ",
"@ @ * & & & & & & & z % @ @ O O O O @ @ % = & & & & = % @ @ @ @ ",
"@ @ @ @ 6 6 6 6 6 @ @ @ @ @ O O O O @ @ @ u a j j a 3 @ @ @ @ @ ",
"@ @ @ 3 3 3 3 3 @ @ @ @ @ @ @ @ @ @ @ @ @ @ u u u 3 @ @ @ @ @ @ ",
"v v v v b b b b b b n b b b b n m M M M M M n M M M M N N N h B ",
"v < 0 V 1 C V x q C q q Z 1 % h C & e v 1 V 0 A S 0 D v D V F v ",
"v N G Z q ; H % ; ; H C J h Z J C v ; 3 & H H H ; h Z H & h K u ",
"v v H L v ; Z f % ; H & v J J ; H a J h & & 1 H 1 ; Z h k V F v ",
"v v P K v K < I U K U I A < d $ < Y I U d u A U y < K u < u L T ",
"v v R k v k R c k k R E W k Q r W k W r # k k c k v W E Q k : ! ",
"v v v B v B v v u B v v u 6 m v B 6 B v u 6 6 v B v B m m 6 B v ",
"M n n b b b b b b b b b b b b v v v v v v v v v v v v v v v v v "
};
