/* XPM */
static char *cache[] = {
/* columns rows colors chars-per-pixel */
"32 32 256 2",
"   c #020202",
".  c #0B0B0B",
"X  c #001800",
"o  c #141414",
"O  c #1A1B1A",
"+  c #1F1F20",
"@  c #022D00",
"#  c #043A00",
"$  c #1F201F",
"%  c #1D3B00",
"&  c #183402",
"*  c #201F1F",
"=  c #232E00",
"-  c #20201E",
";  c #203100",
":  c #273A02",
">  c #293E1D",
",  c #343A00",
"<  c #3C3600",
"1  c #232323",
"2  c #262824",
"3  c #272828",
"4  c #282727",
"5  c #282728",
"6  c #282927",
"7  c #2B2B2A",
"8  c #272728",
"9  c #2E3527",
"0  c #2E3E21",
"q  c #2F3030",
"w  c #333333",
"e  c #3A3A3A",
"r  c #3A3F34",
"t  c #0D4300",
"y  c #095500",
"u  c #174802",
"i  c #155800",
"p  c #0D620C",
"a  c #126201",
"s  c #186F10",
"d  c #214301",
"f  c #22430A",
"g  c #214B11",
"h  c #215C09",
"j  c #2D5403",
"k  c #285409",
"l  c #2A5A15",
"z  c #344906",
"x  c #32560B",
"c  c #36581D",
"v  c #2F4222",
"b  c #2F5820",
"n  c #374728",
"m  c #3E4539",
"M  c #38532A",
"N  c #3F5934",
"B  c #266106",
"V  c #2C661B",
"C  c #346B1C",
"Z  c #386218",
"A  c #257B16",
"S  c #2E7C26",
"D  c #2E7732",
"F  c #3D6A26",
"G  c #3C762A",
"H  c #2C702E",
"J  c #3F4040",
"K  c #403F40",
"L  c #474804",
"P  c #445202",
"I  c #425F02",
"U  c #425F1C",
"Y  c #5E5C05",
"T  c #545814",
"R  c #42483B",
"E  c #405B27",
"W  c #445C30",
"Q  c #535C2A",
"!  c #46611C",
"~  c #456A22",
"^  c #476829",
"/  c #4C6C3D",
"(  c #4A712B",
")  c #427728",
"_  c #42793F",
"`  c #556F30",
"'  c #517934",
"]  c #605E25",
"[  c #62621C",
"{  c #677924",
"}  c #6E7933",
"|  c #424242",
" . c #4B4B4B",
".. c #464745",
"X. c #515E42",
"o. c #525352",
"O. c #5B5C5B",
"+. c #5A5F55",
"@. c #596743",
"#. c #587644",
"$. c #577B51",
"%. c #477547",
"&. c #6E7F48",
"*. c #64695B",
"=. c #636364",
"-. c #686865",
";. c #6C6C6B",
":. c #676865",
">. c #6C7366",
",. c #706F6F",
"<. c #74776A",
"1. c #737373",
"2. c #787A75",
"3. c #7C7C7B",
"4. c #787776",
"5. c #7E7F80",
"6. c #2A8420",
"7. c #3B8D29",
"8. c #4C813A",
"9. c #4A8737",
"0. c #4D9B2E",
"q. c #58863B",
"w. c #4BA137",
"e. c #6B8731",
"r. c #6AA83B",
"t. c #4A8E43",
"y. c #4FA540",
"u. c #5CA749",
"i. c #6A8847",
"p. c #68825D",
"a. c #69984A",
"s. c #738A5C",
"d. c #749C45",
"f. c #7A9A4C",
"g. c #73994C",
"h. c #7A9C5B",
"j. c #709466",
"k. c #63A448",
"l. c #67BD53",
"z. c #78AA4B",
"x. c #77A555",
"c. c #77B74B",
"v. c #7EA471",
"b. c #807F7F",
"n. c #8C8338",
"m. c #91893A",
"M. c #87804A",
"N. c #839B4F",
"B. c #8E9859",
"V. c #9D8D42",
"C. c #96945B",
"Z. c #80827E",
"A. c #868D75",
"S. c #86887D",
"D. c #839268",
"F. c #83A254",
"G. c #82B74D",
"H. c #84BC51",
"J. c #88B75B",
"K. c #96A558",
"L. c #8AA665",
"P. c #8EAD72",
"I. c #85B863",
"U. c #97A464",
"Y. c #99B26B",
"T. c #92BB61",
"R. c #98BC76",
"E. c #B89C52",
"W. c #A7974C",
"Q. c #B9A244",
"!. c #BDB85B",
"~. c #A0BB76",
"^. c #B5AD6F",
"/. c #B0B978",
"(. c #81C04E",
"). c #89C45D",
"_. c #99C35E",
"`. c #8EC560",
"'. c #98CC60",
"]. c #9FC474",
"[. c #95D475",
"{. c #98D87A",
"}. c #A5C47A",
"|. c #A2CB73",
" X c #ADC879",
".X c #AEDB7D",
"XX c #A6D579",
"oX c #B4C57D",
"OX c #BED771",
"+X c #B6C463",
"@X c #BAE37D",
"#X c #CD9E4C",
"$X c #CAB65C",
"%X c #DAB55E",
"&X c #C4A76D",
"*X c #CBB466",
"=X c #C2BA66",
"-X c #CBB57C",
";X c #D4AC67",
":X c #DAB761",
">X c #DCB975",
",X c #E2AF60",
"<X c #E7B967",
"1X c #D0C66D",
"2X c #D8C078",
"3X c #D2D475",
"4X c #E9C56C",
"5X c #E3C370",
"6X c #E9C974",
"7X c #F3C879",
"8X c #848484",
"9X c #888985",
"0X c #8C8B8A",
"qX c #92928C",
"wX c #989892",
"eX c #9FB08E",
"rX c #9EB29A",
"tX c #8BB488",
"yX c #A7AF97",
"uX c #ACACAC",
"iX c #ABB4A5",
"pX c #B9BEA0",
"aX c #B1B1B1",
"sX c #A9CA84",
"dX c #AED592",
"fX c #B0CC82",
"gX c #BDC394",
"hX c #B1C09E",
"jX c #B9D597",
"kX c #BEC1A4",
"lX c #BCE184",
"zX c #BAE89B",
"xX c #D8B885",
"cX c #C2D69B",
"vX c #D4DB98",
"bX c #CFD3B8",
"nX c #D3CEA4",
"mX c #CDED88",
"MX c #DCEE8A",
"NX c #C6EC99",
"BX c #C8E4AA",
"VX c #CDEAB4",
"CX c #D6E2BC",
"ZX c #E6C592",
"AX c #E0D9BF",
"SX c #FADAA9",
"DX c #E4F38C",
"FX c #EFE0B9",
"GX c #E6F9A7",
"HX c #CDCDCD",
"JX c #DEDEDE",
"KX c #DDEDC2",
"LX c #DFF2C4",
"PX c #FFECC3",
"IX c #EEEEEE",
"UX c gray100",
/* pixels */
"8X8X8X8X8X8X8X9XiX5.8X0X0X8X9X8X9X8X8X8X8X8X8X8X8X8X9X8X8X8X8X9X",
"3.3.8X3.3.8X9X$.%.j.tXiX5.8XqXwXb.b.b.b.5.5.5.5.8X3.5.5.5.5.5.5.",
"3.3.4.4.3.Z.v.%.H D D $.A.gXAXAXwXyXb.3.3.4.3.4.3.4.4.4.3.4.3.4.",
"1.1.1.1.9XtXG t.p p S S g.K.^.-XxXZXSXPX4.1.4.2.1.1.4.1.1.1.1.1.",
";.;.;.;.VX) 9.y s 6.7.r.z.K.=X2X>X;X;X&XnXCXKXpXyXBXVXLX4.1.;.,.",
":.:.-.;.^ a.k.u.w.w.0.c._.+X1X5X>X<X:X*XvXjX}.}.|.|. X~.jXA.;.-.",
"=.=.=.:.% u C u.l.l.l.'.3X1X4X4X7X4X%X!.GXNXXX).c.(._.|.fX&.S.=.",
"O.O.O.bXQ ! t i 6.w.).@X3X$X#X<X%XQ.$XMX@XXX).H.(.G.r..Xf.^ 1.O.",
"o.=.qXpXQ x k i a y B I ^.7X7X,X%X$XDX@X.XJ.z.c.r.r.`.`.( D.O.+.",
"o.o.1.pXgXB.h.i.9.B j : m.E.;X7X$XY e.e.a.v.c.[.{.{.zXa.b ,.o.o.",
" . .-.D.jXdXsXR.I.z.f.{ } n.V.W.m.P P z u l t t B V 8.b $.o.....",
"| |  .@.&.dXzXBXsX~.Y.N.e.{ P = < T [ T ` ( Z ) C l g M rX| ....",
"K K K <.: ' ' ' ( ! c j j d % & : L < < z : c ( ~ %./ >.3.| | K ",
"e e e e #.% @ # # i i i C x z ; < Q M.C.U.Y.~.L.P.P.h.eXo.e e e ",
"e w w w *.: u g u l V t.C l U } U.C./.oXoX XF.i.}.h.s.K e w w w ",
"w e w q w >.0 0 0 N p.& X W R r R / @.L.T.J.z.g.^ Z ^ e q q w w ",
"7 q 7 7 q 7 R ..7 e +.e 7 7 7 7 7 7 q 7 M E E E M ~ R R 7 7 7 q ",
"5 6 6 8 6 8 8 8 6 8 8 8 6 6 4 8 4 7 7 4 6 6 9 9 n 9 5 5 5 5 4 4 ",
"8 1 8 1 1 1 8 1 1 8 8 8 8 1 8 8 1 4 1 1 1 1 1 1 1 4 4 1 1 1 1 1 ",
"1 O + * * * O 1 O - * + 1 O O 1 * - - - - 2 - - * * * * * * * * ",
"O O O O O O O O O O O O O O O O * * O O O O O O O O O O O O O O ",
"o O o O O O O o O O o O O o O O o O O O O O o O o O O o O O o O ",
"o o o o o o o o O o o o o o o o o o o o o o o o o o o o o o o o ",
"o o 3.UXUXJX- o o 3.IXo o o 1 JXUXUX3.o IX3.o o IX8XaXUXUXUXUXaX",
"o e UXb.O IXuX. o IXUX3.o . aXJX+ 3.UX| IX3.o . IX3.uXaX. o . . ",
". uXuX. . . . .  .IXHXuX. e UXe . . . . IX3.. . IX5.uXuX. . . . ",
". aXuX. . .   . 4.IX3.IX. e UXe . . .   IXUXUXUXUX3.uXUXUXUXuX. ",
"  uXuX      .   IXHXuXIX3.e UXw     .   IX3..   IX3.uXuX  .   . ",
"  e UX4.o JXuX..IXuXuXHXuX  uXJXO 4.UXw IX4.  . IX4.uXuX      . ",
"    4.UXUXJXo 4.IX    1.IX  o JXUXUX3.  IX1.    IX1.uXUXUXUXUXuX",
"                                                                ",
"                                                                "
};
