/* XPM */
static char *charselect[] = {
/* columns rows colors chars-per-pixel */
"32 32 245 2",
"   c #286922",
".  c #286923",
"X  c #296922",
"o  c #296923",
"O  c #286A22",
"+  c #2B6B24",
"@  c #2B6B25",
"#  c #2B6C24",
"$  c #2B6C25",
"%  c #2D6D26",
"&  c #2D6D27",
"*  c #2D6E26",
"=  c #2D6E27",
"-  c #2F7029",
";  c #307029",
":  c #32722B",
">  c #32732B",
",  c #32722C",
"<  c #32732C",
"1  c #34742E",
"2  c #34742F",
"3  c #34752E",
"4  c #35742E",
"5  c #35742F",
"6  c #377532",
"7  c #377630",
"8  c #377631",
"9  c #377730",
"0  c #367830",
"q  c #387432",
"w  c #3B7734",
"e  c #397933",
"r  c #397A33",
"t  c #3A7A33",
"y  c #3B7D35",
"u  c #3D7A37",
"i  c #3C7C35",
"p  c #3C7D35",
"a  c #3E7F37",
"s  c #3F7F37",
"d  c #3E7F38",
"f  c #3F7F38",
"g  c #407B3A",
"h  c #407C39",
"j  c #17E902",
"k  c #17EB01",
"l  c #17EA02",
"z  c #17EC01",
"x  c #17ED01",
"c  c #17EC02",
"v  c #18E303",
"b  c #18E802",
"n  c #16F101",
"m  c #12FF00",
"M  c #13FE01",
"N  c #17FA06",
"B  c #1BF60B",
"V  c #1CF50B",
"C  c #1DF60C",
"Z  c #1DF60D",
"A  c #1EF60D",
"S  c #18FA06",
"D  c #3ADF2C",
"F  c #3CD030",
"G  c #24EF14",
"H  c #27EA18",
"J  c #2BEC1C",
"K  c #20F00F",
"L  c #41823A",
"P  c #41823B",
"I  c #42823A",
"U  c #42823B",
"Y  c #44843D",
"T  c #44843E",
"R  c #46873F",
"E  c #468341",
"W  c #478341",
"Q  c #468640",
"!  c #468740",
"~  c #488642",
"^  c #498942",
"/  c #498943",
"(  c #498A42",
")  c #498A43",
"_  c #4B8C45",
"`  c #4B8D45",
"'  c #4C8C45",
"]  c #4C8D45",
"[  c #4E8F48",
"{  c #528E4C",
"}  c #528F4D",
"|  c #578B51",
" . c #578B52",
".. c #598D54",
"X. c #51924A",
"o. c #52924A",
"O. c #53944D",
"+. c #54944D",
"@. c #559150",
"#. c #559250",
"$. c #579551",
"%. c #579750",
"&. c #5A9654",
"*. c #5B9654",
"=. c #5D9158",
"-. c #599952",
";. c #599A52",
":. c #599A53",
">. c #5A9953",
",. c #5A9954",
"<. c #5B9C55",
"1. c #5B9D55",
"2. c #5D9956",
"3. c #5C9C55",
"4. c #5C9D55",
"5. c #5F9B59",
"6. c #5E9F58",
"7. c #5F9E58",
"8. c #5F9E59",
"9. c #5F9F58",
"0. c #5CA756",
"q. c #5EA058",
"w. c #5FA058",
"e. c #58BB4F",
"r. c #5AB952",
"t. c #5BBC53",
"y. c #61955C",
"u. c #62975D",
"i. c #63965D",
"p. c #63975D",
"a. c #629E5C",
"s. c #669662",
"d. c #6A9A66",
"f. c #6B9F66",
"g. c #6C9B68",
"h. c #6E9E69",
"j. c #61A25A",
"k. c #61A25B",
"l. c #62A25A",
"z. c #62A25B",
"x. c #61A75B",
"c. c #64A45D",
"v. c #64A55D",
"b. c #64A45E",
"n. c #64A55E",
"m. c #65AE5E",
"M. c #67A760",
"N. c #67A761",
"B. c #67A860",
"V. c #67A861",
"C. c #6DA168",
"Z. c #6DA169",
"A. c #6FA36A",
"S. c #69AA63",
"D. c #69AB63",
"F. c #6AAA63",
"G. c #6CAD66",
"H. c #6BB763",
"J. c #6EB167",
"K. c #6FB068",
"L. c #70A06B",
"P. c #70A36A",
"I. c #71A56D",
"U. c #74A86E",
"Y. c #77A773",
"T. c #76A971",
"R. c #7AA974",
"E. c #79AC73",
"W. c #71B26B",
"Q. c #72B26A",
"!. c #72B26B",
"~. c #75B46D",
"^. c #75B56D",
"/. c #74B56E",
"(. c #75B46E",
"). c #75B56E",
"_. c #46D03B",
"`. c #49D13D",
"'. c #45F134",
"]. c #4CC342",
"[. c #65C15C",
"{. c #82B17C",
"}. c #84B37F",
"|. c #85AC82",
" X c #8FB28C",
".X c #90B38D",
"XX c #91B38D",
"oX c #92B48E",
"OX c #93B590",
"+X c #94B691",
"@X c #94B791",
"#X c #95B892",
"$X c #97BA93",
"%X c #9CBF99",
"&X c #9EC19A",
"*X c #9EC19B",
"=X c #9FC29C",
"-X c #A1C39D",
";X c #A2C59E",
":X c #A4C6A0",
">X c #A5C8A1",
",X c #A5C8A2",
"<X c #B9CFB7",
"1X c #BACFB8",
"2X c #BAD0B8",
"3X c #BBD0B8",
"4X c #BBD0B9",
"5X c #BBD1B9",
"6X c #BCD1B9",
"7X c #BCD1BA",
"8X c #BCD1BB",
"9X c #BDD1BA",
"0X c #BCD2BA",
"qX c #BDD3BB",
"wX c #C2D8C0",
"eX c #C3D9C1",
"rX c #C4DAC2",
"tX c #C5DBC3",
"yX c #C6DBC4",
"uX c #C7DCC5",
"iX c #C8DAC6",
"pX c #D6E3D5",
"aX c #D6E4D5",
"sX c #D7E4D6",
"dX c #E3ECE2",
"fX c #E4ECE3",
"gX c #E4EDE3",
"hX c #E4EDE4",
"jX c #E5EDE4",
"kX c #E5EEE4",
"lX c #E6EFE6",
"zX c #E7EFE6",
"xX c #E7F0E6",
"cX c #E8F0E7",
"vX c #E8F1E7",
"bX c #E9F1E8",
"nX c #F1F5F1",
"mX c #F1F6F1",
"MX c #F2F6F1",
"NX c #F2F6F2",
"BX c #F3F7F2",
"VX c #F3F7F3",
"CX c #F3F8F3",
"ZX c #F4F8F3",
"AX c gray100",
/* pixels */
"b b b b b b k k x k k k k b k k k k k k b b b x x x k k x k k k ",
"v                   + . . .     . . . .     # O O   O O O O O x ",
"k + $   + $ + + $ $ # # + + + + @ @ + + +   # # $ # + $   =   b ",
"x = = = =  XAXAXfXq  XnX= @  XnX= @  .AX .= = nXAXAXAX<X= = = n ",
"x - - - ..AXXXu dX1XoXnX- -  XnX; ; 1XAX1X> > nXXX> s.nXoX; ; x ",
"x > < < 1X5X< < > > oXnX> > oXnX> g fXiXfXu < mXoX< > mXoX> > x ",
"x 5 5 5 5X5X5 5 5 5 oXAXAXAXAXnX1 =.AX|.AX=.5 mXpX1XsXmXf.5 5 x ",
"x q q q qX5X5 8 8 8 @XZX3 8 $XmX5 5XlX5XlX1X5 mXsXnXmXg.5 0 5 x ",
"x e e e y.AX$XT lX5X$XnXe e $XmXT lXqXqX5XlXW MX$Xg.nXqXt t t x ",
"x y p p p $XAXAXfX~ $XnXp p $XnXi.AXu.u i.AXi.nX$Xp A.VX$Xp y x ",
"x f p L h L p L f f f f h s L p f f p L f f p L s s s d f f f x ",
"x U L L L L L L L L L L L L L L L L L L L L L L L L L L L U L x ",
"x T Y Y Y Y Y Y T T Y Y Y Y Y Y T Y Y Y Y Y Y T Y T T T Y Y Y x ",
"x { lXAXAXlX{ %XAXAXAXAXZXf.AXf.Y ! ! ! MX%X! R.MX%Xf.AXAXAXAX'.",
"x wXzX@.@.lXwX&XnX) ) ) ) C.AXC.) ) ) ) MX=XR.MXwX) / ) wXwX) x ",
"x eXzX$.` ' ' =XZX' ` ` ] A.AXA.' ' ' ' ZXeXMXeX` ` ' ` eXwX' x ",
"x &.bXAXAXbX*.=XAXAXAXZX' I.AXI.' [ [ [ ZXAXmX[ [ [ [ [ rXrX[ x ",
"x [ o.o.2.bXtX:XmXo.o.o.o.U.AXU.o.o.o.o.ZXtXZXtXo.o.o.o.tXtXo.x ",
"x tXzX5.5.bXtX:XZX+.+.O.+.T.AXU.+.+.O.+.ZX,X{.ZXtX+.+.+.tXtXO.x ",
"x a.bXAXAXbXa.:XAXAXAXAXZXE.AXAXAXAXAXE.ZX,X+.}.ZX,X%.%.uXtX%.x ",
"x :.:.:.:.:.:.:.:.:.:.:.-.-.:.:.:.:.:.:.:.:.:.:.:.:.:.,.:.:.2.x ",
"x 4.1.1.4.1.4.1.1.4.2.4.1.1.4.4.1.4.4.1.4.1.1.1.4.4.4.4.4.4.4.x ",
"x j.9.q.9.9.9.9.9.j.q.q.a.w.w.w.q.q.9.9.q.a.4.a.a.w.w.4.a.q.q.x ",
"x j.j.j.z.j.j.j.j.z.j.j.j.j.j.j.j.j.j.j.0.j.j.c.j.j.j.j.j.j.j.x ",
"x n.n.n.n.c.n.c.n.n.c.n.n.n.n.n.n.n.b.b.K F 0.b.c.c.n.n.c.n.n.b ",
"b n.M.n.n.F.F.n.M.M.N.N.F.n.F.n.n.M.n.M.V M Z ].n.n.n.F.n.F.m.b ",
"x F.F.F.D.D.F.F.m.e.e.e.e.e.e.e.e.e.e.e.V M m m J r.F.F.F.D.F.b ",
"x J.G.G.G.G.G.G.t.G G G G G G G G G G G N M m m M M _.G.G.G.G.n ",
"x K.K.!.J.J.J.!.!.K.K.K.K.K.K.K.!.K.K.K.A M m m N `.K.K.J.!.G.b ",
"x !.!.W.!.!.!.!.!.W.!.!.W.W.W.W.Q.Q.Q.Q.A M M D H.!.Q.!.!.!.Q.n ",
"x ^.^.!.^.^.~.~.^.^.^.^.^.).).).^.).^.^.A J [.).^.^.^.^.^.^.^.b ",
"x x x x x x x x n b n b n b x x x x x x n x x x x x x x x n b n "
};
