/* XPM */
static char *charselect_cl[] = {
/* columns rows colors chars-per-pixel */
"32 32 248 2",
"   c #2C2C2C",
".  c #2C2D2C",
"X  c #2C2D2D",
"o  c #2D2C2C",
"O  c #2D2C2D",
"+  c #2D2D2C",
"@  c #2D2D2D",
"#  c #2E2D2C",
"$  c gray19",
"%  c #303031",
"&  c #303130",
"*  c #303131",
"=  c #313030",
"-  c #313031",
";  c gray20",
":  c #333334",
">  c #333433",
",  c #333434",
"<  c #343333",
"1  c #343334",
"2  c #343433",
"3  c #343434",
"4  c gray21",
"5  c #363736",
"6  c #373636",
"7  c #373637",
"8  c #373736",
"9  c #373737",
"0  c #3A3A3A",
"q  c #3A3A3B",
"w  c #3B3A3A",
"e  c #3B3A3B",
"r  c #3B3B3A",
"t  c #3D3E3E",
"y  c #3E3D3E",
"u  c #3E3E3D",
"i  c #3E3E3E",
"p  c #414141",
"a  c #404142",
"s  c #414142",
"d  c #414241",
"f  c #424141",
"g  c #444343",
"h  c #444445",
"j  c #444544",
"k  c #444545",
"l  c #454444",
"z  c #454445",
"x  c #454544",
"c  c gray27",
"v  c #474847",
"b  c #484848",
"n  c #484849",
"m  c #494848",
"M  c #4A4A4B",
"N  c #4B4B4A",
"B  c #4B4C4C",
"V  c #4C4B4C",
"C  c #4C4C4B",
"Z  c #4C4C4C",
"A  c gray31",
"S  c #4F4F50",
"D  c #4F504F",
"F  c #4F5050",
"G  c #504F4F",
"H  c #504F50",
"J  c #50504F",
"K  c #505050",
"L  c #535353",
"P  c #535354",
"I  c #535453",
"U  c #545353",
"Y  c #545354",
"T  c gray33",
"R  c #555454",
"E  c gray34",
"W  c #575758",
"Q  c #575858",
"!  c #5A5A5B",
"~  c #5B5A5B",
"^  c #5B5B5A",
"/  c #5B5B5B",
"(  c gray37",
")  c #5E5F5E",
"_  c #5F5E5E",
"`  c #5F5E5F",
"'  c #5F5F5E",
"]  c #5F5F5F",
"[  c gray38",
"{  c #626262",
"}  c #626263",
"|  c #626362",
" . c #626363",
".. c #636262",
"X. c #636263",
"o. c #636362",
"O. c gray39",
"+. c #656666",
"@. c #666565",
"#. c gray40",
"$. c #666667",
"%. c #666766",
"&. c #676767",
"*. c #676768",
"=. c #696A6A",
"-. c #6A696A",
";. c #6A6A6A",
":. c #6B6A6A",
">. c #6C6D6D",
",. c #6D6D6D",
"<. c #6D6E6E",
"1. c gray43",
"2. c #6F6F6F",
"3. c #6F7070",
"4. c #706F70",
"5. c gray44",
"6. c #717070",
"7. c #717272",
"8. c #727272",
"9. c #747474",
"0. c #757676",
"q. c #767575",
"w. c #767675",
"e. c #767676",
"r. c #777677",
"t. c gray47",
"y. c #797979",
"u. c #79797A",
"i. c #797A79",
"p. c #797A7A",
"a. c #7A7979",
"s. c #7A797A",
"d. c #7A7A79",
"f. c gray48",
"g. c #7B7B7B",
"h. c #7B7C7C",
"j. c #7C7C7C",
"k. c #7D7D7E",
"l. c #7D7E7D",
"z. c #7D7E7E",
"x. c #7E7D7D",
"c. c #7E7D7E",
"v. c #7E7E7D",
"b. c #7E7E7E",
"n. c #7F7E7E",
"m. c #7F7E7F",
"M. c #818181",
"N. c #818182",
"B. c #818281",
"V. c #818282",
"C. c #828181",
"Z. c #828281",
"A. c gray51",
"S. c gray52",
"D. c #858586",
"F. c #858685",
"G. c #858686",
"H. c #868585",
"J. c #868586",
"K. c #868685",
"L. c #868686",
"P. c gray53",
"I. c #888888",
"U. c #898989",
"Y. c #89898A",
"T. c #898A89",
"R. c #8A8989",
"E. c #8A898A",
"W. c #8A8A89",
"Q. c gray54",
"!. c #8B8B8B",
"~. c #8D8D8D",
"^. c #8D8E8D",
"/. c #8E8D8D",
"(. c #8E8E8E",
"). c gray57",
"_. c #929191",
"`. c gray58",
"'. c #959594",
"]. c #959595",
"[. c gray59",
"{. c #989898",
"}. c #989999",
"|. c #999898",
" X c #999899",
".X c #999998",
"XX c gray60",
"oX c #9A9A9A",
"OX c #9B9C9C",
"+X c #9C9D9D",
"@X c #9D9C9C",
"#X c #9D9C9D",
"$X c #9D9D9C",
"%X c #9D9D9D",
"&X c #9D9E9D",
"*X c #A0A0A0",
"=X c #A0A0A1",
"-X c #A0A1A0",
";X c #A0A1A1",
":X c #A1A0A0",
">X c #A1A0A1",
",X c #A1A1A0",
"<X c gray63",
"1X c gray66",
"2X c #AAAAA9",
"3X c #AAAAAA",
"4X c gray67",
"5X c gray68",
"6X c gray69",
"7X c #B2B2B2",
"8X c #B4B4B3",
"9X c #B4B4B4",
"0X c #BCBCBC",
"qX c gray74",
"wX c #BDBEBD",
"eX c #BEBEBF",
"rX c #BEBFBE",
"tX c #BFC0C0",
"yX c #C0C0C0",
"uX c #C1C1C1",
"iX c gray76",
"pX c #C9C9CA",
"aX c #C9CAC9",
"sX c #C9CACA",
"dX c #CAC9C9",
"fX c #CAC9CA",
"gX c #CBCBCB",
"hX c #CBCCCB",
"jX c gray80",
"kX c #CDCDCD",
"lX c gray81",
"zX c #D0D0D0",
"xX c gray85",
"cX c #DADADA",
"vX c #E4E4E4",
"bX c gray90",
"nX c #E6E6E6",
"mX c #E7E7E7",
"MX c #E9E9E9",
"NX c #EAEAEA",
"BX c gray92",
"VX c #ECECEC",
"CX c gray95",
"ZX c #F3F3F3",
"AX c #F4F4F4",
"SX c gray96",
"DX c #F6F6F6",
"FX c gray100",
/* pixels */
"@ @ @ @ @ @ @ @ @ . @ @ @ @ @ @ @ @ @ @ O @ @ + @ @ @ @ @ @ @ @ ",
"$ $ $ $ $ $ $ $ $ $ $ $ $ $ $ $ $ $ $ $ $ $ $ $ $ - $ $ $ $ $ $ ",
"$ $ 9 $ 9 $ 2 9 > 2 2 $ > < $ < > 2 < $ $ 9 2 < $ > 1 $ $ < 2 2 ",
"0 9 9 9 9 `.FXFXvXg [.CX9 9 [.CX9 8 ] FX` 9 9 CXFXFXFXqX0 9 9 9 ",
"r 0 0 0 [ FX[.v mX0X[.CX0 0 [.CX0 0 qXFXqX0 0 CX{.w 1.CX[.0 0 w ",
"t t t t qXqXt t t u {.CXt t {.CXt M mXgXmXb t CX{.t t CX{.t t t ",
"s s s a rXuXs s s s oXFXFXFXFXCXs &.FX~.FX#.s CXxXyXxXZX9.s s f ",
"j z z z uXuXj z z z OXZXj z OXZXz uXmXuXmXuXj ZXxXZXAXr.j z g j ",
"m b b b >.FX&XT mXuX&XZXb b &XZXJ NXuXuXuXmXI ZX$Xd.ZXuXb b b b ",
"C Z Z Z Z ;XFXFXmXQ ;XZXZ C ;XZX7.FX7.V 1.FX6.AX:XC h.AX;XV Z Z ",
"F F J J J H H J J J S J J J J G H H G H J H J J Z J J H H J J J ",
"L T T T L L L Y T T T J L Y T I L L L L L Y L I T T L L Y L L Y ",
"E E T ~ T Q T E E E T ~ T Q W W W T ~ T W W W W W W W W E T ~ T ",
"~ #.NXFXFXNX#.2XFXFXFXFXAXh.FXh.^ ~ ~ ` AX1X^ K.AX1Xj.FXFXFXFXm.",
"` sXNX-.-.NXsX2XAX] ] ] ] h.FXh.] ) ` ` AX4XW.AXsX] ] ] sXsX` ] ",
"[ gXNX>.[ O.[ 5XAXO.O.O.O.Z.FXZ.O.O.[ O.AXjXAXgX..[ ..[ gXsX#.[ ",
"#.3.BXFXFXBX4.5XFXFXFXAXO.D.FXD.%.#.#.#.AXFXAX-.&.#.%.#.gXgX*.%.",
"-.-.-.-.q.BXgX6XAX-.:.:.-.E.FXE.=.=.-.-.DXgXAXgX-.-.;.;.gXlX;.;.",
"1.lXVXt.r.VXlX9XAX>.>.>.>.!.FXW.>.>.1.1.AX9X[.AXzX>.1.1.lXzX1.1.",
"7.h.VXFXFXVXp.9XFXFXFXFXDX~.FXFXFXFXFX^.AX9X7.oXDX9X8.8.zXzX8.8.",
"w.w.w.w.r.w.r.r.w.r.w.r.q.w.w.r.w.w.w.r.w.r.w.w.w.r.w.w.w.r.w.r.",
"d.d.d.d.s.p.d.d.d.d.p.d.j.j.d.d.d.d.d.h.p.d.h.d.d.p.p.h.d.d.p.d.",
"n.h.h.h.k.k.M.h.h.m.m.h.h.h.n.h.h.h.m.h.m.b.h.m.m.h.h.h.m.b.h.m.",
"A.Z.A.A.A.M.Z.Z.A.A.A.A.Z.Z.Z.M.Z.A.A.A.m.A.A.A.A.A.Z.A.V.A.m.Z.",
"L.L.L.L.L.L.A.L.D.H.D.L.L.L.L.L.L.A.L.L.D.D.D.L.L.L.L.L.L.D.D.D.",
"W.W.W.W.E.I.W.W.W.W.E.W.!.K.W.W.W.E.E.W.E.W.E.W.W.W.W.W.W.W.I.W.",
"~.~.~.~.~.~.~.~.~.~.~.~.~.~.~.!.~.~.~.~.!.~.!.!.~.~.~.~.~.~.~.~.",
").).).).).).).).).).).).).).).`.).).).).).)._._.).).).).).).).).",
"[.`.`.[.[.`.[.`.'.[.[.`.`.[.`.[.[.`.[.`.[.`.[.{.`.[.`.[.[.`.[.`.",
"{.oX{.oX{.oX{.oX{.{.{.oXoX{.oX{.{.oX{.oX{.{.{.{.oX{.oX{.{.oX{.oX",
"&X#X&XOX&X&X&X&X#X&X&X$X#X&X&X#X@X&X&X#X#X&X#X&X#X#X&X#X#X&X&X&X",
";X:X=X:X:X;X=X=X;X:X;X;X:X=X=X=X:X=X=X=X=X=X=X=X=X=X=X=X=X;X;X=X"
};
