/* XPM */
static char *clip[] = {
/* columns rows colors chars-per-pixel */
"32 32 53 1",
"  c #020202",
". c #0B0B0B",
"X c #131313",
"o c #1A1A1A",
"O c #1F1F20",
"+ c #1F201F",
"@ c #201F1F",
"# c #232323",
"$ c #272728",
"% c #272827",
"& c #272828",
"* c #282727",
"= c #282728",
"- c #282827",
"; c #2B2B2B",
": c #302F30",
"> c #333333",
", c #3B3B3B",
"< c #3F4040",
"1 c #403F40",
"2 c #434342",
"3 c #484748",
"4 c #4B4B4B",
"5 c #535353",
"6 c #575858",
"7 c #5B5B5B",
"8 c #5F6060",
"9 c #646464",
"0 c #6C6C6C",
"q c #6F6F70",
"w c #737373",
"e c #7B7B7B",
"r c #7E7F80",
"t c #848484",
"y c #888887",
"u c #8C8C8C",
"i c #8F908F",
"p c #939393",
"a c #9B9B9B",
"s c #A09F9F",
"d c #A3A3A3",
"f c #A8A8A7",
"g c #ACACAC",
"h c #B3B3B3",
"j c #BBBBBB",
"k c #C3C3C3",
"l c #CCCCCC",
"z c #D3D3D3",
"x c #DCDCDC",
"c c #E3E3E3",
"v c #EDEDED",
"b c #F3F3F3",
"n c #FEFEFE",
/* pixels */
"tttttyupfkftttttttttrttyttytyyyt",
"eeeeeyaljkvzyrrypprrrrrrrreeeeee",
"eeeeeyjpeesnzrshjxzieeeeeeweeeee",
"wwwwwuhwwwekbhgewucvtqqwwwww0www",
"qqqqwaf00qqanceq0qibk00000000000",
"99990da9999rch9909qlbe9900999990",
"98989ud9989qzd88989sni8989988998",
"77778eg87770xs77779iny7777777777",
"665669fs666ebu65557ynr6655656555",
"455450aku57jnx55555pl55445455555",
"44445ivxckznnns4446li34443334433",
"32234uyrfzbnnnbt54pnk42333332322",
"11,23yw2248yjvnnccbnc611<22<2111",
",,,,2pa,,,,<26tkbnnnvufjjy,,,,,,",
">,>,,ep,>>,>>>,5zncnnnncej9>>>>>",
"::::,7e:::::::>3zcznnnne:7r>>::>",
";;;;;7u;;;;;;;;3xlznnnv3;3w>;;;;",
";&%%;2ai2;-;;&;2zkknnnx;-2w:;*-=",
"###**;>wagw,;#*,zvexnnx;#49=#*#*",
"o+OOOo##4zncg9:>lny4knv3o03oo@@o",
"oooooooo;eknnnxgzg1*3pvg0eoooooo",
"ooooXoooo#,9azvu2#ooo;6fg,ooooXo",
"XXXXoXXXXoXo*>>oXXXXXXo#oXXXXXXX",
"XXX.ennx#evXXXXX2nnn2XvnnngXXXXX",
"..X,ne#chev..X...1n,..vr.4vr.X.X",
"...gg....eb......,n,..be..be....",
"...gg. ..eb .....,n,..vlgzv4. . ",
".  gg .  ev.   . ,n,. vlgg4  . .",
"   >neXxgev      >n,  be     .  ",
"    ennxXwnnnnv ,nnn: ve        ",
"                                ",
"                                "
};
