/* XPM */
static char *cycle[] = {
/* columns rows colors chars-per-pixel */
"32 32 45 1",
"  c #020202",
". c #0B0B0B",
"X c #131313",
"o c #1A1A1A",
"O c #1F1F20",
"+ c #1F201F",
"@ c #201F1F",
"# c #232323",
"$ c #272728",
"% c #272827",
"& c #282727",
"* c #282827",
"= c #2B2B2B",
"- c #343434",
"; c #3B3B3B",
": c #3F4040",
"> c #403F3F",
", c #403F40",
"< c #434343",
"1 c #4B4B4B",
"2 c #535353",
"3 c #5B5B5B",
"4 c #636363",
"5 c #686767",
"6 c #6C6C6C",
"7 c #727272",
"8 c #7B7B7B",
"9 c #7E7F80",
"0 c #848484",
"q c #8B8B8B",
"w c #929392",
"e c #9A9B9B",
"r c #A4A4A4",
"t c #A8A8A7",
"y c #ACACAC",
"u c #B3B3B3",
"i c #BBBBBC",
"p c #C3C3C3",
"a c #CCCCCC",
"s c #D1D1D1",
"d c #DCDCDC",
"f c #E4E4E4",
"g c #EDEDED",
"h c #F4F4F4",
"j c #FCFCFC",
/* pixels */
"000000000000000008ay00000q000000",
"08088980980099989fjw999998999980",
"887887880idi888qpjhp898788877888",
"777778wifdww77udgjhhpyrq97777777",
"66667ighu0766rhhjjjjhghgfe666666",
"5555whjr5555yjhhjjjjjjjjjhp55555",
"4445ajf84444egjhhjjjjhjjjhji4444",
"3330jji433335wgjhjjhjhjjjjjd7333",
"223yhjs42223433ajjjhjhjjjjjji223",
"224ijjd522227521rjhi86wafjjhg212",
"117djjd611114y211rh0<111yjhjj311",
"<<7ijjjp1<<<7g02<<w7<<<<9jjjj2<<",
"<:2shjjjt1<25sji1<;><;<:4djjj2;<",
";;:ihjjjjiw68sjji1;;;;;;2pjja;;;",
"---2jhjjjjjjjjjjja1----;<ijj6---",
"---;ejhjjjjjjjjjjjs1---;3sjj1=--",
"=--=-yjjjjjjhjjjjjjs==;;0jjw-===",
"%=%##-ujjjjjjhhjjjd1;<<6fje=#=**",
"######=6ruphfjjjja-&58rgj0*#####",
"O%#+#=+o==-<5hjja-o-iade;#o#OOOO",
"o#oooooooooo#fj0<o#--<==oooooooo",
"ooXoooooooo+Xai-oo#oooXooooXooXo",
"XoXoXXXXXXXXX41XXXoXXXXXooXXXXXX",
"XXXXXXXXXoXXXoXXXXXXXXX.XXXXXX#X",
"..0jjd#9g.X8h.#djj0.g0.X..ujjjju",
".;j8ody.h8.g8.ydo8j;g8....yy....",
".yy.....8g8g.;j;....g8. ..yy....",
".yy   .  hj8 ;j;. . g8. . yjjjy ",
" yy   .  8g  -j;    g8    yy  . ",
" -j8Xdy  8g   ydX8j;g8    ty    ",
"  7jjdX  7g   .djj8 gjjjj8tjjjjy",
"                                "
};
