/* XPM */
static char * DogWindow_SmallShelf_xpm[] = {
"24 35 521 2",
"  	c #C7C7C7",
". 	c #C3C3C1",
"+ 	c #BAB2A8",
"@ 	c #B9B1A8",
"# 	c #C2BEBA",
"$ 	c #C0BDBA",
"% 	c #8E7254",
"& 	c #C5C4C2",
"* 	c #C6C6C7",
"= 	c #BFBAC4",
"- 	c #C4C2C6",
"; 	c #C4C4C4",
"> 	c #C0C0C0",
", 	c #B8AC9F",
"' 	c #9F8261",
") 	c #C4C2BF",
"! 	c #C3C0BE",
"~ 	c #8D6E4B",
"{ 	c #B2A89C",
"] 	c #C4C3C5",
"^ 	c #B6ACBF",
"/ 	c #C0BDC4",
"( 	c #B6B6B6",
"_ 	c #979797",
": 	c #929292",
"< 	c #C5C5C5",
"[ 	c #C3C3C3",
"} 	c #A4A4A4",
"| 	c #AEAEAE",
"1 	c #A8A5A1",
"2 	c #A78258",
"3 	c #A98F73",
"4 	c #C5C2C0",
"5 	c #987752",
"6 	c #98846D",
"7 	c #ACACAC",
"8 	c #A8A7A8",
"9 	c #A6A6A7",
"0 	c #B7B7B7",
"a 	c #A7A7A7",
"b 	c #AFAFAF",
"c 	c #ABABAB",
"d 	c #B1B0B0",
"e 	c #BFA07F",
"f 	c #987349",
"g 	c #AD9982",
"h 	c #A78256",
"i 	c #917655",
"j 	c #C7C6C6",
"k 	c #BCBCBC",
"l 	c #B1B1B1",
"m 	c #C6C6C6",
"n 	c #B5B5B5",
"o 	c #B4B4B4",
"p 	c #C4C3C2",
"q 	c #A58E75",
"r 	c #B0875C",
"s 	c #C1925C",
"t 	c #B98B59",
"u 	c #AE8353",
"v 	c #9E7B52",
"w 	c #C6C6C5",
"x 	c #BAB5B0",
"y 	c #B48756",
"z 	c #D29E65",
"A 	c #C7955E",
"B 	c #B48857",
"C 	c #A98051",
"D 	c #A79A8A",
"E 	c #C6C7C6",
"F 	c #C6C7C5",
"G 	c #C3C5C2",
"H 	c #C3C5C1",
"I 	c #BAB3AC",
"J 	c #B3916B",
"K 	c #BC9367",
"L 	c #A97F51",
"M 	c #AF8353",
"N 	c #C6945F",
"O 	c #C1915B",
"P 	c #AF8453",
"Q 	c #AA8150",
"R 	c #998165",
"S 	c #C0C4BB",
"T 	c #BEC4B9",
"U 	c #BFC4BA",
"V 	c #C1C5BC",
"W 	c #AAA197",
"X 	c #A67D4F",
"Y 	c #C99761",
"Z 	c #D09D64",
"` 	c #D19D63",
" .	c #C8965E",
"..	c #B98C59",
"+.	c #AB8151",
"@.	c #A37B4E",
"#.	c #90714F",
"$.	c #C3C2C1",
"%.	c #C0C3BD",
"&.	c #C2C5C1",
"*.	c #BFC2BD",
"=.	c #BFC2BC",
"-.	c #C5C5C4",
";.	c #AFA9A2",
">.	c #A27B4E",
",.	c #AC8153",
"'.	c #8F6B49",
").	c #95714E",
"!.	c #8D6A47",
"~.	c #B38755",
"{.	c #A87F4F",
"].	c #997448",
"^.	c #8B6A44",
"/.	c #BDB9B5",
"(.	c #A2A2A2",
"_.	c #939393",
":.	c #8F8F8F",
"<.	c #AAAAAA",
"[.	c #959793",
"}.	c #929391",
"|.	c #969794",
"1.	c #959692",
"2.	c #989898",
"3.	c #BAB8B5",
"4.	c #755C41",
"5.	c #B08454",
"6.	c #A77F50",
"7.	c #A47B4E",
"8.	c #A1794D",
"9.	c #9C754B",
"0.	c #926E45",
"a.	c #977148",
"b.	c #AEA79E",
"c.	c #C5C6C3",
"d.	c #C2C4BD",
"e.	c #C2C5BE",
"f.	c #C4C6C2",
"g.	c #655B4E",
"h.	c #483927",
"i.	c #473521",
"j.	c #503C26",
"k.	c #654C30",
"l.	c #7E5F3C",
"m.	c #A27A4D",
"n.	c #9E8C79",
"o.	c #C3C6C1",
"p.	c #C3C6C2",
"q.	c #B9B8B7",
"r.	c #645747",
"s.	c #866440",
"t.	c #AC8252",
"u.	c #CC9961",
"v.	c #C0915C",
"w.	c #8E583A",
"x.	c #B6ACAA",
"y.	c #958572",
"z.	c #A57C4F",
"A.	c #C7955F",
"B.	c #CD9A62",
"C.	c #D18F5C",
"D.	c #C4623D",
"E.	c #A5492D",
"F.	c #947C68",
"G.	c #C6C5C5",
"H.	c #B1A19E",
"I.	c #8E6D59",
"J.	c #96613F",
"K.	c #9A593B",
"L.	c #9C4E39",
"M.	c #B95338",
"N.	c #C4764D",
"O.	c #BA8957",
"P.	c #916F47",
"Q.	c #A89F95",
"R.	c #A98F89",
"S.	c #915A4A",
"T.	c #A64C32",
"U.	c #BA6440",
"V.	c #CD8859",
"W.	c #D49E64",
"X.	c #C4935C",
"Y.	c #A57C4D",
"Z.	c #806445",
"`.	c #B0AAA0",
" +	c #C8C8BF",
".+	c #C9C8BE",
"++	c #C9C9BC",
"@+	c #C9C9BD",
"#+	c #C6C5B6",
"$+	c #C6C3B6",
"%+	c #B7B1AB",
"&+	c #A8884E",
"*+	c #AF8553",
"=+	c #CC9A62",
"-+	c #D8A367",
";+	c #D7A266",
">+	c #D29E64",
",+	c #C3935D",
"'+	c #B28655",
")+	c #977248",
"!+	c #83633F",
"~+	c #7A5F3D",
"{+	c #816440",
"]+	c #91714C",
"^+	c #987E5F",
"/+	c #A18360",
"(+	c #BDB195",
"_+	c #C9C9C0",
":+	c #A49A8F",
"<+	c #906E46",
"[+	c #AD8252",
"}+	c #C6955F",
"|+	c #D39F65",
"1+	c #D6A267",
"2+	c #D09D63",
"3+	c #C0905B",
"4+	c #B38756",
"5+	c #A67D50",
"6+	c #967248",
"7+	c #8B6943",
"8+	c #87653F",
"9+	c #A77D4F",
"0+	c #AB8051",
"a+	c #926F46",
"b+	c #A4977A",
"c+	c #C9CABA",
"d+	c #CBCBBA",
"e+	c #978A7B",
"f+	c #75593B",
"g+	c #826240",
"h+	c #946F4B",
"i+	c #A17950",
"j+	c #B18658",
"k+	c #CF9C63",
"l+	c #BF905B",
"m+	c #A57C50",
"n+	c #866643",
"o+	c #785C3C",
"p+	c #916E46",
"q+	c #85643E",
"r+	c #BB8D5A",
"s+	c #8A6944",
"t+	c #755B3A",
"u+	c #ADA79F",
"v+	c #CACABD",
"w+	c #928578",
"x+	c #886740",
"y+	c #977147",
"z+	c #C4945E",
"A+	c #CD9B61",
"B+	c #CB9960",
"C+	c #A87E50",
"D+	c #8F6C43",
"E+	c #8E6B44",
"F+	c #80603C",
"G+	c #987248",
"H+	c #C2925D",
"I+	c #BC8E57",
"J+	c #A17C49",
"K+	c #96836F",
"L+	c #CACABE",
"M+	c #A29C96",
"N+	c #735636",
"O+	c #83633E",
"P+	c #9D774C",
"Q+	c #BD8E59",
"R+	c #C6955D",
"S+	c #C3935C",
"T+	c #B98B58",
"U+	c #84633E",
"V+	c #876540",
"W+	c #775838",
"X+	c #C3945A",
"Y+	c #A37C4B",
"Z+	c #927D65",
"`+	c #C2C1C0",
" @	c #645440",
".@	c #715536",
"+@	c #80613D",
"@@	c #A67D4E",
"#@	c #BB8D58",
"$@	c #C5955E",
"%@	c #B98B57",
"&@	c #A1794C",
"*@	c #7C5D3B",
"=@	c #775A39",
"-@	c #66472C",
";@	c #614A2E",
">@	c #926E46",
",@	c #C5965B",
"'@	c #9F8049",
")@	c #988867",
"!@	c #CBCBB9",
"~@	c #867F77",
"{@	c #5C3E27",
"]@	c #6F4C30",
"^@	c #8C6942",
"/@	c #9D774A",
"(@	c #BC8F59",
"_@	c #AE9053",
":@	c #9B764A",
"<@	c #6B5132",
"[@	c #604028",
"}@	c #744A2B",
"|@	c #7C6742",
"1@	c #9D896C",
"2@	c #C39B56",
"3@	c #A08C47",
"4@	c #9A9B75",
"5@	c #C7C7C6",
"6@	c #A6A6A6",
"7@	c #B3B3B3",
"8@	c #AFAAA7",
"9@	c #613D29",
"0@	c #583421",
"a@	c #5F442B",
"b@	c #7B6447",
"c@	c #7A6244",
"d@	c #A58E5F",
"e@	c #B29F65",
"f@	c #937747",
"g@	c #63482D",
"h@	c #A06844",
"i@	c #AB764B",
"j@	c #A5836F",
"k@	c #ADA39A",
"l@	c #AC9553",
"m@	c #A5874F",
"n@	c #888967",
"o@	c #B9C2B9",
"p@	c #C2C2C2",
"q@	c #C7BCBB",
"r@	c #977B65",
"s@	c #956842",
"t@	c #76553F",
"u@	c #766B5F",
"v@	c #645F4C",
"w@	c #797249",
"x@	c #B69A61",
"y@	c #8F8045",
"z@	c #7B6241",
"A@	c #8E5F3F",
"B@	c #8F6442",
"C@	c #806354",
"D@	c #A7A4A4",
"E@	c #9D8D59",
"F@	c #9F874D",
"G@	c #6D6742",
"H@	c #A5ABA3",
"I@	c #B8B8B8",
"J@	c #C9C1C1",
"K@	c #B29080",
"L@	c #BC7E4F",
"M@	c #A4836B",
"N@	c #C2C6C2",
"O@	c #939C7B",
"P@	c #B29354",
"Q@	c #928048",
"R@	c #A6A898",
"S@	c #8C694F",
"T@	c #9C6742",
"U@	c #926342",
"V@	c #BB9C93",
"W@	c #AB9A8F",
"X@	c #8A7C46",
"Y@	c #8A7440",
"Z@	c #95936E",
"`@	c #B1CAAF",
" #	c #C0C9BF",
".#	c #B9A39B",
"+#	c #BE8454",
"@#	c #A7927A",
"##	c #B4B7AC",
"$#	c #A69151",
"%#	c #988150",
"&#	c #C5C4C3",
"*#	c #BEC0BF",
"=#	c #9C887D",
"-#	c #A17148",
";#	c #A19381",
">#	c #C2BEBD",
",#	c #ACACA4",
"'#	c #827355",
")#	c #967647",
"!#	c #9A9681",
"~#	c #BEC9BE",
"{#	c #BFBFBF",
"]#	c #BDBDBD",
"^#	c #C4ADA9",
"/#	c #B98254",
"(#	c #B08E7A",
"_#	c #C7BDBD",
":#	c #C0C0C1",
"<#	c #C2C2C0",
"[#	c #A58D58",
"}#	c #A2845E",
"|#	c #BCBDBD",
"1#	c #B0B9B9",
"2#	c #C2B2B1",
"3#	c #B17A4F",
"4#	c #B49B92",
"5#	c #BABFBF",
"6#	c #B7C2C3",
"7#	c #ABC3AB",
"8#	c #9D884F",
"9#	c #93A788",
"0#	c #B3C6BA",
"a#	c #BBBBBB",
"b#	c #C5B8B7",
"c#	c #B8865D",
"d#	c #AB9B87",
"e#	c #C0B4B4",
"f#	c #B2B3B2",
"g#	c #A1B4A1",
"h#	c #7E704D",
"i#	c #999162",
"j#	c #99B7A1",
"k#	c #A8A8A9",
"l#	c #A6A3A0",
"m#	c #8D6D4D",
"n#	c #BBBAB7",
"o#	c #A3AFB0",
"p#	c #9DA2A2",
"q#	c #9A9B96",
"r#	c #90734E",
"s#	c #B5B5B0",
"t#	c #BEC4C4",
"u#	c #BEB3B4",
"v#	c #B78866",
"w#	c #AD9784",
"x#	c #C0B9B9",
"y#	c #B9C8BD",
"z#	c #A8946C",
"A#	c #9F9171",
"B#	c #AFC4BA",
"C#	c #C6C8C6",
"D#	c #AFACA2",
"E#	c #B79268",
"F#	c #C0C3C3",
"G#	c #B8C2C3",
"H#	c #BCC4C2",
"I#	c #B2A99E",
"J#	c #AF8D65",
"K#	c #BFC5C5",
"L#	c #BFC4C4",
"M#	c #C1BCBD",
"N#	c #B68E70",
"O#	c #BA9D89",
"P#	c #BABFC0",
"Q#	c #C2C5C6",
"R#	c #ABC8B3",
"S#	c #A29B6E",
"T#	c #9E996F",
"U#	c #A2C9AC",
"V#	c #A7BA9B",
"W#	c #90915E",
"X#	c #A09565",
"Y#	c #BAC6BF",
"Z#	c #C0C6C5",
"`#	c #B4C5BC",
" $	c #A4977F",
".$	c #B99F78",
"+$	c #C5C7C5",
"@$	c #BFC4C5",
"#$	c #ACC8B2",
"$$	c #ACBFA5",
"%$	c #9B8F5F",
"&$	c #AAA681",
"*$	c #BEC5C3",
"=$	c #B4C1C2",
"-$	c #C2C7C4",
";$	c #AE9D7D",
">$	c #AC9C7A",
",$	c #B8C6BE",
"'$	c #9EAA8C",
")$	c #A29C64",
"!$	c #9FA281",
"~$	c #C0C9C2",
"{$	c #BAC9BB",
"]$	c #9A9F84",
"^$	c #8B8047",
"/$	c #A09972",
"($	c #BFCABF",
"_$	c #9F9F9F",
":$	c #A6A7A6",
"<$	c #A1A897",
"[$	c #9C854D",
"}$	c #9F7B4D",
"|$	c #9BA186",
"1$	c #C5C7C7",
"2$	c #AFC7B6",
"3$	c #AEBEA7",
"4$	c #97885E",
"5$	c #A5A075",
"6$	c #B0B8B1",
"7$	c #959899",
"8$	c #C0C9C0",
"9$	c #A5AD90",
"0$	c #A5A679",
"a$	c #AAB496",
"b$	c #C1C8C0",
"c$	c #C4C6C6",
"d$	c #BAC6B7",
"e$	c #B0B799",
"f$	c #AFB39D",
"g$	c #B1BEB0",
"h$	c #B6B7B6",
"i$	c #A7B1A6",
"j$	c #826E4B",
"k$	c #9B824B",
"l$	c #9E927B",
"m$	c #BFC9C0",
"n$	c #C5C6C6",
"o$	c #A1A1A1",
"p$	c #A9A9A9",
"q$	c #C1C1C1",
"r$	c #ADBCAC",
"s$	c #9EA288",
"t$	c #A9AC8D",
"u$	c #B1C0AA",
"v$	c #C3C8C3",
"            . +                                 ",
"      @ #   $ % &     * = -         ; >         ",
"      , ' ) ! ~ {     ] ^ /         ( _ : <     ",
"[ } | 1 2 3 4 5 6     7 8 9         0 | a b     ",
"< ( c d e f g h i j   k l ( m       n a | o     ",
"    p q r s t u v $                             ",
"  w x f y z A B C D                 E F G H     ",
"I J K L M N O P Q R                 S T U V     ",
"W X Y Z `  ...+.@.#.$.k <         m %.&.*.=.-.  ",
";.>.,.'.).!.~.{.].^./.(._.:.<.    k [.}.|.1.2.; ",
"3.4.>.5.6.7.8.9.0.a.b.              c.d.e.f.    ",
"  1 g.h.i.j.k.l.m.u n.                o.p.      ",
"    j q.r.s.t.u.z v.w.x.                        ",
"        y.z.A.B.C.D.E.F.G.                      ",
"      H.I.J.K.L.M.N.O.P.Q.                      ",
"      R.S.T.U.V.W.z X.Y.Z.`. +.+++@+#+$+        ",
"      %+&+*+=+-+;+>+,+'+)+!+~+{+]+^+/+(+_+      ",
"      :+<+[+}+|+1+2+3+4+5+6+7+8+9+0+a+b+c+d+    ",
"      e+f+g+h+i+j+k+l+m+n+o+p+q+m.r+s+t+u+v+    ",
"      w+x+y+4+z+A+B+l+..C+D+E+F+G+H+I+J+K+L+    ",
"      M+N+O+P+5.Q+R+S+T+7.U+V+W+8+'+X+Y+Z+L+    ",
"      `+ @.@+@G+@@#@$@%@&@*@=@-@;@>@,@'@)@!@    ",
"        ~@{@]@l.^@/@(@_@:@<@[@}@|@1@2@3@4@5@    ",
"6@7@6@} 8@9@0@a@b@c@d@e@f@g@h@i@j@k@l@m@n@o@> < ",
"; [ p@p@q@r@s@t@u@v@w@x@y@z@A@B@C@D@E@F@G@H@(.I@",
"        J@K@L@M@  N@O@P@Q@R@S@T@U@V@W@X@Y@Z@`@ #",
"          .#+#@#    ##$#%#&#*#=#-#;#>#,#'#)#!#~#",
"; | {#]#[ ^#/#(#_#:#<#[#}#|#1#2#3#4#5#6#7#8#9#0#",
"< 7@0 a a#b#c#d#e#f#g#h#i#j#k#l#m#n#o#p#q#r#s#t#",
"          u#v#w#x#  y#z#A#B#C#D#E#F#G#H#I#J#w K#",
"        L#M#N#O#P#Q#R#S#T#U#V#W#X#Y#Z#`# $.$+$@$",
"  m   5@#$$$%$&$*$=$-$;$>$,$'$)$!$~${$]$^$/$($K#",
"a#_$7 :$<$[$}$|$1$2$3$4$5$6$7$7 a n 8$9$0$a$b$c$",
"        d$e$f$g$h$i$j$k$l$m$n$<     w o$| p$n   ",
"              q$|#r$s$t$u$v$          [ ; < m   "};
