/* XPM */
static char * DogWindow_SmallTabs_xpm[] = {
"62 61 107 2",
"  	c None",
". 	c #D8D8D8",
"+ 	c #D9D9D9",
"@ 	c #DADADA",
"# 	c #D6D6D6",
"$ 	c #D5D5D5",
"% 	c #6D6D6D",
"& 	c #383838",
"* 	c #A2A2A2",
"= 	c #6E6E6E",
"- 	c #2C2C2C",
"; 	c #565656",
"> 	c #373737",
", 	c #A4A4A4",
"' 	c #D7D7D7",
") 	c #838383",
"! 	c #ADADAD",
"~ 	c #AEAEAE",
"{ 	c #A0A0A0",
"] 	c #A1A1A1",
"^ 	c #575757",
"/ 	c #AFAFAF",
"( 	c #ACACAC",
"_ 	c #818181",
": 	c #808080",
"< 	c #ABABAB",
"[ 	c #828282",
"} 	c #707070",
"| 	c #A3A3A3",
"1 	c #DBDBDB",
"2 	c #D3D3D3",
"3 	c #646464",
"4 	c #5C5C5C",
"5 	c #AAAAAA",
"6 	c #848484",
"7 	c #595959",
"8 	c #5B5B5B",
"9 	c #6B6B6B",
"0 	c #393939",
"a 	c #A5A5A5",
"b 	c #A6A6A6",
"c 	c #3A3A3A",
"d 	c #6C6C6C",
"e 	c #363636",
"f 	c #B2B2B2",
"g 	c #585858",
"h 	c #5A5A5A",
"i 	c #555555",
"j 	c #717171",
"k 	c #6F6F6F",
"l 	c #B0B0B0",
"m 	c #6A6A6A",
"n 	c #858585",
"o 	c #DCDCDC",
"p 	c #2F2F2F",
"q 	c #868686",
"r 	c #D4D4D4",
"s 	c #DDDDDD",
"t 	c #545454",
"u 	c #9F9F9F",
"v 	c #2E2E2E",
"w 	c #727272",
"x 	c #A9A9A9",
"y 	c #2D2D2D",
"z 	c #B1B1B1",
"A 	c #313131",
"B 	c #2B2B2B",
"C 	c #2A2A2A",
"D 	c #B3B3B3",
"E 	c #5D5D5D",
"F 	c #878787",
"G 	c #717271",
"H 	c #6C6E6D",
"I 	c #6D6C6C",
"J 	c #6F6E6E",
"K 	c #D8D8D7",
"L 	c #D8D8D9",
"M 	c #D8D8DA",
"N 	c #D7D9DA",
"O 	c #D6D9DA",
"P 	c #D4D8D7",
"Q 	c #D6DBD8",
"R 	c #D8DCDA",
"S 	c #D7D8DA",
"T 	c #D9D7DA",
"U 	c #D7D9D8",
"V 	c #D7D9D7",
"W 	c #D9D6D5",
"X 	c #DED8D8",
"Y 	c #DBD7D7",
"Z 	c #D7D8D8",
"` 	c #D7D7D8",
" .	c #D9DADC",
"..	c #D7D8D6",
"+.	c #D8D8D6",
"@.	c #DAD7D9",
"#.	c #D9D8D9",
"$.	c #D6D9D7",
"%.	c #D6D9D6",
"&.	c #DBD9D8",
"*.	c #DAD5D4",
"=.	c #DCDADA",
"-.	c #D2D4D5",
";.	c #D7DADA",
">.	c #616161",
",.	c #626262",
"'.	c #353535",
". . . . . . . . . . . . . . . . . . . . . . . . . . . . . . . . . . . . . . . . . . . . . . . . . . . . . . . . . . . . . . ",
". . . . . . . . . . . . . . . . . . . . . . . . . . . . . . . . . . . . . . . . . . . . . . . . . . . . . . . . . . . . . . ",
". . . . . . . . . . . . . . . . . . . . . . . . . . . . . . . . . . . . . . . . . . . . . . . . . . . . . . . . . . . . . . ",
". . . . . . . . . . . . . . . . . . . . . . . . . . . . . . . . . . . . . . . . . . . . . . . . . . . . . . . . . . . . . . ",
". . . . . . . . . . . . . . . . . . . . . . . . . . . . . . . . . . . . . . . . . . . . . . . . . . . . . . . . . . . . . . ",
". . . . . . . . . . . . . . . . . . . . . . . . . . . . . . . . . . . . . . . . . . . . . . . . . . . . . . . . . . . . . . ",
". . . . . . . . . . . . . . . . . . . . . . . . . . . . . . . . . . . . . . . . . . . . . . . . . . . . . . . . . . . . . . ",
". . . . . . . . . . . . . . . . . . . . . . . . . . . . . . . . . . . . . . . . . . . . . . . . . . . . . . . . . . . . . . ",
"+ + + + + + + + + + + + + + + + + + + + + + + + + + + + + + + + . @ . . . . . # . . . . . . . . . . . . . . . . . . . . . . ",
". . . . . . . . . . . . . . . . . . . . . . . . . . . . . . . . + @ $ @ . + . . . . . . . . . . . . . . . . . . . . . . . . ",
"% % % % % % % % % % % % % % % % % % % % % % % % % % % % % % % % & * @ . . + = - ; ; ; ; ; ; ; ; ; ; ; ; ; ; ; ; ; ; ; ; ; ; ",
". . . . . . . . . . . . . . . . . . . . . . . . . . . . . . . . . > , ' @ > ) ! ~ ~ ~ ~ ~ ~ ~ ~ ~ ~ ~ ~ ~ ~ ~ ~ ~ ~ ~ ~ ~ ~ ",
"' # { . . + + . . # . . . . . . ] = . * # , ' . . . . . . . . . . + & + ] ^ / ( _ ~ ( ~ ( ! ( : ! ( ( ( < ~ ~ ( ! ( ( / ~ [ ",
"+ } ] | . 1 2 @ + @ ' * . . . . + % ' = | { ' @ . . . . . . . . # . | | 3 ( ! ( 4 5 ~ ! ( ~ 6 [ 7 ( ( ( / 5 / ! : / ~ ( ( 8 ",
". % + 9 0 = a & % { b c . . . . + d @ e , . . $ . . . . . . . . @ . . % 6 ( ( ~ ^ f ~ ( ! ( g / ^ h h ; g 7 i ( - ) < ! ~ ; ",
"' & d = = ' @ d d j $ . . . . . . = # k d . @ # . . . . . . . . ' @ . a [ ~ ~ ~ g 5 ~ / ~ < g g - ^ 5 / g ; g l ~ ( < ! ~ ; ",
". } ' k d . ' d ] } | & . . . . a c ' = @ m , > + | e 1 * 0 + . . . . . e l ( ( g ; h ( ! ! 8 ( g g ~ ! ^ [ 7 5 - n ( ! < ; ",
"* # o # ' . + + . . # * . . . . $ + $ . . . ' * # @ a . . , ' . . . . . { p ( / 5 / ( _ ; 4 ( / < l < ! ~ / 5 ~ q 5 ( ~ 5 ~ ",
". ' ' . . . . . @ # + ' . . . . + r + . ' 1 # + . . . . # . + + . . . . s { > g 8 t g ; h ; g g h ; ; 7 7 i h g ; 7 g ; h ^ ",
". 1 # + . . . . ' . + . . . . . . . + $ ' @ ' . ' . @ # @ . r . . . . . # + + . ' 1 . . . ' + . . # . # # @ + . ' + r . . . ",
". . . . . . . . . . . . . . . . . . . . . . . . . . . . . . . . . . . . . . . . . . . . . . . . . . . . . . . . . . . . . . ",
". . . . . . . . . . . . . . . . . . . . . . . . . . . . . . . . . . . . . . . . . . . . . . . . . . . . . . . . . . . . . . ",
". . . . . . . . . . . . . . . . . . . . . . . . . . . . . . . . . . . . . . . . . . . . . . . . . . . . . . . . . . . . . . ",
". . . . . . . . . . . . . . . + ' ' # + ' . ' # . # . ' . . . . . . . . . . . . . . . ' . # . # ' . ' . ' + ' + . . . . . . ",
". . . . . . . . . . . . . . . ' + . @ # @ . # 1 + ' + . . . . . . . . . . . . . . . . . + ' + 1 # . @ ' + # . # . . . . . . ",
"% % % % % % % % % % % % % % % d k + @ + + @ # , 9 } = d % % % % % % % % % % % % % % % d = } 9 , # @ + + @ ' k = % % % % % % ",
"+ + + + + + + + + + + + + + + . , & u . ' ' 0 ^ ~ ~ ( ~ ! ! ! ! ! ! ! ! ! ! ! ! ! ! ! ~ ( ~ ~ ^ 0 ' ' . { - [ ~ ! ! ! ! ! ! ",
"# + 1 # ' + . ' . . . . . . . . . . > # @ 9 : ~ ! ( ~ ( ~ < ! ! ! 5 < l ( ( ~ ! ! ! ! ! ! ! ! ~ _ d + # v ~ < ! / 5 ~ ~ < ~ ",
". . r + + 1 # + . . . . . . . @ # ' , d ' v ~ 5 ~ ; / 5 ( / < [ g ) [ < ~ < ( ~ ! ! ! ! ! ! ! ( ( v ' w 6 < ~ g ; ^ ( 6 ( ( ",
"| { , # d { 1 . . . . . . . . . . # . % = / x ~ l h < l _ ; ( g / < y g ! ~ ( ! ! ! ! ! ! ! ! ( ( ! m h ~ ( ~ ; 5 g ~ ; ~ ! ",
"% * , b % ] # . . . . . . . . . . + $ @ ^ ( z 5 ( ^ ( ! A g ^ - g ! 7 ( ( l ~ ( ! ! ! ! ! ! ! ~ ( ! h 5 ( ~ ( g - : / ^ ( ^ ",
"k + + ] @ % ' , # @ { . o { ' + . . . ' k 6 < ! ! g ~ ~ g ! 6 ; ~ ! ^ ~ 6 < [ ! < [ ! ! ) ! ( ! ( ( ! B ! / ( ; ( h ( ^ ! [ ",
"* # + . = ] 1 > , # > * # & b # . . . 1 # C D 5 ( ^ E _ [ g 5 [ < ! ! 7 5 [ y ! [ - ~ ) v < ( ( ! / 5 ^ ) < ~ [ ~ [ ! ; [ [ ",
". @ 2 . # . + @ $ @ . . @ $ . ' . . . . . * v F ( ~ ( / ! ~ ( ! / 5 ! ( l ! / ( ( / < ( ! ~ l ! ( ! ~ ! B ; < ~ ~ ( ~ / ( ! ",
". . + + . . . ' . . . . ' + # @ . . . . @ . ' % % = d % k % = % = = k = d G H d = % = % = k d % = % d I J = = d k % d % k = ",
". . . . . . . . . . . . . . . . . . . . . . . . . . . . . . . K K L M N O P Q R M M S S S M M T M U V W X Y Z ` . . . . . . ",
". . . . . . . . . . . . . . . . . . . . . . . . . . . . . . . . . L M  .L ..+.+.. . . . . . . @.#.$.%.&.*.=.-.;.. . . . . . ",
". . . . . . . . . . . . . . . . . . . . . . . . . . . . . . . . . . . . . . . . . . . . . . . . . . . . . . . . . . . . . . ",
". . . . . . . . . . . . . . . . . . . . . . . . . . . . . . . . . . . . . . . . . . . . . . . . . . . . . . . . . . . . . . ",
". . . . . . . . . . . . . . . . . . . . . . . . . . . . . . . . . . . . . . . . . . . . . . . . . . . . . . . . . . . . . . ",
". . . . . . . . . . . . . . . . . . . . . . . . . . . . . . . . . . . . . . . . . . . . . . . . . . . . . . . . . . . . . . ",
". . . . . . . . . . . . . . . . . . . . . . . . . . . . . . . . . . . . . . . . . . . . . . . . . . . . . . . . . . . . . . ",
". . . . . . . . . . . . . . . . . . . . . . . . . . . . . . . . . . . . . . . . . . . . . . . . . . . . . . . . . . . . . . ",
". . . . . . . . . . . . . . . . . . . . . . . . . . . . . . . . . . . . . . . . . . . . . . . . . . . . . . . . . . . . . . ",
"+ + + + + + + + + + + + + + + + + ' ' @ . @ # + + . # . + . . . . . . . . . . . . . . . . . . . . . . . . . . . . . . . . . ",
". . . . . . . . . . . . . . . . . @ + . # @ # ' ' @ # + ' . . . . . . . . . . . . . . . . . . . . . . . . . . . . . . . . . ",
"% % % % % % % % % % % % % % % % % = d & d $ ' @ . * c ; ^ ; ; ; ; ; ; ; ; ; ; ; ; ; ; ; ; ; ; ; ; ; ; ; ; ; ; ; ; ; ; ; ; ; ",
". . . . . . . . . . . . . . . . . . . + * & @ # , - ! ! ~ ~ ~ ~ ~ ~ ~ ~ ~ ~ ~ ~ ~ ~ ~ ~ ~ ~ ~ ~ ~ ~ ~ ~ ~ ~ ~ ~ ~ ~ ~ ~ ~ ~ ",
"+ ' . . = * , ' a . . . . . . . . . . . . = ] . 0 ~ ( ~ _ ! ! ! ! ~ [ ! ( ! 5 ~ / / < ~ ! ! ! ! ! ; 7 [ ) ~ ) < ( ! ! ! ! ! ",
"# ' + . % . d # d . . . . . . . . . . . . ' = b : ! ~ 5 4 ! ! ! ! < 4 ~ ~ x f ( ( ( l < _ ! ! ! ! 7 < ~ ; ) 6 ! ! ! ! ! ! ! ",
"+ @ # @ d . % k . . . . . . . . . . . . . + b >.~ ( ~ f ^ ! ! ! ! ~ 7 5 z ^ ^ n i ^ _ n y ! ! ! ! p g ( y _ ~ ~ ( ! ! ! ! ! ",
"# . @ + d + % , * . . . . . . . . . . . . ' . ,.! / ~ 5 g ! ! ! ! ( 7 ~ ( - ; _ g / ^ < ~ ! ! ! ! i < ! g 8 < < ~ ! ! ! ! ! ",
"+ + . ' & * d . = 1 e | + & | . '.| ' + . . # * h < 5 ~ v g ) ( 5 ! p ^ [ ; g _ : ^ g [ - ( ( ( ( 7 ( ( g ( ; [ - / _ C ~ 6 ",
"# . . + + . # @ . . a @ # , # . , . @ $ # @ # @ & 6 < ~ ~ ~ 5 g g ) ( ( ( ( ~ ~ 7 7 : ~ [ ~ ~ ~ ~ 5 l ( ( ! < / [ 5 l [ ~ ( ",
". . . $ o . @ ' @ . . . . . @ ' # + # + . + + ' . d y g g h i ^ 7 i h g i g ; ^ 7 7 g ^ g ; ; ; ; g ^ g g h ; g ; h g ; ; 7 ",
"' @ # o $ @ # @ # # @ . ' . . . . ' ' @ . . . ' . + ' ' ' ' + . ' . . . @ . . . . . . @ . . . . . . . # ' + . ' ' @ $ ' . $ ",
". . . . . . . . . . . . . . . . . . . . . . . . . . . . . . . . . . . . . . . . . . . . . . . . . . . . . . . . . . . . . . ",
". . . . . . . . . . . . . . . . . . . . . . . . . . . . . . . . . . . . . . . . . . . . . . . . . . . . . . . . . . . . . . ",
". . . . . . . . . . . . . . . . . . . . . . . . . . . . . . . . . . . . . . . . . . . . . . . . . . . . . . . . . . . . . . ",
". . . . . . . . . . . . . . . . . . . . . . . . . . . . . . . . . . . . . . . . . . . . . . . . . . . . . . . . . . . . . . ",
". * * @ ' . @ $ + + . . # $ @ + | = . 1 . # # + + + # . | @ # 1 # @ 9 = , . # | . . ' + . . . . . + . @ . . . # # # * = + | "};
