/* XPM */
static char * EyesSmall_xpm[] = {
"80 46 211 2",
"  	c None",
". 	c #C7C7C7",
"+ 	c #939393",
"@ 	c #BDBDBD",
"# 	c #020202",
"$ 	c #5B5B5B",
"% 	c #B3B3B3",
"& 	c #040404",
"* 	c #B7B7B7",
"= 	c #A7A7A7",
"- 	c #AEAEAE",
"; 	c #B6B6B6",
"> 	c #C5C5C5",
", 	c #A5A5A5",
"' 	c #999999",
") 	c #B4B4B4",
"! 	c #A8A8A8",
"~ 	c #989898",
"{ 	c #9E9E9E",
"] 	c #030303",
"^ 	c #A0A0A0",
"/ 	c #ACACAC",
"( 	c #A6A6A6",
"_ 	c #252525",
": 	c #C6C6C6",
"< 	c #404040",
"[ 	c #A4A4A4",
"} 	c #747474",
"| 	c #444444",
"1 	c #606060",
"2 	c #323232",
"3 	c #959595",
"4 	c #2F2F2F",
"5 	c #5D5D5D",
"6 	c #525252",
"7 	c #BEBEBE",
"8 	c #010101",
"9 	c #343434",
"0 	c #5F5F5F",
"a 	c #B5B5B5",
"b 	c #C3C3C3",
"c 	c #101010",
"d 	c #AAAAAA",
"e 	c #434343",
"f 	c #7A7A7A",
"g 	c #777777",
"h 	c #3C3C3C",
"i 	c #C4C4C4",
"j 	c #666666",
"k 	c #646464",
"l 	c #727272",
"m 	c #717171",
"n 	c #BBBBBB",
"o 	c #555555",
"p 	c #4C4C4C",
"q 	c #888888",
"r 	c #BABABA",
"s 	c #4A4A4A",
"t 	c #B9B9B9",
"u 	c #242424",
"v 	c #141414",
"w 	c #3F3F3F",
"x 	c #767676",
"y 	c #262626",
"z 	c #3E3E3E",
"A 	c #676767",
"B 	c #919191",
"C 	c #878787",
"D 	c #6B6B6B",
"E 	c #303030",
"F 	c #424242",
"G 	c #868686",
"H 	c #A3A3A3",
"I 	c #898989",
"J 	c #B8B8B8",
"K 	c #1A1A1A",
"L 	c #BFBFBF",
"M 	c #C7C7C8",
"N 	c #C9C6C8",
"O 	c #CAC6C5",
"P 	c #C7C7C3",
"Q 	c #C5C8CB",
"R 	c #C4C7D3",
"S 	c #C7C8CD",
"T 	c #C7C7C1",
"U 	c #C6C6C3",
"V 	c #CCC5C8",
"W 	c #CBC4CC",
"X 	c #C6C5CC",
"Y 	c #CBC5CB",
"Z 	c #C5C8C4",
"` 	c #C6C8C3",
" .	c #C7C7C5",
"..	c #C8C6C7",
"+.	c #C8C6CC",
"@.	c #C7C7C9",
"#.	c #C7C7CE",
"$.	c #C2C5C4",
"%.	c #C4C7C4",
"&.	c #C9C7CD",
"*.	c #C7C4C8",
"=.	c #C6C7C3",
"-.	c #C6C7C8",
";.	c #C1C4C7",
">.	c #C6CAC7",
",.	c #C6C9C2",
"'.	c #C8C8C3",
").	c #C9C6C7",
"!.	c #C3CAC0",
"~.	c #C2CCBD",
"{.	c #C9C7C3",
"].	c #CCC6C0",
"^.	c #C7C8C3",
"/.	c #CBC2D7",
"(.	c #926991",
"_.	c #9E7E9E",
":.	c #858C8C",
"<.	c #7F7F84",
"[.	c #CEC9D7",
"}.	c #C8C5BD",
"|.	c #CAC7C0",
"1.	c #C8C6C9",
"2.	c #C9C4D0",
"3.	c #C7C6CB",
"4.	c #CAC5C8",
"5.	c #C6C9C1",
"6.	c #BFCBC6",
"7.	c #C6C5D2",
"8.	c #CCC6C5",
"9.	c #C9C7C1",
"0.	c #D6B2D4",
"a.	c #932A57",
"b.	c #E3A1AE",
"c.	c #9DDA9F",
"d.	c #518663",
"e.	c #C7C2D2",
"f.	c #CAC7C2",
"g.	c #C6C8C5",
"h.	c #C3C8CC",
"i.	c #CBC4CB",
"j.	c #CEC3CB",
"k.	c #CBC5C8",
"l.	c #C0C9D0",
"m.	c #C4C4DE",
"n.	c #C8C5C9",
"o.	c #C6C8C0",
"p.	c #C8A2BC",
"q.	c #9F2645",
"r.	c #C88175",
"s.	c #80DA7A",
"t.	c #3E9257",
"u.	c #BCB8CB",
"v.	c #C9C7CA",
"w.	c #C2C9CB",
"x.	c #BECACC",
"y.	c #CAC7C3",
"z.	c #CCC6BE",
"A.	c #CBC5C7",
"B.	c #C8C8BE",
"C.	c #C2CBC2",
"D.	c #C7C6CE",
"E.	c #C8C7C2",
"F.	c #BFCDC3",
"G.	c #CBC3DE",
"H.	c #97577D",
"I.	c #E3A4C8",
"J.	c #B5C1BE",
"K.	c #717D86",
"L.	c #D5BAE2",
"M.	c #D1C0C7",
"N.	c #C1C9C9",
"O.	c #C5C8C8",
"P.	c #C6C8C4",
"Q.	c #C6C7C9",
"R.	c #C4CAC3",
"S.	c #C4CABE",
"T.	c #C9C6C3",
"U.	c #CAC8C1",
"V.	c #BECBC2",
"W.	c #BBCBD4",
"X.	c #9493AA",
"Y.	c #A08BAF",
"Z.	c #9D88A5",
"`.	c #A28BA8",
" +	c #D2C1DE",
".+	c #CEC4C6",
"++	c #CCC6C1",
"@+	c #C6C7C6",
"#+	c #C5C7C9",
"$+	c #C5C9C7",
"%+	c #C5C7CB",
"&+	c #C4C8C8",
"*+	c #C8C6CA",
"=+	c #C8C2CF",
"-+	c #CCC8CB",
";+	c #C2C6C6",
">+	c #C9CACB",
",+	c #C6C9CA",
"'+	c #C2C5C7",
")+	c #C9C6C6",
"!+	c #C7C7C6",
"~+	c #C7C7C4",
"{+	c #C7C6CA",
"]+	c #C8C4D0",
"^+	c #CAC4CA",
"/+	c #CCC6C3",
"(+	c #CAC7C6",
"_+	c #C9C6C5",
":+	c #C2C9C7",
"<+	c #C9C9C7",
"[+	c #C5C7C5",
". . . . . . . . . . . . . . . . . . . . . . . . . . . . . . . . . . . . . . . . . . . . . . . . . . . . . . . . . . . . . . . . . . . . . . . . . . . . . . . . ",
". . . . . . . . . . . . . . . . . . . . . . . . . . . . . . . . . . . . . . . . . . . . . . . . . . . . . . . . . . . . . . . . . . . . . . . . . . . . . . . . ",
". . . . . . . . . . . . . . . . . . . . . . . . . . . . . . . . . . . . . . . . . . . . . . . . . . . . . . . . . . . . . . . . . . . . . . . . . . . . . . . . ",
". . . . . . . . . . . . . . . . . . . . . . . . . . . . . . . . . . . . . . . . . . . . . . . . . . . . . . . . . . . . . . . . . . . . . . . . . . . . . . . . ",
". . . . . . . . . . . . . . . . . . . . . . . . . . . . . . . . . . . . . . . . . . . . . . . . . . . . . . . . . . . . . . . . . . . . . . . . . . . . . . . . ",
". . . . . . . . . . . . . . . . . . . . . . . . . . . . . . . . . . . . . . . . . . . . . . . . . . . . . . . . . . . . . . . . . . . . . . . . . . . . . . . . ",
". . . . . . . . . . . . . . . . . . . . . . . . . . . . . . . . . . . . . . . . . . . . . . . . . . . . . . . . . . . . . . . . . . . . . . . . . . . . . . . . ",
". . . . . . . . . . . . . . . . . . . . . . . . . . . . . . . . . . . . . . . . . . . . . . . . . . . . . . . . . . . . . . . . . . . . . . . . . . . . . . . . ",
". . . . . . . . . . . . . . . . . . . . . . . . . . . . . . . . . . . . . . . . . . . . . . . . . . . . . . . . . . . . . . . . . . . . . . . . . . . . . . . . ",
". . . . . . . . . . . . . . . . . . . . . . . . . . . . . . . . . . . . . . . . . . . . . . . . . . . . . . . . . . . . . . . . . . . . . . . . . . . . . . . . ",
". . . . . . . . . . . . . . . . . . . . . . . . . . . . . . . . . . . . . . . . . . . . . . . . . . . . . . . . . . . . . . . . . . . . . . . . . . . . . . . . ",
". . . . . . . . . . . . . . . . . . . . . . . . . . . . . . . . . . . . . . . . . . . . . . . . . . . . . . . . . . . . . . . . . . . . . . . . . . . . . . . . ",
". . . . . . . . . . . . . . . . . . . . . . . . . . . . . . . . . . . . . . . . . . . . . . . . . . . . . . . . . . . . . . . . . . . . . . . . . . . . . . . . ",
". . . . . . . . . . . . . . . . . . . . . . . . . . . . . . . . . . . . . . . . . . . . . . . . . . . . . . . . . . . . . . . . . . . . . . . . . . . . . . . . ",
". . . . . . . . . . . . . . . . . . . . . . . . . . . . . . . . . . . . . . . . . . . . . . . . . . . . . . . . . . . . . . . . . . . . . . . . . . . . . . . . ",
". . . . . . . . . . . . . . . . . . . . . . . . . . . . . . . . . . . . . . . . . . . . . . . . . . . . . . . . . . . . . . . . . . . . . . . . . . . . . . . . ",
". . . . . . . . . . . . . . . . . . . . . . . . . . . . . . . . . . . . . . . . . . . . . . . . . . . . . . . . . . . . . . . . . . . . . . . . . . . . . . . . ",
". . . . . . . . . . . . . . . . . . . . . . . . . . . . . . . . . . . . . . . . . . . . . . . . . . . . . . . . . . . . . . . . . . . . . . . . . . . . . . . . ",
". . . . . . . . . . . . . . . . . . . . . . . . . . . . . . . . . . . . . . . . . . . . . . . . . . . . . . . . . . . . . . . . . . . . . . . . . . . . . . . . ",
". . . . . . . . . . . . . . . . . . . . . . . . . . . . . . . . . . . . . . . . . . . . . . . . . . . . . . . . . . . . . . . . . . . . . . . . . . . . . . . . ",
". . . . . . . . . . . . . . . . . . . . . . . . . . . . . . . . . . . . . . . . . . . . . . . . . . . . . . . . . . . . . . . . . . . . . . . . . . . . . . . . ",
". . . . . . . . . . . . . . . . . . . . . . . . . . . . . . . . . . + + + + + @ . . . . . . . . . . . . . . . . . . . . . . . . . . . . . . . . . . . . . . . . ",
". . . . . . . . . . . . . . . . . . . . . . . . . . . . . . . . . . # $ $ $ $ % . . . . . . . . . . . . . . . . . . . . . . . . . . . . . . . . . . . . . . . . ",
". . . . . . . . . . . . . . . . . . . . . . . . . . . . . . . . . . & . . . . * = . . - ; > , ' ) . . ! ~ { > . . . . . . . . . . . . . . . . . . . . . . . . . ",
". . . . . . . . . . . . . . . . . . . . . . . . . . . . . . . . . . ] ^ ^ ^ / ( _ : . < [ } | 1 2 ; 3 4 5 6 7 . . . . . . . . . . . . . . . . . . . . . . . . . ",
". . . . . . . . . . . . . . . . . . . . . . . . . . . . . . . . . . 8 9 9 9 0 : _ ( a 4 b c ' d e f g h / i . . . . . . . . . . . . . . . . . . . . . . . . . . ",
". . . . . . . . . . . . . . . . . . . . . . . . . . . . . . . . . . & . . . . . j k l m n # o o p q r 6 2 s t . . . . . . . . . . . . . . . . . . . . . . . . . ",
". . . . . . . . . . . . . . . . . . . . . . . . . . . . . . . . . . & . . . . . ! u 4 ) > v = . . : b . a w x . . . . . . . . . . . . . . . . . . . . . . . . . ",
". . . . . . . . . . . . . . . . . . . . . . . . . . . . . . . . . . # j j j j ^ . y z . . f 2 A j B C 5 D E ~ . . . . . . . . . . . . . . . . . . . . . . . . . ",
". . . . . . . . . . . . . . . . . . . . . . . . . . . . . . . . . . q q q q q - . F G . . . H I B J J B I , . . . . . . . . . . . . . . . . . . . . . . . . . . ",
". . . . . . . . . . . . . . . . . . . . . . . . . . . . . . . . . . . . . . . . J K L . . . . . . . . . . . . . . . . . . . . . . . . . . . . . . . . . . . . . ",
". . . . . . . . . . . . . . . . . . . . . . . . . . . . . . . . . . . . . . . . ) + . . . . . . . M . . . . . . . . . . . . . . . . . . . . . . . . . . . . . . ",
". . . . . . . . . . . . . . . . . . . . . . . . . . . . . . . . . . . . . . . . . . . . . N O P Q R S T U V W X Y M Z `  .... . . . . . . . . . . . . . . . . . ",
". . . . . . . . . . . . . . . . . . . . . . . . . . . . . . . . . . . . . . . . . . . . . +.@.` M #.$.%.&.*.=.-.;.>.,.'.).... . . . . . . . . . . . . . . . . . ",
". . . . . . . . . . . . . . . . . . . . . . . . . . . . . . . . . . . . . . . . . . . . . M !.~.{.].^./.(._.:.<.[.}.|.1.2.3.. . . . . . . . . . . . . . . . . . ",
". . . . . . . . . . . . . . . . . . . . . . . . . . . . . . . . . . . . . . . . . . . . . 4.5.6.7.8.9.0.a.b.c.d.e.f.g.h.i.O . . . . . . . . . . . . . . . . . . ",
". . . . . . . . . . . . . . . . . . . . . . . . . . . . . . . . . . . . . . . . . . . . . j.k.l.m.n.o.p.q.r.s.t.u.v.w.x.y.z.. . . . . . . . . . . . . . . . . . ",
". . . . . . . . . . . . . . . . . . . . . . . . . . . . . . . . . . . . . . . . . . . . . A.B.C.D.E.F.G.H.I.J.K.L.M.O N.O.P.. . . . . . . . . . . . . . . . . . ",
". . . . . . . . . . . . . . . . . . . . . . . . . . . . . . . . . . . . . . . . . . . . . Q.R.S.T.U.V.W.X.Y.Z.`. +.+++@+#+$+. . . . . . . . . . . . . . . . . . ",
". . . . . . . . . . . . . . . . . . . . . . . . . . . . . . . . . . . . . . . . . . . . . %+&+` *+=+-+^.;+>+P.,+'+>.,.^.)+... . . . . . . . . . . . . . . . . . ",
". . . . . . . . . . . . . . . . . . . . . . . . . . . . . . . . . . . . . . . . . . . . . . !+~+{+]+^+/+(+_+%.:+<+[+P.~+..1.. . . . . . . . . . . . . . . . . . ",
". . . . . . . . . . . . . . . . . . . . . . . . . . . . . . . . . . . . . . . . . . . . . . . . . . . . . . . . . . . . . . . . . . . . . . . . . . . . . . . . ",
". . . . . . . . . . . . . . . . . . . . . . . . . . . . . . . . . . . . . . . . . . . . . . . . . . . . . . . . . . . . . . . . . . . . . . . . . . . . . . . . ",
". . . . . . . . . . . . . . . . . . . . . . . . . . . . . . . . . . . . . . . . . . . . . . . . . . . . . . . . . . . . . . . . . . . . . . . . . . . . . . . . ",
". . . . . . . . . . . . . . . . . . . . . . . . . . . . . . . . . . . . . . . . . . . . . . . . . . . . . . . . . . . . . . . . . . . . . . . . . . . . . . . . ",
". . . . . . . . . . . . . . . . . . . . . . . . . . . . . . . . . . . . . . . . . . . . . . . . . . . . . . . . . . . . . . . . . . . . . . . . . . . . . . . . "};
