/* XPM */
static char *fksim[] = {
/* columns rows colors chars-per-pixel */
"32 32 199 2",
"   c #020202",
".  c #0B0B0B",
"X  c #141414",
"o  c #1A1A1A",
"O  c #1F1F20",
"+  c #192117",
"@  c #1F201F",
"#  c #1C3C14",
"$  c #1F3B1E",
"%  c #201F1F",
"&  c #202D1C",
"*  c #20301C",
"=  c #213F1E",
"-  c #232323",
";  c #272927",
":  c #272828",
">  c #282728",
",  c #282826",
"<  c #2B2B2B",
"1  c #253523",
"2  c #223E20",
"3  c #2B3A27",
"4  c #2E382D",
"5  c #30382F",
"6  c #333333",
"7  c #323C32",
"8  c #383E37",
"9  c #3B3B3B",
"0  c #3F3F40",
"q  c #1E4114",
"w  c #105805",
"e  c #0C6501",
"r  c #0E7702",
"t  c #0C7D01",
"y  c #186508",
"u  c #1B690A",
"i  c #1D720A",
"p  c #1C7515",
"a  c #1E7E19",
"s  c #22421E",
"d  c #255D1F",
"f  c #254522",
"g  c #254B21",
"h  c #2D4726",
"j  c #2E412F",
"k  c #284825",
"l  c #255C20",
"z  c #2A5327",
"x  c #2D5628",
"c  c #2A5A25",
"v  c #31442D",
"b  c #304A2A",
"n  c #324331",
"m  c #354B33",
"M  c #3D443D",
"N  c #394C37",
"B  c #394C39",
"V  c #30532C",
"C  c #305D2B",
"Z  c #365434",
"A  c #3C533A",
"S  c #3B5D37",
"D  c #3D5D3F",
"F  c #21750D",
"G  c #23790E",
"H  c #217B13",
"J  c #296624",
"K  c #29612C",
"L  c #2D6D26",
"P  c #2B7424",
"I  c #2D7A26",
"U  c #2C7636",
"Y  c #30682B",
"T  c #3C6437",
"R  c #33732D",
"E  c #317A3B",
"W  c #3A7E33",
"Q  c #3F4040",
"!  c #3F4940",
"~  c #3D6943",
"^  c #387F42",
"/  c #403F3F",
"(  c #40403F",
")  c #40653B",
"_  c #40693B",
"`  c #457E3F",
"'  c #434343",
"]  c #414A41",
"[  c #474B49",
"{  c #4A4B4A",
"}  c #435B42",
"|  c #4C544D",
" . c #4B594C",
".. c #535353",
"X. c #535955",
"o. c #5B5B5B",
"O. c #446240",
"+. c #426C47",
"@. c #476F4C",
"#. c #47704C",
"$. c #4A794F",
"%. c #4B7450",
"&. c #4E7D53",
"*. c #526A55",
"=. c #5D675E",
"-. c #5A6D5C",
";. c #547556",
":. c #517855",
">. c #557D5A",
",. c #5B7661",
"<. c #5F7D65",
"1. c #646364",
"2. c #656966",
"3. c #676868",
"4. c #686867",
"5. c #6C6C6C",
"6. c #637964",
"7. c #677F6B",
"8. c #6D7A6D",
"9. c #6F7671",
"0. c #727272",
"q. c #757D76",
"w. c #7B7B7B",
"e. c #0F9A01",
"r. c #118003",
"t. c #1A9008",
"y. c #14AE03",
"u. c #1CA607",
"i. c #12BE01",
"p. c #21880C",
"a. c #26801C",
"s. c #2D8F23",
"d. c #30853C",
"f. c #33893F",
"g. c #3A8D31",
"h. c #26B817",
"j. c #2DAD36",
"k. c #30A039",
"l. c #31B623",
"z. c #32BE3C",
"x. c #358B42",
"c. c #3C8246",
"v. c #3A9046",
"b. c #3E944A",
"n. c #3BA043",
"m. c #13C201",
"M. c #13C901",
"N. c #1AC707",
"B. c #1DC80C",
"V. c #18D204",
"C. c #1FC026",
"Z. c #1EC62A",
"A. c #15DC23",
"S. c #05E615",
"D. c #00EC11",
"F. c #0CE01B",
"G. c #16E501",
"H. c #17EC01",
"J. c #18E305",
"K. c #18E903",
"L. c #20CB0F",
"P. c #20D10E",
"I. c #41873A",
"U. c #40874B",
"Y. c #438C4E",
"T. c #4B8B54",
"R. c #479A4C",
"E. c #4B9451",
"W. c #4B9C5B",
"Q. c #528257",
"!. c #55855B",
"~. c #5A825F",
"^. c #588360",
"/. c #5C8A61",
"(. c #569B63",
"). c #4DA35E",
"_. c #44B94C",
"`. c #53A463",
"'. c #56AB66",
"]. c #608763",
"[. c #678A6B",
"{. c #6D8471",
"}. c #63976E",
"|. c #6E996D",
" X c #659F70",
".X c #738273",
"XX c #728A72",
"oX c #7E807E",
"OX c #7E8C7E",
"+X c #76937A",
"@X c #80807F",
"#X c #858585",
"$X c #828982",
"%X c #ACACAC",
"&X c gray69",
"*X c gray74",
"=X c #DEDEDE",
"-X c #EEEEEE",
";X c gray100",
/* pixels */
"#X#X#X#X#X#X#X#X#X#X#XOX|.$X#X#X#X#X#X X'.'.+X#X#X#X#X#XA.A._.+X",
"w.#Xw.w.@X@X@X@XoXoXoXXX.XoX@Xw.@X@X#X(.`.}.oXoXoXoX@Xw.S.D.D.D.",
"w.w.w.w.w.0.w.w.w.[.{..Xw.w.w.q.w.w.q.).(.0.w.w.w.w.w.q.D.D.D.z.",
"0.0.0.0.0.0.0.0.9././.].8.0.0.0.5.0.7.W.9.0.0.9.9.0.5./.D.D.F.8.",
"5.5.5.5.5.5.5.5.6.!.!.!.>.5.5.5.5.5.^.6.5.5.5.5.5.5.5.E.D.D.R.5.",
"4.4.4.4.3.1.3.3.>.Q.Q.>.4.1.4.4.T.>.,.3.3.3.1.3.1.3.3.n.D.Z.2.4.",
"1.o.1.o.1.o.1.=.:.Q.:.o.1.1.1.=.b.b.Y.-.1.1.o.1.1.=.1.j.S.;.1.1.",
"o.o.o.o.o.o.o.*.$.%.o.o.o.o.o.%.v.v.v.c.o.o.o.o.o.o.l.C.k.o.o.o.",
"o..... . .X...#.@...X.X.X.X...c.x.x.^ ....o...o...I.H.K.` X...o.",
"..{ } O.} }  .+.....{ ...... .f.x.^ ....{ { ..{ ..L.H.H.K.g.{ ..",
"| A _ _ _ A T [ { { { { { { ~ d.E { ..[ { { { { W H.H.H.P.} { { ",
"( A T T S B B M ' ] B B ( ' E E [ ' ' ' ' [ ' ' B.H.H.h.] ' ' [ ",
"M N Z Z m n m M N C Y C V Z U Q Q M 9 / / / ' R H.H.s.9 ' ( ( ' ",
"9 m j n n n j M V P I P x K n 9 9 9 9 9 9 9 9 B.J.Y 9 9 9 9 9 9 ",
"7 6 7 j 5 5 7 5 c P P L g k n 6 7 6 7 v v 7 L B.m 6 6 9 6 6 6 6 ",
"6 6 6 < 6 6 6 4 g d d s 2 f 4 6 6 h H a p G H 4 6 6 < 6 6 6 6 6 ",
"< < < < < < , < f s = = = g < < 3 p.N.V.y.i G < < 6 < < < < < < ",
", : , : , , : : ; 1 = s 1 , , ; G u.K.J.i.r u 1 , , > > > > > < ",
": - : : : - : - - - : - - - : : G t.M.m.e.e u G - - - - - - - > ",
"% % o O O @ O o o @ o O O O o O * F t t e w F * o & % % % % % % ",
"o o o o o o o o o o o o o o o o o q F y y F G o o o o o o o % o ",
"o o o X X o o o o o X o o X o X o o + s # + X o o o X o o X X o ",
"X X X X X X X X X X X X X X X X X X X X X X X X X X X X X X X X ",
"&X;X;X;X;X&XoX-XX X &X-XX #X;X;X;XoXX . -X;X;XoXX &X=X% - =X&XX ",
"&X&X. . X . @X-X. %X-X../ ;Xw.. @X;X9 X . -Xw.. . &X;Xw.@X;X&X. ",
"%X%X. . . . w.-X%X-X{ . 9 ;Xw.. . . . . . -Xw.. . %X-X=X=X-X&X. ",
"%X;X;X;X%X. w.;X;Xw.. . . w.;X;X;Xw..   . -Xw.. . %X*X=X=X*X%X. ",
"%X%X  . .   w.-X%X-X{     .   . w.;X9   . -Xw..   %X%Xw.w.%X%X  ",
"%X%X        w.-X  %X-X' 9 ;Xw.  w.;X9     -Xw.    %X%X    %X%X  ",
"%X%X        w.-X    %X-X  0.;X;X;X0.    -X;X;X0.  %X%X    %X%X  ",
"                                                                ",
"                                                                "
};
