/* XPM */
static char *fksnap[] = {
/* columns rows colors chars-per-pixel */
"32 32 134 2",
"   c #020202",
".  c #0C0C0C",
"X  c #131414",
"o  c #181817",
"O  c #1B1B1B",
"+  c #1F1F20",
"@  c #1F201F",
"#  c #201F1F",
"$  c #232323",
"%  c #272827",
"&  c #272828",
"*  c #282727",
"=  c #282728",
"-  c #282827",
";  c #2B2B2B",
":  c #333333",
">  c #3D3D34",
",  c #3A3A3A",
"<  c #3F3F40",
"1  c #31611D",
"2  c #366421",
"3  c #3C6C28",
"4  c #3F4040",
"5  c #403F40",
"6  c #454737",
"7  c #43423D",
"8  c #4B543A",
"9  c #406F2B",
"0  c #4A623C",
"q  c #45733D",
"w  c #62601E",
"e  c #7D7A1B",
"r  c #6D6A22",
"t  c #73712A",
"y  c #434343",
"u  c #4A4A4A",
"i  c #4E574D",
"p  c #575546",
"a  c #5C5B4B",
"s  c #535353",
"d  c #5B5B5B",
"f  c #4F664E",
"g  c #606151",
"h  c #60645F",
"j  c #6C6B5B",
"k  c #7D7B4A",
"l  c #646464",
"z  c #646C64",
"x  c #676868",
"c  c #686867",
"v  c #6C6C6C",
"b  c #727262",
"n  c #727272",
"m  c #7C7B7B",
"M  c #7E7F80",
"N  c #398C15",
"B  c #3F911A",
"V  c #3E843C",
"C  c #389536",
"Z  c #3F913D",
"A  c #35A833",
"S  c #3AB037",
"D  c #1FDE1A",
"F  c #1BED16",
"G  c #14FE0E",
"H  c #17F413",
"J  c #16FB10",
"K  c #22D71D",
"L  c #29CF25",
"P  c #26D622",
"I  c #27DC22",
"U  c #22E41D",
"Y  c #26F313",
"T  c #42951E",
"R  c #40803E",
"E  c #469922",
"W  c #41903D",
"Q  c #489934",
"!  c #40B60C",
"~  c #43B90F",
"^  c #45BB12",
"/  c #49BF15",
"(  c #62A32B",
")  c #488747",
"_  c #4E954C",
"`  c #528150",
"'  c #45A543",
"]  c #4CF103",
"[  c #4EFF00",
"{  c #54ED13",
"}  c #827F25",
"|  c #84801D",
" . c #8A8726",
".. c #9F9B2B",
"X. c #86AF22",
"o. c #A09B1B",
"O. c #A29D2E",
"+. c #A9A319",
"@. c #AEBA1B",
"#. c #A5A132",
"$. c #A9A535",
"%. c #AEAA3B",
"&. c #B1AD3E",
"*. c #80807F",
"=. c #88E313",
"-. c #B4D713",
";. c #C0BA16",
":. c #C3BD1E",
">. c #C5BF20",
",. c #CEC70F",
"<. c #CBC515",
"1. c #CDC813",
"2. c #D6CF0E",
"3. c #D2CB13",
"4. c #D2CB1D",
"5. c #DAD311",
"6. c #C7C022",
"7. c #C9C325",
"8. c #CCC628",
"9. c #CEC829",
"0. c #D5CE20",
"q. c #E7DF11",
"w. c #ECE40B",
"e. c #E9E113",
"r. c #F4EB0D",
"t. c #FEF508",
"y. c #858585",
"u. c #ACACAC",
"i. c gray69",
"p. c gray",
"a. c #CDCDCD",
"s. c #DEDEDE",
"d. c #EEEEEE",
"f. c gray100",
/* pixels */
"y.y.y.y.y.y.y.y.y.y.y.y.y.y.y.y.y.y.y.y.y.y.y.y.y.y.y.y.y.y.y.y.",
"m m m m m y.m m *.*.*.m *.*.*.m *.m y.m m m y.m *.*.m m *.m m y.",
"m m m m m m m m m n m m m m m m m m m m m n m m m m m m m m m m ",
"m n v n n n n n n n n n n n n v n v n n n n n n n n v n v n n n ",
"v v r.t.t.t.t.&.9.9.v b q.8.v v x v v v v v v v v v v v v v v v ",
"x l r.%.l l l c 8.8.v e.q.b c c c c z v z _ I U ' z c c c c c c ",
"l l r.%.d l l l 8.0.e.q.b d d l d l h f U J G G J S l d l d l l ",
"d d r.t.t.t.#.d 8.t.t.k d d d d d d ) F P J G G J P d d d d d d ",
"s s r.#.s d s s 6.4.e.e.a s d s s W H Z f F G G G A s d s s s d ",
"s s r.O.u s s s 6.>.a e.e.a i s Q Y V s u V K D C i u s s i u s ",
"u u r...u u u u :.>.u p e.:.u ( { f u u u u u u u u u u u u u u ",
"u y y y u y y y y y y 4 y y X.=.0 7 y y u y y y y y u y y u y y ",
"5 5 , 5 5 5 , 7 y 4 5 4 7 @.-.8 4 / [ [ / < E ] 5 5 / ] 5 5 5 y ",
", , , , , , t 3.5. ., 6 <.1.6 , , , ^ ^ , , E ] , / ] 3 , , , , ",
", : : : , t w.t.t.t.} 1.;.> : , : : ^ ^ : : T ] ^ ] 3 : : : , : ",
": : : : : o.t.t.t.t.t.+.: : : ; : : ^ ^ : : B [ [ T ; : : : : : ",
"; ; ; ; ; r w.t.t.t.| ; & : ; ; ; ; ^ ~ ; : N ] ! ] 2 ; ; ; : ; ",
"; & ; & & $ w 1.2.e & & = & & = % % ! ~ & & N ] = ! ] 1 & & * = ",
"$ $ $ $ $ $ $ $ $ $ $ $ $ $ $ $ $ ! [ [ ! $ N ] $ $ ! ] $ $ $ * ",
"@ $ O $ O $ + + @ @ + + + + + + @ @ @ O O + + + + O + + # # # + ",
"O O O O O O O O O O O O O O O + O O O O O O O O O O O O O O O O ",
"o o o o o o o o o o o o o o o o o o o o o o o o O o o o o o o O ",
"o o o X o X X X X o o X o X X o X X X o o X o X X X X X X X o X ",
". . X $ s.f.f.s.$ m d.s X m d.X X 4 f.5 X . d.f.f.f.u.X . X X X ",
"X . . i.s.@ + s.i.m f.i.. m d.. . i.f.i.X . d.*.. s d.m . X . . ",
". . . u.s.+ . . . m d.d.m m d.. O s.p.s.O . d.m . . d.m . . . . ",
".   . o s.f.f.s.o m d.m d.m d.. , f.x f., . d.a.u.a.d.u . . . . ",
"  .   . .   o s.u.m d.  d.s.d.. u.s.u.s.u.  d.a.u.u.y .     .   ",
"      u.s.X X s.u.m d.  y d.d.o s.u.u.u.s.X d.n .           .   ",
"      X s.f.f.s.o n d.    u.d.: f.:   : f.: d.m                 ",
"                                                                ",
"                                                                "
};
