/* XPM */
static char *flip[] =
{
/* width height ncolors chars_per_pixel */
"32 32 39 2",
/* colors */
"AA c #FFFFFFFFFFFF",
"BA c #EFEFEFEFEFEF",
"CA c #B5B5B5B5C6C6",
"DA c #B5B5B5B5BDBD",
"EA c #B5B5B5B5ADAD",
"FA c #ADADADADADAD",
"GA c #A5A5A5A5B5B5",
"HA c #A5A59C9CA5A5",
"IA c #9C9CA5A5A5A5",
"JA c #9C9C9C9CADAD",
"KA c #9C9C9C9C9C9C",
"LA c #8C8C8C8C9C9C",
"MA c #8C8C8C8C8C8C",
"NA c #848484847B7B",
"OA c #7B7B84849494",
"PA c #7B7B7B7B9C9C",
"AB c #7B7B7B7B8C8C",
"BB c #7B7B7B7B7B7B",
"CB c #6B6B73739494",
"DB c #6B6B73738C8C",
"EB c #6B6B6B6B8C8C",
"FB c #6B6B6B6B7B7B",
"GB c #636363636B6B",
"HB c #5A5A63638484",
"IB c #5A5A5A5A8484",
"JB c #5A5A5A5A7B7B",
"KB c #5A5A5A5A6B6B",
"LB c #4A4A4A4A7B7B",
"MB c #4A4A4A4A6B6B",
"NB c #4A4A4A4A4A4A",
"OB c #393942426B6B",
"PB c #393939396B6B",
"AC c #393939393939",
"BC c #313139395A5A",
"CC c #292929296363",
"DC c #292929295252",
"EC c #212121214A4A",
"FC c #212121212929",
"GC c #181818182121",
/* pixels */
"ACMAFAKAFAKAFAKAFAKAFAKAFAKAFAKAFAKAFAKAFAKAFAKAFAKAFAKAFAKAFAKA",
"MAACMAFAKAKAKAFAKAKAKAKAKAFAKAKAKAKAKAFAKAKAKAKAKAFAKAKAKAKAKAFA",
"FAMAACMAFAKAKAKAFAKAFAKAKAKAFAKAFAKAKAKAFAKAFAKAKAFAKAFAKAFAKAKA",
"KAFAMAACMAFAKAFAKAKAKAFAKAFAKAKAKAFAKAFAKAKAKAFAKAABLAKAKAKAFAKA",
"FAKAFAMAACMAFAKAKAFAKAKAKAKAFAKAKAKAFAKAKAFAKALAMBDCMBFAKAKAKAFA",
"KAKAKAFAMAACBBFAKAKAFAKAKAFAKAKAFAKAKAKAFAKALAPBBCKBKAKAFAKAFAKA",
"FAKAFAKAFAMAACMAFAKAKAFAKAKAFAKAKAFAKAFALAPAEBABJAFAKAIAKAFAKAKA",
"KAFAKAKAKAFAKAACBBFAKAKAFAKAKAKAFAKAJAABFBDBMAFAFAKAKAFAJAFBJBFA",
"KAKAFAKAKAKAFAMANBBBFAKAKAFAKAKAKAFAJBCCDBMALAKAKAFAKAKAABMBEBKA",
"FAKAKAFAKAFAKAFAMAACBBFAFAKAIAHAFAABBCLAMAEBEBMAFAKAKAFAPBJBKAFA",
"KAFAKAKAFAKAKAKAFAKAACBBFAKAHAFAABBCABKAJBJAPAFBFAKAFAJBOBKAKAKA",
"KAKAFAKAKAKAKAFAKAFAMANBBBFAIAMADCKBFALAEBJBMBKAKAFAEBMBLAFAKAFA",
"FAKAKAFAKAFAKAKAKAKAFAMAACNAEAFBDCCBABMBMBFBKAKAFAMAPBFBFAKAFAKA",
"KAKAKAKAFAKAKAFAKAFAKAFAMANBABLAOADALAECABFAFAKAOACCKBFAKAFAKAKA",
"FAKAFAKAKAKAFAKAKAKAFAKAFAMANBKBHAAAGAFBLAKAABIBLBHBKAKAFAKAKAFA",
"KAFAKAKAKAFAKAKAKAFAIAHAKAKAGBFCABJAKAFBMBLBLBEBKAFAFAKAKAKAFAKA",
"KAKAFAKAFAKAKAFAFAMAFBPBFBMBGBBBFCKBKBKBBCMBLAIAKAKAKAFAKAKAKAFA",
"FAKAKAFAKAKAFAKAABJBLBOBKBMAKAKABBGCKBFAIAKAFAKAFAHAIAKAHAKAFAKA",
"KAFAKAKAKAFAABJBLBEBLALAFBKABAGAFBMANBBBFAFAKAKAKAFAKAFAKAIAKAHA",
"FAKAKAKAFAABDCHBKAKAFAKABCABCAIAABFAKAACBBFAKAKAFAKAKAKAKAFAHAIA",
"KAFAKAFAMAPBHBFAFAKAABJBBCEBPAMBKBKAFAKAACBBFAHAKAIAFAKAIAKAFAKA",
"KAKAFAKAJBLBFAHAKAFBMBFBEBFAABDCJBFAKAFAKAACBBFAIAHAKAFAHAKAKAFA",
"FAKAIAJBOBKAKAFAABFBJAHBKAMAPBFBIAKAKAKAFAKAACBBFAKAKAKAFAKAKAKA",
"KAKAABPBMAFAFAIALAEBPAABKALBKBKAFAKAFAKAKAFAKAACBBFAFAKAKAFAKAFA",
"FAMAMBJBJAKAKAHAFAMADBMALBCCJAFAKAKAKAFAKAKAFAKAACBBFAKAKAKAFAKA",
"FAIBLBKAFAIAHAIAHAIAABIBJBKAFAKAKAFAKAKAFAKAKAFAKAACBBFAKAFAKAKA",
"KAKAKAKAKAHAFAFAMAEBABLAKAFAKAKAFAKAKAKAKAFAKAKAFAKAACBBFAKAKAFA",
"KAFAHAIAHAIABBMBPBDBKAKAFAKAKAFAKAKAFAKAFAKAKAKAKAFAKAACBBFAFAKA",
"FAKAIAHAFAGBECECABFAKAIAKAKAHAKAIAHAKAFAKAKAFAKAKAKAFAKAACBBFAKA",
"KAIAHAIAKAMAEBKAFAKAIAHAKAFAIAHAIAHAIAKAKAFAKAKAFAKAKAFAKANBGBFA",
"FAKAIAHAFAKAFAKAKAFAKAFAKAKAHAIAHAIAHAIAHAKAFAKAKAFAKAKAFAKANBBB",
"KAHAKAFAKAIAKAHAIAKAHAKAIAHAIAHAIAHAIAHAIAKAKAFAKAKAFAKAKAKAKANB",
};
