/* XPM */
static char *gecco[] = {
/* columns rows colors chars-per-pixel */
"32 32 256 2",
"   c #020202",
".  c #0B0B0B",
"X  c #141414",
"o  c #1A1A1B",
"O  c #141419",
"+  c #1F1F20",
"@  c #131323",
"#  c #151537",
"$  c #1B1B36",
"%  c #15143B",
"&  c #1F201F",
"*  c #203E1F",
"=  c #232424",
"-  c #272827",
";  c #272828",
":  c #282727",
">  c #282728",
",  c #282827",
"<  c #2B2B2B",
"1  c #222331",
"2  c #2E3A2F",
"3  c #233238",
"4  c #30362F",
"5  c #333333",
"6  c #3B3B3B",
"7  c #383935",
"8  c #1A1A46",
"9  c #1D1D4F",
"0  c #161651",
"q  c #17175A",
"w  c #1D1C50",
"e  c #0E0E78",
"r  c #101069",
"t  c #191867",
"y  c #141373",
"u  c #151F76",
"i  c #272743",
"p  c #20214C",
"a  c #2D2D40",
"s  c #323242",
"d  c #3B3B43",
"f  c #38364B",
"g  c #37365B",
"h  c #3F3F56",
"j  c #2A2A63",
"k  c #2B2B71",
"l  c #343571",
"z  c #1F571E",
"x  c #1A5F19",
"c  c #1B472E",
"v  c #1A621A",
"b  c #1A6F1A",
"n  c #177317",
"m  c #274D26",
"M  c #2A4E2A",
"N  c #254734",
"B  c #265E27",
"V  c #285628",
"C  c #245238",
"Z  c #384A2E",
"A  c #334B32",
"S  c #3B4D3B",
"D  c #3C5C3C",
"F  c #207A20",
"G  c #3F673F",
"H  c #2E465B",
"J  c #2A4C50",
"K  c #255842",
"L  c #30406F",
"P  c #3D4F69",
"I  c #364175",
"U  c #463737",
"Y  c #403A3B",
"T  c #502F2F",
"R  c #57332B",
"E  c #5C3636",
"W  c #5B3D3D",
"Q  c #523B3B",
"!  c #6E2727",
"~  c #673939",
"^  c #6A3737",
"/  c #6E3C3C",
"(  c #7D2424",
")  c #403F40",
"_  c #403F53",
"`  c #40403F",
"'  c #414242",
"]  c #44424B",
"[  c #4C4242",
"{  c #484847",
"}  c #4B4B4B",
"|  c #5E4B4A",
" . c #535353",
".. c #51525E",
"X. c #525E50",
"o. c #5B5B5C",
"O. c #444766",
"+. c #4B4B6B",
"@. c #42417C",
"#. c #484771",
"$. c #426F42",
"%. c #4E634F",
"&. c #407E42",
"*. c #5A6254",
"=. c #634343",
"-. c #664E4E",
";. c #645252",
":. c #685D5D",
">. c #705050",
",. c #7B5252",
"<. c #6E6757",
"1. c #646364",
"2. c #676868",
"3. c #696666",
"4. c #686867",
"5. c #6C6D6C",
"6. c #636C63",
"7. c #647765",
"8. c #627B61",
"9. c #687466",
"0. c #756766",
"q. c #786464",
"w. c #7B6C6C",
"e. c #727272",
"r. c #7B7B7B",
"t. c #0E0E8D",
"y. c #0B0B99",
"u. c #1D1D9B",
"i. c #0B0BA4",
"p. c #0A0BBC",
"a. c #0C0CB4",
"s. c #1313A8",
"d. c #1C1CAC",
"f. c #1313A6",
"g. c #1010BC",
"h. c #1919B3",
"j. c #1C1CBB",
"k. c #1212B2",
"l. c #201FA3",
"z. c #2C2C88",
"x. c #2F2E99",
"c. c #242592",
"v. c #2B388B",
"b. c #2424B1",
"n. c #0606C0",
"m. c #0606CE",
"M. c #0B0BCB",
"N. c #0704DA",
"B. c #0C0CDB",
"V. c #1111D5",
"C. c #1818CA",
"Z. c #0B0BE4",
"A. c #0B0BE8",
"S. c #0404E1",
"D. c #0303F3",
"F. c #0000FC",
"G. c #7E7F80",
"H. c #0FAD0F",
"J. c #0EB20E",
"K. c #0EBC0E",
"L. c #15A814",
"P. c #1AA611",
"I. c #19AC19",
"U. c #10BA0E",
"Y. c #13B013",
"T. c #16BD16",
"R. c #1BB31A",
"E. c #2C9E2C",
"W. c #308D30",
"Q. c #339133",
"!. c #24A725",
"~. c #24AD23",
"^. c #2FA42E",
"/. c #2FAC2F",
"(. c #29B629",
"). c #2DBC2C",
"_. c #22BB22",
"`. c #30A930",
"'. c #3DA53C",
"]. c #0DC80D",
"[. c #07DC07",
"{. c #0BD20A",
"}. c #0CD307",
"|. c #10CB0F",
" X c #15C20C",
".X c #14CC13",
"XX c #19CD19",
"oX c #15D614",
"OX c #19D619",
"+X c #05E605",
"@X c #0EE50E",
"#X c #09EE09",
"$X c #04F404",
"%X c #01FB01",
"&X c #09F600",
"*X c #09F009",
"=X c #25C524",
"-X c #28C528",
";X c #478146",
":X c #418A41",
">X c #4F8741",
",X c #4E824C",
"<X c #548B45",
"1X c #538552",
"2X c #872C2C",
"3X c #9B3E3E",
"4X c #B31616",
"5X c #B71818",
"6X c #B91A1A",
"7X c #A42222",
"8X c #AB3939",
"9X c #B62222",
"0X c #B52E2D",
"qX c #BD2323",
"wX c #B92F2F",
"eX c #B43B3B",
"rX c #8F5253",
"tX c #825454",
"yX c #9F4041",
"uX c #905352",
"iX c #945A5A",
"pX c #9B5151",
"aX c #8E7D7D",
"sX c #877677",
"dX c #996565",
"fX c #917979",
"gX c #A55454",
"hX c #B44A4A",
"jX c #C11414",
"kX c #CD1212",
"lX c #C51D1E",
"zX c #DB0A0A",
"xX c #D21212",
"cX c #D31919",
"vX c #DC1717",
"bX c #DC1D1D",
"nX c #CF2D2D",
"mX c #C52B2B",
"MX c #C03333",
"NX c #C63838",
"BX c #CB3332",
"VX c #D42020",
"CX c #E00B0B",
"ZX c #EA0606",
"AX c #E81111",
"SX c #F50404",
"DX c #F30A0A",
"FX c #FB0102",
"GX c #80807F",
"HX c #848584",
"JX c #888484",
"KX c #ACACAC",
"LX c gray69",
"PX c #DEDEDE",
"IX c #EEEEEE",
"UX c gray100",
/* pixels */
"HXHXHXHXHXHXHXHXfXfXfXfXJXHXHXHXHXHXHXHXHXHXHXHXHXHXHXHXHXHXHXJX",
"r.HXr.r.HXr.fXgXNXBXBXBXhXdXsXG.G.HXG.G.r.G.G.G.G.G.r.r.HXG.r.HX",
"r.r.r.r.r.gXbXSXFXDXSXSXFXDXnXdXr.e.r.r.r.r.r.r.r.r.r.r.r.r.r.r.",
"e.e.e.w.eXSXDXMXpXiXiXpXeXbXFXAXpXe.e.e.e.e.5.e.e.e.5.e.e.e.5.e.",
"5.5.0.mXFXVXrX9.7.8.7.5.5.q.eXSXAXrX5.5.5.5.5.5.5.5.5.5.5.5.5.5.",
"2.2.yXSXwX<.<X).-X-X-X'.1X6.3.8XFXvXtX3.3.3.3.1.3.2.3.2.1.3.2.2.",
"1.1.3X0X>XOX$X%X$X$X%X%X#X=X,X:.0XFXcX,.1.o.1.1.1.o.1.o.1.o.1.1.",
"o.o.*.`.$X#X(.:X,X&.:X`.oX%X@X:X;.qXFXcX>.o.o.o.o.o.o.o.o.o.o.o.",
" .X._.%XXX&.+.@.@.@.+...%.^.$X@X&.-.lXFXqX;. . .o. . . .o. .o. .",
" .W.$X~.P b.Z.D.D.D.A.C.x.O.E.%XoX$.=.xXFX9X|  .}  .}  . .}  . .",
"} Q.!.v.A.F.V.j.j.j.V.D.F.V.I ~.%X.XG / xXFX6X=.} } } } } { { } ",
"{ ] h.F.B.z.h { { ] ] l b.D.Z.l R.%X.XD ^ xXFXkX2XW [ [ [ ^ 7XW ",
"f l.F.h.g Y d Y S ) ) ) ) c.F.B.H T.%XR.S E 6XFXFXCXjX5XjXZXSXQ ",
"k V.d.s 6 6 6 6 6 6 6 6 6 d u.F.M.J |.%XI.A U ( 4XzXSXFXSXZX4XY ",
"f j s 5 7 7 5 5 5 5 6 5 5 5 s s.F.M.K {.%XY.Z 5 7 T ! ( ! R Z 7 ",
"5 < 5 5 < 5 5 5 5 < 5 < 5 5 5 3 k.F.g.C ].&X XF M 4 4 2 V L.{.B ",
"< 4 < < < < < < < 5 < < 5 < < < i p.F.f.N P.$X%X[.K.J.K.+X%X{.m ",
"> , , , , , , = ; , , , ; , , , < p M.F.s.3 b H.}.+X%X%X+XJ.z - ",
"; = = = = = = = = = = = = = = = = = w M.F.a.w ; * v n v c u t 1 ",
"+ + o = o = = o + o + + + o o = o = o 8 p.F.S.i.y q q y n.F.i.$ ",
"o o o o o o o o o o o o o o o o o o o o $ t.N.D.F.D.D.F.F.m.0 o ",
"o o X o X o o o o o X o o X o X o o X o O o % r y.n.n.i.e # o o ",
"X X X X X X X X X X X X X X X X X X X X X X X X X @ @ O O 1 X X ",
"X HXUXUXUXr.HXUXUXUXUXIXX = PXUXUXHX. X LXUXUXLX. X G.UXUX1XX X ",
"6 UXG.. GXHXr.IX. . . X . LXPXo G.UX6 r.IX .{ IXG.) UXr.sXUXJ . ",
"KXKX. . . . r.IX. . . . 6 UX6 . . . . IXr.. . . . KXKX. . LXKX. ",
"KXKX6 UXUXKXr.UXUXUXIX. 6 UX6 . . . . IXr.. . . . KXKX. . LXKX. ",
"KXKX.   KXKXr.IX.     . 6 UX7 . .   . IXe..   . . KXKX    KXKX  ",
"7 UXr.  KXKXe.IX    .     KXPXX r.UX7 r.IX' { IXr.7 UXr.sXUX5   ",
"  e.UXUXUXKXr.UXUXUXUXIX  X PXUXUXe.    KXUXUXKX    e.UXUXr.    ",
"                                                                ",
"                                                                "
};
