/* XPM */
static char * gijoe_xpm[] = {
"32 32 335 2",
"  	c #C6B9B0",
". 	c #C1B8A7",
"+ 	c #C3BAA9",
"@ 	c #C2BAA7",
"# 	c #C5BDAA",
"$ 	c #C2B9AA",
"% 	c #C3BAAB",
"& 	c #C3B9AD",
"* 	c #C5B9AB",
"= 	c #C2B9A8",
"- 	c #C4BBAA",
"; 	c #C3BBA6",
"> 	c #C4BCA9",
", 	c #C2BBAB",
"' 	c #C2BBA8",
") 	c #C3BBA8",
"! 	c #C1B9A6",
"~ 	c #C2BDA9",
"{ 	c #C6B9B3",
"] 	c #F8F3D6",
"^ 	c #F3F0CF",
"/ 	c #F6F2CF",
"( 	c #F4F0CB",
"_ 	c #F5F1CC",
": 	c #F4F0CA",
"< 	c #F3EFC9",
"[ 	c #F4F2CC",
"} 	c #F3F1CB",
"| 	c #F3F1CA",
"1 	c #F4F2CB",
"2 	c #F4F1CE",
"3 	c #F4F1D0",
"4 	c #F3F1C8",
"5 	c #F5F3CD",
"6 	c #F2F0CA",
"7 	c #F5F1CE",
"8 	c #F4F0CD",
"9 	c #F3F0CD",
"0 	c #F1F1CF",
"a 	c #D4D5CF",
"b 	c #B8BBC6",
"c 	c #B9BBC2",
"d 	c #C6C7C3",
"e 	c #D2D2CD",
"f 	c #E0E0D6",
"g 	c #EFEED9",
"h 	c #F1F0D4",
"i 	c #EFEDC8",
"j 	c #F0F0CA",
"k 	c #F5F3CC",
"l 	c #CDCDAB",
"m 	c #F5F2D1",
"n 	c #F5F3D3",
"o 	c #CCCED1",
"p 	c #8D9AC7",
"q 	c #8695C8",
"r 	c #8B9ACB",
"s 	c #94A2CE",
"t 	c #9EAAD3",
"u 	c #9DA9D2",
"v 	c #9FACD3",
"w 	c #B4BEDD",
"x 	c #DFE0E5",
"y 	c #E2DFC9",
"z 	c #EBE9C4",
"A 	c #F3EFCC",
"B 	c #D0CDAE",
"C 	c #C1BAA8",
"D 	c #F6F1D3",
"E 	c #F4F2D3",
"F 	c #ACB6D4",
"G 	c #7E8EC5",
"H 	c #8F9DCC",
"I 	c #97A4D0",
"J 	c #A4AFD6",
"K 	c #A3AED5",
"L 	c #A2ADD5",
"M 	c #AAB6D8",
"N 	c #CFD3E2",
"O 	c #D7D4B8",
"P 	c #EBE7C4",
"Q 	c #F6F1D1",
"R 	c #CECBAC",
"S 	c #C4B8AA",
"T 	c #F6F3D2",
"U 	c #F3F1CD",
"V 	c #CBD0DE",
"W 	c #7F8FC5",
"X 	c #8897C8",
"Y 	c #909ECD",
"Z 	c #99A5D1",
"` 	c #A8B3D7",
" .	c #A7B2D7",
"..	c #C3C7CD",
"+.	c #D8D6B5",
"@.	c #F0EDCB",
"#.	c #F2EFCC",
"$.	c #D0CDAC",
"%.	c #F6F3D4",
"&.	c #F2F1EF",
"*.	c #929FCD",
"=.	c #B1BBDB",
"-.	c #95A3CE",
";.	c #C1BFA6",
">.	c #E4E1C0",
",.	c #CCCBAC",
"'.	c #D9DCE5",
").	c #8D9BCB",
"!.	c #ACB7DA",
"~.	c #C2CAE4",
"{.	c #B9C2DF",
"].	c #AAAB9D",
"^.	c #EFEDC7",
"/.	c #F5F2CF",
"(.	c #CBCBA9",
"_.	c #C4BBAC",
":.	c #F6F2CD",
"<.	c #C0C5D6",
"[.	c #9AA7D1",
"}.	c #EBEEF6",
"|.	c #E1E5F1",
"1.	c #999C9D",
"2.	c #CFCEAD",
"3.	c #F2F2CC",
"4.	c #C2BBA9",
"5.	c #ACB2C9",
"6.	c #8998CA",
"7.	c #E7EAF4",
"8.	c #F5F6FA",
"9.	c #BEC6E1",
"0.	c #B8C1DF",
"a.	c #89909E",
"b.	c #C9C7A8",
"c.	c #EAE8C3",
"d.	c #F5F2D3",
"e.	c #B3B8CD",
"f.	c #E6EAF4",
"g.	c #DDE1F0",
"h.	c #BBC3E0",
"i.	c #C1C8E2",
"j.	c #7C849E",
"k.	c #C5C1A2",
"l.	c #E8E5C1",
"m.	c #D1D2D2",
"n.	c #B2BCDC",
"o.	c #CBD1E7",
"p.	c #C6CDE5",
"q.	c #C8D0E6",
"r.	c #737FA3",
"s.	c #BEBC9F",
"t.	c #E7E5C1",
"u.	c #CFCCAD",
"v.	c #E6E4CE",
"w.	c #8393C7",
"x.	c #7583AC",
"y.	c #BAB99C",
"z.	c #E2E0BD",
"A.	c #EEECC7",
"B.	c #B2BAD5",
"C.	c #8493C7",
"D.	c #5D71B6",
"E.	c #929CB9",
"F.	c #B4B397",
"G.	c #E0DDBD",
"H.	c #CDCAAB",
"I.	c #C2B8AC",
"J.	c #E0DECF",
"K.	c #8192C6",
"L.	c #B6BEDD",
"M.	c #BDC6E1",
"N.	c #5D6EA5",
"O.	c #A0A08C",
"P.	c #BFBD9F",
"Q.	c #F1F1CB",
"R.	c #EBEBC5",
"S.	c #CAC9AA",
"T.	c #C0C3CC",
"U.	c #7688C1",
"V.	c #7B8BC3",
"W.	c #D0D6EA",
"X.	c #C3CBE4",
"Y.	c #6977AA",
"Z.	c #989885",
"`.	c #B3B199",
" +	c #D8D5B6",
".+	c #EEEAC6",
"++	c #C9C8AA",
"@+	c #F0EDCC",
"#+	c #E2E0BF",
"$+	c #929DC2",
"%+	c #798AC2",
"&+	c #CCD2E7",
"*+	c #DCE0EF",
"=+	c #C7CEE5",
"-+	c #7E838C",
";+	c #AFAD93",
">+	c #D3D1B0",
",+	c #EDEBC5",
"'+	c #C4C3A4",
")+	c #EEECC6",
"!+	c #D5D3C1",
"~+	c #D1D7EA",
"{+	c #7C8ABC",
"]+	c #A09F87",
"^+	c #C8C5A5",
"/+	c #E9E7C3",
"(+	c #C3C2A3",
"_+	c #8E9BCA",
":+	c #7586C1",
"<+	c #7A8AC2",
"[+	c #D8DDEE",
"}+	c #747E9D",
"|+	c #ACA993",
"1+	c #DAD7B8",
"2+	c #F0EDCA",
"3+	c #C2C1A2",
"4+	c #F1EFC9",
"5+	c #A9B1CE",
"6+	c #888C8B",
"7+	c #BCBA9D",
"8+	c #E5E3BE",
"9+	c #B7BCD0",
"0+	c #E2E6F1",
"a+	c #B3B9D2",
"b+	c #A3A188",
"c+	c #CDCBAB",
"d+	c #C7C6A7",
"e+	c #C0C4CF",
"f+	c #D5DAEB",
"g+	c #9EA3B5",
"h+	c #ADAA8F",
"i+	c #D9D7B4",
"j+	c #F1EDC7",
"k+	c #B7BAC5",
"l+	c #193181",
"m+	c #0E2368",
"n+	c #000C41",
"o+	c #314BA2",
"p+	c #ADB7DA",
"q+	c #7C85A0",
"r+	c #B6B498",
"s+	c #E3E1BE",
"t+	c #CBCAAB",
"u+	c #C4C5C9",
"v+	c #061957",
"w+	c #000024",
"x+	c #757D97",
"y+	c #BDBB9E",
"z+	c #E4E2BE",
"A+	c #C1BAAA",
"B+	c #C1C2C3",
"C+	c #0C2065",
"D+	c #041652",
"E+	c #000637",
"F+	c #344EA3",
"G+	c #7E8697",
"H+	c #E5E2C1",
"I+	c #C3C5C0",
"J+	c #0B1F64",
"K+	c #071B5C",
"L+	c #000433",
"M+	c #28439E",
"N+	c #6C7FBD",
"O+	c #828894",
"P+	c #C4C2A2",
"Q+	c #E7E4C3",
"R+	c #D7D7C8",
"S+	c #0A1E60",
"T+	c #001149",
"U+	c #000F47",
"V+	c #4D64AE",
"W+	c #828890",
"X+	c #C5C3A3",
"Y+	c #EAE7C6",
"Z+	c #F7F2D2",
"`+	c #F1F2CA",
" @	c #EEECC9",
".@	c #5A6EB1",
"+@	c #000C42",
"@@	c #071B5B",
"#@	c #445CAA",
"$@	c #898D8C",
"%@	c #EAE8C4",
"&@	c #F4EFCF",
"*@	c #F1EECB",
"=@	c #E9EAEB",
"-@	c #243F9B",
";@	c #273B81",
">@	c #828588",
",@	c #ADAB90",
"'@	c #D2D3B0",
")@	c #EFEBC7",
"!@	c #F6F3D0",
"~@	c #F2F0C9",
"{@	c #F1F1CD",
"]@	c #E6E5C6",
"^@	c #C7C6B2",
"/@	c #9C9F96",
"(@	c #8C8F8D",
"_@	c #A1A18A",
":@	c #B3B096",
"<@	c #CDCAAD",
"[@	c #E5E5C1",
"}@	c #EBE7CA",
"|@	c #C7C4A5",
"1@	c #C4C0A3",
"2@	c #BEBAA1",
"3@	c #C2BEA5",
"4@	c #C2BEA1",
"5@	c #C5C1A4",
"6@	c #BEBDA0",
"7@	c #B2AE94",
"8@	c #ABA88F",
"9@	c #A7A58A",
"0@	c #A5A48A",
"a@	c #AFAF93",
"b@	c #B9BA9C",
"c@	c #BABA9E",
"d@	c #BCBB9F",
"e@	c #BEBDA1",
"f@	c #B5B599",
"g@	c #B8B79B",
"h@	c #BBBA9E",
"i@	c #BFBEA0",
"j@	c #C3C2A6",
"k@	c #C5C1A6",
"l@	c #C4C3A5",
"m@	c #A5A488",
"n@	c #C1BBAB",
"o@	c #C3BCAA",
"p@	c #C0B8A9",
"q@	c #BFB8A6",
"r@	c #BDB7A5",
"s@	c #C0B7A6",
"t@	c #C0B9A7",
"  . + @ # $ % & * $ + + + = + $ - ; > % + $ , ' @ ) + , ! + ~ { ",
"+ ] ^ / ( _ : : < [ } } | | } 1 } 2 3 [ 4 5 6 1 7 } ( 2 ( 8 3 ) ",
"' 3 } 1 [ 2 6 5 } 9 1 0 a b c d e f g h i 4 : ( 9 [ [ j k 2 l - ",
"' m ^ / ( _ : : < n o p q r s t u v w x y z } 9 2 } } [ | A B * ",
"C D } 1 [ 2 6 5 E F G q r H I J K J L M N O P _ : : < [ ( Q R S ",
"' T } 1 } 9 [ U V W X Y Y Y Z J `  .L t v ..+.@.6 5 } 9 [ #.$.+ ",
", %.9 [ } [ 6 &.I q H s *.I u J M =.M L J -.;.>.[ } _ 9 [ 2 ,.+ ",
"% / [ } } } ^ '.q r Y ).Y I v ` !.~.{.M =.*.].+.^.9 } /.| } (.+ ",
"_.:.^ / ( _ } <.X ).Y ).H s [. .w }.|.w w L 1.2.^.9 [ } } 3.,.4.",
"+ 7 } 1 [ 2 } 5.6.).H X H *.Z J =.7.8.9.0.` a.b.c.2 9 [ } [ R + ",
"% d.} 1 } 9 9 e.r H H 6.H *.I L =.f.g.h.i.M j.k.l.< [ 9 [ [ R = ",
"+ m 9 [ } [ [ m.).r r H ).Y I v n.o.9.p.q.L r.s.t.} 9 | [ } u.+ ",
"% 2 [ } } } } v.s ).X 6.r ).-.u M n.0.p.q.w.x.y.z._ 9 [ } [ R + ",
"_.} ^ / ( _ | A.B.6.q C.q 6.Y u  .w h.p.{.D.E.F.G.} /.6 } j H.+ ",
"I.m } 1 [ 2 ^ 6 J.q C.K.K.C.r Z L.M.~.o.H N.O.P.>.[ } Q.2 R.S.+ ",
"% %.^ / ( _ [ | P T.U.W V.W X Z o.W.X.i.Y.Z.`. +.+_ : : < [ ++4.",
"+ 3 ^ / ( _ : : @+#+$+V.%+G X [.&+*+=+t -+;+>+,+[ 2 6 5 } 9 '++ ",
"+ m } 1 [ 2 6 5 [ )+!+V.U.V.6.v ~+|.=+{+]+^+/+1 } 9 [ } _ 9 (++ ",
"+ m } 1 } 9 [ } } 1 /+_+:+<+H ` [+f.~.}+|+1+2+[ } [ 6 9 } /.3++ ",
"+ 3 9 [ } [ 6 9 9 [ 4+5+:+%+).M *+|.h.6+7+8+[ } } } k 9 [ } '++ ",
"+ 3 [ ^ / ( _ : : < [ 9+U.V.s h.0+W.a+b+c+,+} 9 9 } | 2 9 [ d+= ",
"+ m } } 1 [ 2 6 5 } 9 e+V.w.s =.f+q.g+h+i+j+[ : : < [ : < [ S.+ ",
"+ m | } 1 } 9 [ } _ 9 k+l+m+n+o+!.p+q+r+s+} 9 6 5 } 9 5 } 9 t++ ",
"+ 3 ^ 9 [ } [ 6 9 } /.u+v+n+w+o+t s x+y+z+_ 9 [ } _ 9 } _ 9 ,.+ ",
"A+d.[ [ } } } k 9 [ } B+C+D+E+F+Z C.G+P.H+} /.6 9 } /.9 } /.R % ",
"+ 7 | } 9 9 } | 2 9 [ I+J+K+L+M+N+U.O+P+Q+[ } k 9 [ } 9 [ } B = ",
"' / } | [ 9 9 [ } [ 9 R+S+T+U+V+-.6.W+X+Y+9 [ | 2 9 [ 2 9 [ R + ",
"% Z+9 ^ } 8 [ `+_ } |  @.@+@@@#@H <+$@b.%@[ 9 [ } [ 9 } [ 9 R + ",
"% &@[ [ | _ 9 Q.} : [ *@=@-@w+w+;@>@,@'@)@} | `+_ } | _ } | R + ",
"' !@~@{@9 2 [ [ 9 6 5 | ]@^@/@(@_@:@<@[@6 : [ Q.} : [ } : [ R @ ",
"' }@|@1@2@3@4@5@(+(+(+(+6@7@8@9@0@a@b@c@d@e@d@f@g@h@i@j@k@l@m@n@",
"_.= o@' + $ - A++ + + + % p@q@r@s@. - = = = = C t@. C C + ' C   "};
