/* XPM */
static char *gizmo[] = {
/* columns rows colors chars-per-pixel */
"32 32 44 1",
"  c #030303",
". c #0C0C0C",
"X c #131313",
"o c #181817",
"O c #1A1A1A",
"+ c #1F1F20",
"@ c #1F201F",
"# c #201F1F",
"$ c #232323",
"% c #272827",
"& c #272828",
"* c #282727",
"= c #282827",
"- c #2B2B2B",
"; c #343434",
": c #3A3B3B",
"> c #40403F",
", c #434343",
"< c #4A4A4A",
"1 c #535353",
"2 c #5B5B5B",
"3 c #636363",
"4 c #676868",
"5 c #686867",
"6 c #6C6C6C",
"7 c #737373",
"8 c #7B7B7B",
"9 c #7E7F80",
"0 c #80807F",
"q c #858585",
"w c #8B8B8B",
"e c #939393",
"r c #9D9D9D",
"t c #A1A1A1",
"y c #ACACAC",
"u c #B3B3B3",
"i c #C2C2C2",
"p c #CBCBCB",
"a c LightGray",
"s c #DCDCDC",
"d c gray89",
"f c #EEEEEE",
"g c #F2F2F2",
"h c #FEFEFE",
/* pixels */
"qqqqqqqqqqqqqqqqqqqqqqqqqqqqqqqq",
"88000900080000999990999999000000",
"88877888878888787888887887878788",
"87777677777777777776777777777777",
"66666666666666666666666666666666",
"4535uuyyyyyyyutw5544554443434455",
"3333y8766766<;343332333233332333",
"2222y322222:3y3; #:<122222222222",
"1211u3121111.yhgar2; $:<11111111",
"1<<1u78trtrt< uhhhhgpr2$.#;11111",
"<<<<u330999823Xphhhhhhhgiw1 <<<<",
"<,<,y1,,,,,,,e3*shhhhhhhhht ,,,,",
">>>>y1>>,>:><rr::fhhhhhhhg$-,>>>",
"::::y<:::::::et6O<ghhhhhhhy;O:::",
";;;;u<<33333,wr6;o6hhhhhhhhf8.+;",
";;;-u<2yrtrr1ee3;;Xqhhhhhhhhhp ;",
"----y>-;;;;:-wr3&-& rhhsghhhh$O-",
"-&&&y;&$&&*&-er3*&&O.id.,ahh:.&*",
"*$&$y,;;;;;->rr2$$$$o+,XoX8<.$$ ",
"++++utrrrrrrtue2$++$+Oo++OXo+#  ",
"OOOO+OOOOOOOOOOOOOOOOOOOOOOOOO  ",
"OooOoooOooOoooOoOoooOOooOoOOOoo ",
"oXXXXXoXXXXXXoooXXXXoXoooXXXXoXX",
"XXXXXXX.XXXXXX.XXXXX.X.X.X.XX.XX",
"....X...X...X........X...X..X...",
"....8hhh8.8hhg.:hhhhh:gy.<g8....",
"...:h8.88 .8f......yy.fg<yh8. ..",
"   yy . .  8f     8sO ffpff8 .  ",
"   yy;hhy  8f    :h;  fyfyf8   .",
"   yy  yy  7f   os8   f7w,f8    ",
"   ;h7 yy  7f   ty    g7  f7    ",
"    7hhhy 7hhf ;hhhhh;f7  f7    "
};
