/* XPM */
static char *gpick[] = {
/* columns rows colors chars-per-pixel */
"32 32 241 2",
"   c #020202",
".  c #0C0C0C",
"X  c #160F01",
"o  c #1F0800",
"O  c #1B1601",
"+  c #141414",
"@  c #101318",
"#  c #1B1B1B",
"$  c #130E25",
"%  c #171320",
"&  c #15162D",
"*  c #1B1328",
"=  c #1F1F20",
"-  c #161834",
";  c #1F201F",
":  c #260C01",
">  c #231800",
",  c #201F1F",
"<  c #2E1A12",
"1  c #2B1F1D",
"2  c #320F01",
"3  c #380E00",
"4  c #361104",
"5  c #391001",
"6  c #3D1A03",
"7  c #351F17",
"8  c #201523",
"9  c #281A2C",
"0  c #261C3C",
"q  c #262B18",
"w  c #2D201C",
"e  c #3B261F",
"r  c #232323",
"t  c #23242B",
"y  c #272827",
"u  c #272828",
"i  c #2A2625",
"p  c #2B2825",
"a  c #2B2A2A",
"s  c #342A23",
"d  c #322E2C",
"f  c #3A2620",
"g  c #3C2E25",
"h  c #3D2F2A",
"j  c #302F30",
"k  c #3B322C",
"l  c #333333",
"z  c #373838",
"x  c #393633",
"c  c #3F3933",
"v  c #3B3B3B",
"b  c #181840",
"n  c #0F116D",
"m  c #111270",
"M  c #2C1F42",
"N  c #303043",
"B  c #292161",
"V  c #064E04",
"C  c #2C5400",
"Z  c #395400",
"A  c #3C5E0B",
"S  c #24681A",
"D  c #3F4040",
"F  c #441302",
"G  c #4A1400",
"H  c #4E1B00",
"J  c #501A00",
"K  c #44261B",
"L  c #462A1F",
"P  c #43342B",
"I  c #46382D",
"U  c #493A2E",
"Y  c #423D3C",
"T  c #4F3A32",
"R  c #671422",
"E  c #603B38",
"W  c #403F40",
"Q  c #524438",
"!  c #554B35",
"~  c #59453C",
"^  c #5D4A3A",
"/  c #5E5735",
"(  c #61483F",
")  c #434343",
"_  c #444448",
"`  c #474847",
"'  c #4E4441",
"]  c #4F4B41",
"[  c #4B4A4B",
"{  c #4B4C52",
"}  c #4F5C4B",
"|  c #544F4C",
" . c #5A4B4B",
".. c #55514E",
"X. c #59504D",
"o. c #535353",
"O. c #55555A",
"+. c #565D53",
"@. c #5B5B5B",
"#. c #525261",
"$. c #6E4646",
"%. c #60574C",
"&. c #6A5543",
"*. c #6F5843",
"=. c #655E56",
"-. c #615C5A",
";. c #6D5D5E",
":. c #715A45",
">. c #725D4A",
",. c #7B5C48",
"<. c #686548",
"1. c #60605F",
"2. c #796048",
"3. c #76685A",
"4. c #636363",
"5. c #64646A",
"6. c #6B6464",
"7. c #6C6C6B",
"8. c #636371",
"9. c #657165",
"0. c #706865",
"q. c #736C6A",
"w. c #7C6D6D",
"e. c #736D7A",
"r. c #737373",
"t. c #777877",
"y. c #7B7B7B",
"u. c #0D0D9A",
"i. c #0404BC",
"p. c #20209F",
"a. c #3D3D86",
"s. c #2E2EAE",
"d. c #3636B6",
"f. c #3737B9",
"g. c #3B3BBD",
"h. c #0D0DCC",
"j. c #1717CB",
"k. c #0303F4",
"l. c #0000FE",
"z. c #0909F9",
"x. c #1111FF",
"c. c #2526CD",
"v. c #2525D9",
"b. c #2A2ADE",
"n. c #52529B",
"m. c #757380",
"M. c #7E7F86",
"N. c #6565AE",
"B. c #5454D4",
"V. c #7E7EC7",
"C. c #098706",
"Z. c #14AE00",
"A. c #13B104",
"S. c #12B900",
"D. c #268C00",
"F. c #288C00",
"G. c #229600",
"H. c #219800",
"J. c #239519",
"K. c #19C70F",
"L. c #0AE202",
"P. c #05F201",
"I. c #00FD00",
"U. c #5A8C34",
"Y. c #42B326",
"T. c #56C632",
"R. c #941616",
"E. c #BD0913",
"W. c #A01F22",
"Q. c #A32323",
"!. c #AC2C2C",
"~. c #BD3D3D",
"^. c #873D40",
"/. c #8E4545",
"(. c #9C5151",
"). c #816248",
"_. c #83684E",
"`. c #806A55",
"'. c #896D54",
"]. c #927459",
"[. c #817271",
"{. c #857877",
"}. c #807F7F",
"|. c #987C64",
" X c #A95B59",
".X c #A27D5D",
"XX c #AE6565",
"oX c #BE7676",
"OX c #CE0F0F",
"+X c #D31F1F",
"@X c #D81212",
"#X c #F40405",
"$X c #FE0000",
"%X c #FA0B0B",
"&X c #EA3636",
"*X c #CA4A4B",
"=X c #FE7878",
"-X c #80807F",
";X c #BB926D",
":X c #838383",
">X c #868788",
",X c #8A8383",
"<X c #8B8B8B",
"1X c #848594",
"2X c #888893",
"3X c #958E8D",
"4X c #939393",
"5X c #979898",
"6X c #989798",
"7X c #989897",
"8X c #9A9A9A",
"9X c #9D9DA3",
"0X c #A09F9F",
"qX c #A2A2A2",
"wX c #AAA2A2",
"eX c #ACACAC",
"rX c #AEAEB3",
"tX c #B1B1B2",
"yX c #B9B7B8",
"uX c #BABABB",
"iX c #AEAEDD",
"pX c #BEBEC3",
"aX c #C8BEBA",
"sX c #E48484",
"dX c #C5C4C4",
"fX c #C6C6C8",
"gX c #C8C2C2",
"hX c #C8C7C8",
"jX c #CDCDCD",
"kX c #D4C9C6",
"lX c #D1D0D2",
"zX c #DDDDDD",
"xX c #DEDEFE",
"cX c #E2DDDF",
"vX c #E4E4E4",
"bX c #E3E3ED",
"nX c #EDEDED",
"mX c #E0E0F2",
"MX c #EFF0F1",
"NX c #F0F0F0",
"BX c gray100",
/* pixels */
":X:X:X>X:X:X:X>X:X>X<X<X4X7X8X0X0X8X5X4X<X<X>X:X>X:X:X:X:X:X:X>X",
"y.:X}.}.}.}.}.}.-X:X:X<X7X0XwXeXeXqXqX5X<X>X:X-X-X-Xy.:X:Xy.}.-X",
"t.t.y.t.t.t.t.y.y.-X<X4XqXtXt.| 0.r.4XqX4X>X-Xy.t.t.t.t.y.t.t.t.",
"r.r.r.r.r.r.r.r.t.-X<X0X7.Y 1 e e w i @.8X<Xy.r.r.r.r.r.r.r.r.r.",
"7.7.7.7.7.7.q.7.r.-X4X7Xk ,.U.P.K.! P 1.qX<Xy.r.7.7.7.7.7.7.7.7.",
"9.5.6.5.5.5.5.7.r.-X7Xy.~ .XT.I.I./ g 1.qX<Xt.7.7.9.5.5.5.6.5.7.",
"4.4.4.1.4.1.1.4.7.-X8X1.( 3.<.Y.S ] g ) qX<Xr.6.4.@.1.1.1.4.1.4.",
"@.@.@.1.1.4.#.3.7.-X7Xq.3.} %.).=.+.k d qX>Xr.5.4.4.4.1.@.@.@.@.",
"o.O.O.@.4.6.+X%X(.y.7Xq.`.|.].2.^ >.~ a 2X<Xn.d.8.5.5.1.@.+.O.O.",
"| $.!./.7.w.$X$X~.:X*X X_.;X'.s U *.B p.9X2Xl.l.g.r.7.8.s.a.....",
"[ @X$X$Xw.>XXX*X3X*X$X$X( *.Q U w % l.l.B.8Xb.z.N.<X-Xf.l.l.` [ ",
"` Q.#X+X7.Q x 4.4XoX%X&XwXv q C.V @ b.z.1XqX7Xm...k ` n.k.j.` ) ",
") )  .4.r...I k k P E 0.<X4XJ.I.I.9.qXe.~ T 7 :.^ c 4.7.#.` ) D ",
"v D ` O.7.-X<X-X4.P 3 F F F A L.A.6 G G 5 7 @.:X>X-Xr.1.[ ) v v ",
"z z v ` O.4.7.y.:X3Xr.' 4 G J G.C 3 2 s 7.<X:Xy.r.1.O.[ D z z z ",
"j l l z Y ` [ O.-.7.:X5X<XL F.I.I.O 1.0X<Xt.4.@.o.` ) z z j j j ",
"a a j a l l z z ) { 7.:X8XL Z L.Z.X y.4Xr.@.` D z l l j a a a a ",
"a u y y y p a a l Q O.t.y.F H H.C o [ >X6.[ z a a p y y a u u a ",
"r r y r r r y r u z o.r.-.G D.I.I.> a :X#.` j r r r r r r r r r ",
"; ; = = = # ; = r z o.t.X.G C P.S.: a y.4.) a r ; ; # r = = q 8 ",
"# # # # # # # # u Y @.{.W.R 9 t 8 $ # r.5.` j = # # # # # # # # ",
"# + # # + # # # u N 1.~.$X$X0 - n k.i.O.r.[ j q # # # + # # # + ",
"+ + + + + + + # a ` 7.^.#XE.& t u.l.l.N t.o.z 8 + + + @ + + @ + ",
". + eXBXBXnXo.NXBXBXBXuXM & yXBXBXiXm tXjX4.[ vXtXtXBXBXBXzXr . ",
". :XMX[ . 4Xo.NX7X4.8XMX1Xa <XzXzX{ - rXdXt.vXvXp eXtX. q zXrX. ",
". nX-X. . . + NX0X7.[ MXM.7.t.jXlXr.t rXfXnXnX) # tXeX. . rXeX. ",
". MXy.y.BXBX:XNXzXhXlXNX7.y.@.pXdX7.O.tXBXBX:X) y tXzXeXeXBXy.. ",
"  nXy.    MX:XNXzXgXaX..{ #.Q uXuXO.r.yXkXvXbX..y eXzXzXBXt..   ",
"  t.nX)   NX:XNXsX#X(.d 4.` a tXyXv 1.dXcXc.xXvXa eXeX+ zXzX+   ",
"    eXBXBXBX:XNX=X$XQ.` { j tXBXBXyX) dXpXl.x.xXtXeXeX  + zXeX  ",
"            . + R.OXE v l # . . . # a D ) p.h.b .               ",
"              . # 8 y r # .       . + q y y # . .               "
};
