/* XPM */ 
static char * graph_editor_xpm[] = {
"32 32 560 2",
"  	c None",
"! 	c #C3BAAB",
"# 	c #C3BAA9",
"$ 	c #C2BBA9",
"% 	c #C1BAAA",
"& 	c #C3BCAC",
"' 	c #C2B9AA",
"( 	c #C6BAAC",
") 	c #C5B9AB",
"* 	c #C5B9A9",
"+ 	c #C4BBAC",
", 	c #C4BBA9",
"- 	c #C4BBAA",
". 	c #F6F3D4",
"0 	c #F3F1CA",
"1 	c #F4F0CB",
"2 	c #F4F2CC",
"3 	c #F3F1CB",
"4 	c #F5F1CC",
"5 	c #F4F2CB",
"6 	c #F1F1CB",
"7 	c #F3F0CD",
"8 	c #F5F1CB",
"9 	c #F4F0CD",
": 	c #C3BAA8",
"; 	c #F2F1D2",
"< 	c #F5F3CD",
"= 	c #F2F0CA",
"> 	c #F4F1CE",
"? 	c #CECAAD",
"@ 	c #F5F2D3",
"A 	c #F5F1CE",
"B 	c #F2F2CC",
"C 	c #F0F2CB",
"D 	c #F3F0D1",
"E 	c #CCCCAA",
"F 	c #F2F2D0",
"G 	c #6E6E6E",
"H 	c #FBFBFB",
"I 	c #FBFBFD",
"J 	c #DADBDD",
"K 	c #E2E3E5",
"L 	c #F0F4F3",
"M 	c #F4FAFA",
"N 	c #EDF3F3",
"O 	c #D2D2D2",
"P 	c #F2F2F4",
"Q 	c #F4F3F8",
"R 	c #DBDBDD",
"S 	c #F3F3F3",
"T 	c #F3F3F5",
"U 	c #E8ECED",
"V 	c #C5C9CA",
"W 	c #F8FCFD",
"X 	c #F5FBFB",
"Y 	c #DCE2E2",
"Z 	c #F3FCFB",
"[ 	c #F6FAFD",
"] 	c #F0F2CA",
"^ 	c #CBCCAD",
"_ 	c #C3BCAA",
"` 	c #F5F2D1",
"a 	c #C9CAC5",
"b 	c #FDFFFC",
"c 	c #FEFFFF",
"d 	c #EBEBEB",
"e 	c #FFFFFD",
"f 	c #FEFEFE",
"g 	c #E3E3E1",
"h 	c white",
"i 	c #E3E3E3",
"j 	c #FBFBF9",
"k 	c #FDFFFE",
"l 	c #EBEDEC",
"m 	c #FAFCFB",
"n 	c #D2CFAE",
"o 	c #EAE5C5",
"p 	c #CECBAC",
"q 	c #858482",
"r 	c #FCFCFC",
"s 	c #F2F2F2",
"t 	c #F4F4F4",
"u 	c #EBEBED",
"v 	c #D3D3D3",
"w 	c #D2D2D4",
"x 	c #F3F3F1",
"y 	c #C2C2C2",
"z 	c #DADADA",
"{ 	c #8D8C77",
"| 	c #D0CFB0",
"} 	c #CECBAA",
"~ 	c #C6B8AB",
" !	c #F4F1D0",
"!!	c #D4D4D4",
"#!	c #FFFEFF",
"$!	c #EAEAE8",
"%!	c #F4F2F3",
"&!	c #FEFFFD",
"'!	c #FEFBFF",
"(!	c #FFFBFF",
")!	c #F2E4F3",
"*!	c #FFFDFE",
"+!	c #E4E2E3",
",!	c #FCFCFE",
"-!	c #D2D1D6",
".!	c #EDEBEC",
"0!	c #FAFCF9",
"1!	c #6B6A58",
"2!	c #C5C4A5",
"3!	c #CCCBAD",
"4!	c #C6B9A9",
"5!	c #787471",
"6!	c #F2F4F1",
"7!	c #DCDCDC",
"8!	c #FCEBFB",
"9!	c #89FE89",
":!	c #98FF96",
";!	c #65EB68",
"<!	c #E4FCE2",
"=!	c #F9EBFC",
">!	c #E9F3EB",
"?!	c #D4D3D1",
"@!	c #EBE9EE",
"A!	c #F2F4F3",
"B!	c #EEEAEB",
"C!	c #B9BABC",
"D!	c #F3F5F4",
"E!	c #F1F3F2",
"F!	c #DCDADB",
"G!	c #ECEAEB",
"H!	c #F4F4F2",
"I!	c #F2F2F0",
"J!	c #696B5D",
"K!	c #C4C5A6",
"L!	c #C5B9AD",
"M!	c #D3D5D0",
"N!	c #F1ECF2",
"O!	c #EBFBEE",
"P!	c #5EFF63",
"Q!	c #81FF81",
"R!	c #F4FBF3",
"S!	c #99FF99",
"T!	c #4FFF54",
"U!	c #F2FFF3",
"V!	c #E2E4E3",
"W!	c #FEFAFB",
"X!	c #FEFEFF",
"Y!	c #FCFBFF",
"Z!	c #FFFEFC",
"[!	c #6E685A",
"]!	c #C5C4A6",
"^!	c #201FA1",
"_!	c #B2B1FF",
"`!	c #FAEAEA",
"a!	c #B1DBB3",
"b!	c #2FFF2D",
"c!	c #C1FBC0",
"d!	c #F1DBF2",
"e!	c #D4C4D1",
"f!	c #D4F1D3",
"g!	c #2BFF2C",
"h!	c #E5EAED",
"i!	c #C1D2DC",
"j!	c #E3D3D3",
"k!	c #EBBBB1",
"l!	c #E9CBC9",
"m!	c #CFECEA",
"n!	c #B5B9BC",
"o!	c #E2E2E4",
"p!	c #C9CBCA",
"q!	c #D9DBDA",
"r!	c #E3E5E4",
"s!	c #E1E3E2",
"t!	c #6D6A5B",
"u!	c #C3C4A4",
"v!	c #CCCCA8",
"w!	c #C1BAA8",
"x!	c #F5F2CF",
"y!	c #BAB9B5",
"z!	c #7F67FD",
"{!	c #81BAFF",
"|!	c #4CFF3D",
"}!	c #EBF2EB",
"~!	c #FCFAFB",
" #	c #C2FFD5",
"!#	c #7BFE3E",
"##	c #FE506B",
"$#	c #FE160A",
"%#	c #FF7070",
"&#	c #FF444A",
"'#	c #FD4746",
"(#	c #DCA2A1",
")#	c #FAFAF8",
"*#	c #FFFAFE",
"+#	c #F4FFF1",
",#	c #686B5A",
"-#	c #C7C3A6",
".#	c #897485",
"0#	c #C8FFB2",
"1#	c #00D26E",
"2#	c #6060FF",
"3#	c #EDE3DA",
"4#	c #EAEAE2",
"5#	c #C2D2D2",
"6#	c #EBE2E3",
"7#	c #FD6075",
"8#	c #C87100",
"9#	c #89C251",
":#	c #EBE4F6",
";#	c #E2FCFD",
"<#	c #DDFBFB",
"=#	c #EACBC9",
">#	c #EA2E2C",
"?#	c #FF5E61",
"@#	c #E3ECEB",
"A#	c #E4E9ED",
"B#	c #D1D2CA",
"C#	c #E3D9E1",
"D#	c #E5EAE3",
"E#	c #58FF59",
"F#	c #6C6A5D",
"G#	c #C6C5A6",
"H#	c #D0CBAD",
"I#	c #6FD46C",
"J#	c #78FF78",
"K#	c #B1A9FE",
"L#	c #6766FF",
"M#	c #FBFFFF",
"N#	c #FEA8A9",
"O#	c #FF5659",
"P#	c #FFDBDB",
"Q#	c #57FF61",
"R#	c #EBFEEA",
"S#	c #FCFDFF",
"T#	c #C9E6E1",
"U#	c #FFC1C2",
"V#	c #FD7170",
"W#	c #FFFAFA",
"X#	c #E9FBFB",
"Y#	c #70FF6F",
"Z#	c #E4FFC5",
"[#	c #696A5A",
"]#	c #C6C3A4",
"^#	c #C2BBA8",
"_#	c #1E201B",
"`#	c #CAB0CB",
"a#	c #9B9199",
"b#	c #898677",
"c#	c #4748A2",
"d#	c #0004EB",
"e#	c #92A99F",
"f#	c #C3261D",
"g#	c #BC0000",
"h#	c #999999",
"i#	c #91A1A1",
"j#	c #A092A1",
"k#	c #3E923C",
"l#	c #00DB00",
"m#	c #A788AA",
"n#	c #929091",
"o#	c #8A8987",
"p#	c #5E605F",
"q#	c #90AAAB",
"r#	c #A17779",
"s#	c #E30504",
"t#	c #985978",
"u#	c #05E218",
"v#	c #58CA37",
"w#	c #563DCC",
"x#	c #6C6A5B",
"y#	c #CAC9AD",
"z#	c #F3F3D1",
"{#	c #BBABB6",
"|#	c #CACAC8",
"}#	c #E3EBDC",
"~#	c #B0A2FA",
" $	c #9A0191",
"!$	c #FF9194",
"#$	c #C1DBD2",
"$$	c #E3E5E2",
"%$	c #D9BADA",
"&$	c #66FF67",
"'$	c #80FF7C",
"($	c #FADBFA",
")$	c #B0B2AF",
"*$	c #EAEAEA",
"+$	c #DDEBEE",
",$	c #FFCAE4",
"-$	c #AA8800",
".$	c #88CB3D",
"0$	c #4F4FFF",
"1$	c #7977FE",
"2$	c #6B695C",
"3$	c #CAC6A9",
"4$	c #C2BBAB",
"5$	c #3E3F3A",
"6$	c #D3DBDD",
"7$	c #B9D1D3",
"8$	c #E38788",
"9$	c #FF3528",
":$	c #C388C2",
";$	c #273EFF",
"<$	c #A9A9C1",
"=$	c #E4E2D3",
">$	c #D3D1DC",
"?$	c #BABBBD",
"@$	c #DDD1DB",
"A$	c #50FE4F",
"B$	c #B1EAB3",
"C$	c #E5C9E2",
"D$	c #A9A9AB",
"E$	c #E3DCE4",
"F$	c #FADBE1",
"G$	c #6EFF6F",
"H$	c #028887",
"I$	c #810098",
"J$	c #EB2E68",
"K$	c #E9ECD1",
"L$	c #6A6B59",
"M$	c #C5C5A3",
"N$	c #C6BAAA",
"O$	c #B9C5C5",
"P$	c #FFE3E0",
"Q$	c #FF3E3F",
"R$	c #FF8081",
"S$	c #FFFFFA",
"T$	c #E3E3FB",
"U$	c #4646FE",
"V$	c #C3C1FF",
"W$	c #FEFEF2",
"X$	c #FFFFFB",
"Y$	c #DBDBD9",
"Z$	c #F9F4FB",
"[$	c #F3FFF5",
"]$	c #71FF6D",
"^$	c #B8FFAF",
"_$	c #D1DCB2",
"`$	c #E1FEE0",
"a$	c #06DB87",
"b$	c #036FF6",
"c$	c #A292FF",
"d$	c #F3FFFF",
"e$	c #FFD1C1",
"f$	c #FF4F59",
"g$	c #6C695A",
"h$	c #C3C2A4",
"i$	c #C4B8AA",
"j$	c #311F1B",
"k$	c #FE0002",
"l$	c #FE5E5E",
"m$	c #D48986",
"n$	c #D2D2D0",
"o$	c #D1D3D0",
"p$	c #D2D3CB",
"q$	c #AFB2B7",
"r$	c #5F5FFF",
"s$	c #1C1EFD",
"t$	c #B0B2E5",
"u$	c #A1A1BB",
"v$	c #C4C1D2",
"w$	c #CABBE4",
"x$	c #A7C1D0",
"y$	c #3FCA6D",
"z$	c #001326",
"{$	c #0059B1",
"|$	c #4F92C9",
"}$	c #D3C2EC",
"~$	c #CACAB0",
" %	c #C7CBCA",
"!%	c #D0E4E2",
"#%	c #D3D2D0",
"$%	c #C5C4A8",
"%%	c #C2C3A4",
"&%	c #DB7C78",
"'%	c #FFE4E1",
"(%	c #F2FFFF",
")%	c #E2EBEA",
"*%	c #FCFAFF",
"+%	c #E2E3DB",
",%	c #FFFEF1",
"-%	c #CACAFF",
".%	c #A9AAFC",
"0%	c #0001FE",
"1%	c #0201FF",
"2%	c #1C1EFF",
"3%	c #9A90FF",
"4%	c #B099FF",
"5%	c #8879FA",
"6%	c #FFFEF9",
"7%	c #FAFBFD",
"8%	c #F6F2F3",
"9%	c #FAFCF7",
":%	c #F9FBFA",
";%	c #6A6B5B",
"<%	c #C2B9A7",
"=%	c #C2B9A8",
">%	c #232524",
"?%	c #DAE3E2",
"@%	c #D1D3D2",
"A%	c #DDD9DA",
"B%	c #ECECEE",
"C%	c #CAC8C9",
"D%	c #F4F3EE",
"E%	c #FAFAE0",
"F%	c #E4E4CC",
"G%	c #F2F3E3",
"H%	c #FCFBE7",
"I%	c #FBFBE1",
"J%	c #F1F3DB",
"K%	c #C3C0B9",
"L%	c #EAECE9",
"M%	c #E8EDE9",
"N%	c #D3D1D4",
"O%	c #ECEAED",
"P%	c #EAECEB",
"Q%	c #6C6B57",
"R%	c #C8C7AB",
"S%	c #C1BCA9",
"T%	c #BFC0BB",
"U%	c #F5F4F2",
"V%	c #E4E2E5",
"W%	c #FCFEFD",
"X%	c #E2E2E2",
"Y%	c #FCFAFD",
"Z%	c #6C6958",
"[%	c #C5C6A7",
"]%	c #CBC7AA",
"^%	c #C7B9AC",
"_%	c #262521",
"`%	c #C2C2C0",
"a%	c #BCBABD",
"b%	c #C1C3C2",
"c%	c #B1B1AF",
"d%	c #D1D1CF",
"e%	c #D1D2D4",
"f%	c #D3D1D2",
"g%	c #B4AFB3",
"h%	c #CBC9CC",
"i%	c #D0D2CF",
"j%	c #D1D0D5",
"k%	c #CACACA",
"l%	c #A0A29F",
"m%	c #DCDADD",
"n%	c #BABABA",
"o%	c #C9C9C9",
"p%	c #D1D1D1",
"q%	c #CDCAAB",
"r%	c #C5C5C3",
"s%	c #EBECE7",
"t%	c #F2F2CE",
"u%	c #0F0F0D",
"v%	c #DBDBDB",
"w%	c #E4E3DF",
"x%	c #EBEAE6",
"y%	c #ECEBE7",
"z%	c #E6E5E1",
"{%	c #E5E4E2",
"|%	c #EBEBE1",
"}%	c #E9EBE0",
"~%	c #DCDCDE",
" &	c #EAECE1",
"!&	c #EBE9EC",
"#&	c #ECECEC",
"$&	c #EAEBE6",
"%&	c #EAEBE3",
"&&	c #CFCCAD",
"'&	c #F3F3CF",
"(&	c #A5A5A5",
")&	c #A9A8AD",
"*&	c #9B9CA1",
"+&	c #6B6C71",
",&	c #7A7D82",
"-&	c #94979E",
".&	c #95989F",
"0&	c #767980",
"1&	c #323433",
"2&	c #9C9D9F",
"3&	c #96979C",
"4&	c #999DA0",
"5&	c #43464D",
"6&	c #818189",
"7&	c #97979F",
"8&	c #797A7E",
"9&	c #32352E",
":&	c #9C9E9D",
";&	c #95969B",
"<&	c #353732",
"=&	c #73737B",
">&	c #95969A",
"?&	c #959597",
"@&	c #696A5C",
"A&	c #C4C3A7",
"B&	c #7E7D68",
"C&	c #505143",
"D&	c #4E4E42",
"E&	c #4C4C40",
"F&	c #4D4D41",
"G&	c #4D4D43",
"H&	c #4F4D41",
"I&	c #4E4E44",
"J&	c #4F4C43",
"K&	c #4F4C45",
"L&	c #4C4C42",
"M&	c #4D4D45",
"N&	c #4C4B46",
"O&	c #777664",
"P&	c #CAC9AB",
"Q&	c #CDC9AC",
"R&	c #DADAB8",
"S&	c #ABA990",
"T&	c #8D8C78",
"U&	c #8C8B79",
"V&	c #8C8B77",
"W&	c #8C8B76",
"X&	c #8B8A75",
"Y&	c #8C8C74",
"Z&	c #8D8B76",
"[&	c #8D8A77",
"]&	c #8E8B78",
"^&	c #8D8B74",
"_&	c #8C8978",
"`&	c #8E8C77",
"a&	c #A7A68A",
"b&	c #D9D6B5",
"c&	c #EDE9C4",
"d&	c #E1DCBC",
"e&	c #DAD7B8",
"f&	c #D6D3B2",
"g&	c #D8D5B2",
"h&	c #D5D5B1",
"i&	c #D6D6B4",
"j&	c #D8D6B0",
"k&	c #D5D5B3",
"l&	c #D6D5B6",
"m&	c #D5D4B5",
"n&	c #D7D4B1",
"o&	c #D5D4B6",
"p&	c #D7D7B5",
"q&	c #D6D5B7",
"r&	c #DEDBB8",
"s&	c #EDEAC7",
"t&	c #F3F0CF",
"u&	c #F2EFCC",
"v&	c #CBCAAB",
"w&	c #E9E8C9",
"x&	c #C6C3A2",
"y&	c #C2C1A3",
"z&	c #BCBB9D",
"{&	c #BFBEA0",
"|&	c #C0BFA1",
"}&	c #C2C1A5",
"~&	c #C3C2A6",
" '	c #C2C1A2",
"!'	c #C1C0A2",
"#'	c #BFBEA2",
"$'	c #C0BFA0",
"%'	c #C3C2A3",
"&'	c #C2C0A7",
"''	c #C4C3A5",
"('	c #A6A589",
"! # $ % & $ # ' ( ) * ! + ! + ' ! ! ! + ! ! ! ) ) ) ) # , ) - ! ",
"# . 0 1 2 3 1 4 3 2 2 2 3 0 5 3 2 3 5 6 3 3 3 2 2 2 3 7 2 8 9 # ",
": ; 2 6 6 2 3 3 2 2 6 3 3 < = 2 3 2 3 3 2 3 3 3 3 3 3 8 3 > ? , ",
"* @ 4 3 2 3 A 1 2 3 6 2 3 7 > 2 2 3 3 4 1 2 2 3 3 B 6 C 2 D E # ",
"# F 3 G H I J K L M N O P Q Q R S S T U V W M X Y N Z [ ] 2 ^ _ ",
"# ` 3 a b c d S e f H g h h h i j e e H O h h k l m c h n o p ! ",
"- ` 2 q r T R i s t u v S S S w u S x d y H S S z d S T { | } ~ ",
"#  !3 !!c #!$!%!&!'!(!)!*!c c +!,!k e m -!#!h e .!0!c h 1!2!3!4!",
"# ` 3 5!x 6!7!i 8!9!:!;!<!=!>!?!@!A!S B!C!D!E!D!F!G!H!I!J!K!? L!",
"# ` 3 M!h h N!O!P!Q!R!S!T!U!#!V!W!e h H O X!h h d Y!Z!h [!]!p ! ",
"# ` 3 ^!_!`!a!b!c!d!J e!f!g!h!i!j!k!l!m!n!d o!V!p!q!r!s!t!u!v!w!",
"# x!2 y!z!{!|!}!(!~!%!q!(! #!###$#%#&#'#(#b )#H +!T *#+#,#-#? ( ",
"# x!2 .#0#1#2#3#4#i J 5#6#7#8#9#:#;#<#=#>#?#@#A#B#C#D#E#F#G#H## ",
"# x!3 I#J#c K#L#h c M#N#O#P##!Q#R#e c S#T#U#V#W#X#(!Y#Z#[#]#3!^#",
"# x!3 _#`#a#b#c#d#e#f#g#h#i#j#k#l#m#n#o#p#q#r#s#t#u#v#w#x#2!y#( ",
"# z#3 {#S +!|#}#~# $!$#$i $$i %$&$'$($R )$*$+$,$-$.$0$1$2$2!3$4$",
"# z#3 5$J 6$7$8$9$:$;$<$=$>$>$?$@$A$B$C$D$E$F$G$H$I$J$K$L$-#M$N$",
"# z#2 O$k P$Q$R$I S$T$U$V$W$X$Y$Z$[$]$^$_$`$a$b$c$d$e$f$g$K!h$i$",
"# z#3 j$k$l$m$5#n$o$p$q$r$s$t$u$v$w$x$y$z${$|$}$~$ %!%#%2$$%%%( ",
"# z#3 &%'%(%)%U *%0!%!+%,%-%.%0%1%2%3%4%5%h 6%7%+!8%9%:%;%-#2!<%",
"=%z#3 >%?%S @%A%d B%+!C%d D%E%F%G%H%I%J%K%x L%M%N%V!O%P%Q%2!R%S%",
"# z#3 T%h e P%U%f &!H V%c W%&!X%0!e #!H O #!c h d Y%h #!Z%[%]%^%",
"# F 2 _%`%R a%b%o$N%p!c%d%e%f%g%h%i%j%k%l%m%O d%n%o%n$p%J!2!q%=%",
"* > > r%h h d S h h j X%h X!h X%H h e H O X!e h s%H h h x#-#? # ",
"- t%3 u%v%*$Y$w%x%y%z%{%|%d }%~% &!&G!$!-!#&*$$&i %&d d L$2!&&- ",
"=%'&2 (&)&*&+&,&-&.&0&1&2&3&4&5&6&7&3&8&9&:&;&2&<&=&>&?&@&A&? , ",
"- F > ^ B&C&D&E&F&G&G&H&H&F&G&G&I&J&K&L&G&G&E&I&F&F&M&N&O&P&Q&# ",
"* x!> R&S&T&U&V&W&X&{ V&W&V&W&V&Y&{ X&Z&[&Z&]&^&_&`&[&W&a&b&p # ",
"* x!3 c&d&e&f&g&h&i&i&j&k&l&k&k&l&m&n&k&m&i&k&o&p&m&q&i&r&s&p =%",
"N$ !> B 6 6 2 3 2 7 7 7 5 3 5 2 0 2 t&7 7 u&5 3 7 5 0 3 3 t%v&- ",
"! w&x&y&z&{&|&h$h$y&h$h$}&|&~& '!'y&h$#'$'%'&'#'$'h$h$''''h$('=%",
"4$, ! # # # # # # # # # # # # # # # # # # # # # # # # : ! ) # & "};