/* XPM */ 
static char * gui_picker_xpm[] = {
"32 32 736 2",
"  	c None",
"! 	c #C4BBAC",
"# 	c #C2B9A8",
"$ 	c #C3BAA8",
"% 	c #C3BAA9",
"& 	c #C5B9AD",
"' 	c #C4BAAE",
"( 	c #C4BBAA",
") 	c #C6BAAA",
"* 	c #C1BAA8",
"+ 	c #C5B9A9",
", 	c #C3BBA6",
"- 	c #C6BAAC",
". 	c #C1BBAB",
"0 	c #C5BAA8",
"1 	c #C2BBAB",
"2 	c #C3BAAB",
"3 	c #C3BCAC",
"4 	c #F6F2D5",
"5 	c #F4F1CE",
"6 	c #F3F1CB",
"7 	c #F2F2CC",
"8 	c #F5F1CB",
"9 	c #F3F0CD",
": 	c #F5EFCB",
"; 	c #F3F3CF",
"< 	c #F3F1CA",
"= 	c #F5F1CE",
"> 	c #F4F2CC",
"? 	c #F4F0CB",
"@ 	c #F2F2CE",
"A 	c #F4F2CB",
"B 	c #F4F0CD",
"C 	c #F1F2CA",
"D 	c #F5F1CC",
"E 	c #F1F1CD",
"F 	c #C2BBA9",
"G 	c #F2F0C7",
"H 	c #F1F1CB",
"I 	c #F1F4C9",
"J 	c #F5EFCD",
"K 	c #F6F0CC",
"L 	c #F2F0CA",
"M 	c #F0F2CD",
"N 	c #F0F2CB",
"O 	c #CBCAAB",
"P 	c #F6F1D1",
"Q 	c #3634F7",
"R 	c #3332FA",
"S 	c #3531F8",
"T 	c #3431FA",
"U 	c #3431FC",
"V 	c #3332FC",
"W 	c #3234FB",
"X 	c #3434F8",
"Y 	c #3031FF",
"Z 	c #3734E3",
"[ 	c #725B6D",
"] 	c #94813F",
"^ 	c #716032",
"_ 	c #322E7A",
"` 	c #312EF7",
"a 	c #3532FD",
"b 	c #3732FE",
"c 	c #3831FB",
"d 	c #3632FB",
"e 	c #3633FE",
"f 	c #3633FC",
"g 	c #3836F9",
"h 	c #3937FC",
"i 	c #CFCCAB",
"j 	c #F5F2CF",
"k 	c #3635FB",
"l 	c #3634F9",
"m 	c #3735FA",
"n 	c #3535F9",
"o 	c #3634FA",
"p 	c #3337FB",
"q 	c #3635EB",
"r 	c #7E657A",
"s 	c #DDAF59",
"t 	c #E3CD44",
"u 	c #C7B13A",
"v 	c #7D5E25",
"w 	c #54479F",
"x 	c #3A39F9",
"y 	c #3436FD",
"z 	c #3835FF",
"{ 	c #3836FC",
"| 	c #3A36FD",
"} 	c #3A38FE",
"~ 	c #3837FF",
" !	c #3B37FD",
"!!	c #3D3CFA",
"#!	c #D1D1AF",
"$!	c #E6E6C0",
"%!	c #CECBAC",
"&!	c #C2B9AA",
"'!	c #F5F2D1",
"(!	c #3636F8",
")!	c #3534FC",
"*!	c #3635FD",
"+!	c #3033FC",
",!	c #3231EE",
"-!	c #AE8D64",
".!	c #F8C873",
"0!	c #DEC64A",
"1!	c #B5A140",
"2!	c #A68444",
"3!	c #8C7682",
"4!	c #3436FB",
"5!	c #3838FC",
"6!	c #3A39FF",
"7!	c #3A38FD",
"8!	c #3A3AFE",
"9!	c #3A38F5",
":!	c #8F8F77",
";!	c #D4D1B0",
"<!	c #F4F1D0",
"=!	c #3735F8",
">!	c #3534FA",
"?!	c #3734FD",
"@!	c #3233FF",
"A!	c #3134FF",
"B!	c #463AE6",
"C!	c #3631F0",
"D!	c #977B6D",
"E!	c #F6C36A",
"F!	c #DFC451",
"G!	c #B29841",
"H!	c #C39C4F",
"I!	c #9D7EA7",
"J!	c #3132FE",
"K!	c #3A37F6",
"L!	c #3A37FF",
"M!	c #3D3AFD",
"N!	c #3C3AFF",
"O!	c #3838F2",
"P!	c #716E5D",
"Q!	c #C6C5A6",
"R!	c #F3F0CF",
"S!	c #CCCCAA",
"T!	c #C6B9A9",
"U!	c #3935FB",
"V!	c #453BEA",
"W!	c #3B36F4",
"X!	c #4339E8",
"Y!	c #BD7686",
"Z!	c #5C3ED4",
"[!	c #5F499C",
"]!	c #AF8C4C",
"^!	c #C99E5A",
"_!	c #B5904A",
"`!	c #C6A363",
"a!	c #5952E0",
"b!	c #4A50E2",
"c!	c #6C77C6",
"d!	c #3838FA",
"e!	c #403FF3",
"f!	c #4344EC",
"g!	c #3E3BFC",
"h!	c #3C3CFE",
"i!	c #3E3CFF",
"j!	c #3A38F3",
"k!	c #6E6F5F",
"l!	c #C6C7A7",
"m!	c #CCCBAD",
"n!	c #C3B9AD",
"o!	c #F4F4D0",
"p!	c #3532FB",
"q!	c #3331FF",
"r!	c #342EFF",
"s!	c #AB6B9D",
"t!	c #784EBC",
"u!	c #2C2CFF",
"v!	c #6342CF",
"w!	c #4035E9",
"x!	c #743EAE",
"y!	c #57399D",
"z!	c #ABAB39",
"{!	c #A39951",
"|!	c #514ECF",
"}!	c #464CEA",
"~!	c #3E3FEF",
" #	c #5053DE",
"!#	c #3336FD",
"##	c #5356E3",
"$#	c #737CC7",
"%#	c #393DF4",
"&#	c #3E3DFD",
"'#	c #3F3CFB",
"(#	c #3A3AF4",
")#	c #6E705B",
"*#	c #C8C4A7",
"+#	c #CECBA8",
",#	c #3936FF",
"-#	c #3732EE",
".#	c #3738C6",
"0#	c #7A488D",
"1#	c #904586",
"2#	c #6451BC",
"3#	c #B34359",
"4#	c #825E9C",
"5#	c #A14B72",
"6#	c #C3686D",
"7#	c #E0C56E",
"8#	c #CEA861",
"9#	c #8B759B",
":#	c #5F6FC4",
";#	c #6E61B1",
"<#	c #6268BC",
"=#	c #5955CE",
">#	c #5E61D2",
"?#	c #575CB7",
"@#	c #453DCE",
"A#	c #3C3DF9",
"B#	c #403AFF",
"C#	c #3D38F6",
"D#	c #C7C6AA",
"E#	c #CCCBAC",
"F#	c #F5F2D3",
"G#	c #4135EF",
"H#	c #4337D5",
"I#	c #6B5756",
"J#	c #776348",
"K#	c #895A46",
"L#	c #9C417A",
"M#	c #4F45D9",
"N#	c #5C3ACD",
"O#	c #463CEB",
"P#	c #3D37F3",
"Q#	c #4D3DDB",
"R#	c #C7BF43",
"S#	c #B2A95E",
"T#	c #3B3BF1",
"U#	c #3D43FB",
"V#	c #4D46E4",
"W#	c #4D50DF",
"X#	c #5349DE",
"Y#	c #5F62D5",
"Z#	c #7A7176",
"[#	c #886C3D",
"]#	c #67577E",
"^#	c #3E4BE9",
"_#	c #3B3CEE",
"`#	c #6F705E",
"a#	c #C7C6A8",
"b#	c #453AFA",
"c#	c #4834ED",
"d#	c #4E46D9",
"e#	c #483EED",
"f#	c #4F3DC7",
"g#	c #3C38ED",
"h#	c #2F2FF3",
"i#	c #2B30EE",
"j#	c #312DE6",
"k#	c #2D2AE9",
"l#	c #433CC6",
"m#	c #D7BA5C",
"n#	c #BEA36C",
"o#	c #3837D3",
"p#	c #322DE2",
"q#	c #3231E5",
"r#	c #3A31EC",
"s#	c #3534F4",
"t#	c #4035F3",
"u#	c #5355B9",
"v#	c #514DDF",
"w#	c #5549D9",
"x#	c #4054EB",
"y#	c #4041F3",
"z#	c #706E5F",
"{#	c #F3F3CD",
"|#	c #CFCAAD",
"}#	c #F2F3CB",
"~#	c #2823A4",
" $	c #1C1E8D",
"!$	c #161481",
"#$	c #12116F",
"$$	c #18155C",
"%$	c #171159",
"&$	c #0D0F4A",
"'$	c #0E0844",
"($	c #0E0B42",
")$	c #02033C",
"*$	c #372940",
"+$	c #D5C939",
",$	c #D1C348",
"-$	c #272346",
".$	c #04033C",
"0$	c #0F0B46",
"1$	c #0F0C4F",
"2$	c #1B1458",
"3$	c #191E5E",
"4$	c #12186C",
"5$	c #1C1984",
"6$	c #252295",
"7$	c #28279E",
"8$	c #6E6F5D",
"9$	c #C4C8A7",
":$	c #F2F0C9",
";$	c #C4B8A8",
"<$	c #F5F0D2",
"=$	c #080A30",
">$	c #02062B",
"?$	c #00012D",
"@$	c #30262F",
"A$	c #86785D",
"B$	c #030631",
"C$	c #090738",
"D$	c #0A0C3D",
"E$	c #0D0B3C",
"F$	c #03083F",
"G$	c #4E4341",
"H$	c #E8BA64",
"I$	c #E6C169",
"J$	c #44404E",
"K$	c #070840",
"L$	c #0C0E41",
"M$	c #0B0C42",
"N$	c #0A0945",
"O$	c #221742",
"P$	c #907653",
"Q$	c #222047",
"R$	c #05053B",
"S$	c #0A0A3C",
"T$	c #0B093B",
"U$	c #706F5B",
"V$	c #0F0D3F",
"W$	c #0A0A3E",
"X$	c #00023B",
"Y$	c #564744",
"Z$	c #998C6C",
"[$	c #04063F",
"]$	c #141243",
"^$	c #10133E",
"_$	c #101245",
"`$	c #060B45",
"a$	c #5A4848",
"b$	c #D7CA3E",
"c$	c #D8C447",
"d$	c #534657",
"e$	c #080848",
"f$	c #121349",
"g$	c #14154B",
"h$	c #10114A",
"i$	c #111049",
"j$	c #A98D5E",
"k$	c #443B58",
"l$	c #04044E",
"m$	c #0E0D4F",
"n$	c #0D0D4B",
"o$	c #CAC4AA",
"p$	c #C9CAAA",
"q$	c #C6B8AB",
"r$	c #F2F2D0",
"s$	c #0F0F41",
"t$	c #0A0B41",
"u$	c #00023F",
"v$	c #695850",
"w$	c #767266",
"x$	c #070A41",
"y$	c #12114B",
"z$	c #0C0C4C",
"{$	c #110D48",
"|$	c #0A0A48",
"}$	c #3C3A48",
"~$	c #C8AC41",
" %	c #CDAC4B",
"!%	c #423954",
"#%	c #0B0B4B",
"$%	c #0F0F4F",
"%%	c #10104C",
"&%	c #0F0F4B",
"'%	c #857554",
"(%	c #534B58",
")%	c #03054F",
"*%	c #111052",
"+%	c #0E0E4C",
",%	c #706F5D",
"-%	c #CAC5A7",
".%	c #C8C7A8",
"0%	c #F7F0D3",
"1%	c #10134A",
"2%	c #0C0A4B",
"3%	c #010245",
"4%	c #766659",
"5%	c #554D62",
"6%	c #050949",
"7%	c #13144C",
"8%	c #0E134D",
"9%	c #151551",
":%	c #171650",
";%	c #804152",
"<%	c #7E5247",
"=%	c #736771",
">%	c #424379",
"?%	c #12124E",
"@%	c #14164F",
"A%	c #13154E",
"B%	c #060852",
"C%	c #5C4C57",
"D%	c #675761",
"E%	c #000150",
"F%	c #110E51",
"G%	c #0F0D4E",
"H%	c #6C6F5E",
"I%	c #C5C4A6",
"J%	c #0C0C52",
"K%	c #1E1B46",
"L%	c #7A6B4C",
"M%	c #45415C",
"N%	c #05054F",
"O%	c #110E53",
"P%	c #241A59",
"Q%	c #181657",
"R%	c #1A1A58",
"S%	c #B24C47",
"T%	c #6F414C",
"U%	c #4E5B85",
"V%	c #4D528C",
"W%	c #0F1255",
"X%	c #111A53",
"Y%	c #171255",
"Z%	c #0E0D5B",
"[%	c #040557",
"]%	c #685456",
"^%	c #AD8D5E",
"_%	c #383057",
"`%	c #050953",
"a%	c #C8C7A9",
"b%	c #C5C2A3",
"c%	c #F1F3CC",
"d%	c #F5F0CA",
"e%	c #101058",
"f%	c #22194E",
"g%	c #6B5233",
"h%	c #70542D",
"i%	c #9B7F50",
"j%	c #312950",
"k%	c #0F0C5B",
"l%	c #B36D77",
"m%	c #5D3665",
"n%	c #1F135F",
"o%	c #954E54",
"p%	c #A69E39",
"q%	c #91904F",
"r%	c #4F5593",
"s%	c #181E6A",
"t%	c #717DAD",
"u%	c #262D75",
"v%	c #080753",
"w%	c #5D4F66",
"x%	c #C7A275",
"y%	c #DFB060",
"z%	c #D5A968",
"{%	c #392D5B",
"|%	c #070858",
"}%	c #C5C6A6",
"~%	c #C3C2A6",
" &	c #F4F0CA",
"!&	c #0E125C",
"#&	c #3E353A",
"$&	c #664E2A",
"%&	c #5C4B2F",
"&&	c #957447",
"'&	c #BD8256",
"(&	c #4D3D5A",
")&	c #3D2362",
"*&	c #2A1864",
"+&	c #351F5D",
",&	c #A73D4B",
"-&	c #6F6240",
".&	c #5C6564",
"0&	c #545EA3",
"1&	c #171D6B",
"2&	c #394380",
"3&	c #1F1E6A",
"4&	c #6C5B6D",
"5&	c #A5957B",
"6&	c #C0A26E",
"7&	c #EAB96A",
"8&	c #FEC76C",
"9&	c #AB886C",
":&	c #060958",
";&	c #71705B",
"<&	c #CAC6A9",
"=&	c #C4C3A5",
">&	c #F4F1D2",
"?&	c #15125F",
"@&	c #463933",
"A&	c #574827",
"B&	c #61532E",
"C&	c #979471",
"D&	c #5C4361",
"E&	c #C28161",
"F&	c #6B5A6D",
"G&	c #070C68",
"H&	c #221F64",
"I&	c #4A445C",
"J&	c #050371",
"K&	c #161066",
"L&	c #5B4A5A",
"M&	c #161068",
"N&	c #0C0D60",
"O&	c #605776",
"P&	c #807174",
"Q&	c #3D3566",
"R&	c #9A7A63",
"S&	c #F8C56C",
"T&	c #F8CB78",
"U&	c #CEB07A",
"V&	c #1B1962",
"W&	c #6C6D5B",
"X&	c #C6C7A5",
"Y&	c #C7C6A7",
"Z&	c #17155E",
"[&	c #583C2E",
"]&	c #724B2E",
"^&	c #916A43",
"_&	c #816976",
"`&	c #00046A",
"a&	c #352A6E",
"b&	c #635370",
"c&	c #11126E",
"d&	c #382B63",
"e&	c #413269",
"f&	c #0F1176",
"g&	c #151374",
"h&	c #4E426A",
"i&	c #1D1970",
"j&	c #141371",
"k&	c #27266A",
"l&	c #16136C",
"m&	c #02036D",
"n&	c #5F516B",
"o&	c #D4BD8B",
"p&	c #D8C992",
"q&	c #D3C892",
"r&	c #302C67",
"s&	c #6F725D",
"t&	c #C7C5AC",
"u&	c #CACAA8",
"v&	c #C5B9AB",
"w&	c #C2BBA8",
"x&	c #141663",
"y&	c #48302E",
"z&	c #664B30",
"{&	c #947147",
"|&	c #675B6F",
"}&	c #0D0B6C",
"~&	c #111171",
" '	c #0C0C6E",
"!'	c #0E1377",
"#'	c #A24250",
"$'	c #702B58",
"%'	c #1E1F7B",
"&'	c #6372B5",
"''	c #31398C",
"('	c #0F126F",
")'	c #141277",
"*'	c #161475",
"+'	c #0F0F71",
",'	c #55466D",
"-'	c #CFB578",
".'	c #DCCF81",
"0'	c #E2DA91",
"1'	c #322D6D",
"2'	c #12146B",
"3'	c #3E253B",
"4'	c #6F4B31",
"5'	c #A0744D",
"6'	c #675B73",
"7'	c #0C0E73",
"8'	c #1A1677",
"9'	c #111475",
":'	c #33276F",
";'	c #CE985C",
"<'	c #795778",
"='	c #03017C",
">'	c #0D0E78",
"?'	c #6B5E68",
"@'	c #997A66",
"A'	c #1E1B76",
"B'	c #17147B",
"C'	c #181677",
"D'	c #0E117A",
"E'	c #5D4D71",
"F'	c #C5B78A",
"G'	c #D2CD8B",
"H'	c #BDC095",
"I'	c #201D6C",
"J'	c #6E6F61",
"K'	c #C3BCAA",
"L'	c #15156F",
"M'	c #1C1467",
"N'	c #6F4340",
"O'	c #98724D",
"P'	c #654A6D",
"Q'	c #171875",
"R'	c #AF6B76",
"S'	c #A27570",
"T'	c #607588",
"U'	c #637889",
"V'	c #687E8B",
"W'	c #515B65",
"X'	c #837A8D",
"Y'	c #5F669D",
"Z'	c #110E75",
"['	c #1A157B",
"]'	c #120F78",
"^'	c #5D5385",
"_'	c #B6A780",
"`'	c #BFBB8E",
"a'	c #716E89",
"b'	c #0B096E",
"c'	c #F6F3D2",
"d'	c #643257",
"e'	c #622954",
"f'	c #09136C",
"g'	c #211E65",
"h'	c #191574",
"i'	c #191478",
"j'	c #151877",
"k'	c #4F2E73",
"l'	c #2E1F70",
"m'	c #667E88",
"n'	c #768C80",
"o'	c #7C9484",
"p'	c #4D6081",
"q'	c #2B2B8D",
"r'	c #2F3281",
"s'	c #19197B",
"t'	c #171576",
"u'	c #24247A",
"v'	c #39367B",
"w'	c #40427F",
"x'	c #171777",
"y'	c #131470",
"z'	c #706E61",
"{'	c #CAC5A5",
"|'	c #C9CDAA",
"}'	c #592F5F",
"~'	c #512256",
" (	c #11176D",
"!(	c #15156D",
"#(	c #1B186F",
"$(	c #1C1773",
"%(	c #191971",
"&(	c #151471",
"'(	c #191671",
"((	c #150F6F",
")(	c #161178",
"*(	c #130E72",
"+(	c #181473",
",(	c #181377",
"-(	c #191373",
".(	c #1D1A71",
"0(	c #1D1874",
"1(	c #15176E",
"2(	c #130F6E",
"3(	c #1C1972",
"4(	c #1B176B",
"5(	c #C9C6A7",
"6(	c #CECAAD",
"7(	c #C1BAAA",
"8(	c #C5C5A3",
"9(	c #6E6D5B",
":(	c #413F33",
";(	c #3F3E39",
"<(	c #3E3E36",
"=(	c #404036",
">(	c #423F38",
"?(	c #404034",
"@(	c #3F3F35",
"A(	c #404038",
"B(	c #3E4032",
"C(	c #403E32",
"D(	c #3F3F33",
"E(	c #3F4134",
"F(	c #413E37",
"G(	c #3E4035",
"H(	c #3F4239",
"I(	c #70715F",
"J(	c #C7C8A9",
"K(	c #CFCAAC",
"L(	c #D4D0B3",
"M(	c #929079",
"N(	c #6F6E5A",
"O(	c #6D6F61",
"P(	c #716F60",
"Q(	c #6D6E5E",
"R(	c #716E5B",
"S(	c #6D705D",
"T(	c #6F6E5C",
"U(	c #726F60",
"V(	c #716E5F",
"W(	c #72715D",
"X(	c #94917E",
"Y(	c #D2D1B2",
"Z(	c #C2BAAD",
"[(	c #F1F3CB",
"](	c #EAE8C2",
"^(	c #D3D0B1",
"_(	c #CAC5A8",
"`(	c #C8C8A6",
"a(	c #C9C5A8",
"b(	c #C6C6AA",
"c(	c #C7C8A8",
"d(	c #D6D4AE",
"e(	c #EBE9C3",
"f(	c #CECBAA",
"g(	c #E8EAC3",
"h(	c #C4C3A4",
"i(	c #C2C1A3",
"j(	c #BCBCA0",
"k(	c #BEBEA2",
"l(	c #C0BFA0",
"m(	c #C2C3A4",
"n(	c #C3C2A4",
"o(	c #C2C1A2",
"p(	c #C2C3A3",
"q(	c #C3BDA3",
"r(	c #C5C1A6",
"s(	c #C3C2A3",
"t(	c #C1BDA2",
"u(	c #C0BFA3",
"v(	c #C2C3A1",
"w(	c #BFBEA0",
"x(	c #C1C0A2",
"y(	c #C2C1A5",
"z(	c #C5C1A4",
"{(	c #C3C4A5",
"|(	c #C3C3A7",
"}(	c #A5A488",
"~(	c #C3BBAE",
"! # $ % ! & ' ! ! % ( ) * ) ( + , - . 0 + 1 2 + % + 2 - % ( 3 + ",
". 4 5 6 7 8 9 8 6 5 : ; < 6 < = > ? ? @ A ? B ? > C D 6 ? 6 E F ",
"% @ G > 6 H 6 I J 9 K L A 5 M E N : D 9 6 7 H 6 E 9 ? @ 6 D O 2 ",
". P = Q R S T U V W X Y Z [ ] ^ _ ` V a b c d e f g h > 5 6 i % ",
"$ j ? g f k l m n o p q r s t u v w x y z { | } ~  !!!#!$!D %!2 ",
"&!'!5 (!)!n *!k m m +!,!-!.!0!1!2!3!4!~ 5!6!7!7!~ 8!9!:!;!6 %!% ",
"( <!> =!>!m ?!@!A!o B!C!D!E!F!G!H!I!J!K!7!} L!M!N!N!O!P!Q!R!S!+ ",
"T!5 7 U!f )!o V!W!X!Y!Z![!]!^!_!`!a!b!c!d!e!f!g!h!i!j!k!l!R!m!% ",
"n!o!H =!p!q!r!s!t!u!v!w!x!y!z!{!|!}!~! #!###$#%#&#'#(#)#*#D +#% ",
"% j B ,#f -#.#0#1#2#3#4#5#6#7#8#9#:#;#<#=#>#?#@#A#B#C#)#D#6 E#$ ",
"% F#6 G#H#I#J#K#L#M#N#O#P#Q#R#S#T#U#V#W#X#Y#Z#[#]#^#_#`#a#H m!n!",
"1 <!K b#c#d#e#f#g#h#i#j#k#l#m#n#o#p#q#r#s#t#u#v#w#x#y#z#a#{#|#+ ",
"! P }#~# $!$#$$$%$&$'$($)$*$+$,$-$.$($0$1$2$3$4$5$6$7$8$9$:$E#2 ",
";$<$H =$>$?$@$A$B$C$D$E$F$G$H$I$J$K$L$M$N$O$P$Q$R$S$T$U$a#D O &!",
"3 > H V$W$X$Y$Z$[$]$^$_$`$a$b$c$d$e$f$g$h$i$j$k$l$m$n$k!o$6 p$) ",
"q$r$A s$t$u$v$w$x$y$z${$|$}$~$ %!%#%$%1$%%&%'%(%)%*%+%,%-%6 .%% ",
"2 0%R!1%2%3%4%5%6%7%8%9%:%;%<%=%>%?%@%A%@%B%C%D%E%F%G%H%D#9 I%n!",
"% j 5 ?%J%K%L%M%N%O%P%Q%R%S%T%U%V%W%X%Y%Z%[%]%^%_%`%F%,%a%C b%( ",
"- c%d%e%f%g%h%i%j%k%l%m%n%o%p%q%r%s%t%u%v%w%x%y%z%{%|%z#}%8 ~%+ ",
"F '! &!&#&$&%&&&'&(&)&*&+&,&-&.&0&1&2&3&4&5&6&7&8&9&:&;&<&6 =&) ",
"( >&6 ?&@&A&B&C&D&E&F&G&H&I&J&K&L&M&N&O&P&Q&R&S&T&U&V&W&X&= Y&0 ",
"# '!> Z&[&]&^&_&`&a&b&c&d&e&f&g&h&i&j&k&l&m&n&o&p&q&r&s&t&9 u&v&",
"w&; B x&y&z&{&|&}&~& '!'#'$'!'%'&'''(')'*'+','-'.'0'1'z#a# &O 2 ",
"! <${#2'3'4'5'6'7'8'9':';'<'='>'?'@'A'B'C'D'E'F'G'H'I'J'a#B %!F ",
"K'<!< L'M'N'O'P'D'*'Q'R'S'T'U'V'W'X'Y'Z'[']'^'_'`'a'b'8$D#6 E#v&",
"# c'E d'e'f'g'i&h'i'j'k'l'm'n'o'p'q'r'Q's't'u'v'w'x'y'z'{'< |'( ",
"& <!8 }'~' (!(#($(%($(&('((()(*(+(,(-(.(i&0(1(L'2(3(4(z#5(9 6(7(",
") 5 5 8(9(:(;(<(=(>(?(@(A(B(;(A(C(D(@(E(F(F(G(@(A(D(H(I(J(5 K(- ",
"&!j 9 L(M(8$z#,%N(O(z#k!P(Q(P(R(S(Q(k!Q(T(U(V(z#z'z#W(X(Y(> %!1 ",
"Z(<![(](^(J(_(o$`(5(a(b(l!a%5(_(c(a#.%Y&a%D#5(a%a#.%Y&d(e(9 f(% ",
") g(h(i(j(k(l(m(n(m(o(b%p(q(n(n(l(r(s(t(u(v(n(w(x(y(z(=&{(|(}(0 ",
"~(% ( % 2 % % % % % % % % % % % % % % % % % % % % % % % % % % 3 "};