/* XPM */
static char * HipsSmall_xpm[] = {
"63 31 804 2",
"  	c None",
". 	c #C7C7C7",
"+ 	c #C7C7C8",
"@ 	c #C8C6CA",
"# 	c #C7C6CD",
"$ 	c #C7C6CC",
"% 	c #C7C6CA",
"& 	c #C8C8C4",
"* 	c #CAC9B9",
"= 	c #D8E37B",
"- 	c #211D11",
"; 	c #262630",
"> 	c #2E2E3B",
", 	c #363642",
"' 	c #3A3A48",
") 	c #3B3A4A",
"! 	c #3E3C4E",
"~ 	c #3D3C4E",
"{ 	c #3E3D50",
"] 	c #3E3F50",
"^ 	c #3F4050",
"/ 	c #404052",
"( 	c #414154",
"_ 	c #424255",
": 	c #424257",
"< 	c #434358",
"[ 	c #444458",
"} 	c #434357",
"| 	c #424356",
"1 	c #414153",
"2 	c #404051",
"3 	c #3D3E4E",
"4 	c #3C3D4E",
"5 	c #3C3E4D",
"6 	c #3C3D4C",
"7 	c #3A3B4A",
"8 	c #383946",
"9 	c #343442",
"0 	c #2B2D38",
"a 	c #232523",
"b 	c #74745F",
"c 	c #E0E689",
"d 	c #CAC4B9",
"e 	c #C8C7C6",
"f 	c #C5C9C2",
"g 	c #C6C7CB",
"h 	c #C8C7C1",
"i 	c #C7C7C6",
"j 	c #C8C8C0",
"k 	c #C7C8C4",
"l 	c #C7C8C2",
"m 	c #CAC8BB",
"n 	c #D9E286",
"o 	c #201A1C",
"p 	c #222632",
"q 	c #2A303B",
"r 	c #313743",
"s 	c #363B48",
"t 	c #373C4C",
"u 	c #3A3F4F",
"v 	c #393E50",
"w 	c #3A3F50",
"x 	c #394050",
"y 	c #3A4152",
"z 	c #3B4253",
"A 	c #3C4354",
"B 	c #3D4456",
"C 	c #3D4457",
"D 	c #3E4558",
"E 	c #3F4658",
"F 	c #3D4455",
"G 	c #3A4252",
"H 	c #3A4151",
"I 	c #38404E",
"J 	c #38404C",
"K 	c #363E4A",
"L 	c #333B47",
"M 	c #2E3642",
"N 	c #272F3A",
"O 	c #22252A",
"P 	c #191A0D",
"Q 	c #D6E07C",
"R 	c #CCCAB2",
"S 	c #C7C9BE",
"T 	c #C5CAC0",
"U 	c #C6C6D1",
"V 	c #C8C6CC",
"W 	c #C8C7C2",
"X 	c #C7C6C9",
"Y 	c #C6C8BE",
"Z 	c #CAC8B6",
"` 	c #DBE584",
" .	c #201919",
"..	c #252432",
"+.	c #2E2D3B",
"@.	c #353443",
"#.	c #3A3949",
"$.	c #3B3A4C",
"%.	c #3E3C50",
"&.	c #3D3C50",
"*.	c #3E3D52",
"=.	c #3C3E51",
"-.	c #3D3F52",
";.	c #3E4054",
">.	c #3F4154",
",.	c #404156",
"'.	c #404257",
").	c #414258",
"!.	c #424358",
"~.	c #414358",
"{.	c #414257",
"].	c #404256",
"^.	c #404255",
"/.	c #3E4052",
"(.	c #3C3E50",
"_.	c #3C3D4F",
":.	c #393A4A",
"<.	c #373848",
"[.	c #323442",
"}.	c #2A2C3A",
"|.	c #21232E",
"1.	c #1E1E16",
"2.	c #D7E085",
"3.	c #CCC9BA",
"4.	c #C5CABF",
"5.	c #C8C7C3",
"6.	c #C9C5CC",
"7.	c #C7C6CB",
"8.	c #C5C7CA",
"9.	c #C6C8C8",
"0.	c #C7C8BE",
"a.	c #CBC8B4",
"b.	c #DBE385",
"c.	c #221D14",
"d.	c #262530",
"e.	c #2D2D3A",
"f.	c #343341",
"g.	c #393848",
"h.	c #3C3B4C",
"i.	c #3E3D4F",
"j.	c #3E3C51",
"k.	c #3C3D50",
"l.	c #3D3E51",
"m.	c #3E3F53",
"n.	c #404155",
"o.	c #414256",
"p.	c #404054",
"q.	c #3F4054",
"r.	c #3E3F52",
"s.	c #3D3D4F",
"t.	c #3D3E4D",
"u.	c #383848",
"v.	c #323340",
"w.	c #2B2C3A",
"x.	c #252635",
"y.	c #191716",
"z.	c #DCE48A",
"A.	c #C8C5BB",
"B.	c #C5C8C7",
"C.	c #C6C8C9",
"D.	c #C8C6C6",
"E.	c #C8C6C8",
"F.	c #CAC5CB",
"G.	c #C4C9C7",
"H.	c #C5C8C8",
"I.	c #CCC8BA",
"J.	c #ACB26C",
"K.	c #221F16",
"L.	c #262732",
"M.	c #2C2E3B",
"N.	c #323441",
"O.	c #373948",
"P.	c #3A3C4C",
"Q.	c #3C3D51",
"R.	c #6C6C7C",
"S.	c #6A6B7A",
"T.	c #3D3E52",
"U.	c #9D9EA8",
"V.	c #9E9EA8",
"W.	c #3B3C4E",
"X.	c #3A3C4B",
"Y.	c #313340",
"Z.	c #2B2D3A",
"`.	c #262730",
" +	c #1E1C1A",
".+	c #D9E27F",
"++	c #CAC7B9",
"@+	c #C7C6C8",
"#+	c #C5C8CB",
"$+	c #C6C8C4",
"%+	c #C8C6C7",
"&+	c #CAC6C8",
"*+	c #C4C8CA",
"=+	c #C9C7C5",
"-+	c #CDC8BD",
";+	c #7C8545",
">+	c #242218",
",+	c #282934",
"'+	c #2D2F3C",
")+	c #333542",
"!+	c #383A48",
"~+	c #3C3C4E",
"{+	c #3C3C50",
"]+	c #9C9DA7",
"^+	c #9899A3",
"/+	c #FAFAFB",
"(+	c #9C9DA6",
"_+	c #3F4053",
":+	c #3E3E52",
"<+	c #262831",
"[+	c #1F1D1C",
"}+	c #D8E17E",
"|+	c #CCCABC",
"1+	c #CAC6C3",
"2+	c #C4C7CC",
"3+	c #C6C7CA",
"4+	c #CEC8BC",
"5+	c #818A48",
"6+	c #24231C",
"7+	c #292A36",
"8+	c #2E303E",
"9+	c #383A49",
"0+	c #3A3C4A",
"a+	c #3B3C50",
"b+	c #9898A2",
"c+	c #3D3E50",
"d+	c #9C9CA6",
"e+	c #3E3E50",
"f+	c #555666",
"g+	c #9899A2",
"h+	c #686976",
"i+	c #7A7B87",
"j+	c #9B9BA4",
"k+	c #8E8E99",
"l+	c #3F4052",
"m+	c #3B3D4C",
"n+	c #2E303C",
"o+	c #282933",
"p+	c #211F1E",
"q+	c #ACB666",
"r+	c #CCC8BB",
"s+	c #C6C6CE",
"t+	c #C4C7CD",
"u+	c #CDC8CA",
"v+	c #CBC6AF",
"w+	c #868F48",
"x+	c #24221F",
"y+	c #2A2C38",
"z+	c #2F313E",
"A+	c #343642",
"B+	c #383A4A",
"C+	c #C4C4CA",
"D+	c #8D8E98",
"E+	c #8E8E98",
"F+	c #8E8F99",
"G+	c #90919B",
"H+	c #EDEDEE",
"I+	c #595A6A",
"J+	c #848490",
"K+	c #CACACF",
"L+	c #6E6F7C",
"M+	c #80808C",
"N+	c #404153",
"O+	c #3C3E4C",
"P+	c #2E303D",
"Q+	c #292A34",
"R+	c #242220",
"S+	c #828B48",
"T+	c #C9C6B9",
"U+	c #C6C6CC",
"V+	c #C5C7CC",
"W+	c #C8C7C4",
"X+	c #CAC3C5",
"Y+	c #D1CFA3",
"Z+	c #868C51",
"`+	c #232222",
" @	c #2B2C38",
".@	c #343643",
"+@	c #393B4A",
"@@	c #CCCCD0",
"#@	c #9C9EA5",
"$@	c #9D9EA6",
"%@	c #4D4F5E",
"&@	c #3B3C4D",
"*@	c #A9AAB1",
"=@	c #92939C",
"-@	c #7C7D88",
";@	c #DDDDE0",
">@	c #767783",
",@	c #404152",
"'@	c #2F313D",
")@	c #2A2B35",
"!@	c #838C46",
"~@	c #CAC8BA",
"{@	c #C6C8C7",
"]@	c #C5C8C9",
"^@	c #CEC6C6",
"/@	c #D8DA95",
"(@	c #1B1A06",
"_@	c #262627",
":@	c #2B2E38",
"<@	c #30323F",
"[@	c #353744",
"}@	c #3C3E52",
"|@	c #9899A1",
"1@	c #9C9DA5",
"2@	c #9798A0",
"3@	c #747580",
"4@	c #BABAC0",
"5@	c #E7E8EA",
"6@	c #5A5B6A",
"7@	c #3D3F4E",
"8@	c #30323E",
"9@	c #2B2C36",
"0@	c #262422",
"a@	c #848D46",
"b@	c #CAC7BA",
"c@	c #C6C8C6",
"d@	c #C8C8BC",
"e@	c #CEC5C3",
"f@	c #DCE187",
"g@	c #1A1812",
"h@	c #27272B",
"i@	c #2C2E39",
"j@	c #363845",
"k@	c #3E3F51",
"l@	c #989AA2",
"m@	c #CDCDD1",
"n@	c #6A6C78",
"o@	c #434553",
"p@	c #ABABB3",
"q@	c #93949E",
"r@	c #3E404F",
"s@	c #363844",
"t@	c #31333F",
"u@	c #2C2E37",
"v@	c #272524",
"w@	c #868F46",
"x@	c #C9C7C0",
"y@	c #CCC6BC",
"z@	c #DCE27F",
"A@	c #1E1A1B",
"B@	c #27262E",
"C@	c #2D303C",
"D@	c #373947",
"E@	c #3D3F4F",
"F@	c #9E9FA9",
"G@	c #999AA2",
"H@	c #38394A",
"I@	c #D8D8DB",
"J@	c #D4D4D8",
"K@	c #9D9EA5",
"L@	c #80818A",
"M@	c #D6D6D9",
"N@	c #CFD0D3",
"O@	c #CDCDD2",
"P@	c #515262",
"Q@	c #3E4050",
"R@	c #363846",
"S@	c #2C2F38",
"T@	c #282627",
"U@	c #848657",
"V@	c #CCCE9A",
"W@	c #C8C7C5",
"X@	c #C9C6C6",
"Y@	c #CCC8B8",
"Z@	c #DCE37E",
"`@	c #211E1D",
" #	c #282731",
".#	c #333544",
"+#	c #3C3E4E",
"@#	c #373849",
"##	c #363848",
"$#	c #37384A",
"%#	c #363847",
"&#	c #313442",
"*#	c #2B2F3A",
"=#	c #252428",
"-#	c #211B14",
";#	c #DAE288",
">#	c #CAC8BE",
",#	c #C6C7CC",
"'#	c #C7C8C5",
")#	c #221E1D",
"!#	c #292832",
"~#	c #2F313F",
"{#	c #343645",
"]#	c #E4E4E6",
"^#	c #323443",
"/#	c #2A2E38",
"(#	c #29292D",
"_#	c #201A14",
":#	c #DDE48A",
"<#	c #CAC8BC",
"[#	c #C6C7C8",
"}#	c #231F1E",
"|#	c #2A2934",
"1#	c #353746",
"2#	c #353745",
"3#	c #414254",
"4#	c #323544",
"5#	c #2A2E3B",
"6#	c #29282E",
"7#	c #252017",
"8#	c #D6DE83",
"9#	c #CCC7B8",
"0#	c #DAE27D",
"a#	c #262222",
"b#	c #2B2A34",
"c#	c #303240",
"d#	c #424254",
"e#	c #333543",
"f#	c #343644",
"g#	c #424355",
"h#	c #2F3242",
"i#	c #292830",
"j#	c #262016",
"k#	c #D8E084",
"l#	c #CAC8B9",
"m#	c #CAC6B6",
"n#	c #DEE580",
"o#	c #262221",
"p#	c #2C2B36",
"q#	c #404254",
"r#	c #424458",
"s#	c #424256",
"t#	c #313342",
"u#	c #2E303B",
"v#	c #424357",
"w#	c #333646",
"x#	c #2F3244",
"y#	c #282630",
"z#	c #DBE486",
"A#	c #CAC8B8",
"B#	c #C6C8C5",
"C#	c #CBC7B7",
"D#	c #868E45",
"E#	c #2E2D38",
"F#	c #313341",
"G#	c #282A37",
"H#	c #282A36",
"I#	c #282B34",
"J#	c #282B36",
"K#	c #272935",
"L#	c #3E404E",
"M#	c #343747",
"N#	c #2E3144",
"O#	c #2E2D36",
"P#	c #252016",
"Q#	c #DAE284",
"R#	c #CAC9B7",
"S#	c #CECABA",
"T#	c #858D42",
"U#	c #242120",
"V#	c #2D2C37",
"W#	c #222430",
"X#	c #1A1C28",
"Y#	c #1A1D25",
"Z#	c #1A1D26",
"`#	c #252832",
" $	c #383A47",
".$	c #353848",
"+$	c #303246",
"@$	c #2C2A35",
"#$	c #28231A",
"$$	c #DBE485",
"%$	c #CAC9B6",
"&$	c #C7C6CE",
"*$	c #C7C8C6",
"=$	c #C9C6C4",
"-$	c #C9C8A6",
";$	c #889244",
">$	c #2C3206",
",$	c #32370D",
"'$	c #383C12",
")$	c #3D4014",
"!$	c #424617",
"~$	c #45481A",
"{$	c #46491A",
"]$	c #464A1B",
"^$	c #484B1B",
"/$	c #484C1D",
"($	c #474C1C",
"_$	c #45491B",
":$	c #444819",
"<$	c #424718",
"[$	c #3E4216",
"}$	c #373B12",
"|$	c #2A2F0A",
"1$	c #181D01",
"2$	c #101500",
"3$	c #1C2102",
"4$	c #31350B",
"5$	c #373C11",
"6$	c #3F4414",
"7$	c #434818",
"8$	c #44491A",
"9$	c #444A1B",
"0$	c #484C1C",
"a$	c #484C1B",
"b$	c #464B1B",
"c$	c #444818",
"d$	c #414616",
"e$	c #3D4215",
"f$	c #363C13",
"g$	c #30340A",
"h$	c #2F3002",
"i$	c #7A8244",
"j$	c #CACAAB",
"k$	c #C6C6CD",
"l$	c #C6C8C1",
"m$	c #C8C4D1",
"n$	c #838848",
"o$	c #898D48",
"p$	c #8D8B61",
"q$	c #929260",
"r$	c #959561",
"s$	c #979764",
"t$	c #979765",
"u$	c #989868",
"v$	c #9A9969",
"w$	c #989A68",
"x$	c #989968",
"y$	c #969666",
"z$	c #969665",
"A$	c #929360",
"B$	c #919059",
"C$	c #908F55",
"D$	c #828246",
"E$	c #DEDE9E",
"F$	c #848446",
"G$	c #8C8C52",
"H$	c #92935C",
"I$	c #949460",
"J$	c #989865",
"K$	c #979865",
"L$	c #989A66",
"M$	c #999A69",
"N$	c #979866",
"O$	c #989866",
"P$	c #969864",
"Q$	c #969762",
"R$	c #91925E",
"S$	c #91905C",
"T$	c #888853",
"U$	c #4E4E30",
"V$	c #C6C9C0",
"W$	c #C7C8C0",
"X$	c #C8C4D6",
"Y$	c #CAC8D2",
"Z$	c #1C1A17",
"`$	c #262229",
" %	c #332C47",
".%	c #333142",
"+%	c #383746",
"@%	c #3E3D4E",
"#%	c #414051",
"$%	c #424052",
"%%	c #434155",
"&%	c #444256",
"*%	c #424153",
"=%	c #414053",
"-%	c #403E52",
";%	c #3B384A",
">%	c #34303E",
",%	c #2C2933",
"'%	c #19161E",
")%	c #CAC8CD",
"!%	c #1A181D",
"~%	c #2E2A34",
"{%	c #353340",
"]%	c #3B3A49",
"^%	c #3F3F50",
"/%	c #434256",
"(%	c #444457",
"_%	c #444356",
":%	c #424253",
"<%	c #403F50",
"[%	c #3F3E4F",
"}%	c #3C3C4C",
"|%	c #383647",
"1%	c #39314B",
"2%	c #2F2738",
"3%	c #2A242C",
"4%	c #1A171C",
"5%	c #C7CABF",
"6%	c #191C16",
"7%	c #292A30",
"8%	c #2F2F3C",
"9%	c #303444",
"0%	c #34384A",
"a%	c #3A3E50",
"b%	c #3C4052",
"c%	c #3E4255",
"d%	c #404457",
"e%	c #414558",
"f%	c #3D4254",
"g%	c #3D4154",
"h%	c #3B3F53",
"i%	c #3A3E51",
"j%	c #373A4C",
"k%	c #303341",
"l%	c #282C36",
"m%	c #161A22",
"n%	c #C2C6CA",
"o%	c #1B1F25",
"p%	c #2E323C",
"q%	c #303441",
"r%	c #373B4C",
"s%	c #3B3F51",
"t%	c #3C4253",
"u%	c #3E4254",
"v%	c #3F4356",
"w%	c #3A3E4F",
"x%	c #353849",
"y%	c #323240",
"z%	c #32323B",
"A%	c #252629",
"B%	c #18181A",
"C%	c #C8C8C1",
"D%	c #C3C8BD",
"E%	c #1F222C",
"F%	c #22233A",
"G%	c #323546",
"H%	c #363A4C",
"I%	c #3D4155",
"J%	c #3E4256",
"K%	c #404458",
"L%	c #3C4053",
"M%	c #36384A",
"N%	c #2F3240",
"O%	c #2A2D38",
"P%	c #181B24",
"Q%	c #1E2128",
"R%	c #303442",
"S%	c #363A4B",
"T%	c #3B4053",
"U%	c #3D4153",
"V%	c #393D4F",
"W%	c #35384B",
"X%	c #313346",
"Y%	c #2A2C3D",
"Z%	c #242733",
"`%	c #1B1D24",
" &	c #C7C5D2",
".&	c #C7C6CF",
"+&	c #C7CCC2",
"@&	c #1B1D2A",
"#&	c #26273C",
"$&	c #2C303A",
"%&	c #323444",
"&&	c #37394A",
"*&	c #3C3E4F",
"=&	c #3E4053",
"-&	c #3F3E52",
";&	c #38384A",
">&	c #32313F",
",&	c #2E2C39",
"'&	c #1A1924",
")&	c #1F1F27",
"!&	c #2D2D39",
"~&	c #333242",
"{&	c #30363E",
"]&	c #2C3039",
"^&	c #242730",
"/&	c #191C21",
"(&	c #C6C8C2",
"_&	c #6A6B68",
":&	c #1B1C28",
"<&	c #252634",
"[&	c #2F3237",
"}&	c #323540",
"|&	c #373A47",
"1&	c #3C3F4E",
"2&	c #404252",
"3&	c #414352",
"4&	c #414453",
"5&	c #404151",
"6&	c #3E3E4E",
"7&	c #32313B",
"8&	c #2D2C35",
"9&	c #1A1A20",
"0&	c #C6C6C8",
"a&	c #1F1F23",
"b&	c #2E2D35",
"c&	c #33323E",
"d&	c #383846",
"e&	c #3D3D4C",
"f&	c #3F404E",
"g&	c #414150",
"h&	c #424252",
"i&	c #414151",
"j&	c #40404E",
"k&	c #3E3F4C",
"l&	c #3C3D4B",
"m&	c #32363A",
"n&	c #2E3038",
"o&	c #1B1D22",
"p&	c #C6C8C3",
"q&	c #C7C7C4",
"r&	c #6B6A74",
"s&	c #1E1C2E",
"t&	c #2A2738",
"u&	c #31303A",
"v&	c #313542",
"w&	c #363A48",
"x&	c #3A3F4C",
"y&	c #3B404E",
"z&	c #3C4050",
"A&	c #3E4252",
"B&	c #3F4454",
"C&	c #3D4151",
"D&	c #3C3F4F",
"E&	c #353846",
"F&	c #30313C",
"G&	c #2B2C35",
"H&	c #181A20",
"I&	c #C4C6C8",
"J&	c #1D1F23",
"K&	c #2A2D35",
"L&	c #3A3D4D",
"M&	c #3C404F",
"N&	c #3E4152",
"O&	c #3F4253",
"P&	c #3F4352",
"Q&	c #3E4251",
"R&	c #3D4150",
"S&	c #3C404E",
"T&	c #3A3E4C",
"U&	c #363947",
"V&	c #353442",
"W&	c #302E40",
"X&	c #282538",
"Y&	c #1C1C28",
"Z&	c #C6C9C2",
"`&	c #C7C7C5",
" *	c #98989D",
".*	c #1F1E29",
"+*	c #2A2832",
"@*	c #302F39",
"#*	c #323545",
"$*	c #3D4054",
"%*	c #3F4256",
"&*	c #3F4257",
"**	c #3B3F52",
"=*	c #3C3E53",
"-*	c #3A3B4F",
";*	c #343649",
">*	c #2E3040",
",*	c #2A2B38",
"'*	c #171822",
")*	c #C4C6CC",
"!*	c #1C1D26",
"~*	c #2F3241",
"{*	c #35374A",
"]*	c #3A3C50",
"^*	c #3B3E52",
"/*	c #3C4054",
"(*	c #3D4056",
"_*	c #3A3D50",
":*	c #36394A",
"<*	c #353440",
"[*	c #302F3C",
"}*	c #272633",
"|*	c #1C1D23",
"1*	c #C6C7C7",
"2*	c #C6C8CA",
"3*	c #1D1E23",
"4*	c #282832",
"5*	c #30303C",
"6*	c #3C3F50",
"7*	c #3A3A4C",
"8*	c #2A2A36",
"9*	c #16171E",
"0*	c #C5C6CA",
"a*	c #1C1D22",
"b*	c #2C2C36",
"c*	c #3D4051",
"d*	c #2F2F3A",
"e*	c #26272E",
"f*	c #1C1C21",
"g*	c #C7C7C9",
"h*	c #C6C7C9",
"i*	c #1C1E22",
"j*	c #2F2F3B",
"k*	c #393A4C",
"l*	c #16161D",
"m*	c #1B1C21",
"n*	c #2B2B35",
"o*	c #343646",
"p*	c #3A3B4D",
"q*	c #3B3E4F",
"r*	c #2E2E3A",
"s*	c #26262E",
"t*	c #1B1C20",
"u*	c #383A4C",
"v*	c #2F2E3B",
"w*	c #2A2A34",
"x*	c #16161C",
"y*	c #1A1B20",
"z*	c #333240",
"A*	c #2E2E39",
"B*	c #25262D",
"C*	c #1A1C20",
". . . . . . + @ # $ % & * = - ; > , ' ) ! ~ { ] ^ / ( _ : < [ < } : | _ 1 2 ] 3 4 5 6 7 8 9 0 a b c d e f g h i . . . . . . . ",
". . . . . . i j k i . l m n o p q r s t u v w x y z A B C D E D D C B F A G H I I I J K L M N O P Q R S T U V + . . . . . . . ",
". . . . . . i W . X i Y Z `  ...+.@.#.$.%.&.*.=.-.;.>.,.'.).!.~.{.'.].^.>./.=.(._._.4 :.<.[.}.|.1.2.3.l 4.g 5.i . . . . . . . ",
". . . . . . + 6.7.8.9.0.a.b.c.d.e.f.g.h.i.j.&.k.l.m.;.n.,.{.: o.o.].n.p.q.r.l.s.s.s.t.7 u.v.w.x.y.z.A.+ B.C.D.. . . . . . . . ",
". . . . . . E.F.i G.H.W I.J.K.L.M.N.O.P._.Q.R.S.T.T.m.U.n.V.].].n.n.p.;.m.T.T.W._._.5 X.O.Y.Z.`. +.+++@+#+$+%+. . . . . . . . ",
". . . . . . %+&+% *+H.=+-+;+>+,+'+)+!+X.~+{+]+^+k.k.l./+/.(+_+_+/./.r.:+l.k.{+W.W._.5 X.O.N.M.<+[+}+|+@+#+$+%+. . . . . . . . ",
". . . . . . e 1+$ 2+3+&+4+5+6+7+8+)+9+0+W.a+]+b+W.W._./+c+d+e+(+f+g+h+(.c+i+j+k+l+W.m+X.9+[.n+o+p+q+r+@+#+$+%+. . . . . . . . ",
". . . . . . i W s+t++ u+v+w+x+y+z+A+B+X.W.a+]+C+D+E+F+/+~+/+_./+C+G+H+I+J+K+L+M+N+W.O+X.9+)+P+Q+R+S+T+@+#+$+%+. . . . . . . . ",
". . . . . . i 5.U+V+W+X+Y+Z+`+ @z+.@+@m+_.{+]+@@#@#@$@/+P./+P./+%@&@*@=@-@;@>@,@W._.5 X.B+A+'@)@R+!@~@@+#+$+%+. . . . . . . . ",
". . . . . . . i {@]@j ^@/@(@_@:@<@[@X.5 c+}@U.|@X.X.X./+0+/+0+/+0+0+1@2@0+3@4@5@6@c+7@O+0+[@8@9@0@a@b@@+#+$+%+. . . . . . . . ",
". . . . . . + % $+c@d@e@f@g@h@i@Y.j@m+7@k@:+V.l@X.X.0+/+B+/+B+/+9++@m@n@o@+@X.p@q@k@r@5 P.s@t@u@v@w@b@@+#+$+%+. . . . . . . . ",
". . . . . . + @+k 9.x@y@z@A@B@C@[.D@4 E@k@r.F@G@m+X.+@/+9+/+H@/+I@J@K@9+L@M@N@O@P@/.Q@] m+R@N.S@T@U@V@W g 9.i . . . . . . . . ",
". . . . . . . W@k g X@Y@Z@`@ #8+.#O._.k@l+l+_++#O+X.+@9+O.@###/+$#@#O.9+9+X.O+Q./.l+/./.m+%#&#*#=#-#;#>#3+,#'#. . . . . . . . ",
". . . . . . . W@k g X@Y@Z@)#!#~#{#9+c+k@l+N+_+] 5 P.+@9+O.O.%#]#@#O.!+9++@m+7@m.N+N+l+l+5 ##^#/#(#_#:#<#[#,#'#. . . . . . . . ",
". . . . . . . W@k g X@Y@Z@}#|#~#{#9+c+l+N+N+n.,@] X.9+O.%#1#1#2#2#R@O.O.9+X.7@n.3#3#l+/ 5 O.4#5#6#7#8#~@[#,#'#. . . . . . . . ",
". . . . . . . W@k g X@9#0#a#b#c#{#+@c+l+N+3#o.d#/.P.R@{#e#[.[.N.t@N.f#{#!+P.7@o.g#3#N+/ 7@9+4#h#i#j#k#l#c@g k . . . . . . . . ",
". . . . . . . W@k g X@m#n#o#p#c#1#X.c+/ q#d#r#s#_+_.O.t#<@8+'+u#'@P+Y.f#+@5 l+v#g#d#q#/ 7@B+w#x#y#j#z#A#B#g i . . . . . . . . ",
". . . . . . . W@k g X@C#D#o#E#F#R@m+e+/ q#d#r#s#p.k@&@1#P+G#H#I#J#K#'+R@O+Q@q#v#g#d#q#l+L#+@M#N#O#P#Q#R#$+g i . . . . . . . . ",
". . . . . . . W@k g X@S#T#U#V#[.%#m+k@/ q#d#r#v#q.k@_.O.P+W#X#Y#Z#`#8@ $5 /.q#v#g#d#q#l+r@X..$+$@$#$$$%$$+g i . . . . . . . . ",
". . . . . . + &$B#*$=$-$;$>$,$'$)$!$~${$]$^$/$($_$:$<$[$}$|$1$2$3$4$5$6$7$8$9$0$0$a$b$8$c$d$e$f$g$h$i$j$l k$$ + . . . . . . . ",
". . . . . . + ,#l$. m$++n$o$p$q$r$s$s$t$u$v$v$w$x$y$z$A$B$C$D$E$F$G$H$I$J$K$L$x$M$x$N$O$P$Q$R$S$B$T$U$A#D.7.+ + . . . . . . . ",
". . . . . . i V$W$$ X$Y$Z$`$ %.%+%@%#%$%%%&%&%*%=%-%%.;%>%,%'%)%!%~%{%]%@%^%2 /%(%_%:%<%[%}%|%1%2%3%4%V V + l i . . . . . . . ",
". . . . . . '#j . 7.$+5%6%7%8%9%0%a%b%c%d%e%e%f%g%h%i%j%k%l%m%n%o%p%q%r%s%t%u%v%d%d%u%u%b%w%x%y%z%A%B%3+% + D.. . . . . . . . ",
". . . . . . i C%&$&$V$D%E%F%h#G%H%a%b%I%J%K%K%J%g%L%i%M%N%O%P%t+Q%O%R%S%a%T%U%J%d%d%c%U%s%V%W%X%Y%Z%`%g + + %+. . . . . . . . ",
". . . . . . i W@ &.&V$+&@&#&$&%&&&*&=.=&^.r#r#>.m.-&{+;&>&,&'&k$)&!&~&;&k.r.l+,.s#s#n.l+c+~+$#{&]&^&/&{@$+. @ + . . . . . . . ",
". . . . . . . %+&$$ (&_&:&<&[&}&|&O+1&r@2&3&4&5&6&6&}%+%7&8&9&0&a&b&c&d&e&6&f&g&h&h&i&j&k&l&8 m&n&`.o&$+p&c@U++ . . . . . . . ",
". . . . . . i q&*$. + r&s&t&u&v&w&x&y&z&A&B&B&C&D&*&P.E&F&G&H&I&J&K&8@R@L&D&M&N&O&P&Q&R&S&T&U&V&W&X&Y&c@Z&c@,#+ . . . . . . . ",
". . . . . . . `&k q&+  *.*+*@*#*j%a%}@$*%*'.&*I%**=*-*;*>*,*'*)*!*y+~*{*]*^*/*(*&*%*;.$*=._*:*<*[*}*|*c@$+1*3++ . . . . . . . ",
". . . . . . . . `&`&. 2*3*4*5*%&B+m+(.k@N+3#n./.6*(.7*{#[*8*9*0*a*b*z+1#W.6*c*q.q#q#l+/.7@m+O.f.d*e*f*g*. . . . . . . . . . . ",
". . . . . . . . `&`&. h*i*4*j*^#9+P.(.e+/ N+q./.6*_.k*{#[*8*l*0*m*n*z+o*p*q*z&q.q#q#l+e+5 m+##f.r*s*t*g*. . . . . . . . . . . ",
". . . . . . . . `&`&. 0&a*4*r*[.!+X.~+c+l+N+q.z&q*~+u*.#v*w*x*0*y*w*8+{#p*q*6*q.q#q#l+e+5 X.%#z*A*B*C*g*. . . . . . . . . . . "};
