/* XPM */
static char * Hotkeyman_xpm[] = {
"32 32 883 2",
"  	c None",
". 	c #A1A5A8",
"+ 	c #A3A7AA",
"@ 	c #A3A6AA",
"# 	c #9FA3A6",
"$ 	c #9EA4A7",
"% 	c #A5ACAF",
"& 	c #A6ADAF",
"* 	c #A4ABAD",
"= 	c #9AA2A3",
"- 	c #A1A9AB",
"; 	c #B8C1C2",
"> 	c #B6C0C1",
", 	c #ADB5B7",
"' 	c #98A0A1",
") 	c #BDC4C6",
"! 	c #BCC3C6",
"~ 	c #949A9C",
"{ 	c #969A9D",
"] 	c #A4A7AA",
"^ 	c #9EA2A4",
"/ 	c #8C9395",
"( 	c #939A9D",
"_ 	c #B1B8BA",
": 	c #B5BCBE",
"< 	c #AEB5B8",
"[ 	c #B6BCC2",
"} 	c #C5CED6",
"| 	c #C9D3DC",
"1 	c #CCD6DF",
"2 	c #D5D9DC",
"3 	c #DFE3E6",
"4 	c #D2D4D7",
"5 	c #4E595A",
"6 	c #899092",
"7 	c #DBDCE0",
"8 	c #E5E4E9",
"9 	c #CFD1D2",
"0 	c #485551",
"a 	c #939D9E",
"b 	c #E1E3E7",
"c 	c #E6E5EA",
"d 	c #D0D4D9",
"e 	c #455250",
"f 	c #9AA3A4",
"g 	c #C2C3C7",
"h 	c #DFDEE3",
"i 	c #C5CCCE",
"j 	c #4B5657",
"k 	c #949B9D",
"l 	c #CED2D5",
"m 	c #DADCE0",
"n 	c #C9CED1",
"o 	c #495855",
"p 	c #8E999C",
"q 	c #C6CACD",
"r 	c #DADEE1",
"s 	c #CCD1D4",
"t 	c #777C80",
"u 	c #C1CBD6",
"v 	c #D7DBDE",
"w 	c #DEDEE3",
"x 	c #D4D5D9",
"y 	c #4C5856",
"z 	c #8F9797",
"A 	c #DEDDE2",
"B 	c #D2D3D6",
"C 	c #46544E",
"D 	c #929E9E",
"E 	c #CCCDD1",
"F 	c #DCDBE0",
"G 	c #D0D4DA",
"H 	c #414F4A",
"I 	c #98A1A0",
"J 	c #DBDDE1",
"K 	c #C8D0D2",
"L 	c #414D4A",
"M 	c #959D9D",
"N 	c #D0D3D6",
"O 	c #D7DADD",
"P 	c #424D49",
"Q 	c #8B9697",
"R 	c #D4D8DB",
"S 	c #D8DCDF",
"T 	c #D1D6D9",
"U 	c #808588",
"V 	c #BEC8D2",
"W 	c #CDD7E0",
"X 	c #A5A9AC",
"Y 	c #E3E1E6",
"Z 	c #D5D6DB",
"` 	c #4A5652",
" .	c #8F9897",
"..	c #ADADB1",
"+.	c #E2E1E6",
"@.	c #D3D4D8",
"#.	c #45534C",
"$.	c #94A0A0",
"%.	c #D1D0D4",
"&.	c #E3E2E7",
"*.	c #D2D5DB",
"=.	c #414F49",
"-.	c #9AA4A1",
";.	c #BDC1C4",
">.	c #DCE0E3",
",.	c #C9D1D2",
"'.	c #424E49",
").	c #969E9E",
"!.	c #C7CBCE",
"~.	c #D8DBDF",
"{.	c #D0D3D7",
"].	c #414D47",
"^.	c #8C9999",
"/.	c #CED1D5",
"(.	c #D9DDE0",
"_.	c #D3D8DC",
":.	c #818689",
"<.	c #C0C9D3",
"[.	c #CED8E1",
"}.	c #B8BEBF",
"|.	c #C0C3C2",
"1.	c #B6BCBC",
"2.	c #58645F",
"3.	c #788581",
"4.	c #B1B7B7",
"5.	c #B7BAB9",
"6.	c #ADB5B5",
"7.	c #54625B",
"8.	c #788883",
"9.	c #A3A7A7",
"0.	c #ACB1B0",
"a.	c #A5AFAE",
"b.	c #505C58",
"c.	c #798681",
"d.	c #9AA2A1",
"e.	c #A3AAA9",
"f.	c #A2ACB0",
"g.	c #4E5959",
"h.	c #7B8783",
"i.	c #A6ACAC",
"j.	c #AFB5B5",
"k.	c #ADB3B4",
"l.	c #4C5754",
"m.	c #77827F",
"n.	c #959B9C",
"o.	c #A4ADAF",
"p.	c #AFBBBD",
"q.	c #858A8A",
"r.	c #C0CBD1",
"s.	c #D0D7DE",
"t.	c #48524C",
"u.	c #485751",
"v.	c #53605D",
"w.	c #606C68",
"x.	c #5B6B62",
"y.	c #4B5952",
"z.	c #465550",
"A.	c #4D5956",
"B.	c #55625C",
"C.	c #515F5A",
"D.	c #475751",
"E.	c #45524C",
"F.	c #4C5C54",
"G.	c #505F57",
"H.	c #55625D",
"I.	c #495351",
"J.	c #454F4C",
"K.	c #4F5C59",
"L.	c #57625F",
"M.	c #5D6763",
"N.	c #4C5851",
"O.	c #46544D",
"P.	c #59615E",
"Q.	c #55605E",
"R.	c #535E5B",
"S.	c #555E59",
"T.	c #5E6A66",
"U.	c #72807E",
"V.	c #868E8F",
"W.	c #C2CBD4",
"X.	c #CCD5DE",
"Y.	c #D2D9DF",
"Z.	c #9FA6A4",
"`.	c #53605B",
" +	c #C3C6C5",
".+	c #C4C6C6",
"++	c #E9E7E8",
"@+	c #9EA3A1",
"#+	c #586560",
"$+	c #C2C3C3",
"%+	c #CFD0D0",
"&+	c #E9E8E8",
"*+	c #909A97",
"=+	c #5F6D68",
"-+	c #D5D7D7",
";+	c #EDEEEE",
">+	c #E6E6E6",
",+	c #8D9798",
"'+	c #5F6B6D",
")+	c #CFD2D5",
"!+	c #E8E9EB",
"~+	c #E6E5E5",
"{+	c #89908E",
"]+	c #5C6966",
"^+	c #E1E1E5",
"/+	c #E3E5E8",
"(+	c #E8E7E7",
"_+	c #E6E8E7",
":+	c #CDD4D4",
"<+	c #899597",
"[+	c #C4CCD8",
"}+	c #CFD6DF",
"|+	c #D5DCE2",
"1+	c #B1B6B8",
"2+	c #576464",
"3+	c #C4C8C9",
"4+	c #C2C6C4",
"5+	c #E4E6E7",
"6+	c #A7AFAE",
"7+	c #596661",
"8+	c #C2C4C5",
"9+	c #E7E6E6",
"0+	c #E7E5E6",
"a+	c #96A09D",
"b+	c #5F6D69",
"c+	c #DADDDF",
"d+	c #EBEAE8",
"e+	c #E2E2E2",
"f+	c #909A96",
"g+	c #E7E6E8",
"h+	c #E4E3E3",
"i+	c #8D9492",
"j+	c #65726F",
"k+	c #C9CACE",
"l+	c #ACB1B4",
"m+	c #B5BABC",
"n+	c #D8D7D8",
"o+	c #D9DCDD",
"p+	c #8B9396",
"q+	c #C6CCD5",
"r+	c #D6DDE3",
"s+	c #B2B6B9",
"t+	c #596666",
"u+	c #D6D6DA",
"v+	c #ECE9EA",
"w+	c #E5E6E7",
"x+	c #A8AFB0",
"y+	c #5B6864",
"z+	c #D7D9DB",
"A+	c #EDEBEC",
"B+	c #E6E5E6",
"C+	c #97A09E",
"D+	c #5F6C68",
"E+	c #CDCFD2",
"F+	c #ECE9E9",
"G+	c #E1E0E0",
"H+	c #949D9B",
"I+	c #616E6B",
"J+	c #C4C8CB",
"K+	c #EAE9EC",
"L+	c #E1E1E3",
"M+	c #8E9693",
"N+	c #65716F",
"O+	c #E0E1E5",
"P+	c #E0E0E4",
"Q+	c #E6E6E9",
"R+	c #E9E7E7",
"S+	c #DCDDDF",
"T+	c #8B9294",
"U+	c #CAD1D7",
"V+	c #D3DAE0",
"W+	c #D8DFE5",
"X+	c #A6AFB2",
"Y+	c #5B6A68",
"Z+	c #9EA5A8",
"`+	c #B3BAB8",
" @	c #B0B5B5",
".@	c #9DA8AA",
"+@	c #5F6B6B",
"@@	c #A5A9AB",
"#@	c #BBBCBC",
"$@	c #B1B9BA",
"%@	c #919B9C",
"&@	c #647070",
"*@	c #B4B8BB",
"=@	c #C2C5C6",
"-@	c #BDC0BF",
";@	c #929B9B",
">@	c #667272",
",@	c #ADB6B7",
"'@	c #BCC3C5",
")@	c #B7BEBF",
"!@	c #899591",
"~@	c #657571",
"{@	c #A4AAAC",
"]@	c #AFB2B5",
"^@	c #BBBEC0",
"/@	c #BABEBD",
"(@	c #B8BBBD",
"_@	c #BCC1C4",
":@	c #8F9494",
"<@	c #CAD2D7",
"[@	c #D7DEE4",
"}@	c #DDE4EA",
"|@	c #7A8583",
"1@	c #586260",
"2@	c #455351",
"3@	c #4E5956",
"4@	c #586460",
"5@	c #72807D",
"6@	c #555F5E",
"7@	c #495450",
"8@	c #515E58",
"9@	c #64716E",
"0@	c #7E8A87",
"a@	c #5E6C6A",
"b@	c #4C5651",
"c@	c #5F6B66",
"d@	c #6D7874",
"e@	c #808989",
"f@	c #5A6866",
"g@	c #4C5A54",
"h@	c #505D58",
"i@	c #5B6763",
"j@	c #69736F",
"k@	c #5A6562",
"l@	c #596361",
"m@	c #56605E",
"n@	c #5B6563",
"o@	c #5E6965",
"p@	c #6A7473",
"q@	c #788484",
"r@	c #87918F",
"s@	c #CCD5DA",
"t@	c #DAE1E7",
"u@	c #E0E5E9",
"v@	c #E2E4E4",
"w@	c #C6CBCF",
"x@	c #727F81",
"y@	c #B4BBBF",
"z@	c #DFDFE0",
"A@	c #E8E6E8",
"B@	c #C9CED3",
"C@	c #6A7A79",
"D@	c #C2C5C7",
"E@	c #DEDCDD",
"F@	c #E8E7EA",
"G@	c #C3C9CE",
"H@	c #61706E",
"I@	c #C6C7C9",
"J@	c #CDCDCD",
"K@	c #EAEAED",
"L@	c #BEC7C8",
"M@	c #6A7775",
"N@	c #CFD4D4",
"O@	c #E7E7E7",
"P@	c #E8E8E8",
"Q@	c #E5E5E5",
"R@	c #E4E5E5",
"S@	c #E5E6E6",
"T@	c #E6E7E7",
"U@	c #D7DCDC",
"V@	c #909C99",
"W@	c #CED7DB",
"X@	c #DDE3E9",
"Y@	c #E4E8EB",
"Z@	c #E1E0E5",
"`@	c #C6C4C7",
" #	c #972E2E",
".#	c #E72122",
"+#	c #C89899",
"@#	c #DAD1D1",
"##	c #E54647",
"$#	c #D91B1B",
"%#	c #D1A5A8",
"&#	c #E9EAEC",
"*#	c #C8C9CC",
"=#	c #A03534",
"-#	c #F42223",
";#	c #F27E7E",
">#	c #F0D1D3",
",#	c #E84041",
"'#	c #8C5550",
")#	c #BDC3C4",
"!#	c #BBC1C3",
"~#	c #DB8A8B",
"{#	c #F82727",
"]#	c #EB9D9D",
"^#	c #E7E3E4",
"/#	c #ED9F9F",
"(#	c #F72626",
"_#	c #D05857",
":#	c #D2D8DB",
"<#	c #E3E5E9",
"[#	c #E7EAED",
"}#	c #DFDFE4",
"|#	c #C4C9CC",
"1#	c #C52625",
"2#	c #F92E2F",
"3#	c #E6E4E4",
"4#	c #E6E5E3",
"5#	c #F82526",
"6#	c #CB3131",
"7#	c #BCBEC2",
"8#	c #D9D8D8",
"9#	c #EBE9EC",
"0#	c #C6CCCE",
"a#	c #9B2D2C",
"b#	c #FA0909",
"c#	c #E1D2D2",
"d#	c #F29394",
"e#	c #C9A0A2",
"f#	c #5B6966",
"g#	c #C8CBCD",
"h#	c #E4E4E6",
"i#	c #EC9D9D",
"j#	c #FA1111",
"k#	c #F07675",
"l#	c #E8E7E5",
"m#	c #EBCECD",
"n#	c #F83838",
"o#	c #FB0404",
"p#	c #9B8685",
"q#	c #D7DDE0",
"r#	c #E6E9EC",
"s#	c #EAEEF1",
"t#	c #A4A8AB",
"u#	c #AFABAD",
"v#	c #F40909",
"w#	c #DC4647",
"x#	c #C49D9E",
"y#	c #D29292",
"z#	c #FE0101",
"A#	c #934C4B",
"B#	c #8F9799",
"C#	c #A5ACA9",
"D#	c #AFB7B6",
"E#	c #A6B1B2",
"F#	c #D51616",
"G#	c #E82929",
"H#	c #E65B5B",
"I#	c #B4A5A8",
"J#	c #AAB1B4",
"K#	c #5E6A69",
"L#	c #99A1A5",
"M#	c #B0B6BA",
"N#	c #B2B8B8",
"O#	c #D16E6E",
"P#	c #E72E2E",
"Q#	c #E34A4A",
"R#	c #B7B9B9",
"S#	c #D36363",
"T#	c #E64040",
"U#	c #EF2E2F",
"V#	c #909796",
"W#	c #D9DDE1",
"X#	c #E7EBEE",
"Y#	c #ECF0F3",
"Z#	c #4D5855",
"`#	c #965959",
" $	c #AA504E",
".$	c #6E3632",
"+$	c #B21D1A",
"@$	c #FA0808",
"#$	c #837D7B",
"$$	c #7A827F",
"%$	c #4B5851",
"&$	c #4E5C58",
"*$	c #857677",
"=$	c #FB0303",
"-$	c #DC302F",
";$	c #FC0202",
">$	c #795350",
",$	c #828D8A",
"'$	c #79827D",
")$	c #77827E",
"!$	c #707C79",
"~$	c #73706C",
"{$	c #A5504E",
"]$	c #C53332",
"^$	c #CF1817",
"/$	c #984341",
"($	c #806664",
"_$	c #F00808",
":$	c #BB4A4A",
"<$	c #8B9395",
"[$	c #DBE0E3",
"}$	c #F0EFF4",
"|$	c #889490",
"1$	c #F56666",
"2$	c #FB1D1D",
"3$	c #E0DDDE",
"4$	c #909999",
"5$	c #DC2222",
"6$	c #E73535",
"7$	c #E3E4E4",
"8$	c #E0E2E2",
"9$	c #838F8D",
"0$	c #8F9A9A",
"a$	c #E6888B",
"b$	c #FE0303",
"c$	c #DFC6C8",
"d$	c #EF2A2B",
"e$	c #E93D3D",
"f$	c #DEDDDF",
"g$	c #DFE1E3",
"h$	c #DCDFE0",
"i$	c #E7999A",
"j$	c #DFC0C0",
"k$	c #E97677",
"l$	c #F40B0B",
"m$	c #CA9090",
"n$	c #E5A7A8",
"o$	c #FC0101",
"p$	c #DEB6B8",
"q$	c #9BA2A3",
"r$	c #DDE1E5",
"s$	c #F2F1F6",
"t$	c #7F807B",
"u$	c #FD1B1C",
"v$	c #F74344",
"w$	c #E0D5DA",
"x$	c #A16F71",
"y$	c #F90303",
"z$	c #F26868",
"A$	c #E7E2E2",
"B$	c #DEE0E0",
"C$	c #6D7B75",
"D$	c #888A88",
"E$	c #F83E3F",
"F$	c #FB1919",
"G$	c #DDD0D2",
"H$	c #BC5A5C",
"I$	c #FE0203",
"J$	c #D28E91",
"K$	c #B6BCBE",
"L$	c #CFD1D5",
"M$	c #DFD3D7",
"N$	c #F24547",
"O$	c #DEBFC3",
"P$	c #E79497",
"Q$	c #B23433",
"R$	c #A9A5A8",
"S$	c #DF4040",
"T$	c #FA0E0F",
"U$	c #DCC5C9",
"V$	c #98A09F",
"W$	c #DDE2E6",
"X$	c #F1F0F5",
"Y$	c #797E7B",
"Z$	c #E1BCBC",
"`$	c #EAC4C6",
" %	c #E1D4D8",
".%	c #8E7172",
"+%	c #967878",
"@%	c #E3BEC1",
"#%	c #E7E2E5",
"$%	c #E0E1E4",
"%%	c #707C77",
"&%	c #858483",
"*%	c #E1BDC0",
"=%	c #E5C2C3",
"-%	c #DDD2D2",
";%	c #85706F",
">%	c #9C8081",
",%	c #E5C7CA",
"'%	c #DEDFE3",
")%	c #DFDFE3",
"!%	c #DEDBDF",
"~%	c #DED4D8",
"{%	c #DDD6DA",
"]%	c #D8CED3",
"^%	c #565E5C",
"/%	c #A59DA0",
"(%	c #E2BCC0",
"_%	c #E5BFC3",
":%	c #DCC8CC",
"<%	c #949C9B",
"[%	c #E0E3E8",
"}%	c #F0F0F5",
"|%	c #F1F1F6",
"1%	c #6B7875",
"2%	c #8C9593",
"3%	c #919A99",
"4%	c #9EA7AA",
"5%	c #7E8A8A",
"6%	c #788382",
"7%	c #919999",
"8%	c #8E9797",
"9%	c #929C9C",
"0%	c #75807B",
"a%	c #758582",
"b%	c #8B9595",
"c%	c #9EAAAE",
"d%	c #9EABAD",
"e%	c #7F8E8C",
"f%	c #859496",
"g%	c #A0A9AC",
"h%	c #A5AEB1",
"i%	c #A6B0B2",
"j%	c #A4AEB0",
"k%	c #A8B2B3",
"l%	c #AAB2B4",
"m%	c #B0B7BA",
"n%	c #64726F",
"o%	c #8D989B",
"p%	c #AFB6BA",
"q%	c #B1B9BD",
"r%	c #B8C2C5",
"s%	c #979D9D",
"t%	c #E1E3E8",
"u%	c #F3F3F7",
"v%	c #7C8582",
"w%	c #7B8481",
"x%	c #707A77",
"y%	c #495452",
"z%	c #717D79",
"A%	c #878D8B",
"B%	c #868B8A",
"C%	c #4B5753",
"D%	c #828886",
"E%	c #848D89",
"F%	c #858C8F",
"G%	c #686F72",
"H%	c #697273",
"I%	c #5E6767",
"J%	c #5F6767",
"K%	c #5C6765",
"L%	c #6C7375",
"M%	c #7F8688",
"N%	c #858E90",
"O%	c #77807E",
"P%	c #626B69",
"Q%	c #666F6E",
"R%	c #6D7676",
"S%	c #9DA0A3",
"T%	c #E5E6EA",
"U%	c #F7F7F7",
"V%	c #DEDFE2",
"W%	c #DEDFDF",
"X%	c #DBDEDF",
"Y%	c #828D8F",
"Z%	c #ABB5B3",
"`%	c #E7E8E8",
" &	c #D9DCDB",
".&	c #7A8782",
"+&	c #B4BBBB",
"@&	c #E2E3E6",
"#&	c #D5D8DA",
"$&	c #989E9D",
"%&	c #E7E8EA",
"&&	c #E2E5E7",
"*&	c #E0E4E7",
"=&	c #E1E5E8",
"-&	c #DCE2E5",
";&	c #A4AFB1",
">&	c #CCD1D3",
",&	c #D9DDDF",
"'&	c #CBD0CF",
")&	c #AEB2B2",
"!&	c #DBDFE1",
"~&	c #DEE2E5",
"{&	c #DDE1E4",
"]&	c #E5E6E9",
"^&	c #F6F6F7",
"/&	c #FEFEFE",
"(&	c #E5E5E6",
"_&	c #E2E3E4",
":&	c #717A7B",
"<&	c #A9B3B1",
"[&	c #C4C5C5",
"}&	c #E8E8E7",
"|&	c #DADDDC",
"1&	c #65726E",
"2&	c #C3C3C7",
"3&	c #D9D9DD",
"4&	c #8E9495",
"5&	c #D9DCDE",
"6&	c #D3D7DA",
"7&	c #D1D5D8",
"8&	c #919C9D",
"9&	c #C5C9CB",
"0&	c #D0D4D7",
"a&	c #DADEE0",
"b&	c #CCD1D0",
"c&	c #A8ACAD",
"d&	c #CFD3D6",
"e&	c #CDD1D4",
"f&	c #E6E8E9",
"g&	c #FAFAFA",
"h&	c #EDEAE8",
"i&	c #EDEAE7",
"j&	c #E7E7E4",
"k&	c #65746F",
"l&	c #A5AEAE",
"m&	c #ECEAEC",
"n&	c #E9E6E5",
"o&	c #DDDEDD",
"p&	c #677470",
"q&	c #AEB7B8",
"r&	c #E6E5E8",
"s&	c #D9DCDF",
"t&	c #899393",
"u&	c #CFD5D7",
"v&	c #C2C9CC",
"w&	c #C2C6CB",
"x&	c #C3C7CB",
"y&	c #919D9D",
"z&	c #A3B0AC",
"A&	c #AEB3B1",
"B&	c #ABAFAD",
"C&	c #BEC2C1",
"D&	c #979B9B",
"E&	c #BFC3C6",
"F&	c #C3C7CA",
"G&	c #BFC7C9",
"H&	c #E6EAEB",
"I&	c #FCFCFC",
"J&	c #A4AFB2",
"K&	c #A4B0B3",
"L&	c #ABB6B8",
"M&	c #7C8886",
"N&	c #90A0A3",
"O&	c #A9B3B9",
"P&	c #A8B3B7",
"Q&	c #ACB6B8",
"R&	c #7B8787",
"S&	c #95A5A8",
"T&	c #AFBABD",
"U&	c #B1BCBC",
"V&	c #B1BABC",
"W&	c #899191",
"X&	c #E4E3E6",
"Y&	c #878F8F",
"Z&	c #9AA0A0",
"`&	c #9FA3A2",
" *	c #9FA2A3",
".*	c #A9B1B3",
"+*	c #909794",
"@*	c #A6A9AA",
"#*	c #ACAFB1",
"$*	c #B1B5B4",
"%*	c #8F9695",
"&*	c #A0A4A6",
"**	c #A1A5A7",
"=*	c #858E8F",
"-*	c #E9EBEC",
";*	c #707B79",
">*	c #707B7A",
",*	c #737D7D",
"'*	c #93979A",
")*	c #75807E",
"!*	c #717C79",
"~*	c #747D7B",
"{*	c #878F8E",
"]*	c #7A8487",
"^*	c #778182",
"/*	c #7D8687",
"(*	c #A0A0A3",
"_*	c #E1E0E6",
":*	c #909B9A",
"<*	c #CED2D1",
"[*	c #DADCDE",
"}*	c #A5AAAC",
"|*	c #C7CCCA",
"1*	c #D0D1D3",
"2*	c #CACFCE",
"3*	c #9CA6A4",
"4*	c #D2D6D9",
"5*	c #C0C4C7",
"6*	c #D9DEE1",
"7*	c #969FA0",
"8*	c #ECEEEF",
"9*	c #FFFFFF",
"0*	c #D6DADD",
"a*	c #D6D9DC",
"b*	c #D4D9DC",
"c*	c #D4D8DC",
"d*	c #D2D7DA",
"e*	c #CBD2D4",
"f*	c #8E9798",
"g*	c #DEE0E3",
"h*	c #DCDDE1",
"i*	c #A3AAAC",
"j*	c #C5CBCD",
"k*	c #C5C8CA",
"l*	c #DBDBDE",
"m*	c #CDD2D4",
"n*	c #97A0A1",
"o*	c #D9D9DE",
"p*	c #DCDDDE",
"q*	c #DCDEDE",
"r*	c #9A9EA1",
"s*	c #EFF1F2",
"t*	c #CBCFD2",
"u*	c #CACED1",
"v*	c #C9CDD0",
"w*	c #C9CED0",
"x*	c #CACECF",
"y*	c #C9CDCF",
"z*	c #C9CECF",
"A*	c #C8CECF",
"B*	c #939F9E",
"C*	c #8A9393",
"D*	c #8B9292",
"E*	c #8D9595",
"F*	c #9CA8A7",
"G*	c #8F9A99",
"H*	c #7E8887",
"I*	c #828B8B",
"J*	c #A0A8AA",
"K*	c #7F8A8B",
"L*	c #868D8E",
"M*	c #858C8C",
"N*	c #99A0A0",
"O*	c #979CA0",
"P*	c #EFF1F3",
"Q*	c #C6CFD0",
"R*	c #C4CDCF",
"S*	c #C4CDCE",
"T*	c #C4CCCE",
"U*	c #C6CBCE",
"V*	c #C6CACE",
"W*	c #C4CBCE",
"X*	c #C2CBCC",
"Y*	c #C3CCCD",
"Z*	c #C1CACC",
"`*	c #C0C9CB",
" =	c #C1C9CC",
".=	c #C0C8CA",
"+=	c #BFC8CA",
"@=	c #C5CDCF",
"#=	c #C0C8CB",
"$=	c #C2C8CB",
"%=	c #C5CACD",
"&=	c #C4C8CF",
"*=	c #C4C9CE",
"==	c #C3CBCE",
"-=	c #C3CBD0",
";=	c #C3CCD2",
">=	c #C0C9CE",
",=	c #EFF0F3",
"'=	c #919FA7",
")=	c #90A2A6",
"!=	c #90A1A4",
"~=	c #92A1A3",
"{=	c #91A1A2",
"]=	c #91A0A2",
"^=	c #92A0A3",
"/=	c #919EA2",
"(=	c #92A0A5",
"_=	c #909FA2",
":=	c #909FA1",
"<=	c #8D9EA6",
"[=	c #8E9FA7",
"}=	c #8E9DA4",
"|=	c #909DA6",
"1=	c #919DA8",
"2=	c #909EA8",
"3=	c #909DA7",
"4=	c #909DA8",
"5=	c #8F9DA7",
"6=	c #8F9EA8",
"7=	c #8E9DA6",
"8=	c #909FA9",
"9=	c #9AA8B3",
"0=	c #BBC6CE",
"a=	c #F2F5F7",
"b=	c #D1D8DE",
"c=	c #CDD7D9",
"d=	c #CFD6DA",
"e=	c #CED6DA",
"f=	c #CDD4D7",
"g=	c #CDD5D8",
"h=	c #CDD7DB",
"i=	c #CED6D8",
"j=	c #CFD6DB",
"k=	c #D0D7DD",
"l=	c #D1D7DD",
"m=	c #D2D8DE",
"n=	c #D1D8DD",
"o=	c #EAEEF2",
"p=	c #FDFDFD",
". + @ # $ % & * = - ; > , ' - ) ! , ~ { ] ] ^ / ( _ : < [ } | 1 ",
"2 3 4 5 6 7 8 9 0 a b c d e f g h i j k l m n o p q r s t u | 1 ",
"v w x y z 7 A B C D E F G H I m J K L M N O l P Q R S T U V | W ",
"X Y Z `  ...+.@.#.$.%.&.*.=.-.;.>.,.'.).!.~.{.].^./.(._.:.<.| [.",
"}.|.1.2.3.4.5.6.7.8.9.0.a.b.c.d.e.f.g.h.i.j.k.l.m.n.o.p.q.r.| s.",
"t.u.v.w.x.y.z.A.B.C.D.E.F.G.H.I.J.K.L.M.N.O.P.Q.R.S.T.U.V.W.X.Y.",
"Z.`. +.+++@+#+$+%+&+*+=+-+;+>+,+'+)+!+~+{+]+^+3 /+(+_+:+<+[+}+|+",
"1+2+3+4+5+6+7+8+9+0+a+b+c+d+e+f+b+2 g+h+i+j+k+l+m+n+++o+p+q+Y.r+",
"s+t+u+v+w+x+y+z+A+B+C+D+E+F+G+H+I+J+K+L+M+N+O+P+Q+9+R+S+T+U+V+W+",
"X+Y+Z+`+ @.@+@@@#@$@%@&@*@=@-@;@>@,@'@)@!@~@{@]@^@/@(@_@:@<@[@}@",
"|@1@2@3@4@5@6@7@8@9@0@a@b@c@d@e@f@g@h@i@j@k@l@m@n@o@p@q@r@s@t@u@",
"v@w@x@y@z@A@B@C@D@E@F@G@H@I@J@K@L@M@N@O@O@P@Q@Q@R@S@T@U@V@W@X@Y@",
"Z@`@ #.#+#@###$#%#O@&#*#=#-#;#>#,#'#)#: !#~#{#]#h+^#/#(#_#:#<#[#",
"}#|#1#2#3#4#5#6#7#8#9#0#a#b#c#d#e#f#g#h#>+i#j#k#l#m#n#o#p#q#r#s#",
"t#u#v#w#x#y#z#A#B#C#D#E#F#G#H#I#J#K#L#M#N#O#P#Q#R#S#T#U#V#W#X#Y#",
"Z#`#z# $.$+$@$#$$$%$&$*$=$-$;$>$,$'$)$!$~${$]$^$/$($_$:$<$[$s#}$",
"|$1$2$3$4$5$6$7$8$9$0$a$b$c$d$e$f$P+g$h$i$j$k$l$m$n$o$p$q$r$Y#s$",
"t$u$v$w$x$y$z$A$B$C$D$E$F$G$H$I$J$K$L$M$N$O$P$Q$R$S$T$U$V$W$Y#X$",
"Y$Z$`$ %.%+%@%#%$%%%&%*%=%-%;%>%,%'%)%!%~%{%]%^%/%(%_%:%<%[%}%|%",
"1%2%3%4%5%6%7%8%9%0%a%b%c%d%e%f%g%h%i%j%k%l%m%n%o%p%q%r%s%t%X$u%",
"v%w%x%y%z%A%B%v%C%d@D%E%F%G%H%I%J%J%K%Q.L%M%N%O%P%Q%Q%R%S%T%X$U%",
"V%W%X%Y%Z%`%9+ &.&+&@&Q+#&$&%&&&*&=&-&;&|#>&,&'&)&!&~&{&>.]&^&/&",
"8 (&_&:&<&[&}&|&1&*@2&F 3&4&P@5&R 6&7&8&9&0&a&b&c&d&0&0&e&f&g&/&",
"h&i&j&k&l&m&n&o&p&q&r&R+s&t&Q@u&v&w&x&y&z&A&B&C&D&E&E&F&G&H&I&/&",
"J&K&L&M&N&O&P&Q&R&S&T&U&V&W&X&Y&Z&`& *.*+*@*#*$*%*. &***=*-*/&/&",
";*>*,*'*)*!*!*~*{*]*^*6%/*(*_*:*'&<*[*}*|*1*F 2*3*4*5*6*7*8*/&9*",
"v v 0*a*2 b*R c*4*d*4*4*6&7&e*f*g*h*m i*j*k*l*m*n*o*p*q*r*s*/&/&",
"e&t*t*u*v*v*n w*x*n n u*y*z*A*B*C*D*E*F*G*H*I*J*K*L*M*N*O*P*/&/&",
"Q*R*R*R*S*S*T*U*V*W*X*Y*Z*`*Z* =.=+=G&@=#=$=%=&=*===-=;=>=,=/&/&",
"'=)=!=~={=~=]=^=/=(=_=:=<=[=}=|=1=2=3=4=3=5=6=5=7=6=8=9=0=a=/&/&",
"b=c=c=d=e=e=d=d=e=f=g=e=h=h=i=j=k=k=k=l=k=l=m=Y.l=n=V+W+o=I&/&/&",
"p=p=p=p=p=p=p=p=I&I&p=I&p=p=p=p=p=p=p=p=p=p=p=p=p=I&p=/&/&/&/&9*"};
