/* XPM */
static char *hud[] =
{
/* width height ncolors chars_per_pixel */
"32 32 39 2",
/* colors */
"AA c #E7E7E7E7EFEF",
"BA c #D6D6D6D6DEDE",
"CA c #CECECECECECE",
"DA c #BDBDBDBDBDBD",
"EA c #ADADADADB5B5",
"FA c #ADADADADADAD",
"GA c #ADAD9C9CADAD",
"HA c #9C9CA5A59C9C",
"IA c #9C9C9C9CADAD",
"JA c #9C9C9C9C9C9C",
"KA c #8C8CADAD8C8C",
"LA c #8C8C8C8C9C9C",
"MA c #8C8C8C8C8C8C",
"NA c #7B7BBDBD7B7B",
"OA c #7B7B7B7B9C9C",
"PA c #7B7B7B7B8C8C",
"AB c #6B6BC6C66B6B",
"BB c #6B6B6B6B8C8C",
"CB c #6B6B6B6B7B7B",
"DB c #636363636B6B",
"EB c #5A5ACECE5A5A",
"FB c #5A5A63638484",
"GB c #5A5A5A5A7B7B",
"HB c #525252528484",
"IB c #525252526B6B",
"JB c #4A4AD6D64A4A",
"KB c #4A4A52527373",
"LB c #4A4A52526B6B",
"MB c #4A4A4A4A7B7B",
"NB c #4A4A4A4A6B6B",
"OB c #424242425A5A",
"PB c #393942426363",
"AC c #393939397373",
"BC c #393939396B6B",
"CC c #393939395A5A",
"DC c #292929296363",
"EC c #292929295252",
"FC c #292929294A4A",
"GC c #181818185252",
/* pixels */
"FAJAJAFAJAFAJAFAJAFAJAFAJAFAJAFAJAFAJAFAJAFAJAGAHAGAHAGAHAGAHAJA",
"JAJAFAJAJAJAJAJAJAJAJAJAGAJAGAJAJAJAFAJAJAJAHAKAGAHAGAJAHAJAFAFA",
"DADACACAJADACADADACADAJAHANAABKAGAJAJAHAGAJAHAJBABEBEBEBHAFADAJA",
"DACADAFADADAFADAFADADAGAKANAABKAGAHAHAGAJAFAJANANAABABNAKAJAHAFA",
"JAJAJAJAFAJAJAJAJAJAJAHAGAJAGAGAHAJAFAJAHAJAGAGAGAGAGAJAGAJAGAJA",
"FAJAJAFAJAJAFAJAHAGAHAJAHAGAJAJAHAGAJAHAIAJAJAJAJAJAJAGAHAGAHAHA",
"JAFAJAJAJAFAJAFAJAHAGAHAJAHAFAJAJAHAFAJAPABCNBPAJAFAJAHAFAJAJAFA",
"JAJAFAJAFAJAJAJAFAJAHAGAHAGAJAJAFAFAOABBBBJAFAHAFAJAIAJAMAJAFAJA",
"FAJAJAJAJAFAJAJAJAFAJAHAJAHAGAHALANBCBPAFAJAJAGAJAFAJAGBKBIAJAFA",
"JAHAGAJAFAJAHAGAHAJAJAJAFAJAHAFAPBBCLAPABBJAFAHAJAFACBNBPAJAFAJA",
"FAJAHAJAJAFAJAHAGAHAFAJAJAFAJAGBNBJAPAOAOAPAJAHAFAMABCBBJAFAJAJA",
"JAJAJAFAHAJAGAJAHAGAJAJAFAJACBBCPAFAKBJABBCBFAGAJAGBMBJAFAJAJAFA",
"FAJAFAJAJAHAHAGAHAHAJAFAJACBGCCBFAPAHBLBIBHAJAHABBPBJAFAJAJAJAJA",
"JAHAJAJAGAHAGAHAJAJAFAJAHAPAMBPAPAECKBMAHAFAFAPABCPAFAJAJAFAJAFA",
"FAJAGAHAHAGAHAJAFAJAJAGAFAPALABALAPBLAFAFAMABBDCGBFAJAJAHAJAFAJA",
"JAGAHAHAGAHAHAJAJAFAJAHAJACBJAAAEACBPALAFBHBGBPAFAJAHAGAHAGAJAJA",
"HAJAHAGAHAJAGAHAJAJAFAJALACBJALAMAIBCCBCGBPAJAFAJAFAJAHAGAHAHAGA",
"GAJAFAJAJAFAHAJAFAFAMAPAPBOBCBDBOBCBGBCBJAHAFAJAJAJAFAJAHAHAGAHA",
"HAFAJAJAHAJAFAJAMABBGBLALAFCCCCBMAFAJAFAIAGAJAHAFAJAJAGAHAJAHAGA",
"GAJAJAHAGAFALABBHBFCPALAMAOBPAFAFAJAHAJAGAHAHAGAJAHAGAHAJAHAGAHA",
"HAFAFAJAHAPAGBLBGBKBIBIBOBPAFAJAJAFAJAHAJAHAGAHAJAJAHAGAHAGAHAJA",
"IAJAPABCMBGBNBCBPABBNBFCPAFAJAJAFAJAHAGAHAGAHAJAJAFAHAHAGAHAJAFA",
"FAGBPBACGCACLAFAPAOBPBMAFAJAHAGAJAJAFAJAHAJAFAJAFAJAJAHAJAFAJAJA",
"JAPALALAMBKBBCGBOBNBPAFAJAHAGAHAJAFAJAJAFAJAJAFAJAJAHAGAHAJAJAFA",
"JAFAJACBBBFAPABCKBJAFAJAJAFAJAJAHAJAGAHAJAFAJAJAJAFAJAHAGAHAJAJA",
"FAJAHAJAJAGAHAIAJAFAJAJAFAJAHAJAFAJAHAHAGAJAJAJAFAJAFAJAHAGAJAFA",
"JAGAHAJAFAJAHAGAHAJAFAJAJAGAJAFAJAJAFAJAHAGAHAJAJAJAJAFAJAHAJAJA",
"JAHAJAFAJAHAGAJAFAJAJAFAJAJAFAJAJAHAJAGAJAHAJAFAHAGAFAJAJAJAJAFA",
"FAGAHAJAJAHAHAHAJAFAJAJAHAHAJAFAFAJAHAHAGAHAGAJAJAHAKAGAFAFAFAJA",
"DADAJAJAFAJAFAJAGAJAKAEBEBKAFACADAFAGAJAHAGAHAJAGAEBABHADACADADA",
"DAJAHAGAJAJAJAFAJAGAKAHAKAKAGAFAFAJAHAFAJAHAJAFAJAJAKAGAFAFAFAFA",
"JAJAFAJAHAHAGAJAHAHAGAJAJAGAHAJAJAFAHAJAJAJAFAJAGAHAGAHAHAJAJAJA",
};
