/* XPM */
static char *icQTown[] = {
/* width height ncolors chars_per_pixel */
"32 32 96 2",
/* colors */
"AA c #FFFFFFFFFFFF",
"BA c #E8E8F8F8F8F8",
"CA c #D8D8F0F0F0F0",
"DA c #D8D8E8E8F0F0",
"EA c #D8D8E8E8E8E8",
"FA c #C8C8F0F0F0F0",
"GA c #C8C8E8E8F0F0",
"HA c #C8C8E8E8E8E8",
"IA c #C8C8D8D8E0E0",
"JA c #B8B8E8E8F0F0",
"KA c #B8B8E8E8E8E8",
"LA c #B8B8D8D8E8E8",
"MA c #B0B0F0F0F0F0",
"NA c #B0B0C8C8D0D0",
"OA c #A8A8E0E0E8E8",
"PA c #A8A8D8D8E0E0",
"AB c #A0A0D0D0D8D8",
"BB c #A0A0C8C8D8D8",
"CB c #9898E8E8F0F0",
"DB c #9898E0E0E0E0",
"EB c #9898D8D8E0E0",
"FB c #9898D0D0D8D8",
"GB c #9898C8C8D8D8",
"HB c #9898B8B8C8C8",
"IB c #8888D8D8E0E0",
"JB c #8888C8C8D8D8",
"KB c #8888B8B8C8C8",
"LB c #8080A8A8C0C0",
"MB c #8080A8A8B8B8",
"NB c #7878E0E0E8E8",
"OB c #7878D8D8E0E0",
"PB c #7878C8C8D8D8",
"AC c #7878B8B8D0D0",
"BC c #7878B8B8C8C8",
"CC c #6868D0D0D8D8",
"DC c #6868B0B0C0C0",
"EC c #6868A0A0B0B0",
"FC c #6060D8D8E0E0",
"GC c #5858E0E0E8E8",
"HC c #5858C8C8D8D8",
"IC c #5858B8B8D0D0",
"JC c #5858B0B0C8C8",
"KC c #5858A8A8B8B8",
"LC c #58589090A8A8",
"MC c #5050A8A8C8C8",
"NC c #50509898B0B0",
"OC c #4848C0C0D0D0",
"PC c #4848B8B8D0D0",
"AD c #4848B8B8C8C8",
"BD c #48489898B0B0",
"CD c #48488888A0A0",
"DD c #4040D8D8E0E0",
"ED c #40409898C0C0",
"FD c #404080809898",
"GD c #3838A8A8C8C8",
"HD c #38389898B8B8",
"ID c #38388080A0A0",
"JD c #383878789898",
"KD c #3030C8C8D8D8",
"LD c #3030B8B8D0D0",
"MD c #3030B8B8C8C8",
"ND c #303080809898",
"OD c #2828B0B0C8C8",
"PD c #2828A8A8C0C0",
"AE c #28289898B8B8",
"BE c #28288888A8A8",
"CE c #282878789898",
"DE c #2020C8C8D8D8",
"EE c #20208888B0B0",
"FE c #1818D0D0D8D8",
"GE c #1818C8C8D0D0",
"HE c #1818B8B8C8C8",
"IE c #1818A0A0C0C0",
"JE c #18188888B0B0",
"KE c #181870709090",
"LE c #181870708888",
"ME c #181868689090",
"NE c #181868688888",
"OE c #101080809898",
"PE c #0808C8C8D0D0",
"AF c #0808A0A0C0C0",
"BF c #0808A0A0B8B8",
"CF c #08089898B8B8",
"DF c #08088888B0B0",
"EF c #08088080A8A8",
"FF c #08087878A0A0",
"GF c #080878789898",
"HF c #080868688888",
"IF c #080858588080",
"JF c #0000E0E0E0E0",
"KF c #0000D8D8E0E0",
"LF c #0000D8D8D8D8",
"MF c #0000B8B8D0D0",
"NF c #0000B8B8C8C8",
"OF c #000070708888",
"PF c #00006868A0A0",
/* pixels */
"IFGFOFGFGFOFGFGFOFGFOFGFHFGFHFGFHFGFHFGFHFGFHFHFGFHFHFMEHFHFMEHF",
"GFJFJFKFLFKFLFLFKFLFKFPEKFPELFPEPEPEPEMFPENFNFMFNFNFNFNFMFAFNFHF",
"GFKFJFKFKFKFKFKFPEPEPEKFPEPEPEPEPEPEMFPEGEOBCBGEAFMFAFNFAFNFAFGF",
"GFJFKFKFKFLFKFFEGCCBGCPEPEPEPEPEPEMFDDJABAAABAAAMAHCPEAFNFAFNFHF",
"OFKFKFKFLFDDMABAAAAABACANBFEPEMFPEOCCAAAAAAAAAAAAANAHDAFAFNFAFME",
"GFKFJFGCCAAAAAAAAAAAAAAAAAAAJAKDMFDDPAEBKABAEAMBCENEFFNFNFAFAFME",
"GFLFFEJAFABAAAAAAAAAAAAAAAIALBAEMFOCJAEBEBEBIDHFNENEKEAFAFAFAFGF",
"GFKFFEEBDBEBKADAAAAABAGBCDNEHFKEMFDDEBCBDBDBCENENENEEFMFAFAFAFHF",
"OFKFKFDBPACBEBEBOAKBCENENENENEOEMFOCOAPACBPABENENENEOEAFAFAFAFME",
"GFKFFEEBCBPADBDBOANCIFNENEHFJDDCDDOCOAEBEBEBJDNEMENEBEAFAFAFAFHF",
"GFPEFEDBEBDBPACBOAKCIFNECDBBBAAAAACAGAOADBDBNDNENENEGFAFAFCFBFME",
"HFKFKFEBCBPADBEBOABDCDIAAAAAAAAAAAAAAAAAGAEBIDNENENEBEAFCFCFAFHF",
"GFPEFEEBPACBEBOADBNCDCMACAAAAAAAAAAAEAKBJDECIDMEKENEGFAFCFCFCFME",
"MEKFGEEBCBEBDBEBJABDDCOAEBEBKABALALCNEIFNEJCIDNENENEFFCFCFCFCFHF",
"GFPEPEIBPAJAEBEBDBBDKCOADBPAEBJBNENENEKENEKCNDLELCFDGFCFCFDFAFIF",
"GFPEPEPEDDHCJAFABAIAGBJAEBDBOAJBKENENENEHFBCBBDAAAAALAPCAFDFDFME",
"MEPEPEPEDECBBAAAAAAAAABAGAJADBJBKENEMECDNAAAAAAAAAAAAAAADAOBDFME",
"GFPEFCGAAAAAAAAAAAAAAAAAAAAABAABMELENEJBCACAAAAAAAAAAABABBLCDFHF",
"MEPEJACAAAAAAAAAAAAAAAAAAABAHBCDNEMENEPBDBEBOAGAAAIAECCENENEFFME",
"GFGEPADBEBJACAAAAAAAAAIAECCEHFNELEKEEFPBOAOADBDBJBNENENENENEFFHF",
"MEPEFCCBPAEBDBOACAHBIDNEHFNENEKECFBFBFICDBOAOAOAJBKENENENEMEDFHF",
"GFMFMFGEHCIBOAOAEBKENENEKEEFCFAFAFAFAFCFIEPCOBOAFBNEMEKEFFDFDFHF",
"HFPEMFAFMFNFLDCCEBCEKECFAFAFAFAFBFAFCFCFCFDFCFPDJCBEEFDFDFDFDFIF",
"MEMFNFPEMFAFNFAFHEAFNFAFAFAFAFAFAFCFCFCFDFCFDFDFDFDFDFDFDFDFDFME",
"GFNFAFMFAFMFAFNFAFAFAFAFBFBFCFCFDFCFDFAFDFDFCFDFDFDFFFDFDFFFDFIF",
"HFGEOCHCFCOCHEPCOCPCPCMDHEICICICLDIEGDDFCFGDDFDFGDEDPCDFFFDFEDME",
"HFGAAAGAKAAAGAHACAAADAKABABAGADAAALAAAIEICAAMCAEAABAAADADFEDAAKE",
"MEAAHCAFICIBCACFHCBACFGDAAPDDFDFIAPAGAACPAIAEBACHALALADAEBEEAACE",
"OFAAOBAFDBAADAAFPCAACFPDAAADCFCFGAEBJBBADAPDDAAAACLAGBJEAALABACE",
"MEEBAACADAAAGAIEPCBAAFIEHAAADABAAAICJEAAPAPFPAAAJEPAPAPFBDAAAANE",
"HFMFODLDLDIEAFAFAFIEAFCFAFPDEDPDIEDFDFJEDFDFDFJEDFJEJEDFPFJEJEHF",
"HFMEMEMEHFGFMEGFHFMEHFMEMEIFMEIFMEIFMEMEMEMEIFMEIFIFIFIFMEIFIFIF"};
