/* XPM */ 
static char * incremental_save_xpm[] = {
"32 32 755 2",
"  	c None",
"! 	c #C6BAAE",
"# 	c #C2BBA9",
"$ 	c #C3BAA9",
"% 	c #C3BAA8",
"& 	c #C4BBAA",
"' 	c #C5BAA8",
"( 	c #C4BBAC",
") 	c #C6BAAA",
"* 	c #C5B9A9",
"+ 	c #C1BCA8",
", 	c #C2B9AA",
"- 	c #C3B9AD",
". 	c #C2BBAB",
"0 	c #C3BAAB",
"1 	c #C1BAA8",
"2 	c #F6F2D5",
"3 	c #F5F2D1",
"4 	c #F3F2D3",
"5 	c #F5F2D3",
"6 	c #F6F3D4",
"7 	c #F6F3D2",
"8 	c #F2F2D0",
"9 	c #F6F1D1",
": 	c #F4F1CE",
"; 	c #F1F2D2",
"< 	c #F2EFCE",
"= 	c #EDEAC9",
"> 	c #E6E1C4",
"? 	c #DAD9C4",
"@ 	c #D7D4C5",
"A 	c #DDDEBE",
"B 	c #E1DEBF",
"C 	c #E6E7C5",
"D 	c #EFECCD",
"E 	c #F4F1D0",
"F 	c #F3F0CF",
"G 	c #C4BBA9",
"H 	c #F5F0D0",
"I 	c #F4F0CA",
"J 	c #F3F1CB",
"K 	c #F5F1CC",
"L 	c #F4F2CC",
"M 	c #F3EFCA",
"N 	c #F3F0CD",
"O 	c #F6F1CB",
"P 	c #F4F0CB",
"Q 	c #EDEDC7",
"R 	c #E9E9C5",
"S 	c #E1E1BB",
"T 	c #DFDCB9",
"U 	c #D9DCBF",
"V 	c #8A7C79",
"W 	c #6A5E5E",
"X 	c #A9A491",
"Y 	c #C9C4A7",
"Z 	c #D2D2B0",
"[ 	c #E3E0BD",
"] 	c #EDEAC7",
"^ 	c #F1EECB",
"_ 	c #CECBAA",
"` 	c #C2B9A8",
"a 	c #F2F2CC",
"b 	c #F2F0CA",
"c 	c #F3F1CA",
"d 	c #F4F0CD",
"e 	c #EEEEC8",
"f 	c #E5E6C6",
"g 	c #DCDCBA",
"h 	c #D7D1C5",
"i 	c #969080",
"j 	c #877970",
"k 	c #695258",
"l 	c #563F47",
"m 	c #716265",
"n 	c #AAA796",
"o 	c #B7B698",
"p 	c #D2CFB0",
"q 	c #E2E2BE",
"r 	c #EBEBC5",
"s 	c #F0F1C9",
"t 	c #F1F1CB",
"u 	c #F1F1CD",
"v 	c #CCCCAA",
"w 	c #F2F0C9",
"x 	c #EDEFCA",
"y 	c #E5E4C5",
"z 	c #DCD8B3",
"{ 	c #C0B9B1",
"| 	c #7D6E71",
"} 	c #81686E",
"~ 	c #291D21",
" !	c #302529",
"!!	c #836A6D",
"#!	c #4A3A3B",
"$!	c #5F4D4D",
"%!	c #A49E8E",
"&!	c #BCBB9D",
"'!	c #D0CFB0",
"(!	c #E5E2BF",
")!	c #F0EEC8",
"*!	c #CECBAC",
"+!	c #C5B9AB",
",!	c #F4F2CB",
"-!	c #E7E7C5",
".!	c #DDDDB9",
"0!	c #ADA49B",
"1!	c #76676A",
"2!	c #DCD6D8",
"3!	c white",
"4!	c #DAD2CF",
"5!	c #44383C",
"6!	c #231717",
"7!	c #47383B",
"8!	c #574B4D",
"9!	c #624D52",
":!	c #A9A59A",
";!	c #B6B599",
"<!	c #D6D5B6",
"=!	c #E6E6C2",
">!	c #F0EDCA",
"?!	c #F2EECB",
"@!	c #EDEBC5",
"A!	c #DFDFBD",
"B!	c #AFA69D",
"C!	c #3C2D32",
"D!	c #989294",
"E!	c #FEFFFD",
"F!	c #D5D1CE",
"G!	c #EAE9E4",
"H!	c #554949",
"I!	c #302428",
"J!	c #E1D5D5",
"K!	c #FEFFFF",
"L!	c #BAAAAB",
"M!	c #564847",
"N!	c #ADAD95",
"O!	c #C2C1A3",
"P!	c #DDDDBB",
"Q!	c #ECE9C6",
"R!	c #F3F3CF",
"S!	c #F1F2CA",
"T!	c #F5F1CB",
"U!	c #F5EFCB",
"V!	c #EFEBC6",
"W!	c #E8E4C1",
"X!	c #C4BFAC",
"Y!	c #625157",
"Z!	c #2B1F1F",
"[!	c #9A9693",
"]!	c #E8E7E5",
"^!	c #B6B4B5",
"_!	c #A79496",
"`!	c #493A3F",
"a!	c #908885",
"b!	c #D6D5D3",
"c!	c #F2F1EF",
"d!	c #E9E9E7",
"e!	c #614E52",
"f!	c #9A8F89",
"g!	c #A8A88C",
"h!	c #CFCFAD",
"i!	c #E5E5C3",
"j!	c #F3EFC9",
"k!	c #CBCCAD",
"l!	c #F8F9D1",
"m!	c #F7F5CE",
"n!	c #EAEAC6",
"o!	c #D2D1B5",
"p!	c #7C7774",
"q!	c #543F3E",
"r!	c #6D565E",
"s!	c #6E5E61",
"t!	c #AEA5A6",
"u!	c #9D9191",
"v!	c #5E4A4C",
"w!	c #332326",
"x!	c #726366",
"y!	c #B2ACAE",
"z!	c #D6D4D5",
"{!	c #BDB9BA",
"|!	c #58484B",
"}!	c #524741",
"~!	c #99997F",
" #	c #BFBB9E",
"!#	c #DDDAB9",
"##	c #EEEAC5",
"$#	c #F6F0CC",
"%#	c #F2F2CE",
"&#	c #CBC8B9",
"'#	c #B2AC9C",
"(#	c #948983",
")#	c #82808B",
"*#	c #878286",
"+#	c #463636",
",#	c #7B6361",
"-#	c #81686B",
".#	c #675354",
"0#	c #755A5F",
"1#	c #826A6A",
"2#	c #7F666A",
"3#	c #684F53",
"4#	c #958284",
"5#	c #B7AEAF",
"6#	c #7A6868",
"7#	c #0A0605",
"8#	c #645A5B",
"9#	c #A8A69A",
":#	c #A7A78D",
";#	c #E9E6C3",
"<#	c #F0F0CC",
"=#	c #F2F4CF",
">#	c #F6F4CE",
"?#	c #C2BFB0",
"@#	c #5E433A",
"A#	c #775F5D",
"B#	c #7A6353",
"C#	c #C8C3BD",
"D#	c #807070",
"E#	c #745B5F",
"F#	c #796063",
"G#	c #7F656E",
"H#	c #7C656D",
"I#	c #83696C",
"J#	c #856C70",
"K#	c #836A6E",
"L#	c #644E51",
"M#	c #6C5659",
"N#	c #4E3D43",
"O#	c #3D2F2E",
"P#	c #4D383F",
"Q#	c #90817C",
"R#	c #A19F86",
"S#	c #C5C2A3",
"T#	c #E3E0BF",
"U#	c #F1F3CE",
"V#	c #F1F1CF",
"W#	c #837268",
"X#	c #E7CF85",
"Y#	c #FFFAC0",
"Z#	c #DBDCA3",
"[#	c #9BA4AB",
"]#	c #473939",
"^#	c #705B60",
"_#	c #8C6F74",
"`#	c #896F70",
"a#	c #C1A892",
"b#	c #938086",
"c#	c #81686C",
"d#	c #856A71",
"e#	c #816A72",
"f#	c #7C6265",
"g#	c #5C4847",
"h#	c #634F51",
"i#	c #574247",
"j#	c #52454C",
"k#	c #84817C",
"l#	c #878973",
"m#	c #BABB9B",
"n#	c #DBDABB",
"o#	c #EFEBC8",
"p#	c #CFCCAD",
"q#	c #C4B8AC",
"r#	c #F5F6CA",
"s#	c #B1B1A9",
"t#	c #AF9050",
"u#	c #F5F0CA",
"v#	c #E4E587",
"w#	c #E7E9B8",
"x#	c #B1B4BD",
"y#	c #392D31",
"z#	c #725C5E",
"{#	c #856C72",
"|#	c #8F726E",
"}#	c #E9B272",
"~#	c #85717A",
" $	c #85686D",
"!$	c #8C6E6C",
"#$	c #D19765",
"$$	c #725B63",
"%$	c #6F5B5D",
"&$	c #81676A",
"'$	c #675758",
"($	c #6B6B69",
")$	c #56574F",
"*$	c #807F6A",
"+$	c #B4B49A",
",$	c #DCD8B5",
"-$	c #CCCBAD",
".$	c #F3F3D1",
"0$	c #F8F4CF",
"1$	c #8C8276",
"2$	c #D3BE91",
"3$	c #EDEFB0",
"4$	c #C5C273",
"5$	c #C2BCA6",
"6$	c #7E6D73",
"7$	c #534343",
"8$	c #785F62",
"9$	c #866D70",
":$	c #886B6F",
";$	c #8A6C6A",
"<$	c #846A6B",
"=$	c #8A6D72",
">$	c #886D72",
"?$	c #9C8482",
"@$	c #836972",
"A$	c #836871",
"B$	c #735A60",
"C$	c #433A3F",
"D$	c #6F7779",
"E$	c #4A4B3D",
"F$	c #6E6754",
"G$	c #A8A28A",
"H$	c #D3D3B1",
"I$	c #CBCBA9",
"J$	c #F2F4CD",
"K$	c #F3EFCC",
"L$	c #EBE9C2",
"M$	c #A59E98",
"N$	c #B5A38F",
"O$	c #BEB0B0",
"P$	c #8F7E86",
"Q$	c #A48F98",
"R$	c #999395",
"S$	c #544041",
"T$	c #80676B",
"U$	c #866B70",
"V$	c #826C6F",
"W$	c #896A6F",
"X$	c #7E6874",
"Y$	c #6A626D",
"Z$	c #726262",
"[$	c #716058",
"]$	c #796355",
"^$	c #71594C",
"_$	c #4B3C29",
"`$	c #544B3C",
"a$	c #838168",
"b$	c #9B8F69",
"c$	c #AC9971",
"d$	c #917D4A",
"e$	c #C7C7AD",
"f$	c #E3DFBC",
"g$	c #EDEBC4",
"h$	c #CBCAAE",
"i$	c #EDEDC9",
"j$	c #D8D1C7",
"k$	c #4F4347",
"l$	c #4F3E48",
"m$	c #A9A08F",
"n$	c #A39F7A",
"o$	c #9B9692",
"p$	c #504242",
"q$	c #7E656B",
"r$	c #836D6F",
"s$	c #866C77",
"t$	c #60645E",
"u$	c #6C6C4F",
"v$	c #858367",
"w$	c #8D8C75",
"x$	c #908D7B",
"y$	c #97917B",
"z$	c #A49E86",
"{$	c #C4C3BE",
"|$	c #E3E2E7",
"}$	c #E7DBB5",
"~$	c #846F36",
" %	c #B8B79B",
"!%	c #D4D1B2",
"#%	c #E4E4C0",
"$%	c #C8C8A6",
"%%	c #ECECC6",
"&%	c #D9D5AF",
"'%	c #E4E2D6",
"(%	c #A59C9F",
")%	c #6E5B5F",
"*%	c #847771",
"+%	c #B5AF9F",
",%	c #978F8D",
"-%	c #574345",
".%	c #785E61",
"0%	c #866C6F",
"1%	c #826B6A",
"2%	c #696D67",
"3%	c #938E64",
"4%	c #BFBA9A",
"5%	c #C9CCBA",
"6%	c #D0D3BB",
"7%	c #D3D5A4",
"8%	c #D0D3A3",
"9%	c #D0D1A5",
":%	c #D4D8A6",
";%	c #E2E1A8",
"<%	c #F1F4BF",
"=%	c #C3A640",
">%	c #5C5344",
"?%	c #A3A38B",
"@%	c #C3C4A5",
"A%	c #DBDBB9",
"B%	c #C8C3A6",
"C%	c #C6BAAC",
"D%	c #EFEDC7",
"E%	c #E0E0BC",
"F%	c #959192",
"G%	c #A98F5C",
"H%	c #B7A57F",
"I%	c #BEB6AB",
"J%	c #978488",
"K%	c #6E5550",
"L%	c #766432",
"M%	c #76652F",
"N%	c #817144",
"O%	c #94835B",
"P%	c #B0A984",
"Q%	c #D1D2B4",
"R%	c #E7E9B4",
"S%	c #EFF0AE",
"T%	c #F1F2A8",
"U%	c #EFF09C",
"V%	c #EEED95",
"W%	c #ECEB90",
"X%	c #F1ED92",
"Y%	c #F5F794",
"Z%	c #FAF28D",
"[%	c #786429",
"]%	c #69675B",
"^%	c #939276",
"_%	c #B8B799",
"`%	c #D7D4B5",
"a%	c #C3C2A4",
"b%	c #F5F2CF",
"c%	c #E5E5BF",
"d%	c #979598",
"e%	c #B19554",
"f%	c #C6AF79",
"g%	c #B1A374",
"h%	c #8A6F54",
"i%	c #8F7D59",
"j%	c #9C987D",
"k%	c #ABAD98",
"l%	c #C0BFA8",
"m%	c #CDCDAB",
"n%	c #E0DFB5",
"o%	c #ECEEB8",
"p%	c #F9F9B3",
"q%	c #FDFDB5",
"r%	c #FDFBAF",
"s%	c #FDFAA8",
"t%	c #FBF89F",
"u%	c #FCF898",
"v%	c #FCF793",
"w%	c #FFFF9F",
"x%	c #DAC353",
"y%	c #55472D",
"z%	c #676559",
"{%	c #8F8C79",
"|%	c #B4B395",
"}%	c #D5D2B3",
"~%	c #C2C3A3",
" &	c #ECE9C0",
"!&	c #AFACA7",
"#&	c #BB9D47",
"$&	c #E2C382",
"%&	c #C3B6B0",
"&&	c #937E4F",
"'&	c #BBB897",
"(&	c #C5C98E",
")&	c #D3D485",
"*&	c #E4E396",
"+&	c #EDEEA2",
",&	c #F6F4A6",
"-&	c #FAF9AF",
".&	c #BEBE8A",
"0&	c black",
"1&	c #807F5A",
"2&	c #FFFAA9",
"3&	c #FEF9A1",
"4&	c #FFF69F",
"5&	c #FEF795",
"6&	c #FEFE8F",
"7&	c #968046",
"8&	c #47423C",
"9&	c #6D6E5C",
":&	c #90927C",
";&	c #B9B99F",
"<&	c #D7D6B7",
"=&	c #C7C3A6",
">&	c #BEBAAF",
"?&	c #CAA43F",
"@&	c #E6C06B",
"A&	c #C6993B",
"B&	c #C2AD82",
"C&	c #D5D5A1",
"D&	c #E0DC85",
"E&	c #EAE990",
"F&	c #F8F59F",
"G&	c #FCFAAB",
"H&	c #FDFDB1",
"I&	c #FEFCB3",
"J&	c #BFBE8B",
"K&	c #807E5B",
"L&	c #FFFAAE",
"M&	c #FFF9AD",
"N&	c #FEF6A2",
"O&	c #FFF69B",
"P&	c #F5E278",
"Q&	c #72643D",
"R&	c #4F504B",
"S&	c #7D7A67",
"T&	c #A2A089",
"U&	c #C6C5A7",
"V&	c #E0DEB8",
"W&	c #C8C7A8",
"X&	c #C1BCA9",
"Y&	c #F1EFC9",
"Z&	c #CDCCB7",
"[&	c #B09254",
"]&	c #F1C974",
"^&	c #DAA630",
"_&	c #DDD1A7",
"`&	c #EDE99F",
"a&	c #F3E98A",
"b&	c #F9F398",
"c&	c #FEF9A7",
"d&	c #FFFDB0",
"e&	c #9F9E73",
"f&	c #807F5E",
"g&	c #606047",
"h&	c #40402F",
"i&	c #807F5D",
"j&	c #807E5A",
"k&	c #FFF6A7",
"l&	c #FEF79B",
"m&	c #D1BF74",
"n&	c #4A4A40",
"o&	c #6A6859",
"p&	c #8A8E75",
"q&	c #B2B193",
"r&	c #D3D0AF",
"s&	c #EAE6C1",
"t&	c #C9C8AA",
"u&	c #F3F3CD",
"v&	c #F1EFC8",
"w&	c #D8D8BC",
"x&	c #B19251",
"y&	c #F1C467",
"z&	c #DEB54C",
"{&	c #ECE5B9",
"|&	c #F8ED94",
"}&	c #F8EA87",
"~&	c #FDF396",
" '	c #FEF8A3",
"!'	c #FFFBB0",
"#'	c #FEF4A6",
"$'	c #FFF196",
"%'	c #BDAC6E",
"&'	c #494B46",
"''	c #787763",
"('	c #9D9D85",
")'	c #C4BEA4",
"*'	c #DEDBBC",
"+'	c #CCCBAC",
",'	c #EFECC9",
"-'	c #B19049",
".'	c #EBBB4D",
"0'	c #E2C275",
"1'	c #FBF2C7",
"2'	c #FDE782",
"3'	c #FBE983",
"4'	c #FFED8D",
"5'	c #FEF39B",
"6'	c #FFF6A6",
"7'	c #CFCA8C",
"8'	c #BFBA83",
"9'	c #8F8D68",
":'	c #605E43",
";'	c #BFB881",
"<'	c #BFB77F",
"='	c #FFF19F",
">'	c #FFE78E",
"?'	c #95885B",
"@'	c #5E5E52",
"A'	c #898873",
"B'	c #AFAE90",
"C'	c #CECFAF",
"D'	c #E8E4BF",
"E'	c #F1EECD",
"F'	c #E0E1BF",
"G'	c #A5864D",
"H'	c #EEC364",
"I'	c #E7D293",
"J'	c #FDEEAD",
"K'	c #FFE076",
"L'	c #FDE480",
"M'	c #FFE383",
"N'	c #FFEB8E",
"O'	c #FDEF98",
"P'	c #FFED9A",
"Q'	c #FFF3A4",
"R'	c #BFBB87",
"S'	c #807A55",
"T'	c #FAE991",
"U'	c #F7DF7F",
"V'	c #E8CB61",
"W'	c #9B8A51",
"X'	c #686250",
"Y'	c #727562",
"Z'	c #9B9B81",
"['	c #C0BCA1",
"]'	c #DDDABB",
"^'	c #ECE8C5",
"_'	c #C6BBA9",
"`'	c #E3DEBE",
"a'	c #927E63",
"b'	c #F3E4CD",
"c'	c #F0E0AF",
"d'	c #FDDF85",
"e'	c #FEDB73",
"f'	c #FDDF7C",
"g'	c #FEE17E",
"h'	c #FFE582",
"i'	c #FEED88",
"j'	c #FFE481",
"k'	c #F7E58F",
"l'	c #C8C082",
"m'	c #3D3C29",
"n'	c #8D8555",
"o'	c #B6A969",
"p'	c #7D7456",
"q'	c #625947",
"r'	c #555347",
"s'	c #65675A",
"t'	c #898971",
"u'	c #AEAC93",
"v'	c #CECAAD",
"w'	c #E4E0BB",
"x'	c #E2DFBE",
"y'	c #957B58",
"z'	c #E1C478",
"{'	c #FFF1D4",
"|'	c #FFD869",
"}'	c #FFD765",
"~'	c #FFD660",
" (	c #FED360",
"!(	c #EABE5B",
"#(	c #D5B463",
"$(	c #BFA755",
"%(	c #AD9E5E",
"&(	c #ABA778",
"'(	c #ACAA85",
"((	c #9E9E7E",
")(	c #8D8E71",
"*(	c #70705D",
"+(	c #5F6057",
",(	c #716C59",
"-(	c #82846C",
".(	c #A49E88",
"0(	c #C3BFA4",
"1(	c #D8D8B6",
"2(	c #E9E7C0",
"3(	c #EFEFCB",
"4(	c #CFCBAE",
"5(	c #F0EDCC",
"6(	c #E3E3BD",
"7(	c #9E8A69",
"8(	c #E7C56B",
"9(	c #E8C96E",
":(	c #C19528",
";(	c #9C7B2C",
"<(	c #866E26",
"=(	c #887034",
">(	c #695928",
"?(	c #4C4331",
"@(	c #4B4D4E",
"A(	c #737562",
"B(	c #8C8E72",
"C(	c #969674",
"D(	c #908F71",
"E(	c #84856B",
"F(	c #7F806B",
"G(	c #81806B",
"H(	c #91907B",
"I(	c #A3A188",
"J(	c #C1B9A2",
"K(	c #E2E2C0",
"L(	c #CBCAAB",
"M(	c #C6B8AB",
"N(	c #F5F3CC",
"O(	c #988A7F",
"P(	c #917B56",
"Q(	c #816E44",
"R(	c #695F3C",
"S(	c #3C4043",
"T(	c #454948",
"U(	c #545A50",
"V(	c #606056",
"W(	c #6C6B56",
"X(	c #787760",
"Y(	c #878470",
"Z(	c #909278",
"[(	c #94927A",
"](	c #9B967F",
"^(	c #9F9E89",
"_(	c #AAAA8E",
"`(	c #C5C4A6",
"a(	c #D6D3B2",
"b(	c #EBEBC7",
"c(	c #F0EEC7",
"d(	c #CDCCB0",
"e(	c #AAA794",
"f(	c #8C8C80",
"g(	c #7C7C70",
"h(	c #706E5F",
"i(	c #716F60",
"j(	c #737560",
"k(	c #7E7D68",
"l(	c #868370",
"m(	c #8F8D78",
"n(	c #999782",
"o(	c #A0A386",
"p(	c #A9A98F",
"q(	c #BFBBA0",
"r(	c #CDCCAD",
"s(	c #D4D3B4",
"t(	c #E6E3C0",
"u(	c #EAEAC8",
"v(	c #E8E8C6",
"w(	c #C6C3A4",
"x(	c #BCBB9F",
"y(	c #B2B097",
"z(	c #A2A087",
"{(	c #8D8D75",
"|(	c #7C7B67",
"}(	c #767767",
"~(	c #787661",
" )	c #7D7F6A",
"!)	c #858472",
"#)	c #8D8C77",
"$)	c #94947A",
"%)	c #9A9984",
"&)	c #A0A086",
"')	c #A6A68C",
"()	c #AAAA90",
"))	c #AEAE94",
"*)	c #B4B498",
"+)	c #B7B79B",
",)	c #C1BDA0",
"-)	c #C2BEA1",
".)	c #C4C3A4",
"0)	c #C2C3A4",
"1)	c #C4C3A5",
"2)	c #C3C4A4",
"3)	c #A5A488",
"4)	c #C3BBAE",
"! # $ $ % % & ' ( # ) % # * $ * + ( ' , - . 0 $ ( , $ $ ( 0 $ $ ",
"1 2 3 4 5 6 4 7 8 3 4 9 : ; < = > ? @ A B C D E 3 3 3 3 F 3 F # ",
"G H I J K J L M L N O P Q R S T U V W X Y Z [ ] ^ : N N N N _ ( ",
"` 7 J a b L c : J : d e f g h i j k l m n o p q r s b L t u v ` ",
"$ 3 J N N L J J L w x y z { | } ~  !!!#!$!%!&!'!(!)!b J L N *!+!",
"$ 3 L t L J L ,!,!Q -!.!0!1!2!3!4!5!6!7!8!9!:!;!<!=!>!L J : *!# ",
"$ 3 J J J L J E ?!@!A!B!C!D!E!F!G!H!I!J!K!L!M!N!O!P!Q!b ,!J *!& ",
"` R!S!T!U!c N : V!W!X!Y!Z![!]!^!_!`!a!b!c!d!e!f!g!h!i!)!: j!k!$ ",
"( : E u L a l!m!n!o!p!q!r!s!t!u!v!w!x!y!z!{!|!}!~! #!###J $#k!$ ",
"$ 9 c %#t P &#'#(#)#*#+#,#-#.#0#1#2#3#4#5#6#7#8#9#:#'!;#<#c *!$ ",
"* =#K U!>#?#@#A#B#C#D#E#F#G#H#I#J#J#K#L#M#N#O#P#Q#R#S#T#>!U#_ $ ",
") : S!%#V#W#X#Y#Z#[#]#^#_#`#a#b#c#d#e#f#g#h#i#j#k#l#m#n#o#P p#$ ",
"q#3 a r#s#t#u#v#w#x#y#z#{#|#}#~# $!$#$$$%$&$'$($)$*$+$,$] P -$$ ",
". .$M 0$1$2$3$4$5$6$7$8$9$:$;$<$=$>$?$@$A$B$C$D$E$F$G$H$-!t I$$ ",
"0 J$K$L$M$N$O$P$Q$R$S$T$U$V$W$X$Y$Z$[$]$^$_$`$a$b$c$d$e$f$g$h$$ ",
"0 R!i$n#j$k$l$m$n$o$p$q$r$U$s$t$u$v$w$x$y$z$'#{$|$}$~$ %!%#%$%$ ",
"+!3 %%&%'%(%)%*%+%,%-%.%0%1%2%3%4%5%6%7%8%9%:%;%<%=%>%?%@%A%B%$ ",
"C%: D%E%F%G%H%I%J%K%L%M%N%O%P%Q%R%S%T%U%V%W%X%Y%Z%[%]%^%_%`%a%$ ",
"$ b%?!c%d%e%f%g%h%i%j%k%l%m%n%o%p%q%r%s%t%u%v%w%x%y%z%{%|%}%~%$ ",
"& 5 J  &!&#&$&%&&&'&(&)&*&+&,&-&.&0&1&2&3&4&5&6&7&8&9&:&;&<&=&$ ",
"` 5 J D%>&?&@&A&B&C&D&E&F&G&H&I&J&0&K&L&M&N&O&P&Q&R&S&T&U&V&W&$ ",
"X&3 d Y&Z&[&]&^&_&`&a&b&c&d&e&f&g&0&h&i&j&k&l&m&n&o&p&q&r&s&t&$ ",
"( E u&v&w&x&y&z&{&|&}&~& '!'h&0&0&0&0&0&0&#'$'%'&'''(')'*'Q!+'$ ",
"% 4 ,!,'A!-'.'0'1'2'3'4'5'6'7'8'9'0&:';'<'='>'?'@'A'B'C'D'E'*!$ ",
"$ : $#,'F'G'H'I'J'K'L'M'N'O'P'Q'R'0&S'T'U'V'W'X'Y'Z'[']'^'J _ _'",
"$ .$%#Y&`'a'b'c'd'e'f'g'h'i'j'k'l'm'n'o'p'q'r's't'u'v'w'^ a *!0 ",
"$ 5 : s x'y'z'{'|'}'~' (!(#($(%(&('((()(*(+(,(-(.(0(1(2(3(u 4(G ",
"- .$K 5(6(7(8(9(:(;(<(=(>(?(@(A(B(C(D(E(F(G(H(I(J(Z K(>!u K L(, ",
"M(: N(Y&;#O(P(Q(R(n&S(T(U(V(W(X(Y(Z([(](^(_(o `(a(q b(c(K P v * ",
"+!R!c F c%d(e(f(g(h(i(j(k(l(m(n(o(p(;!q(=&r(s(g t(u(3(c E N -$* ",
"$ v(w(a%x(y(z({(|(}(~( )!)#)$)%)&)')()))*)+)x(,)-).)0)1)1)2)3)- ",
"4)$ & $ 0 $ $ $ $ $ $ $ $ $ $ $ $ $ $ $ $ $ $ $ $ $ $ $ $ $ $ . "};