/* XPM */
static char *1_xpm[]={
"32 32 262 2",
"      c #FF9600",
" 0    c #FE9500",
" 1    c #FD9500",
" 2    c #FB9400",
" 3    c #FA9300",
" 4    c #FC9400",
" 5    c #F79100",
" 6    c #F28E00",
" 7    c #EF8D00",
" 8    c #ED8B00",
" 9    c #F69100",
" a    c #F99200",
" b    c #F08D00",
" c    c #F59000",
" d    c #F89200",
" e    c #F38F00",
" f    c #EC8B00",
" g    c #E58700",
" h    c #DF8300",
" i    c #DB8100",
" j    c #EB8A00",
" k    c #E18400",
" l    c #E08400",
" m    c #E38600",
" n    c #E68700",
" o    c #EA8A00",
" p    c #E98900",
" q    c #E28500",
" r    c #EE8C00",
" s    c #DE8300",
" t    c #D47D00",
" u    c #CB7700",
" v    c #C77500",
" w    c #D37C00",
" x    c #DC8100",
" y    c #DD8200",
" z    c #D07A00",
" A    c #CF7A00",
" B    c #D87F00",
" C    c #CE7900",
" D    c #D27C00",
" E    c #DA8000",
" F    c #F49000",
" G    c #CD7900",
" H    c #DBB176",
" I    c #F3E9DA",
" J    c #FCFCFC",
" K    c #F7F2EB",
" L    c #C97600",
" M    c #D17B00",
" N    c #D57D00",
" O    c #E0BC86",
" P    c #F8F3EB",
" Q    c #E1B576",
" R    c #D9A965",
" S    c #E9C897",
" T    c #DF8A11",
" U    c #E3C497",
" V    c #E0C297",
" W    c #BF7000",
" X    c #C37300",
" Y    c #C07100",
" Z    c #DCB986",
" &    c #C57400",
"0     c #CF9D54",
"00    c #E2A143",
"01    c #E88800",
"02    c #D19743",
"03    c #EBDDCA",
"04    c #CCA876",
"05    c #EADDCA",
"06    c #C48F43",
"07    c #B26900",
"08    c #B57211",
"09    c #DABE97",
"0a    c #C28E43",
"0b    c #D7AF76",
"0c    c #C17200",
"0d    c #BC6F00",
"0e    c #EDDECA",
"0f    c #C08D43",
"0g    c #D1A465",
"0h    c #F5EADA",
"0i    c #E3A143",
"0j    c #E6CCA8",
"0k    c #F1E8DA",
"0l    c #B06F11",
"0m    c #AB6500",
"0n    c #AA6400",
"0o    c #AF6E11",
"0p    c #F6F2EB",
"0q    c #DEC8A8",
"0r    c #A56100",
"0s    c #BB8A43",
"0t    c #A15F00",
"0u    c #B66B00",
"0v    c #C58222",
"0w    c #B86C00",
"0x    c #B88843",
"0y    c #A76200",
"0z    c #B56A00",
"0A    c #CC7F11",
"0B    c #C67400",
"0C    c #D2AC76",
"0D    c #B76C00",
"0E    c #B36900",
"0F    c #D6B586",
"0G    c #F6F1EB",
"0H    c #9E5D00",
"0I    c #B68743",
"0J    c #AB7222",
"0K    c #A86300",
"0L    c #BE7000",
"0M    c #C29C65",
"0N    c #A46000",
"0O    c #C87600",
"0P    c #E78800",
"0Q    c #CE8E32",
"0R    c #C99243",
"0S    c #C27200",
"0T    c #CA9954",
"0U    c #A87022",
"0V    c #E9DCCA",
"0W    c #B78132",
"0X    c #B06800",
"0Y    c #B96D00",
"0Z    c #BD6F00",
"0&    c #C19454",
"1     c #C47300",
"10    c #D09643",
"11    c #B37E32",
"12    c #E3D1B9",
"13    c #BA6D00",
"14    c #E6D3B9",
"15    c #BF7711",
"16    c #CF9543",
"17    c #D77E00",
"18    c #CC9343",
"19    c #BF8C43",
"1a    c #B98232",
"1b    c #E7D4B9",
"1c    c #B97411",
"1d    c #ECDECA",
"1e    c #C87C11",
"1f    c #D98000",
"1g    c #E48600",
"1h    c #CC7800",
"1i    c #CB9343",
"1j    c #BA7C22",
"1k    c #DABF97",
"1l    c #CEA365",
"1m    c #D0AA76",
"1n    c #E1C397",
"1o    c #C58932",
"1p    c #CB9A54",
"1q    c #B46A00",
"1r    c #AD6600",
"1s    c #BF9354",
"1t    c #E1C9A8",
"1u    c #B57F32",
"1v    c #EFE7DA",
"1w    c #CB8522",
"1x    c #C89854",
"1y    c #D5B586",
"1z    c #AE6600",
"1A    c #D4BB97",
"1B    c #E5D3B9",
"1C    c #F2E9DA",
"1D    c #AB6B11",
"1E    c #D9BE97",
"1F    c #C68A32",
"1G    c #C07811",
"1H    c #A25F00",
"1I    c #D5BC97",
"1J    c #C28732",
"1K    c #C49D65",
"1L    c #F18E00",
"1M    c #DEBA86",
"1N    c #B78743",
"1O    c #BB9154",
"1P    c #E8DCCA",
"1Q    c #D5AE76",
"1R    c #F2E8DA",
"1S    c #C69E65",
"1T    c #CFAA76",
"1U    c #D3AD76",
"1V    c #F0E7DA",
"1W    c #CB7E11",
"1X    c #EEE6DA",
"1Y    c #A26711",
"1Z    c #A66200",
"1&    c #D1AB76",
"2     c #B67211",
"20    c #C48832",
"21    c #D39843",
"22    c #D08F32",
"23    c #EAD6B9",
"24    c #F5F1EB",
"25    c #EADCCA",
"26    c #B27722",
"27    c #B27011",
"28    c #E8D5B9",
"29    c #C88A32",
"2a    c #DFBB86",
"2b    c #CD9543",
"2c    c #C79143",
"2d    c #CBA165",
"2e    c #BF7E22",
"2f    c #BB6E00",
"2g    c #C78322",
"2h    c #D18F32",
"2i    c #CA7700",
"2j    c #CE8011",
"2k    c #D59943",
"2l    c #D49843",
"2m    c #D6A765",
"2n    c #D67E00",
"2o    c #D68B22",
"2p    c #EBC897",
"2q    c #D98611",
"2r    c #E47D05",
"2s    c #E37D05",
"2t    c #E27C05",
"2u    c #E07B05",
"2v    c #DE7A05",
"2w    c #DB7805",
"2x    c #D87705",
"2y    c #D47405",
"2z    c #D07205",
"2A    c #CD7004",
"2B    c #CB6F04",
"2C    c #CF7105",
"2D    c #D37405",
"2E    c #D77605",
"2F    c #DF7A05",
"2G    c #E17C05",
"2H    c #781919",
"2I    c #B68383",
"2J    c #8A3737",
"2K    c #9B5656",
"2L    c #771919",
"2M    c #751818",
"2N    c #AA7373",
"2O    c #843636",
"2P    c #B28282",
"2Q    c #721818",
"2R    c #741818",
"2S    c #761919",
"2T    c #AC7474",
"2U    c #924646",
"2V    c #F3EDED",
"2W    c #D0B0B0",
"2X    c #812828",
"2Y    c #BE9292",
"2Z    c #B58383",
"2&    c #EADEDE",
"3     c #D8BFBF",
"30    c #E2CFCF",
"31    c #D9BFBF",
"32    c #A46565",
"33    c #AD7474",
"34    c #C7A1A1",
"     0 0 1 2 2 3 3 2 2 1 0 0 0 1 2 2 2 2 2 4 1 4 2 2 2 2 2 4 0 0",
"   0 1 3 5 6 7 8 8 7 6 9 a 3 a 9 6 b 7 b 6 c 9 c 6 b 7 b 6 9 3 4",
" 0 4 d e f g h i i h g j b 6 b f g k l m n o f p g q l q n r c 3",
" 1 d 6 p s t u v v u w x m n m y t z A w B s h i t z C D E n 7 5",
" 2 F p x G H I J J K H L M N w u O J J P Q z z L R P J J S T o F",
" d 8 h C U J J J J J J V W X Y Z J J J J J & X0  J J J J J0001 6",
" e n N02 J J03040405 J J060708 J J090a0b P0c0d0e J050f0g0h0i p e",
" 7 h G0j J0k0l0m0n0o0p J0q0r0s J J0t0m0u0v W0w J J0x0y0z0A T j c",
" j E0B J J0C0z0w0D0E0F J0G0H0I J J0J0K0E0d0L0u J J0M0N0E0O x j c",
"0P N0Q J J0R0S v0B W0T J J0H0U J J0V0W0X0Y0Z0D0k J0G0&0X1  B p e",
" g w10 J J0Z u D M0O0R J J110t12 J J J0F0E130w0C J J J1415 z q 7",
" m M16 J J W A17 N u18 J J190n1a0p J J J1b0z0Y1c1d J J J K1e1f p",
"1g M16 J J0L1h w D L1i J J1j0z0z081k J J J1l0Y0Y0E1m0p J J1n A m",
" n w10 J J1o X L0O0c1p J J1q0d0Z0w1r1s J J1t0u130D1r1u1v J K L y",
" p171w J J1x0u0Y0w0E1y J0k1q0d W131z0t1A J1B0E0w0u1z0N0M J J0B i",
" f i0O1C J140n0n0K1D0G J1E0X1F1G0D1r1H1I J1B081J1q1r0N1K J J0O y",
"1L q z1M J J0q1N1O1P J J0J0n1Q1R1l191S J J1T06 K1U0f0&1V J0j C k",
" c p E1W K J J J J J J1X1Y1Z1& J J J J J K2 20 J J J J J J21170P",
" a b1g N2223 J J J1v24 J25262728 J J J I290c0S2a J J J K R M q 7",
" 4 9 7 m17 G1w2b2c1z2d J J J2e2f2g022h2i z t t z2j2k2l u t l f c",
" 0 2 9 70P l B D u & W2m J J2l u z t E y q g1g l y E E y g 8 c 3",
" 0 0 2 d e 7 j n k i2n M2o2p2q y q n j r1L 6 6 7 f j j r 6 9 3 1",
"2r2r2s2t2u2u2v2w2x2y2z2A2B2B2C2D2E2w2v2F2u2u2u2u2v2v2v2F2u2G2s2s",
"2H2H2H2I2I2I2J2K2L2M2N2O2P2P2Q2R2S2T2I2K2H2H2I2I2U2H2I2I2I2I2H2H",
"2H2H2U2V2W2W2U2V2X2Y2Y2Z2&3 3 2S2Z2&2W2V2K2U2V2W2V2U2W302&2W2X2H",
"2H2H2U2V2H2H2H312I2V2J2I2W2H2V2U2V2U2H2I2W2U2V2H312I2H2I2W2H2H2H",
"2H2H2U2V2I2K2H322V2W2H2I2W2H2V2U2V2H2H2K2V2U2V2U2&322H2I2W2H2H2H",
"2H2H2U2V2W2I2H2X2V2I2H2I2&30312U2V2H2H2U2V2U2V2V2W2H2H2I2W2H2H2H",
"2H2H2U2V2H2H2H2I302&2H2I30332H2U2V2H2H32302U2V2J2V2X2H2I2W2H2H2H",
"2H2H2U2V2H2H2H2&2K30322I2W2H2H2H2V2K2H2W2Y2U2V2H30332H2I2W2H2H2H",
"2H2H2U2V2V2V2I302H2I312I2W2H2H2H322V2V2&2X2U2V2H2I342H2I2W2H2H2H",
"2H2H2H2U2U2U2H2X2H2H2J2H2X2H2H2H2H2J2U2H2H2H2J2H2H2X2H2H2X2H2H2H"};
