/* XPM */
static char * image_name[]={
"32 32 80 2",
"  	c #ABABAB",
". 	c #BDBDBD",
"X 	c #C4C4C4",
"o 	c #C9C9C9",
"O 	c #919191",
"+ 	c #A1A1A1",
"@ 	c #ADADAD",
"# 	c #B0B0B0",
"$ 	c #949494",
"% 	c #707070",
"& 	c #7D7D7D",
"* 	c #858585",
"= 	c #8A8A8A",
"- 	c #9B7071",
"; 	c #6B3939",
": 	c #5C5C5C",
"> 	c #636363",
", 	c #696969",
"< 	c #6E6E6E",
"1 	c #1F1F1F",
"2 	c #575757",
"3 	c #616161",
"4 	c #666666",
"5 	c #141414",
"6 	c #4F4F4F",
"7 	c #5E5E5E",
"8 	c #212121",
"9 	c #121212",
"0 	c #1A1A1A",
"q 	c #242424",
"w 	c #545454",
"e 	c #595959",
"r 	c #B8860B",
"t 	c #171717",
"y 	c #474747",
"u 	c #1C1C1C",
"i 	c #F2DE0D",
"p 	c #292929",
"a 	c #262626",
"s 	c #4A4A4A",
"d 	c #454545",
"f 	c #CDCD1D",
"g 	c #0F0F0F",
"h 	c #0D0D0D",
"j 	c #4D4D4D",
"k 	c #525252",
"l 	c #3B3B3B",
"z 	c #0A0A0A",
"x 	c #FFFF00",
"c 	c #96522D",
"v 	c #91535D",
"b 	c #BDB76B",
"n 	c #B7644D",
"m 	c #E9967A",
"M 	c #55562F",
"N 	c #DAAA00",
"B 	c #DEB887",
"V 	c #B3B37E",
"C 	c #F4A460",
"Z 	c #2E2E2E",
"A 	c #BC8F8F",
"S 	c #2B2B2B",
"D 	c #A8A8A8",
"F 	c #BABEC9",
"G 	c #B5BEC7",
"H 	c #CCCCCC",
"J 	c #737373",
"K 	c #757575",
"L 	c #B5B5B5",
"P 	c #B3B3B3",
"I 	c #B0E0E6",
"U 	c #A6A6A6",
"Y 	c #8C8C8C",
"T 	c #9C9C9C",
"R 	c #999999",
"E 	c #404040",
"W 	c #3D3D3D",
"Q 	c #A3A3A3",
"! 	c #6B6B6B",
"~ 	c #333333",
"  . X o o o o o o o o o o o o o o o o o o o o o o o o o o X .   ",
"O +   @ # # # # # # # # # # # # # $ @ # # # # # # # # # @   + O ",
"% & * = = = = = = = = = = = = = - ; % = = = = = = = = = = * & % ",
": > , < < < < < < < < < < < < < ; 1 > < < < < < < < < < < , > : ",
"2 : 3 4 > > 3 3 3 > : ; > : 4 > 5 5 6 4 4 4 4 4 4 4 4 4 4 3 : 2 ",
"2 : 3 > 3 7 : : 7 3 ; ; 2 8 ; ; 9 0 ; 1 > 4 4 q w 4 4 4 4 3 : 2 ",
"2 : 3 > 7 e r r e ; t y ; 5 0 t 9 u ; 9 ; > 4 1 1 3 4 4 4 3 : 2 ",
"2 : 3 3 : w i i 6 p 5 q a 9 5 t 9 1 q 9 9 ; > 8 5 s 4 4 4 3 : 2 ",
"w e 7 7 w d f f p t 9 5 5 9 9 9 9 t 5 9 9 u y q t ; 3 2 > 3 : 2 ",
"w w e w s g f f t h g 9 5 g 9 9 9 0 t 9 9 9 0 0 5 5 ; 8 j 7 : 2 ",
"k k k j l z f f h z g g 9 9 9 5 9 t 0 9 9 9 5 9 9 9 ; 8 t w : 2 ",
"j r f f f f x x f f f f c ; ; v t ; ; 5 9 5 9 9 9 9 ; 8 0 d : 2 ",
"j r f f f f x x f f f f r v ; b n m m M ; v 0 5 9 9 8 u t ; e 2 ",
"k k k ; h h N N z ; ; - v n m m m m m m m m m c ; 9 8 0 t u e 2 ",
"w w e a h h f f M v - b m m m m m m m m B B B m m ; u 1 1 t y 2 ",
"w e : 0 g h f f v - V m m m m m m m m m B B B m m m M u 8 9 ; w ",
"2 : 6 9 g 5 f i - V m m m m m m m m m m m B B B m m m 5 5 9 t ; ",
"2 : 8 9 9 ; r C V B B m m m b b b b m m m m B B m m m t t 5 9 Z ",
"2 : t 9 ; v A A V - 3 M M - b b b b v ; M M v V m m m m ; t 9 Z ",
"2 e 5 t 7 B v ; a t 9 h g : b - - b M h g g 9 0 S 7 m m n 5 5 ; ",
"2 s 5 t - 7 1 M M M M M M v - - - - v M M M M M ; t M m m 5 9 ; ",
"2 ; 5 u v p - B B V V V V - - - - - n n v v v v v v 8 M m 0 9 ; ",
"2 a 9 2 k - B V V - - V V V V - - - v v v v v v v n v S b ; 9 ; ",
"2 5 9 v 3 A B - - - - V A B V - - v v v v v v v v v n ; - n 9 ; ",
"2 9 9 v A B V n n - V V B B V - n v v v v v v v v v n - b b 9 S ",
"2 t 9 k B B n n n - - - B B B - n n v v v c v v n v n b b n 5 ; ",
"2 q 9 ; B B n V D 7 9 M B B B b n n n - 2 t p O V n n b b m ; ; ",
"2 ; 9 ; B B V F G $ % O H B B b b b - = J > K   L V n b b m ; ; ",
"k ; 9 5 A B P I U Y $ T D B B V b b V = < < V V O R b b b b ; ; ",
"E W g g - V T Q = % ! J - V V - V - n v 3 : > 4 % - - v - - ; a ",
"S p h h > 4 4 > : M M M M 3 3 3 v 7 e M ; M M M M M M M M e ; 0 ",
"u 0 ~ ~ s s M ; ; ; ; ; ; M ; M M ; M ; ; ; ; ; ; ; ; ; ; M S t "
};
