/* XPM */
static char * image_name[]={
"32 32 68 2",
"  	c #ABABAB",
". 	c #BDBDBD",
"X 	c #C4C4C4",
"o 	c #C9C9C9",
"O 	c #919191",
"+ 	c #A1A1A1",
"@ 	c #ADADAD",
"# 	c #B0B0B0",
"$ 	c #707070",
"% 	c #7D7D7D",
"& 	c #858585",
"* 	c #8A8A8A",
"= 	c #A6A6A6",
"- 	c #C2C2C2",
"; 	c #B8B8B8",
": 	c #8C8C8C",
"> 	c #5C5C5C",
", 	c #636363",
"< 	c #696969",
"1 	c #6E6E6E",
"2 	c #C7C7C7",
"3 	c #9C9C9C",
"4 	c #7A7A7A",
"5 	c #6B6B6B",
"6 	c #575757",
"7 	c #616161",
"8 	c #666666",
"9 	c #969696",
"0 	c #828282",
"q 	c #737373",
"w 	c #5E5E5E",
"e 	c #B3B3B3",
"r 	c #757575",
"t 	c #BDB76B",
"y 	c #CED85A",
"u 	c #9E9E9E",
"i 	c #8F8F8F",
"p 	c #B5B5B5",
"a 	c #999999",
"s 	c #545454",
"d 	c #F2DE0D",
"f 	c #787878",
"g 	c #595959",
"h 	c #4D4D4D",
"j 	c #CDCD1D",
"k 	c #BABABA",
"l 	c #BFBFBF",
"z 	c #424242",
"x 	c #A3A3A3",
"c 	c #525252",
"v 	c #454545",
"b 	c #3B3B3B",
"n 	c #CCCCCC",
"m 	c #B8860B",
"M 	c #FFFF00",
"N 	c #A8A8A8",
"B 	c #949494",
"V 	c #878787",
"C 	c #404040",
"Z 	c #2B2B2B",
"A 	c #292929",
"S 	c #262626",
"D 	c #242424",
"F 	c #1C1C1C",
"G 	c #1A1A1A",
"H 	c #171717",
"J 	c #121212",
"K 	c #141414",
"  . X o o o o o o o o o o o o o o o o o o o o o o o o o o X .   ",
"O +   @ # # # # # # # # # # # # # # # # # # # # # # # # @   + O ",
"$ % & * * * * * * * * * * * * * = - ; : * * * * * * * * * & % $ ",
"> , < 1 1 1 1 1 1 1 1 1 1 1 1 + o 2 2 3 1 1 1 1 1 1 4 3 * 5 , > ",
"6 > 7 < % 8 7 7 7 , 8 8 8 8 $ 2 . - 2 - 5 8 8 8 $ 9 -   5 7 > 6 ",
"6 > 7 < 0 : = q w 7 , 8 8 8 O o e # 2 - 1 8 8 r e - 9 8 8 7 > 6 ",
"6 > 7 8 w > t y u r , 8 8 8 i o p - 2   < 8 a - # q 8 8 8 7 > 6 ",
"6 > 7 7 > s d d = p + 5 8 8 q 2 2 o X % f e e 0 < 8 8 8 8 7 > 6 ",
"s g w w s h j j 8 + k l 4 8 8 O . 2 i r p e f 8 8 8 8 8 8 7 > 6 ",
"s s g s h z j j z h & @ ; i , r . o . l x 5 8 8 8 8 8 8 8 7 > 6 ",
"c c c h v b j j b z h q @ k i 3 o n o O < 8 8 8 8 8 8 8 8 7 > 6 ",
"h m j j j j M M j j j j m u p X o n - < 8 8 8 8 8 8 8 8 8 7 > 6 ",
"h m j j j j M M j j j j m 7 N 2 2 n ; 8 8 8 8 8 8 8 8 8 8 7 > 6 ",
"c c c h v b j j b z h s g 8 u 2 2 n # 8 8 8 8 8 8 8 8 8 8 7 > 6 ",
"s s g s h z j j z h s > w 1 # - X n a 8 8 8 8 8 8 8 8 8 8 7 > 6 ",
"s g w w s h j j h s w 7 , r p k - 2 * 8 8 8 8 8 8 8 8 8 8 7 > 6 ",
"6 > 7 7 > s d j s > 7 8 8 f @ e . - ; < 8 8 8 8 8 8 8 8 8 7 > 6 ",
"6 > 7 , w g m m g w , 8 8 q 3 N ; . . 5 8 8 8 8 8 8 8 8 8 7 > 6 ",
"6 > 7 , 7 w > > w 7 8 8 8 $ B 2 . . ; a 5 8 8 8 8 8 8 8 8 , > 6 ",
"6 > 7 , , , 7 7 , , 8 8 8 1 p o ; ; X k 3 < 8 8 8 8 8 8 8 , > 6 ",
"6 > 7 8 8 8 8 8 8 8 8 8 8 x n p & $ N o - a < 8 8 8 8 8 8 7 > 6 ",
"6 > 7 8 8 8 8 8 8 8 8 < + n - r 1 8 1 p 2 - 4 8 8 8 8 8 8 7 > 6 ",
"6 > , 8 8 8 8 8 8 8 8 e n 2 r < 8 8 8 f . o - r 8 8 8 9 ; 8 > 6 ",
"6 > 1 # < 8 8 8 8 q l n - q 8 8 8 8 8 8 * . 2 p 5 8 8 p X < > 6 ",
"6 > f 2 : 8 8 8 q 2 n . % 8 8 8 8 8 8 8 < a X o l 1 8 o ; 8 > 6 ",
"6 w r X - 5 8 & o o p q 8 8 8 8 8 8 8 8 8 8 5 e o ; 0 n B , > 6 ",
"6 w 8 3 n & + o l a 5 8 8 8 8 8 8 8 8 8 8 8 8 $ @ . - o 5 7 > 6 ",
"6 w , < l - . p 0 8 8 8 8 8 8 8 8 8 8 8 8 8 8 8 8   X B 8 7 > 6 ",
"c 6 > > 7 + V , > > > > > > > > > > > > > > > > > > > > > g s c ",
"C z v z z z z z z z z z z z z z z z z z z z z z z z z z z z C C ",
"Z A S D D D D D D D D D D D D D D D D D D D D D D D D D D D D A ",
"F G H J J J J J J J J J J J J J J J J J J J J J J J J J J J K G "
};
