/* XPM */
static char * image_name[]={
"32 32 86 2",
"  	c #A8A8A8",
". 	c #B8B8B8",
"X 	c #BFBFBF",
"o 	c #C2C2C2",
"O 	c #BDBDBD",
"+ 	c #BABABA",
"@ 	c #B5B5B5",
"# 	c #B3B3B3",
"$ 	c #ABABAB",
"% 	c #A6A6A6",
"& 	c #A3A3A3",
"* 	c #8F8F8F",
"= 	c #949494",
"- 	c #8C8C8C",
"; 	c #9C9C9C",
": 	c #787878",
"> 	c #737373",
", 	c #6E6E6E",
"< 	c #666666",
"1 	c #616161",
"2 	c #4F4F4F",
"3 	c #4D4D4D",
"4 	c #4A4A4A",
"5 	c #575757",
"6 	c #525252",
"7 	c #8A8A8A",
"8 	c #6B6B6B",
"9 	c #707070",
"0 	c #636363",
"q 	c #242424",
"w 	c #262626",
"e 	c #292929",
"r 	c #2B2B2B",
"t 	c #828282",
"y 	c #212121",
"u 	c #9E9E9E",
"i 	c #303030",
"p 	c #3B3B3B",
"a 	c #080808",
"s 	c #1A1A1A",
"d 	c #0F0F0F",
"f 	c #0D0D0D",
"g 	c #171717",
"h 	c #121212",
"j 	c #0A0A0A",
"k 	c #3D3D3D",
"l 	c #545454",
"z 	c #000000",
"x 	c #000001",
"c 	c #030303",
"v 	c #050505",
"b 	c #999999",
"n 	c #969696",
"m 	c #474747",
"M 	c #2E2E2E",
"N 	c #383838",
"B 	c #424242",
"V 	c #1F1F1F",
"C 	c #141414",
"Z 	c #919191",
"A 	c #696969",
"S 	c #6B3939",
"D 	c #55562F",
"F 	c #96522D",
"G 	c #91535D",
"H 	c #B3B37E",
"J 	c #BDB76B",
"K 	c #B7644D",
"L 	c #BC8F8F",
"P 	c #DEB887",
"I 	c #363636",
"U 	c #EEDD82",
"Y 	c #EEE8AA",
"T 	c #454545",
"R 	c #9B7071",
"E 	c #E9967A",
"W 	c #5C5C5C",
"Q 	c #1C1C1C",
"! 	c #8B4513",
"~ 	c #B8860B",
"^ 	c #CDCD1D",
"/ 	c #F2DE0D",
"( 	c #404040",
") 	c #FFFF00",
"_ 	c #A1A1A1",
"` 	c #333333",
"  . X o O O + + . . . . @ @ @ @ @ @ @ @ # $ % & & $ # @ * = # % ",
"- ; ; = ; - : > , < 1 2 2 3 2 3 3 3 4 4 4 4 3 3 2 2 3 5 6 1 * 7 ",
"8 9 0 q w w w q q q w w w w w e e e r e e w t * r y * u i q < < ",
"5 5 p a a s d f f f f f f f g g h g f f j g ; ; i a ; ; k q 6 l ",
"2 2 i z x g c x c x x x c a a v c j v c c c - b g z b n s f m 3 ",
"2 3 i x x f c c v a a f a c c c c c c v f a M N a x i g c j B 4 ",
"3 4 V z c h f a g h j a a a a a a a v v c c c v c x c j x c p 4 ",
"3 4 q x j f f C * = = = n n n = = = n = = Z * * 0 v c v c c p 4 ",
"3 3 r C d c c c t n b b b b b ; ; ; ; b b b n Z A v v d c x N 4 ",
"3 3 V a a c h j c v a a a f C V w w V g h d f a c z z c c x N 4 ",
"3 3 s c v v S S S D D F G H H H H H J K F F F S S S C v c x N 4 ",
"3 3 s c c c S D D F F J H L L H S D P H J F F F S S d a c x I m ",
"3 4 g c c c D D F F F G H U Y D s S U L D D J F F S f c x x I m ",
"3 4 C v c x D D F J H D S H Y G s G H 0 H H J F F S j c x x V T ",
"3 4 h a a c S S F H $ P R S R U S D R P E J J F F D a v c x s m ",
"3 4 d a a c S S F H % L U P W D h D Y U J J F F D S a f c x Q m ",
"3 4 d a a x ! ~ F H u H P Y Y S h H Y U H J J J F S a a z x V m ",
"3 4 d j j x ^ / D H b H $ Y U S s H Y P & L H H R S a x z x y m ",
"4 m d a v x ^ ^ D H = H % U U D Q H Y U   H J J F S a x z x q m ",
"4 T f a a x ^ ^ D A H n % U Y S S S L Y P H J F F S h z z x q m ",
"m ( j v v x ^ ^ S D R H & P D S P D S U U E J K F D C x z z e m ",
"T ~ ^ ^ ^ ^ ) ) ^ ^ / / ^ S S P U P S S U J D H K F h c z x w m ",
"T D ^ ^ ^ ^ ) ) ^ ^ / / ~ S H U U U H S D 0 D L J F y c z x e m ",
"m B h x v x ^ ^ D S S S D J J H ; _ $ $ D S H J F D S c z x M m ",
"3 m w c v x ^ ^ D D S D J J F R H H H H H H J F F D e c z c ` 4 ",
"2 3 e c v c ^ ^ V r S S S M g f j h s q r r y g j c c z z c p 4 ",
"6 6 w a v x ^ ^ j h g g C d a v c c v j f f j a c z z z z f T 3 ",
"6 l k c z z D D c c v v c c z z z z z z x c x z z x c x z a B 3 ",
"3 2 2 I r V h v a j f d C s s g g h d f a c c a a j h q Q I 4 3 ",
"( k k p i M ` ` I I I I I I I I I I I I I I ` ` I ` ` N p p p k ",
"e w q y y V V V V V V V V V V V V V V V V V V V V V V V y y q e ",
"Q g C h h h h h h h h h h h h h h h h h h h h h h h h h h h C s "
};
