/* XPM */
static char * image_name[]={
"32 32 70 2",
"  	c #F5DEB3",
". 	c #D9D9D9",
"X 	c #D6D6D6",
"o 	c #DEB887",
"O 	c #CFCFCF",
"+ 	c #BC8F8F",
"@ 	c #B3B37E",
"# 	c #E9967A",
"$ 	c #999999",
"% 	c #A1A1A1",
"& 	c #9B7071",
"* 	c #BDB76B",
"= 	c #8A8A8A",
"- 	c #919191",
"; 	c #9E9E9E",
": 	c #A6A6A6",
"> 	c #B5B5B5",
", 	c #ABABAB",
"< 	c #ADADAD",
"1 	c #A3A3A3",
"2 	c #949494",
"3 	c #8F8F8F",
"4 	c #969696",
"5 	c #BCBFC0",
"6 	c #D1D1D1",
"7 	c #B0B0B0",
"8 	c #B3B3B3",
"9 	c #B6E2CE",
"0 	c #509F69",
"q 	c #666666",
"w 	c #2E2E2E",
"e 	c #00562D",
"r 	c #696969",
"t 	c #C9C9C9",
"y 	c #BABFC0",
"u 	c #292929",
"i 	c #2B2B2B",
"p 	c #616161",
"a 	c #595959",
"s 	c #55562F",
"d 	c #91535D",
"f 	c #96522D",
"g 	c #6B3939",
"h 	c #171717",
"j 	c #141414",
"k 	c #1C1C1C",
"l 	c #121212",
"z 	c #1A1A1A",
"x 	c #5C5C5C",
"c 	c #CD853F",
"v 	c #B8860B",
"b 	c #1F1F1F",
"n 	c #F2DE0D",
"m 	c #CDCD1D",
"M 	c #212121",
"N 	c #0F0F0F",
"B 	c #0D0D0D",
"V 	c #262626",
"C 	c #F4A460",
"Z 	c #FFFF00",
"A 	c #636363",
"S 	c #5E5E5E",
"D 	c #6B6B6B",
"F 	c #6E6E6E",
"G 	c #707070",
"H 	c #242424",
"J 	c #303030",
"K 	c #575757",
"L 	c #545454",
"P 	c #333333",
"                      . . X         o o o o o o o       o o o o ",
"o o o o o o o o o o o   O   o o o o o o o o o o o o o o o o o + ",
"o o o o o o o o o o o o o o o o o o o @ @ @ @ @ + + + + o o # @ ",
"+ + o o @ @ $ % + + @ o o o o # o o @ & * @ @ = - ; % $ $ @ # @ ",
"+ + + @ : > , , < < : + o o o o o # # & @ 1 2 = 3 4 4 $ $ 3 @ @ ",
"+ + @ 5 6 7 % % : , > o o o # # # # # @ o o ; @ @ 3 = 3 2 2 @ @ ",
"+ + 8 6 9 8 % @ 0 @ 7 o o # # # # # # # o o q w e r @ @ = 2 - @ ",
"+ + t 6 t y r u i p @ o o @ @ @ @ @ # # # # & a s s @ @ @ @ @ @ ",
"+ + o o o < & d & @ o o + @ & & & & @ # o # # o o # # # # @ @ @ ",
"+ + o o o # # o o o o + + @ & d d d & # o o # o o o o o o o # @ ",
"+ + + o o @ @ o o o o + @ @ & d f d d * # # @ @ # o o o o # # @ ",
"+ @ @ @ @ # o o o o + @ & + & d d & d d @ # * * @ @ # # # o @ @ ",
"@ @ @ @ # o o # # o + & & + & d & & d d & # * * * * @ @ @ @ @ @ ",
"@ @ & s & @ @ @ @ o & d @ o @ d & d g g d & d d & & & * * * & & ",
"+ @ g g & @ @ @ @ & g g g d @ d g h j h g g g g d & & & & d & & ",
"+ & g g & @ @ & d g k h l z d x h l l l l j h k g d & d g k s d ",
"@ d z g & @ c v g k b l l j d & g l l l l h h h g s & s k l g d ",
"@ d h b & & n n z k z l j g & @ d g h h h z z l j g s g l j g d ",
"@ & k j g x m m j h M h g d & d d d g g g g g j l l j l l k d d ",
"@ & g N h k m m j z k g s d d d d d d s g g g z j l l l z s d d ",
"@ & x h B B m m g V g s d & & & & & & & d g g g k h h g s & & & ",
"@ C n m m m Z Z m m m n v & & & & & & & & d d s s d d & & & & & ",
"@ * n m m m Z Z m m n n c & & & & & & & & & & & @ @ @ @ @ & & & ",
"@ @ @ & A s m m S D & & & & & & d d & & @ @ @ @ @ @ @ @ @ @ & & ",
"+ + + @ & F m n & & @ @ @ & g g g g g d @ @ @ @ @ @ @ @ @ @ & d ",
"+ + + + @ & n n @ @ + + @ s k l z j h g & @ @ @ @ @ @ @ @ @ & d ",
"+ + o + + @ n n 3 + + + @ g z l j l j g & @ @ @ @ @ @ @ @ @ & d ",
"+ + + + + + C C + + + + @ g h h h j j g d @ @ @ @ @ @ @ @ & d d ",
"- + + + + + @ + + + + + @ g g g g g g s d @ @ @ @ @ & & & d d x ",
"G & & @ @ @ & & @ @ @ @ & p p s H s a A A d d d d d d p x s s s ",
"J p x S S p S S S S S x K L s s g s s s s s s s s s s g g g g g ",
"k g s g s s s s s s s g g g g g g P J J g g g g J w i u V H V i "
};
