/* XPM */
static char * image_name[]={
"32 32 101 2",
"  	c #ABABAB",
". 	c #BDBDBD",
"X 	c #C4C4C4",
"o 	c #C9C9C9",
"O 	c #BFBFBF",
"+ 	c #D1D1D1",
"@ 	c #F2F2F2",
"# 	c #E8E8E8",
"$ 	c #E3E3E3",
"% 	c #E0E0E0",
"& 	c #D4D4D4",
"* 	c #B0B0B0",
"= 	c #8A8A8A",
"- 	c #878787",
"; 	c #828282",
": 	c #B8B8B8",
"> 	c #919191",
", 	c #A1A1A1",
"< 	c #ADADAD",
"1 	c #EDEDED",
"2 	c #D9D9D9",
"3 	c #DCDCDC",
"4 	c #DBDBDB",
"5 	c #C2C2C2",
"6 	c #7F7F7F",
"7 	c #696969",
"8 	c #6E6E6E",
"9 	c #616161",
"0 	c #A8A8A8",
"q 	c #707070",
"w 	c #7D7D7D",
"e 	c #858585",
"r 	c #8C8C8C",
"t 	c #737373",
"y 	c #A3A3A3",
"u 	c #CCCCCC",
"i 	c #CFCFCF",
"p 	c #BABABA",
"a 	c #4A4A4A",
"s 	c #474747",
"d 	c #3B3B3B",
"f 	c #5C5C5C",
"g 	c #636363",
"h 	c #3D3D3D",
"j 	c #292929",
"k 	c #1C1C1C",
"l 	c #171717",
"z 	c #D6D6D6",
"x 	c #C7C7C7",
"c 	c #333333",
"v 	c #2B2B2B",
"b 	c #575757",
"n 	c #666666",
"m 	c #383838",
"M 	c #525252",
"N 	c #757575",
"B 	c #787878",
"V 	c #999999",
"C 	c #949494",
"Z 	c #6B6B6B",
"A 	c #212121",
"S 	c #A6A6A6",
"D 	c #303030",
"F 	c #2E2E2E",
"G 	c #B3B3B3",
"H 	c #B5B5B5",
"J 	c #8F8F8F",
"K 	c #242424",
"L 	c #545454",
"P 	c #4D4D4D",
"I 	c #9C9C9C",
"U 	c #262626",
"Y 	c #7E7E7E",
"T 	c #363636",
"R 	c #1F1F1F",
"E 	c #404040",
"W 	c #9E9E9E",
"Q 	c #969696",
"! 	c #424242",
"~ 	c #5E5E5E",
"^ 	c #F5F5F5",
"/ 	c #EBEBEB",
"( 	c #7A7A7A",
") 	c #595959",
"_ 	c #141414",
"` 	c #121212",
"' 	c #4F4F4F",
"] 	c #0D0D0D",
"[ 	c #0A0A0A",
"{ 	c #080808",
"} 	c #454545",
"| 	c #FCFCFC",
" .	c #FAFAFA",
"..	c #DEDEDE",
"X.	c #030303",
"o.	c #000000",
"O.	c #050505",
"+.	c #1A1A1A",
"@.	c #0F0F0F",
"#.	c #000001",
"$.	c #F0F0F0",
"  . X o o o o o o O + @ # $ % % % % $ % & * = - = ; - : o X .   ",
"> ,   < * * * *   : 1 % 2 2 2 3 3 2 2 2 4 4 5 6 7 8 9 8 0   , > ",
"q w e = = = = - q r t y o u + 3 2 & & + i u i p 9 a s d f e w q ",
"f g 7 8 8 8 7 h j k l 8 5 5 5 . 4 z i u o x X x y h c v j f g f ",
"b f 9 n n n m j M N B V : 5 C h = z 2 u x X . : p Z v v A m f b ",
"b f 9 n n b m = S S 0 * : 5 , D F 8 G i x 5 p G H J c v K K L b ",
"b f 9 n n P 6   , I , : . 5 p ; F U h Y O 5 : * * I T v K R E b ",
"b f 9 n n L > * < S < 5 5 5 G S Y d k k Z . G < < , E j K A F L ",
"b f 9 n n f > V W < : x x 5 * V J r 8 c k ; H   < , E j K A U a ",
"b f 9 n n f , M S & X u x . :   V J V Q a ! S   < = T v A A K a ",
"b f 9 n n ~ & < 2 ^ 3 i O G J ; G 0 Q S I P V   < Z F U A A K a ",
"b f 9 n n e i O i 2 u X : * 9 e / 3 G 0 * V ,   , a v K A R j P ",
"b f 9 g 8 i X H H G H : : 5 G X % # + H H H 0 < - T U A A R v L ",
"b f ~ ( 3 + X O * y < : p . * H x u x . : *   < g j K A A k c L ",
"b ) b i . * > V I Q V * H <   0 G : : G   S , J d R R R R l h M ",
"L b g y ; t f n n q 8 e Q J = = C W y I J - e b R l l l _ ` d s ",
"L P ~ n F A R v v j T ' ) b L L g N B Z ~ b a R ] [ ] ] { ] j T ",
"M } P O e ]   ( ( | | i D G | | , } } C x v e | | |   / |  .$ v ",
"' E ! x e l . B B u ! 0 B . I M ..B k i | D l s | } K | N } E j ",
"' h s X 6 [ . B N u } 0 B p Y _ 6 r j / I ( X.{ | o.o.| Q B ~ v ",
"' h ' X w X.p B B | | . R . 8 ` w I B 3 p u O.{ | o.o.| o : ( v ",
"M d f p w X.p B B . R v K O P ] . ( u I ( | j { | O.X.| } O._ j ",
"M c 9 Y | u 1 k ; X h ' ! X | | i } | j [   ; l | l l | |  .$ v ",
"m U T R d P k +.T M P f M L ~ f A U L +.{ F m R ! D U E ' ' s F ",
"X.R A ` @.` ` +.K F E M P ! D v j U k ] _ m D j c T ] [ [ [ ] _ ",
"O.w R d f @.8 d ( ( Y U e R j ; Y +.+.f v ~ L Z e B N o.n t @.o.",
"#.* b V u j 1 B 3 p 0 } | X.u V p V } . +.e ; ( 4 / 0 n o Q 5 o.",
"o.q t 2 / n 0 N V ! c ! | } u #.` N } u } V B o.N p o.N : c 9 o.",
"o.P . i * 5 q q $.$.% E $.q * D $.% E % * i q o.q ; o.@.J 3 = o.",
"o.+.u ( 9 u m 9 9 #.#.m u m G X.T u T Q o.9 9 o.9 9 o.= T o.x j ",
"o.o.; d j Q X.a ; q q ! Q ] f ; ; B j 8 o.} } o.} } o.c r 8 B o.",
"{ O.` X.X.l X.[ K U j _ U ` X.k k #.#.@.#.{ { #.{ { o.o.l k { o."
};
