/* XPM */
static char * image_name[]={
"32 32 81 2",
"  	c #ABABAB",
". 	c #BDBDBD",
"X 	c #C4C4C4",
"o 	c #C9C9C9",
"O 	c #919191",
"+ 	c #A1A1A1",
"@ 	c #ADADAD",
"# 	c #B0B0B0",
"$ 	c #707070",
"% 	c #7D7D7D",
"& 	c #858585",
"* 	c #8A8A8A",
"= 	c #828282",
"- 	c #4D4D4D",
"; 	c #4A4A4A",
": 	c #6B3939",
"> 	c #595959",
", 	c #737373",
"< 	c #5C5C5C",
"1 	c #636363",
"2 	c #696969",
"3 	c #6E6E6E",
"4 	c #545454",
"5 	c #BC8F8F",
"6 	c #DEB887",
"7 	c #B3B37E",
"8 	c #91535D",
"9 	c #55562F",
"0 	c #666666",
"q 	c #575757",
"w 	c #616161",
"e 	c #D6D6D6",
"r 	c #FFE4C4",
"t 	c #FFDEAD",
"y 	c #2B2B2B",
"u 	c #F5DEB3",
"i 	c #9B7071",
"p 	c #5E5E5E",
"a 	c #525252",
"s 	c #EEDD82",
"d 	c #212121",
"f 	c #303030",
"g 	c #E9967A",
"h 	c #262626",
"j 	c #454545",
"k 	c #1F1F1F",
"l 	c #424242",
"z 	c #1A1A1A",
"x 	c #242424",
"c 	c #2E2E2E",
"v 	c #4F4F4F",
"b 	c #BDB76B",
"n 	c #6B6B6B",
"m 	c #FAEBD7",
"M 	c #A6A6A6",
"N 	c #B8B8B8",
"B 	c #292929",
"V 	c #999999",
"C 	c #D4D4D4",
"Z 	c #1C1C1C",
"A 	c #757575",
"S 	c #3B3B3B",
"D 	c #949494",
"F 	c #96522D",
"G 	c #B7644D",
"H 	c #171717",
"J 	c #B8860B",
"K 	c #F2DE0D",
"L 	c #3D3D3D",
"P 	c #CDCD1D",
"I 	c #D8BFD8",
"U 	c #B3B3B3",
"Y 	c #BD52BD",
"T 	c #333333",
"R 	c #FFFF00",
"E 	c #474747",
"W 	c #363636",
"Q 	c #0F0F0F",
"! 	c #404040",
"~ 	c #141414",
"^ 	c #121212",
"  . X o o o o o o o o o o o o o o o o o o o o o o o o o o X .   ",
"O +   @ # # # # # # # # # # # # # # # # # # # # # # # # @   + O ",
"$ % & * * * * * * * * * * * * * * = - ; : : : - > , * * * & % $ ",
"< 1 2 3 3 3 3 3 3 3 3 3 3 3 3 3 3 4 5 6 7 8 9 : : : : 0 3 2 1 < ",
"q < w 0 0 0 0 0 0 0 0 0 0 0 0 0 w e r t t t 6 7 9 : : y > w < q ",
"q < w 0 0 0 0 0 0 0 0 0 0 0 0 < 6 u 6 u u u t t 6 i : : y p < q ",
"q < w 0 0 0 0 0 0 0 0 0 0 0 a : : 8 6 6 u u u s 6 6 8 : d : < q ",
"q < w 0 0 0 0 0 0 0 0 0 0 > f > 8 7 6 7 9 6 t s 6 6 g : : h 4 q ",
"q < w 0 0 0 0 0 0 0 0 0 0 j i 6 6 6 6 6 : : 7 6 6 g g 9 d k l q ",
"q < w 0 0 0 0 0 0 0 0 0 0 4 6 6 6 6 6 6 7 : z 9 6 g g 8 x k c v ",
"q < w 0 0 0 0 0 0 0 0 0 0 p 7 5 6 6 6 6 g b 8 : 8 g g 8 x k x j ",
"q < w 0 0 0 0 0 0 0 0 0 0 n @ o m u 6 b 7 6 g b 9 g g 9 d k x j ",
"q < w 0 0 0 0 0 0 0 0 0 w M o u u 6 6 7 N m 6 g g g b : k k B ; ",
"q < w 0 0 0 0 0 0 0 0 < V r 6 g g g 6 6 X C u 6 g g 8 k k Z c a ",
"q < w 0 1 1 w w w 1 0 A r 6 g g g 6 6 6 6 6 6 g g g : Z k z S q ",
"q < w 1 w p < < p w w D 7 9 F G b 6 u u 6 6 6 g g G Z H Z H ; q ",
"q < w 1 p > J J > p p 5 i : : : : 8 6 u 6 6 g g g : : : H d q q ",
"q < w w < 4 K K 4 < p 6 u 5 i i 9 : i 6 6 g g g 8 9 6 g 9 L < q ",
"4 > p p 4 - P P - 4 4 I U : 9 b 6 6 6 6 6 g g g : b g g i < < q ",
"4 4 > 4 - l P P l - j 6 Y Z : 7 6 s 6 6 6 g g F : g g 6 i w < q ",
"a a a - j S P P S l T < : : w u s 6 6 6 6 g G x 8 g 6 u > w < q ",
"- J P P P P R R P P P P F : 9 8 b g g g b 8 : : g g 6 n 0 w < q ",
"- J P P P P R R P P P P J : : : : : : : : x : i 6 7 < 0 0 w < q ",
"a a a - j S P P S l E W h : : Z Z Z H Q H B : : q 1 0 0 0 w < q ",
"4 4 > 4 - l P P l - 4 < > 9 9 9 : : k : : 9 v 1 0 0 0 0 0 w < q ",
"4 > p p 4 - P P - 4 p w 1 w 3 i i G 8 4 1 0 0 0 0 0 0 0 0 w < q ",
"q < w w < 4 K P 4 < w 0 0 0 0 n i i i v 0 0 0 0 0 0 0 0 0 w < q ",
"q < w 1 p > J J > p 1 0 0 0 0 0 0 2 n q 0 0 0 0 0 0 0 0 0 w < q ",
"a 4 > > q 4 4 4 q q < < < < < < < < < < < < < < < < < < < > 4 a ",
"! ! l l l ! ! ! ! l l l l l l l l l l l l l l l l l l l l l ! ! ",
"B x x x x x x x x x x x x x x x x x x x x x x x x x x x x x x B ",
"z ~ ^ ^ ^ ^ ^ ^ ^ ^ ^ ^ ^ ^ ^ ^ ^ ^ ^ ^ ^ ^ ^ ^ ^ ^ ^ ^ ^ ^ ~ z "
};
