/* XPM */
static char * image_name[]={
"32 32 79 2",
"  	c #D7F46E",
". 	c #EFDF84",
"X 	c #EEE8AA",
"o 	c #F3E64B",
"O 	c #FFFF00",
"+ 	c #D7EB31",
"@ 	c #CDCD1D",
"# 	c #B8860B",
"$ 	c #F2DE0D",
"% 	c #BDB76B",
"& 	c #55562F",
"* 	c #F5DEB3",
"= 	c #292929",
"- 	c #B3B37E",
"; 	c #696969",
": 	c #171717",
"> 	c #FFFFF0",
", 	c #BABABA",
"< 	c #9E9E9E",
"1 	c #A6A6A6",
"2 	c #636363",
"3 	c #737373",
"4 	c #F5F5DC",
"5 	c #DCDCDC",
"6 	c #242424",
"7 	c #FFFAF0",
"8 	c #B3B3B3",
"9 	c #B0B0B0",
"0 	c #ADADAD",
"q 	c #1A1A1A",
"w 	c #6E6E6E",
"e 	c #D9D9D9",
"r 	c #0A0A0A",
"t 	c #A8A8A8",
"y 	c #DBDBDB",
"u 	c #757575",
"i 	c #A1A1A1",
"p 	c #2E2E2E",
"a 	c #303030",
"s 	c #1F1F1F",
"d 	c #1C1C1C",
"f 	c #262626",
"g 	c #FDF5E6",
"h 	c #666666",
"j 	c #6B6B6B",
"k 	c #CFCFCF",
"l 	c #D6D6D6",
"z 	c #949494",
"x 	c #919191",
"c 	c #333333",
"v 	c #212121",
"b 	c #D1D1D1",
"n 	c #575757",
"m 	c #B8B8B8",
"M 	c #030303",
"N 	c #0D0D0D",
"B 	c #454545",
"V 	c #B5B5B5",
"C 	c #080808",
"Z 	c #7A7A7A",
"A 	c #363636",
"S 	c #474747",
"D 	c #121212",
"F 	c #E5E5E5",
"G 	c #999999",
"H 	c #787878",
"J 	c #000000",
"K 	c #141414",
"L 	c #707070",
"P 	c #525252",
"I 	c #050505",
"U 	c #E3E3E3",
"Y 	c #2B2B2B",
"T 	c #4F4F4F",
"R 	c #969696",
"E 	c #8A8A8A",
"W 	c #C9C9C9",
"Q 	c #0F0F0F",
"! 	c #383838",
"  . X X X X X X X X X X X X X X X X X X X X X X X X X X X X .   ",
"o o                                                         o o ",
"O O + + + + + @ # # @ + + + + + + + + + + + + + + + + + + + O O ",
"$ O O O O O @ # % % # @ O O O O O O O O O O O O O O O O O O O $ ",
"$ $ O O O $ # & * * & @ $ O O O O O O O O O O O O O O O O O $ $ ",
"$ $ $ $ $ @ # & * * & # @ $ $ O O O O $ $ $ $ $ $ $ $ @ $ $ $ @ ",
"@ $ $ @ # # & = * * & # # # # $ $ $ @ @ # # # # # # # # # # @ @ ",
"@ @ # # & - ; : * * & & & % # # @ @ # # # & & # & & & - # & # # ",
"@ # & - > > > , * * & & & > - # # # & * * & & * - < > > > 1 & # ",
"# # % > * 2 3 4 > * & & & 5 X & # # & > - & 6 * 4 * - 3 * 7 - # ",
"# & X 4 & & & ; > * & & & 8 > & & & - > & & = * > & & & & 7 - & ",
"# & 7 9 & # & & * * & # & - > - & = X 5 & & & * * & & & & 7 - & ",
"# & 7 - & # # & * * & # # & > 0 q 6 > 1 & & & * * & # # & 7 - & ",
"# w 7 - & # # & * * & # # & X e r ; > & & # & * * & # # & 7 - & ",
"# & 7 - & # # & * * & # # # - > & t y & # # & * * & # # & 7 - & ",
"# & 4 X & # & & * * & # @ # & > u e 8 & # # & * * & # # & 7 - & ",
"# & 9 > & & & ; > * & # @ # & * * > - # # # & * * & # # & 7 - & ",
"# # & 4 * 3 - 4 > * & # $ @ & - > 4 & # @ # & * * & # # & 7 - & ",
"@ # # - 4 > > i * * # @ $ @ # & > 9 & # $ @ # * * # # # & 7 - # ",
"@ @ # # & % # & & # # @ $ # & & > - # @ $ $ # # # # @ @ # # # # ",
"@ $ $ @ # # # # # @ @ @ @ # & - > & # $ O $ $ @ @ $ $ $ @ # # # ",
"$ $ O $ $ $ $ $ $ $ $ @ # % - 4 8 & # $ O O O $ $ O O O $ $ $ @ ",
"@ $ $ $ $ $ $ $ $ $ $ # # * > 4 & # @ $ $ $ $ $ $ $ $ O $ $ $ @ ",
"# # # # # # # # # # # # & - - & & # # # # # # # # # # # # # # # ",
"& & & p a & & & & & p = 6 s q d f & & & & p = = = & & & & & & & ",
"& & g > * q * - s 9 > g h j k l z - x q y c > > > & 9 v 9 & b & ",
"& n m M * ; 4 * N m B B V 3 3 C r Z > A > M M > M S , D m S 4 = ",
"& n F V 4 u 1 > 6 m > > 2 u > > G H e m > J J > J B m r m & 4 f ",
"& n * & K * * k L 0 P 0 P w w M I L L * 4 M M 4 M & 9 C 9 & U f ",
"& & G : Y * D T 1 G & & 9 2 9 R E h h & W Q Q W Q d * G * q * = ",
"& p c v s a s s c p s s Y s A A a s v d Y d d p d d = ! v q a p ",
"f d q d d d d q q q q q q : : q q d d s s s s s s s s v v 6 f & "
};
