/* XPM */
static char * L_ArmSmall_xpm[] = {
"45 48 730 2",
"  	c None",
". 	c #C7C7C7",
"+ 	c #6E6E6E",
"@ 	c #BDBDBD",
"# 	c #B9B9B9",
"$ 	c #717171",
"% 	c #B1B1B1",
"& 	c #151515",
"* 	c #B4B4B4",
"= 	c #878787",
"- 	c #030303",
"; 	c #6B6B6B",
"> 	c #C6C6C6",
", 	c #454545",
"' 	c #545454",
") 	c #2F2F2F",
"! 	c #BEBEBE",
"~ 	c #818181",
"{ 	c #989898",
"] 	c #7D7D7D",
"^ 	c #B3B3B3",
"/ 	c #757575",
"( 	c #9F9F9F",
"_ 	c #6C6C6C",
": 	c #ACACAC",
"< 	c #A1A1A1",
"[ 	c #6A6A6A",
"} 	c #A8A8A8",
"| 	c #A9A9A9",
"1 	c #3A3A3A",
"2 	c #2A2A2A",
"3 	c #999999",
"4 	c #3C3C3C",
"5 	c #2C2C2C",
"6 	c #A2A2A2",
"7 	c #0E0E0E",
"8 	c #5A5A5A",
"9 	c #5C5C5C",
"0 	c #1D1D1D",
"a 	c #595959",
"b 	c #5D5D5D",
"c 	c #747474",
"d 	c #626262",
"e 	c #7F7F7F",
"f 	c #A5A5A5",
"g 	c #202020",
"h 	c #C0C0C0",
"i 	c #ABABAB",
"j 	c #1A1A1A",
"k 	c #BFBFBF",
"l 	c #AEAEAE",
"m 	c #C7C7C8",
"n 	c #C7C7C6",
"o 	c #C6C8C6",
"p 	c #C6C8C4",
"q 	c #C8C7C6",
"r 	c #C4C0C2",
"s 	c #323232",
"t 	c #0D0D0D",
"u 	c #0F0F0F",
"v 	c #0D0D0C",
"w 	c #232222",
"x 	c #BAB6BA",
"y 	c #3C3C3D",
"z 	c #8A8E8A",
"A 	c #C6C5C6",
"B 	c #AAA3A5",
"C 	c #242424",
"D 	c #C8C9C7",
"E 	c #ABA9AD",
"F 	c #1E1E1E",
"G 	c #AFAFAE",
"H 	c #C7C7C5",
"I 	c #C7C8C5",
"J 	c #C7C8C3",
"K 	c #CAC6C4",
"L 	c #9F9B9C",
"M 	c #3C3B3C",
"N 	c #BEBEC0",
"O 	c #C6C8C7",
"P 	c #BDBCBA",
"Q 	c #2E2D2D",
"R 	c #8C888D",
"S 	c #3B3B3C",
"T 	c #88908E",
"U 	c #C8C9CA",
"V 	c #A7A2A8",
"W 	c #C4C7C8",
"X 	c #A9ADB1",
"Y 	c #1E1E1D",
"Z 	c #AFAFAD",
"` 	c #121212",
" .	c #282828",
"..	c #5F5F5F",
"+.	c #C8C7C7",
"@.	c #CAC6C5",
"#.	c #605F5E",
"$.	c #6E7170",
"%.	c #C2C9C8",
"&.	c #C2CAC9",
"*.	c #C4C8C9",
"=.	c #69696A",
"-.	c #484647",
";.	c #888C8D",
">.	c #C6CBCD",
",.	c #9FA6A2",
"'.	c #252426",
").	c #C7C6D0",
"!.	c #A3AEAB",
"~.	c #C7C7C4",
"{.	c #858585",
"].	c #949794",
"^.	c #C1CAC4",
"/.	c #C2CAC5",
"(.	c #C5C7CC",
"_.	c #C6C7C6",
":.	c #CCCABF",
"<.	c #C8C1C2",
"[.	c #C4CDC0",
"}.	c #A1C9A0",
"|.	c #BBD1B8",
"1.	c #C3CAC2",
"2.	c #C5C5C2",
"3.	c #C6C6C3",
"4.	c #C8C9C6",
"5.	c #C8C8C7",
"6.	c #C8C8C8",
"7.	c #C9C6C8",
"8.	c #CAC5CA",
"9.	c #C5C8C7",
"0.	c #C1CAC5",
"a.	c #C3C9C3",
"b.	c #C8C6C4",
"c.	c #CBC4C9",
"d.	c #CBC3CB",
"e.	c #BCC9B7",
"f.	c #C1D2BE",
"g.	c #97C899",
"h.	c #9AD496",
"i.	c #93C694",
"j.	c #B7D4B7",
"k.	c #C0CBBB",
"l.	c #C6C7C3",
"m.	c #C5C5C5",
"n.	c #C8C8CA",
"o.	c #C5C5C6",
"p.	c #C8C8C9",
"q.	c #C6C6C7",
"r.	c #C7C7C9",
"s.	c #C3C9C9",
"t.	c #C2CAC6",
"u.	c #C8C7C5",
"v.	c #CFC5C7",
"w.	c #D0C3C6",
"x.	c #CDC4C7",
"y.	c #C6C5C9",
"z.	c #B8CFC3",
"A.	c #90CF94",
"B.	c #A4D3A5",
"C.	c #B4D3BE",
"D.	c #A8D6AC",
"E.	c #93C693",
"F.	c #BBD0BA",
"G.	c #C9C5C7",
"H.	c #C8C7C9",
"I.	c #C9C9CA",
"J.	c #75747B",
"K.	c #9B9AA1",
"L.	c #C5C4C9",
"M.	c #C7C6CA",
"N.	c #C5C5C8",
"O.	c #C9C9C9",
"P.	c #C3C9CA",
"Q.	c #C9C5CA",
"R.	c #D0C4C8",
"S.	c #CCC5C2",
"T.	c #C1CBBE",
"U.	c #B4D4B7",
"V.	c #98C99D",
"W.	c #ADCDAC",
"X.	c #BECDBB",
"Y.	c #C1CBC0",
"Z.	c #C1CCC4",
"`.	c #B2D2B4",
" +	c #98C393",
".+	c #B7D2B1",
"++	c #C5C8C6",
"@+	c #C6C6C8",
"#+	c #C3C3C5",
"$+	c #CACACC",
"%+	c #2E2C3A",
"&+	c #302E3A",
"*+	c #292831",
"=+	c #727177",
"-+	c #99989C",
";+	c #C9C7C5",
">+	c #C9C7C3",
",+	c #C5C8C8",
"'+	c #CAC4CD",
")+	c #CAC3C7",
"!+	c #C1CABF",
"~+	c #B1D5B6",
"{+	c #86D58D",
"]+	c #83EA80",
"^+	c #B2DAAC",
"/+	c #BFCBBC",
"(+	c #C9C5C6",
"_+	c #BECCC6",
":+	c #A9D9B2",
"<+	c #8AED8B",
"[+	c #79DD76",
"}+	c #C0CCC1",
"|+	c #C9C9CB",
"1+	c #C4C4C6",
"2+	c #393847",
"3+	c #353443",
"4+	c #343440",
"5+	c #34343E",
"6+	c #303138",
"7+	c #4B4C53",
"8+	c #717277",
"9+	c #BFC1C3",
"0+	c #C6C7C9",
"a+	c #C6C8C9",
"b+	c #C5C6C8",
"c+	c #C8C7C8",
"d+	c #C9C7C6",
"e+	c #C7C7CC",
"f+	c #C9C7CD",
"g+	c #C8C6C8",
"h+	c #C2CAC4",
"i+	c #BAD1BF",
"j+	c #97C89C",
"k+	c #81D080",
"l+	c #84BF82",
"m+	c #C0CCC0",
"n+	c #C7C6CE",
"o+	c #B0BFBA",
"p+	c #4C7559",
"q+	c #357A40",
"r+	c #2D7334",
"s+	c #232C2C",
"t+	c #292A33",
"u+	c #2B2C34",
"v+	c #2C2C35",
"w+	c #2A2A33",
"x+	c #2E2E37",
"y+	c #797982",
"z+	c #77767F",
"A+	c #76757B",
"B+	c #C7C6CB",
"C+	c #C7C7CB",
"D+	c #C6C6C9",
"E+	c #3B3C4D",
"F+	c #3A3B4B",
"G+	c #383A49",
"H+	c #383A47",
"I+	c #343643",
"J+	c #333542",
"K+	c #30323E",
"L+	c #24272F",
"M+	c #6F7378",
"N+	c #75787D",
"O+	c #6D7176",
"P+	c #919499",
"Q+	c #C5C8CD",
"R+	c #C4C7CC",
"S+	c #C3C7CC",
"T+	c #C4C7CB",
"U+	c #C6C6CA",
"V+	c #C2C9C6",
"W+	c #A9C0AE",
"X+	c #5B6F5F",
"Y+	c #5E6C66",
"Z+	c #252D30",
"`+	c #2C2E38",
" @	c #343340",
".@	c #363744",
"+@	c #333441",
"@@	c #353746",
"#@	c #373948",
"$@	c #363847",
"%@	c #373543",
"&@	c #2F2E3A",
"*@	c #2C2B37",
"=@	c #4E4E58",
"-@	c #75757D",
";@	c #3E3F52",
">@	c #3E3F50",
",@	c #3D3E4F",
"'@	c #3B3D4B",
")@	c #363846",
"!@	c #383A46",
"~@	c #32343E",
"{@	c #33363F",
"]@	c #33353F",
"^@	c #2E313A",
"/@	c #2F323B",
"(@	c #2D3039",
"_@	c #2D2F38",
":@	c #2C2E36",
"<@	c #2C2E37",
"[@	c #2D2F37",
"}@	c #2F3039",
"|@	c #2F3139",
"1@	c #2E3339",
"2@	c #283734",
"3@	c #2E3A3C",
"4@	c #323A42",
"5@	c #383B4A",
"6@	c #3A3B4D",
"7@	c #3B3B4F",
"8@	c #3D3E52",
"9@	c #3E3F53",
"0@	c #3F4151",
"a@	c #404152",
"b@	c #404252",
"c@	c #3F4051",
"d@	c #3C3D4E",
"e@	c #3C3D4C",
"f@	c #3E3E4D",
"g@	c #373845",
"h@	c #3A3B48",
"i@	c #363743",
"j@	c #3F4053",
"k@	c #414255",
"l@	c #3C3D50",
"m@	c #3A3C4B",
"n@	c #3E404E",
"o@	c #3A3C4A",
"p@	c #393B49",
"q@	c #383B48",
"r@	c #383A48",
"s@	c #393B48",
"t@	c #383B49",
"u@	c #363B4B",
"v@	c #3B4050",
"w@	c #3B3D50",
"x@	c #3D3D54",
"y@	c #3F3F57",
"z@	c #3E3E56",
"A@	c #42435B",
"B@	c #404157",
"C@	c #404155",
"D@	c #404154",
"E@	c #3F4154",
"F@	c #404254",
"G@	c #404354",
"H@	c #3E4152",
"I@	c #3F4251",
"J@	c #3F4054",
"K@	c #434458",
"L@	c #424457",
"M@	c #3F4153",
"N@	c #3E4053",
"O@	c #3E4052",
"P@	c #3D4051",
"Q@	c #403F55",
"R@	c #3F3E54",
"S@	c #403F54",
"T@	c #404156",
"U@	c #424359",
"V@	c #424458",
"W@	c #404256",
"X@	c #414357",
"Y@	c #424357",
"Z@	c #424459",
"`@	c #414458",
" #	c #424558",
".#	c #414457",
"+#	c #404355",
"@#	c #414256",
"##	c #404456",
"$#	c #404356",
"%#	c #454258",
"&#	c #454257",
"*#	c #434355",
"=#	c #424454",
"-#	c #414453",
";#	c #414454",
">#	c #404353",
",#	c #404054",
"'#	c #3E4153",
")#	c #3E4154",
"!#	c #3E4254",
"~#	c #3F4254",
"{#	c #3C3E4E",
"]#	c #3D3F4F",
"^#	c #3E3F51",
"/#	c #3F4255",
"(#	c #3F3F53",
"_#	c #403E52",
":#	c #3F3E51",
"<#	c #3D404E",
"[#	c #3C414C",
"}#	c #3B404C",
"|#	c #3C404D",
"1#	c #3E3F4F",
"2#	c #3B3D4D",
"3#	c #3A3D4D",
"4#	c #3A3C4C",
"5#	c #3C3E4D",
"6#	c #3C3E4F",
"7#	c #3D3E51",
"8#	c #3D3F52",
"9#	c #3D4052",
"0#	c #3C4052",
"a#	c #3C3F51",
"b#	c #3C3E50",
"c#	c #393B4B",
"d#	c #3A3A4C",
"e#	c #3B3A4F",
"f#	c #393B4D",
"g#	c #373C4A",
"h#	c #363D48",
"i#	c #363E48",
"j#	c #393C4C",
"k#	c #393B4A",
"l#	c #363845",
"m#	c #353745",
"n#	c #343644",
"o#	c #333643",
"p#	c #383949",
"q#	c #3C3A4C",
"r#	c #3F3B4C",
"s#	c #3F3D4B",
"t#	c #3C3E49",
"u#	c #3B3E4A",
"v#	c #3B3E4D",
"w#	c #3B3D4C",
"x#	c #3A3D4C",
"y#	c #363948",
"z#	c #353846",
"A#	c #363945",
"B#	c #333442",
"C#	c #353544",
"D#	c #333342",
"E#	c #313342",
"F#	c #313143",
"G#	c #313043",
"H#	c #2F333D",
"I#	c #2E333E",
"J#	c #2D363E",
"K#	c #30363E",
"L#	c #353440",
"M#	c #353345",
"N#	c #323749",
"O#	c #353645",
"P#	c #363645",
"Q#	c #353644",
"R#	c #343443",
"S#	c #30303F",
"T#	c #31313F",
"U#	c #30313C",
"V#	c #2F303B",
"W#	c #2D2E39",
"X#	c #2C2D38",
"Y#	c #30303C",
"Z#	c #2E303D",
"`#	c #303241",
" $	c #353445",
".$	c #393445",
"+$	c #383643",
"@$	c #353740",
"#$	c #333640",
"$$	c #333541",
"%$	c #323440",
"&$	c #31333F",
"*$	c #30323F",
"=$	c #2F313D",
"-$	c #2D2F3B",
";$	c #2A2D38",
">$	c #292D37",
",$	c #292C36",
"'$	c #2C2C37",
")$	c #2B2A36",
"!$	c #2A2A36",
"~$	c #252733",
"{$	c #252734",
"]$	c #232833",
"^$	c #242632",
"/$	c #2B2731",
"($	c #222B2E",
"_$	c #262732",
":$	c #2B2A34",
"<$	c #2C2C34",
"[$	c #2F2C3A",
"}$	c #27313E",
"|$	c #2F303D",
"1$	c #30303D",
"2$	c #2F2F3C",
"3$	c #2E2D3A",
"4$	c #2A2A37",
"5$	c #282834",
"6$	c #25252E",
"7$	c #212129",
"8$	c #24242C",
"9$	c #202127",
"0$	c #282930",
"a$	c #262A32",
"b$	c #262D35",
"c$	c #282F39",
"d$	c #292F3B",
"e$	c #2A2D3C",
"f$	c #292C3C",
"g$	c #292B39",
"h$	c #292B35",
"i$	c #272A33",
"j$	c #262932",
"k$	c #252831",
"l$	c #22252E",
"m$	c #20232C",
"n$	c #22242D",
"o$	c #1D1F28",
"p$	c #20212A",
"q$	c #1D1C24",
"r$	c #1B1B22",
"s$	c #1B1C22",
"t$	c #1A1E23",
"u$	c #161C20",
"v$	c #111D1D",
"w$	c #131C20",
"x$	c #1F1028",
"y$	c #181721",
"z$	c #211D26",
"A$	c #1F1C2B",
"B$	c #1D202F",
"C$	c #24242F",
"D$	c #252833",
"E$	c #282832",
"F$	c #272731",
"G$	c #262630",
"H$	c #24242E",
"I$	c #20202A",
"J$	c #25252F",
"K$	c #1F1F29",
"L$	c #1E1E28",
"M$	c #16171D",
"N$	c #17171D",
"O$	c #3E3F44",
"P$	c #6C6D72",
"Q$	c #212029",
"R$	c #1E2026",
"S$	c #1C2326",
"T$	c #1B2629",
"U$	c #1C262B",
"V$	c #1E2330",
"W$	c #201F31",
"X$	c #1E1E2C",
"Y$	c #1C1E23",
"Z$	c #1A1C22",
"`$	c #191B21",
" %	c #181A1F",
".%	c #16181D",
"+%	c #15171C",
"@%	c #13151A",
"#%	c #13141A",
"$%	c #13131A",
"%%	c #0F0E14",
"&%	c #2B2A2F",
"*%	c #6E6E71",
"=%	c #6B6D6E",
"-%	c #666C6A",
";%	c #68716D",
">%	c #58755C",
",%	c #448945",
"'%	c #3D7741",
")%	c #6E6A6C",
"!%	c #5E5960",
"~%	c #0A1713",
"{%	c #082511",
"]%	c #05300B",
"^%	c #082E08",
"/%	c #161C1A",
"(%	c #191A1F",
"_%	c #18191E",
":%	c #16161C",
"<%	c #101116",
"[%	c #16171C",
"}%	c #6D6E73",
"|%	c #68696C",
"1%	c #9C9DA0",
"2%	c #C5C6C9",
"3%	c #C7C8CB",
"4%	c #191724",
"5%	c #18151F",
"6%	c #131318",
"7%	c #111718",
"8%	c #0C1616",
"9%	c #101318",
"0%	c #150F1A",
"a%	c #120D16",
"b%	c #0F0F12",
"c%	c #626265",
"d%	c #6A6B6E",
"e%	c #6B6B6E",
"f%	c #898A8D",
"g%	c #C6C7CA",
"h%	c #C7C5CA",
"i%	c #C9C7CA",
"j%	c #C6C9C6",
"k%	c #C0CAC1",
"l%	c #94C392",
"m%	c #69D667",
"n%	c #88D08D",
"o%	c #C4CEB7",
"p%	c #C5C8C5",
"q%	c #B5CFBE",
"r%	c #97CCA3",
"s%	c #70D179",
"t%	c #84C970",
"u%	c #C2CBC3",
"v%	c #C7C7CA",
"w%	c #C8C9CC",
"x%	c #C6C7C8",
"y%	c #C7C8C9",
"z%	c #C7C8C8",
"A%	c #0E111A",
"B%	c #17131B",
"C%	c #160E15",
"D%	c #393739",
"E%	c #646765",
"F%	c #6B6D6B",
"G%	c #C4BDBD",
"H%	c #CEC7C8",
"I%	c #C8C6C9",
"J%	c #C8C6C6",
"K%	c #C4C9C3",
"L%	c #C2CAC3",
"M%	c #B7D2B7",
"N%	c #92CE95",
"O%	c #A6D2AB",
"P%	c #C1CCBB",
"Q%	c #C4CAC4",
"R%	c #C1CBCB",
"S%	c #AAD5B5",
"T%	c #8DC992",
"U%	c #BCD2B2",
"V%	c #C6C8C5",
"W%	c #081C11",
"X%	c #363836",
"Y%	c #CEC4C8",
"Z%	c #CCC6CA",
"`%	c #C4C7C6",
" &	c #C3C7C1",
".&	c #CAC8C1",
"+&	c #CAC7C3",
"@&	c #C9C8C8",
"#&	c #C7C6C6",
"$&	c #CAC9C9",
"%&	c #C8C6C7",
"&&	c #C7C6C7",
"*&	c #C4C8C6",
"=&	c #C4C8CA",
"-&	c #BCCEC2",
";&	c #96CD91",
">&	c #A2D4A2",
",&	c #BCD1BC",
"'&	c #ABD3AD",
")&	c #8BCA8D",
"!&	c #BAD3B6",
"~&	c #2F4A2F",
"{&	c #C2CDBB",
"]&	c #C9C2C1",
"^&	c #C9C3C9",
"/&	c #C5C9CC",
"(&	c #BEC7C5",
"_&	c #C5C5C1",
":&	c #C9C7C8",
"<&	c #C5C3C4",
"[&	c #CAC8C9",
"}&	c #C5C8C9",
"|&	c #C8C6CA",
"1&	c #C3C8C9",
"2&	c #C5C9CA",
"3&	c #C0CABE",
"4&	c #94CF96",
"5&	c #94D694",
"6&	c #8DCC89",
"7&	c #BAD3B5",
"8&	c #CAC6C7",
"9&	c #C2C7CA",
"0&	c #C6C7C7",
"a&	c #A7DDB1",
"b&	c #C2CAB9",
"c&	c #CAC9BB",
"d&	c #C6C8CD",
"e&	c #C6C9CD",
"f&	c #C4C7C7",
"g&	c #C5C9C5",
"h&	c #C6C8C8",
"i&	c #C7C6C8",
"j&	c #C7C6C9",
"k&	c #C4C8C5",
"l&	c #CBC6CB",
"m&	c #BFCCC2",
"n&	c #A1CDA1",
"o&	c #BAD2B9",
"p&	c #CAC4C6",
"q&	c #CBC4CA",
"r&	c #C3CAC7",
"s&	c #94D495",
"t&	c #C9C9C2",
"u&	c #C7C7C0",
"v&	c #C8C9C8",
"w&	c #CAC6C8",
"x&	c #C8C5CC",
"y&	c #89CC79",
"z&	c #C8C9C1",
"A&	c #C6C4C9",
"B&	c #C8C7D1",
"C&	c #C4C8C8",
"D&	c #89CA87",
"E&	c #C8C6CD",
"F&	c #C7C6CD",
"G&	c #C7C8C4",
"H&	c #CAC7C0",
"I&	c #C8C6C5",
"J&	c #C4C9C6",
"K&	c #88C78D",
"L&	c #C8C7CD",
"M&	c #C9C6D0",
"N&	c #C7C6D1",
"O&	c #CAC6C6",
"P&	c #C8C5CB",
"Q&	c #6CA295",
"R&	c #C7C5D1",
"S&	c #C9C9BF",
"T&	c #C7C9C3",
"U&	c #C4C9C5",
". . . . . . . . . . . . . . . . . . . . . . . . . . . . . . . . . . . . . . . . . . . . . ",
". . . . . . . . . . . . . . . . . . . . . . . . . . . . . . . . . . . . . . . . . . . . . ",
". . . . . . . . . . . . . . . . . . . . . . . . . . . . . . . . . . . . . . . . . . . . . ",
". . . . . . . . . . . . . . . . . . . . . . . . . . . . . . . . . . . . . . . . . . . . . ",
". . . . . . . . . . . . . . . . . . . . . . . . . . . . . . . . . . . . . . . . . . . . . ",
". . . . . . . . . . . . . . . . . . . . . . . . . . . . . . . . . . . . . . . . . . . . . ",
". . . . . . . . . . . . . . . . . . . . . . . . . . . . . . . . . . . . . . . . . . . . . ",
". . . . . . . . . . . . . . . . . . . . . . . . . . . . . . . . . . . . . . . . . . . . . ",
". . . . . . . . . . . . . . . . . . . . . . . . . . . . . . . . . . . . . . . . . . . . . ",
". . . . . . . . . . . . . . . . . . . . . . . . . . . . . . . . . . . . . . . . . . . . . ",
". . . . . . . . . . . . . . . . . . . . . . . . . . . . . . . . . . . . . . . . . . . . . ",
". . . . . . . . . . . . . . . . . . . . . . . . . . . . . . . . . . . . . . . . . . . . . ",
". . . . . . . . . . . . . . . . . . . . . . . . . . . . . . . . . . . . . . . . . . . . . ",
". . . . . . . . + @ . . . . . . . . . . # $ % . . . . . . . . . . . . . . . . . . . . . . ",
". . . . . . . . & * . . . . . . . . . . = - ; . . . . . . . . . . . . . . . . . . . . . . ",
". . . . . . . . & * . . . . . . . . . > , ' ) ! . ~ { ] ^ / ( _ : < [ } . . . . . . . . . ",
". . . . . . . . & * . . . . . . . . . | 1 | 2 3 . 4 5 ] 6 7 8 9 0 a b ) . . . . . . . . . ",
". . . . . . . . & * . . . . . . . . . c d . b a . 4 e . f g h i j k l 0 . . . . . . . . . ",
"m m m . . n n n & * . . . . . o p q r s t u v w x y z A B C D E F n G 0 n n n n . . . . . ",
"m m m . n H H n & * . . . . . I J K L M N O P Q R S T U V C W X Y H Z 0 H H H H . . . . . ",
"n n n n n n n n ` C  . ...> . +.@.@.#.$.%.&.*.=.-.M ;.>.,.'.).!.F n G 0 n n n n . . . . . ",
"J ~.~.H n . . . . . . . {.u u u u u ].^./.*.(._.:.<.[.}.|.. n 1.n . . . . . . . . . . . . ",
"2.3.4.5.. 6.6.. . . . . . . . 7.8.9.0.a.b.c.d.O e.f.g.h.i.j.k.l.> . . . . m.6.> . . . . . ",
"n.o.m p.q.6.. . . . . . . . . . r.s.t.u.v.w.x.y.z.A.B.C.D.E.F.G.H.m m m p.I.m m . . . . . ",
"J.K.L.M.N.q.O.> . . . . . . . . n s.P.Q.R.S.T.U.V.W.X.Y.Z.`. +.+++r.@+@+r.#+$+r.. . . . . ",
"%+&+*+=+-+q.6.. . . . . . . . ;+>+,+(.'+)+!+~+{+]+^+/+(+_+:+<+[+}+r.n.n.@+|+1+n.. . . . . ",
"2+3+4+5+6+7+8+9+0+0+a+b+a+a+a+c+d+r.e+f+g+h+i+j+k+l+m+n+o+p+q+r+s+t+u+v+w+x+y+z+A+B+B+C+D+",
"E+F+G+H+I+J+K+L+M+N+O+P+Q+R+S+T+C+C+C+C+U+U+C+V+W+X+Y+Z+`+ @.@+@@@#@G+G+#@#@$@$@%@&@*@=@-@",
";@>@,@E+'@'@)@!@~@{@]@^@/@^@(@_@:@<@:@[@}@}@|@1@2@3@4@5@6@7@8@9@>@0@a@b@c@>@,@d@e@f@g@h@i@",
"j@;@j@k@l@0@0@m@n@'@o@p@p@p@q@r@q@q@q@q@H+q@s@t@u@v@w@x@y@z@A@B@C@k@k@k@D@D@D@k@E@F@G@H@I@",
"C@J@C@9@K@j@k@L@M@N@O@M@N@N@N@O@P@P@P@P@P@P@H@N@Q@R@S@T@U@V@W@X@Y@Y@Y@Y@K@K@Y@Y@Z@`@ #.#+#",
"O@;@j@C@@#Y@Y@Y@.#.#.#.#V@.#.#.#.#.###$#$#.#.#Y@%#&#*#=#=#-#;#>#D@D@D@D@D@,#j@M@'#)#!#~#~#",
"{#]#^#j@D@@#@#W@/#/#/#/#$#/#/#/#E@M@N@M@E@M@N@(#_#:#<#[#}#}#|#]#1#>@]#]#,@{#2#2#2#3#3#4#2#",
"p@m@5#6#7#9@9@8#9#0#a#9#9#a#a#b#d@2#E+E+E+4#c#d#e#f#g#h#i#g#j#4#k#k#k#k#k#G+$@$@l#m#n#n#o#",
".@$@p#q#r#s#t#u#v#w#x#m@k#y##@z#A#o#B#C#D#D#E#F#G#H#I#J#K#L#M#N#O#P#P#Q#B#R#S#T#U#U#V#W#X#",
"Y#Z#`# $.$+$@$#$$$%$&$*$Z#=$-$;$>$,$'$)$!$~${$]$^$/$($_$:$<$[$}$|$1$2$3$3$4$3$5$w+6$7$8$9$",
"0$a$b$c$d$e$f$g$h$i$j$k$k$l$m$n$o$p$q$r$s$t$u$v$w$x$y$z$A$B$C$D$E$F$G$H$I$J$K$L$r$M$N$O$P$",
"Q$R$S$T$U$V$W$X$Y$Z$`$ %.%+%@%#%$%%%&%*%=%-%;%>%,%'%)%!%~%{%]%^%/%(%_%N$:%<%[%}%|%1%2%3%0+",
"4%5%6%7%8%9%0%a%b%c%d%e%d%f%g%U+B+h%i%. j%a.k%l%m%n%o%p%q%r%s%t%u%v%g%g%g%g%w%D+0+x%y%x%z%",
"A%B%C%D%E%F%G%H%q.p.I.q.m m m r.M.I%g+J%H K%L%M%N%O%P%Q%R%S%T%U%V%m m m m m m m r.m . . . ",
"W%X%Y%Z%`% &.&+&@&#&$&+.%&&&&&m 0+r.g+g+. o *&=&-&;&>&,&'&)&!&r.. . . . . . . . r.r.m . . ",
"~&{&]&^&/&(&K%_&:&:&<&[&%&%&%&m }&0+r.I%|&M.g%1&2&3&4&5&6&7&8&9&0&. . . . . . . v%r.r.m . ",
"a&b&c&;+d&e&f&g&&&+.@&A %&&&&&. h&m m i&j&j&v%,+k&l&m&n&o&p&q&r&0&. . . . . . . m m m m . ",
"s&t&u&v&m w&x&*.. . . . . . . . . . . . . . . . . . . . . . . . . . . . . . . . . . . . . ",
"y&z&A&B&r.K I%C&. . . . . . . . . . . . . . . . . . . . . . . . . . . . . . . . . . . . . ",
"D&&&E&F&G&H&I&J&. . . . . . . . . . . . . . . . . . . . . . . . . . . . . . . . . . . . . ",
"K&L&M&N&r.O&P&=&. . . . . . . . . . . . . . . . . . . . . . . . . . . . . . . . . . . . . ",
"Q&R&S&T&r.8.g+U&. . . . . . . . . . . . . . . . . . . . . . . . . . . . . . . . . . . . . "};
