/* XPM */
static char * L_FootSmall_xpm[] = {
"115 32 358 2",
"  	c None",
". 	c #C6C7C7",
"+ 	c #C5C8CA",
"@ 	c #C7C6C8",
"# 	c #C9C8C5",
"$ 	c #C6CAC9",
"% 	c #A1DFA4",
"& 	c #8AC889",
"* 	c #C6CBCB",
"= 	c #797D81",
"- 	c #747B81",
"; 	c #6E7780",
"> 	c #626D76",
", 	c #79838B",
"' 	c #8A9198",
") 	c #7A7E82",
"! 	c #9DA0A1",
"~ 	c #92C790",
"{ 	c #9ADD9C",
"] 	c #C2CAC7",
"^ 	c #C8C7C5",
"/ 	c #C7C7C7",
"( 	c #C4C8CB",
"_ 	c #C8C7C6",
": 	c #C7C6C3",
"< 	c #C4C8C8",
"[ 	c #A3E0A6",
"} 	c #8CCA8B",
"| 	c #9A9C9A",
"1 	c #585757",
"2 	c #595A5C",
"3 	c #67696C",
"4 	c #494C50",
"5 	c #35373A",
"6 	c #8C8E90",
"7 	c #6D6C6C",
"8 	c #828282",
"9 	c #74AA73",
"0 	c #9BDF9E",
"a 	c #C3CBC8",
"b 	c #C8C7C4",
"c 	c #C3C7C6",
"d 	c #A4E1A7",
"e 	c #89C889",
"f 	c #A0A1A0",
"g 	c #737170",
"h 	c #595859",
"i 	c #656567",
"j 	c #616064",
"k 	c #5E5E60",
"l 	c #676668",
"m 	c #4E4C4C",
"n 	c #B1B0B0",
"o 	c #92C791",
"p 	c #9BDF9D",
"q 	c #C1C8C5",
"r 	c #C8CCCB",
"s 	c #A2DFA5",
"t 	c #87C687",
"u 	c #C5C6C6",
"v 	c #4A484C",
"w 	c #3C3B40",
"x 	c #6E6E73",
"y 	c #46464B",
"z 	c #55555A",
"A 	c #747378",
"B 	c #3D3B3F",
"C 	c #BCBBBC",
"D 	c #95CA93",
"E 	c #C3CAC7",
"F 	c #C7C6C4",
"G 	c #C5C8C5",
"H 	c #C7C6CB",
"I 	c #CAC5CC",
"J 	c #C9C7C9",
"K 	c #C0C9C1",
"L 	c #ADDFAD",
"M 	c #89C786",
"N 	c #B7D0B8",
"O 	c #151C18",
"P 	c #7A7D7D",
"Q 	c #7C7D7F",
"R 	c #5C5B60",
"S 	c #59575D",
"T 	c #77767C",
"U 	c #464649",
"V 	c #5D6E5E",
"W 	c #91CB8F",
"X 	c #A2D9A3",
"Y 	c #BECAC0",
"Z 	c #C9C8C8",
"` 	c #C9C5CA",
" .	c #C7C6CA",
"..	c #C6C8C5",
"+.	c #C4C9C5",
"@.	c #C9C5CB",
"#.	c #CCC4CD",
"$.	c #C9C6CB",
"%.	c #C1CDC0",
"&.	c #B3D5B1",
"*.	c #84BB81",
"=.	c #98C097",
"-.	c #162317",
";.	c #69716A",
">.	c #5C5E5D",
",.	c #666367",
"'.	c #676369",
").	c #6D6C70",
"!.	c #818385",
"~.	c #527053",
"{.	c #84BA82",
"].	c #AED3AD",
"^.	c #C1CFC1",
"/.	c #C7C5C9",
"(.	c #CCC4CC",
"_.	c #C9C5C9",
":.	c #C5C9C4",
"<.	c #C4C9C3",
"[.	c #C6C7C8",
"}.	c #C8C6C9",
"|.	c #CAC5CB",
"1.	c #C1CAC0",
"2.	c #B9D0B9",
"3.	c #B3D6B2",
"4.	c #637E64",
"5.	c #444F46",
"6.	c #5D635D",
"7.	c #9A9A9A",
"8.	c #555356",
"9.	c #4F4D51",
"0.	c #69696C",
"a.	c #787A7C",
"b.	c #172A1A",
"c.	c #7A9D7B",
"d.	c #BBD4BD",
"e.	c #C0CAC1",
"f.	c #CAC5CA",
"g.	c #C9C6C9",
"h.	c #C6C8C7",
"i.	c #C6C8C6",
"j.	c #C8C7CA",
"k.	c #C8C7C9",
"l.	c #C8C7C8",
"m.	c #C5C7C4",
"n.	c #C5CAC5",
"o.	c #C4CDC5",
"p.	c #C0CCC2",
"q.	c #455147",
"r.	c #454D46",
"s.	c #373A36",
"t.	c #222321",
"u.	c #5E5D5F",
"v.	c #646265",
"w.	c #39393B",
"x.	c #4E4E50",
"y.	c #303835",
"z.	c #37423B",
"A.	c #B9C2BB",
"B.	c #C6CCC7",
"C.	c #C7C7C8",
"D.	c #C7C6C9",
"E.	c #C9C6CA",
"F.	c #C8C6C8",
"G.	c #C7C7C5",
"H.	c #C8CAC6",
"I.	c #C8C6CB",
"J.	c #49454D",
"K.	c #67686B",
"L.	c #808482",
"M.	c #B9BCBA",
"N.	c #AAABAA",
"O.	c #ABAAAB",
"P.	c #A8A7A9",
"Q.	c #8E8E90",
"R.	c #707072",
"S.	c #67666C",
"T.	c #26222B",
"U.	c #8D8B8F",
"V.	c #C6C7C6",
"W.	c #C9CBC7",
"X.	c #C8C6CA",
"Y.	c #C7C7C6",
"Z.	c #C7C7C4",
"`.	c #C7C9C5",
" +	c #9C979E",
".+	c #443A49",
"++	c #AEA9B2",
"@+	c #B6B6B7",
"#+	c #B6B7B7",
"$+	c #B0B0B0",
"%+	c #B5B5B4",
"&+	c #B4B4B3",
"*+	c #AFAFB0",
"=+	c #B7B7B9",
"-+	c #B4B0B7",
";+	c #8E8491",
">+	c #69646A",
",+	c #CBC9CA",
"'+	c #C6C8C4",
")+	c #C7C8C4",
"!+	c #C7C6C7",
"~+	c #747275",
"{+	c #78747C",
"]+	c #B3B0B7",
"^+	c #C3C2C5",
"/+	c #D0CFD0",
"(+	c #D6D6D6",
"_+	c #DDDDDA",
":+	c #DBDBD9",
"<+	c #D3D3D3",
"[+	c #C9C9CA",
"}+	c #B8B6BA",
"|+	c #A8A5AA",
"1+	c #6A676B",
"2+	c #BDBCBD",
"3+	c #C8C7C7",
"4+	c #C7C7C9",
"5+	c #C8C5C6",
"6+	c #C7C6C6",
"7+	c #6E706E",
"8+	c #878B88",
"9+	c #AEAFB0",
"0+	c #DBDADC",
"a+	c #EAEAE9",
"b+	c #F4F5F1",
"c+	c #F1F1EE",
"d+	c #E2E2E1",
"e+	c #B8BAB8",
"f+	c #A1A6A1",
"g+	c #727470",
"h+	c #9C9B9B",
"i+	c #C9C7C8",
"j+	c #BECDC3",
"k+	c #C0C9C3",
"l+	c #C4C6C5",
"m+	c #CCCACA",
"n+	c #636362",
"o+	c #838683",
"p+	c #A4A6A5",
"q+	c #C3C2C3",
"r+	c #D6D5D6",
"s+	c #E5E5E5",
"t+	c #F2F2F0",
"u+	c #EFF0EF",
"v+	c #E3E3E2",
"w+	c #D0D0D0",
"x+	c #B7B9B7",
"y+	c #949893",
"z+	c #7F827E",
"A+	c #848484",
"B+	c #698073",
"C+	c #BDCCC2",
"D+	c #C1CAC3",
"E+	c #C6C7C5",
"F+	c #C6C4C5",
"G+	c #969496",
"H+	c #A3A2A4",
"I+	c #B4B4B5",
"J+	c #C1C1C1",
"K+	c #CBCBCB",
"L+	c #D1D1D1",
"M+	c #D7D7D7",
"N+	c #D5D5D5",
"O+	c #C6C6C6",
"P+	c #BCBCBC",
"Q+	c #ABABAB",
"R+	c #A2A2A2",
"S+	c #A3A3A3",
"T+	c #BBCBC1",
"U+	c #C1CBC4",
"V+	c #C5C9C5",
"W+	c #C7C5C5",
"X+	c #C8C8CA",
"Y+	c #C6C6C7",
"Z+	c #C8C8C8",
"`+	c #C9C9C9",
" @	c #C3CBC5",
".@	c #C7CAC6",
"+@	c #C5C4C3",
"@@	c #CAC6C7",
"#@	c #C9C6C7",
"$@	c #C5C4C6",
"%@	c #C7C8CA",
"&@	c #C7C8C7",
"*@	c #C5C3C3",
"=@	c #CAC7C7",
"-@	c #CBC7C8",
";@	c #C8C8C9",
">@	c #C8C6C7",
",@	c #C9C6C8",
"'@	c #0E0E0E",
")@	c #141414",
"!@	c #242424",
"~@	c #282828",
"{@	c #393939",
"]@	c #B9B9B9",
"^@	c #BFBFBF",
"/@	c #171717",
"(@	c #B3B3B3",
"_@	c #888888",
":@	c #424242",
"<@	c #646464",
"[@	c #292929",
"}@	c #A9A9A9",
"|@	c #353535",
"1@	c #444444",
"2@	c #B1B1B1",
"3@	c #373737",
"4@	c #101010",
"5@	c #5E5E5E",
"6@	c #C5C5C5",
"7@	c #0D0D0D",
"8@	c #0F0F0F",
"9@	c #6D6D6D",
"0@	c #363636",
"a@	c #2E2E2E",
"b@	c #B6B6B6",
"c@	c #464646",
"d@	c #7F7F7F",
"e@	c #5A5A5A",
"f@	c #6B6B6B",
"g@	c #7E7E7E",
"h@	c #4C4C4C",
"i@	c #1F1F1F",
"j@	c #212121",
"k@	c #A8A8A8",
"l@	c #454545",
"m@	c #878787",
"n@	c #C4C4C4",
"o@	c #BEBEBE",
"p@	c #232323",
"q@	c #AFAFAF",
"r@	c #2C2C2C",
"s@	c #9F9F9F",
"t@	c #787878",
"u@	c #515151",
"v@	c #8C8C8C",
"w@	c #A4A4A4",
"x@	c #2D2D2D",
"y@	c #7B7B7B",
"z@	c #474747",
"A@	c #737373",
"B@	c #434343",
"C@	c #949494",
"D@	c #2F2F2F",
"E@	c #696969",
"F@	c #626262",
"G@	c #636363",
"H@	c #B7B7B7",
"I@	c #6F6F6F",
"J@	c #BDBDBD",
"K@	c #6E6E6E",
"L@	c #797979",
"M@	c #8B8B8B",
"N@	c #9C9C9C",
"O@	c #C3C3C3",
"P@	c #919191",
"Q@	c #727272",
". + @ # $ % & * = - ; > , ' ) ! ~ { ] ^ / ( . _ / / / / / / / / / / / / / / / / / / / / / / / / / / / / / / / / / / / / / / / / / / / / / / / / / / / / / / / / / / / / / / / / / / / / / / / / / / / / / / / / / / / / / / / / / / / ",
". + @ : < [ } | 1 2 3 4 5 6 7 8 9 0 a : / ( . _ / / / / / / / / / / / / / / / / / / / / / / / / / / / / / / / / / / / / / / / / / / / / / / / / / / / / / / / / / / / / / / / / / / / / / / / / / / / / / / / / / / / / / / / / / / / ",
". + @ b c d e f g h i j k l m n o p q # / ( . _ / / / / / / / / / / / / / / / / / / / / / / / / / / / / / / / / / / / / / / / / / / / / / / / / / / / / / / / / / / / / / / / / / / / / / / / / / / / / / / / / / / / / / / / / / / / ",
". + @ : r s t u v w x y z A B C D 0 E F / ( . _ / / / / / / / / / / / / / / / / / / / / / / / / / / / / / / / / / / / / / / / / / / / / / / / / / / / / / / / / / / / / / / / / / / / / / / / / / / / / / / / / / / / / / / / / / / / ",
"G H I J K L M N O P Q R S T U V W X Y Z `  .G ../ / / / / / / / / / / / / / / / / / / / / / / / / / / / / / / / / / / / / / / / / / / / / / / / / / / / / / / / / / / / / / / / / / / / / / / / / / / / / / / / / / / / / / / / / / / ",
"+.@.#.$.%.&.*.=.-.;.>.,.'.).!.~.{.].^./.(._.:.<./ / / / / / / / / / / / / / / / / / / / / / / / / / / / / / / / / / / / / / / / / / / / / / / / / / / / / / / / / / / / / / / / / / / / / / / / / / / / / / / / / / / / / / / / / / / ",
"[.}.|.}.1.2.3.4.5.6.7.8.9.0.a.b.c.d.e.@ f.g.h.i./ / / / / / / / / / / / / / / / / / / / / / / / / / / / / / / / / / / / / / / / / / / / / / / / / / / / / / / / / / / / / / / / / / / / / / / / / / / / / / / / / / / / / / / / / / / ",
"j.k.l.m.n.o.p.q.r.s.t.u.v.w.x.y.z.A.B.m.C.l.D.C./ / / / / / / / / / / / / / / / / / / / / / / / / / / / / / / / / / / / / / / / / / / / / / / / / / / / / / / / / / / / / / / / / / / / / / / / / / / / / / / / / / / / / / / / / / / ",
"E.F.G.H.i.I.J.K.L.M.N.O.P.Q.R.S.T.U.V.W...C.X.X./ / / / / / / / / / / / / / / / / / / / / / / / / / / / / / / / / / / / / / / / / / / / / / / / / / / / / / / / / / / / / / / / / / / / / / / / / / / / / / / / / / / / / / / / / / / ",
"X.Y.Z.`.Z  +.+++@+#+$+%+&+*+=+-+;+>+,+'+)+/ X.X./ / / / / / / / / / / / / / / / / / / / / / / / / / / / / / / / / / / / / / / / / / / / / / / / / / / / / / / / / / / / / / / / / / / / / / / / / / / / / / / / / / / / / / / / / / / ",
"C.Y.G.G.!+~+{+]+^+/+(+_+:+<+[+}+|+1+2+3+Y.C.4+C./ / / / / / / / / / / / / / / / / / / / / / / / / / / / / / / / / / / / / / / / / / / / / / / / / / / / / / / / / / / / / / / / / / / / / / / / / / / / / / / / / / / / / / / / / / / ",
"i.Y._ 5+6+7+8+9+/.0+a+b+c+d+(+e+f+g+h+i+F.C.[.[./ / / / / / / / / / / / / / / / / / / / / / / / / / / / / / / / / / / / / / / / / / / / / / / / / / / / / / / / / / / / / / / / / / / / / / / / / / / / / / / / / / / / / / / / / / / ",
"j+k+l+6+m+n+o+p+q+r+s+t+u+v+w+x+y+z+A+!+l.C./ / / / / / / / / / / / / / / / / / / / / / / / / / / / / / / / / / / / / / / / / / / / / / / / / / / / / / / / / / / / / / / / / / / / / / / / / / / / / / / / / / / / / / / / / / / / / ",
"B+C+D+E+F+G+H+I+J+K+L+M+N+w+O+P+Q+R+S+O+/ / / / / / / / / / / / / / / / / / / / / / / / / / / / / / / / / / / / / / / / / / / / / / / / / / / / / / / / / / / / / / / / / / / / / / / / / / / / / / / / / / / / / / / / / / / / / / / ",
"T+U+V+W+F+J X+Y+/ / Z+/ Z+/ O+O+`+Z+O+Z+/ / / / / / / / / / / / / / / / / / / / / / / / / / / / / / / / / / / / / / / / / / / / / / / / / / / / / / / / / / / / / / / / / / / / / / / / / / / / / / / / / / / / / / / / / / / / / / / ",
" @.@+@@@#@$@%@C./ / Z+/ O+O+/ O+Z+/ / / / / / / / / / / / / / / / / / / / / / / / / / / / / / / / / / / / / / / / / / / / / / / / / / / / / / / / / / / / / / / / / / / / / / / / / / / / / / / / / / / / / / / / / / / / / / / / / / ",
"&@*@=@-@#@@ %@;@Z+/ / / O+/ Z+Z+/ / / / / / / / / / / / / / / / / / / / / / / / / / / / / / / / / / / / / / / / / / / / / / / / / / / / / / / / / / / / / / / / / / / / / / / / / / / / / / / / / / / / / / / / / / / / / / / / / / / ",
">@>@#@#@,@}.4+C./ / / / / / / / / / / / / / / / / / / / / / / / / / / / / / / / / / / / / / / / / / / / / / / / / / / / / / / / / / / / / / / / / / / / / / / / / / / / / / / / / / / / / / / / / / / / / / / / / / / / / / / / / / / ",
"F.F.l.l.k.k.l.C./ / / / / / / / / / / / / / / / / / / / / / / / / / / / / / / / / / / / / / / / / / / / / / / / / / / / / / / / / / / / / / / / / / / / / / / / / / / / / / / / / / / / / / / / / / / / / / / / / / / / / / / / / / / ",
"k.4+4+4+4+C.>@>@/ / / / / / / / / / / / / / / / / / / / / / / / / / / / / / / / / / / / / / / / / / / / / / / / / / / / / / / / / / / / / / / / / / / / / / / / / / / / / / / / / / / / / / / / / / / / / / / / / / / / / / / / / / / ",
"C.C.C.C.C.C.3+/ / / / / '@P+/ / / / / / / / / )@!@~@~@{@]@/ / / / / / / / / / O+^@/ / / / / / / / / / / / / / / / / / / / / / / / / / / / / / / / / / / / / / / / / / / / / / / / / / / / / / / / / / / / / / / / / / / / / / / / / / ",
"/ / / / / / / / / / / / '@P+/ / / / / / / / / /@(@/ / / / / / / / / / / / / / _@:@/ / / / / / / / / / / / / / / / / / / / / / / / / / / / / / / / / / / / / / / / / / / / / / / / / / / / / / / / / / / / / / / / / / / / / / / / / / ",
"/ / / / / / / / / / / / '@P+/ / / / / / / / / /@(@/ / / O+<@[@[@_@/ }@|@[@1@2@3@4@5@6@/ / / / / / / / / / / / / / / / / / / / / / / / / / / / / / / / / / / / / / / / / / / / / / / / / / / / / / / / / / / / / / / / / / / / / / / / ",
"/ / / / / / / / / / / / '@P+/ / / / / / / / / )@7@8@8@9@7.0@P+}@a@b@c@d@/ e@f@_@:@/ / / / / / / / / / / / / / / / / / / / / / / / / / / / / / / / / / / / / / / / / / / / / / / / / / / / / / / / / / / / / / / / / / / / / / / / / / ",
"/ / / / / / / / / / / / '@P+/ / / / / / / / / /@(@/ / / g@h@/ O+i@Q+j@k@/ A+l@_@:@/ / / / / / / / / / / / / / / / / / / / / / / / / / / / / / / / / / / / / / / / / / / / / / / / / / / / / / / / / / / / / / / / / / / / / / / / / / ",
"/ / / / / / / / / / / / '@P+/ / / / / / / / / /@(@/ / / m@c@n@o@p@q@r@s@/ t@u@_@:@/ / / / / / / / / / / / / / / / / / / / / / / / / / / / / / / / / / / / / / / / / / / / / / / / / / / / / / / / / / / / / / / / / / / / / / / / / / ",
"/ / / / / / / / / / / / 7@A+v@v@w@/ / / / / / /@(@/ / / b@x@y@5@z@J+A@B@_@r@C@C@D@w@/ / / / / / / / / / / / / / / / / / / / / / / / / / / / / / / / / / / / / / / / / / / / / / / / / / / / / / / / / / / / / / / / / / / / / / / / / ",
"/ / / / / / / / / / / / E@<@<@<@F@G@<@G@<@<@H@I@J@/ / / / q@K@L@J@/ 6@M@E@N@O+O@d@P@/ / / / / / / / / / / / / / / / / / / / / / / / / / / / / / / / / / / / / / / / / / / / / / / / / / / / / / / / / / / / / / / / / / / / / / / / / ",
"/ / / / / / / / / / / / / / / / S+A@A@Q@A@A@]@/ / / / / / / / / / / / / / / / / / / / / / / / / / / / / / / / / / / / / / / / / / / / / / / / / / / / / / / / / / / / / / / / / / / / / / / / / / / / / / / / / / / / / / / / / / / / ",
"/ / / / / / / / / / / / / / / / / / / / / / / / / / / / / / / / / / / / / / / / / / / / / / / / / / / / / / / / / / / / / / / / / / / / / / / / / / / / / / / / / / / / / / / / / / / / / / / / / / / / / / / / / / / / / / / / / / / ",
"/ / / / / / / / / / / / / / / / / / / / / / / / / / / / / / / / / / / / / / / / / / / / / / / / / / / / / / / / / / / / / / / / / / / / / / / / / / / / / / / / / / / / / / / / / / / / / / / / / / / / / / / / / / / / / / / / / / / ",
"/ / / / / / / / / / / / / / / / / / / / / / / / / / / / / / / / / / / / / / / / / / / / / / / / / / / / / / / / / / / / / / / / / / / / / / / / / / / / / / / / / / / / / / / / / / / / / / / / / / / / / / / / / / / / / / / / / / / "};
