/* XPM */
static char * L_HandSmall_xpm[] = {
"47 48 699 2",
"  	c None",
". 	c #C7C7C7",
"+ 	c #A7A7A7",
"@ 	c #8A8A8A",
"# 	c #AFAFAF",
"$ 	c #828282",
"% 	c #858585",
"& 	c #ACACAC",
"* 	c #737373",
"= 	c #939393",
"- 	c #878787",
"; 	c #4D4D4D",
"> 	c #989898",
", 	c #3C3C3C",
"' 	c #434343",
") 	c #929292",
"! 	c #545454",
"~ 	c #808080",
"{ 	c #C7C7C5",
"] 	c #C7C8C4",
"^ 	c #C7C6CD",
"/ 	c #C8C7CD",
"( 	c #C7C8C9",
"_ 	c #C5C5CB",
": 	c #C7C6CC",
"< 	c #888788",
"[ 	c #4D4C4B",
"} 	c #C7C6C4",
"| 	c #C7C6C9",
"1 	c #C7C7C8",
"2 	c #C7C7C4",
"3 	c #C8C7C6",
"4 	c #C7C8C1",
"5 	c #989897",
"6 	c #3A3A3A",
"7 	c #BEBEBE",
"8 	c #BDBDBD",
"9 	c #3F3F3F",
"0 	c #C3C3C3",
"a 	c #747474",
"b 	c #343434",
"c 	c #515151",
"d 	c #464646",
"e 	c #444444",
"f 	c #454545",
"g 	c #BFBFBF",
"h 	c #5A5A5A",
"i 	c #656565",
"j 	c #2A2A2A",
"k 	c #C7C6CB",
"l 	c #C7C9BA",
"m 	c #C6C7C9",
"n 	c #C6C9BE",
"o 	c #C8C8C5",
"p 	c #C8C6C8",
"q 	c #888685",
"r 	c #4D4B4C",
"s 	c #CAC7C7",
"t 	c #C7C6C6",
"u 	c #C6C5CB",
"v 	c #C7C5D0",
"w 	c #C8C6C7",
"x 	c #C8C7C1",
"y 	c #222222",
"z 	c #646464",
"A 	c #636363",
"B 	c #212121",
"C 	c #B5B5B5",
"D 	c #8D8D8D",
"E 	c #2E2E2E",
"F 	c #919191",
"G 	c #727272",
"H 	c #242424",
"I 	c #999999",
"J 	c #535353",
"K 	c #C7C5D1",
"L 	c #C7C6CA",
"M 	c #C7CAB6",
"N 	c #C7C8C3",
"O 	c #C6C5C9",
"P 	c #C8C9B8",
"Q 	c #D1D4A5",
"R 	c #D8DA9B",
"S 	c #959869",
"T 	c #4F4E46",
"U 	c #CAC8C1",
"V 	c #C7C9B8",
"W 	c #C7C8C6",
"X 	c #C6C7CB",
"Y 	c #C6C8C5",
"Z 	c #C7C6CF",
"` 	c #A9A9A9",
" .	c #AAAAAA",
"..	c #404040",
"+.	c #909090",
"@.	c #838383",
"#.	c #252525",
"$.	c #555555",
"%.	c #C4C4C4",
"&.	c #494949",
"*.	c #C7C5CF",
"=.	c #C7C5D2",
"-.	c #C6C9C1",
";.	c #C9C5D2",
">.	c #CDC7C8",
",.	c #D8DA8C",
"'.	c #DCE54D",
").	c #969A40",
"!.	c #23241A",
"~.	c #55544D",
"{.	c #55564D",
"].	c #959597",
"^.	c #C6C8C8",
"/.	c #C5C9C3",
"(.	c #C5C7CB",
"_.	c #AEAEAE",
":.	c #2F2F2F",
"<.	c #565656",
"[.	c #424242",
"}.	c #505050",
"|.	c #BBBBBB",
"1.	c #292929",
"2.	c #C7C7C9",
"3.	c #C6C9C2",
"4.	c #C6C8C4",
"5.	c #C8C5C8",
"6.	c #CBC0CA",
"7.	c #D3CD8D",
"8.	c #E3E751",
"9.	c #E1DF7D",
"0.	c #CFCAAB",
"a.	c #C8C0C8",
"b.	c #CAC6C6",
"c.	c #A5A5A2",
"d.	c #595A59",
"e.	c #585A5D",
"f.	c #595B59",
"g.	c #626361",
"h.	c #B6B6B6",
"i.	c #C7C8C0",
"j.	c #C7C8C2",
"k.	c #C6C8C3",
"l.	c #C6CABE",
"m.	c #C8C7C5",
"n.	c #CFC6C8",
"o.	c #D2C998",
"p.	c #E5DF6D",
"q.	c #E4DA91",
"r.	c #CFC6A7",
"s.	c #DBDC96",
"t.	c #D4D79E",
"u.	c #C8C9BF",
"v.	c #C6C9C0",
"w.	c #C5C8C6",
"x.	c #C5C9C2",
"y.	c #C5C8C8",
"z.	c #C7C8BF",
"A.	c #C5C7CA",
"B.	c #C6C6C9",
"C.	c #CCC6C3",
"D.	c #D2CF85",
"E.	c #E3E355",
"F.	c #E5DE77",
"G.	c #D4D366",
"H.	c #E0EC48",
"I.	c #DCE280",
"J.	c #CAC7C4",
"K.	c #C6CABB",
"L.	c #C6C6CE",
"M.	c #C8C6CB",
"N.	c #C6C7CC",
"O.	c #C4C8C9",
"P.	c #CACCA9",
"Q.	c #D9DE71",
"R.	c #DFE14E",
"S.	c #E3DE62",
"T.	c #E3E45C",
"U.	c #DDE73F",
"V.	c #DBDE7B",
"W.	c #CBC4C4",
"X.	c #C7C6C8",
"Y.	c #C6C6C7",
"Z.	c #C6C4CC",
"`.	c #CAC4CF",
" +	c #B9D5B4",
".+	c #A5DDA3",
"++	c #ABDBAB",
"@+	c #A3E387",
"#+	c #AEF879",
"$+	c #AFFA77",
"%+	c #B0F973",
"&+	c #B1F772",
"*+	c #B4F964",
"=+	c #B0F175",
"-+	c #A9DDA4",
";+	c #ADDAAF",
">+	c #B7D1BD",
",+	c #C4C8CB",
"'+	c #C6C6C6",
")+	c #C7C8C7",
"!+	c #C7C8C8",
"~+	c #C6C7C6",
"{+	c #C8C9C8",
"]+	c #CBC8C9",
"^+	c #C8C5C6",
"/+	c #C8C7C7",
"(+	c #C7C6C7",
"_+	c #C6C8C7",
":+	c #C5C8C7",
"<+	c #C4C8C7",
"[+	c #C5C9C7",
"}+	c #C5C9C5",
"|+	c #C5C8C4",
"1+	c #74747B",
"2+	c #9C9CA1",
"3+	c #C7C7CC",
"4+	c #C1C5CA",
"5+	c #CACAD2",
"6+	c #A6DAA5",
"7+	c #71C774",
"8+	c #8FC694",
"9+	c #8AC986",
"0+	c #87C88A",
"a+	c #8CCB8E",
"b+	c #8AC787",
"c+	c #8EC589",
"d+	c #93C48C",
"e+	c #8CC986",
"f+	c #8DC886",
"g+	c #7EC27C",
"h+	c #9ED398",
"i+	c #C4CEC2",
"j+	c #C8C9C4",
"k+	c #C5C6C6",
"l+	c #C5C6C7",
"m+	c #C4C5C6",
"n+	c #C6C7C8",
"o+	c #C7C9C9",
"p+	c #C6C5C6",
"q+	c #CBC9CA",
"r+	c #C5C8C9",
"s+	c #C6C7C7",
"t+	c #33343F",
"u+	c #31323C",
"v+	c #2E2F38",
"w+	c #282F32",
"x+	c #707379",
"y+	c #5E8D61",
"z+	c #5EA168",
"A+	c #687773",
"B+	c #C0C4BE",
"C+	c #CCC5CC",
"D+	c #CFBFCC",
"E+	c #D3C1CF",
"F+	c #D0C1D3",
"G+	c #CDC1CF",
"H+	c #C4C7C7",
"I+	c #C1CBC1",
"J+	c #9AC99B",
"K+	c #9BDB99",
"L+	c #BFCABB",
"M+	c #C9C8CA",
"N+	c #C8C7C8",
"O+	c #C5C7C9",
"P+	c #C4C9C9",
"Q+	c #C3C9C9",
"R+	c #C9C5CA",
"S+	c #CAC5CA",
"T+	c #CAC5CB",
"U+	c #CBC5CA",
"V+	c #CBC4CA",
"W+	c #CBC5C9",
"X+	c #CAC5C9",
"Y+	c #3E4150",
"Z+	c #3E404F",
"`+	c #3E414E",
" @	c #3A3F49",
".@	c #3D3A48",
"+@	c #214D2A",
"@@	c #40804F",
"#@	c #2F3B3A",
"$@	c #A4A599",
"%@	c #ACA59B",
"&@	c #AEA395",
"*@	c #A69D8F",
"=@	c #A09C93",
"-@	c #A49E94",
";@	c #A5A19B",
">@	c #A79F9A",
",@	c #89AD7C",
"'@	c #76B86A",
")@	c #9F978E",
"!@	c #A08B98",
"~@	c #C2B6B6",
"{@	c #CFC4C3",
"]@	c #CFC3C2",
"^@	c #CEC3C2",
"/@	c #C1B6B5",
"(@	c #958A89",
"_@	c #978B8A",
":@	c #BCB3B2",
"<@	c #C9C7C6",
"[@	c #C5C3C3",
"}@	c #CAC8C8",
"|@	c #C7C6C5",
"1@	c #C7C7C6",
"2@	c #C6C8C6",
"3@	c #C9C6C8",
"4@	c #C8C6C9",
"5@	c #404355",
"6@	c #414456",
"7@	c #414455",
"8@	c #3F4651",
"9@	c #424451",
"0@	c #265634",
"a@	c #478657",
"b@	c #444447",
"c@	c #CBB9B1",
"d@	c #DDC0B6",
"e@	c #DDBEAB",
"f@	c #DEBFAB",
"g@	c #D3BAA9",
"h@	c #D2B7A6",
"i@	c #CFB2AA",
"j@	c #CFACAD",
"k@	c #A7B486",
"l@	c #8FC571",
"m@	c #BFAE9F",
"n@	c #C3A3AC",
"o@	c #C1A8A2",
"p@	c #BDA59E",
"q@	c #B9A19A",
"r@	c #B69E97",
"s@	c #B19992",
"t@	c #AB938C",
"u@	c #A18982",
"v@	c #97817B",
"w@	c #B4A39E",
"x@	c #CCBBB7",
"y@	c #CCBCB8",
"z@	c #C3B4B0",
"A@	c #B7A8A3",
"B@	c #B1A39E",
"C@	c #AA9B96",
"D@	c #A09590",
"E@	c #B4B2AB",
"F@	c #CAC8C0",
"G@	c #CBC7BF",
"H@	c #C9C5BE",
"I@	c #CAC7C1",
"J@	c #3F4254",
"K@	c #3C454F",
"L@	c #3E454D",
"M@	c #225832",
"N@	c #448657",
"O@	c #43424A",
"P@	c #D6BCC0",
"Q@	c #EAC5CC",
"R@	c #EAC5C6",
"S@	c #ECC6C4",
"T@	c #E2C0BF",
"U@	c #DEBCB6",
"V@	c #E1B8B7",
"W@	c #E4B7BC",
"X@	c #C8BD9C",
"Y@	c #B6CF8A",
"Z@	c #D9BFAA",
"`@	c #E2BCB8",
" #	c #E1BFB4",
".#	c #E3C1B5",
"+#	c #E6C4B8",
"@#	c #E8C6BA",
"##	c #EAC8BC",
"$#	c #EBC9BE",
"%#	c #E7C5BA",
"&#	c #DEBCB1",
"*#	c #D9B9B1",
"=#	c #D1B1A9",
"-#	c #C9AAA1",
";#	c #C5A69E",
">#	c #BFA098",
",#	c #B4978E",
"'#	c #A5897F",
")#	c #9D8279",
"!#	c #B49F96",
"~#	c #A89389",
"{#	c #A79086",
"]#	c #9E887D",
"^#	c #917E76",
"/#	c #7C6B65",
"(#	c #A09491",
"_#	c #CDC5C4",
":#	c #3B3E4E",
"<#	c #3B3D4D",
"[#	c #373F48",
"}#	c #383F48",
"|#	c #1A5329",
"1#	c #3D854F",
"2#	c #3A3D3D",
"3#	c #B9A3A0",
"4#	c #C7A8A9",
"5#	c #C2A8A3",
"6#	c #BFA39C",
"7#	c #B89D97",
"8#	c #C1A598",
"9#	c #D0AA9E",
"0#	c #DBB3B0",
"a#	c #DCBDAD",
"b#	c #D1C49E",
"c#	c #DDBCAE",
"d#	c #E3BAAE",
"e#	c #E5C0B3",
"f#	c #E9C4B8",
"g#	c #EEC9BC",
"h#	c #F0CBBE",
"i#	c #F1CCBF",
"j#	c #EFCABD",
"k#	c #F3CEC3",
"l#	c #F2CCC3",
"m#	c #F1CCC3",
"n#	c #F1CDC3",
"o#	c #EECBC1",
"p#	c #EECCC2",
"q#	c #EECDC2",
"r#	c #EDCCC1",
"s#	c #EECCC3",
"t#	c #EECBC4",
"u#	c #EECAC2",
"v#	c #EFCBC1",
"w#	c #F1CEC5",
"x#	c #EBCCC6",
"y#	c #AC938F",
"z#	c #B5A2A2",
"A#	c #CFC2C4",
"B#	c #343644",
"C#	c #333543",
"D#	c #323442",
"E#	c #303541",
"F#	c #2F333F",
"G#	c #13491F",
"H#	c #388247",
"I#	c #2D332D",
"J#	c #806D65",
"K#	c #866B6A",
"L#	c #7A6862",
"M#	c #75625A",
"N#	c #6F5F59",
"O#	c #88796B",
"P#	c #AB917E",
"Q#	c #BFA49B",
"R#	c #D8AFB1",
"S#	c #E2B9B4",
"T#	c #DEBEBA",
"U#	c #E0BCAC",
"V#	c #E0BEB3",
"W#	c #E2C0B6",
"X#	c #E6C4BA",
"Y#	c #E9C7BD",
"Z#	c #E4C2B8",
"`#	c #D9B6AC",
" $	c #D6B4A9",
".$	c #DCBAB1",
"+$	c #D9B9AF",
"@$	c #D7B7AD",
"#$	c #DBBCB2",
"$$	c #E2C3B8",
"%$	c #E1C3B8",
"&$	c #DABDB2",
"*$	c #D7BAAF",
"=$	c #D4B7AD",
"-$	c #D3B5AE",
";$	c #CFB0A8",
">$	c #CBACA3",
",$	c #C6ABA1",
"'$	c #B9A49C",
")$	c #645852",
"!$	c #928D8B",
"~$	c #C9C9CA",
"{$	c #2B2C37",
"]$	c #2A2B36",
"^$	c #292A34",
"/$	c #282730",
"($	c #25212C",
"_$	c #0A3F12",
":$	c #2A7B3B",
"<$	c #1A1D1B",
"[$	c #827C72",
"}$	c #8D807F",
"|$	c #817C7A",
"1$	c #7C7A77",
"2$	c #7B7876",
"3$	c #7B7570",
"4$	c #806E64",
"5$	c #A38B85",
"6$	c #C59B9E",
"7$	c #DEAAAF",
"8$	c #E5B9B9",
"9$	c #E6BDB1",
"0$	c #DDBCAD",
"a$	c #D0B3A6",
"b$	c #C9B1A8",
"c$	c #C2ADA8",
"d$	c #A28F8B",
"e$	c #745F5B",
"f$	c #6E5752",
"g$	c #8E7874",
"h$	c #897B75",
"i$	c #93857F",
"j$	c #A1938E",
"k$	c #6B5D58",
"l$	c #776A64",
"m$	c #AFA29C",
"n$	c #AA9D98",
"o$	c #A39691",
"p$	c #9A8F8A",
"q$	c #968B86",
"r$	c #8F847E",
"s$	c #847B75",
"t$	c #AAA59F",
"u$	c #C7C6C3",
"v$	c #C7CAC9",
"w$	c #1D1E24",
"x$	c #1A1B20",
"y$	c #17181C",
"z$	c #423C3F",
"A$	c #796E73",
"B$	c #538557",
"C$	c #539E60",
"D$	c #C5C1C5",
"E$	c #C5C5BF",
"F$	c #CFC5CA",
"G$	c #CCC5CE",
"H$	c #C6C8CE",
"I$	c #C5C5CC",
"J$	c #CAC6CA",
"K$	c #877E7D",
"L$	c #7C6D67",
"M$	c #9D877F",
"N$	c #BFA39A",
"O$	c #D4B4AA",
"P$	c #E7C3B8",
"Q$	c #DAB8A8",
"R$	c #B89B8F",
"S$	c #715E58",
"T$	c #827775",
"U$	c #90898A",
"V$	c #C9C4C6",
"W$	c #CDC6C6",
"X$	c #CAC5C3",
"Y$	c #CAC9C9",
"Z$	c #C5C5C5",
"`$	c #C8C8C8",
" %	c #6C6D71",
".%	c #97989B",
"+%	c #C6C7CA",
"@%	c #C6C9C5",
"#%	c #A9DDAC",
"$%	c #8BC991",
"%%	c #BFCBC6",
"&%	c #C6CEC4",
"*%	c #C9C3C6",
"=%	c #CAC5CD",
"-%	c #C6C6CB",
";%	c #C9C5CC",
">%	c #C8C5C7",
",%	c #CBC8C4",
"'%	c #878279",
")%	c #787061",
"!%	c #958576",
"~%	c #B19A8D",
"{%	c #DBBEB3",
"]%	c #E0BBB5",
"^%	c #B4948E",
"/%	c #8E7470",
"(%	c #D4C3BF",
"_%	c #CEC4C3",
":%	c #C8C6C5",
"<%	c #C5C9C9",
"[%	c #C4C7C9",
"}%	c #C9C9C9",
"|%	c #C4C6C6",
"1%	c #C5CAC8",
"2%	c #C3C7C8",
"3%	c #B5D1AF",
"4%	c #92C68D",
"5%	c #8BC494",
"6%	c #89C885",
"7%	c #8CC784",
"8%	c #89CE82",
"9%	c #82CD7B",
"0%	c #85CC7D",
"a%	c #86C97F",
"b%	c #89C582",
"c%	c #95C48C",
"d%	c #69835D",
"e%	c #5B604B",
"f%	c #70625A",
"g%	c #A68C8A",
"h%	c #CFB0AE",
"i%	c #D6B6B3",
"j%	c #D2B4AE",
"k%	c #BDA49C",
"l%	c #BDACA6",
"m%	c #CDC6C3",
"n%	c #C4C8C8",
"o%	c #C3C8CB",
"p%	c #C8C8C9",
"q%	c #C5C6C5",
"r%	c #C7C4C8",
"s%	c #CCC8BD",
"t%	c #BBD2B0",
"u%	c #A4DCAE",
"v%	c #A1DFA5",
"w%	c #A5E2A7",
"x%	c #9BE19D",
"y%	c #9CE69B",
"z%	c #9EE29B",
"A%	c #A0E4A0",
"B%	c #9FE1A4",
"C%	c #A5DEAA",
"D%	c #AFD7B3",
"E%	c #BBCEBB",
"F%	c #B0B1AB",
"G%	c #8F8483",
"H%	c #93807C",
"I%	c #C8AFA7",
"J%	c #E5C6BC",
"K%	c #DEBEB2",
"L%	c #C3A79E",
"M%	c #B5A39D",
"N%	c #C6BDBC",
"O%	c #C7C4C6",
"P%	c #C1CBC3",
"Q%	c #C1CAC7",
"R%	c #CDC4C7",
"S%	c #B9CFC3",
"T%	c #C0CBC6",
"U%	c #C9C4D0",
"V%	c #CAC4D0",
"W%	c #CCC4CC",
"X%	c #C7C7CA",
"Y%	c #C2C9C7",
"Z%	c #BFCCC5",
"`%	c #BFCCC3",
" &	c #C3C9C4",
".&	c #C8C7C4",
"+&	c #CBC6C3",
"@&	c #BEB6B1",
"#&	c #9F9087",
"$&	c #D5BCB1",
"%&	c #CAAC9F",
"&&	c #D1B3A9",
"*&	c #CEB5AF",
"=&	c #897775",
"-&	c #CEC4C4",
";&	c #C4C9C2",
">&	c #CDC2CF",
",&	c #C2CAC2",
"'&	c #CCC2D2",
")&	c #CCC3D1",
"!&	c #CAC4CD",
"~&	c #CCC3CD",
"{&	c #C3C9C8",
"]&	c #C3C8C8",
"^&	c #C8C9C9",
"/&	c #C6C5C2",
"(&	c #BFB8B3",
"_&	c #8E7E79",
":&	c #AE9893",
"<&	c #B8A19C",
"[&	c #A89591",
"}&	c #B6A8A6",
"|&	c #CDC6C4",
"1&	c #CBC5C6",
"2&	c #CAC3D3",
"3&	c #C8C8BE",
"4&	c #C9C4CE",
"5&	c #C4C8C5",
"6&	c #C8C6C6",
"7&	c #C8C7CA",
"8&	c #CBC3C7",
"9&	c #9F9699",
"0&	c #9A9292",
"a&	c #9E9A98",
"b&	c #C9CAC6",
"c&	c #C5C8C5",
"d&	c #C4C8CD",
"e&	c #C3C8CA",
"f&	c #C6C8C2",
"g&	c #C5C9C0",
"h&	c #C5C9C1",
"i&	c #C6C8C1",
"j&	c #C7C7C2",
"k&	c #C8C7C3",
"l&	c #C9C6C5",
"m&	c #C9C6C7",
"n&	c #C8C6CA",
"o&	c #C7C5C9",
"p&	c #C4C8C6",
". . . . . . . . . . . . . . . . . . . . . . . . . . . . . . . . . . . . . . . . . . . . . . . ",
". . . . . . . . . . . . . . . . . . . . . . . . . . . . . . . . . . . . . . . . . . . . . . . ",
". . . . . . . . . . . . . . . . . . . . . . . . . . . . . . . . . . . . . . . . . . . . . . . ",
". . . . . . . . . . . . . . . . . . . . . . . . . . . . . . . . . . . . . . . . . . . . . . . ",
". . . . . . . . . . . . . . . . . . . . . . . . . . . . . . . . . . . . . . . . . . . . . . . ",
". . . . . . . . . . . . . . . . . . . . . . . . . . . . . . . . . . . . . . . . . . . . . . . ",
". . . . . . . . . . . . . . . . . . . . . . . . . . . . . . . . . . . . . . . . . . . . . . . ",
". . . . . . . . . . . . . . . . . . . . . . . . . . . . . . . . . . . . . . . . . . . . . . . ",
". . . . . . . . . . . . . . . . . . . . . . . . . . . . . . . . . . . . . . . . . . . . . . . ",
". . . . . . . . . . . . . . . . . . . . . . . . . . . . . . . . . . . . . . . . . . . . . . . ",
". . . . . . . . . . . . . . . . . . . . . . . . . . . . . . . . . . . . . . . . . . . . . . . ",
". . . . . . . . . . . . . . . . . . . . . . . . . . . . . . . . . . . . . . . . . . . . . . . ",
". . . . . . . . . . . . . . . . . . . . . . . . . . . . . . . . . . . . . . . . . . . . . . . ",
". . . . . . . . . . . . . . . . . . . . . . . . . . . . . . . . . . . . . . . . . . . . . . . ",
". . . . . . . . . . . . . . . . . . . . . . . . . . . . . . . . . . . . . . . . . . . . . . . ",
". . . . . . . . . . . . . . . . . . . . . . . . . . . . . . . . . . . . . . . . . . . . . . . ",
". . . . . . . . . . . + @ . . . . . . . # $ . . % & . . . . . . . . . . . . * = . . . . . . . ",
". . . . . . . . . . . - ; . . . . . . . > , . . ' ) . . . . . . . . . . . . ! ~ . . . . . . . ",
". . . { ] . ^ / ( _ : < [ } | 1 2 1 3 4 5 6 7 8 9 ) 0 a ! b & c d e f g h i j ~ . . . . . . . ",
". . . k 4 l k m n o p q r s t u v : w x 5 y z A B ) . C D E F c G # H I J . ! ~ . . . . . . . ",
". . . K L M N O P Q R S T U V W X Y Z ^ > , . . ' ) ` b  ...+.c @.# #.= $.%.&.~ . . . . . . . ",
". . . *.=.-.. ;.>.,.'.).!.~.{.].^./.(.: > , . . ' ) _.:.<.[.}.c @.# #.|...$.1.~ . . . . . . . ",
". . . 2.2.3.4.5.6.7.8.9.0.a.b.c.d.e.f.g.h.. . . . . . . . . . . . . . . . . . . . . . . . . . ",
". . . i.j.k.l.m.n.o.p.q.r.s.t.u.v.w.x.y.. . . . . . . . . . . . . . . . . . . . . . . . . . . ",
". . . z.3 K A.B.C.D.E.F.G.H.I.J.i.K.v.L.1 . . . . . . . . . . . . . . . . . . . . . . . . . . ",
". . . 1 M.N.O.4.P.Q.R.S.T.U.V.W.w X.L k . . . . . . . . . . . . . . . . . . . . . . . . . . . ",
"L | Y.Z.`. +.+++@+#+$+%+&+*+=+-+;+>+,+2 '+)+!+~+)+{+)+. ]+^+w w w /+(+. _+:+<+<+[+w.}+|+. . . ",
"1+2+3+4+5+6+7+8+9+0+a+b+c+d+e+f+g+h+i+j+k+^.^.l+m+n+o+( p+q+(+(+1 1 n+n+n+n+y.r+y.s+Y 2 . . . ",
"t+u+v+w+x+y+z+A+B+C+D+E+F+G+H+I+J+K+L+p+X.X.(+M+N+p+p+1 O+O+O+r+O.P+Q+O.R+S+T+T+U+V+W+X+. . . ",
"Y+Z+`+ @.@+@@@#@$@%@&@*@=@-@;@>@,@'@)@!@~@{@]@^@/@(@_@:@<@[@}@|@1@1@1@2@1 . (+w 3@p 4@| . . . ",
"5@6@7@8@9@0@a@b@c@d@e@f@g@h@i@j@k@l@m@n@o@p@q@r@s@t@u@v@w@x@y@z@A@B@C@D@E@F@G@H@I@x o ~+. . . ",
"J@J@5@K@L@M@N@O@P@Q@R@S@T@U@V@W@X@Y@Z@`@ #.#+#@###$#%#&#*#=#-#;#>#,#'#)#!#~#{#]#^#/#(#_#/+. . ",
":#:#<#[#}#|#1#2#3#4#5#6#7#8#9#0#a#b#c#d#e#f#g#h#i#j#g#k#l#m#n#o#p#q#r#s#t#u#v#w#x#y#z#A#/+. . ",
"B#C#D#E#F#G#H#I#J#K#L#M#N#O#P#Q#R#S#T#U#V#W#X#Y#Z#`# $.$+$@$#$$$%$&$*$=$-$;$>$,$'$)$!$~$. . . ",
"{$]$^$/$($_$:$<$[$}$|$1$2$3$4$5$6$7$8$9$0$a$b$c$d$e$f$g$h$i$j$k$l$m$n$o$p$q$r$s$t$u$v$<+. . . ",
"w$x$y$z$A$B$C$D$E$F$G$H$I$J$K$L$M$N$O$P$Q$R$S$T$U$V$W$X$Y$Z$`$`$`$'+'+. . . . . . . . . . . . ",
" %.%+%@%@%#%$%%%&%*%=%-%;%>%,%'%)%!%~%{%]%^%/%(%_%:%<%[%'+}%`$'+'+'+`$. . . . . . . . . . . . ",
"o+^.|%1%2%3%4%5%6%7%8%9%0%a%b%c%d%e%f%g%h%i%j%k%l%m%n%o%p%. '+. Z$}%`$}%. . . . . . . . . . . ",
"{+W q%~+r%s%t%u%v%w%x%y%z%A%B%C%D%E%F%G%H%I%J%K%L%M%N%O%'+. `$'+`$'+`$'+. . . . . . . . . . . ",
"1@{ { P%Q%R%j.S%T%U%V%;%W%X%Y%Z%`% &.&+&@&#&$&%&&&*&=&-&/+. . . . . . . . . . . . . . . . . . ",
". 1@1@;&_+>&R+,&O+'&)&!&~&;%m {&Y%]&r+^&/&(&_&:&<&[&}&|&3 . . . . . . . . . . . . . . . . . . ",
". . . k.1&2&N.3&4.4&k 5&/+<@.&m.6&4@L -%7&5.8&9&0&a&b&c&. . . . . . . . . . . . . . . . . . . ",
". . . Y _+d&e&i.f&1@k.g&h&i&j&k&l&m&n&n&X%| o&n&1 l+p&[+. . . . . . . . . . . . . . . . . . . ",
". . . . . . . . . . . . . . . . . . . . . . . . . . . . . . . . . . . . . . . . . . . . . . . ",
". . . . . . . . . . . . . . . . . . . . . . . . . . . . . . . . . . . . . . . . . . . . . . . ",
". . . . . . . . . . . . . . . . . . . . . . . . . . . . . . . . . . . . . . . . . . . . . . . ",
". . . . . . . . . . . . . . . . . . . . . . . . . . . . . . . . . . . . . . . . . . . . . . . ",
". . . . . . . . . . . . . . . . . . . . . . . . . . . . . . . . . . . . . . . . . . . . . . . "};
