/* XPM */ 
static char * lighting_xpm[] = {
"32 32 472 2",
"  	c None",
"! 	c #C4BBAC",
"# 	c #C5B9AB",
"$ 	c #C3BAA9",
"% 	c #C5B9AD",
"& 	c #C4BBA9",
"' 	c #C2BBA9",
"( 	c #C5B9A9",
") 	c #C3BAAB",
"* 	c #C3BAA8",
"+ 	c #C1BBAB",
", 	c #C5BCAA",
"- 	c #C4B8A8",
". 	c #C2B9A8",
"0 	c #C3BBA6",
"1 	c #C3BCAC",
"2 	c #C6B8AB",
"3 	c #C4BAAE",
"4 	c #C3BCAA",
"5 	c #51491A",
"6 	c #D2B300",
"7 	c #DDBE04",
"8 	c #A4A176",
"9 	c #E3E3C9",
": 	c #F4EFCF",
"; 	c #F3F1CB",
"< 	c #F3F0CD",
"= 	c #F4F0CD",
"> 	c #F3F0CF",
"? 	c #F1F1CB",
"@ 	c #F5F1CC",
"A 	c #F3F1CA",
"B 	c #F4F1CE",
"C 	c #F3EFCC",
"D 	c #F4F1D0",
"E 	c #F4F0CA",
"F 	c #F1F1CD",
"G 	c #F0EDCA",
"H 	c #9D9A91",
"I 	c #696A65",
"J 	c #9B9D87",
"K 	c #D2CEB3",
"L 	c #4B4843",
"M 	c #E8E8C4",
"N 	c #E0DFC1",
"O 	c #6E7166",
"P 	c #C4B8AA",
"Q 	c #695401",
"R 	c #625200",
"S 	c #C2A700",
"T 	c #F4D501",
"U 	c #8A855D",
"V 	c #E5E1BC",
"W 	c #F5F1CB",
"X 	c #F1F2CA",
"Y 	c #F4F2CC",
"Z 	c #F3F1C8",
"[ 	c #F2F2CC",
"] 	c #B8B9A9",
"^ 	c #8F8200",
"_ 	c #645D03",
"` 	c #92938D",
"a 	c #EAE7C8",
"b 	c #555452",
"c 	c #98948B",
"d 	c #E4E3C4",
"e 	c #7C7875",
"f 	c #BFBFA7",
"g 	c #CFCBAE",
"h 	c #6A653F",
"i 	c #564301",
"j 	c #806E00",
"k 	c #927201",
"l 	c #B8A131",
"m 	c #E1CF7B",
"n 	c #E4D290",
"o 	c #C5BA8D",
"p 	c #C3BEA1",
"q 	c #D5D3AD",
"r 	c #EEEECC",
"s 	c #6E6D4E",
"t 	c #736A0F",
"u 	c #9A9582",
"v 	c #BEBDA8",
"w 	c #585850",
"x 	c #676A6F",
"y 	c #888782",
"z 	c #3E3526",
"{ 	c #6E716A",
"| 	c #CCCBAC",
"} 	c #C6BAAA",
"~ 	c #DCDBBD",
" !	c #645F35",
"!!	c #4C3E01",
"#!	c #493B00",
"$!	c #8B7102",
"%!	c #D1A601",
"&!	c #DEB400",
"'!	c #A08200",
"(!	c #A99C00",
")!	c #987C01",
"*!	c #6E5F26",
"+!	c #D2D0B7",
",!	c #F5EFCB",
"-!	c #F5F0D0",
".!	c #BCBDAB",
"0!	c #3F403B",
"1!	c #B7B9A4",
"2!	c #EBEBC7",
"3!	c #5D5C48",
"4!	c #625D00",
"5!	c #686748",
"6!	c #6B6649",
"7!	c #BF9600",
"8!	c #72652E",
"9!	c #D7D7BF",
":!	c #CECAAD",
";!	c #C5BAA8",
"<!	c #F5F2D1",
"=!	c #DAD7B8",
">!	c #4D4739",
"?!	c #514201",
"@!	c #725B00",
"A!	c #6B5200",
"B!	c #867500",
"C!	c #C2C600",
"D!	c #FDFD00",
"E!	c #F0BF00",
"F!	c #8D781F",
"G!	c #D5D3BA",
"H!	c #F4F0CB",
"I!	c #D4CEB4",
"J!	c #D8D7B9",
"K!	c #D3D1B8",
"L!	c #403A06",
"M!	c #878121",
"N!	c #8D8E88",
"O!	c #635320",
"P!	c #897009",
"Q!	c #959174",
"R!	c #E8E2C8",
"S!	c #CDCCAD",
"T!	c #C0BBA8",
"U!	c #DEDEBC",
"V!	c #65603A",
"W!	c #6E5501",
"X!	c #5B4B00",
"Y!	c #6C6E01",
"Z!	c #F6F600",
"[!	c #FFFC01",
"]!	c #E3B700",
"^!	c #92895E",
"_!	c #F5F1CE",
"`!	c #F2F3CB",
"a!	c #F0EFD0",
"b!	c #E2E1C5",
"c!	c #EBEDC8",
"d!	c #606159",
"e!	c #4E4D2E",
"f!	c #CFCDB4",
"g!	c #BABBA9",
"h!	c #1C1713",
"i!	c #8D8E80",
"j!	c #F1EECD",
"k!	c #CBCAAB",
"l!	c #C4BBAA",
"m!	c #F2F3D1",
"n!	c #A29D7D",
"o!	c #402F01",
"p!	c #9C9900",
"q!	c #DDDF00",
"r!	c #7C7D00",
"s!	c #EDEC00",
"t!	c #BFA713",
"u!	c #CFD2B7",
"v!	c #F3EFC9",
"w!	c #F0F1C9",
"x!	c #979888",
"y!	c #716E45",
"z!	c #6D6A63",
"{!	c #4E4D52",
"|!	c #AEAA9E",
"}!	c #A2A18D",
"~!	c #F4F2CB",
" #	c #CCCCAA",
"!#	c #B9B494",
"##	c #574F07",
"$#	c #F5F403",
"%#	c #FFFF04",
"&#	c #E8EA00",
"'#	c #727003",
"(#	c #8F8D76",
")#	c #C8C6B9",
"*#	c #E3E3C7",
"+#	c #E2E0C7",
",#	c #6C6634",
"-#	c #E0D700",
".#	c #B9B202",
"0#	c #7A742A",
"1#	c #9A9A8E",
"2#	c #F0EDCC",
"3#	c #ECECC8",
"4#	c #CDC9AC",
"5#	c #F6F1D1",
"6#	c #CFCFB7",
"7#	c #898812",
"8#	c #FDFF00",
"9#	c #FFFF00",
":#	c #DCDD05",
";#	c #828663",
"<#	c #78797B",
"=#	c #79651C",
">#	c #958F7F",
"?#	c #F2F0CA",
"@#	c #F4EFC9",
"A#	c #AFADA1",
"B#	c #A39F08",
"C#	c #E6E101",
"D#	c #655F15",
"E#	c #A3A28E",
"F#	c #F0F0CA",
"G#	c #CFCCAD",
"H#	c #F3F3CF",
"I#	c #E2E2C6",
"J#	c #777528",
"K#	c #EBEC08",
"L#	c #B1B314",
"M#	c #B3B286",
"N#	c #757156",
"O#	c #BB9300",
"P#	c #897306",
"Q#	c #BBBCAE",
"R#	c #68684C",
"S#	c #E5D800",
"T#	c #DDD100",
"U#	c #5D5A25",
"V#	c #B4B5A5",
"W#	c #F4F1C8",
"X#	c #F2EFCC",
"Y#	c #CECBAC",
"Z#	c #F4F0D3",
"[#	c #F1EECB",
"]#	c #B9B9A1",
"^#	c #B2AE8B",
"_#	c #CCCAB3",
"`#	c #D7D6B8",
"a#	c #929079",
"b#	c #7D6D22",
"c#	c #615733",
"d#	c #E9DCBA",
"e#	c #F7E5BF",
"f#	c #F9E7BF",
"g#	c #E6DDC0",
"h#	c #B3AA5B",
"i#	c #DBCE03",
"j#	c #605730",
"k#	c #BFBFB5",
"l#	c #F5F3CD",
"m#	c #F0F2CB",
"n#	c #E9E1BD",
"o#	c #E7D9AA",
"p#	c #FCEBB3",
"q#	c #FDECB6",
"r#	c #FEE8AC",
"s#	c #FDE7AD",
"t#	c #FADCA8",
"u#	c #BFB591",
"v#	c #CECBBA",
"w#	c #C2B9A7",
"x#	c #C2BDAA",
"y#	c #F2F2D0",
"z#	c #F0E7C6",
"{#	c #E9CD9D",
"|#	c #F0D79F",
"}#	c #FBE2AC",
"~#	c #FCF0B4",
" $	c #FDFBBE",
"!$	c #FFF4BA",
"#$	c #FFEAB3",
"$$	c #FFE6B3",
"%$	c #F4D9A1",
"&$	c #EBDDB8",
"'$	c #CBCAAC",
"($	c #F0F2CD",
")$	c #F4F2C9",
"*$	c #EBE6C6",
"+$	c #BDA977",
",$	c #D3BE91",
"-$	c #DCC091",
".$	c #C4AE7D",
"0$	c #C9B289",
"1$	c #E4CE9D",
"2$	c #FFF6BD",
"3$	c #FEEFB6",
"4$	c #FFE8B2",
"5$	c #FFE2AC",
"6$	c #EED09A",
"7$	c #EEEBC8",
"8$	c #CCC8AB",
"9$	c #C5B699",
":$	c #A79267",
";$	c #D8C18F",
"<$	c #D2B991",
"=$	c #C9C2B8",
">$	c #F5F4F2",
"?$	c #E5E1DE",
"@$	c #E8D5AA",
"A$	c #FFF3B9",
"B$	c #FEEBB3",
"C$	c #FFE3B1",
"D$	c #F1D6A1",
"E$	c #DAC79F",
"F$	c #C8C7A8",
"G$	c #ADA888",
"H$	c #C6BBA7",
"I$	c #D4BB93",
"J$	c #E2D2B1",
"K$	c #FEFFFD",
"L$	c #8D9E8B",
"M$	c #C4CDCA",
"N$	c #E9E0CF",
"O$	c #FCE9B1",
"P$	c #FBE0AB",
"Q$	c #F0D1A2",
"R$	c #C8B688",
"S$	c #EFE8CC",
"T$	c #C6C5A6",
"U$	c #E4E0D5",
"V$	c #E6ECE8",
"W$	c #9D9473",
"X$	c #E5D2B4",
"Y$	c #FFFEFF",
"Z$	c #73856F",
"[$	c #A6B7A7",
"]$	c #FCF4DD",
"^$	c #FDE4AE",
"_$	c #FCE1AA",
"`$	c #F1D7A4",
"a$	c #DDC595",
"b$	c #BEA57C",
"c$	c #EAE6C9",
"d$	c #C4C3A4",
"e$	c #F2F1DF",
"f$	c #D8E6D5",
"g$	c #707453",
"h$	c #EAD4A5",
"i$	c #E3DBD0",
"j$	c #F0F1E3",
"k$	c #F9EAD3",
"l$	c #FFE6B0",
"m$	c #FDE2AD",
"n$	c #F1D5A3",
"o$	c #DCC593",
"p$	c #C3B183",
"q$	c #AF9B7A",
"r$	c #EFEED0",
"s$	c #C3C2A3",
"t$	c #DFDAD4",
"u$	c #D1BF9B",
"v$	c #FEF4B7",
"w$	c #F4DDA7",
"x$	c #EFD5A2",
"y$	c #FBE0A9",
"z$	c #F4DAA9",
"{$	c #E8CE9D",
"|$	c #C4AF84",
"}$	c #A7916A",
"~$	c #CBC5AB",
" %	c #C5C4A5",
"!%	c #ECEBCD",
"#%	c #A98D66",
"$%	c #BEA77D",
"%%	c #E2CE9C",
"&%	c #F4DDA9",
"'%	c #EBD29C",
"(%	c #E1C999",
")%	c #D8C094",
"*%	c #C6AF85",
"+%	c #A3916B",
",%	c #99886C",
"-%	c #F2F1D2",
".%	c #F3EFCA",
"0%	c #C7C6A7",
"1%	c #CAC1A0",
"2%	c #927F5E",
"3%	c #B29B72",
"4%	c #D1B488",
"5%	c #CDB587",
"6%	c #C4A880",
"7%	c #BAA77D",
"8%	c #B3A078",
"9%	c #A08C69",
":%	c #A39878",
";%	c #EBE5C5",
"<%	c #CAC9AA",
"=%	c #F4F1D2",
">%	c #AB9D80",
"?%	c #8F7F5B",
"@%	c #AC966D",
"A%	c #A39068",
"B%	c #9B8965",
"C%	c #9B8762",
"D%	c #917F5B",
"E%	c #817255",
"F%	c #ECE8CB",
"G%	c #F5F2CF",
"H%	c #D4CDB0",
"I%	c #706247",
"J%	c #816E4E",
"K%	c #8A7756",
"L%	c #918263",
"M%	c #9C8C72",
"N%	c #706142",
"O%	c #EFEACA",
"P%	c #F1F3CC",
"Q%	c #EEE9CB",
"R%	c #DBD4B8",
"S%	c #DFD8BB",
"T%	c #EDEACB",
"U%	c #9F9A86",
"V%	c #837352",
"W%	c #CAC29E",
"X%	c #EFE5CC",
"Y%	c #413424",
"Z%	c #9C8C6B",
"[%	c #C8B185",
"]%	c #E3C891",
"^%	c #F2E9CA",
"_%	c #F6F1CB",
"`%	c #F2F2CE",
"a%	c #DBD5B3",
"b%	c #AE9B71",
"c%	c #CEB688",
"d%	c #F4DAA7",
"e%	c #E3C996",
"f%	c #EEE1B7",
"g%	c #DFD9B9",
"h%	c #C1A87F",
"i%	c #EBD19E",
"j%	c #FCE1AC",
"k%	c #DEC793",
"l%	c #F2E6BE",
"m%	c #D8D1B7",
"n%	c #C6B184",
"o%	c #F3D8A3",
"p%	c #FFE6AE",
"q%	c #DCC194",
"r%	c #F3E2B7",
"s%	c #C3BCA9",
"t%	c #CFC9A7",
"u%	c #D8BC8A",
"v%	c #FDDFAD",
"w%	c #FFEBB4",
"x%	c #DCC695",
"y%	c #EEE0B1",
"z%	c #E8E7C9",
"{%	c #BCBB9D",
"|%	c #BFBEA2",
"}%	c #C0BFA1",
"~%	c #C3C2A4",
" &	c #C2C1A3",
"!&	c #C5C2A1",
"#&	c #C2C3A4",
"$&	c #C2BEA1",
"%&	c #C2C1A2",
"&&	c #C2C3A3",
"'&	c #BFBEA0",
"(&	c #C3BFA4",
")&	c #C2C2A8",
"*&	c #C5C1A4",
"+&	c #A5A488",
",&	c #C3BBAE",
"! # $ % & $ ' ( ( ) ) $ * + , - & . $ ' $ 0 1 2 ( ! ) * 3 4 $ ' ",
"$ 5 6 7 8 9 : ; < = > ? @ > A B C D E F G H I J = K L M N O < P ",
"$ Q R S T U V W X ? ? B < Y Z ; B ; [ = ] ^ _ ` a b c d e f g 4 ",
"% h Q i j k l m n o p q r A Y Y ? @ Z < s t u v w x y z { < | } ",
"$ ~  !!!#!$!%!&!'!(!)!*!+!,!; < @ -!< .!0!1!2!3!4!5!6!7!8!9!:!;!",
"$ <!=!>!?!@!A!B!C!D!E!F!G!F B ; H!; Y I!J!? K!L!M!N!O!P!Q!R!S!T!",
") B D U!V!W!X!Y!Z![!]!^!Y A A _!`![ H!a!b!c!d!e!f!g!h!i!j!Y k!l!",
") m!H!Y n!o!p!q!r!s!t!u!v!D X ; B w!B x!y!z!{!9 Y |!}!> ; ~! #) ",
"$ B _![ !###$#%#&#'#(#)#*#A : B ; _!+#,#-#.#0#1#2#3#F ~!; < 4#) ",
"' 5#< H!6#7#8#9#:#;#<#=#>#?#`!w!@ @#A#B#9#C#D#E#F#; ? Y H!B G#. ",
"! H#H!~!I#J#K#L#M#+#N#O#P#Q#; < = j!R#S#T#U#V#W#= _!B X#Y ; Y#) ",
"( Z#Y F#[#]#^#_#= < `#a#b#c#d#e#f#g#h#i#j#k#B D A E A l#; ; k!$ ",
"2 H#< ~![ H!~!< m#= @ <!n#o#p#q#r#s#t#u#v#`!< @ m#Y [ < Y Y S!w#",
"x#y#W < : < A = _!l#z#{#|#}#~# $!$#$$$%$&$@ F _!~!< [ < Y ; '$l!",
"2 D < @ < ; ($)$H!*$+$,$-$.$0$1$2$3$4$5$6$7$< Y F B X < A ; 8$* ",
"# <!; ; ; ; Y ; ; 9$:$;$<$=$>$?$@$A$B$C$D$E$_!? ; Y ; ; ; Y F$$ ",
"$ <!; ; ; ; Y ; ; G$H$I$J$K$L$M$N$O$#$P$Q$R$S$@ Y ; ; ; ; Y T$$ ",
"l!<!; ; ; ; Y ; ; U$V$W$X$Y$Z$[$]$^$_$`$a$b$c$; Y ; ; ; Y ; d$$ ",
"$ <!; ; ; ; Y ; ; e$f$g$h$i$j$k$l$m$n$o$p$q$r$X ; ; ; ; Y ; s$$ ",
"$ <!; ; ; ; Y ; ; +#t$u$v$w$x$y$z${$o$|$}$~$H!; Y Y Y ; Y ;  %$ ",
") <!; ; ; ; Y ; ; !%#%$%%%&%Q$'%(%)%*%+%,%-%.%l#; Y Y Y ; ; 0%l!",
"$ <!; ; ; ; Y ; ; ; 1%2%3%4%5%6%7%8%9%:%;%: `!?#@ ; ; Y ; ; <%$ ",
"$ <!; ; ; ; Y ; ; A =%>%?%@%A%B%C%D%E%F%@ < [ ~!B ; ; Y ; ; k!$ ",
"( G%Y ?#Y ; ; Y ; ? B B H%I%J%K%L%M%N%O%= `!H!P%B A ; ; Y ; Y#$ ",
"$ G%Y Y ?#Y l#; Y ; < B < Q%R%S%T%U%V%W%X%; Y ? @ B B B ; B Y#. ",
"l!<!< ; l#; ; ; B A ; ; [ ? Y < ~ Y%Z%[%]%^%[ _%? Y Y ; [ ; Y#l!",
"( G%Y ; ; ; ; Y ; `%D B ; B B H!a%b%c%d%e%f%C ? H!; ; Y Y ; Y#$ ",
"' <!X#Y X#B ; Y B ; ; E ~![ ? Y g%h%i%j%k%l%= < X Y ; H!?#B 4#! ",
"P B Y ; Y < ; Y Y < ~!A = B )$; m%n%o%p%q%r%B ; ; ; ; ; Y ; Y#$ ",
"s%l#; ; ; B Y ; Y B y#? ~!H!< = t%u%v%w%x%y%[ X _!F < < F < G#$ ",
";!z%d$s${%|%}%~% &!&#&#& &$&%&s$$&~%&&'&(&~%)&'&$&~%*&*&d$d$+&! ",
"1 $ $ $ $ $ $ $ $ $ $ $ $ $ $ $ $ $ $ $ $ $ $ $ $ $ $ ) $ l!$ ,&"};