/* XPM */
static char * ManSmall_xpm[] = {
"77 45 125 2",
"  	c None",
". 	c #C7C7C7",
"+ 	c #646464",
"@ 	c #8F8F8F",
"# 	c #727272",
"$ 	c #959595",
"% 	c #000000",
"& 	c #282828",
"* 	c #B2B2B2",
"= 	c #010101",
"- 	c #040404",
"; 	c #222222",
"> 	c #AFAFAF",
", 	c #262626",
"' 	c #747474",
") 	c #676767",
"! 	c #A4A4A4",
"~ 	c #979797",
"{ 	c #989898",
"] 	c #A2A2A2",
"^ 	c #606060",
"/ 	c #6F6F6F",
"( 	c #3A3A3A",
"_ 	c #5F5F5F",
": 	c #878787",
"< 	c #858585",
"[ 	c #7A7A7A",
"} 	c #151515",
"| 	c #686868",
"1 	c #242424",
"2 	c #505050",
"3 	c #6A6A6A",
"4 	c #181818",
"5 	c #A0A0A0",
"6 	c #303030",
"7 	c #B6B6B6",
"8 	c #434343",
"9 	c #B7B7B7",
"0 	c #9E9E9E",
"a 	c #020202",
"b 	c #4C4C4C",
"c 	c #C6C6C6",
"d 	c #1A1A1A",
"e 	c #656565",
"f 	c #828282",
"g 	c #5A5A5A",
"h 	c #515151",
"i 	c #848484",
"j 	c #565656",
"k 	c #0C0C0C",
"l 	c #BDBDBD",
"m 	c #060606",
"n 	c #C0C0C0",
"o 	c #B9B9B9",
"p 	c #C3C3C3",
"q 	c #A7A7A7",
"r 	c #191919",
"s 	c #4A4A4A",
"t 	c #393939",
"u 	c #4F4F4F",
"v 	c #C5C5C5",
"w 	c #C4C4C4",
"x 	c #626262",
"y 	c #C1C1C1",
"z 	c #373737",
"A 	c #1C1C1C",
"B 	c #A3A3A3",
"C 	c #353535",
"D 	c #909090",
"E 	c #BFBFBF",
"F 	c #9C9C9C",
"G 	c #292929",
"H 	c #B4B4B4",
"I 	c #737373",
"J 	c #7D7D7D",
"K 	c #616161",
"L 	c #9A9A9A",
"M 	c #8B8B8B",
"N 	c #767676",
"O 	c #575757",
"P 	c #2E2E2E",
"Q 	c #BBBBBB",
"R 	c #101010",
"S 	c #323232",
"T 	c #ACACAC",
"U 	c #474747",
"V 	c #404040",
"W 	c #343434",
"X 	c #535353",
"Y 	c #707070",
"Z 	c #4B4B4B",
"` 	c #636363",
" .	c #8C8C8C",
"..	c #A1A1A1",
"+.	c #7E7E7E",
"@.	c #363636",
"#.	c #B8B8B8",
"$.	c #7F7F7F",
"%.	c #868686",
"&.	c #B0B0B0",
"*.	c #131313",
"=.	c #696969",
"-.	c #3C3C3C",
";.	c #B1B1B1",
">.	c #777777",
",.	c #6B6B6B",
"'.	c #A9A9A9",
").	c #666666",
"!.	c #949494",
"~.	c #757575",
"{.	c #A8A8A8",
"].	c #C7C7C6",
"^.	c #C7C8C3",
"/.	c #C7C7C9",
"(.	c #C7C6CF",
"_.	c #C7C6CA",
":.	c #C8C6CA",
"<.	c #C8C6CC",
"[.	c #C8C6C6",
"}.	c #C8C7C7",
"|.	c #C9C7C1",
"1.	c #C8C7C5",
"2.	c #C8C8C6",
"3.	c #C4C3C3",
"4.	c #CAC9CB",
". . . . . . . . . . . . . . . . . . . . . . . . . . . . . . . . . . . . . . . . . . . . . . . . . . . . . . . . . . . . . . . . . . . . . . . . . . . . . ",
". . . . . . . . . . . . . . . . . . . . . . . . . . . . . . . . . . . . . . . . . . . . . . . . . . . . . . . . . . . . . . . . . . . . . . . . . . . . . ",
". . . . . . . . . . . . . . . . . . . . . . . . . . . . . . . . . . . . . . . . . . . . . . . . . . . . . . . . . . . . . . . . . . . . . . . . . . . . . ",
". . . . . . . . . . . . . . . . . . . . . . . . . . . . . . . . . . . . . . . . . . . . . . . . . . . . . . . . . . . . . . . . . . . . . . . . . . . . . ",
". . . . . . . . . . . . . . . . . . . . . . . . . . . . . . . . . . . . . . . . . . . . . . . . . . . . . . . . . . . . . . . . . . . . . . . . . . . . . ",
". . . . . . . . . . . . . . . . . . . . . . . . . . . . . . . . . . . . . . . . . . . . . . . . . . . . . . . . . . . . . . . . . . . . . . . . . . . . . ",
". . . . . . . . . . . . . . . . . . . . . . . . . . . . . . . . . . . . . . . . . . . . . . . . . . . . . . . . . . . . . . . . . . . . . . . . . . . . . ",
". . . . . . . . . . . . . . . . . . . . . . . . . . . . . . . . . . . . . . . . . . . . . . . . . . . . . . . . . . . . . . . . . . . . . . . . . . . . . ",
". . . . . . . . . . . . . . . . . . . . . . . . . . . . . + @ . . . # $ . . . . . . . . . . . . . . . . . . . . . . . . . . . . . . . . . . . . . . . . . ",
". . . . . . . . . . . . . . . . . . . . . . . . . . . . . % & . . * = + . . . . . . . . . . . . . . . . . . . . . . . . . . . . . . . . . . . . . . . . . ",
". . . . . . . . . . . . . . . . . . . . . . . . . . . . . - ; > . # , + . * ' ) ! . ~ $ { ) ] . . . . . . . . . . . . . . . . . . . . . . . . . . . . . . ",
". . . . . . . . . . . . . . . . . . . . . . . . . . . . . - ^ / . ( _ + . : < [ } . | 1 2 3 4 . . . . . . . . . . . . . . . . . . . . . . . . . . . . . . ",
". . . . . . . . . . . . . . . . . . . . . . . . . . . . . - 5 6 7 8 | + . . 9 0 a . | b . c - . . . . . . . . . . . . . . . . . . . . . . . . . . . . . . ",
". . . . . . . . . . . . . . . . . . . . . . . . . . . . . - c d e f | + . g h i a . | + . . - . . . . . . . . . . . . . . . . . . . . . . . . . . . . . . ",
". . . . . . . . . . . . . . . . . . . . . . . . . . . . . - . j k l | + . m n o a p | + . . - . . . . . . . . . . . . . . . . . . . . . . . . . . . . . . ",
". . . . . . . . . . . . . . . . . . . . . . . . . . . . . - . q [ . | + . h r s t u | + . . - . . . . . . . . . . . . . . . . . . . . . . . . . . . . . . ",
". . . . . . . . . . . . . . . . . . . . . . . . . . . . . . . . . . . . . . . . . . . . . . . . . . . . . . . . . . . . . . . . . . . . . . . . . . . . . ",
". . . . . . . . . . . . . . . . . . . . . . . . . . . . . . . . . . . . . . . . . . . . . . . . . . . . . . . . . . . . . . . . . . . . . . . . . . . . . ",
". . . . . . . . . . . . . . . . . . . . . . . . . . . . . . . . . . . . . . . . . . . . . . . . . . . . . . . . . . . . . . . . . . . . . . . . . . . . . ",
". . . . . . . . . . . . . . . . . . . . . . . . . . . . . . . . . . . . . . . . . . . . . . . . . . . . . . . . . . . . . . . . . . . . . . . . . . . . . ",
". . . . . . . . . . . . . . . . . . . . . . . . . . . . . . . . . . . . . . . . . . . . . . . . . . . . . . . . . . . . . . . . . . . . . . . . . . . . . ",
". . . . . . . . . . . . . . . . . . . . . . . . . . . . . . . . . . . . . . . . . . . . . . . . . . . . . . . . . . . . . . . . . . . . . . . . . . . . . ",
". . . . . . . . . . . . . . . . . . . . . . v % . . . . . . . . . . . . . . . . . . . . . . . . . . . . w n . . . . . . . . . . . . . . . . . . . . . . . ",
". . . . . . . . . . . . . . . . . . . . . . v % . . . . . . . . . . . . . . . . . . . . . . . . . . . . x + . . . . . . . . . . . . . . . . . . . . . . . ",
". . . . . . . . . . . . . . . . . . . . . . v % . . . . y z 6 A B . C D . E ; v F & G 2 c . % v . x + H 4 r I . . . . . . . . . . . . . . . . . . . . . . ",
". . . . . . . . . . . . . . . . . . . . . . v % . . . . v n . g e . [ s . J K . , L . z M . % v . x + . x + . . . . . . . . . . . . . . . . . . . . . . . ",
". . . . . . . . . . . . . . . . . . . . . . v % . . . . v N O P x . Q R n S T c a w . ^ e . % v . x + . x + . . . . . . . . . . . . . . . . . . . . . . . ",
". . . . . . . . . . . . . . . . . . . . . . v % . . . . [ U c + x . . V | W . . k o . X Y . % w . Z + . x ` . . . . . . . . . . . . . . . . . . . . . . . ",
". . . . . . . . . . . . . . . . . . . . . . v %  . . ...' P +.6 @.#.. < - $.. . O 2 %.d &.. *.=.2 ; + . I -.;.. . . . . . . . . . . . . . . . . . . . . . ",
". . . . . . . . . . . . . . . . . . . . . . c + + + + : p N >.#.,.* . #.k n . . w +.=.'.. . 5 ).{ !.$ . n Y ... . . . . . . . . . . . . . . . . . . . . . ",
". . . . . . . . . . . . . . . . . . . . . . . . . . . . . . . . . . . ~.h . . . . . . . . . . . . . . . . . . . . . . . . . . . . . . . . . . . . . . . . ",
". . . . . . . . . . . . . . . . . . . . . . . . . . . . . . . . . . . J {.. . . . . . . . . . . . . . . . . . . . . . . . . . . . . . . . . . . . . . . . ",
". . . . . . . . . . . . . . . . . . . . . . . . . . . . . . . . . . . . . . . . . . . . . . . . . . . . . . . . . . . . . . . . . . . . . . . . . . . . . ",
". . . . . . . . . . . . . . . . . . . . . . . . . . . . . . . . . . . . . . . . . . . . . . . . . . . . . . . . . . . . . . . . . . . . . . . . . . . . . ",
". . . . . . . . . . . . . . . . . . . . . . . . . . . . . . . . . . . . . . . . . . . . . . . . . . . . . . . . . . . . . . . . . . . . . . . . . . . . . ",
". . . . . . . . . . . . . . . . . . . . . . . . . . . . . . . . . . . . . . . . . . . . . . . . . . . . . . . . . . . . . . . . . . . . . . . . . . . . . ",
". . . . . . . . . . . . . . . . . . . . . . . . . . . . . . . . . . . . . . . . . . . . . . . . . . . . . . . . . . . . . . . . . . . . . . . . . . . . . ",
". . . . . . . . . . . . . . . . . . . . . . . . . . . . . . . . . . . . . . . . . . . . . . . . . . . . . . . . . . . . . . . . . . . . . . . . . . . . . ",
". . . . . . . . . . . . . . . . . . . . . . . . . . . . . . . . . . . . . . . . . . . . . . . . . . . . . . . . . . . . . . . . . . . . . . . . . . . . . ",
". . . . . . . . . . . . . . . . . . . . . . . . . . . . . . . . . . . . . . . . . . . . . . . . . . . . . . . . . . . . . . . . . . . . . . . . . . . ].. ",
". . . . . . . . . . . . . . . . . . . . . . . . . . . . . . . . . . . . . . . . . . . . . . . . . . . . . . . . . . . . . . . . . . . . . . . . . . ].^.. ",
". . . . . . . . . . . . . . . . . . . . . . . . . . . . . . . . . . . . . . . . . . . . . . . . . . . . . . . . . . . . . . . . . . . . . . . . . . /.(._.",
". . . . . . . . . . . . . . . . . . . . . . . . . . . . . . . . . . . . . . . . . . . . . . . . . . . . . . . . . . . . . . . . . . . . . . . . . . :.<.[.",
". . . . . . . . . . . . . . . . . . . . . . . . . . . . . . . . . . . . . . . . . . . . . . . . . . . . . . . . . . . . . . . . . . . . . . . . . . }.|.1.",
". . . . . . . . . . . . . . . . . . . . . . . . . . . . . . . . . . . . . . . . . . . . . . . . . . . . . . . . . . . . . . . . . . . . . . . . . . 2.3.4."};
