/* XPM */
static char *mark[] = {
/* columns rows colors chars-per-pixel */
"32 32 256 2",
"   c #020201",
".  c #0B0B0B",
"X  c #131414",
"o  c #141718",
"O  c #141818",
"+  c #1A1A1A",
"@  c #171F20",
"#  c #1E1F20",
"$  c #1F201F",
"%  c #172325",
"&  c #1D2223",
"*  c #1F2729",
"=  c #1B2A2B",
"-  c #1B2E31",
";  c #1B3638",
":  c #193A3D",
">  c #232424",
",  c #272827",
"<  c #262929",
"1  c #282727",
"2  c #282827",
"3  c #2B2B2B",
"4  c #243233",
"5  c #2B3233",
"6  c #2F3839",
"7  c #243A3C",
"8  c #333333",
"9  c #353738",
"0  c #363838",
"q  c #3A3C3C",
"w  c #1C3E41",
"e  c #172C78",
"r  c #203F41",
"t  c #293E40",
"y  c #2B3B73",
"u  c #255832",
"i  c #2E5538",
"p  c #34423A",
"a  c #25652F",
"s  c #1D474A",
"d  c #1B4C50",
"f  c #1A5055",
"g  c #1E5458",
"h  c #1E5C62",
"j  c #1F7C5E",
"k  c #1D6D64",
"l  c #22474A",
"z  c #264C4F",
"x  c #2D4243",
"c  c #2B4F52",
"v  c #28554C",
"b  c #2C5E43",
"n  c #265458",
"m  c #324243",
"M  c #314940",
"N  c #3B4242",
"B  c #3C4C4D",
"V  c #3B4E50",
"C  c #325745",
"Z  c #3D5A5D",
"A  c #3F5254",
"S  c #2A5E62",
"D  c #304C71",
"F  c #3C5E60",
"G  c #236D41",
"H  c #24656A",
"J  c #2A6C71",
"K  c #38686C",
"L  c #3D6E72",
"P  c #3B7369",
"I  c #3C767B",
"U  c #5E3C3C",
"Y  c #7F393A",
"T  c #752729",
"R  c #40403F",
"E  c #5A4D3F",
"W  c #5B783A",
"Q  c #685937",
"!  c #6B6A2E",
"~  c #676233",
"^  c #646832",
"/  c #736E2B",
"(  c #424343",
")  c #43494A",
"_  c #484747",
"`  c #4A4A4A",
"'  c #435556",
"]  c #465759",
"[  c #445A5C",
"{  c #4D5758",
"}  c #4F5253",
"|  c #535353",
" . c #555759",
".. c #5B5B5C",
"X. c #425E60",
"o. c #416366",
"O. c #436669",
"+. c #446A6D",
"@. c #4E6769",
"#. c #436C70",
"$. c #45776D",
"%. c #427074",
"&. c #4C7B70",
"*. c #576566",
"=. c #516C6F",
"-. c #5C696B",
";. c #586F72",
":. c #5D756D",
">. c #547778",
",. c #5C7678",
"<. c #787244",
"1. c #7F7E58",
"2. c #636464",
"3. c #646A6B",
"4. c #686867",
"5. c #6C6D6D",
"6. c #6A6F70",
"7. c #637474",
"8. c #687273",
"9. c #727273",
"0. c #7B7B7B",
"q. c #1319B7",
"w. c #143A9D",
"e. c #0E27A3",
"r. c #0F3BA6",
"t. c #3F0BBA",
"y. c #322DA0",
"u. c #050BDB",
"i. c #0F17CD",
"p. c #0F1FD5",
"a. c #101ADC",
"s. c #0410EB",
"d. c #041EE8",
"f. c #0413F3",
"g. c #102BDE",
"h. c #1330CD",
"j. c #064CB7",
"k. c #06708E",
"l. c #0363A0",
"z. c #29538B",
"x. c #355A97",
"c. c #2A51A0",
"v. c #306885",
"b. c #37699E",
"n. c #3C7C81",
"m. c #445887",
"M. c #427C81",
"N. c #7E7F80",
"B. c #1C8D34",
"V. c #13B21F",
"C. c #14B923",
"Z. c #16BC29",
"A. c #1DB937",
"S. c #3F9D2E",
"D. c #1F865D",
"F. c #149847",
"G. c #098374",
"H. c #1FA357",
"J. c #208B5D",
"K. c #268468",
"L. c #398D7F",
"P. c #35827C",
"I. c #27A147",
"U. c #29A549",
"Y. c #21B748",
"T. c #24BC45",
"R. c #3BAB47",
"E. c #3AA159",
"W. c #0BCB1E",
"Q. c #0AD50F",
"!. c #08DA0E",
"~. c #0BDB1B",
"^. c #0AD61D",
"/. c #13CB17",
"(. c #0BC428",
"). c #1FCC2B",
"_. c #1BC536",
"`. c #13D72A",
"'. c #12DF21",
"]. c #05EA0C",
"[. c #08E914",
"{. c #04F707",
"}. c #01FB02",
"|. c #09F600",
" X c #08F20C",
".X c #29D51F",
"XX c #25CA30",
"oX c #2BC334",
"OX c #38C72E",
"+X c #2DFA05",
"@X c #3FEB0D",
"#X c #419D1E",
"$X c #41BA1C",
"%X c #608D30",
"&X c #6D8234",
"*X c #65A53D",
"=X c #478B57",
"-X c #4B8F5E",
";X c #5B836E",
":X c #558273",
">X c #669D55",
",X c #699265",
"<X c #7D826B",
"1X c #41C100",
"2X c #3E8288",
"3X c #3A8183",
"4X c #99361D",
"5X c #883F2B",
"6X c #833838",
"7X c #952A28",
"8X c #913C5D",
"9X c #9B4120",
"0X c #90442C",
"qX c #B84707",
"wX c #BA440A",
"eX c #8A4F63",
"rX c #876045",
"tX c #826845",
"yX c #CB1926",
"uX c #C5340B",
"iX c #CE3608",
"pX c #EA1110",
"aX c #E21313",
"sX c #F41304",
"dX c #C14507",
"fX c #8A900F",
"gX c #9D9739",
"hX c #989839",
"jX c #84A832",
"kX c #A79E37",
"lX c #B6AE29",
"zX c #828550",
"xX c #969047",
"cX c #88856D",
"vX c #80807F",
"bX c #898774",
"nX c #9CA84D",
"mX c #A39C5C",
"MX c #AEA64A",
"NX c #A4A04B",
"BX c #CEBE11",
"VX c #D9C91A",
"CX c #D9CB25",
"ZX c #E6E104",
"AX c #F4E408",
"SX c #FEEA00",
"DX c #F2F001",
"FX c #FCF400",
"GX c #858585",
"HX c #ACACAC",
"JX c gray69",
"KX c gray74",
"LX c #CDCDCD",
"PX c #DEDEDE",
"IX c #EEEEEE",
"UX c gray100",
/* pixels */
"GXGXGXGXGXGXGXGXGXGXGXGXGXGXGXGXGXGXGXGXGXGXGXGXGXGXN.GXGXGXGXGX",
"0.GX0.0.vXvXmXCXbX0.<XN.N.GXN.N.N.vXN.N.N.N.N.N.vXvXN.N.N.N.N.N.",
"0.0.0.0.0.0.MXSXcX0.0.0.N.0.9.0.0.9.0.0.0.0.9.0.0.9.eXN.0.0.N.0.",
"9.9.9.9.8.9.NXAX<X9.8.9.9.9.9.9.9.9.9.9.9.9.9.9.9.9.<XN.9.9.8.8.",
"5.5.5.5.8.8.nXAX,X;X;X7.8.5.5.5.5.5.5.5.5.5.5.5.5.5.5.5.5.5.5.5.",
"3.3.3.,.,.:X>XZXOXXXoXR.-X:.3.<XVXxX4.4.4.4.4.4.4.4.4.4.2.4.4.4.",
"2.-.;.>.E.`.k.8XiXiXiXdX{.).=XzXSXkX..2...2...2.2...2...2...2.2.",
"*.=.&.T.[.l.d.m.rXtX<.&X'.}.[.*XSXgX............................",
"@.$._.}.j.g.b.M.M.M.M.2X3XT.}.@XSXhX . .| | | |  .| | | | | |  .",
"+.U.{._.h.x.#.+.+.+.%.%.n.3XY.+XFXjX{ } | | | | } | } | | | | | ",
"o.I.A.P K X.Z A ] [ o.O.L I P.H.lXfXQ 6X6XY ` ` _ _ ` ` ` _ _ _ ",
"Z F F Z A ) ) B ) ( ) ' F K v.h.t.yXsXpXpXaX_ _ _ ( _ _ _ _ _ _ ",
"B V V B ( N ( U U m R ( B D p.f.c.S.$X#XE U N p ~ BXQ ( R t R ( ",
"t N q q q q 0 0 0 0 q q p i.a.z.J K.~.}.C.C N q / SX! t t U U t ",
"q 9 9 9 9 8 8 8 9 8 9 8 0 q.y c S J J.!.}.C.b m ! SX^ m x M i 6 ",
"8 8 8 3 8 8 8 8 5 8 8 5 8 8 6 x c S H J.^.|./.B.%XSXW v G V.!.a ",
"8 3 3 3 3 3 3 3 3 3 3 3 3 3 5 5 t z n H j Z.{.{..XDX$XW.].}.!.u ",
"2 2 2 2 3 2 2 2 3 3 2 1 3 2 2 3 5 7 l g S k F.(.G.eXwXqXqXuX4X7 ",
"> > > > > > > > > > > > > > > > < < 4 s l g h r.f.y.0X4X5X7XT 4 ",
"$ $ $ $ $ $ $ $ # + > + > + $ & + > & = ; w e.s.w.f f d s : = * ",
"$ + + $ $ + + + + + + + + + + + + + + & & = u.e : : ; ; - = % + ",
"+ X + X O O O O + + o o O O O O O + o + + + @ @ % % % % @ + O + ",
"X X X X O O O O O O o X o o o X o o X X o o o o O O o o X X o o ",
"X X X JXPX$ $ PXJXO $ eXIXX . U UXUXUXUX<Xo IXN.X } IX0.X X X X ",
". . . JXUXeXGXUXJX. X IXUX0.X q UX( . 0.UXN UXeX` IXJX. X . . X ",
". . . HXIXPXPXIXHX. ` IXLXJX. q UXq . q UXM IXHXIXHX. . . . . . ",
". . . HXKXPXPXKXHX. 0.IX0.IX. 0 UXHXHXPXPXO IXUXIX. .   . . . . ",
".     HXHXN.<XJXHX  IXLXHXIX0.0 UXKXUXPXo . IXHXIXHX  .     .   ",
"      HXHX    JXHX_ IXHXHXLXHX9 UX9 0.UX0.  IX9._ IXHX    .     ",
"      HXHX    HXHX9.IX    0.IX8 UX9   0.UX8 IX0.  ) IX9.        ",
"                                                                ",
"                                                                "
};
