/* XPM */
static char *mirror[] = {
/* columns rows colors chars-per-pixel */
"32 32 140 2",
"   c #020202",
".  c #0C0B0C",
"X  c #131313",
"o  c #1B1B1A",
"O  c #1F1F20",
"+  c #1F201F",
"@  c #201F1F",
"#  c #25241C",
"$  c #343218",
"%  c #3A371E",
"&  c #3E3B17",
"*  c #232323",
"=  c #272728",
"-  c #272827",
";  c #272828",
":  c #282727",
">  c #282728",
",  c #282827",
"<  c #2B2B2B",
"1  c #353423",
"2  c #3B3922",
"3  c #3D3D2B",
"4  c #333333",
"5  c #3B3B3B",
"6  c #164C11",
"7  c #184E14",
"8  c #1B5117",
"9  c #1E5419",
"0  c #22591E",
"q  c #285E24",
"w  c #3D5F3A",
"e  c #2B6126",
"r  c #2F652B",
"t  c #32682E",
"y  c #376D33",
"u  c #3F6A3C",
"i  c #3B7136",
"p  c #3F753B",
"a  c #3F4040",
"s  c #403F40",
"d  c #544F17",
"f  c #524D19",
"g  c #454329",
"h  c #4A4725",
"j  c #40403C",
"k  c #49483E",
"l  c #59563F",
"z  c #426C3E",
"x  c #43793F",
"c  c #625D2A",
"v  c #696317",
"b  c #6C6519",
"n  c #6F681B",
"m  c #666231",
"M  c #686331",
"N  c #777232",
"B  c #77723B",
"V  c #787132",
"C  c #434443",
"Z  c #4A4A4A",
"A  c #545340",
"S  c #52524F",
"D  c #58574D",
"F  c #58584D",
"G  c #535353",
"H  c #5B5B5B",
"J  c #487E43",
"K  c #6E6C4B",
"L  c #6D6B5A",
"P  c #75734F",
"I  c #7F7B44",
"U  c #79755C",
"Y  c #646364",
"T  c #696766",
"R  c #686865",
"E  c #6C6C6C",
"W  c #727272",
"Q  c #7C7B7B",
"!  c #7E7F80",
"~  c #1ACA0C",
"^  c #1ECE10",
"/  c #22D214",
"(  c #26D619",
")  c #2ADA1D",
"_  c #2EDE20",
"`  c #3ECB33",
"'  c #4B8247",
"]  c #50864C",
"[  c #558B50",
"{  c #598F54",
"}  c #5D945A",
"|  c #689264",
" . c #807B44",
".. c #827F5E",
"X. c #AEA11C",
"o. c #B3A616",
"O. c #B7AA1B",
"+. c #B8AA16",
"@. c #ABA028",
"#. c #AAA139",
"$. c #B9AD28",
"%. c #B3A831",
"&. c #BEB122",
"*. c #BEB33D",
"=. c #82805E",
"-. c #8C8750",
";. c #9D9540",
":. c #9B965B",
">. c #80807D",
",. c #8B8974",
"<. c #A79F4A",
"1. c #A89F4A",
"2. c #ABA241",
"3. c #BEB341",
"4. c #C0B216",
"5. c #C1B31E",
"6. c #C7B816",
"7. c #CCBD1C",
"8. c #C9BC29",
"9. c #CFC01F",
"0. c #D6C61A",
"q. c #D8C716",
"w. c #DCCB16",
"e. c #DBCB19",
"r. c #CDC02D",
"t. c #D1C32F",
"y. c #E0CF16",
"u. c #E3D115",
"i. c #E2D219",
"p. c #E8D716",
"a. c #E8D618",
"s. c #EBD915",
"d. c #848484",
"f. c #ACACAC",
"g. c gray69",
"h. c gray74",
"j. c #CDCDCD",
"k. c #DEDEDE",
"l. c #EEEEEE",
"z. c gray100",
/* pixels */
"d.d.d.d.d.d.d.d.d.d.d.d.d.d.d.d.d.d.d.d.d.d.d.d.d.d.d.d.d.d.d.d.",
">.Q Q Q ! ,.t.a.a.*.Q ! >.>.! Q ! ! >.Q ! ! ,.t.s.a.3.d.! ! ! ! ",
"Q Q Q Q ! 8.s.s.s.s.:.Q Q Q Q | ` Q Q Q Q W *.s.s.s.s.:.W Q Q Q ",
"W W W W W r.s.s.s.s.<.W W W W } ) W W W W W r.s.s.s.s.2.W W W W ",
"E E E E E 1.a.a.s.p...E E E E { ) E E E E E 2.s.s.p.s.| E E E E ",
"T T T T Y Y -.a.8.U R T Y T T [ ) T T T T Y R -.i.8...Y T T Y R ",
"Y Y Y H Y L ;.i.8.#.Y Y Y H Y ] ) Y H Y Y Y L ;.i.8.#.Y H Y Y Y ",
"H H H H H %.s.s.p.p.P H H H H J ( H H H H H #.s.s.p.p.P H H H H ",
"G G G H I s.p.s.s.p.s.K G G G J ( G G G H  .s.a.s.s.a.a.K G G G ",
"Z G S S s.s.q.s.s.$.s.e.S Z G J ( G G G D s.s.e.s.s.5.s.y.G G G ",
"Z Z Z 0.s.B 8.s.p.0.a.p.8.Z Z p / Z S Z 7.s.B 5.s.s.7.u.a.8.s S ",
"C C e.a.p.C 7.s.p.e.l A s.@.C i ( s s i.s.s.s 7.s.s.i.l A s.@.s ",
"C s a.s.B C 7.s.s.0.k j &.7.j y / s s a.s.V s 7.s.s.7.k s 5.7.s ",
"5 5 c c 5 5 q.s.s.5.5 5 5 5 5 t / 5 5 m M 5 5 q.s.s.6.s 5 5 5 5 ",
"4 4 4 4 4 4 s.s.s.7.4 4 4 5 4 r / 4 4 4 4 4 4 p.s.s.7.4 4 4 4 4 ",
"4 4 4 4 4 c s.q.p.w.4 4 4 < < r / < 4 4 4 4 c p.y.a.0.4 4 4 < 4 ",
"< < < < < O.s.g < u.X.3 < < < q ^ < < < < < O.s.g 4 u.X.3 < < < ",
"; ; ; ; , u.s., ; y.u.h ; ; ; q ~ > > > , > y.s., , y.u.h , , > ",
"- * * * 1 s.s.* - q.p.2 - - - 9 ~ * > * * 1 p.s.* * q.s.2 * : * ",
"o + + + n s.s.# + w.p.% O o O 9 ~ O O O @ n s.s.# @ q.p.% @ @ @ ",
"o o o v p.s.s.# o q.s.w.f o o 8 ~ o o o b p.s.s.# o q.p.y.f o o ",
"o o o & +.$.v + o d 6.o.1 X X 7 ~ o o X & 4.+.v @ o d 6.o.$ X o ",
"X X X X X X X X X O X X X X X 7 ~ X X X X X X X X X X X X X X X ",
"X X . g.k.* O k.g.X ..z.z.l.X z z.z.z.z.>.X l.z.z.z.g.. X X X X ",
". . . g.z.Q >.z.f.. . d.l.X . p z.5 X Q z.C l.Q . S l...X X . X ",
". . . g.l.k.k.l.f.. . ..l.. . p z.5 . 5 z.5 l.Q . . l.Q . . . . ",
". . . f.h.k.k.h.f.. . Q l.. . a z.f.f.k.k.o l.j.f.j.l.Z   . .   ",
".     f.f.Q Q f.f..   Q l..   5 z.h.z.k.o   l.j.l.l.Z   . .   . ",
"      f.f.    f.f.    W l.    4 z.4 Q z.Q   l.Q Z l.f.        . ",
"      f.f.    f.f.  Q z.z.l.  4 z.4   Q z.4 l.W   Z l.W         ",
"                                                                ",
"                                                                "
};
