/* XPM */
static char *misc[] = {
/* columns rows colors chars-per-pixel */
"32 32 183 2",
"   c #286922",
".  c #286923",
"X  c #296922",
"o  c #296923",
"O  c #286A22",
"+  c #2B6B24",
"@  c #2B6B25",
"#  c #2B6C24",
"$  c #2B6C25",
"%  c #2D6D26",
"&  c #2D6D27",
"*  c #2D6E26",
"=  c #2D6E27",
"-  c #2F7029",
";  c #307029",
":  c #32722B",
">  c #32732B",
",  c #32722C",
"<  c #32732C",
"1  c #34742E",
"2  c #34742F",
"3  c #34752E",
"4  c #35742E",
"5  c #34762E",
"6  c #377532",
"7  c #377631",
"8  c #377730",
"9  c #377731",
"0  c #367830",
"q  c #377830",
"w  c #387432",
"e  c #397933",
"r  c #397A33",
"t  c #3A7933",
"y  c #3B7835",
"u  c #3B7D35",
"i  c #3C7D35",
"p  c #3E7F37",
"a  c #3F7F37",
"s  c #3E7F38",
"d  c #3F7F38",
"f  c #17E902",
"g  c #17EB01",
"h  c #17EA02",
"j  c #17EC01",
"k  c #17ED01",
"l  c #17EC02",
"z  c #18E303",
"x  c #18E802",
"c  c #1EEF0E",
"v  c #12FF00",
"b  c #13FE01",
"n  c #17F906",
"m  c #17FA06",
"M  c #1AF50A",
"N  c #1BF40A",
"B  c #1CF50B",
"V  c #1CF50C",
"C  c #1DF50C",
"Z  c #38CC2C",
"A  c #36DC29",
"S  c #22ED13",
"D  c #26E816",
"F  c #29EA1A",
"G  c #41823A",
"H  c #41823B",
"J  c #42823A",
"K  c #42823B",
"L  c #44843D",
"P  c #44843E",
"I  c #46863F",
"U  c #46873F",
"Y  c #47BD3C",
"T  c #468640",
"R  c #468740",
"E  c #498942",
"W  c #498943",
"Q  c #498A42",
"!  c #498A43",
"~  c #4B8C45",
"^  c #4B8D45",
"/  c #4C8C45",
"(  c #4C8D45",
")  c #4E8F48",
"_  c #4F8F48",
"`  c #598D54",
"'  c #5B8F55",
"]  c #51924A",
"[  c #52924A",
"{  c #53944D",
"}  c #54944D",
"|  c #57974F",
" . c #579750",
".. c #5F915A",
"X. c #599952",
"o. c #599A52",
"O. c #599A53",
"+. c #5A9953",
"@. c #5A9954",
"#. c #5B9C55",
"$. c #5B9D55",
"%. c #5C9C55",
"&. c #5C9D55",
"*. c #5E9F58",
"=. c #5F9E59",
"-. c #5F9F58",
";. c #55A04E",
":. c #58A052",
">. c #5EA656",
",. c #5EA058",
"<. c #5FA058",
"1. c #51B548",
"2. c #51B549",
"3. c #52B548",
"4. c #52B549",
"5. c #54B24A",
"6. c #55B64B",
"7. c #5DBB55",
"8. c #61955C",
"9. c #669662",
"0. c #679662",
"q. c #6E9D69",
"w. c #6E9E69",
"e. c #61A25A",
"r. c #61A25B",
"t. c #62A25A",
"y. c #62A25B",
"u. c #64A45D",
"i. c #64A55D",
"p. c #64A45E",
"a. c #64A55E",
"s. c #66A95F",
"d. c #63B05C",
"f. c #67A760",
"g. c #67A761",
"h. c #67A860",
"j. c #67A861",
"k. c #69AA63",
"l. c #69AB63",
"z. c #6AAA63",
"x. c #6CAD66",
"c. c #6DAD66",
"v. c #6FB068",
"b. c #71B26B",
"n. c #72B26A",
"m. c #72B26B",
"M. c #75B46D",
"N. c #75B56D",
"B. c #74B56E",
"V. c #75B46E",
"C. c #75B56E",
"Z. c #41CB36",
"A. c #44CC38",
"S. c #58C44E",
"D. c #8FB28B",
"F. c #8FB18C",
"G. c #90B38D",
"H. c #91B38D",
"J. c #92B48E",
"K. c #93B590",
"L. c #94B691",
"P. c #95B892",
"I. c #96B892",
"U. c #97BA93",
"Y. c #B9CEB7",
"T. c #B9CFB7",
"R. c #BACFB8",
"E. c #BBD0B8",
"W. c #BBD0B9",
"Q. c #BBD1B9",
"!. c #BCD1BA",
"~. c #BCD1BB",
"^. c #BDD1BA",
"/. c #BDD3BB",
"(. c #BED4BC",
"). c #C9DAC7",
"_. c #E3ECE2",
"`. c #E4ECE3",
"'. c #F1F5F1",
"]. c #F1F6F1",
"[. c #F2F6F1",
"{. c #F2F6F2",
"}. c gray100",
/* pixels */
"x x x x x x g g g g g g g x g g g g g g l x l l l l k k k g g k ",
"z                   o . . .     . . . .                       k ",
"g + $   + $ + + $ # # $ + + +   @   + + $   $ $ % #   %   %   l ",
"k = = = R.`.y y _.Y.= D.}.}.{.= = F.}.}.}.F.= $ T.}.}.T.= = = l ",
"k - - - R.}.G.G.}.R.- - F.{.- - ` }.J.- F.}.` F.].9.9.].J.: = l ",
"k : < < R.{.`.`.].R.< < J.{.< - ` }.J.: < : : {.J.> > > : : > l ",
"k 2 2 2 R.).`.`.)./.5 5 L.].5 5 2 J.}.}.}.L.5 {.J.2 2 2 2 2 2 k ",
"k w w 6 /.^.L.L.R.R.6 6 L.{.q q w q q q L.}...{.L.t q q q q q k ",
"k t t t /./.t t /./.u t L.{.q y ..}.U.t U.}...U.].z.q.{.L.t t k ",
"k u u u /./.u u /./.u U.}.}.{.u u U.}.}.}.U.u u /.}.}./.a i u k ",
"k d a d a a a a d a G a d a d a G d u d a a a a d i K i d a a k ",
"k K K K G G K K G G G G G G K G G G G G G G G K K K K K K K K k ",
"k L L L L L I L L L L L L L L L L L L L I I K I P P P P L L L k ",
"k I R R R R R I I R L Q L Q R R R R I I U U I I I R I R I R R k ",
"k Q Q W W W W W Q W W W Q ~ Q Q W W Q Q W W W W W W W W R ~ Q g ",
"k ^ ^ ^ ^ ^ ^ ~ ^ ^ ^ ^ ^ ^ ~ ~ ^ ^ ^ ^ ^ ^ ^ ^ ^ ^ ~ ~ ~ ^ ^ k ",
"l ( ^ ] ) ) ) ) ] ( ( ( ^ ] ^ ] ) ) ) ) ) ) ) ) ) ) ) ) ) ) ) k ",
"l ] ] ] ] ] ] ] [ [ } ] ] ] ] [ ] ] ] ] ] ] ] ] ] ] ] ] ] ] ] k ",
"k } } } } } } } } } } } } } } } } } { } } } } } } } } } } } } k ",
"l O.} O.} O. .|  . .| | | O.| |  . . . . . .| |  .|  . . . . .k ",
"l #.| #.@.@.@.#.@.@.@.O.O.O.O.+.O.O.@.;.O.O.@.#.O.O.#.+.O.+.@.l ",
"l &.&.&.$.$.$.$.$.$.$.$.$.$.$.$.$.$.$.c Z :.$.$.&.&.&.:.$.$.$.l ",
"k e.&.e.*.*.-.-.-.-.<.<.8.>.<.*.*.<.-.M b M Y &.e.$.e.8.<.<.e.k ",
"k <.e.e.y.y.<.>.1.6.1.1.1.1.1.1.1.1.1.M b b b D 5.y.y.y.y.<.<.k ",
"k a.a.a.a.p.p.6.S S S S S S S S S S S m v v b b b Z.u.a.y.p.p.l ",
"l s.s.a.s.s.g.s.g.g.g.g.g.g.g.a.g.g.g.V v v v m A.s.l.a.s.g.g.l ",
"l l.l.l.l.l.z.z.l.l.l.l.l.l.l.l.l.l.j.V v b A d.z.l.l.l.l.l.l.l ",
"l c.c.c.c.c.c.c.x.x.x.x.x.x.x.c.x.x.x.V F 7.x.x.c.c.c.c.c.c.c.l ",
"k v.v.n.c.v.v.v.v.v.v.v.v.v.v.v.v.v.v.S.v.v.v.v.v.v.v.v.c.n.v.k ",
"k n.n.n.n.m.m.n.m.m.m.m.m.m.m.m.n.n.m.m.m.m.m.m.m.m.m.m.n.n.n.k ",
"k N.N.N.N.N.N.N.V.V.V.N.B.N.V.V.N.V.N.N.V.V.V.V.V.V.N.N.N.N.N.k ",
"k k l l l l l l k k k k k k k k k k k k k k k k k k k k k k k k "
};
