/* XPM */
static char *misc_cl[] = {
/* columns rows colors chars-per-pixel */
"32 32 205 2",
"   c #2C2C2C",
".  c #2C2D2C",
"X  c #2C2D2D",
"o  c #2D2C2C",
"O  c #2D2C2D",
"+  c #2D2D2C",
"@  c #2D2D2D",
"#  c #2E2D2C",
"$  c gray19",
"%  c #303031",
"&  c #303130",
"*  c #303131",
"=  c #313030",
"-  c #313031",
";  c gray20",
":  c #333334",
">  c #333433",
",  c #333434",
"<  c #343333",
"1  c #343334",
"2  c #343433",
"3  c #343434",
"4  c gray21",
"5  c #363736",
"6  c #373636",
"7  c #373637",
"8  c #373736",
"9  c #373737",
"0  c #3A3A3A",
"q  c #3A3A3B",
"w  c #3B3A3A",
"e  c #3B3B3A",
"r  c gray24",
"t  c #3D3D3E",
"y  c #3D3E3D",
"u  c #3D3E3E",
"i  c #3E3D3E",
"p  c #3E3E3D",
"a  c #3E3E3E",
"s  c #414141",
"d  c #404142",
"f  c #414142",
"g  c #414241",
"h  c #414242",
"j  c #444444",
"k  c #444544",
"l  c #444545",
"z  c #454444",
"x  c #454445",
"c  c #454544",
"v  c gray27",
"b  c #484848",
"n  c #484849",
"m  c #484948",
"M  c #494848",
"N  c #4B4C4C",
"B  c #4C4C4C",
"V  c gray31",
"C  c #4F4F50",
"Z  c #4F504F",
"A  c #4F5050",
"S  c #504F4F",
"D  c #504F50",
"F  c #50504F",
"G  c #505050",
"H  c #535353",
"J  c #535354",
"K  c #535453",
"L  c #545353",
"P  c #545354",
"I  c gray33",
"U  c gray34",
"Y  c #575758",
"T  c #5A5A5B",
"R  c #5A5B5B",
"E  c #5B5A5A",
"W  c #5B5A5B",
"Q  c #5B5B5A",
"!  c #5B5B5B",
"~  c gray37",
"^  c #5E5E5F",
"/  c #5E5F5E",
"(  c #5E5F5F",
")  c #5F5E5E",
"_  c #5F5E5F",
"`  c #5F5F5E",
"'  c #5F5F5F",
"]  c gray38",
"[  c #616162",
"{  c #626262",
"}  c #626263",
"|  c #626362",
" . c #626363",
".. c #636262",
"X. c #636263",
"o. c #636362",
"O. c gray39",
"+. c #656564",
"@. c gray40",
"#. c #666667",
"$. c #666766",
"%. c #676666",
"&. c #676766",
"*. c #6A696A",
"=. c #6A6A6A",
"-. c #6B6A6A",
";. c #6D6D6D",
":. c #6D6E6E",
">. c gray43",
",. c #6F6F6F",
"<. c #717272",
"1. c #727271",
"2. c #727272",
"3. c #757676",
"4. c #767575",
"5. c #767675",
"6. c #767676",
"7. c #797979",
"8. c #79797A",
"9. c #797A79",
"0. c #797A7A",
"q. c #7A7979",
"w. c #7A797A",
"e. c #7A7A79",
"r. c gray48",
"t. c #7D7D7E",
"y. c #7D7E7D",
"u. c #7D7E7E",
"i. c #7E7D7D",
"p. c #7E7D7E",
"a. c #7E7E7D",
"s. c #7E7E7E",
"d. c #818181",
"f. c #818182",
"g. c #818281",
"h. c #818282",
"j. c #828181",
"k. c #828281",
"l. c gray51",
"z. c gray52",
"x. c #858586",
"c. c #858685",
"v. c #858686",
"b. c #868585",
"n. c #868586",
"m. c #868685",
"M. c #868686",
"N. c #898989",
"B. c #89898A",
"V. c #898A89",
"C. c #8A8989",
"Z. c #8A898A",
"A. c gray54",
"S. c #8D8D8D",
"D. c #8D8E8D",
"F. c #8E8D8D",
"G. c gray57",
"H. c #929191",
"J. c gray58",
"K. c #959594",
"L. c #959595",
"P. c gray59",
"I. c #989898",
"U. c #989999",
"Y. c #999898",
"T. c #999899",
"R. c #999998",
"E. c gray60",
"W. c #9A9A9A",
"Q. c #9B9B9C",
"!. c #9B9C9B",
"~. c #9C9C9B",
"^. c gray61",
"/. c #9C9D9D",
"(. c #9D9C9C",
"). c #9D9C9D",
"_. c #9D9D9C",
"`. c #9D9D9D",
"'. c #9E9D9D",
"]. c #9E9D9E",
"[. c #A0A0A0",
"{. c #A0A0A1",
"}. c #A0A1A0",
"|. c #A0A1A1",
" X c #A1A0A0",
".X c #A1A0A1",
"XX c #A1A1A0",
"oX c gray63",
"OX c #BCBCBC",
"+X c gray74",
"@X c #BEBEBF",
"#X c #BFBFBE",
"$X c #BFC0C0",
"%X c #C0C0C0",
"&X c #C1C1C1",
"*X c gray76",
"=X c #C3C3C3",
"-X c gray80",
";X c #CDCCCC",
":X c #E4E4E4",
">X c gray90",
",X c #E6E6E6",
"<X c gray95",
"1X c #F3F3F3",
"2X c gray100",
/* pixels */
"@ @ @ @ @ @ @ @ @ @ @ @ @ @ @ @ @ @ @ @ O @ @ @ @ @ @ @ @ @ @ @ ",
"$ $ $ $ $ $ $ $ $ $ $ $ $ $ $ $ $ $ $ $ = = @ $ $ $ $ $ $ $ = = ",
"$ $ 9 $ 9 $ 2 9 9 $ 2 $ , < $ $ > $ < 1 $ 9 9 $ 9 $ 9 $ 2 $ > > ",
"0 9 9 9 OX:Xj j >XOX9 P.2X2X1X0 9 P.2X2X2XJ.9 9 OX2X2XOX9 9 9 9 ",
"e 0 0 0 OX2XP.P.2XOXe e P.1X0 0 { 2XP.0 P.2X' P.1X,.,.1XP.e e e ",
"t t t t OX1X>X>X1XOXt t I.1Xt t +.2XI.t t p t 1XW.t t t t t t t ",
"j g j a $X-X>X>X-X#Xt j W.1Xj t j W.2X2X2XW.j 1XW.a j a s s j j ",
"k l l l *X*X!.).*X*Xl c ~.1Xl l j j j l ~.2X&.1X).l z j j j j j ",
"b b b b *X*Xm m *X*Xm M ).1Xm m ,.2X).m ).2X,.).1X9.9.1X).m m M ",
"B N B B =X=XB B =X=XB  X2X2X1XB m  X2X2X2X XN B =X2X2X=XB B B B ",
"S A V S Z V S S S S C S S A S V D A A D D C Z S Z S S S D S D A ",
"K J J P J J K K I I S J P I I K J P K I I S K K K S I I P J J J ",
"U U U U U U U U T U U U U U U U I I ! I I U U U ! I ! I I I T I ",
"! ! ! ! ! ! ! ! ! ! ! ! ! ! E E _ ! ! ! _ E ! ! ! ! ! ! _ ! ! ! ",
"_ _ _ _ ( ' ' _ ( ( ' ' ( ' ' ' ' ' ' _ ' ' ( ( _ _ ' _ _ ' ' ' ",
"{ { { | { { { { | | | | | o.{ { o.| { { { { | { { { { { { O.O.O.",
"#.+.&.+.&.#.#.+.+.+.&.+.*.+.#.+.+.$.+.#.+.#.#.#.+.#.+.+.#.+.*.+.",
"-.*.-.-.*.-.-.-.-.*.-.*.*.*.-.-.-.-.-.-.*.-.-.*.-.-.*.*.-.*.-.*.",
",.,.>.>.,.,.>.>.,.,.,.,.,.,.>.>.,.,.,.,.>.>.>.>.,.,.,.,.,.,.,.,.",
"<.<.2.<.<.<.2.2.<.<.<.<.<.<.2.2.<.<.<.<.2.2.2.2.<.<.<.<.<.<.<.<.",
"3.6.6.6.3.6.6.6.3.6.6.6.3.3.3.6.3.3.3.3.6.3.6.6.6.6.6.3.3.3.3.6.",
"r.r.9.q.q.9.r.9.9.r.r.r.9.9.9.r.9.9.9.9.r.9.9.q.r.r.r.9.9.9.r.9.",
"i.s.p.s.s.p.i.s.p.s.s.s.s.s.s.s.s.s.s.s.s.s.s.s.s.s.s.s.s.s.s.p.",
"d.d.j.j.l.d.d.l.d.l.l.d.k.k.k.d.d.d.d.d.d.l.l.l.j.l.d.d.d.d.d.j.",
"b.b.b.b.b.b.v.v.b.b.x.b.b.b.v.v.x.b.b.b.b.b.x.x.b.b.b.b.b.b.b.b.",
"N.N.N.N.N.N.N.N.C.C.B.B.N.N.N.V.B.N.N.N.B.N.N.B.C.C.N.N.N.N.N.N.",
"S.S.S.S.D.D.S.S.D.D.D.D.S.S.S.S.D.D.D.D.D.D.S.S.D.D.D.D.S.S.S.S.",
"G.G.G.G.G.G.G.G.G.G.G.G.G.G.G.G.G.S.G.G.G.G.G.G.G.G.G.G.G.G.G.G.",
"K.P.K.P.P.K.P.J.K.P.K.P.P.J.J.P.L.L.L.L.L.L.L.L.P.J.P.J.P.P.J.P.",
"W.U.I.W.I.W.W.I.W.W.W.I.U.W.U.W.T.T.T.T.U.T.T.T.U.W.U.W.W.U.W.U.",
"W.).).).).).~.).)./././.).).).).).].].).]./.!.].).).].).].!.W.).",
"|.|. X}.}.}.|.|.|. X|. X|.|.|. X X|.|. X|. X|. X X X|. X|. X X X"
};
