/* XPM */
static char * nHead_xpm[] = {
"42 42 179 2",
"  	c #A9A9A9",
". 	c #AAAAAA",
"+ 	c #ACACAC",
"@ 	c #AEAEAE",
"# 	c #ADADAD",
"$ 	c #A8A8A8",
"% 	c #9A9A9A",
"& 	c #8C8C8C",
"* 	c #8D8D8D",
"= 	c #8A8A8A",
"- 	c #939393",
"; 	c #A4A4A4",
"> 	c #9C9C9C",
", 	c #787878",
"' 	c #686868",
") 	c #5F5F5F",
"! 	c #5D5D5D",
"~ 	c #5B5B5B",
"{ 	c #5C5C5C",
"] 	c #626262",
"^ 	c #757575",
"/ 	c #8E8E8E",
"( 	c #A6A6A6",
"_ 	c #9B9B9B",
": 	c #777777",
"< 	c #606060",
"[ 	c #6B6B6B",
"} 	c #717171",
"| 	c #747474",
"1 	c #767676",
"2 	c #727272",
"3 	c #6D6D6D",
"4 	c #656565",
"5 	c #646464",
"6 	c #ABABAB",
"7 	c #535353",
"8 	c #6C6C6C",
"9 	c #797979",
"0 	c #7E7E7E",
"a 	c #808080",
"b 	c #7F7F7F",
"c 	c #7C7C7C",
"d 	c #7A7A7A",
"e 	c #737373",
"f 	c #6A6A6A",
"g 	c #5E5E5E",
"h 	c #B0B0B0",
"i 	c #454545",
"j 	c #828282",
"k 	c #848484",
"l 	c #838383",
"m 	c #818181",
"n 	c #6F6F6F",
"o 	c #434343",
"p 	c #545454",
"q 	c #636363",
"r 	c #7D7D7D",
"s 	c #858585",
"t 	c #878787",
"u 	c #868686",
"v 	c #7B7B7B",
"w 	c #424242",
"x 	c #575757",
"y 	c #8B8B8B",
"z 	c #898989",
"A 	c #6E6E6E",
"B 	c #616161",
"C 	c #4A4A4A",
"D 	c #969696",
"E 	c #AFAFAF",
"F 	c #353535",
"G 	c #4B4B4B",
"H 	c #585858",
"I 	c #888888",
"J 	c #8F8F8F",
"K 	c #959595",
"L 	c #909090",
"M 	c #494949",
"N 	c #B1B1B1",
"O 	c #343434",
"P 	c #4C4C4C",
"Q 	c #929292",
"R 	c #4E4E4E",
"S 	c #A7A7A7",
"T 	c #404040",
"U 	c #3A3A3A",
"V 	c #676767",
"W 	c #515151",
"X 	c #3B3B3B",
"Y 	c #989898",
"Z 	c #2E2E2E",
"` 	c #3C3C3C",
" .	c #565656",
"..	c #222222",
"+.	c #202020",
"@.	c #464646",
"#.	c #4F4F4F",
"$.	c #595959",
"%.	c #505050",
"&.	c #666666",
"*.	c #707070",
"=.	c #1E1E1E",
"-.	c #393939",
";.	c #363636",
">.	c #474747",
",.	c #383838",
"'.	c #484848",
").	c #414141",
"!.	c #2A2A2A",
"~.	c #2C2C2C",
"{.	c #1D1D1D",
"].	c #2B2B2B",
"^.	c #181818",
"/.	c #444444",
"(.	c #5A5A5A",
"_.	c #696969",
":.	c #4D4D4D",
"<.	c #525252",
"[.	c #313131",
"}.	c #B2B2B2",
"|.	c #A3A3A3",
"1.	c #555555",
"2.	c #A5A5A5",
"3.	c #262626",
"4.	c #3F3F3F",
"5.	c #A0A0A0",
"6.	c #373737",
"7.	c #3D3D3D",
"8.	c #333333",
"9.	c #2F2F2F",
"0.	c #303030",
"a.	c #919191",
"b.	c #949494",
"c.	c #232323",
"d.	c #B3B3B3",
"e.	c #1F1F1F",
"f.	c #3E3E3E",
"g.	c #A1A1A1",
"h.	c #212121",
"i.	c #1A1A1A",
"j.	c #B4B4B4",
"k.	c #282828",
"l.	c #292929",
"m.	c #242424",
"n.	c #252525",
"o.	c #171717",
"p.	c #9E9E9E",
"q.	c #0F0F0F",
"r.	c #161616",
"s.	c #2D2D2D",
"t.	c #ACACAA",
"u.	c #B3B3B1",
"v.	c #7D7D7C",
"w.	c #B3B3B2",
"x.	c #AEAEAD",
"y.	c #B0B0AE",
"z.	c #B4B4B3",
"A.	c #AAAAA9",
"B.	c #ABABAA",
"C.	c #B1B1AB",
"D.	c #B4B4AB",
"E.	c #A8A8A5",
"F.	c #9D9DA1",
"G.	c #9E9EA1",
"H.	c #9E9EA0",
"I.	c #A2A2A4",
"J.	c #61615A",
"K.	c #58584C",
"L.	c #747469",
"M.	c #75756D",
"N.	c #757572",
"O.	c #70706F",
"P.	c #5C5C58",
"Q.	c #494940",
"R.	c #959594",
"S.	c #9E9E9F",
"T.	c #AEAEA6",
"U.	c #B3B3A9",
"V.	c #AFAFAA",
"                                  . + @ # # @ # .                                   ",
"                              + # $ % & * * = - ; # # .                             ",
"                          + @ > , ' ) ! ) ) ~ { ] ^ / ( @                           ",
"                      . @ _ : < ] [ } | ^ 1 | 2 3 4 ! 5 & + 6                       ",
"                    . + | 7 { 8 | 9 0 a a b 0 c d : e f g [ ; +                     ",
"                    h , i ! [ | c a j k k l j m b c , | n { 4 ; 6                   ",
"                  @ * o p q n , r j s t t t u s l b v , e [ p ' #                   ",
"                . + 7 w x q n , r l t = / y z t k b c d 1 A B C D #                 ",
"                E u F G H 5 A 1 c l I J K L & z k b c d : n 5 M 8 E                 ",
"                N 5 O P H q 8 ^ c j t / Q L y I k b c v , } 4 R C $ .               ",
"              . S T U P H ] [ e v a k t I y z u j b b r c ^ V W X % +               ",
"              + Y Z ` G x B f 2 , r j z u j j j m a j m a 9 3  .O l E               ",
"              N r ..` M 7 ! ' } : d j s b v r 9 r k = u m 9 A < ` m h               ",
"              N 9 +.X @.#.$.5 f ' g %.o C H &.*.| a j e g R @.G w A E               ",
"              N 9 =.-.i #.H g ) P F ;.>.F ,.'.< A 1 ' ).!.~.{.].,.g N               ",
"              N 1 ^.;./.W (.) (.#.f d l v _.:. .8 [ '.P _.8  .X ,.<.+               ",
"              # L =.[.o W ~ ] B ' v Y h   L A 4 *.5  .& ; _ c #.C U ; .             ",
"            . h ; !.~.).%.{ V 8 *.> }.|.1.A c *.: 5 f $ / | Q x /.T 2..             ",
"          . ( u u M 3.4.W ) 3 A e * 5.t 6.G e ^ v V r . $.[.} ! C 7.2..             ",
"          E I 8.' 1 Z X #.< *.e [ | j z 8 _._.c r [ ^ / 9 (.V G :.7.2..             ",
"          + _ 6.g d 9.6.P g n d A ' [ _.A &.n m j *.3 } 2 f R >.'.4.; .             ",
"          6 2.` W : X 0.>.$.[ d j : f ] &.2 l u 0 : 3 n ] H #.R R $.+               ",
"            E P /.n 6.].w 7 4 e 0 & a.* / Q b.k ^ r 3 : 1 8 _.f G ! N               ",
"            }.q 8.5 w 3.7.P { 8 1 0 t a.J z I 1 3 m f 1 , , } q T [ h               ",
"            @ t ].W i c.;.i p 4 *., v 0 b 0 a f V j [ 2 e n &.(.,.0 h               ",
"              d.p 0./.c.[.).:.{ f e 9 v c r b B B j 2 8 *.f ] 7 O a.#               ",
"              @ b.e.[.3.].f.M p ] 8 ^ 9 v c r ) g ^ 3 &.3 &.g >.O g.6               ",
"                + 1 b } h.X >.#.(.4 n 1 , c 9 @.[.h.i. .3 ]  .O '.h                 ",
"                  h j._ k.O i R 1.) _.} : d r 4 $. .<.V &.! G ..' }.                ",
"                      E /.l.).R  .g V } 9 c r j j v ^ [ 5 H 4.e.z E                 ",
"                      }.4 e.` G  .< ' 3 n 1 v d : e A V ! R ;.O 2.6                 ",
"                      @ a.e.8.i 7 g V *.) $.4 5 ] < ~ p C R ~.W }.                  ",
"                      . + 6.m.).W g 4 A 1 , 9 v d e f ) $.P n.e N                   ",
"                        }.*.o.U #.{ q ' 3 2 | 1 ^ A 5 $.:.f.k.Q @                   ",
"                        + p.c.k.M (.5 _.n 2 | 1 ^ n q x G ,.U S .                   ",
"                          }.x q.,.p < _.n e ^ 1 ^ 3 <  .C Z x N                     ",
"                          . + C r.` 7 ] f } | 1 | 8 ) 1./.{.m h                     ",
"                            + # V i.s.G g f } | } _.! R k.1.+ .                     ",
"                              6 # '.X 6.4.C $.< ! 1./.l.7.$ +                       ",
"                              + _ W e : 8 W 8.7.p G i [ |.#                         ",
"              . t.t.t.t.t.t.t.u.v.G *.| 9 1 7 5 w.x.y.z.x.t.t.A.                    ",
"        B.C.D.E.F.G.G.H.H.H.H.I.J.K.L.M.N.O.P.Q.R.g.S.p.p.p.S.T.U.V..               "};
