/* XPM */
static char * nrm_lflid_xpm[] = {
"32 32 495 2",
"  	c #000000",
". 	c #171717",
"+ 	c #3A3B3B",
"@ 	c #3C3C3C",
"# 	c #3D3E3D",
"$ 	c #3E3E3E",
"% 	c #3F3F3F",
"& 	c #3D3D3D",
"* 	c #3B3B3B",
"= 	c #393A3A",
"- 	c #383838",
"; 	c #363636",
"> 	c #343434",
", 	c #323232",
"' 	c #313130",
") 	c #090909",
"! 	c #3D3C3C",
"~ 	c #3F3F3E",
"{ 	c #3A3A3A",
"] 	c #313131",
"^ 	c #232323",
"/ 	c #3B3B3C",
"( 	c #3E3F3F",
"_ 	c #3E3F3E",
": 	c #3D3D3C",
"< 	c #030303",
"[ 	c #404040",
"} 	c #414141",
"| 	c #303031",
"1 	c #0B0B0B",
"2 	c #373737",
"3 	c #2F2F2F",
"4 	c #212021",
"5 	c #222222",
"6 	c #232423",
"7 	c #313030",
"8 	c #393939",
"9 	c #323131",
"0 	c #302F2F",
"a 	c #252525",
"b 	c #121212",
"c 	c #121112",
"d 	c #131313",
"e 	c #1C1D1C",
"f 	c #313231",
"g 	c #434344",
"h 	c #444444",
"i 	c #454545",
"j 	c #434343",
"k 	c #424242",
"l 	c #343333",
"m 	c #131312",
"n 	c #141515",
"o 	c #161616",
"p 	c #181818",
"q 	c #303030",
"r 	c #585858",
"s 	c #565656",
"t 	c #575757",
"u 	c #545454",
"v 	c #515252",
"w 	c #4F4F4F",
"x 	c #4C4C4C",
"y 	c #484848",
"z 	c #404140",
"A 	c #373736",
"B 	c #040404",
"C 	c #0F1010",
"D 	c #0F0F0F",
"E 	c #141414",
"F 	c #141413",
"G 	c #171718",
"H 	c #1D1C1D",
"I 	c #1A1A1A",
"J 	c #434342",
"K 	c #6F6F6F",
"L 	c #6B6B6B",
"M 	c #6D6D6D",
"N 	c #6E6E6E",
"O 	c #686868",
"P 	c #646465",
"Q 	c #5F605F",
"R 	c #5A5959",
"S 	c #535353",
"T 	c #4E4D4D",
"U 	c #424142",
"V 	c #3C3C3D",
"W 	c #333333",
"X 	c #070707",
"Y 	c #2A2929",
"Z 	c #262627",
"` 	c #1C1C1C",
" .	c #1F1E1E",
"..	c #5F5F5F",
"+.	c #818181",
"@.	c #7F8080",
"#.	c #828282",
"$.	c #848484",
"%.	c #838383",
"&.	c #7E7E7E",
"*.	c #7A7B7B",
"=.	c #757575",
"-.	c #666666",
";.	c #5E5E5E",
">.	c #4E4E4E",
",.	c #464647",
"'.	c #464646",
").	c #414140",
"!.	c #4D4E4E",
"~.	c #202020",
"{.	c #727272",
"].	c #909191",
"^.	c #929292",
"/.	c #959595",
"(.	c #979797",
"_.	c #989898",
":.	c #9A9999",
"<.	c #9B9A9A",
"[.	c #999999",
"}.	c #939394",
"|.	c #8B8B8B",
"1.	c #787878",
"2.	c #656565",
"3.	c #5B5C5B",
"4.	c #525252",
"5.	c #494949",
"6.	c #0C0C0C",
"7.	c #494A49",
"8.	c #616161",
"9.	c #606060",
"0.	c #696969",
"a.	c #4E4F4E",
"b.	c #9B9B9B",
"c.	c #9F9F9F",
"d.	c #A6A6A5",
"e.	c #AFAFAF",
"f.	c #ACACAC",
"g.	c #9C9C9C",
"h.	c #919192",
"i.	c #8F8F8F",
"j.	c #757574",
"k.	c #686969",
"l.	c #5D5D5D",
"m.	c #1B1B1B",
"n.	c #555555",
"o.	c #515151",
"p.	c #626262",
"q.	c #8A8A8A",
"r.	c #909091",
"s.	c #808080",
"t.	c #7C7C7C",
"u.	c #939393",
"v.	c #9FA09F",
"w.	c #A7A7A7",
"x.	c #A3A3A3",
"y.	c #595859",
"z.	c #363535",
"A.	c #353535",
"B.	c #474747",
"C.	c #616160",
"D.	c #717170",
"E.	c #7A7A7A",
"F.	c #777777",
"G.	c #6B6B6C",
"H.	c #4D4D4D",
"I.	c #2D2D2D",
"J.	c #6D6C6C",
"K.	c #737373",
"L.	c #8F908F",
"M.	c #BBBBBB",
"N.	c #CECECE",
"O.	c #CBCBCB",
"P.	c #B8B8B8",
"Q.	c #A4A4A4",
"R.	c #6E6D6E",
"S.	c #2C2C2C",
"T.	c #373837",
"U.	c #363737",
"V.	c #2A2A2A",
"W.	c #292929",
"X.	c #6A696A",
"Y.	c #565555",
"Z.	c #7D7E7D",
"`.	c #DEDEDE",
" +	c #E1E1E1",
".+	c #F0EFEF",
"++	c #F4F5F4",
"@+	c #E6E6E6",
"#+	c #B7B7B7",
"$+	c #9C9C9B",
"%+	c #A8A8A8",
"&+	c #ADADAD",
"*+	c #2B2B2B",
"=+	c #323332",
"-+	c #292B29",
";+	c #1F201F",
">+	c #212321",
",+	c #292A29",
"'+	c #2B2B2A",
")+	c #1F1F1F",
"!+	c #242424",
"~+	c #6C6D6C",
"{+	c #D0D1D0",
"]+	c #B0B0B0",
"^+	c #FDFDFD",
"/+	c #FCFCFC",
"(+	c #D9D9D9",
"_+	c #AEAEAE",
":+	c #ACABAC",
"<+	c #ADACAC",
"[+	c #6F716F",
"}+	c #121313",
"|+	c #1E281E",
"1+	c #304931",
"2+	c #314331",
"3+	c #1C211C",
"4+	c #101110",
"5+	c #1D1D1D",
"6+	c #232322",
"7+	c #232422",
"8+	c #202221",
"9+	c #1C1E1D",
"0+	c #1E1E1E",
"a+	c #484847",
"b+	c #3E3E3F",
"c+	c #909090",
"d+	c #969696",
"e+	c #D4D4D4",
"f+	c #8D8D8D",
"g+	c #FFFFFF",
"h+	c #E5E5E5",
"i+	c #B5B5B5",
"j+	c #B2B2B2",
"k+	c #AFB0AE",
"l+	c #8D938D",
"m+	c #485448",
"n+	c #507B50",
"o+	c #62A062",
"p+	c #5E865E",
"q+	c #637663",
"r+	c #B7BFB6",
"s+	c #ACAEAC",
"t+	c #393A39",
"u+	c #0E110E",
"v+	c #090C09",
"w+	c #141914",
"x+	c #161B17",
"y+	c #171917",
"z+	c #4A4A4B",
"A+	c #B1B1B1",
"B+	c #E0E0E0",
"C+	c #5C5C5C",
"D+	c #BCBDBC",
"E+	c #F4F4F4",
"F+	c #EDEDED",
"G+	c #B8B8B9",
"H+	c #B0B5B1",
"I+	c #889A88",
"J+	c #6C9F6C",
"K+	c #77BD77",
"L+	c #6D7B6D",
"M+	c #484149",
"N+	c #474447",
"O+	c #D3D2D2",
"P+	c #F3F5F3",
"Q+	c #ACB2AC",
"R+	c #3C4A3D",
"S+	c #020C02",
"T+	c #070907",
"U+	c #0E120E",
"V+	c #0F100F",
"W+	c #0A0A0A",
"X+	c #A1A1A1",
"Y+	c #B8B7B8",
"Z+	c #BEBEBE",
"`+	c #B5B4B4",
" @	c #BBBBBC",
".@	c #CCCCCC",
"+@	c #BCBCBC",
"@@	c #BBBCBC",
"#@	c #ABB6AB",
"$@	c #82AA82",
"%@	c #58AE58",
"&@	c #96C596",
"*@	c #828C83",
"=@	c #444D44",
"-@	c #E1DDE1",
";@	c #FCFAFC",
">@	c #F7F6F7",
",@	c #E9F0EA",
"'@	c #6B946B",
")@	c #0D2A0D",
"!@	c #080908",
"~@	c #272827",
"{@	c #878787",
"]@	c #888988",
"^@	c #BCBEBC",
"/@	c #A5B5A5",
"(@	c #77B077",
"_@	c #4EBB4E",
":@	c #43BD43",
"<@	c #42C042",
"[@	c #4AB64A",
"}@	c #63AB63",
"|@	c #ACD1AC",
"1@	c #C7DAC7",
"2@	c #D8DFD8",
"3@	c #E9E8E9",
"4@	c #EAE8EA",
"5@	c #F1E7F1",
"6@	c #C6CEC6",
"7@	c #307B30",
"8@	c #163416",
"9@	c #303830",
"0@	c #4C4E4C",
"a@	c #9A9A9A",
"b@	c #A3A2A2",
"c@	c #B4B4B4",
"d@	c #B9B8B8",
"e@	c #B9BAB9",
"f@	c #A5B2A5",
"g@	c #7AB27A",
"h@	c #4AB84A",
"i@	c #2CB32C",
"j@	c #24B524",
"k@	c #27B928",
"l@	c #33BD32",
"m@	c #39B339",
"n@	c #42A842",
"o@	c #4AA04A",
"p@	c #559F55",
"q@	c #59A159",
"r@	c #67A967",
"s@	c #549C55",
"t@	c #1E721E",
"u@	c #347434",
"v@	c #475847",
"w@	c #4F514F",
"x@	c #535454",
"y@	c #7F7F7F",
"z@	c #707071",
"A@	c #797979",
"B@	c #808081",
"C@	c #898989",
"D@	c #A4ABA5",
"E@	c #8BAF8A",
"F@	c #5EB15E",
"G@	c #33A333",
"H@	c #1FA21F",
"I@	c #16A216",
"J@	c #11A011",
"K@	c #109D10",
"L@	c #109810",
"M@	c #0F900F",
"N@	c #0B860B",
"O@	c #067C06",
"P@	c #017601",
"Q@	c #026602",
"R@	c #126412",
"S@	c #336C33",
"T@	c #4F604F",
"U@	c #4F504F",
"V@	c #7B7B7B",
"W@	c #7B7A7B",
"X@	c #8E8E8E",
"Y@	c #A3A3A4",
"Z@	c #A6A7A6",
"`@	c #A6A6A6",
" #	c #929392",
".#	c #98A798",
"+#	c #7EAC7F",
"@#	c #4E9C4E",
"##	c #2A902A",
"$#	c #168D16",
"%#	c #0B8B0C",
"&#	c #078807",
"*#	c #048204",
"=#	c #037B03",
"-#	c #027202",
";#	c #026802",
">#	c #035D03",
",#	c #095A09",
"'#	c #1C641C",
")#	c #395E39",
"!#	c #4A524A",
"~#	c #454646",
"{#	c #636263",
"]#	c #6C6C6C",
"^#	c #767676",
"/#	c #7D7E7E",
"(#	c #848585",
"_#	c #939494",
":#	c #8C8C8C",
"<#	c #7C7B7B",
"[#	c #9DA09D",
"}#	c #95A395",
"|#	c #7DA27D",
"1#	c #529252",
"2#	c #2E822E",
"3#	c #187818",
"4#	c #0D700D",
"5#	c #096909",
"6#	c #076307",
"7#	c #065C06",
"8#	c #085908",
"9#	c #0E590E",
"0#	c #1D5B1D",
"a#	c #335933",
"b#	c #404D40",
"c#	c #404240",
"d#	c #39393A",
"e#	c #5A5A5A",
"f#	c #6A6A6A",
"g#	c #717171",
"h#	c #858585",
"i#	c #676767",
"j#	c #8A8B8A",
"k#	c #858D85",
"l#	c #778D77",
"m#	c #608760",
"n#	c #467C46",
"o#	c #347234",
"p#	c #29682A",
"q#	c #266526",
"r#	c #266126",
"s#	c #295E29",
"t#	c #305A30",
"u#	c #3A523A",
"v#	c #3F483F",
"w#	c #3C3D3C",
"x#	c #2E2E2E",
"y#	c #434444",
"z#	c #555454",
"A#	c #646464",
"B#	c #6B6C6B",
"C#	c #666767",
"D#	c #505050",
"E#	c #535453",
"F#	c #707170",
"G#	c #6B706B",
"H#	c #626E62",
"I#	c #586958",
"J#	c #506450",
"K#	c #4B5E4B",
"L#	c #445044",
"M#	c #414841",
"N#	c #3E403E",
"O#	c #383938",
"P#	c #2D2D2C",
"Q#	c #282828",
"R#	c #4A4A4A",
"S#	c #5A5A5B",
"T#	c #595858",
"U#	c #4C4D4C",
"V#	c #454544",
"W#	c #343334",
"X#	c #242323",
"Y#	c #3D3E3E",
"Z#	c #3E3D3E",
"`#	c #282929",
" $	c #212121",
".$	c #080808",
"+$	c #3B3A3B",
"@$	c #2D2C2D",
"#$	c #444343",
"$$	c #3B3B3A",
"%$	c #2C2C2D",
"&$	c #29292A",
"*$	c #262626",
"=$	c #222322",
"-$	c #020202",
";$	c #3C3B3C",
">$	c #3D3C3D",
",$	c #333332",
"'$	c #292928",
")$	c #414041",
"!$	c #3B3C3C",
"~$	c #383837",
"{$	c #272727",
"]$	c #242423",
"^$	c #202120",
"/$	c #010101",
"($	c #333233",
"_$	c #2F2F2E",
":$	c #202021",
"<$	c #2F2E2E",
"[$	c #282727",
"}$	c #242324",
"|$	c #393839",
"1$	c #353534",
"2$	c #2F3030",
"3$	c #232324",
"4$	c #222323",
"5$	c #2E2F2F",
"6$	c #252524",
"          . + @ # $ % % % % % % % $ $ $ $ $ $ & @ * = - ; > , ' ",
"        ) ; @ ! $ % % % % % % % ~ $ $ $ $ $ $ $ & * { - ; > , ] ",
"        ^ / * & $ % % % % $ ( _ $ $ $ $ $ $ $ $ : * { - ; > , ] ",
"      < ] * & % [ } % % % $ $ $ _ $ $ $ $ $ $ $ ! * { - ; > , | ",
"      1 2 3 4 5 6 7 % } % % % % % % % % ~ $ $ & @ * 8 - ; > 9 0 ",
"      . a b c b b d e f g h h i i h h j k } [ $ & * 8 2 ; l ] 3 ",
"      . b c m n o p . o q r s r r t s u v w x y h z & { A > ] 3 ",
"    B C D E . E F G H I J K L M N N M L O P Q R S T y U V - W q ",
"    X b Y & U k * Z `  ...+.@.#.$.$.%.+.&.*.=.N -.;.s >.,.% 8 > ",
"    X > x '.% ).!...'.~.{.].^./.(._.:.<.[.}.|.#.1.K 2.3.4.5.k / ",
"    6.7.>.V i 8.9.;.0.a.&.b.c.d.e.f.g.$.{.$.|.h.i.%.j.k.l.u x h ",
"    m.n.o.p.q.r._.b.s.t.u.v.w.x.t.y.% z., A.- B.C.D.E.F.G.;.n.H.",
"    I.J.K.|.L.M.N.O.P.L.u.Q.f.R.S.z.T.U.2 2 A.q V.W.0 h X.R.9.Y.",
"    , %.Z.^.`. +.+++@+#+$+%+&+r *+=+-+;+>+,+3 ] 3 '+a )+!+} 9.9.",
"    { u.~+{+/.>.]+^+/+(+_+:+<+[+I }+|+1+2+3+4+E 5+6+7+8+9+. 0+a+",
"    b+c+d+e+B.; f+g+g+h+i+j+k+l+m+n+o+p+q+r+s+F.t+u+v+w+x+y+d o ",
"    z+i.A+B+C+4.D+@+E+F+G+#+H+I+J+K+L+M+N+O+g+g+P+Q+R+S+T+U+V+W+",
"    >.L.X+Y+e.i+Z+`+ @.@+@@@#@$@%@&@*@=@w -@g+;@>@;@,@'@)@  !@~@",
"    r {@]@[.w.f.<+&+f.j+M.^@/@(@_@:@<@[@}@|@1@2@3@4@5@6@7@8@9@0@",
"    t +.=.$.i.d+a@g.b@c@d@e@f@g@h@i@j@k@l@m@n@o@p@q@r@s@t@u@v@w@",
"    x@y@=.z@A@B@C@u.Q.A+A+c@D@E@F@G@H@I@J@K@L@M@N@O@P@Q@R@S@T@U@",
"    H.K.V@W@V@$.X@a@Y@x.Z@`@ #.#+#@###$#%#&#*#=#-#;#>#,#'#)#!#~#",
"    } {#]#^#/#(#|.c+_#u.[.:#<#[#}#|#1#2#3#4#5#6#7#8#9#0#a#b#c#d#",
"    W 4.e#p.f#g#F.t.&.B@h#M i#c+j#k#l#m#n#o#p#q#r#s#t#u#v#w#A.x#",
"    a y#y >.z#e#..A#2.B#C#D#E#V@E.=.F#G#H#I#J#K#v@L#M#N#O#, P#Q#",
"    . { @ [ j '.5.R#x D#h 2 @ S#l.C+T#u D#U#5.V#} & - W#q S.Q#X#",
"    D A.8 * & $ ~ $ [ Y#q W.I.i '.'.h % Z#@ { - 2 > ] 3 S.`#a  $",
"    .$q - +$@ & & # % - *+Z @$#$j k $ * $$8 - ; > ] 3 %$&$*$=$)+",
"    -$W.; 8 ;$& >$% ( ,$'$a x#k )$% !$$$8 ~$; W ] 3 S.V.{$]$^$0+",
"    /$^ ($2 $$* & } & S.Q#!+_$[ & @ +$8 2 A.W 7 x#S.&${$!+5 ~.5+",
"      :$<$> 8 { q 3 3 W.[$}$x#& * { |$2 1$, 2$x#*+W.{$a 5  $~.0+",
"      )+P#] ; { > W.3$4$^ 5 I.;$8 - ; > ] 5$S.V.Q#*$6$^  $^$~.0+"};
