/* XPM */
static char * nrm_alllips_xpm[] = {
"32 32 652 2",
"  	c #393939",
". 	c #434242",
"+ 	c #4C4C4C",
"@ 	c #545454",
"# 	c #5B5B5B",
"$ 	c #626262",
"% 	c #666666",
"& 	c #6A6A6A",
"* 	c #6E6E6E",
"= 	c #717171",
"- 	c #727171",
"; 	c #747575",
"> 	c #636363",
", 	c #535757",
"' 	c #848D8E",
") 	c #8E9596",
"! 	c #7E8080",
"~ 	c #848484",
"{ 	c #8E8E8E",
"] 	c #939393",
"^ 	c #A5A5A5",
"/ 	c #AEAEAE",
"( 	c #ACACAC",
"_ 	c #A9A9A9",
": 	c #A6A6A6",
"< 	c #ADADAD",
"[ 	c #B0B0B0",
"} 	c #B1B1B1",
"| 	c #B4B4B4",
"1 	c #333434",
"2 	c #3E3E3E",
"3 	c #484848",
"4 	c #505050",
"5 	c #575757",
"6 	c #5E5E5E",
"7 	c #676868",
"8 	c #6B6C6C",
"9 	c #6F6F6F",
"0 	c #727272",
"a 	c #555A5B",
"b 	c #899394",
"c 	c #868B8C",
"d 	c #797A7A",
"e 	c #909090",
"f 	c #949494",
"g 	c #A1A1A1",
"h 	c #AAAAAA",
"i 	c #A4A4A4",
"j 	c #B2B2B2",
"k 	c #ABABAB",
"l 	c #A2A2A2",
"m 	c #2D2E2E",
"n 	c #454545",
"o 	c #4D4D4D",
"p 	c #5A5A5A",
"q 	c #616161",
"r 	c #656565",
"s 	c #686969",
"t 	c #808080",
"u 	c #E9E9E9",
"v 	c #DBDBDB",
"w 	c #393A3A",
"x 	c #555B5B",
"y 	c #848E8E",
"z 	c #A5A9AA",
"A 	c #EAEAEA",
"B 	c #868686",
"C 	c #989898",
"D 	c #A3A3A3",
"E 	c #C6C6C6",
"F 	c #F1F1F1",
"G 	c #9D9D9D",
"H 	c #292929",
"I 	c #363636",
"J 	c #424242",
"K 	c #4B4B4B",
"L 	c #525252",
"M 	c #595959",
"N 	c #5F5F5F",
"O 	c #646565",
"P 	c #686868",
"Q 	c #C1C1C1",
"R 	c #F9F9F9",
"S 	c #FFFFFF",
"T 	c #737374",
"U 	c #595D5E",
"V 	c #7B8484",
"W 	c #AEB0B0",
"X 	c #898989",
"Y 	c #959595",
"Z 	c #999999",
"` 	c #9F9F9F",
" .	c #CDCDCD",
"..	c #A8A8A8",
"+.	c #A0A0A0",
"@.	c #242424",
"#.	c #323232",
"$.	c #494949",
"%.	c #515151",
"&.	c #565656",
"*.	c #616262",
"=.	c #676767",
"-.	c #E0E0E0",
";.	c #D7D7D7",
">.	c #E8E8E8",
",.	c #C3C4C4",
"'.	c #595F5F",
").	c #6E7574",
"!.	c #A9ABAB",
"~.	c #8D8D8D",
"{.	c #969696",
"].	c #CBCBCB",
"^.	c #A7A7A7",
"/.	c #9C9C9C",
"(.	c #202020",
"_.	c #2D2D2D",
":.	c #464646",
"<.	c #4E4F4F",
"[.	c #555656",
"}.	c #5C5C5C",
"|.	c #EDEDED",
"1.	c #585F5F",
"2.	c #616767",
"3.	c #A5A6A6",
"4.	c #9E9E9E",
"5.	c #9B9B9B",
"6.	c #979797",
"7.	c #1C1C1C",
"8.	c #282828",
"9.	c #343434",
"0.	c #404040",
"a.	c #535454",
"b.	c #585858",
"c.	c #C3C3C3",
"d.	c #8B8C8C",
"e.	c #AFB1B2",
"f.	c #525858",
"g.	c #9FA0A0",
"h.	c #919191",
"i.	c #CACACA",
"j.	c #929292",
"k.	c #1B1B1B",
"l.	c #232323",
"m.	c #2F2F2F",
"n.	c #3B3B3B",
"o.	c #474747",
"p.	c #4F4F4F",
"q.	c #ECECEC",
"r.	c #D0D1D1",
"s.	c #383A3A",
"t.	c #777777",
"u.	c #7F7F7F",
"v.	c #8F8F8F",
"w.	c #1B1C1C",
"x.	c #2A2A2A",
"y.	c #353535",
"z.	c #414141",
"A.	c #737373",
"B.	c #161515",
"C.	c #161717",
"D.	c #A2A4A4",
"E.	c #F7F7F7",
"F.	c #838383",
"G.	c #3F4040",
"H.	c #C2C2C2",
"I.	c #8B8B8B",
"J.	c #1D1D1D",
"K.	c #181818",
"L.	c #212121",
"M.	c #2E2E2E",
"N.	c #444444",
"O.	c #4E4E4E",
"P.	c #D0D0D0",
"Q.	c #2C2C2C",
"R.	c #8A8A8A",
"S.	c #1F2121",
"T.	c #161616",
"U.	c #707070",
"V.	c #636262",
"W.	c #4A4949",
"X.	c #524F4F",
"Y.	c #535151",
"Z.	c #595858",
"`.	c #7B7B7B",
" +	c #757574",
".+	c #A8A8A7",
"++	c #B2B2B0",
"@+	c #AFAFAF",
"#+	c #B9B9B9",
"$+	c #B8B9B8",
"%+	c #B7B7B7",
"&+	c #8C8C8C",
"*+	c #232424",
"=+	c #1A1A1A",
"-+	c #3A3A3A",
";+	c #504C4C",
">+	c #614C4C",
",+	c #774848",
"'+	c #864545",
")+	c #7B4F4F",
"!+	c #6D6261",
"~+	c #6E6E67",
"{+	c #767667",
"]+	c #828268",
"^+	c #8D8D69",
"/+	c #99996D",
"(+	c #A4A474",
"_+	c #ADAD7E",
":+	c #B0B08A",
"<+	c #AEAE95",
"[+	c #A1A999",
"}+	c #96AB95",
"|+	c #99A998",
"1+	c #9CA09C",
"2+	c #888888",
"3+	c #292C2C",
"4+	c #2B2B2B",
"5+	c #373535",
"6+	c #4D3C3C",
"7+	c #773838",
"8+	c #AA2828",
"9+	c #C81E1E",
"0+	c #CC1D1D",
"a+	c #AE3331",
"b+	c #8A6B4B",
"c+	c #9C9C46",
"d+	c #BBBB33",
"e+	c #C7C72F",
"f+	c #D0D02B",
"g+	c #D6D629",
"h+	c #DCDC2B",
"i+	c #E1E12E",
"j+	c #E0E037",
"k+	c #D6D84B",
"l+	c #A4CC66",
"m+	c #64D651",
"n+	c #5CD057",
"o+	c #77B776",
"p+	c #8BA08B",
"q+	c #909490",
"r+	c #8E8F8E",
"s+	c #303232",
"t+	c #212122",
"u+	c #1A1B1B",
"v+	c #2C2929",
"w+	c #4C2C2C",
"x+	c #902222",
"y+	c #C91313",
"z+	c #E10D0D",
"A+	c #DE1010",
"B+	c #DA1514",
"C+	c #BA3F29",
"D+	c #B79F2D",
"E+	c #D6D41C",
"F+	c #ECEC0E",
"G+	c #F1F10C",
"H+	c #F0F00D",
"I+	c #F1F10E",
"J+	c #F3F30F",
"K+	c #F4F411",
"L+	c #F4F413",
"M+	c #ECF01E",
"N+	c #9CEA2A",
"O+	c #31F218",
"P+	c #19F314",
"Q+	c #24E723",
"R+	c #42CD42",
"S+	c #70A970",
"T+	c #869587",
"U+	c #8D8E8E",
"V+	c #373939",
"W+	c #262727",
"X+	c #211E1E",
"Y+	c #402323",
"Z+	c #911B1B",
"`+	c #D90B0B",
" @	c #DD0C0C",
".@	c #C91414",
"+@	c #BC1B1B",
"@@	c #D71712",
"#@	c #D06118",
"$@	c #E0CE12",
"%@	c #C6C624",
"&@	c #C8C827",
"*@	c #C9C929",
"=@	c #C3C332",
"-@	c #C1C139",
";@	c #C2C23F",
">@	c #C6C644",
",@	c #D2D23F",
"'@	c #DCDE33",
")@	c #A4E922",
"!@	c #2CF50F",
"~@	c #0FF70B",
"{@	c #0DF40D",
"]@	c #0EF20E",
"^@	c #27DF27",
"/@	c #5DB45D",
"(@	c #879287",
"_@	c #3E4243",
":@	c #2D2F2F",
"<@	c #1E2020",
"[@	c #281B1B",
"}@	c #6A1A1A",
"|@	c #C10F0F",
"1@	c #DA0C0C",
"2@	c #B71E1E",
"3@	c #863131",
"4@	c #9F2323",
"5@	c #D51810",
"6@	c #DF720E",
"7@	c #F3E706",
"8@	c #B7B724",
"9@	c #78784F",
"0@	c #79795A",
"a@	c #787964",
"b@	c #7A7B6F",
"c@	c #7C7C70",
"d@	c #7A7A6F",
"e@	c #8A8A67",
"f@	c #C1C13C",
"g@	c #B0ED15",
"h@	c #2EF50B",
"i@	c #1FEC14",
"j@	c #29D828",
"k@	c #13EE13",
"l@	c #0BF60B",
"m@	c #22E322",
"n@	c #62AD62",
"o@	c #7D957D",
"p@	c #484C4D",
"q@	c #333636",
"r@	c #2D1B1B",
"s@	c #851313",
"t@	c #CF0B0B",
"u@	c #B91717",
"v@	c #7A3B3C",
"w@	c #6B4B4B",
"x@	c #A52D2D",
"y@	c #D71A13",
"z@	c #E27110",
"A@	c #F6E805",
"B@	c #C0BE23",
"C@	c #6E6E5D",
"D@	c #6F6F6D",
"E@	c #757776",
"F@	c #7D7D7D",
"G@	c #797979",
"H@	c #838373",
"I@	c #C8C83C",
"J@	c #C1F40E",
"K@	c #2FF809",
"L@	c #29EC19",
"M@	c #6AB364",
"N@	c #4FC44E",
"O@	c #1AEB1A",
"P@	c #0AF70A",
"Q@	c #32D532",
"R@	c #5DAE5D",
"S@	c #858686",
"T@	c #4F5353",
"U@	c #393D3D",
"V@	c #262929",
"W@	c #301C1C",
"X@	c #7A1414",
"Y@	c #BE0E0E",
"Z@	c #A51919",
"`@	c #693636",
" #	c #633E3E",
".#	c #A92525",
"+#	c #D81712",
"@#	c #DF6C10",
"##	c #F7E605",
"$#	c #C9C821",
"%#	c #77775F",
"&#	c #717170",
"*#	c #797878",
"=#	c #818181",
"-#	c #8F8F8E",
";#	c #9A9A8B",
">#	c #D0D042",
",#	c #C8F60D",
"'#	c #37F80A",
")#	c #26EF17",
"!#	c #79B36F",
"~#	c #8A9C8A",
"{#	c #48C848",
"]#	c #0EF40E",
"^#	c #19E919",
"/#	c #43C643",
"(#	c #535A59",
"_#	c #3F4444",
":#	c #292D2D",
"<#	c #281E1E",
"[#	c #511818",
"}#	c #9C1212",
"|#	c #B11313",
"1#	c #882222",
"2#	c #693232",
"3#	c #A82020",
"4#	c #D71410",
"5#	c #D56113",
"6#	c #F1E007",
"7#	c #C7C620",
"8#	c #747459",
"9#	c #6C6C6B",
"0#	c #7C7C7C",
"a#	c #97978B",
"b#	c #CCCC46",
"c#	c #CCF60D",
"d#	c #3FF70A",
"e#	c #25EE16",
"f#	c #6FAE68",
"g#	c #8A918A",
"h#	c #58B858",
"i#	c #11F011",
"j#	c #3BCB3B",
"k#	c #858484",
"l#	c #5A5F60",
"m#	c #45494B",
"n#	c #2E3131",
"o#	c #221F1F",
"p#	c #2E1C1C",
"q#	c #671B1B",
"r#	c #A61313",
"s#	c #AC1515",
"t#	c #922121",
"u#	c #B31A1A",
"v#	c #DA100E",
"w#	c #C75218",
"x#	c #DFCF0F",
"y#	c #B3B329",
"z#	c #787853",
"A#	c #767660",
"B#	c #7E7E67",
"C#	c #86866F",
"D#	c #8C8C76",
"E#	c #93937D",
"F#	c #9A9A7C",
"G#	c #C3C34D",
"H#	c #D7F212",
"I#	c #65F30F",
"J#	c #33E71D",
"K#	c #63B25E",
"L#	c #66A966",
"M#	c #1FE41F",
"N#	c #4ABD4A",
"O#	c #626566",
"P#	c #4B4E51",
"Q#	c #323535",
"R#	c #1F2020",
"S#	c #201E1E",
"T#	c #392222",
"U#	c #6E1F1F",
"V#	c #A51616",
"W#	c #BA1414",
"X#	c #CD1111",
"Y#	c #DF0D0C",
"Z#	c #B24420",
"`#	c #B9B021",
" $	c #AEAE2C",
".$	c #A9A935",
"+$	c #B7B732",
"@$	c #C9C92B",
"#$	c #D4D427",
"$$	c #D6D62A",
"%$	c #D7D72F",
"&$	c #CFCF3A",
"*$	c #D6D634",
"=$	c #E1EE16",
"-$	c #80EF14",
";$	c #32E71D",
">$	c #33D632",
",$	c #28DE28",
"'$	c #13EF13",
")$	c #43C443",
"!$	c #69A26A",
"~$	c #828282",
"{$	c #727273",
"]$	c #505455",
"^$	c #343737",
"/$	c #262424",
"($	c #3C2626",
"_$	c #6E2323",
":$	c #A81919",
"<$	c #CE0F0F",
"[$	c #D5100F",
"}$	c #963E2B",
"|$	c #9C962E",
"1$	c #BABA24",
"2$	c #CFCF1E",
"3$	c #E2E215",
"4$	c #F7F708",
"5$	c #F7F709",
"6$	c #F7F70A",
"7$	c #F0F012",
"8$	c #E5E521",
"9$	c #D8E126",
"0$	c #77E422",
"a$	c #1AF013",
"b$	c #0FF30F",
"c$	c #12F012",
"d$	c #20E420",
"e$	c #41C741",
"f$	c #749B74",
"g$	c #828A81",
"h$	c #575A5A",
"i$	c #353838",
"j$	c #222222",
"k$	c #2A2828",
"l$	c #3F2D2D",
"m$	c #602B2B",
"n$	c #872525",
"o$	c #8C2A29",
"p$	c #65473F",
"q$	c #757540",
"r$	c #ADAD2B",
"s$	c #CBCB1F",
"t$	c #D1D120",
"u$	c #D5D522",
"v$	c #DADA23",
"w$	c #DDDD25",
"x$	c #E0E024",
"y$	c #DEDE28",
"z$	c #D1D13A",
"A$	c #BFC649",
"B$	c #6DC944",
"C$	c #25E422",
"D$	c #25E125",
"E$	c #41CA41",
"F$	c #60AF61",
"G$	c #7A977B",
"H$	c #878987",
"I$	c #858585",
"J$	c #A19FA0",
"K$	c #676768",
"L$	c #3B3E3E",
"M$	c #222424",
"N$	c #1E1E1E",
"O$	c #262626",
"P$	c #2E2D2D",
"Q$	c #383434",
"R$	c #463939",
"S$	c #4C4040",
"T$	c #4C4948",
"U$	c #57574C",
"V$	c #757546",
"W$	c #878744",
"X$	c #8B8B4E",
"Y$	c #8D8D5A",
"Z$	c #939364",
"`$	c #989870",
" %	c #A1A16E",
".%	c #A6A66D",
"+%	c #A4A472",
"@%	c #9D9D7B",
"#%	c #829F78",
"$%	c #65AE65",
"%%	c #6DA96D",
"&%	c #809580",
"*%	c #878C87",
"=%	c #878988",
"-%	c #757575",
";%	c #A5A4A4",
">%	c #848383",
",%	c #474949",
"'%	c #252626",
")%	c #191919",
"!%	c #3A3939",
"~%	c #575755",
"{%	c #60605B",
"]%	c #676763",
"^%	c #72726F",
"/%	c #7C7C7B",
"(%	c #8E8E8C",
"_%	c #8E8E8B",
":%	c #8D8D8C",
"<%	c #8C8D8B",
"[%	c #8A8F8A",
"}%	c #8A8E8A",
"|%	c #898A89",
"1%	c #7A7A7A",
"2%	c #6C6C6C",
"3%	c #A4A3A4",
"4%	c #999798",
"5%	c #272727",
"6%	c #373737",
"7%	c #535353",
"8%	c #808081",
"9%	c #79797A",
"0%	c #6D6D6D",
"a%	c #A4A3A3",
"b%	c #9F9E9E",
"c%	c #8A8989",
"d%	c #1F1F1F",
"e%	c #161617",
"f%	c #3D3D3D",
"g%	c #787878",
"h%	c #898888",
"i%	c #A4A2A2",
"j%	c #9F9D9D",
"k%	c #9E9C9C",
"l%	c #7A7878",
"m%	c #383838",
"n%	c #878787",
"o%	c #767676",
"p%	c #696969",
"q%	c #5C5B5B",
"r%	c #767575",
"s%	c #A09E9E",
"t%	c #A2A1A2",
"u%	c #9D9C9D",
"v%	c #373637",
"w%	c #252525",
"x%	c #303030",
"y%	c #606060",
"z%	c #636464",
"A%	c #555555",
"B%	c #6B6A6B",
"C%	c #949394",
"D%	c #9C9A9B",
"E%	c #989697",
"F%	c #7A797A",
"G%	c #4D4C4D",
"H%	c #2D2C2D",
"I%	c #232222",
"J%	c #646464",
"K%	c #747474",
"L%	c #6B6B6B",
"M%	c #777676",
"N%	c #959494",
"O%	c #9F9E9F",
"P%	c #9B9A9B",
"Q%	c #908F90",
"R%	c #767576",
"S%	c #565556",
"T%	c #2C2D2D",
"U%	c #262828",
"V%	c #333333",
"W%	c #666566",
"X%	c #777677",
"Y%	c #8E8D8E",
"Z%	c #A3A2A3",
"`%	c #787979",
" &	c #6C7373",
".&	c #434647",
"+&	c #242425",
"@&	c #313131",
"#&	c #4A4A4A",
"$&	c #6F7070",
"%&	c #6C6D6D",
"&&	c #999899",
"  . + @ # $ % & * = - ; > , ' ) ! ~ { ] ^ / ( _ : _ < [ } | } _ ",
"1 2 3 4 5 6 > 7 8 9 0 = 4 a b c d ~ e f g h : i ^ ( j | | } k l ",
"m   n o @ p q r s t u v w x y z A B ] C D E F l i h / / / k ^ G ",
"H I J K L M N O P Q R S T U V W S X Y Z `  .S D : ..h h _ ^ +.Z ",
"@.#.2 $.%.&.6 *.=.-.;.>.,.'.).!.S ~.Z {.{.].S i : : ^.: ^ +./.Y ",
"(._.  :.<.[.}.N X S Z _ |.1.2.3.S ] 4.f ] ].S ^ i i i g ` 5.6.] ",
"7.8.9.0.K a.b.N c.R d.^ S e.f.g.S ~.5.h.h.i.S ^ D +.` G 5.{.j.e ",
"k.l.m.n.o.p.&.}.q.S S S S r.s.e S O t.u.X E S D ` 4.5.Z Y j.v.{ ",
"w.7.x.y.z.$.L e S A.B.C.D.E.  F.S G.p.6 A.H.S +.G 5.C f j.v.~.I.",
"J.K.L.M.  N.O.P.A M.Q.m.O.S h f S S S S q.E S S S S S ] v.{ I.R.",
"S.T.J.8.9.2 $.U.V.W.X.Y.Z.`.t. +C 4..+++@+..#+$+%+| [ j.v.&+R.X ",
"*+K.=+@.m.-+N.;+>+,+'+)+!+~+{+]+^+/+(+_+:+<+[+}+|+1+6.j.v.~.R.2+",
"3+w.=+L.4+5+6+7+8+9+0+a+b+c+d+e+f+g+h+i+j+k+l+m+n+o+p+q+r+~.R.2+",
"s+t+u+(.v+w+x+y+z+A+B+C+D+E+F+G+H+I+J+K+L+M+N+O+P+Q+R+S+T+U+R.X ",
"V+W+w.X+Y+Z+`+ @.@+@@@#@$@%@&@*@=@-@;@>@,@'@)@!@~@{@]@^@/@(@I.2+",
"_@:@<@[@}@|@1@2@3@4@5@6@7@8@9@0@a@b@c@d@e@f@g@h@i@j@k@l@m@n@o@2+",
"p@q@@.r@s@t@u@v@w@x@y@z@A@B@C@D@E@F@u.G@H@I@J@K@L@M@N@O@P@Q@R@S@",
"T@U@V@W@X@Y@Z@`@ #.#+#@###$#%#&#*#=#R.-#;#>#,#'#)#!#~#{#]#^#/#S@",
"(#_#:#<#[#}#|#1#2#3#4#5#6#7#8#9#A.0#B { a#b#c#d#e#f#g#h#i#k@j#k#",
"l#m#n#o#p#q#r#s#t#u#v#w#x#y#z#A#B#C#D#E#F#G#H#I#J#K#L#Q@l@M#N#~ ",
"O#P#Q#R#S#T#U#V#W#X#Y#Z#`# $.$+$@$#$$$%$&$*$=$-$;$>$,$k@'$)$!$~$",
"{$]$^$R#J./$($_$:$<$[$}$|$1$2$3$G+4$5$6$7$8$9$0$a$b$c$d$e$f$g$t ",
"R.h$i$R#=+j$k$l$m$n$o$p$q$r$s$t$u$v$w$x$y$z$A$B$C$D$E$F$G$H$I$F@",
"J$K$L$M$=+N$O$P$Q$R$S$T$U$V$W$X$Y$Z$`$ %.%+%@%#%$%%%&%*%=%B =#-%",
";%>%,%'%)%k.j$x.#.!%J 3 p.~%{%]%^%/%F.I.(%_%:%<%[%}%|%X B F.1%2%",
"3%4%> m.=+T.N$5%m.6%0.o.O.7%# r U.1%F.2+&+~.&+&+&+R.X B 8%9%* 0%",
"a%b%c%+ d%e%K.(.x.y.f%:.o @ }.% U.1%=#2+R.I.I.I.R.2+I$u.g%0%> h%",
"i%j%k%l%  =+T.=+j$_.m%z.$.%.p r 9 t.t I$2+X R.X n%F.u.o%p%q%r%s%",
"t%u%u%6.2%v%N$)%k.w%x%-+J + &.y%& 0 1%u.~$~ ~ ~$t F@-%z%A%B%C%t%",
"J$D%D%D%E%F%G%H%d%7.I%m.-+N.O.p J%2%A.g%`.0#1%t.K%L%N # M%N%D%J$",
"O%P%P%P%P%P%Q%R%S%-+T%U%x.V%0.+ 5 6 $ % =.=.P =.y%W%X%Y%P%P%P%O%",
"Z%O%O%O%O%O%O%O%P%`% &.&+&j$8.@&  2 N.#&4 y%$&%&9 &&O%O%O%O%O%Z%"};
