/* XPM */
static char * nrm_lfhand_xpm[] = {
"32 32 527 2",
"  	c #C3C3C3",
". 	c #C2C2C2",
"+ 	c #BCBCBC",
"@ 	c #B2B2B1",
"# 	c #9F9FA0",
"$ 	c #7E7E7E",
"% 	c #B5B4B4",
"& 	c #BEBDBD",
"* 	c #C0BFBF",
"= 	c #C3C2C2",
"- 	c #BDBDBD",
"; 	c #BFBFBF",
"> 	c #B9B9B9",
", 	c #AFAFAF",
"' 	c #A2A2A2",
") 	c #868687",
"! 	c #646463",
"~ 	c #B0B0AF",
"{ 	c #BABAB9",
"] 	c #BCBCBB",
"^ 	c #BEBEBD",
"/ 	c #B4B4B4",
"( 	c #AEAEAE",
"_ 	c #A4A4A4",
": 	c #9D9D9D",
"< 	c #878787",
"[ 	c #5F5F5F",
"} 	c #666666",
"| 	c #B1B1B0",
"1 	c #BBBBBA",
"2 	c #ADADAD",
"3 	c #A6A6A6",
"4 	c #9C9C9C",
"5 	c #8F8F8F",
"6 	c #808080",
"7 	c #636463",
"8 	c #515151",
"9 	c #787778",
"0 	c #B0B0B0",
"a 	c #B8B8B8",
"b 	c #B8B9B8",
"c 	c #B2B8B2",
"d 	c #B1B8B1",
"e 	c #B3B7B3",
"f 	c #B6B9B6",
"g 	c #A8BAA8",
"h 	c #9BBA9B",
"i 	c #8DB78D",
"j 	c #8DAE8D",
"k 	c #B1B4B1",
"l 	c #ACACAC",
"m 	c #959596",
"n 	c #848484",
"o 	c #747474",
"p 	c #646464",
"q 	c #595959",
"r 	c #5E5C5E",
"s 	c #8C9B8C",
"t 	c #91B891",
"u 	c #88C487",
"v 	c #78C778",
"w 	c #65C965",
"x 	c #5FCA5F",
"y 	c #60C960",
"z 	c #68C668",
"A 	c #6FC96F",
"B 	c #72CB72",
"C 	c #74CB74",
"D 	c #6ACD6A",
"E 	c #5ED95E",
"F 	c #53DC53",
"G 	c #37D837",
"H 	c #0CBC0C",
"I 	c #438942",
"J 	c #B7B7B6",
"K 	c #B9B9B8",
"L 	c #A9A9AA",
"M 	c #ABABAB",
"N 	c #9E9F9E",
"O 	c #8A8A8A",
"P 	c #797979",
"Q 	c #676767",
"R 	c #585858",
"S 	c #565156",
"T 	c #597559",
"U 	c #51D051",
"V 	c #4ED74E",
"W 	c #55D655",
"X 	c #53D253",
"Y 	c #4DCB4D",
"Z 	c #48C848",
"` 	c #46D146",
" .	c #45D945",
"..	c #45D745",
"+.	c #43D743",
"@.	c #3FD33F",
"#.	c #37C837",
"$.	c #28C728",
"%.	c #0FC10F",
"&.	c #02A602",
"*.	c #027902",
"=.	c #236023",
"-.	c #A09F9F",
";.	c #B2B1B1",
">.	c #B8B7B7",
",.	c #BBBABA",
"'.	c #A5A5A5",
").	c #A1A1A1",
"!.	c #929292",
"~.	c #7F7F7F",
"{.	c #6D6D6D",
"].	c #5A5A5A",
"^.	c #4E4A4E",
"/.	c #485549",
"(.	c #33B733",
"_.	c #23D623",
":.	c #2FCF2F",
"<.	c #31CA31",
"[.	c #2CC22C",
"}.	c #25B725",
"|.	c #21B021",
"1.	c #1BB41B",
"2.	c #12B912",
"3.	c #00B000",
"4.	c #00A000",
"5.	c #008E00",
"6.	c #007500",
"7.	c #006C00",
"8.	c #015C01",
"9.	c #014801",
"0.	c #0A400B",
"a.	c #697768",
"b.	c #9B9A99",
"c.	c #AFAEAD",
"d.	c #B7B6B5",
"e.	c #BAB9B8",
"f.	c #969696",
"g.	c #6E6E6E",
"h.	c #606060",
"i.	c #4F4B4F",
"j.	c #4A4C4A",
"k.	c #34A934",
"l.	c #09D309",
"m.	c #0ACA0A",
"n.	c #0CC00C",
"o.	c #0BB80B",
"p.	c #09B009",
"q.	c #06A606",
"r.	c #019C01",
"s.	c #019101",
"t.	c #018301",
"u.	c #005D00",
"v.	c #004100",
"w.	c #013F01",
"x.	c #114411",
"y.	c #194719",
"z.	c #254C25",
"A.	c #425E41",
"B.	c #788077",
"C.	c #939392",
"D.	c #A3A3A2",
"E.	c #B5B5B4",
"F.	c #7C7C7C",
"G.	c #727272",
"H.	c #595858",
"I.	c #504D50",
"J.	c #504C50",
"K.	c #4AA94A",
"L.	c #0ACE0A",
"M.	c #00BB00",
"N.	c #00B500",
"O.	c #01B201",
"P.	c #02AD02",
"Q.	c #01A601",
"R.	c #01A001",
"S.	c #019401",
"T.	c #017F01",
"U.	c #006000",
"V.	c #083D08",
"W.	c #476047",
"X.	c #717B71",
"Y.	c #888A88",
"Z.	c #919190",
"`.	c #949493",
" +	c #969695",
".+	c #9C9C9B",
"++	c #A5A5A4",
"@+	c #AEAEAD",
"#+	c #B3B3B2",
"$+	c #B4B4B3",
"%+	c #B8B8B7",
"&+	c #555554",
"*+	c #4D4C4C",
"=+	c #484448",
"-+	c #515051",
";+	c #54AA54",
">+	c #13CB13",
",+	c #01AD01",
"'+	c #02AA02",
")+	c #01A701",
"!+	c #00A400",
"~+	c #019D01",
"{+	c #009200",
"]+	c #007C00",
"^+	c #005100",
"/+	c #3B5A3B",
"(+	c #8B8B8A",
"_+	c #989897",
":+	c #A6A6A5",
"<+	c #A8A8A8",
"[+	c #ABABAA",
"}+	c #ADADAC",
"|+	c #807F7F",
"1+	c #444444",
"2+	c #443F44",
"3+	c #4E594E",
"4+	c #4EB44E",
"5+	c #11CC11",
"6+	c #00B100",
"7+	c #01AF01",
"8+	c #01AC01",
"9+	c #00A900",
"0+	c #00A700",
"a+	c #00A300",
"b+	c #019E01",
"c+	c #009800",
"d+	c #008500",
"e+	c #005900",
"f+	c #5D705D",
"g+	c #959495",
"h+	c #A7A5A6",
"i+	c #AFADAE",
"j+	c #B1AFB0",
"k+	c #B2B0B1",
"l+	c #B6B4B5",
"m+	c #797779",
"n+	c #4B614B",
"o+	c #37AD37",
"p+	c #06C406",
"q+	c #00BC00",
"r+	c #01B101",
"s+	c #00AE00",
"t+	c #00AA00",
"u+	c #00A800",
"v+	c #00A600",
"w+	c #00A100",
"x+	c #009500",
"y+	c #007800",
"z+	c #547554",
"A+	c #9A9A9A",
"B+	c #B3B1B1",
"C+	c #AAA8A8",
"D+	c #5E895D",
"E+	c #00B800",
"F+	c #01B501",
"G+	c #00B200",
"H+	c #00B300",
"I+	c #00B400",
"J+	c #00AC00",
"K+	c #00AB00",
"L+	c #00A200",
"M+	c #167E15",
"N+	c #8F938D",
"O+	c #B0AEAE",
"P+	c #B4B2B2",
"Q+	c #AEACAC",
"R+	c #919E90",
"S+	c #049304",
"T+	c #01B701",
"U+	c #00B600",
"V+	c #00B700",
"W+	c #3B7F3A",
"X+	c #A19F9F",
"Y+	c #ADABAB",
"Z+	c #AFADAD",
"`+	c #B1B0B0",
" @	c #ADACAC",
".@	c #ABAAAA",
"+@	c #4C874B",
"@@	c #009B00",
"#@	c #01AE01",
"$@	c #00B900",
"%@	c #01BB01",
"&@	c #02B802",
"*@	c #039503",
"=@	c #758B74",
"-@	c #A5A4A4",
";@	c #ACABAB",
">@	c #B0AFAF",
",@	c #9DA19D",
"'@	c #1F7D1F",
")@	c #009E00",
"!@	c #00BD00",
"~@	c #01BE01",
"{@	c #05BE05",
"]@	c #04BC04",
"^@	c #1C8B1B",
"/@	c #8C958B",
"(@	c #A8A7A7",
"_@	c #AEADAE",
":@	c #AAA9AA",
"<@	c #A8A7A8",
"[@	c #8C968C",
"}@	c #128012",
"|@	c #00BA00",
"1@	c #00BE00",
"2@	c #00C000",
"3@	c #04BE04",
"4@	c #06B506",
"5@	c #04B404",
"6@	c #05BC05",
"7@	c #06B806",
"8@	c #239623",
"9@	c #849584",
"0@	c #A6A5A6",
"a@	c #A9A8A9",
"b@	c #ADACAD",
"c@	c #7B8E7B",
"d@	c #078D08",
"e@	c #02BA02",
"f@	c #06BE06",
"g@	c #04BB04",
"h@	c #009A00",
"i@	c #07BF07",
"j@	c #0EBD0E",
"k@	c #1FA01F",
"l@	c #769376",
"m@	c #A4A3A4",
"n@	c #A7A6A6",
"o@	c #A3A2A2",
"p@	c #60875F",
"q@	c #009F00",
"r@	c #02B702",
"s@	c #05AE05",
"t@	c #02AC02",
"u@	c #10B510",
"v@	c #20AF20",
"w@	c #5F945F",
"x@	c #9FA09E",
"y@	c #A6A5A5",
"z@	c #A1A0A0",
"A@	c #338333",
"B@	c #03BA03",
"C@	c #00AD00",
"D@	c #008D00",
"E@	c #008000",
"F@	c #106110",
"G@	c #008A00",
"H@	c #11D011",
"I@	c #21C621",
"J@	c #3FA33F",
"K@	c #829982",
"L@	c #AAA9A9",
"M@	c #929891",
"N@	c #1B931B",
"O@	c #00C200",
"P@	c #018D01",
"Q@	c #008900",
"R@	c #2A7529",
"S@	c #3D6F3D",
"T@	c #008700",
"U@	c #09CC09",
"V@	c #20CC20",
"W@	c #26C026",
"X@	c #439E43",
"Y@	c #849783",
"Z@	c #A2A2A1",
"`@	c #A9A8A8",
" #	c #A2A1A1",
".#	c #669166",
"+#	c #00C600",
"@#	c #016F01",
"##	c #1D6F1D",
"$#	c #078B07",
"%#	c #00A500",
"&#	c #009C00",
"*#	c #497B48",
"=#	c #607A5F",
"-#	c #0C770C",
";#	c #009D00",
">#	c #00CD00",
",#	c #0A8D0A",
"'#	c #588558",
")#	c #9F9E9E",
"!#	c #A4A3A3",
"~#	c #A7A7A7",
"{#	c #A3A3A3",
"]#	c #849A84",
"^#	c #06C306",
"/#	c #157715",
"(#	c #177D17",
"_#	c #3E733E",
":#	c #598259",
"<#	c #7F867F",
"[#	c #2C732C",
"}#	c #007D00",
"|#	c #009100",
"1#	c #008B00",
"2#	c #006300",
"3#	c #3B673B",
"4#	c #9F9F9F",
"5#	c #A3A1A2",
"6#	c #9B9D9A",
"7#	c #2BB52B",
"8#	c #00C300",
"9#	c #088408",
"0#	c #437242",
"a#	c #497749",
"b#	c #337C33",
"c#	c #00C400",
"d#	c #03BF03",
"e#	c #05A305",
"f#	c #5D855C",
"g#	c #8F8D8E",
"h#	c #677C66",
"i#	c #1F601E",
"j#	c #025802",
"k#	c #2B552B",
"l#	c #6B736A",
"m#	c #9E9C9D",
"n#	c #4CA24C",
"o#	c #07CC07",
"p#	c #4F704E",
"q#	c #238B23",
"r#	c #0A8E0A",
"s#	c #6F7E6F",
"t#	c #218321",
"u#	c #09BA09",
"v#	c #06B606",
"w#	c #278D27",
"x#	c #868B85",
"y#	c #8D8C8C",
"z#	c #727B72",
"A#	c #80807F",
"B#	c #888888",
"C#	c #969595",
"D#	c #9E9D9D",
"E#	c #A09E9F",
"F#	c #569856",
"G#	c #07C607",
"H#	c #3A6E3A",
"I#	c #637D62",
"J#	c #337C32",
"K#	c #80847F",
"L#	c #138513",
"M#	c #196B19",
"N#	c #8B8D8A",
"O#	c #959394",
"P#	c #989697",
"Q#	c #9D9C9D",
"R#	c #9F9D9E",
"S#	c #669466",
"T#	c #00BF00",
"U#	c #136913",
"V#	c #848383",
"W#	c #268726",
"X#	c #019701",
"Y#	c #597C58",
"Z#	c #788478",
"`#	c #137012",
" $	c #007600",
".$	c #035303",
"+$	c #7A807A",
"@$	c #A4A2A2",
"#$	c #9F9D9D",
"$$	c #8A9488",
"%$	c #049F04",
"&$	c #008400",
"*$	c #015801",
"=$	c #7B7D7A",
"-$	c #6E826D",
";$	c #02A102",
">$	c #057905",
",$	c #778075",
"'$	c #828680",
")$	c #386637",
"!$	c #085D08",
"~$	c #075307",
"{$	c #828181",
"]$	c #959393",
"^$	c #9E9C9C",
"/$	c #A2A1A2",
"($	c #9B9A9B",
"_$	c #547D54",
":$	c #165C16",
"<$	c #3A5C3A",
"[$	c #7F7E7F",
"}$	c #908F90",
"|$	c #3E7E3E",
"1$	c #009000",
"2$	c #006900",
"3$	c #446544",
"4$	c #8D8C8D",
"5$	c #7A7F7A",
"6$	c #737873",
"7$	c #807F80",
"8$	c #8B8A8B",
"9$	c #989798",
"0$	c #A19FA0",
"a$	c #9C9A9B",
"b$	c #9B999A",
"c$	c #969596",
"d$	c #898888",
"e$	c #838182",
"f$	c #8A8889",
"g$	c #90918F",
"h$	c #327431",
"i$	c #076307",
"j$	c #144E14",
"k$	c #636E62",
"l$	c #8B898A",
"m$	c #918F90",
"n$	c #929091",
"o$	c #979596",
"p$	c #9F9E9F",
"q$	c #9A999A",
"r$	c #949394",
"s$	c #999899",
"t$	c #768576",
"u$	c #416741",
"v$	c #516551",
"w$	c #7E7D7E",
"x$	c #8E8D8E",
"y$	c #A3A2A3",
"z$	c #9C9B9C",
"A$	c #919091",
"B$	c #9E9D9E",
"  . + @ # $ % & * * * * * * * * * * * * * * * * * * * * * * * = ",
"- ; > , ' ) ! ~ { ] ] ] ] ] ] ] ] ] ] ] ] ] ] ] ] ] ] ] ] ] ] ^ ",
"/ / ( _ : < [ } | { 1 1 1 1 1 1 1 1 1 1 1 1 1 1 1 1 1 1 1 1 1 ^ ",
"( 2 3 4 5 6 7 8 9 0 a > b c d e a > > > f g h i j k a > > > > + ",
"l 2 3 m n o p q r s t u v w x y z A B C D E F G H I ~ J K K K ] ",
"L M N O P Q R S T U V W X Y Z `  ...+.@.#.$.%.&.*.=.-.;.>.>.>.,.",
"'.).!.~.{.].^./.(._.:.<.[.}.|.1.2.3.4.5.6.7.8.9.0.a.b.c.d.d.d.e.",
"f.5 6 g.h.i.j.k.l.m.n.o.p.q.r.s.t.u.v.w.x.y.z.A.B.C.D.| E.E.E.a ",
"F.G.Q H.I.J.K.L.M.N.O.P.Q.R.S.T.U.V.W.X.Y.Z.`. +.+++@+#+$+$+$+%+",
"&+8 *+=+-+;+>+N.3.,+'+)+!+~+{+]+^+/+(+_+).:+<+[+}+~ @ #+#+#+#+J ",
"|+1+2+3+4+5+N.6+7+8+9+0+a+b+c+d+e+f+g+h+i+j+k+k+k+k+k+k+k+k+k+l+",
", m+n+o+p+q+N.r+7+3.s+t+u+v+w+x+y+z+A+M 0 0 0 0 0 0 0 0 0 0 0 / ",
"B+C+D+,+E+M.F+O.G+H+I+H+3.J+K+t+L+M+N+C+O+O+O+O+O+O+O+O+O+O+O+P+",
"B+Q+R+S+3.E+T+H+I+U+V+V+U+I+H+V+N.v+W+X+Y+Z+Z+Z+Z+Z+Z+Z+Z+Z+Z+B+",
"`+ @.@+@@@#@U+N.V+E+E+E+$@$@$@%@q+&@*@=@-@;@ @ @ @ @ @ @ @ @ @`+",
">@;@.@,@'@)@H+M.$@M.E+$@M.q+!@~@{@]@r+^@/@(@.@;@;@;@;@;@;@;@;@>@",
"_@:@:@<@[@}@9+q+|@!@$@V+|@1@2@3@4@5@6@7@8@9@0@a@:@:@:@:@:@:@:@_@",
"b@a@a@a@0@c@d@N.|@$@$@E+$@e@f@g@G+h@0+i@j@k@l@m@<@a@a@a@a@a@a@b@",
";@(@(@(@n@o@p@q@E+H+I+E+r@s@t@|@N.w+6.c+$@u@v@w@x@n@(@(@(@(@(@;@",
".@n@n@n@n@y@z@A@3.|@u+7+B@C@D@K+I+C@E@F@G@F+H@I@J@K@o@y@n@n@n@.@",
"L@y@y@y@y@y@-@M@N@O@Q.P@|@G+Q@E@C@K+4.R@S@T@H+U@V@W@X@Y@Z@-@y@L@",
"`@-@-@-@-@-@-@ #.#+#6+@#w+N.@@##$#t+%#&#*#=#-#;#1@>#2@,#'#)#!#`@",
"~#{#{#{#{#{#{#{#]#^#$@/#'@I+%#(#_#c+E+2@9+:#<#[#}#|#1#2#3#!.4#~#",
"h+5#5#5#5#5#5#5#6#7#8#9#0#u+N.w+a#b#3.c#d#e#f#g#h#i#j#k#l#g#m#h+",
"-@z@z@z@z@z@z@z@-.n#o#h@p#q#O@$@r#s#t#s+N.u#v#w#x#y#z#A#B#C#D#-@",
"m@E#E#E#E#E#E#E#E#F#G#q@H#I#3.c#6+J#K#L#w+H+$@4.M#N#O#O#P#Q#R#m@",
"!#)#)#)#)#)#)#)#)#S#T#)@U#V#W#2@V+X#Y#Z#`#d+1# $.$+$C#D#D#)#)#!#",
"@$#$#$#$#$#$#$#$#$$$%$&$*$=$-$;$T+!+>$,$'$)$!$~$n+{$]$^$#$#$#$@$",
"/$Q#Q#Q#Q#Q#Q#Q#Q#($_$:$<$[$}$|$L+1$2$3$4$5 5$6$7$8$9$Q#Q#Q#Q#/$",
"0$a$a$a$a$a$a$a$a$b$c$d$e$f$O#g$h$i$j$k$l$c$O#m$n$o$b$a$a$a$a$0$",
"p$($($($($($($($($($q$c$r$c$s$s$t$u$v$w$x$s$q$q$q$q$($($($($($p$",
"y$p$p$p$p$p$p$p$p$p$p$p$p$p$p$p$z$r$4$A$s$B$p$p$p$p$p$p$p$p$p$y$"};
