/* XPM */
static char * nrm_rtfkwrist_xpm[] = {
"32 32 290 2",
"  	c #C3C2C2",
". 	c #C0BFBF",
"+ 	c #BEBEBD",
"@ 	c #BCBCBB",
"# 	c #BBBBBA",
"$ 	c #BCBCBC",
"% 	c #B9B9B9",
"& 	c #949494",
"* 	c #000000",
"= 	c #3E3E3E",
"- 	c #0C0C0C",
"; 	c #888888",
"> 	c #B9B9B8",
", 	c #888887",
"' 	c #ADADAC",
") 	c #565656",
"! 	c #BBBABA",
"~ 	c #B8B7B7",
"{ 	c #878686",
"] 	c #252525",
"^ 	c #4A4949",
"/ 	c #BAB9B8",
"( 	c #B7B6B5",
"_ 	c #868585",
": 	c #626161",
"< 	c #555554",
"[ 	c #B8B8B8",
"} 	c #B5B5B4",
"| 	c #858584",
"1 	c #B8B8B7",
"2 	c #B4B4B3",
"3 	c #848483",
"4 	c #545454",
"5 	c #181818",
"6 	c #A8A8A7",
"7 	c #B7B7B6",
"8 	c #B3B3B2",
"9 	c #8F8F8E",
"0 	c #A7A7A6",
"a 	c #242424",
"b 	c #5F5F5F",
"c 	c #B6B4B5",
"d 	c #B2B0B1",
"e 	c #B4B4B4",
"f 	c #B0B0B0",
"g 	c #B4B2B2",
"h 	c #B0AEAE",
"i 	c #AFABAB",
"j 	c #ADA0A0",
"k 	c #AE9393",
"l 	c #AD9191",
"m 	c #AC9191",
"n 	c #AD9292",
"o 	c #AA8585",
"p 	c #A97B7B",
"q 	c #A98282",
"r 	c #AD9999",
"s 	c #AEA6A6",
"t 	c #AFADAD",
"u 	c #AFA2A2",
"v 	c #AE6363",
"w 	c #AD5B5B",
"x 	c #B15F5F",
"y 	c #B16161",
"z 	c #AD6464",
"A 	c #B15757",
"B 	c #AD5D5D",
"C 	c #B35454",
"D 	c #BD4B4B",
"E 	c #C54444",
"F 	c #C44142",
"G 	c #C63B3B",
"H 	c #D23131",
"I 	c #DE3232",
"J 	c #E03D3D",
"K 	c #DF4444",
"L 	c #DD4142",
"M 	c #DD4040",
"N 	c #DE4343",
"O 	c #DE4444",
"P 	c #DF4F4F",
"Q 	c #DF5454",
"R 	c #DE4545",
"S 	c #DF4A4A",
"T 	c #DF4D4D",
"U 	c #E04949",
"V 	c #E14545",
"W 	c #E03C3C",
"X 	c #DA2D2D",
"Y 	c #C22424",
"Z 	c #DE2626",
"` 	c #D91E1F",
" .	c #D51A1A",
"..	c #DC4545",
"+.	c #D93535",
"@.	c #D93333",
"#.	c #D82D2D",
"$.	c #D92F2F",
"%.	c #D82A2A",
"&.	c #D62020",
"*.	c #D61F1F",
"=.	c #D51B1B",
"-.	c #D51818",
";.	c #D41616",
">.	c #D11313",
",.	c #CC1212",
"'.	c #C91212",
").	c #D61D1D",
"!.	c #D72626",
"~.	c #D82C2C",
"{.	c #D93232",
"].	c #E88522",
"^.	c #F6CC0F",
"/.	c #F7D60D",
"(.	c #ED9D1F",
"_.	c #DA372E",
":.	c #D82B2B",
"<.	c #AD9C9C",
"[.	c #881313",
"}.	c #610909",
"|.	c #800C0C",
"1.	c #5F0909",
"2.	c #860C0C",
"3.	c #A50F0F",
"4.	c #AD1010",
"5.	c #B01010",
"6.	c #B31010",
"7.	c #B51010",
"8.	c #B61010",
"9.	c #A20F0F",
"0.	c #A70F0F",
"a.	c #BB1111",
"b.	c #C41212",
"c.	c #E78D09",
"d.	c #FFFF00",
"e.	c #F4C508",
"f.	c #AEADAE",
"g.	c #984D4E",
"h.	c #550B0B",
"i.	c #4E0909",
"j.	c #470808",
"k.	c #5A0909",
"l.	c #7F0C0C",
"m.	c #880C0C",
"n.	c #8E0D0D",
"o.	c #9C0E0E",
"p.	c #960E0E",
"q.	c #940D0D",
"r.	c #9A0E0E",
"s.	c #AB0F0F",
"t.	c #9F0E0E",
"u.	c #B3210F",
"v.	c #FEFC00",
"w.	c #E57126",
"x.	c #ADACAD",
"y.	c #A8A2A3",
"z.	c #A17B7B",
"A.	c #9E6E6F",
"B.	c #9B6161",
"C.	c #9B5F60",
"D.	c #984C4D",
"E.	c #831717",
"F.	c #700F0F",
"G.	c #771010",
"H.	c #730E0E",
"I.	c #630B0B",
"J.	c #6C0D0D",
"K.	c #710D0D",
"L.	c #710C0C",
"M.	c #7D0C0C",
"N.	c #750B0B",
"O.	c #880C0D",
"P.	c #910D0D",
"Q.	c #C0480C",
"R.	c #EC9422",
"S.	c #ACABAB",
"T.	c #A8A7A7",
"U.	c #A79D9D",
"V.	c #A69C9C",
"W.	c #A58F8F",
"X.	c #A28181",
"Y.	c #A48D8D",
"Z.	c #A49090",
"`.	c #9D6A6A",
" +	c #964A4A",
".+	c #902626",
"++	c #871111",
"@+	c #830D0D",
"#+	c #C51212",
"$+	c #AA1010",
"%+	c #AD200E",
"&+	c #E46D25",
"*+	c #ABAAAA",
"=+	c #A7A6A6",
"-+	c #A6A0A0",
";+	c #9F6262",
">+	c #DF4E4F",
",+	c #DA3737",
"'+	c #E28A09",
")+	c #F5C609",
"!+	c #D82727",
"~+	c #AAA9A9",
"{+	c #A6A5A5",
"]+	c #C24C4C",
"^+	c #E46C6C",
"/+	c #B81111",
"(+	c #C61212",
"_+	c #E6750C",
":+	c #F3BF08",
"<+	c #F5CA07",
"[+	c #EB8F0E",
"}+	c #D01D11",
"|+	c #B31212",
"1+	c #A9A8A8",
"2+	c #A5A4A4",
"3+	c #A59F9F",
"4+	c #CD4343",
"5+	c #E26666",
"6+	c #AD100F",
"7+	c #BE1111",
"8+	c #B01111",
"9+	c #9C2020",
"0+	c #A27777",
"a+	c #A7A7A7",
"b+	c #A3A3A3",
"c+	c #A27A7A",
"d+	c #E03B3B",
"e+	c #DF5353",
"f+	c #D51717",
"g+	c #D41212",
"h+	c #C11111",
"i+	c #900F0F",
"j+	c #971414",
"k+	c #9A5858",
"l+	c #A7A5A6",
"m+	c #A3A1A2",
"n+	c #A96162",
"o+	c #E14D4E",
"p+	c #DA3535",
"q+	c #D51616",
"r+	c #D82626",
"s+	c #930E0E",
"t+	c #861010",
"u+	c #8F2424",
"v+	c #9A5F60",
"w+	c #A29E9F",
"x+	c #A1A0A0",
"y+	c #A07D7D",
"z+	c #E04848",
"A+	c #D62222",
"B+	c #D72323",
"C+	c #D61B1B",
"D+	c #B51111",
"E+	c #9A1414",
"F+	c #975656",
"G+	c #A09696",
"H+	c #A4A3A4",
"I+	c #A09E9F",
"J+	c #9F9697",
"K+	c #DA1E1F",
"L+	c #D72020",
"M+	c #D82929",
"N+	c #A41313",
"O+	c #975555",
"P+	c #9F9D9E",
"Q+	c #A4A3A3",
"R+	c #9F9E9E",
"S+	c #9E7878",
"T+	c #BB1212",
"U+	c #CA1212",
"V+	c #D61C1C",
"W+	c #A02727",
"X+	c #9E9292",
"Y+	c #A4A2A2",
"Z+	c #9F9D9D",
"`+	c #9D8E8E",
" @	c #7D0F0F",
".@	c #B31111",
"+@	c #9A2D2D",
"@@	c #A2A1A2",
"#@	c #9D9C9D",
"$@	c #9A797A",
"%@	c #861D1D",
"&@	c #8F1212",
"*@	c #965D5D",
"=@	c #A19FA0",
"-@	c #9C9A9B",
";@	c #9F9E9F",
">@	c #9B9A9B",
",@	c #A3A2A3",
"  . . . . . . . . . . . . . . . . . . . . . . . . . . . . . .   ",
"+ @ @ @ @ @ @ @ @ @ @ @ @ @ @ @ @ @ @ @ @ @ @ @ @ @ @ @ @ @ @ + ",
"+ # # # # # # # # # # # # # # # # # # # # # # # # # # # # # # + ",
"$ % & * * * = & - % & - ; % % % % % % % % % % % % % % % % % % $ ",
"@ > , * > > > , * ' - ) > > > > > > > > > > > > > > > > > > > @ ",
"! ~ { * ~ ~ ~ { * ] ^ ~ ~ ~ ~ ~ ~ ~ ~ ~ ~ ~ ~ ~ ~ ~ ~ ~ ~ ~ ~ ! ",
"/ ( _ * * * : _ * * < ( ( ( ( ( ( ( ( ( ( ( ( ( ( ( ( ( ( ( ( / ",
"[ } | * } } } | * | * | } } } } } } } } } } } } } } } } } } } [ ",
"1 2 3 * 2 2 2 3 * 2 4 5 6 2 2 2 2 2 2 2 2 2 2 2 2 2 2 2 2 2 2 1 ",
"7 8 9 - 8 8 8 9 - 8 0 a b 8 8 8 8 8 8 8 8 8 8 8 8 8 8 8 8 8 8 7 ",
"c d d d d d d d d d d d d d d d d d d d d d d d d d d d d d d c ",
"e f f f f f f f f f f f f f f f f f f f f f f f f f f f f f f e ",
"g h h h h h h h h h h h h h i j k l m m n o p q l m l r j s t g ",
"u v w x y z A B C D E F G H I J K L M N O P Q P R S T U V W X Y ",
"Z `  ...+.@.@.#.#.$.%.&.*.=.-.;.>.,.'.>.-.).&.!.~.{.].^./.(._.:.",
"<.[.}.|.1.2.3.4.5.6.5.5.6.6.6.7.6.8.6.3.9.0.4.a.b.c.d.d.d.d.e.$.",
"f.g.h.i.j.k.l.m.n.o.9.p.q.r.o.9.3.s.5.t.m.n.o.3.u.v.d.d.d.d.d.w.",
"x.y.z.A.B.C.D.E.F.G.H.I.J.K.L.L.L.M.q.m.N.O.P.9.Q.d.d.d.d.d.d.R.",
"S.T.T.T.T.T.T.T.U.V.W.X.Y.Z.X.X.`. +.+++@+#+$+o.%+v.d.d.d.d.d.&+",
"*+=+=+=+=+=+=+=+=+=+=+=+=+=+=+=+=+=+=+-+;+>+,+0.0.'+d.d.d.d.)+!+",
"~+{+{+{+{+{+{+{+{+{+{+{+{+{+{+{+{+{+{+{+]+^+;.0./+(+_+:+<+[+}+|+",
"1+2+2+2+2+2+2+2+2+2+2+2+2+2+2+2+2+2+3+4+5+;.6+7+(+(+'.'.(+8+9+0+",
"a+b+b+b+b+b+b+b+b+b+b+b+b+b+b+b+b+c+d+e+f+'.f+g+h+5.t.i+j+k+b+a+",
"l+m+m+m+m+m+m+m+m+m+m+m+m+m+m+m+n+o+p+'.q+r+*.(+s+t+u+v+w+m+m+l+",
"2+x+x+x+x+x+x+x+x+x+x+x+x+x+x+y+z+A+(+).B+C+D+E+F+G+x+x+x+x+x+2+",
"H+I+I+I+I+I+I+I+I+I+I+I+I+I+J+K+;.a.L+M+f+N+O+P+I+I+I+I+I+I+I+H+",
"Q+R+R+R+R+R+R+R+R+R+R+R+R+R+S+T+r.U+V+q+W+X+R+R+R+R+R+R+R+R+R+Q+",
"Y+Z+Z+Z+Z+Z+Z+Z+Z+Z+Z+Z+Z+Z+`+ @|.a..@+@Z+Z+Z+Z+Z+Z+Z+Z+Z+Z+Z+Y+",
"@@#@#@#@#@#@#@#@#@#@#@#@#@#@#@$@%@&@*@#@#@#@#@#@#@#@#@#@#@#@#@@@",
"=@-@-@-@-@-@-@-@-@-@-@-@-@-@-@-@-@-@-@-@-@-@-@-@-@-@-@-@-@-@-@=@",
";@>@>@>@>@>@>@>@>@>@>@>@>@>@>@>@>@>@>@>@>@>@>@>@>@>@>@>@>@>@>@;@",
",@;@;@;@;@;@;@;@;@;@;@;@;@;@;@;@;@;@;@;@;@;@;@;@;@;@;@;@;@;@;@,@"};
