/* XPM */
static char * nrm_rtfkelbow_xpm[] = {
"32 32 274 2",
"  	c #C3C2C2",
". 	c #C0BFBF",
"+ 	c #BEBEBD",
"@ 	c #BCBCBB",
"# 	c #BBBBBA",
"$ 	c #BCBCBC",
"% 	c #B9B9B9",
"& 	c #949494",
"* 	c #000000",
"= 	c #3E3E3E",
"- 	c #0C0C0C",
"; 	c #888888",
"> 	c #B9B9B8",
", 	c #888887",
"' 	c #ADADAC",
") 	c #565656",
"! 	c #BBBABA",
"~ 	c #B8B7B7",
"{ 	c #878686",
"] 	c #252525",
"^ 	c #4A4949",
"/ 	c #BAB9B8",
"( 	c #B7B6B5",
"_ 	c #868585",
": 	c #626161",
"< 	c #555554",
"[ 	c #B8B8B8",
"} 	c #B5B5B4",
"| 	c #858584",
"1 	c #B8B8B7",
"2 	c #B4B4B3",
"3 	c #848483",
"4 	c #545454",
"5 	c #181818",
"6 	c #A8A8A7",
"7 	c #B7B7B6",
"8 	c #B3B3B2",
"9 	c #8F8F8E",
"0 	c #A7A7A6",
"a 	c #242424",
"b 	c #5F5F5F",
"c 	c #B6B4B5",
"d 	c #B2B0B1",
"e 	c #B4B4B4",
"f 	c #B0B0B0",
"g 	c #B09E9E",
"h 	c #B07474",
"i 	c #B07272",
"j 	c #AF7273",
"k 	c #B26B6B",
"l 	c #B66363",
"m 	c #B66262",
"n 	c #B45E5E",
"o 	c #BA5252",
"p 	c #BD4F4F",
"q 	c #BD4E4E",
"r 	c #BD4E4F",
"s 	c #B85454",
"t 	c #B56060",
"u 	c #B56262",
"v 	c #B26464",
"w 	c #AC7070",
"x 	c #AD7070",
"y 	c #AD7171",
"z 	c #AA7F7F",
"A 	c #AA8181",
"B 	c #AA8787",
"C 	c #AC9898",
"D 	c #AFA7A7",
"E 	c #B0AEAE",
"F 	c #B4B2B2",
"G 	c #BE5656",
"H 	c #EDA5A6",
"I 	c #EB9C9C",
"J 	c #E98888",
"K 	c #E57979",
"L 	c #E36D6E",
"M 	c #E26464",
"N 	c #E26263",
"O 	c #E26565",
"P 	c #E16161",
"Q 	c #E15F5F",
"R 	c #E15E5F",
"S 	c #E16060",
"T 	c #E16262",
"U 	c #E25F60",
"V 	c #E26060",
"W 	c #E26061",
"X 	c #E15959",
"Y 	c #E15A5A",
"Z 	c #E15757",
"` 	c #E04C4C",
" .	c #E14142",
"..	c #D63D3D",
"+.	c #CA4141",
"@.	c #C04848",
"#.	c #B75858",
"$.	c #AD6666",
"%.	c #AA7979",
"&.	c #C34E4E",
"*.	c #EA9898",
"=.	c #E47474",
"-.	c #DF5455",
";.	c #DB3F3F",
">.	c #D82C2C",
",.	c #D72525",
"'.	c #D72323",
").	c #D72222",
"!.	c #D62020",
"~.	c #D61F1F",
"{.	c #D72020",
"].	c #D72626",
"^.	c #D82727",
"/.	c #D82929",
"(.	c #D82A2A",
"_.	c #D82B2B",
":.	c #D92D2D",
"<.	c #D93232",
"[.	c #DB3939",
"}.	c #DC4040",
"|.	c #DD4747",
"1.	c #DE4C4C",
"2.	c #DE4F4F",
"3.	c #DE4B4B",
"4.	c #DC3E3E",
"5.	c #DC2D2D",
"6.	c #DE4E4E",
"7.	c #D82D2D",
"8.	c #D51B1B",
"9.	c #D11313",
"0.	c #CC1212",
"a.	c #CE1212",
"b.	c #CF1212",
"c.	c #D21313",
"d.	c #D41212",
"e.	c #D41414",
"f.	c #DC3D10",
"g.	c #E3640D",
"h.	c #EA890B",
"i.	c #EEA209",
"j.	c #F4C306",
"k.	c #EEA30A",
"l.	c #EC950B",
"m.	c #E5720F",
"n.	c #DD4714",
"o.	c #D7201A",
"p.	c #D61B1B",
"q.	c #D61C1C",
"r.	c #D72929",
"s.	c #D51C1C",
"t.	c #B51111",
"u.	c #9F0E0E",
"v.	c #AB0F0F",
"w.	c #C61212",
"x.	c #D61E15",
"y.	c #E4690F",
"z.	c #F3BD06",
"A.	c #FFFF00",
"B.	c #F7D506",
"C.	c #E98412",
"D.	c #DA321D",
"E.	c #D72727",
"F.	c #A20F0F",
"G.	c #800C0C",
"H.	c #910D0D",
"I.	c #B31010",
"J.	c #C91212",
"K.	c #D51616",
"L.	c #D72115",
"M.	c #F9DE03",
"N.	c #FDF502",
"O.	c #DF5121",
"P.	c #DB3838",
"Q.	c #6F0A0A",
"R.	c #730B0B",
"S.	c #B01010",
"T.	c #D82611",
"U.	c #FBEC02",
"V.	c #FFFC00",
"W.	c #E25F1D",
"X.	c #5C0909",
"Y.	c #670A0A",
"Z.	c #860C0C",
"`.	c #BB1111",
" +	c #D02611",
".+	c #E4820A",
"++	c #F9E002",
"@+	c #FCEF02",
"#+	c #ED9D0A",
"$+	c #DC4215",
"%+	c #D61D1D",
"&+	c #D82828",
"*+	c #D62222",
"=+	c #590808",
"-+	c #5F0909",
";+	c #750B0B",
">+	c #BE1111",
",+	c #C11111",
"'+	c #C9300F",
")+	c #D45A0C",
"!+	c #DE8109",
"~+	c #E7A007",
"{+	c #E9AB06",
"]+	c #F3D004",
"^+	c #F4D004",
"/+	c #EFB706",
"(+	c #EBA007",
"_+	c #E68D09",
":+	c #DE660C",
"<+	c #D53C0F",
"[+	c #D62121",
"}+	c #510808",
"|+	c #970E0E",
"1+	c #A50F0F",
"2+	c #AA0F0F",
"3+	c #AD1010",
"4+	c #B51010",
"5+	c #C11717",
"6+	c #480707",
"7+	c #540808",
"8+	c #8E0D0D",
"9+	c #940D0D",
"0+	c #960E0E",
"a+	c #9A0E0E",
"b+	c #8C0D0D",
"c+	c #880C0C",
"d+	c #9A3031",
"e+	c #4E0707",
"f+	c #460707",
"g+	c #650909",
"h+	c #640909",
"i+	c #65090A",
"j+	c #5F0A0A",
"k+	c #610A0A",
"l+	c #630B0B",
"m+	c #6B0D0D",
"n+	c #740F0F",
"o+	c #7D1111",
"p+	c #891515",
"q+	c #985555",
"r+	c #710F0F",
"s+	c #720F0F",
"t+	c #700F0F",
"u+	c #761111",
"v+	c #801616",
"w+	c #7F1515",
"x+	c #832020",
"y+	c #882424",
"z+	c #872424",
"A+	c #882A2A",
"B+	c #8D3535",
"C+	c #8E3939",
"D+	c #924747",
"E+	c #965858",
"F+	c #996868",
"G+	c #9C7777",
"H+	c #9E8787",
"I+	c #A09494",
"J+	c #A19E9E",
"K+	c #A5A4A4",
"L+	c #A4A3A4",
"M+	c #A09C9D",
"N+	c #A09E9F",
"O+	c #A4A3A3",
"P+	c #9F9E9E",
"Q+	c #A4A2A2",
"R+	c #9F9D9D",
"S+	c #A2A1A2",
"T+	c #9D9C9D",
"U+	c #A19FA0",
"V+	c #9C9A9B",
"W+	c #9F9E9F",
"X+	c #9B9A9B",
"Y+	c #A3A2A3",
"  . . . . . . . . . . . . . . . . . . . . . . . . . . . . . .   ",
"+ @ @ @ @ @ @ @ @ @ @ @ @ @ @ @ @ @ @ @ @ @ @ @ @ @ @ @ @ @ @ + ",
"+ # # # # # # # # # # # # # # # # # # # # # # # # # # # # # # + ",
"$ % & * * * = & - % & - ; % % % % % % % % % % % % % % % % % % $ ",
"@ > , * > > > , * ' - ) > > > > > > > > > > > > > > > > > > > @ ",
"! ~ { * ~ ~ ~ { * ] ^ ~ ~ ~ ~ ~ ~ ~ ~ ~ ~ ~ ~ ~ ~ ~ ~ ~ ~ ~ ~ ! ",
"/ ( _ * * * : _ * * < ( ( ( ( ( ( ( ( ( ( ( ( ( ( ( ( ( ( ( ( / ",
"[ } | * } } } | * | * | } } } } } } } } } } } } } } } } } } } [ ",
"1 2 3 * 2 2 2 3 * 2 4 5 6 2 2 2 2 2 2 2 2 2 2 2 2 2 2 2 2 2 2 1 ",
"7 8 9 - 8 8 8 9 - 8 0 a b 8 8 8 8 8 8 8 8 8 8 8 8 8 8 8 8 8 8 7 ",
"c d d d d d d d d d d d d d d d d d d d d d d d d d d d d d d c ",
"e f f f f f f f f f f f f f f f f f f f f f f f f f f f f f f e ",
"g h i j k l m n o p q q p r s t u v w x y z A B C D E E E E E F ",
"G H I J K L M N O M P Q Q P P R S T U V W X Y Z `  ...+.@.#.$.%.",
"&.*.=.-.;.>.,.'.).!.~.~.~.!.{.).'.,.].^./.(._.:.<.[.}.|.1.2.3.4.",
"5.6.7.8.9.0.0.a.b.c.d.d.e.f.g.h.i.i.i.j.k.k.k.l.m.n.o.p.q.~.).^.",
"r.s.t.u.v.w.e.e.e.x.y.z.A.A.A.A.A.A.A.A.A.A.A.A.A.A.A.B.C.D.,./.",
"E.F.G.H.I.J.e.K.L.M.A.A.A.A.A.A.A.A.A.A.A.A.A.A.A.A.A.A.A.N.O.P.",
"~.Q.R.H.S.w.d.d.T.U.A.A.A.A.A.A.A.A.A.A.A.A.A.A.A.A.A.A.A.V.W.[.",
"E.X.Y.Z.F.`.J.J.0. +.+++A.A.A.A.A.A.A.A.A.A.A.A.A.A.A.@+#+$+%+&+",
"*+=+-+;+H.v.`.`.`.>+>+,+'+)+!+~+{+]+^+^+^+^+/+(+_+:+<+0.a.a.e.q.",
"[+X.}+Y.G.|+1+v.2+v.3+3+3+3+3+S.3+S.S.S.I.I.4+4+4+4+4+4+4+4+`.0.",
"5+=+6+7+Y.G.8+H.H.H.H.9+H.9+9+9+9+9+9+9+9+0+a+|+9+H.8+b+b+c+8+a+",
"d+e+f+f+6+=+g+h+g+g+g+g+g+g+h+g+g+Y.g+g+Y.i+g+g+-+j+k+l+m+n+o+p+",
"q+r+s+t+t+s+s+s+s+s+s+s+s+r+u+v+v+w+x+y+z+A+B+C+D+E+F+G+H+I+J+K+",
"L+M+M+M+M+M+M+M+M+M+M+M+M+M+N+N+N+N+N+N+N+N+N+N+N+N+N+N+N+N+N+L+",
"O+P+P+P+P+P+P+P+P+P+P+P+P+P+P+P+P+P+P+P+P+P+P+P+P+P+P+P+P+P+P+O+",
"Q+R+R+R+R+R+R+R+R+R+R+R+R+R+R+R+R+R+R+R+R+R+R+R+R+R+R+R+R+R+R+Q+",
"S+T+T+T+T+T+T+T+T+T+T+T+T+T+T+T+T+T+T+T+T+T+T+T+T+T+T+T+T+T+T+S+",
"U+V+V+V+V+V+V+V+V+V+V+V+V+V+V+V+V+V+V+V+V+V+V+V+V+V+V+V+V+V+V+U+",
"W+X+X+X+X+X+X+X+X+X+X+X+X+X+X+X+X+X+X+X+X+X+X+X+X+X+X+X+X+X+X+W+",
"Y+W+W+W+W+W+W+W+W+W+W+W+W+W+W+W+W+W+W+W+W+W+W+W+W+W+W+W+W+W+W+Y+"};
