/* XPM */
static char * nrm_hips_xpm[] = {
"32 32 613 2",
"  	c #C3C2C2",
". 	c #C0BFBF",
"+ 	c #A1A0A0",
"@ 	c #B6B5B5",
"# 	c #BEBEBE",
"$ 	c #BDBDBD",
"% 	c #BCBCBC",
"& 	c #BEB8B8",
"* 	c #D49595",
"= 	c #BDB0B0",
"- 	c #B6B6B6",
"; 	c #B2B2B2",
"> 	c #ADADAD",
", 	c #A8A8A8",
"' 	c #9F9F9F",
") 	c #8C8D8C",
"! 	c #6A6A6A",
"~ 	c #676666",
"{ 	c #B8B7B7",
"] 	c #BEBDBD",
"^ 	c #BEBEBD",
"/ 	c #BCBCBB",
"( 	c #A1A1A0",
"_ 	c #909090",
": 	c #A7A7A6",
"< 	c #ABABAB",
"[ 	c #AAAAAA",
"} 	c #AAA9AA",
"| 	c #AEA6A6",
"1 	c #CC8181",
"2 	c #AE9E9E",
"3 	c #A4A4A4",
"4 	c #989898",
"5 	c #8E8E8E",
"6 	c #7D7D7D",
"7 	c #606160",
"8 	c #474747",
"9 	c #A6A6A5",
"0 	c #B6B6B5",
"a 	c #BBBBBA",
"b 	c #B3B3B2",
"c 	c #A2A2A2",
"d 	c #AAABAA",
"e 	c #898989",
"f 	c #7E7F7F",
"g 	c #847C7C",
"h 	c #B65757",
"i 	c #8B7777",
"j 	c #7E7E7E",
"k 	c #757575",
"l 	c #6E6E6E",
"m 	c #747474",
"n 	c #7A7A7A",
"o 	c #555454",
"p 	c #454545",
"q 	c #707070",
"r 	c #B5B5B4",
"s 	c #B9B9B9",
"t 	c #C0C0C0",
"u 	c #D0D0D0",
"v 	c #B0B0B0",
"w 	c #868686",
"x 	c #8A8A8A",
"y 	c #A19798",
"z 	c #D06262",
"A 	c #937C7C",
"B 	c #696A6A",
"C 	c #838383",
"D 	c #979797",
"E 	c #969696",
"F 	c #3D3E3D",
"G 	c #797979",
"H 	c #B5B5B5",
"I 	c #B9B9B8",
"J 	c #ADADAC",
"K 	c #C4C4C4",
"L 	c #C8C8C8",
"M 	c #C9C9C9",
"N 	c #CDC6C6",
"O 	c #E17070",
"P 	c #C5AAAA",
"Q 	c #B7B7B7",
"R 	c #9E9E9E",
"S 	c #878787",
"T 	c #5E5E5E",
"U 	c #373737",
"V 	c #838382",
"W 	c #BBBABA",
"X 	c #929292",
"Y 	c #BBBBBB",
"Z 	c #BCBDBD",
"` 	c #BCB7B7",
" .	c #D86666",
"..	c #BF9F9F",
"+.	c #B2B2B1",
"@.	c #A9A9A9",
"#.	c #A09F9F",
"$.	c #939393",
"%.	c #515151",
"&.	c #383838",
"*.	c #8D8C8C",
"=.	c #A9A8A8",
"-.	c #B7B6B6",
";.	c #BAB9B8",
">.	c #B7B6B5",
",.	c #B6B5B4",
"'.	c #868585",
").	c #ADAEAE",
"!.	c #B5B6B5",
"~.	c #B5B4B4",
"{.	c #D46263",
"].	c #BA9595",
"^.	c #A0A0A0",
"/.	c #8B8B8B",
"(.	c #737373",
"_.	c #474647",
":.	c #3B3B3C",
"<.	c #939292",
"[.	c #AAA9A8",
"}.	c #B8B8B8",
"|.	c #8D8D8C",
"1.	c #AFAFAF",
"2.	c #AEAEAE",
"3.	c #D06666",
"4.	c #BB8686",
"5.	c #9A9A9A",
"6.	c #919091",
"7.	c #6C6C6C",
"8.	c #424242",
"9.	c #434343",
"0.	c #949493",
"a.	c #AAAAA9",
"b.	c #B8B8B7",
"c.	c #B4B4B3",
"d.	c #A7A7A7",
"e.	c #C56C6C",
"f.	c #BD7676",
"g.	c #9C9C9C",
"h.	c #949494",
"i.	c #8A898A",
"j.	c #7D7E7E",
"k.	c #666666",
"l.	c #4B4B4D",
"m.	c #B7B7B6",
"n.	c #A9A9A8",
"o.	c #878789",
"p.	c #A5A5A5",
"q.	c #A2A2A3",
"r.	c #BB7373",
"s.	c #BF6565",
"t.	c #8B8B8C",
"u.	c #7D7D81",
"v.	c #707076",
"w.	c #5A5A60",
"x.	c #3F4046",
"y.	c #5B5B59",
"z.	c #969695",
"A.	c #ABABAA",
"B.	c #B6B4B5",
"C.	c #B2B0B1",
"D.	c #B1AFB0",
"E.	c #8D8D88",
"F.	c #97979C",
"G.	c #949498",
"H.	c #8D8D94",
"I.	c #8E8D94",
"J.	c #A37378",
"K.	c #BD5052",
"L.	c #847E83",
"M.	c #858581",
"N.	c #939379",
"O.	c #9B9B70",
"P.	c #A2A36F",
"Q.	c #BDBD67",
"R.	c #CECD59",
"S.	c #DADA3A",
"T.	c #A4A36C",
"U.	c #ADABAC",
"V.	c #B4B4B4",
"W.	c #B5B5A9",
"X.	c #CFCF9F",
"Y.	c #CECE92",
"Z.	c #C6C684",
"`.	c #BABA7A",
" +	c #AFAF78",
".+	c #AC8F61",
"++	c #BE4D40",
"@+	c #BEAB76",
"#+	c #E9E991",
"$+	c #FBFB92",
"%+	c #FFFF8F",
"&+	c #FFFF8A",
"*+	c #FFFF84",
"=+	c #FFFF71",
"-+	c #FDFD3F",
";+	c #CFD013",
">+	c #9B9B8E",
",+	c #B4B2B2",
"'+	c #B0AEAE",
")+	c #B0AEAD",
"!+	c #D9D9A5",
"~+	c #FFFFBC",
"{+	c #FFFFB7",
"]+	c #FFFFA9",
"^+	c #FFFF9C",
"/+	c #FFFF97",
"(+	c #FFFF94",
"_+	c #FFF28C",
":+	c #FD9159",
"<+	c #FFD281",
"[+	c #FEFE93",
"}+	c #FDFD8A",
"|+	c #FBFB84",
"1+	c #FBFB7C",
"2+	c #FBFB73",
"3+	c #FAFA62",
"4+	c #F2F236",
"5+	c #CACA0B",
"6+	c #8B8A6B",
"7+	c #A3A1A1",
"8+	c #AFADAD",
"9+	c #B3B1B1",
"0+	c #AEACA5",
"a+	c #EBEB9E",
"b+	c #FDFDA9",
"c+	c #FCFCA0",
"d+	c #FBFB95",
"e+	c #FBFB8E",
"f+	c #FBFB8B",
"g+	c #FBFB89",
"h+	c #FBF888",
"i+	c #FC9F55",
"j+	c #FCBD64",
"k+	c #FBF77E",
"l+	c #FBFB79",
"m+	c #FAFA70",
"n+	c #FAFA67",
"o+	c #F7EB4F",
"p+	c #EAD926",
"q+	c #C5AE05",
"r+	c #916B3C",
"s+	c #AC7272",
"t+	c #C17373",
"u+	c #C08080",
"v+	c #B29D9D",
"w+	c #AEACAC",
"x+	c #B1B0B0",
"y+	c #ADACAC",
"z+	c #ACABA3",
"A+	c #E9E988",
"B+	c #FDFD93",
"C+	c #FBFB82",
"D+	c #FBFB81",
"E+	c #FAF980",
"F+	c #F9F57E",
"G+	c #FBB259",
"H+	c #FBA854",
"I+	c #FADF6C",
"J+	c #FBCD5F",
"K+	c #FBB350",
"L+	c #FC973E",
"M+	c #FD822E",
"N+	c #FA611B",
"O+	c #EC4C09",
"P+	c #C84701",
"Q+	c #9F2C22",
"R+	c #AD4747",
"S+	c #B55B5B",
"T+	c #B47272",
"U+	c #AD8E8E",
"V+	c #ACABAB",
"W+	c #B0AFAF",
"X+	c #AFA7A7",
"Y+	c #B1A19A",
"Z+	c #EAD269",
"`+	c #FDDA72",
" @	c #FCC963",
".@	c #FCB958",
"+@	c #FCB053",
"@@	c #FCA04B",
"#@	c #FC8D42",
"$@	c #FD7E3B",
"%@	c #FD622D",
"&@	c #FD4C21",
"*@	c #FD5C29",
"=@	c #FD5F28",
"-@	c #FD6E2C",
";@	c #FC8330",
">@	c #FB9B30",
",@	c #F9A726",
"'@	c #ED8105",
")@	c #A18D2C",
"!@	c #545259",
"~@	c #8C8B8B",
"{@	c #9F9E9E",
"]@	c #A3A2A2",
"^@	c #A7A6A6",
"/@	c #ABAAAA",
"(@	c #AEADAE",
"_@	c #ABA8A9",
":@	c #B0A1A2",
"<@	c #CB7A7B",
"[@	c #CC7575",
"}@	c #E28055",
"|@	c #FE8E45",
"1@	c #FD7F3B",
"2@	c #FD7331",
"3@	c #FD7B35",
"4@	c #FC8A3B",
"5@	c #FC9E43",
"6@	c #FBB049",
"7@	c #FBC24E",
"8@	c #FAE759",
"9@	c #FAF85C",
"0@	c #FAFA56",
"a@	c #F9F94B",
"b@	c #F9F93A",
"c@	c #FCE617",
"d@	c #E4750E",
"e@	c #A4746D",
"f@	c #616165",
"g@	c #7D7C7D",
"h@	c #9C9B9C",
"i@	c #A5A4A5",
"j@	c #A7A6A7",
"k@	c #A8A7A8",
"l@	c #A9A8A9",
"m@	c #B99293",
"n@	c #BB8383",
"o@	c #BF7A7B",
"p@	c #C17778",
"q@	c #D65A5A",
"r@	c #BF6F70",
"s@	c #CE8E8C",
"t@	c #F1BF79",
"u@	c #FCBC3F",
"v@	c #FAD145",
"w@	c #FAEF55",
"x@	c #FAF65A",
"y@	c #FAF95C",
"z@	c #FAFA5B",
"A@	c #FAFA59",
"B@	c #F9FA55",
"C@	c #FAFA50",
"D@	c #FAFA48",
"E@	c #F8F840",
"F@	c #F7F731",
"G@	c #F7F71B",
"H@	c #EEEB08",
"I@	c #D17D5A",
"J@	c #C7555B",
"K@	c #837C7B",
"L@	c #5D5D5D",
"M@	c #9A999A",
"N@	c #A6A5A6",
"O@	c #ADACAD",
"P@	c #B29C9C",
"Q@	c #AB9696",
"R@	c #A59B9B",
"S@	c #A29F9F",
"T@	c #9D9D9D",
"U@	c #989797",
"V@	c #CACACE",
"W@	c #D2D0D2",
"X@	c #F0BF67",
"Y@	c #F7EB33",
"Z@	c #EEEE3B",
"`@	c #EFEF41",
" #	c #F2F243",
".#	c #F5F544",
"+#	c #F7F743",
"@#	c #F8F83D",
"##	c #F5F537",
"$#	c #F0F02E",
"%#	c #E8E821",
"&#	c #E4E411",
"*#	c #DDDC00",
"=#	c #C5C51E",
"-#	c #BBA5A8",
";#	c #D65455",
">#	c #A87474",
",#	c #616261",
"'#	c #898888",
")#	c #A8A7A7",
"!#	c #AAA9A9",
"~#	c #A4A3A3",
"{#	c #A2A1A1",
"]#	c #D3D3D3",
"^#	c #D0C5C8",
"/#	c #C88786",
"(#	c #C9BD3C",
"_#	c #D5D512",
":#	c #CDCD1E",
"<#	c #D1D122",
"[#	c #DADA23",
"}#	c #DEDE23",
"|#	c #DEDE1C",
"1#	c #D8D816",
"2#	c #CBCB0F",
"3#	c #B9B908",
"4#	c #AAAA03",
"5#	c #989809",
"6#	c #98986C",
"7#	c #ADACB2",
"8#	c #CB7B7B",
"9#	c #CA4D4D",
"0#	c #7C7B7B",
"a#	c #656565",
"b#	c #9A9999",
"c#	c #A5A4A4",
"d#	c #A6A5A5",
"e#	c #A9AAA9",
"f#	c #D8D8D8",
"g#	c #D1BABA",
"h#	c #B67176",
"i#	c #6C675E",
"j#	c #88880F",
"k#	c #999904",
"l#	c #9F9F07",
"m#	c #A8A808",
"n#	c #ABAB08",
"o#	c #A6A606",
"p#	c #9A9A04",
"q#	c #868604",
"r#	c #737303",
"s#	c #646401",
"t#	c #69692D",
"u#	c #76767B",
"v#	c #BBB0B0",
"w#	c #D94949",
"x#	c #A27475",
"y#	c #908F8F",
"z#	c #CFA6A6",
"A#	c #A46867",
"B#	c #4C4C53",
"C#	c #58574D",
"D#	c #7B7A58",
"E#	c #797927",
"F#	c #76750E",
"G#	c #757506",
"H#	c #717003",
"I#	c #696905",
"J#	c #64640F",
"K#	c #69682D",
"L#	c #797962",
"M#	c #818080",
"N#	c #5E5E64",
"O#	c #CE7777",
"P#	c #C55050",
"Q#	c #747373",
"R#	c #706F6F",
"S#	c #9B9A9A",
"T#	c #A3A3A3",
"U#	c #A1A1A1",
"V#	c #CACACA",
"W#	c #D6D6D6",
"X#	c #CF8D8D",
"Y#	c #8C6565",
"Z#	c #414141",
"`#	c #626263",
" $	c #8D8D8D",
".$	c #888881",
"+$	c #808070",
"@$	c #7B7B64",
"#$	c #7C7C6C",
"$$	c #7F7F7B",
"%$	c #848484",
"&$	c #7C7C7E",
"*$	c #B1B1B1",
"=$	c #BFADAD",
"-$	c #D74646",
";$	c #977979",
">$	c #5B5B5B",
",$	c #919191",
"'$	c #A7A5A6",
")$	c #A3A1A2",
"!$	c #D2D3D2",
"~$	c #D3D1D1",
"{$	c #C97676",
"]$	c #776262",
"^$	c #3C3C3C",
"/$	c #757374",
"($	c #908F90",
"_$	c #9C9A9B",
":$	c #9B999A",
"<$	c #979697",
"[$	c #949293",
"}$	c #939192",
"|$	c #959394",
"1$	c #989697",
"2$	c #A09E9F",
"3$	c #9F9D9E",
"4$	c #B9BAB9",
"5$	c #D46868",
"6$	c #BE5959",
"7$	c #6B6B6B",
"8$	c #797778",
"9$	c #A2A0A1",
"0$	c #A6A6A6",
"a$	c #D7D7D7",
"b$	c #D0C5C5",
"c$	c #BC6666",
"d$	c #655D5D",
"e$	c #807F7F",
"f$	c #949393",
"g$	c #7D7C7C",
"h$	c #B4B4B5",
"i$	c #C39F9F",
"j$	c #D44949",
"k$	c #8D7B7B",
"l$	c #5C5C5B",
"m$	c #929191",
"n$	c #9E9D9D",
"o$	c #A4A3A4",
"p$	c #B1B0B1",
"q$	c #D9D9D9",
"r$	c #CFB2B2",
"s$	c #AC6161",
"t$	c #545353",
"u$	c #4A4A4A",
"v$	c #848283",
"w$	c #979596",
"x$	c #777777",
"y$	c #AFAEAE",
"z$	c #BBB7B7",
"A$	c #D46060",
"B$	c #B46666",
"C$	c #7F7D7E",
"D$	c #999798",
"E$	c #A3A2A3",
"F$	c #C2C2C3",
"G$	c #CE9F9F",
"H$	c #986060",
"I$	c #494949",
"J$	c #5A5959",
"K$	c #878686",
"L$	c #999898",
"M$	c #797878",
"N$	c #CB8D8D",
"O$	c #CE5353",
"P$	c #8C7575",
"Q$	c #605F5F",
"R$	c #A4A2A2",
"S$	c #9F9D9D",
"T$	c #9E9C9C",
"U$	c #D2D2D2",
"V$	c #D4D4D4",
"W$	c #CC8888",
"X$	c #846161",
"Y$	c #3E3E3F",
"Z$	c #6C6B6B",
"`$	c #8C8A8A",
" %	c #9B9999",
".%	c #999797",
"+%	c #C1A9A9",
"@%	c #CE6B6B",
"#%	c #B26362",
"$%	c #635E5E",
"%%	c #858383",
"&%	c #A2A1A2",
"*%	c #9D9C9D",
"=%	c #D0CECE",
"-%	c #BE7979",
";%	c #6F5F5F",
">%	c #3D3D3D",
",%	c #797879",
"'%	c #8F8E8F",
")%	c #9B9A9B",
"!%	c #B8B3B3",
"~%	c #C69090",
"{%	c #BB6A6A",
"]%	c #8D5F5F",
"^%	c #646464",
"/%	c #A19FA0",
"(%	c #C3BFC0",
"_%	c #9A6A6A",
":%	c #555252",
"<%	c #3F3F3F",
"[%	c #7E7C7D",
"}%	c #929091",
"|%	c #7F8080",
"1%	c #A4A4A5",
"2%	c #AE9696",
"3%	c #A37C7C",
"4%	c #945353",
"5%	c #5B4D4D",
"6%	c #8D8C8D",
"7%	c #9F9E9F",
"8%	c #959596",
"9%	c #8F8B8B",
"0%	c #6A5656",
"a%	c #464545",
"b%	c #4D4C4C",
"c%	c #818081",
"d%	c #939293",
"e%	c #999899",
"f%	c #6D6D6D",
"g%	c #888888",
"h%	c #868181",
"i%	c #787272",
"j%	c #6E5959",
"k%	c #624242",
"l%	c #848384",
"m%	c #868586",
"n%	c #6C6C6B",
"o%	c #5E5B5B",
"p%	c #404040",
"q%	c #616161",
"r%	c #898889",
"s%	c #8B8A8B",
"t%	c #696969",
"u%	c #686767",
"v%	c #5F5A5A",
"  . . . . . + @ # $ % % & * = - ; > , ' ) ! ~ { ] . . . . . .   ",
"^ / / / / / ( _ : < [ } | 1 2 3 ' 4 5 6 7 8 ! 9 0 / / / / / / ^ ",
"^ a a a a a b c d e 6 f g h i j k l m n o p q ( r a a a a a a ^ ",
"% s s s s s 3 t u v w x y z A B C D 3 E ! F G 3 H s s s s s s % ",
"/ I I I I I J , K L M M N O P - Q > R S T U V : 0 I I I I I I / ",
"W { { { { { @ X Y Z % $ `  ...+.@.#.$.6 %.&.*.=.-.{ { { { { { W ",
";.>.>.>.>.>.,.'.).!.H H ~.{.].@.^.D /.(._.:.<.[.,.>.>.>.>.>.>.;.",
"}.r r r r r r |.' 1.> 2.2.3.4.c 5.6.C 7.8.9.0.a.r r r r r r r }.",
"b.c.c.c.c.c.c.5._ @.d.d.d.e.f.g.h.i.j.k.8.l.0.a.c.c.c.c.c.c.c.b.",
"m.b b b b b b n.o.p.q.^.( r.s.E t.u.v.w.x.y.z.A.b b b b b b b m.",
"B.C.C.C.C.C.C.D.E.F.G.H.I.J.K.L.M.N.O.P.Q.R.S.T.U.D.C.C.C.C.C.B.",
"V.v v v v v W.X.Y.Y.Z.`. +.+++@+#+$+%+&+*+=+-+;+>+[ 1.v v v v V.",
",+'+'+'+'+)+!+~+{+]+^+/+(+_+:+<+[+}+|+1+2+3+4+5+6+7+8+'+'+'+'+,+",
"9+8+8+8+8+0+a+b+c+d+e+f+g+h+i+j+k+1+l+m+n+o+p+q+r+s+t+u+v+w+8+9+",
"x+y+y+y+y+z+A+B+f+|+C+D+E+F+G+H+I+J+K+L+M+N+O+P+Q+R+S+T+U+=.V+x+",
"W+V+V+V+X+Y+Z+`+ @.@+@@@#@$@%@&@*@=@-@;@>@,@'@)@!@~@4 {@]@^@/@W+",
"(@} _@:@<@[@}@|@1@2@2@3@4@5@6@7@8@9@0@a@b@c@d@e@f@g@h@i@j@k@l@(@",
"m@n@o@p@q@r@s@t@u@v@w@x@y@z@A@B@C@D@E@F@G@H@I@J@K@L@M@N@l@l@l@O@",
"P@Q@R@S@T@U@V@W@X@Y@Z@`@ #.#+#@###$#%#&#*#=#-#;#>#,#'#+ )#)#)#V+",
"!#~#]@]@{#+ ]#^#/#(#_#:#<#[#}#|#1#2#3#4#5#6#7#8#9#0#a#b#c#^@^@/@",
"!#c#c#c#d#e#f#g#h#i#j#k#l#m#n#o#p#q#r#s#t#u#i@v#w#x#L@y#+ d#d#!#",
"=.c#c#c#c#Y f#z#A#B#C#D#E#F#G#H#I#J#K#L#M#N#' - O#P#Q#R#S#~#c#=.",
"d.T#T#T#U#V#W#X#Y#Z#`#w  $.$+$@$#$$$%$x X &$_ *$=$-$;$>$,$' T#d.",
"'$)$)$)$]@!$~${$]$^$/$($_$:$<$[$}$|$1$_$2$3$m < 4$5$6$7$8$:$9$'$",
"c#+ + + 0$a$b$c$d$Z#e$f$#.+ #.{@{@{@#.+ + #.g$b#h$i$j$k$l$m$n$c#",
"o$2$2$2$p$q$r$s$t$u$v$w$3$2$2$2$2$2$2$2$2$2$_$x$y$z$A$B$k.C$D$E$",
"~#{@{@{@F$a$G$H$I$J$K$L${@{@{@{@{@{@{@{@{@{@n$M$' - N$O$P$Q$m${#",
"R$S$S$T$U$V$W$X$Y$Z$`$ %S$S$S$S$S$S$S$S$S$S$S$.%6 1.+%@%#%$%%%T$",
"&%*%*%c a$=%-%;%>%,%'%)%*%*%*%*%*%*%*%*%*%*%*%h@m 3 !%~%{%]%^%<$",
"/%_$_$V+]#(%_%:%<%[%}%:$_$_$_$_$_$_$_$_$_$_$_$_$*.|%1%2%3%4%5%6%",
"7%)%8%2.}.9%0%a%b%c%d%)%)%)%)%)%)%)%)%)%)%)%)%)%e%f%g%h%i%j%k%l%",
"E$7%$.g.m%n%o%p%q%r%e%7%7%7%7%7%7%7%7%7%7%7%7%7%7%s%k.t%7$u%v%l%"};
