/* XPM */
static char * nrm_lfclav_xpm[] = {
"32 32 320 2",
"  	c #C3C2C2",
". 	c #C0BFBF",
"+ 	c #BEBEBD",
"@ 	c #BCBCBB",
"# 	c #BBBBBA",
"$ 	c #BCBCBC",
"% 	c #B9B9B9",
"& 	c #B9B9B8",
"* 	c #BBBABA",
"= 	c #B8B7B7",
"- 	c #BAB9B8",
"; 	c #B7B6B5",
"> 	c #BEBBA4",
", 	c #C5C291",
"' 	c #BCBAA8",
") 	c #B8B8B8",
"! 	c #B5B5B4",
"~ 	c #DAD359",
"{ 	c #FFF000",
"] 	c #CCC77D",
"^ 	c #B8B8B7",
"/ 	c #B4B4B3",
"( 	c #DED64E",
"_ 	c #C7C485",
": 	c #22CE56",
"< 	c #22CB55",
"[ 	c #1EB34C",
"} 	c #188C3B",
"| 	c #126A2D",
"1 	c #0F5926",
"2 	c #1AA445",
"3 	c #35B85E",
"4 	c #50AA6B",
"5 	c #4BA968",
"6 	c #4BA868",
"7 	c #4BA767",
"8 	c #B9D428",
"9 	c #ADBA7E",
"0 	c #B3B3B2",
"a 	c #B7B7B6",
"b 	c #24DF5E",
"c 	c #24DB5C",
"d 	c #21C553",
"e 	c #1FB84E",
"f 	c #20C252",
"g 	c #20C754",
"h 	c #21CE57",
"i 	c #24E05E",
"j 	c #23DD5D",
"k 	c #22D158",
"l 	c #21CB56",
"m 	c #20C954",
"n 	c #21CC56",
"o 	c #21D058",
"p 	c #B4EB20",
"q 	c #4EEB59",
"r 	c #30CB61",
"s 	c #54AD6F",
"t 	c #7FA88C",
"u 	c #A8AEA9",
"v 	c #B2B0B1",
"w 	c #B6B4B5",
"x 	c #22D058",
"y 	c #22D259",
"z 	c #22D459",
"A 	c #23D55A",
"B 	c #23D85B",
"C 	c #20C653",
"D 	c #1FC151",
"E 	c #1FC152",
"F 	c #BFEB1C",
"G 	c #52EC6B",
"H 	c #59EE89",
"I 	c #69F094",
"J 	c #58EE88",
"K 	c #26E963",
"L 	c #3EBD66",
"M 	c #68A97C",
"N 	c #ADAFAE",
"O 	c #B0B0B0",
"P 	c #B4B4B4",
"Q 	c #1DAF4A",
"R 	c #1DB14B",
"S 	c #1EB44C",
"T 	c #1EB54C",
"U 	c #1EB64D",
"V 	c #1EB64E",
"W 	c #1FBD4F",
"X 	c #CBE513",
"Y 	c #2CD254",
"Z 	c #23D85C",
"` 	c #25E661",
" .	c #41EC76",
"..	c #6DF097",
"+.	c #88F4AB",
"@.	c #76F19E",
"#.	c #66A87A",
"$.	c #91A897",
"%.	c #A8ACA8",
"&.	c #B0AEAE",
"*.	c #B4B2B2",
"=.	c #1A9B41",
"-.	c #1A9C42",
";.	c #1B9F43",
">.	c #D7E30C",
",.	c #1DB54C",
"'.	c #2FEA69",
").	c #66F092",
"!.	c #4DED80",
"~.	c #24DB5D",
"{.	c #24D85C",
"].	c #23D259",
"^.	c #3DB964",
"/.	c #72A782",
"(.	c #AFADAD",
"_.	c #B3B1B1",
":.	c #1A9941",
"<.	c #1A9840",
"[.	c #19963F",
"}.	c #19953E",
"|.	c #19933E",
"1.	c #19923D",
"2.	c #18913D",
"3.	c #188F3C",
"4.	c #188E3C",
"5.	c #E1E408",
"6.	c #F1EB04",
"7.	c #199840",
"8.	c #1A9F44",
"9.	c #1CAB49",
"0.	c #1EBA4E",
"a.	c #30EA6A",
"b.	c #1FBD50",
"c.	c #1DAB48",
"d.	c #1EB84E",
"e.	c #49ED7D",
"f.	c #4AED7E",
"g.	c #63A678",
"h.	c #ADACAC",
"i.	c #B1B0B0",
"j.	c #17893A",
"k.	c #178538",
"l.	c #ECE705",
"m.	c #E4E407",
"n.	c #18923D",
"o.	c #1A9E42",
"p.	c #1BA847",
"q.	c #1DB34B",
"r.	c #1FC453",
"s.	c #1CAB48",
"t.	c #25E461",
"u.	c #3BEA71",
"v.	c #40A961",
"w.	c #43A862",
"x.	c #1BA043",
"y.	c #F7EC02",
"z.	c #D8DC08",
"A.	c #157C34",
"B.	c #168338",
"C.	c #178E3C",
"D.	c #18953F",
"E.	c #199D42",
"F.	c #1BA445",
"G.	c #1CA445",
"H.	c #157E35",
"I.	c #157933",
"J.	c #21CD57",
"K.	c #1DAE4A",
"L.	c #1BA244",
"M.	c #198437",
"N.	c #CAD40B",
"O.	c #136F2F",
"P.	c #147532",
"Q.	c #157C35",
"R.	c #168237",
"S.	c #168839",
"T.	c #1DAE49",
"U.	c #157B34",
"V.	c #12682C",
"W.	c #11662B",
"X.	c #168739",
"Y.	c #1BA245",
"Z.	c #1B9D42",
"`.	c #178839",
" +	c #268A33",
".+	c #BFCD0D",
"++	c #12692D",
"@+	c #12662B",
"#+	c #137030",
"$+	c #147732",
"%+	c #157E36",
"&+	c #199640",
"*+	c #1CA546",
"=+	c #178A3A",
"-+	c #0E5022",
";+	c #0F5725",
">+	c #178739",
",+	c #318D31",
"'+	c #B4C60F",
")+	c #116029",
"!+	c #11632A",
"~+	c #147833",
"{+	c #137230",
"]+	c #105F28",
"^+	c #0C481F",
"/+	c #0A3919",
"(+	c #126C2E",
"_+	c #3F932C",
":+	c #A6BF11",
"<+	c #11652A",
"[+	c #105E28",
"}+	c #106029",
"|+	c #11662C",
"1+	c #126D2E",
"2+	c #137532",
"3+	c #137231",
"4+	c #168538",
"5+	c #0F5524",
"6+	c #0B3F1B",
"7+	c #072912",
"8+	c #4A982A",
"9+	c #9BB713",
"0+	c #116129",
"a+	c #105A26",
"b+	c #11652B",
"c+	c #126B2D",
"d+	c #13702F",
"e+	c #0C461E",
"f+	c #093015",
"g+	c #072611",
"h+	c #0B431C",
"i+	c #0E4F23",
"j+	c #549D27",
"k+	c #8DAE15",
"l+	c #0F5625",
"m+	c #105C27",
"n+	c #116229",
"o+	c #11682C",
"p+	c #0E5324",
"q+	c #0D4B20",
"r+	c #093516",
"s+	c #072711",
"t+	c #105725",
"u+	c #6E9B7C",
"v+	c #769F83",
"w+	c #62A223",
"x+	c #81A616",
"y+	c #137431",
"z+	c #0F5825",
"A+	c #093014",
"B+	c #105A27",
"C+	c #7C9B85",
"D+	c #A3A1A2",
"E+	c #A7A5A6",
"F+	c #168037",
"G+	c #6DA620",
"H+	c #739D19",
"I+	c #0E5223",
"J+	c #0F5A27",
"K+	c #106129",
"L+	c #1BA746",
"M+	c #189640",
"N+	c #1A7736",
"O+	c #34854D",
"P+	c #5F966F",
"Q+	c #949E97",
"R+	c #A1A0A0",
"S+	c #A5A4A4",
"T+	c #78AA1D",
"U+	c #68951A",
"V+	c #0D4F21",
"W+	c #137833",
"X+	c #1CAC49",
"Y+	c #2FA353",
"Z+	c #A09E9F",
"`+	c #A4A3A4",
" @	c #408C29",
".@	c #71A11C",
"+@	c #719D1A",
"@@	c #2F7123",
"#@	c #0D4F22",
"$@	c #0E5524",
"%@	c #0F5E28",
"&@	c #147C35",
"*@	c #1CAE4A",
"=@	c #499C63",
"-@	c #9F9E9E",
";@	c #A4A3A3",
">@	c #136D2E",
",@	c #0E4F21",
"'@	c #0D491F",
")@	c #0D4D21",
"!@	c #158338",
"~@	c #679A76",
"{@	c #9F9D9D",
"]@	c #A4A2A2",
"^@	c #147431",
"/@	c #168A3B",
"(@	c #1AA746",
"_@	c #7F9A88",
":@	c #9D9C9D",
"<@	c #A2A1A2",
"[@	c #0D4C20",
"}@	c #0C431D",
"|@	c #1BA344",
"1@	c #949995",
"2@	c #9C9A9B",
"3@	c #A19FA0",
"4@	c #167F36",
"5@	c #0B411B",
"6@	c #0C441E",
"7@	c #18923E",
"8@	c #9B9A9B",
"9@	c #9F9E9F",
"0@	c #147632",
"a@	c #0C491F",
"b@	c #10622A",
"c@	c #189740",
"d@	c #2D9D4F",
"e@	c #A3A2A3",
"  . . . . . . . . . . . . . . . . . . . . . . . . . . . . . .   ",
"+ @ @ @ @ @ @ @ @ @ @ @ @ @ @ @ @ @ @ @ @ @ @ @ @ @ @ @ @ @ @ + ",
"+ # # # # # # # # # # # # # # # # # # # # # # # # # # # # # # + ",
"$ % % % % % % % % % % % % % % % % % % % % % % % % % % % % % % $ ",
"@ & & & & & & & & & & & & & & & & & & & & & & & & & & & & & & @ ",
"* = = = = = = = = = = = = = = = = = = = = = = = = = = = = = = * ",
"- ; ; ; ; ; ; ; ; ; ; ; ; ; > , , ' ; ; ; ; ; ; ; ; ; ; ; ; ; - ",
") ! ! ! ! ! ! ! ! ! ! ! ! ! ~ { { ] ! ! ! ! ! ! ! ! ! ! ! ! ! ) ",
"^ / / / / / / / / / / / / / ( { { _ / / / / / / / / / / / / / ^ ",
": < [ } | 1 2 3 4 5 6 7 7 7 8 { { 9 0 0 0 0 0 0 0 0 0 0 0 0 0 a ",
"b c d e f g h i j k l m n o p { { q r s t u v v v v v v v v v w ",
"x y z A B B z y : C D E k z F { { G H I J K L M N O O O O O O P ",
"Q R S T T T T T U U T V V W X { { Y Z `  ...+.@.#.$.%.&.&.&.&.*.",
"=.=.-.-.-.-.=.=.=.=.=.=.=.;.>.{ { R ,.W h '.).!.~.{.].^./.(.(._.",
"-.:.<.[.}.}.|.1.2.3.3.4.4.3.5.{ 6.7.8.9.0.h a.b.c.d.A e.f.g.h.i.",
";.-.=.:.<.[.}.|.1.2.3.} j.k.l.{ m.j.n.o.p.q.r.Q =.3.|.s.t.u.v.w.",
"x.x.-.=.:.<.[.[.|.1.2.4.j.k.y.{ z.A.B.C.D.E.F.s.G.3.H.I.2.J.f K.",
"L.x.;.-.=.:.<.[.|.1.2.4.j.M.{ { N.O.P.Q.R.S.C.K.T.4.U.V.W.X.Y.-.",
"G.L.;.Z.-.:.<.[.|.1.2.} `. +{ { .+++@+| #+$+%+&+*+=+I.@+-+;+4.=.",
"*+L.;.Z.-.:.<.[.|.1.3.} >+,+{ { '+@+)+!+++#+~+%+3.B.{+]+^+/+(+`.",
"*+L.;.Z.-.:.<.[.|.1.3.=+k._+{ { :+<+[+}+|+1+2+3+4+U.V.5+6+7+-+{+",
"*+G.x.Z.=.:.<.}.|.2.4.j.B.8+{ { 9+0+a+[+b+c+2+c+O.d+a+e+f+g+h+i+",
"*+L.x.Z.=.<.<.}.|.2.4.`.B.j+{ { k+]+l+m+n+o+2+2+p+]+q+r+s+t+u+v+",
"*+L.;.Z.=.:.<.}.1.3.} `.R.w+{ { x+m+5+1 ]+!+y+C.z+e+/+A+B+C+D+E+",
"*+L.;.-.=.<.[.|.2.3.=+>+F+G+{ { H+1 I+l+J+K+y+L+M+N+O+P+Q+R+R+S+",
"*+L.;.-.:.<.}.1.2.4.} k.H.T+{ { U+l+V+p+z+]+W+X+Y+Z+Z+Z+Z+Z+Z+`+",
"*+x.Z.-.:.[.}.1.3.4.j.B.A. @.@+@@@I+q+#@$@%@&@*@=@-@-@-@-@-@-@;@",
"L.;.Z.=.<.[.|.2.3.} j.R.U.P.>@<+m+,@'@)@I+[+!@s.~@{@{@{@{@{@{@]@",
"L.;.-.:.<.}.|.2.4.} `.F+I.^@| 0+1 )@e+q+#@[+/@(@_@:@:@:@:@:@:@<@",
"x.Z.=.:.[.}.1.3.} =+>+F+I.{+++)+;+[@}@^+[@]+C.|@1@2@2@2@2@2@2@3@",
";.-.:.<.}.1.2.4.} j.k.4@~+d+V.]+5+'@5@6@q+K+7@L.8@8@8@8@8@8@8@9@",
"Z.-.:.[.|.1.3.} =+`.B.H.0@O.@+[+I+e+6+}@a@b@c@d@9@9@9@9@9@9@9@e@"};
