/* XPM */
static char * nrm_lffkleg_xpm[] = {
"32 32 382 2",
"  	c #C3C2C2",
". 	c #C0BFBF",
"+ 	c #B7B6B6",
"@ 	c #BABABA",
"# 	c #BFBFBF",
"$ 	c #B6B6B6",
"% 	c #A9A8A8",
"& 	c #8E8E8E",
"* 	c #878686",
"= 	c #B9B8B8",
"- 	c #BEBDBD",
"; 	c #BEBEBD",
"> 	c #BCBCBB",
", 	c #B7B7B7",
"' 	c #C0C0C0",
") 	c #C4C4C4",
"! 	c #B8B8B8",
"~ 	c #C5C5C5",
"{ 	c #A3A3A3",
"] 	c #7B7B7B",
"^ 	c #B2B2B1",
"/ 	c #BBBBBA",
"( 	c #CCCCCC",
"_ 	c #D4D4D5",
": 	c #CFCFCF",
"< 	c #C9C8C8",
"[ 	c #BDBDBD",
"} 	c #AEAFAF",
"| 	c #898689",
"1 	c #5C5E5C",
"2 	c #A6A6A5",
"3 	c #B6B6B5",
"4 	c #969695",
"5 	c #000000",
"6 	c #3E3E3E",
"7 	c #0C0C0C",
"8 	c #898988",
"9 	c #BCBCBC",
"0 	c #B9B9B9",
"a 	c #B3B3B3",
"b 	c #AFAFAF",
"c 	c #9B9B9B",
"d 	c #919191",
"e 	c #858185",
"f 	c #5F715F",
"g 	c #2E8E2E",
"h 	c #989A98",
"i 	c #B0B0B0",
"j 	c #888888",
"k 	c #ADADAD",
"l 	c #565656",
"m 	c #B9B9B8",
"n 	c #C5C5C4",
"o 	c #9C9C9C",
"p 	c #787878",
"q 	c #656565",
"r 	c #5D5D5D",
"s 	c #534E53",
"t 	c #3B893B",
"u 	c #2CC42C",
"v 	c #6D8C6D",
"w 	c #ACACAB",
"x 	c #B8B8B7",
"y 	c #888887",
"z 	c #252525",
"A 	c #4A4A4A",
"B 	c #BBBABA",
"C 	c #B8B7B7",
"D 	c #B2B1B1",
"E 	c #6B6B6B",
"F 	c #3F3F3F",
"G 	c #3B3B3B",
"H 	c #353435",
"I 	c #434543",
"J 	c #378E37",
"K 	c #43D243",
"L 	c #3D963C",
"M 	c #A3A2A2",
"N 	c #B4B3B3",
"O 	c #626262",
"P 	c #565555",
"Q 	c #BAB9B8",
"R 	c #B7B6B5",
"S 	c #C3C3C3",
"T 	c #848382",
"U 	c #717171",
"V 	c #797877",
"W 	c #908F8F",
"X 	c #768C74",
"Y 	c #41D841",
"Z 	c #2FC92F",
"` 	c #849382",
" .	c #AEADAC",
"..	c #858584",
"+.	c #868585",
"@.	c #B5B5B4",
"#.	c #5C5C5B",
"$.	c #929291",
"%.	c #A0A0A0",
"&.	c #A4A4A3",
"*.	c #A5A5A4",
"=.	c #A8A8A7",
"-.	c #48BA47",
";.	c #4AF14A",
">.	c #4B924B",
",.	c #838382",
"'.	c #545454",
").	c #181818",
"!.	c #A9A9A8",
"~.	c #B4B4B3",
"{.	c #C2C2C2",
"].	c #6C6C6B",
"^.	c #9A9A99",
"/.	c #B3B3B2",
"(.	c #7AA57A",
"_.	c #51F951",
":.	c #31C331",
"<.	c #919890",
"[.	c #8A8A8A",
"}.	c #90908F",
"|.	c #242424",
"1.	c #60605F",
"2.	c #B7B7B6",
"3.	c #B0B0AF",
"4.	c #737373",
"5.	c #7D7D7D",
"6.	c #9E9E9D",
"7.	c #AFAFAE",
"8.	c #AEAFAD",
"9.	c #4BD14C",
"0.	c #49F149",
"a.	c #598F59",
"b.	c #B1B1B0",
"c.	c #B6B4B5",
"d.	c #B2B0B1",
"e.	c #AFAEAE",
"f.	c #CBCBCB",
"g.	c #606060",
"h.	c #8C8B8C",
"i.	c #A2A0A1",
"j.	c #B0AEAF",
"k.	c #B1AFB0",
"l.	c #68A967",
"m.	c #59FD59",
"n.	c #33B433",
"o.	c #999998",
"p.	c #ACAAAB",
"q.	c #B4B4B4",
"r.	c #B1B1B1",
"s.	c #585858",
"t.	c #8F8F8F",
"u.	c #A5A5A5",
"v.	c #9FA89F",
"w.	c #4DE24D",
"x.	c #43EC43",
"y.	c #668D66",
"z.	c #A4A4A4",
"A.	c #B4B2B2",
"B.	c #B0AEAE",
"C.	c #BFBEBE",
"D.	c #A7A7A7",
"E.	c #5D5C5C",
"F.	c #939191",
"G.	c #A8A6A6",
"H.	c #AEACAC",
"I.	c #5AB259",
"J.	c #5CFE5C",
"K.	c #38A738",
"L.	c #9B9A9A",
"M.	c #ACAAAA",
"N.	c #B3B1B1",
"O.	c #AFADAD",
"P.	c #ABA9A9",
"Q.	c #CDCDCD",
"R.	c #898989",
"S.	c #6C6C6C",
"T.	c #979595",
"U.	c #A9A7A7",
"V.	c #8CA28B",
"W.	c #4FF24F",
"X.	c #37DC37",
"Y.	c #6F896D",
"Z.	c #A5A3A3",
"`.	c #B1B0B0",
" +	c #ADACAC",
".+	c #6D6D6D",
"++	c #797979",
"@+	c #9A9999",
"#+	c #AAA9A9",
"$+	c #4ABF4A",
"%+	c #39F139",
"&+	c #448C43",
"*+	c #B0AFAF",
"=+	c #ACABAB",
"-+	c #A8A7A7",
";+	c #5F5F5F",
">+	c #888787",
",+	c #9D9C9C",
"'+	c #ABAAAA",
")+	c #89A188",
"!+	c #50ED50",
"~+	c #2FAC2F",
"{+	c #909290",
"]+	c #A5A4A4",
"^+	c #AEADAE",
"/+	c #AAA9AA",
"(+	c #9D9C9D",
"_+	c #838283",
":+	c #9F9E9F",
"<+	c #A9A8A9",
"[+	c #96AA96",
"}+	c #4EEC4E",
"|+	c #18B318",
"1+	c #798579",
"2+	c #ADACAD",
"3+	c #ADADAE",
"4+	c #7A7A7A",
"5+	c #646364",
"6+	c #9B9A9B",
"7+	c #A8A7A8",
"8+	c #92AB92",
"9+	c #50F550",
"0+	c #18C218",
"a+	c #637C63",
"b+	c #9A999A",
"c+	c #A7A6A7",
"d+	c #9E9E9E",
"e+	c #515050",
"f+	c #949393",
"g+	c #8EA78D",
"h+	c #4BF44B",
"i+	c #17C617",
"j+	c #527751",
"k+	c #969595",
"l+	c #A7A6A6",
"m+	c #A6A5A5",
"n+	c #979697",
"o+	c #979797",
"p+	c #575656",
"q+	c #7B7A7A",
"r+	c #9E9D9D",
"s+	c #8AAF8A",
"t+	c #4BF24B",
"u+	c #18CE18",
"v+	c #437443",
"w+	c #A2A1A1",
"x+	c #6A6A6A",
"y+	c #5B5A5A",
"z+	c #979696",
"A+	c #A4A3A3",
"B+	c #87A886",
"C+	c #4BF54B",
"D+	c #1AD719",
"E+	c #367535",
"F+	c #8E8D8D",
"G+	c #A09F9F",
"H+	c #A4A5A4",
"I+	c #7C7C7C",
"J+	c #4C4C4C",
"K+	c #84AA83",
"L+	c #4DF44D",
"M+	c #1BE01B",
"N+	c #2B782B",
"O+	c #8B8A8A",
"P+	c #929292",
"Q+	c #8C8C8C",
"R+	c #535352",
"S+	c #999999",
"T+	c #A2A2A2",
"U+	c #80B080",
"V+	c #4DF34D",
"W+	c #1EE91E",
"X+	c #1E801E",
"Y+	c #878787",
"Z+	c #A7A5A6",
"`+	c #A3A1A2",
" @	c #9B999A",
".@	c #626363",
"+@	c #5B5A5B",
"@@	c #939192",
"#@	c #A09E9F",
"$@	c #7FAC7E",
"%@	c #28EE28",
"&@	c #129112",
"*@	c #787F77",
"=@	c #999798",
"-@	c #A1A0A0",
";@	c #717071",
">@	c #474747",
",@	c #7FA27F",
"'@	c #4CF54C",
")@	c #39F439",
"!@	c #13AE13",
"~@	c #617860",
"{@	c #A4A3A4",
"]@	c #808080",
"^@	c #464646",
"/@	c #777677",
"(@	c #979596",
"_@	c #9F9D9E",
":@	c #849B83",
"<@	c #33D733",
"[@	c #2FE730",
"}@	c #0FAD0F",
"|@	c #477747",
"1@	c #8E8D8E",
"2@	c #9D9B9C",
"3@	c #9F9E9E",
"4@	c #9A9A9A",
"5@	c #AAAAAA",
"6@	c #727172",
"7@	c #696868",
"8@	c #929191",
"9@	c #8EA18D",
"0@	c #35CB35",
"a@	c #51DB51",
"b@	c #51D250",
"c@	c #26AE26",
"d@	c #7C857B",
"e@	c #989797",
"f@	c #A4A2A2",
"g@	c #9F9D9D",
"h@	c #414041",
"i@	c #636262",
"j@	c #8F8D8D",
"k@	c #9D9B9B",
"l@	c #939C91",
"m@	c #43CB42",
"n@	c #6BC86C",
"o@	c #3FAA3F",
"p@	c #20A520",
"q@	c #369136",
"r@	c #828D80",
"s@	c #9C9A9A",
"t@	c #9E9C9C",
"u@	c #A2A1A2",
"v@	c #A1A1A1",
"w@	c #7E7E7E",
"x@	c #595959",
"y@	c #3A393A",
"z@	c #9C9B9C",
"A@	c #7C917C",
"B@	c #518651",
"C@	c #298329",
"D@	c #509C50",
"E@	c #4AAA4A",
"F@	c #259025",
"G@	c #5F875F",
"H@	c #989798",
"I@	c #A19FA0",
"J@	c #9C9A9B",
"K@	c #999898",
"L@	c #C7C7C7",
"M@	c #ADAEAE",
"N@	c #646464",
"O@	c #323232",
"P@	c #4E4D4E",
"Q@	c #7E7C7D",
"R@	c #8F8D8E",
"S@	c #9A9899",
"T@	c #989697",
"U@	c #667E66",
"V@	c #59825A",
"W@	c #607A5F",
"X@	c #7A8279",
"Y@	c #929091",
"Z@	c #908F90",
"`@	c #7D7C7D",
" #	c #605F60",
".#	c #6C6B6C",
"+#	c #828182",
"@#	c #969596",
"##	c #999899",
"$#	c #8B8A8B",
"%#	c #898889",
"&#	c #8D8C8D",
"*#	c #949394",
"=#	c #A3A2A3",
"-#	c #959495",
";#	c #878687",
">#	c #919091",
",#	c #9E9D9E",
"  . . . . . . . . + @ # $ % & * = - . . . . . . . . . . . . .   ",
"; > > > > > > > > , ' ) ! ~ ' { ] ^ / > > > > > > > > > > > > ; ",
"; / / / / / / / / ( _ : < [ } | 1 2 3 / 4 5 5 5 6 4 7 / 4 7 8 ; ",
"9 0 0 0 0 0 0 0 ! a @ b c d e f g h i 0 j 5 0 0 0 j 5 k 7 l 0 9 ",
"> m m m m m m m 3 n o p q r s t u v w x y 5 m m m y 5 z A m m > ",
"B C C C C C C C D ( E F G H I J K L M N * 5 5 5 O * 5 5 P C C B ",
"Q R R R R R R R D S l T U V W X Y Z `  ...5 R R R +.5 +.5 +.R Q ",
"! @.@.@.@.@.@.@.x b #.$.%.&.*.=.-.;.>.&.,.5 @.@.@...5 @.'.).!.! ",
"x ~.~.~.~.~.~.~.{.d ].^.w ^ ^ /.(._.:.<.[.7 ~.~.~.}.7 ~.=.|.1.x ",
"2././././././.3.( 4.5.6.7./././.8.9.0.a.*.b./././././././././.2.",
"c.d.d.d.d.d.d.e.f.g.h.i.j.d.d.d.k.l.m.n.o.p.d.d.d.d.d.d.d.d.d.c.",
"q.i i i i i i r.' s.t.u.b i i i i v.w.x.y.z.b i i i i i i i i q.",
"A.B.B.B.B.B.B.C.D.E.F.G.B.B.B.B.B.H.I.J.K.L.M.B.B.B.B.B.B.B.B.A.",
"N.O.O.O.O.O.P.Q.R.S.T.U.O.O.O.O.O.O.V.W.X.Y.Z.H.O.O.O.O.O.O.O.N.",
"`. + + + + +% f..+++@+#+ + + + + + +#+$+%+&+L.#+ + + + + + + +`.",
"*+=+=+=+=+=+-+~ ;+>+,+#+=+=+=+=+=+=+'+)+!+~+{+]+=+=+=+=+=+=+=+*+",
"^+/+/+/+/+/+(+D.;+_+:+<+/+/+/+/+/+/+/+[+}+|+1+:+<+/+/+/+/+/+/+^+",
"2+<+<+<+<+<+(+3+4+5+6+7+<+<+<+<+<+<+<+8+9+0+a+b+c+<+<+<+<+<+<+2+",
"=+-+-+-+-+-+d+z.R.e+f+M -+-+-+-+-+-+-+g+h+i+j+k+]+-+-+-+-+-+-+=+",
"'+l+l+l+l+l+m+n+o+p+q+r+m+l+l+l+l+l+l+s+t+u+v+d w+l+l+l+l+l+l+'+",
"#+m+m+m+m+m+]+W %.x+y+z+A+m+m+m+m+m+m+B+C+D+E+F+G+m+m+m+m+m+m+#+",
"% ]+]+]+]+]+]+& H+I+J+F+G+]+]+]+]+]+]+K+L+M+N+O+r+]+]+]+]+]+]+% ",
"D.{ { { { { { P+u.Q+R+4.S+T+{ { { { { U+V+W+X+Y+c { { { { { { D.",
"Z+`+`+`+`+`+`+ @%.S+.@+@@@#@`+`+`+`+`+$@t+%@&@*@=@i.`+`+`+`+`+Z+",
"]+-@-@-@-@-@-@G+o z.;@>@O+L.-@-@-@-@-@,@'@)@!@~@f+G+-@-@-@-@-@]+",
"{@#@#@#@#@#@#@#@o r.]@^@/@(@_@#@#@#@#@:@<@[@}@|@1@2@#@#@#@#@#@{@",
"A+3@3@3@3@3@3@3@4@5@6@G 7@8@r+3@3@3@3@9@0@a@b@c@d@e@r+3@3@3@3@A+",
"f@g@g@g@g@g@g@g@~ , x+h@i@j@k@g@g@g@g@l@m@n@o@p@q@r@s@t@g@g@g@f@",
"u@(+(+(+(+(+:+v@w@S.x@y@O h.b+(+(+(+(+z@A@B@C@D@E@F@G@H@z@(+(+u@",
"I@J@J@J@J@K@L@M@N@O@P@;+Q@R@S@J@J@J@J@J@T@R@,.U@V@W@X@Y@S@J@J@I@",
":+6+6+6+6+1@Z@`@ #.#] +#h.@#b+6+6+6+6+6+b+##@#Z@$#%#&#*###6+6+:+",
"=#:+:+:+:+(+-#[.;#[.>#n+z@,#:+:+:+:+:+:+:+:+:+,#(+6+(+,#,#:+:+=#"};
