/* XPM */
static char * nrm_back_all_xpm[] = {
"32 32 285 2",
"  	c #C3C2C2",
". 	c #C0BFBF",
"+ 	c #BDBCBC",
"@ 	c #787B7B",
"# 	c #848A8A",
"$ 	c #8E9192",
"% 	c #7B7B7B",
"& 	c #B8B7B7",
"* 	c #BEBEBD",
"= 	c #BCBCBB",
"- 	c #AEAEAE",
"; 	c #8E9393",
"> 	c #9CA6A5",
", 	c #7E8383",
"' 	c #696B6B",
") 	c #676868",
"! 	c #636463",
"~ 	c #A2A2A1",
"{ 	c #BBBBBA",
"] 	c #818686",
"^ 	c #9DA9AA",
"/ 	c #696E6E",
"( 	c #4F4F4F",
"_ 	c #5E5E5E",
": 	c #6E6E6E",
"< 	c #717171",
"[ 	c #5F5F5F",
"} 	c #A4A4A3",
"| 	c #BCBCBC",
"1 	c #B9B9B9",
"2 	c #979898",
"3 	c #798283",
"4 	c #555A5A",
"5 	c #383838",
"6 	c #494949",
"7 	c #696969",
"8 	c #6D6D6D",
"9 	c #676767",
"0 	c #7A7A7A",
"a 	c #B9B9B8",
"b 	c #7C7F7E",
"c 	c #606768",
"d 	c #303131",
"e 	c #333232",
"f 	c #4C4C4C",
"g 	c #636363",
"h 	c #727272",
"i 	c #666666",
"j 	c #646464",
"k 	c #BBBABA",
"l 	c #B5B4B4",
"m 	c #717474",
"n 	c #4C5151",
"o 	c #272828",
"p 	c #353535",
"q 	c #686868",
"r 	c #BAB9B8",
"s 	c #B7B6B5",
"t 	c #A5A4A3",
"u 	c #64696A",
"v 	c #35393A",
"w 	c #242424",
"x 	c #393939",
"y 	c #4B4B4B",
"z 	c #5B5B5B",
"A 	c #626262",
"B 	c #606060",
"C 	c #5F5E5E",
"D 	c #B8B8B8",
"E 	c #B5B5B4",
"F 	c #909190",
"G 	c #555B5B",
"H 	c #252728",
"I 	c #3B3B3B",
"J 	c #575757",
"K 	c #5D5D5D",
"L 	c #5C5C5C",
"M 	c #B8B8B7",
"N 	c #B4B4B3",
"O 	c #7F8080",
"P 	c #484E4E",
"Q 	c #1E1F1F",
"R 	c #252525",
"S 	c #3A3A3A",
"T 	c #555555",
"U 	c #5A5A5A",
"V 	c #B7B7B6",
"W 	c #B3B3B2",
"X 	c #737575",
"Y 	c #383D3D",
"Z 	c #171818",
"` 	c #484848",
" .	c #545454",
"..	c #595959",
"+.	c #B6B4B5",
"@.	c #B2B0B1",
"#.	c #767677",
"$.	c #2A2D2E",
"%.	c #131314",
"&.	c #272626",
"*.	c #474747",
"=.	c #525252",
"-.	c #565656",
";.	c #535353",
">.	c #636263",
",.	c #B4B4B4",
"'.	c #B0B0B0",
").	c #838383",
"!.	c #191B1B",
"~.	c #0A0A0A",
"{.	c #212121",
"].	c #363636",
"^.	c #454545",
"/.	c #515151",
"(.	c #444444",
"_.	c #858585",
":.	c #B4B2B2",
"<.	c #B0AEAE",
"[.	c #A9A7A7",
"}.	c #535455",
"|.	c #0C0D0E",
"1.	c #0E0E0E",
"2.	c #404040",
"3.	c #3D3D3D",
"4.	c #464646",
"5.	c #A2A1A1",
"6.	c #B3B1B1",
"7.	c #AFADAD",
"8.	c #858787",
"9.	c #889293",
"0.	c #2D3030",
"a.	c #020202",
"b.	c #131313",
"c.	c #232323",
"d.	c #2C2C2C",
"e.	c #373737",
"f.	c #757373",
"g.	c #B1B0B0",
"h.	c #ADACAC",
"i.	c #787C7D",
"j.	c #575C5D",
"k.	c #2A2C2B",
"l.	c #292929",
"m.	c #343434",
"n.	c #585858",
"o.	c #616161",
"p.	c #A4A3A3",
"q.	c #B0AFAF",
"r.	c #ACABAB",
"s.	c #797A7A",
"t.	c #363A3B",
"u.	c #121111",
"v.	c #2E2D2D",
"w.	c #AAA9A9",
"x.	c #AEADAE",
"y.	c #AAA9AA",
"z.	c #808081",
"A.	c #1A1D1D",
"B.	c #000000",
"C.	c #161616",
"D.	c #2B2C2C",
"E.	c #424242",
"F.	c #ADACAD",
"G.	c #A9A8A9",
"H.	c #9D9C9D",
"I.	c #424445",
"J.	c #3D4242",
"K.	c #3B3F3E",
"L.	c #929192",
"M.	c #A8A7A7",
"N.	c #A5A4A4",
"O.	c #767A7A",
"P.	c #6E7777",
"Q.	c #484A4A",
"R.	c #6B6B6B",
"S.	c #565555",
"T.	c #A7A6A6",
"U.	c #ABAAAA",
"V.	c #6D7171",
"W.	c #434748",
"X.	c #292828",
"Y.	c #434343",
"Z.	c #9A9A9A",
"`.	c #A6A5A5",
" +	c #666869",
".+	c #2A2C2C",
"++	c #1D1D1D",
"@+	c #4A4A4A",
"#+	c #908F8F",
"$+	c #A9A8A8",
"%+	c #646565",
"&+	c #1E2020",
"*+	c #161717",
"=+	c #474848",
"-+	c #414141",
";+	c #858484",
">+	c #A7A7A7",
",+	c #A3A3A3",
"'+	c #F1F1F1",
")+	c #EAEAEA",
"!+	c #989999",
"~+	c #DBDBDB",
"{+	c #1C1D1D",
"]+	c #464849",
"^+	c #595C5C",
"/+	c #686B6C",
"(+	c #969697",
"_+	c #E1E1E1",
":+	c #A7A5A6",
"<+	c #A3A1A2",
"[+	c #D8D7D7",
"}+	c #FBFBFB",
"|+	c #FFFFFF",
"1+	c #C2C1C2",
"2+	c #656C6C",
"3+	c #737979",
"4+	c #737676",
"5+	c #717374",
"6+	c #AAABAB",
"7+	c #999798",
"8+	c #A1A0A0",
"9+	c #EBEBEB",
"0+	c #E7E7E7",
"a+	c #F4F4F4",
"b+	c #E6E5E5",
"c+	c #CACACA",
"d+	c #696F6F",
"e+	c #454747",
"f+	c #A8A8A8",
"g+	c #868585",
"h+	c #A4A3A4",
"i+	c #A09E9F",
"j+	c #B6B5B6",
"k+	c #CAC9C9",
"l+	c #DADADA",
"m+	c #F7F7F7",
"n+	c #2F3031",
"o+	c #2B2B2B",
"p+	c #A4A4A4",
"q+	c #777677",
"r+	c #9F9E9E",
"s+	c #FCFCFC",
"t+	c #C9C9C9",
"u+	c #DAD9D9",
"v+	c #D2D1D1",
"w+	c #202020",
"x+	c #3F3F3F",
"y+	c #9C9C9C",
"z+	c #6F6F6F",
"A+	c #A4A2A2",
"B+	c #9F9D9D",
"C+	c #E7E6E6",
"D+	c #C9C8C8",
"E+	c #171919",
"F+	c #1E1E1E",
"G+	c #989898",
"H+	c #747373",
"I+	c #A2A1A2",
"J+	c #BEBEBE",
"K+	c #D5D5D5",
"L+	c #C8C7C8",
"M+	c #303233",
"N+	c #3C3C3C",
"O+	c #949494",
"P+	c #858485",
"Q+	c #A19FA0",
"R+	c #9C9A9B",
"S+	c #E4E4E4",
"T+	c #A8A6A7",
"U+	c #D5D4D4",
"V+	c #C7C6C7",
"W+	c #E5E5E5",
"X+	c #8E8E8E",
"Y+	c #9F9E9F",
"Z+	c #9B9A9B",
"`+	c #A8A7A8",
" @	c #A1A0A1",
".@	c #B4B3B4",
"+@	c #666868",
"@@	c #737373",
"#@	c #A3A2A3",
"$@	c #8A8A8B",
"%@	c #404242",
"&@	c #424141",
"*@	c #646364",
"  . . . . . . . . . . . . + @ # $ % & . . . . . . . . . . . .   ",
"* = = = = = = = = = = = - ; > , ' ) ! ~ = = = = = = = = = = = * ",
"* { { { { { { { { { { { ] ^ / ( _ : < [ } { { { { { { { { { { * ",
"| 1 1 1 1 1 1 1 1 1 1 2 3 4 5 6 7 % 8 9 0 1 1 1 1 1 1 1 1 1 1 | ",
"= a a a a a a a a a a b c d e f g h 7 i j a a a a a a a a a a = ",
"k & & & & & & & & & l m n o p f _ q i g _ & & & & & & & & & & k ",
"r s s s s s s s s s t u v w x y z g A B C s s s s s s s s s s r ",
"D E E E E E E E E E F G H w I y J _ [ K L E E E E E E E E E E D ",
"M N N N N N N N N N O P Q R S 6 T L L U K N N N N N N N N N N M ",
"V W W W W W W W W W X Y Z R S `  .....J z W W W W W W W W W W V ",
"+.@.@.@.@.@.@.@.@.@.#.$.%.&.S *.=.J -.;.>.@.@.@.@.@.@.@.@.@.@.+.",
",.'.'.'.'.'.'.'.'.'.).!.~.{.].^.( ;./.(._.'.'.'.'.'.'.'.'.'.'.,.",
":.<.<.<.<.<.<.<.<.<.[.}.|.1.o 5 2.(.3.4.5.<.<.<.<.<.<.<.<.<.<.:.",
"6.7.7.7.7.7.7.7.7.7.8.9.0.a.b.c.d.e.3.f.7.7.7.7.7.7.7.7.7.7.7.6.",
"g.h.h.h.h.h.h.h.h.h.i.j.k.l.m.*.-.n.o.T p.h.h.h.h.h.h.h.h.h.h.g.",
"q.r.r.r.r.r.r.r.r.r.s.t.u.v.(.-.o.K  .n.w.r.r.r.r.r.r.r.r.r.r.q.",
"x.y.y.y.y.y.y.y.y.y.z.A.B.C.D.S E.4.I < y.y.y.y.y.y.y.y.y.y.y.x.",
"F.G.G.G.G.G.G.G.G.G.H.I.J.K.I ^.f f 2.L.G.G.G.G.G.G.G.G.G.G.G.F.",
"r.M.M.M.M.M.M.M.M.M.N.O.P.Q.f j R.g S.T.M.M.M.M.M.M.M.M.M.M.M.r.",
"U.T.T.T.T.T.T.T.T.T.N.V.W.X.Y.K i _ /.Z.T.T.T.T.T.T.T.T.T.T.T.U.",
"w.`.`.`.`.`.`.`.`.`.`. +.+++I f -.n.@+#+`.`.`.`.`.`.`.`.`.`.`.w.",
"$+N.N.N.N.N.N.N.N.N.N.%+&+*+].=+;. .-+;+N.N.N.N.N.N.N.N.N.N.N.$+",
">+,+,+,+,+- '+)+,+,+,+!+~+{+]+^+/+(+_+).,+,+,+,+,+,+,+,+,+,+,+>+",
":+<+<+<+<+[+}+|+1+<+<+D |+2+3+4+5+6+|+7+<+<+<+<+<+<+<+<+<+<+<+:+",
"N.8+8+8+8+9+0+a+b+8+8+c+|+d+e+/.i f+|+g+8+8+8+8+8+8+8+8+8+8+8+N.",
"h+i+i+i+j+|+k+l+m+i+i+k+|+n+o+^.n.p+|+q+i+i+i+i+i+i+i+i+i+i+i+h+",
"p.r+r+r+l+s+t+u+|+v+r+t+|+&+w+x+( y+|+z+r+r+r+r+r+r+r+r+r+r+r+p.",
"A+B+B+B+a+|+|+|+|+C+B+D+|+E+F+2.;.G+|+H+B+B+B+B+B+B+B+B+B+B+B+A+",
"I+H.H.J+|+J+H.H.K+}+G.L+|+M+M+N+=.O+|+P+H.H.H.H.H.H.H.H.H.H.H.I+",
"Q+R+R+S+a+R+R+R+T+|+U+V+|+|+|+|+W+X+|+|+|+|+|+R+R+R+R+R+R+R+R+Q+",
"Y+Z+Z+x.`+Z+Z+Z+Z+x.`+ @.@h++@R.@@=.y..@.@.@.@Z+Z+Z+Z+Z+Z+Z+Z+Y+",
"#@Y+Y+Y+Y+Y+Y+Y+Y+Y+Y+Y+Y+$@%@&@-.*@Y+Y+Y+Y+Y+Y+Y+Y+Y+Y+Y+Y+Y+#@"};
