/* XPM */
static char *nudge[] = {
/* columns rows colors chars-per-pixel */
"32 32 136 2",
"   c #010101",
".  c #0C0C0C",
"X  c #141414",
"o  c #1A1A1A",
"O  c #1F1F20",
"+  c #1F201F",
"@  c #22211C",
"#  c #2E2C19",
"$  c #37361E",
"%  c #3F3D16",
"&  c #232323",
"*  c #272728",
"=  c #272827",
"-  c #272828",
";  c #282727",
":  c #282728",
">  c #282827",
",  c #2B2C2B",
"<  c #302E21",
"1  c #3E3C2E",
"2  c #333333",
"3  c #3D3C32",
"4  c #3A3A3A",
"5  c #3F4040",
"6  c #403F40",
"7  c #44421D",
"8  c #4D4A1C",
"9  c #594F02",
"0  c #504D12",
"q  c #5C5505",
"w  c #56531A",
"e  c #434227",
"r  c #4B4923",
"t  c #42423D",
"y  c #544F2D",
"u  c #514F31",
"i  c #595628",
"p  c #605501",
"a  c #645B04",
"s  c #615C0F",
"d  c #695D02",
"f  c #625E20",
"g  c #685F22",
"h  c #605D36",
"j  c #6D6507",
"k  c #6D6609",
"l  c #66621D",
"z  c #6E6A1D",
"x  c #776902",
"c  c #726B09",
"v  c #7C6F04",
"b  c #736E16",
"n  c #76700A",
"m  c #797209",
"M  c #757011",
"N  c #676429",
"B  c #6F662A",
"V  c #6D6A3C",
"C  c #736928",
"Z  c #706D35",
"A  c #756C38",
"S  c #7B7732",
"D  c #7B773A",
"F  c #434343",
"G  c #484747",
"H  c #484748",
"J  c #4B4A43",
"K  c #4A4A4A",
"L  c #555346",
"P  c #54534C",
"I  c #585743",
"U  c #59574B",
"Y  c #5B5A4B",
"T  c #525252",
"R  c #585753",
"E  c #5E5B51",
"W  c #5B5B5B",
"Q  c #605F51",
"!  c #62604A",
"~  c #696743",
"^  c #616058",
"/  c #68665C",
"(  c #6F6E54",
")  c #716F49",
"_  c #736F54",
"`  c #7E7746",
"'  c #797349",
"]  c #7C7A4B",
"[  c #7D7C5D",
"{  c #646464",
"}  c #6C6C6C",
"|  c #747266",
" . c #73726C",
".. c #7E7D6F",
"X. c #727272",
"o. c #797974",
"O. c #7C7C7C",
"+. c #7E7F80",
"@. c #827909",
"#. c #8E7C00",
"$. c #927F00",
"%. c #8C7F28",
"&. c #948404",
"*. c #988905",
"=. c #89803F",
"-. c #9C8C24",
";. c #9D8E2D",
":. c #A28F16",
">. c #A29205",
",. c #AC9500",
"<. c #AE9B04",
"1. c #A2901B",
"2. c #B29B00",
"3. c #A29125",
"4. c #BDA400",
"5. c #BBA50F",
"6. c #BFA80F",
"7. c #BFA918",
"8. c #C4AA00",
"9. c #C1AB19",
"0. c #C9B001",
"q. c #CEB50B",
"w. c #D3B700",
"e. c #D2B802",
"r. c #DBBF07",
"t. c #DDC100",
"y. c #E2C403",
"u. c #E6C801",
"i. c #ECCD00",
"p. c #848484",
"a. c gray56",
"s. c #ACACAC",
"d. c #B0B0B0",
"f. c #DEDEDE",
"g. c #EEEEEE",
"h. c gray100",
/* pixels */
"p.p.p.p.p.p.p.p.p.p.p.p.p.p.p.p.p.p.p.p.p.p.p.p.p.p.p.p.p.p.p.p.",
"+.O.+.o.] S D [ O.O.+.+.+.+.+.O.+.+.+.+.+.+.+.+.+.+.+.O.+.+.+.+.",
"O.o.m @.>.2.*.v m o.O.O.o.O.o.O.o.O.O.o.O.X.O.O.O.O.X.O.O.O.o.o.",
"X.| @.<.e.t.0.*.c c  . .o. .X.X.X.X.X.X.X.X.X.X.X.X.X.X.X.X.X.X.",
"} ) *.t.i.i.y.4.v k ( } } } } } } } } } } } } } } } } } } } } } ",
"{ Z >.t.i.i.t.2.x a ) { { { { { { { { { } { { { { { } { { { } { ",
"{ V &.w.u.y.8.&.p a ~ { { { { { { _ / { { { { { { { { W { W { { ",
"W ! m &.,.,.#.d a c Q ' W W W W W ` y.=.W W R W W W W W W W W W ",
"R R n j d q 9 q j m E t.y.;.E R T R i.9.T T R T T T T T W T W T ",
"T K P h z b b N I P R 3.y.i.y.3.Y T 7.u.R T T P T T T T T K T T ",
"K K K K K K K K K K K K L ;.y.i.u.3.-.i.A K K K K K K K K K H K ",
"H F F F F H F H H F F F F F J %.t.i.i.i.-.F G J F F F F F F F F ",
"6 F 4 5 6 6 4 4 F 4 F 4 F 5 4 F F 1.i.i.q.5 4 t i l f y F F 6 6 ",
"4 4 4 4 4 4 4 4 4 4 4 4 4 4 4 C 6.i.i.6.B 4 m @.>.<.&.m n 4 4 4 ",
"2 4 2 4 4 2 4 4 4 2 4 2 2 3 5.i.u.:.u 4 2 3 @.<.w.t.0.*.c c 3 2 ",
"2 , 2 , , 2 , 2 2 , 2 , 2 2 2 g 1 2 2 , 2 r *.t.i.i.u.4.v j e 2 ",
", , , , , , , , , , , , , , , , , , , , , w >.t.i.i.r.2.x a 8 , ",
": - = = = = ; ; - - ; ; : : : = = = - = > 8 &.w.u.t.8.$.p j 7 ; ",
"; & & & & & ; & & & ; & ; ; & & & & & & ; $ m &.,.,.$.d a c < & ",
"o + + O O + O o + O + O O o & o o & o + o @ m j d p q q k m o O ",
"o o o o o o o o o o o o o o o o o o o o o o @ % w k k 0 # o o o ",
"o o o o X o o o o o o X X o o o o o o X X o X o o o X o o o o o ",
"X X X X X X X X X X X X X X X X X X X X X X X X X X X X X X X X ",
"X d.f.+ X d.d.O.g.X X +.g.F h.h.h.f.& X X d.h.h.g.P d.h.h.h.h.d.",
". d.h.O.. d.d.+.g.. X O.g.4 h.4 O f.d.. O.g.T . a.P s.s.. . X . ",
". s.f.h.4 d.s.O.g.. . O.g.4 h.4 . 4 h.4 g.O.. . . . s.s.. . . . ",
". s.s.s.s.s.s.O.g..   O.g.4 h.4 . 4 h.4 g.O.O.h.h.O.s.h.h.h.s.. ",
"  s.s.4 h.f.s.O.g.  . O.g.4 h.4   4 h.4 g.O..   g.O.s.s.    .   ",
"  s.s.  O.h.s.F g.F   s.s.4 h.2 X f.s.  o.g.H   g.O.s.s.      . ",
"  s.s.  X f.s.  s.h.h.g.F 2 h.h.h.f.X     s.h.h.h.X.s.h.h.h.h.s.",
"                                                                ",
"                                                                "
};
