/* XPM */
static char * options_xpm[] = {
"32 32 472 2",
"  	c #E1E1E1",
". 	c #E0E0E0",
"+ 	c #A8A8A8",
"@ 	c #A3A2A3",
"# 	c #A2A3A3",
"$ 	c #A3A3A3",
"% 	c #A3A3A2",
"& 	c #A3A2A2",
"* 	c #DFDFDF",
"= 	c #9D9E9E",
"- 	c #999898",
"; 	c #999999",
"> 	c #999998",
", 	c #6B6B8D",
"' 	c #51528D",
") 	c #5C6197",
"! 	c #64648B",
"~ 	c #989999",
"{ 	c #999899",
"] 	c #788797",
"^ 	c #5981AA",
"/ 	c #67829C",
"( 	c #9E9E9E",
"_ 	c #9C9C9C",
": 	c #959595",
"< 	c #959594",
"[ 	c #676689",
"} 	c #5A5FA1",
"| 	c #B6CAEA",
"1 	c #7B82B5",
"2 	c #73738B",
"3 	c #858D94",
"4 	c #5786B6",
"5 	c #85BBF2",
"6 	c #71A0D2",
"7 	c #6F8398",
"8 	c #DEDEDE",
"9 	c #989898",
"0 	c #919191",
"a 	c #56567E",
"b 	c #7B82B7",
"c 	c #ECF9FF",
"d 	c #6F72A5",
"e 	c #747489",
"f 	c #929191",
"g 	c #848A91",
"h 	c #5B8BB8",
"i 	c #8AC6FD",
"j 	c #99C9FF",
"k 	c #8EBCFF",
"l 	c #497AB0",
"m 	c #949494",
"n 	c #8D8D8D",
"o 	c #8E8D8D",
"p 	c #8D8E8D",
"q 	c #656586",
"r 	c #656585",
"s 	c #6B6B7E",
"t 	c #6569A4",
"u 	c #F5FFFF",
"v 	c #AEB2D1",
"w 	c #5F5F80",
"x 	c #7F868D",
"y 	c #5C8FB7",
"z 	c #90CFFE",
"A 	c #94C7FD",
"B 	c #7BB8FC",
"C 	c #79A9F1",
"D 	c #4171A4",
"E 	c #DDDDDD",
"F 	c #909090",
"G 	c #898989",
"H 	c #8A8989",
"I 	c #898A89",
"J 	c #505391",
"K 	c #7D8AC6",
"L 	c #56557F",
"M 	c #66667F",
"N 	c #4A4979",
"O 	c #989EC6",
"P 	c #FEFFFF",
"Q 	c #B1B4D0",
"R 	c #62617F",
"S 	c #7B8189",
"T 	c #598DB2",
"U 	c #8FD8FD",
"V 	c #95D0FB",
"W 	c #89C2FD",
"X 	c #8ABBF5",
"Y 	c #507AAB",
"Z 	c #72808C",
"` 	c #89898A",
" .	c #8A898A",
"..	c #909091",
"+.	c #868685",
"@.	c #858685",
"#.	c #858586",
"$.	c #858585",
"%.	c #4C4C86",
"&.	c #A4AFD7",
"*.	c #A9BEE6",
"=.	c #98A0CA",
"-.	c #B1B9D7",
";.	c #E2E9F4",
">.	c #F8F8F7",
",.	c #E9E9F1",
"'.	c #6A6A97",
").	c #7E7F85",
"!.	c #798087",
"~.	c #5D96B7",
"{.	c #90E2FD",
"].	c #96D3FC",
"^.	c #8CC8FC",
"/.	c #9CCEFB",
"(.	c #547EB0",
"_.	c #747E87",
":.	c #858686",
"<.	c #868586",
"[.	c #8D8D8E",
"}.	c #DCDCDC",
"|.	c #898A8A",
"1.	c #828181",
"2.	c #818281",
"3.	c #828282",
"4.	c #818182",
"5.	c #57577E",
"6.	c #5E5D96",
"7.	c #B9C4E3",
"8.	c #E7F1FF",
"9.	c #F9FFFF",
"0.	c #F8FAF9",
"a.	c #EFEFEE",
"b.	c #FAFAF7",
"c.	c #EEEEF3",
"d.	c #6A6A95",
"e.	c #717983",
"f.	c #609CB4",
"g.	c #95EEFE",
"h.	c #96D8F9",
"i.	c #8DCAF7",
"j.	c #A2D6FF",
"k.	c #5C8AB8",
"l.	c #707B85",
"m.	c #828281",
"n.	c #7E7D7E",
"o.	c #7D7E7D",
"p.	c #7D7D7E",
"q.	c #5E5D78",
"r.	c #504F85",
"s.	c #7071A4",
"t.	c #7777A5",
"u.	c #AAABC8",
"v.	c #EEEFEF",
"w.	c #ECEBEA",
"x.	c #FDFCF8",
"y.	c #ECECEF",
"z.	c #5D8BB2",
"A.	c #94E3FE",
"B.	c #9BDEFE",
"C.	c #90CFF8",
"D.	c #A7DDFF",
"E.	c #6190BB",
"F.	c #6E7781",
"G.	c #7E7E7D",
"H.	c #DCDCDB",
"I.	c #838382",
"J.	c #797A79",
"K.	c #797979",
"L.	c #7A797A",
"M.	c #7A7A7A",
"N.	c #77777A",
"O.	c #5B5A77",
"P.	c #535274",
"Q.	c #3E3E77",
"R.	c #A7A9C5",
"S.	c #FFFCF4",
"T.	c #9EADD0",
"U.	c #3D529C",
"V.	c #3A57AF",
"W.	c #7FC1F6",
"X.	c #A8E8FF",
"Y.	c #6594BB",
"Z.	c #6A747E",
"`.	c #7A7A79",
" +	c #838383",
".+	c #DBDCDC",
"++	c #DBDBDB",
"@+	c #7F7F7F",
"#+	c #767675",
"$+	c #767575",
"%+	c #767676",
"&+	c #6F6F75",
"*+	c #46467A",
"=+	c #B3B3C9",
"-+	c #93A3CD",
";+	c #0C3191",
">+	c #364997",
",+	c #1A277B",
"'+	c #5A91D3",
")+	c #5F93BC",
"!+	c #68717A",
"~+	c #757676",
"{+	c #7B7B7B",
"]+	c #727272",
"^+	c #727271",
"/+	c #5D6679",
"(+	c #1B3E95",
"_+	c #103699",
":+	c #14348E",
"<+	c #2E4895",
"[+	c #496BAE",
"}+	c #6385BA",
"|+	c #586390",
"1+	c #6D6D72",
"2+	c #DADADA",
"3+	c #787878",
"4+	c #6E6E6E",
"5+	c #6D6E6E",
"6+	c #40547C",
"7+	c #183F8E",
"8+	c #2767B0",
"9+	c #3661A9",
"0+	c #234298",
"a+	c #8297C4",
"b+	c #FDFBF9",
"c+	c #EDEAF1",
"d+	c #646491",
"e+	c #60606E",
"f+	c #61616E",
"g+	c #65656F",
"h+	c #747474",
"i+	c #6A6A6A",
"j+	c #6B6A6A",
"k+	c #696868",
"l+	c #5E5F5F",
"m+	c #ACA8A4",
"n+	c #5A7A98",
"o+	c #0C3997",
"p+	c #677BB1",
"q+	c #F6F5F1",
"r+	c #F0EFEC",
"s+	c #FCFBF8",
"t+	c #EAEAEF",
"u+	c #8586B2",
"v+	c #7C7EAE",
"w+	c #575994",
"x+	c #55556D",
"y+	c #D9D9D9",
"z+	c #707070",
"A+	c #676766",
"B+	c #666766",
"C+	c #666666",
"D+	c #676666",
"E+	c #656464",
"F+	c #5E5E5E",
"G+	c #B8B8B6",
"H+	c #8B8981",
"I+	c #2D3F67",
"J+	c #384979",
"K+	c #474A7A",
"L+	c #AEAFC7",
"M+	c #EDEFEE",
"N+	c #EBEBE9",
"O+	c #F8F8F4",
"P+	c #FFFFFF",
"Q+	c #EAF5FC",
"R+	c #7D82B3",
"S+	c #4D4D6C",
"T+	c #666667",
"U+	c #707170",
"V+	c #6D6D6D",
"W+	c #636362",
"X+	c #626363",
"Y+	c #626263",
"Z+	c #636263",
"`+	c #636262",
" @	c #626262",
".@	c #636363",
"+@	c #5D5D5D",
"@@	c #B7B7B7",
"#@	c #595755",
"$@	c #5C5D63",
"%@	c #404072",
"&@	c #A4A6C4",
"*@	c #EDEEEF",
"=@	c #F0F3F6",
"-@	c #CBD1E8",
";@	c #9DA3CA",
">@	c #9AA2CC",
",@	c #CBDFFB",
"'@	c #484D93",
")@	c #D8D8D8",
"!@	c #696A69",
"~@	c #5F5E5F",
"{@	c #5F5F5E",
"]@	c #575757",
"^@	c #5C5C5C",
"/@	c #B9B9B9",
"(@	c #8F8F8F",
"_@	c #565756",
":@	c #5F5E5E",
"<@	c #5F5F5F",
"[@	c #555460",
"}@	c #555591",
"|@	c #ECEFF4",
"1@	c #E3ECFA",
"2@	c #4B4D87",
"3@	c #2E2E5B",
"4@	c #292861",
"5@	c #6F78B3",
"6@	c #474B94",
"7@	c #5E5E5F",
"8@	c #6A696A",
"9@	c #666565",
"0@	c #5A5B5B",
"a@	c #5B5B5B",
"b@	c #595A5A",
"c@	c #535353",
"d@	c #9B9B9B",
"e@	c #C4C4C3",
"f@	c #8B8C8F",
"g@	c #515152",
"h@	c #51515E",
"i@	c #5C5C97",
"j@	c #DEE7F5",
"k@	c #C4CDE8",
"l@	c #43436D",
"m@	c #393863",
"n@	c #363670",
"o@	c #5B5A5B",
"p@	c #585858",
"q@	c #9F9F9F",
"r@	c #D2D2D2",
"s@	c #B6B6B5",
"t@	c #515151",
"u@	c #555558",
"v@	c #3E3E72",
"w@	c #B8BFDB",
"x@	c #BBCDF1",
"y@	c #3C3C6F",
"z@	c #D7D7D7",
"A@	c #5F5F60",
"B@	c #535354",
"C@	c #545354",
"D@	c #C1C1C1",
"E@	c #BBBBBB",
"F@	c #525252",
"G@	c #545454",
"H@	c #535453",
"I@	c #545353",
"J@	c #46465B",
"K@	c #626296",
"L@	c #BBC6E7",
"M@	c #90A3DA",
"N@	c #414265",
"O@	c #5B5C5C",
"P@	c #504F50",
"Q@	c #505050",
"R@	c #50504F",
"S@	c #504F4F",
"T@	c #515051",
"U@	c #656565",
"V@	c #4E4F4F",
"W@	c #4F5050",
"X@	c #4F504F",
"Y@	c #4F4F4F",
"Z@	c #3A3A5D",
"`@	c #414085",
" #	c #494F94",
".#	c #363872",
"+#	c #D6D6D6",
"@#	c #575858",
"##	c #4C4C4C",
"$#	c #4B4C4C",
"%#	c #4C4C4B",
"&#	c #4C4B4C",
"*#	c #9D9D9D",
"=#	c #484948",
"-#	c #9D9E9D",
";#	c #F3F3F3",
">#	c #7A7979",
",#	c #484848",
"'#	c #C2C2C2",
")#	c #545554",
"!#	c #E7E7E7",
"~#	c #606061",
"{#	c #FDFDFD",
"]#	c #9B9C9C",
"^#	c #9B9C9B",
"/#	c #454445",
"(#	c #444445",
"_#	c #454544",
":#	c #696A6A",
"<#	c #454444",
"[#	c #444544",
"}#	c #767677",
"|#	c #E6E6E6",
"1#	c #515150",
"2#	c #C4C4C4",
"3#	c #D6D5D5",
"4#	c #E4E4E4",
"5#	c #C3C3C3",
"6#	c #414141",
"7#	c #404142",
"8#	c #BFC0C0",
"9#	c #C0C0C0",
"0#	c #9A9A9A",
"a#	c #F2F2F2",
"b#	c #424141",
"c#	c #676867",
"d#	c #676767",
"e#	c #414142",
"f#	c #4E4E4F",
"g#	c #4E4E4E",
"h#	c #D5D5D5",
"i#	c #E3E3E3",
"j#	c #C2C2C1",
"k#	c #3D3E3E",
"l#	c #BEBEBF",
"m#	c #BEBFBE",
"n#	c #BFBFBF",
"o#	c #BFBFBE",
"p#	c #BFBEBF",
"q#	c #3E3E3E",
"r#	c #656564",
"s#	c #3D3D3E",
"t#	c #3E3D3D",
"u#	c #4A4B4B",
"v#	c #E5E5E5",
"w#	c #565757",
"x#	c #C0C0C1",
"y#	c #3A3A3A",
"z#	c #BDBDBD",
"A#	c #BDBDBE",
"B#	c #969696",
"C#	c #A4A3A3",
"D#	c #616161",
"E#	c #616162",
"F#	c #3A3B3A",
"G#	c #3B3A3A",
"H#	c #3A3A3B",
"I#	c #474747",
"J#	c #C1C0C0",
"K#	c #D4D4D4",
"L#	c #363736",
"M#	c #373636",
"N#	c #373737",
"O#	c #373736",
"P#	c #373637",
"Q#	c #BCBCBC",
"R#	c #444443",
"S#	c #444444",
"T#	c #D3D3D3",
"U#	c #979797",
"V#	c #929293",
"W#	c #343433",
"X#	c #929392",
"Y#	c #F1F1F1",
"Z#	c #333434",
"`#	c #333433",
" $	c #343333",
".$	c #5C5D5C",
"+$	c #929393",
"@$	c #333333",
"#$	c #6A6A69",
"$$	c #414241",
"%$	c #4B4C4B",
"&$	c #D3D4D3",
"*$	c #3E3E3F",
"=$	c #3F3E3F",
"-$	c #3F3E3E",
";$	c #3E3F3E",
"  . . . . . . . . . . . . . . . . . . . . . . . . . . . . . .   ",
"  + @ # $ $ % $ @ $ $ % $ $ $ @ & $ $ @ @ # $ $ $ @ $ @ @ # +   ",
"* = - ; ; ; ; > > , ' ) ! ; ~ > ; ; ; ~ ~ { ] ^ / ; ; ; ; ; ( * ",
"* _ : : : : : : < [ } | 1 2 : : : : : : : 3 4 5 6 7 : : : : _ * ",
"8 9 0 0 0 0 0 0 0 0 a b c d e f 0 0 0 0 g h i j k l 0 0 0 0 9 8 ",
"8 m n o p p q r n n s t u v w n n n n x y z A B C D n o n n m 8 ",
"E F G H H I J K L M N O P Q R I G G S T U V W X Y Z G ` H  ...E ",
"E p +.@.#.$.%.&.*.=.-.;.>.,.'.).$.!.~.{.].^./.(._.$.+.:.$.<.[.E ",
"}.|.1.2.3.4.5.6.7.8.9.0.a.b.c.d.e.f.g.h.i.j.k.l.1.m.1.m.2.2.I }.",
"}.+.n.o.p.p.n.q.r.s.t.u.v.w.x.y.z.A.B.C.D.E.F.n.n.G.G.p.n.G.@.}.",
"H.I.J.K.L.M.M.J.N.O.P.Q.R.v.S.T.U.V.W.X.Y.Z.M.K.`.M.M.L.L.L. +.+",
"++@+#+$+%+%+%+%+%+%+%+&+*+=+-+;+>+,+'+)+!+~+%+%+%+%+%+%+%+%+@+++",
"++{+]+]+]+]+]+]+]+]+^+^+/+(+_+:+<+[+}+|+1+]+]+]+]+^+]+]+]+]+{+++",
"2+3+4+4+4+4+4+4+4+4+4+5+6+7+8+9+0+a+b+c+d+e+f+g+4+4+4+4+4+4+3+2+",
"2+h+i+i+i+i+i+i+i+i+j+k+l+m+n+o+p+q+r+s+t+u+v+w+x+i+i+i+i+i+h+2+",
"y+z+A+B+C+D+D+C+C+B+E+F+G+H+I+J+K+L+M+N+O+P+P Q+R+S+C+C+T+C+U+y+",
"y+V+W+X+Y+Z+`+ @.@ @+@@@H #@Y+ @$@%@&@*@=@-@;@>@,@'@`+ @Y+X+V+y+",
")@!@F+~@l+~@l+{@]@^@/@(@_@~@:@:@<@[@}@|@1@2@3@4@5@6@~@{@:@7@8@)@",
")@9@0@a@a@a@b@c@d@e@f@g@a@0@a@a@a@h@i@j@k@l@a@a@m@n@a@a@o@0@C+)@",
")@ @]@]@]@]@p@q@r@s@t@]@]@]@]@]@]@u@v@w@x@y@]@]@]@]@]@]@]@]@ @)@",
"z@A@B@C@c@c@.@D@E@ @F@c@c@B@G@H@c@I@J@K@L@M@N@H@H@c@B@B@I@B@<@z@",
"z@O@P@Q@R@S@T@U@a@V@W@Q@Q@X@Q@S@P@W@Y@Z@`@ #.#Q@W@Y@S@P@P@Q@^@z@",
"+#@###############$#######%#########$#&#&###$###############p@+#",
"+#$ P+P+*#=#-#P+P+P+;#>#,#'#P+P+P+'#,#;#'#,#,#;#*#)#!#P+P+!#~#+#",
"2+{#_ ]#P+i+^#;#/#(#D@;#_#_#:#P+8@<#[#;#;#}#/#;#_ D@|#T@1#|#2#3#",
"4#5#6#7#8#9#0#a#b#6#0#a#6#6#c#P+d#e#6#a#|#a#6#a#0#9#|#f#6#6#g#h#",
"i#j#k#k#l#m#9 a#n#o#a#p#k#q#U@P+r#s#t#a#9 a#9 a#9 u#v#P+P+v#w#h#",
"i#x#y#y#z#A#B#a#z#z#C#y#y#y#D#P+E#y#F#a#B#B#a#a#B#G#H#y#I#v#J#K#",
"y+{#m m P+<@m a#L#M#N#O#N#M#<@P+~@O#O#a#m P#Q#P+m Q#4#R#S#4#n#K#",
"T#U#P+P+V#W#X#Y#Z#W#`#`#`# $^@P+.$`# $Y#+$@$#$Y#+$$$4#P+P+4#%$&$",
"+###q#q#q#q#q#q#q#*$=$q#q#q#q#q#q#q#q#q#-$-$;$q#q#=$q#q#q#q###+#",
"h#T#T#T#T#T#T#T#T#T#T#T#T#T#T#T#T#T#T#T#T#T#T#T#T#T#T#T#T#T#T#h#"};
