/* XPM */
static char *OR_xpm[]={
"32 32 401 2",
"      c #E28518",
" 0    c #E18518",
" 1    c #DF8418",
" 2    c #DE8317",
" 3    c #DC8217",
" 4    c #DD8217",
" 5    c #E08418",
" 6    c #E38618",
" 7    c #DF8318",
" 8    c #DA8117",
" 9    c #D77F17",
" a    c #D57E16",
" b    c #D47D16",
" c    c #DB8117",
" d    c #CF7A16",
" e    c #CB7815",
" f    c #CA7715",
" g    c #D37D16",
" h    c #D88017",
" i    c #D98017",
" j    c #CD7916",
" k    c #C57415",
" l    c #DCB280",
" m    c #E4C49F",
" n    c #D7A971",
" o    c #C27315",
" p    c #C97715",
" q    c #D89444",
" r    c #E4B781",
" s    c #D27C16",
" t    c #D67E17",
" u    c #D17B16",
" v    c #C67515",
" w    c #E7CDAF",
" x    c #F7F2EC",
" y    c #E4CCAE",
" z    c #E5CCAE",
" A    c #BD6F14",
" B    c #C47415",
" C    c #D7A162",
" D    c #EDD8BE",
" E    c #C87615",
" F    c #CC7816",
" G    c #CE7916",
" H    c #C77C24",
" I    c #E5C5A0",
" J    c #CB7F24",
" K    c #D8A971",
" L    c #BE7D32",
" M    c #B26913",
" N    c #B97C32",
" O    c #C69151",
" P    c #B66B13",
" Q    c #BA7523",
" R    c #BC7623",
" S    c #BE7723",
" T    c #BA6E14",
" U    c #BE7014",
" V    c #BF7014",
" W    c #C78333",
" X    c #BF7114",
" Y    c #C27923",
" Z    c #C48133",
" &    c #B76C13",
"0     c #BF7E32",
"00    c #FCFCFC",
"01    c #D07B16",
"02    c #C77615",
"03    c #E3C49F",
"04    c #DBB88F",
"05    c #B36A13",
"06    c #B16913",
"07    c #AD6612",
"08    c #E6D3BE",
"09    c #D0AB7F",
"0a    c #C59760",
"0b    c #DFC9AE",
"0c    c #F1E8DD",
"0d    c #ECDECD",
"0e    c #C89860",
"0f    c #B06813",
"0g    c #AF6813",
"0h    c #E2CBAE",
"0i    c #EDDECD",
"0j    c #B47223",
"0k    c #E2CAAE",
"0l    c #E0C9AE",
"0m    c #A76312",
"0n    c #F3E9DD",
"0o    c #D5A162",
"0p    c #D1A570",
"0q    c #AB6512",
"0r    c #DABE9E",
"0s    c #D9BE9E",
"0t    c #C69E6F",
"0u    c #F6F1EC",
"0v    c #D2B38E",
"0w    c #C39560",
"0x    c #C8A070",
"0y    c #F0E7DD",
"0z    c #CDA97F",
"0A    c #E5D3BD",
"0B    c #B17630",
"0C    c #D3B48E",
"0D    c #F6F2EC",
"0E    c #DFC8AE",
"0F    c #B47F40",
"0G    c #B78750",
"0H    c #C59E6F",
"0I    c #D3AD80",
"0J    c #C78433",
"0K    c #D1A470",
"0L    c #A96412",
"0M    c #D8BE9E",
"0N    c #D8BD9E",
"0O    c #C49D6F",
"0P    c #EFE7DD",
"0Q    c #A05F11",
"0R    c #A56111",
"0S    c #A15F11",
"0T    c #E9DCCD",
"0U    c #C8A67E",
"0V    c #A8702F",
"0W    c #C9A77F",
"0X    c #AB7330",
"0Y    c #9D5C11",
"0Z    c #EFE6DD",
"0&    c #C19B6E",
"1     c #AB7230",
"10    c #B87A31",
"11    c #A26011",
"12    c #A66212",
"13    c #9F5E11",
"14    c #E2D1BD",
"15    c #AA7130",
"16    c #F1E7DD",
"17    c #C89F6F",
"18    c #AC6512",
"19    c #C9A070",
"1a    c #C39C6F",
"1b    c #9E5E11",
"1c    c #B07630",
"1d    c #A36011",
"1e    c #BD7D32",
"1f    c #D4A061",
"1g    c #CB9B61",
"1h    c #BA7C32",
"1i    c #D1AB7F",
"1j    c #B37022",
"1k    c #CDA370",
"1l    c #F2E8DD",
"1m    c #B46A13",
"1n    c #CFA470",
"1o    c #AE6612",
"1p    c #D4B58F",
"1q    c #DABF9E",
"1r    c #AF6E22",
"1s    c #BC8341",
"1t    c #CBA170",
"1u    c #B87B31",
"1v    c #CB9352",
"1w    c #C77515",
"1x    c #DAB180",
"1y    c #C79151",
"1z    c #B86D13",
"1A    c #D4A771",
"1B    c #C07214",
"1C    c #D6A771",
"1D    c #D7AF80",
"1E    c #C07F32",
"1F    c #C38133",
"1G    c #D2A570",
"1H    c #B96D14",
"1I    c #EAD6BE",
"1J    c #DEAC71",
"1K    c #CB8634",
"1L    c #D19752",
"1M    c #C37A23",
"1N    c #C17214",
"1O    c #CB7E24",
"1P    c #C37315",
"1Q    c #C57B23",
"1R    c #CA8534",
"1S    c #CC8634",
"1T    c #C87D24",
"1U    c #CA7E24",
"1V    c #D18934",
"1W    c #DE8318",
"1X    c #DA8017",
"1Y    c #CF7B16",
"1Z    c #CB7816",
"1&    c #CA7716",
"2     c #CD7816",
"20    c #D57D17",
"21    c #D37C16",
"22    c #CE7A16",
"23    c #DC8218",
"24    c #D77E16",
"25    c #D27B16",
"26    c #D57D16",
"27    c #D87F16",
"28    c #D97F17",
"29    c #D87F17",
"2a    c #D67F17",
"2b    c #D57E17",
"2c    c #D47C17",
"2d    c #D17C16",
"2e    c #DC8118",
"2f    c #856442",
"2g    c #836341",
"2h    c #7F603F",
"2i    c #7E5E3E",
"2j    c #7D5D3D",
"2k    c #7B5C3D",
"2l    c #7C5D3D",
"2m    c #7D5D3E",
"2n    c #7F5F3E",
"2o    c #80603F",
"2p    c #826140",
"2q    c #836140",
"2r    c #816040",
"2s    c #7E5F3F",
"2t    c #7F5F3F",
"2u    c #805F3F",
"2v    c #816140",
"2w    c #856341",
"2x    c #053680",
"2y    c #05357C",
"2z    c #043378",
"2A    c #043276",
"2B    c #043175",
"2C    c #043174",
"2D    c #043277",
"2E    c #05337A",
"2F    c #05347B",
"2G    c #05347C",
"2H    c #05357D",
"2I    c #043379",
"2J    c #043173",
"2K    c #043072",
"2L    c #153D79",
"2M    c #788EB0",
"2N    c #889CB9",
"2O    c #788EAF",
"2P    c #042E6D",
"2Q    c #57739C",
"2R    c #254980",
"2S    c #042F6F",
"2T    c #043071",
"2U    c #153F7C",
"2V    c #889DBD",
"2W    c #153F80",
"2X    c #6781A7",
"2Y    c #889CBA",
"2Z    c #36588B",
"2&    c #57739D",
"3     c #889BB7",
"30    c #788DAD",
"31    c #57719A",
"32    c #153C77",
"33    c #05347A",
"34    c #042F70",
"35    c #CAD2DE",
"36    c #788CAB",
"37    c #042A64",
"38    c #CAD2DD",
"39    c #DBE0E7",
"3a    c #042B67",
"3b    c #57729B",
"3c    c #57739F",
"3d    c #042E6C",
"3e    c #042C68",
"3f    c #EBEEF2",
"3g    c #A9B6CA",
"3h    c #042D6A",
"3i    c #365688",
"3j    c #A9B5C8",
"3k    c #576F93",
"3l    c #8899B3",
"3m    c #04285F",
"3n    c #CAD1DC",
"3o    c #566D8F",
"3p    c #03275D",
"3q    c #576F95",
"3r    c #042C69",
"3s    c #042B65",
"3t    c #576F94",
"3u    c #EBEEF1",
"3v    c #042960",
"3w    c #8898AF",
"3x    c #A9B4C5",
"3y    c #BAC4D4",
"3z    c #677C9C",
"3A    c #03275C",
"3B    c #03265B",
"3C    c #CAD1DB",
"3D    c #A9B3C3",
"3E    c #032455",
"3F    c #566D91",
"3G    c #577095",
"3H    c #8898B1",
"3I    c #455F85",
"3J    c #03285E",
"3K    c #14315D",
"3L    c #032353",
"3M    c #DBDFE6",
"3N    c #143465",
"3O    c #032659",
"3P    c #032558",
"3Q    c #CAD1DA",
"3R    c #CAD0D9",
"3S    c #DBDFE5",
"3T    c #243E66",
"3U    c #566C8D",
"3V    c #566E92",
"3W    c #677A97",
"3X    c #7789A3",
"3Y    c #03265A",
"3Z    c #14315B",
"3&    c #032252",
"4     c #153B75",
"40    c #677B99",
"41    c #032557",
"42    c #032456",
"43    c #CAD0DA",
"44    c #8895A9",
"45    c #77879E",
"46    c #566B89",
"47    c #566D8E",
"48    c #143362",
"49    c #98A5B7",
"4a    c #243F67",
"4b    c #BAC2CE",
"4c    c #24406A",
"4d    c #042E6E",
"4e    c #577097",
"4f    c #677A98",
"4g    c #354C6F",
"4h    c #DBDFE4",
"4i    c #566A88",
"4j    c #566B8C",
"4k    c #677994",
"4l    c #03214F",
"4m    c #EBEDF0",
"4n    c #032454",
"4o    c #889AB6",
"4p    c #042B66",
"4q    c #153669",
"4r    c #032354",
"4s    c #03214E",
"4t    c #BAC1CD",
"4u    c #8895AA",
"4v    c #98A5B8",
"4w    c #455C7E",
"4x    c #99A8BE",
"4y    c #042C67",
"4z    c #042860",
"4A    c #143260",
"4B    c #677995",
"4C    c #566A89",
"4D    c #032352",
"4E    c #8896AC",
"4F    c #143567",
"4G    c #042D6B",
"4H    c #5774A0",
"4I    c #153A72",
"4J    c #042961",
"4K    c #566B8B",
"4L    c #24416B",
"4M    c #BAC2D0",
"4N    c #8897AE",
"4O    c #15386E",
"4P    c #053781",
"4Q    c #889DBC",
"4R    c #A9B5C7",
"4S    c #042A63",
"4T    c #8899B2",
"4U    c #677C9B",
"4V    c #788BA8",
"4W    c #153B74",
"4X    c #053884",
"4Y    c #5775A1",
"4Z    c #BAC4D3",
"4&    c #15386F",
"5     c #CAD3DF",
"50    c #153971",
"51    c #46628B",
"52    c #889AB5",
"53    c #365686",
"54    c #577197",
"55    c #05357F",
"56    c #053783",
"57    c #053986",
"58    c #36578A",
"59    c #153D78",
"5a    c #153E7A",
"5b    c #05367F",
"5c    c #053782",
"5d    c #053885",
"5e    c #053987",
"5f    c #05357E",
"   0 1 2 3 3 4 2 1 0 0 0 0 5 1 5 0     6 6 6 6 6 6              ",
" 5 7 8 9 a b a 9 c 2 1 1 1 2 2 7 1 0   6 6 6 6 6   0 5 1 1 5 0  ",
" 7 8 a d e f e d g 9 h i i h 9 8 c 4 2 1 1 1 7 7 4 3 8 8 i 8 4 7",
" c a j k l m n o p j d d d q r s b t 9 h 9 9 9 9 a s u d d s 9 8",
" 9 d v w x y x z A o o B v C D E f F j d G j F F p v k H I J d t",
" g f K x L M N x O P Q R S T S U U V W X X V Y U Z & P0 00 W E u",
"0102030405060708090a0b0c0d0e0d0f0g0h000i N0j0d0k000l0m08000n0o j",
" d k0n0p050f0q0r0s0t0u0v0w0x0y0m0z0A0B0s0C0B0D0E0F0u0G0H000I0J F",
" G B0n0K M0g0L0M0N0O0P0Q0R0t0y0S0T0U0V0W0T0X000X0Y0Z0&1 0010 X F",
" d k0n0p M0g0L0s0v0O0P11120t0P130Z0Z0Z0P1415000X0Y0Z0&0X00 N X j",
"010203 y M0g0L160x170y0L18190y0R0P1a1b0Q111c000B1d0P0O0B001e o d",
" b f1f x1g1h1i x1j1k1l1m P1n0c1o1p1q0m1r1s1000 N1o0c1t1u001v1w01",
" 9 d1w1x0000 x1y1z1A0n X1B1C0n1z1e1l1l x1D1E001F T0n1G1H1I001J g",
" 3 t d021K1L1M1N v02 J e j p1O1w1P1Q1L1R B k1S02021T k1w1U1V s 9",
"1W1X t1Y F1Z1&2  d u s b2021 u u d d G d d01 d u u22221Y d s t1X",
"1W232425 d22 G u21 b262728292a2a2b2c2c2125 b b a b21 u2d25 b282e",
"2f2g2h2i2j2k2l2m2i2n2h2o2p2p2p2q2q2r2o2n2s2t2r2r2u2i2l2l2l2i2v2w",
"2x2y2z2A2B2C2B2A2A2A2D2z2E2F2G2H2H2F2E2z2z2z2E2E2I2A2J2K2J2A2F2x",
"2y2D2L2M2N2O2P2P2Q2O2R2S2T2U2V2W2D2C2T2X2Y2Z2T2K2T2&3 3031322J33",
"2z34350000003637380039373a3b003c343d3e3f003g3e3h3h350000003f3i2B",
"2C3b003j3k3l3l3m3n00003o3p3q00313r3s3t00003u3v37373n003w3x003y34",
"2J3 003z3A3A3A3B3C3u003D3E3F003G373v3H003x003I3J3J3C003K3L3M0032",
"2J30003n3N3O3O3P3Q3R3S003T3U003V3m3A3C3Q3W003X3O3Y3Q003Z3&3C0032",
"2B4 3f003u404142433R4400454600473B4800494a004b42413Q003Z4c00392S",
"2z4d4e3u00004f3E433R4g004h4i004j413U004k4l3R4m3L4n43003Q3u004o2K",
"2E344p4q3x003S4r433R4s4t004u00463L4v004k4i4t004w3&3R00003u4x2P2z",
"2F2K4y4z3P3S004A3Q3Q4r4B003R004C4D4300000000004E4D43004F374G2B2H",
"2F4H4I4J3B3M3u3O3C3C3B413M00004K4L004M3w3w4N003Q3E3C004O4G2K2F4P",
"2E4Q3f3839004R3m38384S3v4T00003o4U004V3v3v3m39004F3n004W2K2I2x4X",
"2F4Y3f00004Z4&3e5 5 3d3h503f00515200533h3h3r3g0054353f2J2E555657",
"2H2z2J3c582P342J2C2B2A2B2K34592S345a2C2B2B2C2K2L342K2C335b5c5d5e",
"2x2H2I2D2D2D2z2F2G2H2H2H2F2E2z2z2I332H5f5f2H2F2E2E2E2G2x5c4X575e"};
