/* XPM */
static char * pickwalk_en_xpm[] = {
"32 32 177 2",
"  	c #249ED2",
". 	c #249DD1",
"+ 	c #239DD0",
"@ 	c #249DD0",
"# 	c #239CD0",
"$ 	c #249CD0",
"% 	c #249CCF",
"& 	c #24A0D4",
"* 	c #061B24",
"= 	c #030E12",
"- 	c #030B0F",
"; 	c #000000",
"> 	c #075203",
", 	c #043202",
"' 	c #064703",
") 	c #14F50A",
"! 	c #11D408",
"~ 	c #032001",
"{ 	c #000500",
"] 	c #096B04",
"^ 	c #14F80A",
"/ 	c #15FF0A",
"( 	c #12E009",
"_ 	c #064D03",
": 	c #000100",
"< 	c #021901",
"[ 	c #0A7A05",
"} 	c #0EAB07",
"| 	c #0B8005",
"1 	c #14EE09",
"2 	c #10BF07",
"3 	c #0B8405",
"4 	c #0EAE07",
"5 	c #086704",
"6 	c #010D01",
"7 	c #010E01",
"8 	c #031F01",
"9 	c #13E709",
"0 	c #0C9706",
"a 	c #000600",
"b 	c #010700",
"c 	c #021701",
"d 	c #010900",
"e 	c #13E809",
"f 	c #0D9D06",
"g 	c #021A01",
"h 	c #010A00",
"i 	c #021501",
"j 	c #0EA707",
"k 	c #075103",
"l 	c #075303",
"m 	c #0D9A06",
"n 	c #0DA306",
"o 	c #000400",
"p 	c #064803",
"q 	c #032601",
"r 	c #11C908",
"s 	c #000300",
"t 	c #097305",
"u 	c #032101",
"v 	c #032702",
"w 	c #032802",
"x 	c #011201",
"y 	c #010800",
"z 	c #010B00",
"A 	c #10C708",
"B 	c #021401",
"C 	c #086304",
"D 	c #15FC0A",
"E 	c #0A7705",
"F 	c #10C508",
"G 	c #13EB09",
"H 	c #11CE08",
"I 	c #053D02",
"J 	c #0EA807",
"K 	c #096D04",
"L 	c #0A7405",
"M 	c #043302",
"N 	c #0D9E06",
"O 	c #0D9906",
"P 	c #13E209",
"Q 	c #0D9C06",
"R 	c #2299CB",
"S 	c #0FBC07",
"T 	c #0C9206",
"U 	c #12D708",
"V 	c #0D9B06",
"W 	c #2193C2",
"X 	c #030D11",
"Y 	c #011101",
"Z 	c #11D308",
"` 	c #0C8D06",
" .	c #043602",
"..	c #0FB707",
"+.	c #239ACD",
"@.	c #1E86B3",
"#.	c #030C0F",
"$.	c #064603",
"%.	c #021C01",
"&.	c #0DA106",
"*.	c #064C03",
"=.	c #053F02",
"-.	c #2195C5",
";.	c #197197",
">.	c #020A0D",
",.	c #000200",
"'.	c #1E87B4",
").	c #13546F",
"!.	c #010709",
"~.	c #021E01",
"{.	c #086404",
"].	c #064303",
"^.	c #021801",
"/.	c #075B04",
"(.	c #011001",
"_.	c #02090C",
":.	c #1A7298",
"<.	c #0C3547",
"[.	c #010405",
"}.	c #054203",
"|.	c #10C208",
"1.	c #13E609",
"2.	c #13EC09",
"3.	c #010608",
"4.	c #12526D",
"5.	c #061D26",
"6.	c #000202",
"7.	c #0A7C05",
"8.	c #010304",
"9.	c #0B303F",
"0.	c #030F14",
"a.	c #0FB307",
"b.	c #000101",
"c.	c #05171F",
"d.	c #ABADAF",
"e.	c #FFFFFF",
"f.	c #DDDDDD",
"g.	c #111111",
"h.	c #777777",
"i.	c #EEEEEE",
"j.	c #AAAAAA",
"k.	c #333333",
"l.	c #354434",
"m.	c #444444",
"n.	c #030C10",
"o.	c #ABADAE",
"p.	c #999999",
"q.	c #ABAEAF",
"r.	c #777878",
"s.	c #05161D",
"t.	c #041218",
"u.	c #000102",
"v.	c #000203",
"w.	c #010507",
"x.	c #0A2D3C",
"y.	c #08232E",
"z.	c #092632",
"A.	c #092733",
"B.	c #092734",
"C.	c #092835",
"D.	c #092836",
"E.	c #092936",
"F.	c #092A37",
"G.	c #092A38",
"H.	c #0A2B39",
"I.	c #0A2C3A",
"J.	c #0A2D3B",
"K.	c #0A2E3D",
"L.	c #0B2F3F",
"M.	c #0B3040",
"N.	c #0B3242",
"O.	c #0C3546",
"P.	c #0C384A",
"Q.	c #0D3C50",
"R.	c #0F4156",
"S.	c #10475E",
"T.	c #13536F",
"  . + + + + @ @ + + + # $ % % $ + + + + + @ @ + + + + + + + .   ",
"& * = = = = = = = = = = = = = = = = = = = = = = = = = = = = * & ",
"+ - ; ; ; ; ; ; ; ; ; ; ; ; ; ; ; ; ; ; ; ; ; ; ; ; ; ; ; ; - + ",
"+ = ; ; ; ; ; ; ; ; ; ; ; ; ; ; ; ; ; ; ; ; ; ; ; ; ; ; ; ; = + ",
"+ = ; ; ; ; ; ; ; ; ; ; ; ; ; > , ; ; ; ; ; ; ; ; ; ; ; ; ; = + ",
"+ = ; ; ; ; ; ; ; ; ; ; ; ; ' ) ! ~ ; ; ; ; ; ; ; ; ; ; ; ; = + ",
"+ = ; ; ; ; ; ; ; ; ; ; { ] ^ / / ( _ : ; ; ; ; ; ; ; ; ; ; = + ",
"+ = ; ; ; ; ; ; ; ; ; < [ } | 1 2 3 4 5 6 ; ; ; ; ; ; ; ; ; = + ",
"+ = ; ; ; ; ; ; ; ; ; 7 8 ; ; 9 0 ; a 8 b ; ; ; ; ; ; ; ; ; = + ",
"+ = ; ; ; ; ; ; , c ; ; ; ; d e f ; ; ; ; ; g h ; ; ; ; ; ; = + ",
"@ = ; ; ; ; ; i 0 c ; ; ; ; h ^ j ; ; ; ; ; k l ; ; ; ; ; ; = + ",
"+ = ; ; ; ; ; m n ; ; ; ; ; o ] p ; ; ; ; ; q r 8 ; ; ; ; ; = + ",
"+ = ; ; ; s t / 3 u v w x ; ; ; ; ; ; y h d z ! A B ; ; ; ; = + ",
"+ = ; ; ; C / / D / / / E ; ; ; ; ; b F G e 9 ) / H I ; ; ; = + ",
"+ = ; ; ; g J / J ] K L M ; ; ; ; ; { 3 N f O P / Q v ; ; ; = @ ",
"R = ; ; ; ; y S T ; ; ; ; ; ; z b ; ; ; ; ; ; U V ; ; ; ; ; = @ ",
"W X ; ; ; ; ; q n Y ; ; ; ; y Z ` ; ; ; ; ;  ...7 ; ; ; ; ; = +.",
"@.#.; ; ; ; ; ; $.%.; ; ; ; d 1 &.; ; ; ; ; *.=.; ; ; ; ; ; X -.",
";.>.; ; ; ; ; ; : ,.; ; ; ; o e V ; ; ; ; ; 7 o ; ; ; ; ; ; #.'.",
").!.; ; ; ; ; ; ; ; ; ~.{.].8 e N ^.l /.(.; ; ; ; ; ; ; ; ; _.:.",
"<.[.; ; ; ; ; ; ; ; ; a }.|.1.^ 2.e } , s ; ; ; ; ; ; ; ; ; 3.4.",
"5.6.; ; ; ; ; ; ; ; ; ; ; Y } / / 7.,.; ; ; ; ; ; ; ; ; ; ; 8.9.",
"0.; ; ; ; ; ; ; ; ; ; ; ; ; y a.3 ; ; ; ; ; ; ; ; ; ; ; ; ; b.c.",
"d.e.e.e.f.g.h.i.; ; j.i.k.e.k.w l.e.k.i.h.; ; ; ; i.h.; m.i.h.n.",
"o.j.; g.f.j.h.i.; j.i.m.k.e.k.; k.e.k.i.h.; ; ; ; i.h.m.i.j.; _.",
"o.j.; ; j.j.h.i.j.i.m.; k.e.k.; k.e.k.i.h.; ; ; ; i.j.i.j.; ; _.",
"o.f.j.j.e.h.h.e.e.h.; ; k.e.m.j.m.e.k.i.h.; ; ; ; i.e.i.; ; ; _.",
"o.f.j.j.h.; h.i.j.i.m.; k.e.p.e.p.e.k.i.h.; ; ; ; i.j.i.j.; ; _.",
"o.j.; ; ; ; h.i.; j.i.m.k.e.f.k.f.e.k.i.h.; ; ; ; i.h.m.i.j.; n.",
"q.j.; ; ; ; h.i.; ; j.i.k.e.h.; h.e.k.i.e.e.e.e.h.i.h.; m.i.r.s.",
"t.b.b.b.b.b.b.b.b.b.b.b.b.b.b.b.b.b.b.b.b.b.b.u.u.u.u.6.v.v.w.x.",
"x.y.z.A.B.C.D.E.F.G.G.G.H.I.I.I.I.J.J.x.x.x.K.L.M.N.O.P.Q.R.S.T."};
