/* XPM */
static char *PNT_xpm[]={
"32 32 380 2",
"      c #E38618",
" 0    c #E28518",
" 1    c #E18518",
" 2    c #DF8418",
" 3    c #DE8317",
" 4    c #DD8217",
" 5    c #E08418",
" 6    c #DF8318",
" 7    c #DB8117",
" 8    c #D77F17",
" 9    c #D67E17",
" a    c #D57E16",
" b    c #D98017",
" c    c #D07B16",
" d    c #CD7916",
" e    c #CC7816",
" f    c #DA8117",
" g    c #DC8217",
" h    c #CF7A16",
" i    c #D29143",
" j    c #D9AA71",
" k    c #D7A971",
" l    c #C88433",
" m    c #C57415",
" n    c #D47D16",
" o    c #D27C16",
" p    c #D99544",
" q    c #E4B781",
" r    c #D17B16",
" s    c #D37D16",
" t    c #CA7715",
" u    c #E3C49F",
" v    c #F3E9DD",
" w    c #F2E8DD",
" x    c #F7F2EC",
" y    c #C99251",
" z    c #BF7114",
" A    c #C87615",
" B    c #D8A262",
" C    c #EDD8BE",
" D    c #C77515",
" E    c #C97715",
" F    c #C77615",
" G    c #C67515",
" H    c #DFB381",
" I    c #E0C29F",
" J    c #CDA370",
" K    c #AA6412",
" L    c #DABF9E",
" M    c #E7D4BE",
" N    c #B46A13",
" O    c #B96D14",
" P    c #C17823",
" Q    c #C27923",
" R    c #BF7014",
" S    c #BE7014",
" T    c #BB6E14",
" U    c #BD7723",
" V    c #BE7723",
" W    c #BC6F14",
" X    c #C07823",
" Y    c #BA6E14",
" Z    c #B86D13",
" &    c #D7A871",
"0     c #D88017",
"00    c #C37315",
"01    c #DFC29F",
"02    c #CBA170",
"03    c #A56111",
"04    c #C69E6F",
"05    c #F0E7DD",
"06    c #D2AC7F",
"07    c #D3AD80",
"08    c #B06813",
"09    c #C89860",
"0a    c #ECDECD",
"0b    c #AD6612",
"0c    c #D7B68F",
"0d    c #B57831",
"0e    c #D1AB7F",
"0f    c #F2E9DD",
"0g    c #DCB280",
"0h    c #C27315",
"0i    c #DEC19F",
"0j    c #CAA070",
"0k    c #A26011",
"0l    c #D7BD9E",
"0m    c #DDC8AE",
"0n    c #BB8A50",
"0o    c #F6F2EC",
"0p    c #BA8241",
"0q    c #C39660",
"0r    c #B17731",
"0s    c #C79E6F",
"0t    c #EADDCD",
"0u    c #B47F40",
"0v    c #E4D2BD",
"0w    c #CBA87F",
"0x    c #B68040",
"0y    c #F1E7DD",
"0z    c #D8B78F",
"0A    c #CA8C42",
"0B    c #CE7916",
"0C    c #C17214",
"0D    c #E6D3BE",
"0E    c #DFC8AE",
"0F    c #D2B38E",
"0G    c #D8BE9E",
"0H    c #C49D6F",
"0I    c #C29C6E",
"0J    c #EFE6DD",
"0K    c #9B5B10",
"0L    c #9E5D11",
"0M    c #D6BC9E",
"0N    c #D5BC9E",
"0O    c #A05F11",
"0P    c #CDA270",
"0Q    c #C47415",
"0R    c #E8D5BE",
"0S    c #A96412",
"0T    c #D9BE9E",
"0U    c #DDC7AE",
"0V    c #C39C6F",
"0W    c #C19B6E",
"0X    c #9A5B10",
"0Y    c #A15F11",
"0Z    c #BD6F14",
"0&    c #D4A671",
"1     c #B66B13",
"10    c #B26913",
"11    c #DDC09E",
"12    c #DBBF9E",
"13    c #A46111",
"14    c #EFE7DD",
"15    c #9E5E11",
"16    c #C59E6F",
"17    c #A36011",
"18    c #D8BD9E",
"19    c #A66212",
"1a    c #F1E8DD",
"1b    c #CFA470",
"1c    c #E6C6A0",
"1d    c #CF9D61",
"1e    c #EDDFCD",
"1f    c #B57223",
"1g    c #BB8341",
"1h    c #AE6D22",
"1i    c #C8A070",
"1j    c #A86312",
"1k    c #AE6612",
"1l    c #DCC09E",
"1m    c #AF6813",
"1n    c #D7AF80",
"1o    c #C87D24",
"1p    c #E9C8A0",
"1q    c #DFAD71",
"1r    c #E7CDAF",
"1s    c #FCFCFC",
"1t    c #D5AE80",
"1u    c #D0A470",
"1v    c #D3A670",
"1w    c #D9B080",
"1x    c #E7C6A0",
"1y    c #D88625",
"1z    c #D49853",
"1A    c #CA8534",
"1B    c #C67C24",
"1C    c #CA7E24",
"1D    c #C97D24",
"1E    c #D08934",
"1F    c #D28325",
"1G    c #E18418",
"1H    c #DD8218",
"1I    c #D57D17",
"1J    c #CD7816",
"1K    c #CF7B16",
"1L    c #D57E17",
"1M    c #DE8318",
"1N    c #DC8117",
"1O    c #D87F17",
"1P    c #D87F16",
"1Q    c #D67E16",
"1R    c #D47C17",
"1S    c #D47D17",
"1T    c #D17C16",
"1U    c #D77E17",
"1V    c #DA8017",
"1W    c #DE8218",
"1X    c #866442",
"1Y    c #846341",
"1Z    c #806140",
"1&    c #7F5F3F",
"2     c #7F5F3E",
"20    c #7E5E3E",
"21    c #805F3F",
"22    c #7F603F",
"23    c #806040",
"24    c #816040",
"25    c #816140",
"26    c #836140",
"27    c #826040",
"28    c #7C5D3D",
"29    c #7D5D3D",
"2a    c #7D5D3E",
"2b    c #826241",
"2c    c #053680",
"2d    c #05357C",
"2e    c #043378",
"2f    c #043276",
"2g    c #043175",
"2h    c #043174",
"2i    c #043277",
"2j    c #05337A",
"2k    c #05347B",
"2l    c #05347C",
"2m    c #05357D",
"2n    c #043379",
"2o    c #043173",
"2p    c #043072",
"2q    c #153D79",
"2r    c #788EB0",
"2s    c #889CB9",
"2t    c #788EAF",
"2u    c #042E6D",
"2v    c #57739C",
"2w    c #254980",
"2x    c #042F6F",
"2y    c #043071",
"2z    c #153F7C",
"2A    c #889DBD",
"2B    c #153F80",
"2C    c #6781A7",
"2D    c #889CBA",
"2E    c #36588B",
"2F    c #57739D",
"2G    c #889BB7",
"2H    c #788DAD",
"2I    c #57719A",
"2J    c #153C77",
"2K    c #05347A",
"2L    c #042F70",
"2M    c #CAD2DE",
"2N    c #788CAB",
"2O    c #042A64",
"2P    c #CAD2DD",
"2Q    c #DBE0E7",
"2R    c #042B67",
"2S    c #57729B",
"2T    c #57739F",
"2U    c #042E6C",
"2V    c #042C68",
"2W    c #EBEEF2",
"2X    c #A9B6CA",
"2Y    c #042D6A",
"2Z    c #365688",
"2&    c #A9B5C8",
"3     c #576F93",
"30    c #8899B3",
"31    c #04285F",
"32    c #CAD1DC",
"33    c #566D8F",
"34    c #03275D",
"35    c #576F95",
"36    c #042C69",
"37    c #042B65",
"38    c #576F94",
"39    c #EBEEF1",
"3a    c #042960",
"3b    c #8898AF",
"3c    c #A9B4C5",
"3d    c #BAC4D4",
"3e    c #677C9C",
"3f    c #03275C",
"3g    c #03265B",
"3h    c #CAD1DB",
"3i    c #A9B3C3",
"3j    c #032455",
"3k    c #566D91",
"3l    c #577095",
"3m    c #8898B1",
"3n    c #455F85",
"3o    c #03285E",
"3p    c #14315D",
"3q    c #032353",
"3r    c #DBDFE6",
"3s    c #143465",
"3t    c #032659",
"3u    c #032558",
"3v    c #CAD1DA",
"3w    c #CAD0D9",
"3x    c #DBDFE5",
"3y    c #243E66",
"3z    c #566C8D",
"3A    c #566E92",
"3B    c #677A97",
"3C    c #7789A3",
"3D    c #03265A",
"3E    c #14315B",
"3F    c #032252",
"3G    c #153B75",
"3H    c #677B99",
"3I    c #032557",
"3J    c #032456",
"3K    c #CAD0DA",
"3L    c #8895A9",
"3M    c #77879E",
"3N    c #566B89",
"3O    c #566D8E",
"3P    c #143362",
"3Q    c #98A5B7",
"3R    c #243F67",
"3S    c #BAC2CE",
"3T    c #24406A",
"3U    c #042E6E",
"3V    c #577097",
"3W    c #677A98",
"3X    c #354C6F",
"3Y    c #DBDFE4",
"3Z    c #566A88",
"3&    c #566B8C",
"4     c #677994",
"40    c #03214F",
"41    c #EBEDF0",
"42    c #032454",
"43    c #889AB6",
"44    c #042B66",
"45    c #153669",
"46    c #032354",
"47    c #03214E",
"48    c #BAC1CD",
"49    c #8895AA",
"4a    c #98A5B8",
"4b    c #455C7E",
"4c    c #99A8BE",
"4d    c #042C67",
"4e    c #042860",
"4f    c #143260",
"4g    c #677995",
"4h    c #566A89",
"4i    c #032352",
"4j    c #8896AC",
"4k    c #143567",
"4l    c #042D6B",
"4m    c #5774A0",
"4n    c #153A72",
"4o    c #042961",
"4p    c #566B8B",
"4q    c #24416B",
"4r    c #BAC2D0",
"4s    c #8897AE",
"4t    c #15386E",
"4u    c #053781",
"4v    c #889DBC",
"4w    c #A9B5C7",
"4x    c #042A63",
"4y    c #8899B2",
"4z    c #677C9B",
"4A    c #788BA8",
"4B    c #153B74",
"4C    c #053884",
"4D    c #5775A1",
"4E    c #BAC4D3",
"4F    c #15386F",
"4G    c #CAD3DF",
"4H    c #153971",
"4I    c #46628B",
"4J    c #889AB5",
"4K    c #365686",
"4L    c #577197",
"4M    c #05357F",
"4N    c #053783",
"4O    c #053986",
"4P    c #36578A",
"4Q    c #153D78",
"4R    c #153E7A",
"4S    c #05367F",
"4T    c #053782",
"4U    c #053885",
"4V    c #053987",
"4W    c #05357E",
"     0 1 2 3 4 4 3 2 5 0 0 0 0 1 5 2 5 1 0 0   0 0 0 0 0 0      ",
"   0 1 6 7 8 9 a 8 b 4 2 1 1 5 2 3 3 6 2 1 0 0 1 5 2 2 5 0 0    ",
"   0 2 7 8 c d e d c 9 f g 4 g f b 8 f f g 4 4 g f b f 4 6 5 0  ",
"   1 4 8 h i j k l m e c n n n o p q r o s n n o r h o 8 f 3 1  ",
"   5 7 n t u v w x y z m A t t A B C D D A E F D G H i h a 7 5 0",
"   2 b r G I J K L M N O P Q R S T U T V W X Y Z Z v & F c 8 2 0",
"   20  h000102030405 K06 x x0708090a0b0a0c x0a0d0e x0f0g e 9 6 0",
"   2 8 h0h0i0j0k0l0m0n0o0p0q0o0r0s050k050t0u0v0w0x0y0z0A t a 6 0",
"   2 80B0C0i0D0E0o0u0F0G030k050H0I0J0K0J0I0L0M0N0O050P W t a 6 0",
"   2 8 h0Q I0R0c0p0S L0T030O0U0V0W0J0X0J0I0L0M0N0Y050P0Z t a 3 0",
"   2 b r F u0&1  N1011120S13050H0V1415141617180l191a1b z e a 6 0",
"   2 f n d1c j z R0Z1d1e1f1g0o1h1i051j1a021k1l121m w1n1o h 8 6 0",
"   5 4 8 o1p1q t E F0h1r x1s1t N1u w1  v1v Y I I Y1w1s1x r 8 6 0",
"   1 6 70 1y a a n r d A1z1A0C0h0h1B m1o m F1C1D D D1E1F 8 7 2 0",
" 01G 61H 7 b b 7 b 81I r h1J1J h h h c h c r c h r1K c1L b 4 61G",
" 51M1N b 8 81O b b1P1Q a1R1R1S1L1L1I 9 n n a a n n s1T s1U1V1W 6",
"1X1Y1Z1&2 202 1&1&21222123242526262724211&212424212028292a222b1X",
"2c2d2e2f2g2h2g2f2f2f2i2e2j2k2l2m2m2k2j2e2e2e2j2j2n2f2o2p2o2f2k2c",
"2d2i2q2r2s2t2u2u2v2t2w2x2y2z2A2B2i2h2y2C2D2E2y2p2y2F2G2H2I2J2o2K",
"2e2L2M1s1s1s2N2O2P1s2Q2O2R2S1s2T2L2U2V2W1s2X2V2Y2Y2M1s1s1s2W2Z2g",
"2h2S1s2&3 303031321s1s3334351s2I3637381s1s393a2O2O321s3b3c1s3d2L",
"2o2G1s3e3f3f3f3g3h391s3i3j3k1s3l2O3a3m1s3c1s3n3o3o3h1s3p3q3r1s2J",
"2o2H1s323s3t3t3u3v3w3x1s3y3z1s3A313f3h3v3B1s3C3t3D3v1s3E3F3h1s2J",
"2g3G2W1s393H3I3J3K3w3L1s3M3N1s3O3g3P1s3Q3R1s3S3J3I3v1s3E3T1s2Q2x",
"2e3U3V391s1s3W3j3K3w3X1s3Y3Z1s3&3I3z1s4 403w413q423K1s3v391s432p",
"2j2L44453c1s3x463K3w47481s491s3N3q4a1s4 3Z481s4b3F3w1s1s394c2u2e",
"2k2p4d4e3u3x1s4f3v3v464g1s3w1s4h4i3K1s1s1s1s1s4j4i3K1s4k2O4l2g2m",
"2k4m4n4o3g3r393t3h3h3g3I3r1s1s4p4q1s4r3b3b4s1s3v3j3h1s4t4l2p2k4u",
"2j4v2W2P2Q1s4w312P2P4x3a4y1s1s334z1s4A3a3a312Q1s4k321s4B2p2n2c4C",
"2k4D2W1s1s4E4F2V4G4G2U2Y4H2W1s4I4J1s4K2Y2Y362X1s4L2M2W2o2j4M4N4O",
"2m2e2o2T4P2u2L2o2h2g2f2g2p2L4Q2x2L4R2h2g2g2h2p2q2L2p2h2K4S4T4U4V",
"2c2m2n2i2i2i2e2k2l2m2m2m2k2j2e2e2n2K2m4W4W2m2k2j2j2j2l2c4T4C4O4V"};
