/* XPM */ 
static char * pose_library_xpm[] = {
"32 32 717 2",
"  	c None",
"! 	c #C3BAA9",
"# 	c #C2BAAD",
"$ 	c #C3BAAB",
"% 	c #C5B9A9",
"& 	c #C6BAAE",
"' 	c #C5B9AB",
"( 	c #C5B9AD",
") 	c #C5BAA8",
"* 	c #C6BAAA",
"+ 	c #C5B8AF",
", 	c #C6BBA9",
"- 	c #C4BBAC",
". 	c #C2B8AC",
"0 	c #C6BAAC",
"1 	c #C6B9A9",
"2 	c #C0BBA8",
"3 	c #C2B9AA",
"4 	c #C2BBA8",
"5 	c #C4BBAA",
"6 	c #C3B9AD",
"7 	c #C2B9A7",
"8 	c #F5F4D8",
"9 	c #F1F1CB",
": 	c #F3F1CB",
"; 	c #F5F1CC",
"< 	c #F3F0CD",
"= 	c #F4F1CE",
"> 	c #F1F2CA",
"? 	c #F3F3CF",
"@ 	c #F3F1CA",
"A 	c #F4F2CC",
"B 	c #F5F1CE",
"C 	c #F0F0CA",
"D 	c #F2F2CE",
"E 	c #F6F0CE",
"F 	c #F4F2CB",
"G 	c #C3BAA8",
"H 	c #F2F0CA",
"I 	c #F2F3CB",
"J 	c #F4F0CB",
"K 	c #F4F0CD",
"L 	c #F6F2CD",
"M 	c #CFCCAB",
"N 	c #F4F1D2",
"O 	c #F2F2CC",
"P 	c #635EBA",
"Q 	c #4C4AB7",
"R 	c #4E50B7",
"S 	c #4F4DB8",
"T 	c #4E4FBB",
"U 	c #514EB9",
"V 	c #514EB5",
"W 	c #504EB9",
"X 	c #4F4DBA",
"Y 	c #504DB8",
"Z 	c #4C4DB7",
"[ 	c #4F4EB6",
"] 	c #4C4CBA",
"^ 	c #514FBA",
"_ 	c #504FB7",
"` 	c #4D4EB8",
"a 	c #4D4DB1",
"b 	c #4E4BB2",
"c 	c #4648AF",
"d 	c #F5F1CB",
"e 	c #CBCAAB",
"f 	c #F7F2D2",
"g 	c #3635B7",
"h 	c #1919B7",
"i 	c #2020B6",
"j 	c #2020B4",
"k 	c #201FB8",
"l 	c #1D1AB3",
"m 	c #1F1CB1",
"n 	c #1B1EB9",
"o 	c #1D1CB5",
"p 	c #1E1FB7",
"q 	c #231EB8",
"r 	c #1C1BB5",
"s 	c #1B1EB7",
"t 	c #1D1CB6",
"u 	c #221FB6",
"v 	c #1E1FB5",
"w 	c #1F1BB6",
"x 	c #1E1EB4",
"y 	c #2121B7",
"z 	c #201CB7",
"{ 	c #161BB7",
"| 	c #CFCFAD",
"} 	c #EAE7C4",
"~ 	c #CECBAC",
" !	c #F4F0D3",
"!!	c #3F3FC5",
"#!	c #2525C5",
"$!	c #2C28C5",
"%!	c #2A29C5",
"&!	c #2726C2",
"'!	c #5356A7",
"(!	c #3436BF",
")!	c #312DC0",
"*!	c #3738B6",
"+!	c #272AC5",
",!	c #2C28C7",
"-!	c #2722C6",
".!	c #484BA8",
"0!	c #4345B4",
"1!	c #2928C4",
"2!	c #3F3AB8",
"3!	c #2528C1",
"4!	c #292AC2",
"5!	c #2828C4",
"6!	c #3332B4",
"7!	c #2E2EC0",
"8!	c #2523C6",
"9!	c #2C29C2",
":!	c #2225C8",
";!	c #8D8B74",
"<!	c #D0CFB0",
"=!	c #CECAAD",
">!	c #F6F2CF",
"?!	c #F2F2D0",
"@!	c #4041D1",
"A!	c #2728D2",
"B!	c #2D2CD0",
"C!	c #2C2AD5",
"D!	c #3436BD",
"E!	c #8887A7",
"F!	c #4140B5",
"G!	c #9895B0",
"H!	c #4645BA",
"I!	c #2323D1",
"J!	c #2D2CD2",
"K!	c #8685A7",
"L!	c #4947B4",
"M!	c #8788B6",
"N!	c #6260B4",
"O!	c #2121CF",
"P!	c #2E2AD6",
"Q!	c #2A29C3",
"R!	c #8584A4",
"S!	c #3A3ABC",
"T!	c #6A67BE",
"U!	c #4E4DB5",
"V!	c #1F1FD9",
"W!	c #6E685A",
"X!	c #C7C4A5",
"Y!	c #CECBAA",
"Z!	c #F3F3D1",
"[!	c #4344DA",
"]!	c #2A29DD",
"^!	c #2F2FDF",
"_!	c #2726E3",
"`!	c #6A6BBD",
"a!	c #5D5AAB",
"b!	c #8284AB",
"c!	c #645FA2",
"d!	c #494CBD",
"e!	c #2522E1",
"f!	c #5757C9",
"g!	c #6966A9",
"h!	c #7071AA",
"i!	c #7976A1",
"j!	c #4345B6",
"k!	c #5856B7",
"l!	c #2723DA",
"m!	c #5857BD",
"n!	c #6A68A7",
"o!	c #6663B0",
"p!	c #9792A8",
"q!	c #3335BC",
"r!	c #322ECD",
"s!	c #696A58",
"t!	c #C7C3A6",
"u!	c #CCCBAC",
"v!	c #C3BCAA",
"w!	c #F5F0D2",
"x!	c #4644E3",
"y!	c #2D2CE9",
"z!	c #2D2EEB",
"{!	c #423ED9",
"|!	c #857F99",
"}!	c #7D7BAD",
"~!	c #736FA2",
" #	c #5F5DA8",
"!#	c #958FB3",
"##	c #4546D6",
"$#	c #302FE3",
"%#	c #8279A4",
"&#	c #7775A6",
"'#	c #837EA7",
"(#	c #554FA5",
")#	c #9392B1",
"*#	c #5854CF",
"+#	c #282BEA",
",#	c #7775B6",
"-#	c #6866AF",
".#	c #8987AE",
"0#	c #3F3CA7",
"1#	c #8F8EB0",
"2#	c #5051C7",
"3#	c #6C6A5D",
"4#	c #C4C5A6",
"5#	c #CDCAAB",
"6#	c #F5F2D1",
"7#	c #4A47EE",
"8#	c #2F2DF3",
"9#	c #3032E9",
":#	c #8A7E92",
";#	c #CEB57F",
"<#	c #B7A98E",
"=#	c #7F7C99",
">#	c #7070C6",
"?#	c #2F2DE6",
"@#	c #292AF6",
"A#	c #726AA5",
"B#	c #C5B07B",
"C#	c #C5B38B",
"D#	c #7E7E98",
"E#	c #7E7CBB",
"F#	c #3536DE",
"G#	c #2927F6",
"H#	c #6864B1",
"I#	c #AD9D7B",
"J#	c #9D9296",
"K#	c #696798",
"L#	c #8786B2",
"M#	c #5351D0",
"N#	c #2D2BEE",
"O#	c #6D6A5B",
"P#	c #C4C3A5",
"Q#	c #CFCCAD",
"R#	c #4A48F3",
"S#	c #292AFF",
"T#	c #5E57BF",
"U#	c #D2BB85",
"V#	c #F6E8B9",
"W#	c #E8DCB4",
"X#	c #5754C9",
"Y#	c #2425F3",
"Z#	c #3131FF",
"[#	c #4643DA",
"]#	c #C1AB82",
"^#	c #F3DFAC",
"_#	c #F7EDBC",
"`#	c #7771BB",
"a#	c #2624F1",
"b#	c #2F2FFF",
"c#	c #4643D8",
"d#	c #B59E7C",
"e#	c #EACFA0",
"f#	c #E0CEA0",
"g#	c #7F78BB",
"h#	c #3335E8",
"i#	c #2B2CFF",
"j#	c #2F31F8",
"k#	c #6C6958",
"l#	c #C5C4A5",
"m#	c #F1F1CD",
"n#	c #F5F2CF",
"o#	c #4949F9",
"p#	c #2729F0",
"q#	c #B2A4A3",
"r#	c #FFFDCA",
"s#	c #F1F5DC",
"t#	c #D0C5B1",
"u#	c #726AB5",
"v#	c #7D79C3",
"w#	c #363BD7",
"x#	c #8A7EB0",
"y#	c #FEFDC4",
"z#	c #F2F8DC",
"{#	c #EBDDC2",
"|#	c #766EAA",
"}#	c #817CBE",
"~#	c #4544CE",
" $	c #847BA8",
"!$	c #F9EDB1",
"#$	c #FFFFD9",
"$$	c #D9D4B7",
"%$	c #4944C2",
"&$	c #5251DD",
"'$	c #3E3EEC",
"($	c #2F2DFD",
")$	c #6A6B59",
"*$	c #CDCCAD",
"+$	c #F5F2D3",
",$	c #4541FA",
"-$	c #6E66AF",
".$	c #CDC5AE",
"0$	c #736EA6",
"1$	c #636192",
"2$	c #625E83",
"3$	c #4B4873",
"4$	c #372F6A",
"5$	c #4F4582",
"6$	c #D4C7A5",
"7$	c #726F78",
"8$	c #5A5978",
"9$	c #655B74",
":$	c #4D496E",
";$	c #3A355D",
"<$	c #413C76",
"=$	c #DBCEAC",
">$	c #C8C3AD",
"?$	c #AAAAB2",
"@$	c #A49A99",
"A$	c #7F7691",
"B$	c #727098",
"C$	c #4140D9",
"D$	c #3030FF",
"E$	c #696A5C",
"F$	c #C5C4A6",
"G$	c #C6B8AB",
"H$	c #F5F3CD",
"I$	c #4D4C90",
"J$	c #C6B996",
"K$	c #39345C",
"L$	c #00003C",
"M$	c #020238",
"N$	c #040035",
"O$	c #020031",
"P$	c #080A31",
"Q$	c #B7AB83",
"R$	c #635B66",
"S$	c #00002B",
"T$	c #030132",
"U$	c #020030",
"V$	c #02012B",
"W$	c #ACA183",
"X$	c #7B7275",
"Y$	c #050334",
"Z$	c #120C38",
"[$	c #130B3C",
"]$	c #0A0638",
"^$	c #0B0640",
"_$	c #151166",
"`$	c #141589",
"a$	c #6A6859",
"b$	c #C9C6A7",
"c$	c #F4F1D0",
"d$	c #988C7E",
"e$	c #756A6E",
"f$	c #01002C",
"g$	c #0C0936",
"h$	c #070433",
"i$	c #0B0837",
"j$	c #5A4F5F",
"k$	c #9C9288",
"l$	c #000131",
"m$	c #0D0735",
"n$	c #070536",
"o$	c #090736",
"p$	c #040234",
"q$	c #6A5F63",
"r$	c #AFA38D",
"s$	c #030031",
"t$	c #080637",
"u$	c #0A0935",
"v$	c #090A38",
"w$	c #0E062F",
"x$	c #02002A",
"y$	c #6A6B5D",
"z$	c #CCC9AA",
"{$	c #F2F0C9",
"|$	c #444061",
"}$	c #14113E",
"~$	c #140D40",
" %	c #0B083D",
"!%	c #393B6B",
"#%	c #100E40",
"$%	c #070739",
"%%	c #282246",
"&%	c #211B47",
"'%	c #150F3F",
"(%	c #060436",
")%	c #383668",
"*%	c #1B1847",
"+%	c #040438",
",%	c #5C5364",
"-%	c #383055",
".%	c #0B0C3C",
"0%	c #0C0A39",
"1%	c #3A3A70",
"2%	c #110F3E",
"3%	c #0B093B",
"4%	c #0D0B3C",
"5%	c #0D093C",
"6%	c #040136",
"7%	c #C5C5A3",
"8%	c #C8C7A8",
"9%	c #201C4E",
":%	c #110C44",
";%	c #87859A",
"<%	c #2B2551",
"=%	c #7C7891",
">%	c #3C3B67",
"?%	c #08053C",
"@%	c #07073B",
"A%	c #06023D",
"B%	c #7C7A92",
"C%	c #3E3C61",
"D%	c #5F5F81",
"E%	c #5E5A7F",
"F%	c #03023B",
"G%	c #08053E",
"H%	c #161149",
"I%	c #898498",
"J%	c #292854",
"K%	c #3C386A",
"L%	c #05053B",
"M%	c #0C0B44",
"N%	c #0F0B3E",
"O%	c #06033C",
"P%	c #C8C4A7",
"Q%	c #35325F",
"R%	c #332F6A",
"S%	c #4F4D75",
"T%	c #8E929E",
"U%	c #443E6E",
"V%	c #747190",
"W%	c #0B0447",
"X%	c #14114A",
"Y%	c #3C396E",
"Z%	c #3B366C",
"[%	c #9C98A6",
"]%	c #413F70",
"^%	c #777793",
"_%	c #17134E",
"`%	c #1C1950",
"a%	c #35356B",
"b%	c #4F4C77",
"c%	c #92919F",
"d%	c #43406F",
"e%	c #707190",
"f%	c #090844",
"g%	c #0F0C45",
"h%	c #100B41",
"i%	c #080441",
"j%	c #696A5A",
"k%	c #C3C2A4",
"l%	c #393665",
"m%	c #81839A",
"n%	c #5F5C89",
"o%	c #585280",
"p%	c #7F7C97",
"q%	c #73708F",
"r%	c #363463",
"s%	c #0B0A4C",
"t%	c #747591",
"u%	c #767594",
"v%	c #413E75",
"w%	c #88859A",
"x%	c #6A6989",
"y%	c #4F4B70",
"z%	c #181451",
"{%	c #88899E",
"|%	c #625C88",
"}%	c #55547E",
"~%	c #7F7B96",
" &	c #756E8D",
"!&	c #353662",
"#&	c #080548",
"$&	c #0E0E4E",
"%&	c #070648",
"&&	c #C8C5A6",
"'&	c #C5C1A4",
"(&	c #272459",
")&	c #0E0B4E",
"*&	c #5E5E84",
"+&	c #7B7895",
",&	c #938B88",
"-&	c #C7AF89",
".&	c #9A8A73",
"0&	c #161855",
"1&	c #0D074D",
"2&	c #474878",
"3&	c #817F97",
"4&	c #847D8D",
"5&	c #C4AE87",
"6&	c #AC9C7B",
"7&	c #2B2857",
"8&	c #0B0A4E",
"9&	c #615C84",
":&	c #7B7B97",
";&	c #918C89",
"<&	c #C2B186",
"=&	c #988972",
">&	c #1B195A",
"?&	c #0D0E4F",
"@&	c #08074D",
"A&	c #C7C3A8",
"B&	c #292967",
"C&	c #0A0A52",
"D&	c #04004D",
"E&	c #312F6E",
"F&	c #C7BBA3",
"G&	c #F5E7B6",
"H&	c #D7C293",
"I&	c #6A5F6D",
"J&	c #080A55",
"K&	c #040351",
"L&	c #1C1B61",
"M&	c #A9A099",
"N&	c #F9E9B8",
"O&	c #E3CB9D",
"P&	c #8B7C75",
"Q&	c #0A0D54",
"R&	c #03004D",
"S&	c #2F2F6D",
"T&	c #CABBA4",
"U&	c #F7E6BB",
"V&	c #D8C18F",
"W&	c #6B5E6F",
"X&	c #0B0857",
"Y&	c #0A0853",
"Z&	c #686B58",
"[&	c #C9C5AA",
"]&	c #F2F1D2",
"^&	c #292965",
"_&	c #14145C",
"`&	c #545784",
"a&	c #4F4A73",
"b&	c #A29994",
"c&	c #FEFEDC",
"d&	c #FFFED3",
"e&	c #D0C09C",
"f&	c #1D165A",
"g&	c #45467C",
"h&	c #55527D",
"i&	c #7D787F",
"j&	c #FBFDD6",
"k&	c #FFFCD6",
"l&	c #E9DCAF",
"m&	c #3F3A62",
"n&	c #4D4C86",
"o&	c #A29992",
"p&	c #FCFDDB",
"q&	c #FFFFCF",
"r&	c #D0C29B",
"s&	c #1B185B",
"t&	c #060759",
"u&	c #C3C4A5",
"v&	c #CAC9AB",
"w&	c #C2BBA9",
"x&	c #2C296C",
"y&	c #121161",
"z&	c #44437C",
"{&	c #666086",
"|&	c #736F8A",
"}&	c #868197",
"~&	c #858492",
" '	c #CCC5AB",
"!'	c #867C7D",
"#'	c #2E2E6E",
"$'	c #635D83",
"%'	c #6F678C",
"&'	c #898292",
"''	c #7E7F93",
"('	c #BBB3A8",
")'	c #B2A690",
"*'	c #413E73",
"+'	c #645F87",
",'	c #736E8C",
"-'	c #868098",
".'	c #868394",
"0'	c #CDC6AA",
"1'	c #887E7F",
"2'	c #00005C",
"3'	c #2B2B71",
"4'	c #120F66",
"5'	c #121063",
"6'	c #0C0E63",
"7'	c #0E0E64",
"8'	c #110D61",
"9'	c #07075F",
":'	c #25236C",
";'	c #CDBD9B",
"<'	c #474167",
"='	c #030863",
">'	c #0F0D61",
"?'	c #0C0A5E",
"@'	c #100E62",
"A'	c #B5AD98",
"B'	c #6A6674",
"C'	c #040360",
"D'	c #0E0E66",
"E'	c #100E61",
"F'	c #07075D",
"G'	c #24246C",
"H'	c #CABD9A",
"I'	c #433C66",
"J'	c #6B695A",
"K'	c #C5C4A8",
"L'	c #2D2D75",
"M'	c #11116B",
"N'	c #17176F",
"O'	c #15176C",
"P'	c #18166A",
"Q'	c #16166C",
"R'	c #0A0B67",
"S'	c #5D547F",
"T'	c #15126B",
"U'	c #16166E",
"V'	c #17186B",
"W'	c #0F106C",
"X'	c #353072",
"Y'	c #C3B399",
"Z'	c #29266D",
"['	c #12136D",
"]'	c #15176E",
"^'	c #19166D",
"_'	c #0A0869",
"`'	c #5E5582",
"a'	c #A89C8C",
"b'	c #C4C3A4",
"c'	c #C2B9A8",
"d'	c #F6F1D1",
"e'	c #F3EFCA",
"f'	c #12136F",
"g'	c #16186F",
"h'	c #161771",
"i'	c #171771",
"j'	c #181872",
"k'	c #141873",
"l'	c #191573",
"m'	c #4D4775",
"n'	c #201A70",
"o'	c #171874",
"p'	c #171872",
"q'	c #19166F",
"r'	c #12116F",
"s'	c #47427C",
"t'	c #292772",
"u'	c #161670",
"v'	c #181774",
"w'	c #1A1772",
"x'	c #17196E",
"y'	c #463F73",
"z'	c #252474",
"{'	c #040369",
"|'	c #0A0A6C",
"}'	c #0A0A6A",
"~'	c #090969",
" (	c #0E096F",
"!(	c #080B6A",
"#(	c #04076E",
"$(	c #0B0B6D",
"%(	c #0C0C6C",
"&(	c #0B096C",
"'(	c #0C0A6D",
"((	c #0B0B6B",
")(	c #03096B",
"*(	c #0B096E",
"+(	c #080B6C",
",(	c #010068",
"-(	c #6C695A",
".(	c #C5C6A7",
"0(	c #3F3C35",
"1(	c #3C3C34",
"2(	c #3E3C30",
"3(	c #3C3D35",
"4(	c #3C3C30",
"5(	c #3D3D33",
"6(	c #3F3C33",
"7(	c #3C3C32",
"8(	c #3D3D31",
"9(	c #3B3C34",
":(	c #3F3D31",
";(	c #3D3D35",
"<(	c #3C3E31",
"=(	c #3E3B34",
">(	c #3C3E33",
"?(	c #6C6A5B",
"@(	c #C3C4A4",
"A(	c #D2CFB0",
"B(	c #8E8C77",
"C(	c #6B6A58",
"D(	c #6A6A5E",
"E(	c #6C6B59",
"F(	c #6B695C",
"G(	c #6C685C",
"H(	c #6A6B5B",
"I(	c #8D8A79",
"J(	c #D1D0B2",
"K(	c #F4F0CA",
"L(	c #E8E5C2",
"M(	c #D2CFAE",
"N(	c #C1C4A5",
"O(	c #C4C5A5",
"P(	c #C6C6A4",
"Q(	c #C5C6A6",
"R(	c #C2C5A6",
"S(	c #C2C6A5",
"T(	c #C4C4A2",
"U(	c #C4C4A8",
"V(	c #D4D0AD",
"W(	c #E6E6C2",
"X(	c #CCCBAD",
"Y(	c #EBE8C5",
"Z(	c #C6C2A7",
"[(	c #BCBB9D",
"](	c #BEBFA0",
"^(	c #C3C0A1",
"_(	c #C2C3A4",
"`(	c #C2C1A2",
"a(	c #C3C2A6",
"b(	c #C6C1A4",
"c(	c #C0BFA3",
"d(	c #C5C2A3",
"e(	c #C0C0A4",
"f(	c #C3C2A3",
"g(	c #C1BDA2",
"h(	c #BFC0A1",
"i(	c #C0C0A6",
"j(	c #C4C3A7",
"k(	c #A5A488",
"! # $ % ! ! & $ ' ( ) * % $ + , ! - ! % . 0 1 2 0 3 4 5 $ 6 $ ( ",
"7 8 9 : ; : < = > ? @ < : A A : B C @ D : @ : = @ ; E < F 9 < 4 ",
"G ? H D < : @ = @ : = I J : 9 = @ ; : 9 K A 9 B > A K L H 9 M $ ",
"6 N O P Q R S T U V W X Y Z [ X ] Y ] Y ^ _ [ ` a b c = : d e - ",
"! f 9 g h i j k l m n o p k q r o s t u v k w x y z { | } < ~ - ",
"4  !> !!#!$!%!&!'!(!)!*!+!,!-!.!0!1!2!3!4!5!6!7!8!9!:!;!<!O =!$ ",
"! >!?!@!A!B!C!D!E!F!G!H!I!J!+!K!L!M!N!O!P!Q!R!S!T!U!V!W!X!A Y!$ ",
"! Z!; [!]!^!_!`!a!b!c!W d!e!f!g!h!i!j!k!l!m!n!o!p!q!r!s!t!@ u!! ",
"v!w!: x!y!z!{!|!}!~! #!###$#%#&#'#(#)#*#+#,#-#.#0#1#2#3#4#9 5#! ",
"G 6#O 7#8#9#:#;#<#=#>#?#@#A#B#C#D#E#F#G#H#I#J#K#L#M#N#O#P#K Q#$ ",
"' Z!H R#S#T#U#V#W#X#Y#Z#[#]#^#_#`#a#b#c#d#e#f#g#h#i#j#k#l#m#u!0 ",
"% n#A o#p#q#r#s#t#u#v#w#x#y#z#{#|#}#~# $!$#$$$%$&$'$($)$t!F *$0 ",
"' +$@ ,$-$.$0$1$2$3$4$5$6$7$8$9$:$;$<$=$>$?$@$A$B$C$D$E$F$A u!% ",
"G$H$O I$J$K$L$M$N$O$P$Q$R$S$O$T$U$V$W$X$Y$Z$[$]$^$_$`$a$b$m#u!% ",
"G c$> d$e$f$g$h$i$T$j$k$l$m$n$o$p$q$r$s$t$p$t$u$v$w$x$y$P#F z$% ",
"' ? {$|$}$~$ %!%#%$%%%&%'%(%)%*%+%,%-%.%0%1%2%3%4%5%6%s!7%< 8%5 ",
"- D A 9%:%;%<%=%>%?%@%A%B%C%D%E%F%G%H%I%J%B%K%L%M%N%O%y$F$: P%! ",
"% Z!= Q%R%S%T%U%V%W%X%Y%Z%[%]%^%_%`%a%b%c%d%e%f%g%h%i%j%t!> k%v!",
"' 6#J l%m%n%o%p%q%r%s%t%u%v%w%x%y%z%{%|%}%~% &!&#&$&%&k#&&9 '&) ",
"G = J (&)&*&+&,&-&.&0&1&2&3&4&5&6&7&8&9&:&;&<&=&>&?&@&3#A&: 4#! ",
"G ?!= B&C&D&E&F&G&H&I&J&K&L&M&N&O&P&Q&R&S&T&U&V&W&X&Y&Z&t!: [&% ",
"G ]&: ^&_&`&a&b&c&d&e&f&g&h&i&j&k&l&m&n&a&o&p&q&r&s&t&j%u&K v&w&",
"$ n#B x&y&z&{&|&}&~& '!'#'$'%'&'''(')'*'+','-'.'0'1'2')$F$@ 5#! ",
"! ? : 3'4'5'6'7'8'9':';'<'='7'>'?'@'A'B'C'D'E'F'G'H'I'J'K'A =!- ",
"! c$; L'M'N'N'O'P'Q'R'S')'T'U'O'V'W'X'Y'Z'[']'^'_'`'a'3#b'A u!c'",
"G d'e'L'f'g'h'i'j'k'l'g'm'n'o'h'p'q'r's't'u'v'w'h'x'y'J'K'K u!5 ",
"$ +$D z'{'|'|'}'~'}' (!(#($(%(&('((((()(*($(+((($(|',(-(.(J u!! ",
"' n#; b'3#0(1(2(3(4(5(1(6(7(7(0(8(9(:(;(;(2(<(=(7(1(>(?(@(; 5#5 ",
"( ? O A(B(C(D(?(J'E(F(?(-(G(?(j%C(O#G(H(J'O#W!J'?()$J'I(J(K(~ c'",
"0 O D L(M(l#X!N(K'X!l#4#@(l#t!O(F$O(P(F$Q(R(t!S(T(U(Q(V(W(9 X(! ",
"$ Y(k%Z([(](^(k%_(`(a(b(k%c(k%d(e(a(f(g(h(k%'&](i(k%b(@(X!j(k($ ",
"! 5 ! $ ! ! ! ! ! ! ! ! ! ! ! ! ! ! ! ! ! ! ! ! ! ! ! ! ! ! $ $ "};