/* XPM */
static char *ptrevb[] = {
/* columns rows colors chars-per-pixel */
"32 32 87 1",
"  c #010101",
". c #0B0B0B",
"X c #0F0F10",
"o c #100F0F",
"O c #141414",
"+ c #1C1C1C",
"@ c #232323",
"# c #272827",
"$ c #282727",
"% c #2C2C2C",
"& c #333333",
"* c #3C3C3C",
"= c #3F403F",
"- c #3F4040",
"; c #403F40",
": c #40403F",
"> c #424242",
", c #4A4A4B",
"< c #4F5050",
"1 c #504F50",
"2 c #525252",
"3 c #5B5B5B",
"4 c #67735C",
"5 c #636363",
"6 c #686867",
"7 c #6B6B6B",
"8 c #6C7464",
"9 c #6D7B60",
"0 c #737373",
"q c #7B7B7B",
"w c #6D8353",
"e c #6D9E42",
"r c #728C59",
"t c #74954E",
"y c #708062",
"u c #7F8679",
"i c #779660",
"p c #7E926F",
"a c #7FAC4A",
"s c #7AA356",
"d c #76B040",
"f c #7CB445",
"g c #78B14C",
"h c #7FBB4B",
"j c #7AC33D",
"k c #7ECC3D",
"l c #7AD629",
"z c #7ED82D",
"x c #82AF62",
"c c #82DA32",
"v c #87DB3B",
"b c #88DD36",
"n c #8CE138",
"m c #93E53C",
"M c #93EA3C",
"N c #8FC64B",
"B c #8BCE49",
"V c #87C851",
"C c #89C856",
"Z c #86D847",
"A c #8BD241",
"S c #88DA44",
"D c #8BDA49",
"F c #8DD359",
"G c #8DE14B",
"H c #96E441",
"J c #91E04C",
"K c #97E94D",
"L c #A7EF4D",
"P c #A6F34A",
"I c #A6FC46",
"U c #838383",
"Y c #8B8B8B",
"T c #939393",
"R c #9B9B9B",
"E c #A3A3A3",
"W c gray67",
"Q c #B3B3B3",
"! c #BBBBBB",
"~ c #C3C3C3",
"^ c #CACACA",
"/ c #D4D4D4",
"( c #DADADA",
") c #E4E4E4",
"_ c #ECECEC",
"` c #F3F3F3",
"' c #FDFDFD",
/* pixels */
"TTTTTTTTTTTTTTTTTTTTTT//Y350^/TT",
"YYYYYTYYYYYTYYYY``Eq7Q```E*&6'YY",
"YYUYYYYYU'')EUU)``(6&*U())!65_YU",
"UUU'')WUW``_W>%<Q_)(T<<U/)```UUU",
"qq__`)q%&0(_)^7><R()`)_'qqqqqUqq",
"00/(___E,-5Q()_()`q00q00q0q000q0",
"00_(/^/_(()`00000007000000000000",
"776~^WY(`'(RT~``_ETE__`!TT/_``76",
"665^q*R`'/1#6)`_q%*~`'Q*%Y_`/E66",
"355>*R_)~1*0)_)0*1~__W>>T__/2U35",
"333UY~!W030WQWU33YQET220EEE62!33",
"2222qq000qq077700755565533>*5222",
"1212qUEEEEEEEEEEEEEEEEEEEET*3<<<",
",,,,qURRRRRRRxiTRRRRRRRRRET>3,,,",
">>>>qqTTTTTTTFDgpTTTTTTTTTY>3>>>",
";;>>UqYYYYYYYCZGDsuYTYYYYYU>3---",
"****UqUYUUYUUCSDDKBrUUYUUYU=3***",
"&&&&qqqUUUUUUCDSvvnMf9UUUU0-3&&&",
"&&%&UqqqqqqqqVccbbmHIAqq075*3%&&",
"%%%%U0000q0qqjlcbHPPa976665*3%%%",
"$@$#U06677700jzbHPNw6666665>5$#$",
"@@@@U06777777jznHt877777076*3@@@",
"++++U07000077kcd47000000076*3+++",
"++++U00000000Ve8q0000000000*3+++",
"OOOO/'''_U!''''`T'TqT'T`!q0`EOOO",
"OOOO//qU_/!`qUUqY_!q!_Y`!q0`WOOO",
".O.O//UU(/!`UUUUU//U//U`!Uq`WOXX",
"..../_/('!~'''`YUE'!'EY`~^E_E...",
"..../`_'QqQ`007770_(_75`^`~`W...",
"    ~~3)_2R`>>>>**!'!&&``6!'T   ",
"    WW O(Wq''''_  &'&  _W >_q   ",
"                                "
};
