/* XPM */
static char * R_FootSmall_xpm[] = {
"115 32 359 2",
"  	c None",
". 	c #C7C7C7",
"+ 	c #C6C7C8",
"@ 	c #CAC6C5",
"# 	c #C5C8CA",
"$ 	c #C8C8C3",
"% 	c #CAC4CB",
"& 	c #D4C4C6",
"* 	c #C76E6C",
"= 	c #B9ACAC",
"- 	c #7E8386",
"; 	c #7A8185",
"> 	c #868F94",
", 	c #646E76",
"' 	c #5C666E",
") 	c #767F86",
"! 	c #838B90",
"~ 	c #9B8C8E",
"{ 	c #C86F6D",
"] 	c #D0C4C6",
"^ 	c #C8C6C9",
"/ 	c #C8C6CA",
"( 	c #C8C7C4",
"_ 	c #C7C7C6",
": 	c #C7C7C8",
"< 	c #C9C6C6",
"[ 	c #C8C8C2",
"} 	c #CAC5CB",
"| 	c #D3C3C6",
"1 	c #B05351",
"2 	c #988788",
"3 	c #7E7D7E",
"4 	c #89898C",
"5 	c #393A3E",
"6 	c #424449",
"7 	c #66686D",
"8 	c #5C5E64",
"9 	c #2D2F34",
"0 	c #908082",
"a 	c #C56B69",
"b 	c #CFC3C6",
"c 	c #C6C4C8",
"d 	c #C7C7C2",
"e 	c #CDC8CF",
"f 	c #D0C0C2",
"g 	c #C86E6C",
"h 	c #C9B6B6",
"i 	c #848282",
"j 	c #565456",
"k 	c #5F5D5F",
"l 	c #656465",
"m 	c #5C5A5E",
"n 	c #404043",
"o 	c #727275",
"p 	c #BCACAD",
"q 	c #CA706E",
"r 	c #CDC1C3",
"s 	c #C8C3CA",
"t 	c #D1C2C4",
"u 	c #C9706E",
"v 	c #D2C3C2",
"w 	c #585756",
"x 	c #7C7B7A",
"y 	c #626161",
"z 	c #414040",
"A 	c #6A6A69",
"B 	c #5B5C5C",
"C 	c #171819",
"D 	c #C86A68",
"E 	c #C7C5C8",
"F 	c #C9C6C8",
"G 	c #C3C8CA",
"H 	c #CCC4C8",
"I 	c #CFC6C5",
"J 	c #C7CDC9",
"K 	c #D2C0BB",
"L 	c #CC6C74",
"M 	c #D6BFC3",
"N 	c #3D383A",
"O 	c #827F80",
"P 	c #525352",
"Q 	c #595A5A",
"R 	c #646466",
"S 	c #69696A",
"T 	c #323030",
"U 	c #AB918D",
"V 	c #C76770",
"W 	c #CFC4C2",
"X 	c #C3C9C6",
"Y 	c #CDC3CA",
"Z 	c #C2CAC6",
"` 	c #C8C7C7",
" .	c #C6C8C4",
"..	c #C8C6C7",
"+.	c #CAC6C7",
"@.	c #C3C9C8",
"#.	c #C1CACB",
"$.	c #CFC2CA",
"%.	c #D0C2C6",
"&.	c #BECEC0",
"*.	c #D1C2B9",
"=.	c #AA505E",
"-.	c #91767E",
";.	c #5B5257",
">.	c #5D595D",
",.	c #646567",
"'.	c #535758",
").	c #5C5E60",
"!.	c #88868A",
"~.	c #383132",
"{.	c #64453F",
"].	c #A74D5E",
"^.	c #CEC4BE",
"/.	c #C0CCC5",
"(.	c #D1C2C8",
"_.	c #BECCC9",
":.	c #C7C8C5",
"<.	c #C3CAC4",
"[.	c #C8C6C6",
"}.	c #C3C9C7",
"|.	c #BFCBCA",
"1.	c #C7C6CB",
"2.	c #CBC4C8",
"3.	c #BFCBC3",
"4.	c #CBC6BF",
"5.	c #EAB4BC",
"6.	c #503D44",
"7.	c #5E575B",
"8.	c #706D70",
"9.	c #4E4E50",
"0.	c #4E5152",
"a.	c #7E8082",
"b.	c #838184",
"c.	c #645F61",
"d.	c #7B6964",
"e.	c #F3B4C0",
"f.	c #D1C7C5",
"g.	c #C1C8C5",
"h.	c #CEC4C9",
"i.	c #C2C9C9",
"j.	c #C6C8C5",
"k.	c #C5C8C7",
"l.	c #C6C8C6",
"m.	c #C0CAC9",
"n.	c #C2C9CB",
"o.	c #CAC8CB",
"p.	c #C1C3C3",
"q.	c #CBCCC9",
"r.	c #786A6A",
"s.	c #241C20",
"t.	c #5B565A",
"u.	c #39373A",
"v.	c #565658",
"w.	c #6A6B6D",
"x.	c #313234",
"y.	c #2F2E30",
"z.	c #615E60",
"A.	c #221C18",
"B.	c #AD969B",
"C.	c #CEC6C9",
"D.	c #C6C6C8",
"E.	c #C9C6CA",
"F.	c #CAC6C6",
"G.	c #C7C7C9",
"H.	c #C8C7C6",
"I.	c #CCC5C4",
"J.	c #C9C6C5",
"K.	c #C4C8C8",
"L.	c #C8C6CC",
"M.	c #CFC7CD",
"N.	c #C4C5C7",
"O.	c #141F1C",
"P.	c #5E5B5E",
"Q.	c #757275",
"R.	c #807E81",
"S.	c #A5A5A7",
"T.	c #A9AAAC",
"U.	c #A8A8AA",
"V.	c #B7B7B9",
"W.	c #9A989A",
"X.	c #6C6E6F",
"Y.	c #191F1F",
"Z.	c #C6C2C7",
"`.	c #CBC7CD",
" +	c #C7C7CA",
".+	c #CAC6C8",
"++	c #C8C7C5",
"@+	c #C7C7C5",
"#+	c #CEC4C4",
"$+	c #C8C6C8",
"%+	c #C6C5C9",
"&+	c #CFC6CC",
"*+	c #9C989E",
"=+	c #738280",
"-+	c #AEAFB1",
";+	c #B8B6B9",
">+	c #AFAFB1",
",+	c #B3B3B5",
"'+	c #B5B5B7",
")+	c #B2B2B4",
"!+	c #B4B4B6",
"~+	c #BCBCBE",
"{+	c #B0B2B6",
"]+	c #7A8988",
"^+	c #6E7074",
"/+	c #CAC5CA",
"(+	c #CDC4C5",
"_+	c #C5C8C5",
":+	c #CDC4C6",
"<+	c #C8CAC9",
"[+	c #C6C4C6",
"}+	c #736E72",
"|+	c #9DA2A4",
"1+	c #B0B1B3",
"2+	c #C3C4C6",
"3+	c #CFCFD1",
"4+	c #D9D9DB",
"5+	c #DEDEE0",
"6+	c #D2D2D4",
"7+	c #C8C8CA",
"8+	c #B9B6BC",
"9+	c #9BA2A3",
"0+	c #414949",
"a+	c #C8C2C6",
"b+	c #CBC5C8",
"c+	c #BECCC5",
"d+	c #C0CAC3",
"e+	c #9CA7A2",
"f+	c #8E888A",
"g+	c #9F9A9D",
"h+	c #B0B0B2",
"i+	c #CACACC",
"j+	c #DDDDDF",
"k+	c #ECECEE",
"l+	c #F7F6F8",
"m+	c #EDEDEF",
"n+	c #E0E0E2",
"o+	c #CECDD0",
"p+	c #BAB0B6",
"q+	c #A09B9E",
"r+	c #525D5A",
"s+	c #A9A5A6",
"t+	c #CEC4C6",
"u+	c #BECCC7",
"v+	c #C0CAC7",
"w+	c #CCC4C7",
"x+	c #C1CAC6",
"y+	c #CBC6C5",
"z+	c #C4CAC7",
"A+	c #717A76",
"B+	c #727070",
"C+	c #938E90",
"D+	c #A6A7A8",
"E+	c #C8C9CA",
"F+	c #DCDCDD",
"G+	c #EBEBEC",
"H+	c #F6F5F7",
"I+	c #E9E9EA",
"J+	c #DEDEDE",
"K+	c #CCCACC",
"L+	c #B6AEB2",
"M+	c #928A8D",
"N+	c #6C716F",
"O+	c #838281",
"P+	c #C9C4C4",
"Q+	c #C2CBC8",
"R+	c #C4CAC8",
"S+	c #C6C6C5",
"T+	c #98A69C",
"U+	c #C6C6C6",
"V+	c #9F9F9F",
"W+	c #9B9B9B",
"X+	c #A6A6A6",
"Y+	c #B4B4B4",
"Z+	c #C4C4C4",
"`+	c #CCCCCC",
" @	c #D4D4D4",
".@	c #D7D7D7",
"+@	c #D2D2D2",
"@@	c #CDCDCD",
"#@	c #BCB8B9",
"$@	c #ADA9AA",
"%@	c #979596",
"&@	c #A2A2A2",
"*@	c #C9C9C9",
"=@	c #C5C7C6",
"-@	c #C3C7C6",
";@	c #767C79",
">@	c #435A4D",
",@	c #C8C8C8",
"'@	c #CACACA",
")@	c #CAC7C8",
"!@	c #C7C5C6",
"~@	c #C7C9C8",
"{@	c #C4C8C6",
"]@	c #C1C6C4",
"^@	c #708076",
"/@	c #C8C5C6",
"(@	c #CBC9CA",
"_@	c #C8CACA",
":@	c #C2C4C2",
"<@	c #C6CAC9",
"[@	c #C2CAC4",
"}@	c #C8C7C8",
"|@	c #C7C6C6",
"1@	c #C6C8C7",
"2@	c #C9CACA",
"3@	c #C7C8C7",
"4@	c #0F0F0F",
"5@	c #545454",
"6@	c #4E4E4E",
"7@	c #2B2B2B",
"8@	c #A7A7A7",
"9@	c #727272",
"0@	c #2A2A2A",
"a@	c #888888",
"b@	c #B2B2B2",
"c@	c #ACACAC",
"d@	c #5A5A5A",
"e@	c #7A7A7A",
"f@	c #646464",
"g@	c #6A6A6A",
"h@	c #B3B3B3",
"i@	c #444444",
"j@	c #323232",
"k@	c #A8A8A8",
"l@	c #636363",
"m@	c #565656",
"n@	c #484848",
"o@	c #BDBDBD",
"p@	c #2D2D2D",
"q@	c #B6B6B6",
"r@	c #8D8D8D",
"s@	c #464646",
"t@	c #6E6E6E",
"u@	c #5F5F5F",
"v@	c #BEBEBE",
"w@	c #949494",
"x@	c #404040",
"y@	c #666666",
"z@	c #707070",
"A@	c #0E0E0E",
"B@	c #5B5B5B",
"C@	c #8E8E8E",
"D@	c #A1A1A1",
"E@	c #454545",
"F@	c #787878",
"G@	c #575757",
"H@	c #6B6B6B",
"I@	c #C1C1C1",
"J@	c #6C6C6C",
"K@	c #929292",
"L@	c #717171",
"M@	c #9D9D9D",
"N@	c #959595",
"O@	c #878787",
"P@	c #BCBCBC",
"Q@	c #B5B5B5",
"R@	c #C2C2C2",
". . . . . . . . . . . . . . . . . . . . . . . . . . . . . . . . . . . . . . . . . . . . . . . . . . . . . . . . . . . . . . . . . . . . . . . . . . . . . . . . . . . . . . . . . . + @ # + $ % & * = - ; > , ' ) ! ~ { ] ^ / ( _ : < ",
". . . . . . . . . . . . . . . . . . . . . . . . . . . . . . . . . . . . . . . . . . . . . . . . . . . . . . . . . . . . . . . . . . . . . . . . . . . . . . . . . . . . . . . . . . + @ # + [ } | 1 2 3 4 5 6 7 8 9 0 a b c / ( _ : < ",
". . . . . . . . . . . . . . . . . . . . . . . . . . . . . . . . . . . . . . . . . . . . . . . . . . . . . . . . . . . . . . . . . . . . . . . . . . . . . . . . . . . . . . . . . . + @ # + d e f g h i j k l m n o p q r ^ / ( _ : < ",
". . . . . . . . . . . . . . . . . . . . . . . . . . . . . . . . . . . . . . . . . . . . . . . . . . . . . . . . . . . . . . . . . . . . . . . . . . . . . . . . . . . . . . . . . . + @ # + [ s t u v w x y z A B C & D ] E / ( _ : < ",
". . . . . . . . . . . . . . . . . . . . . . . . . . . . . . . . . . . . . . . . . . . . . . . . . . . . . . . . . . . . . . . . . . . . . . . . . . . . . . . . . . . . . . . . . . F . G H I J K L M N O P Q R S T U V W X Y Z ` _  .",
". . . . . . . . . . . . . . . . . . . . . . . . . . . . . . . . . . . . . . . . . . . . . . . . . . . . . . . . . . . . . . . . . . . . . . . . . . . . . . . . . . . . . . . . . ..+.@.#.$.%.&.*.=.-.;.>.,.'.).!.~.{.].^./.(._.` :.<.",
". . . . . . . . . . . . . . . . . . . . . . . . . . . . . . . . . . . . . . . . . . . . . . . . . . . . . . . . . . . . . . . . . . . . . . . . . . . . . . . . . . . . . . . . . . [.}.|.1.2.3.4.5.6.7.8.9.0.a.b.c.d.e.f.g.h.i.< j.k.",
". . . . . . . . . . . . . . . . . . . . . . . . . . . . . . . . . . . . . . . . . . . . . . . . . . . . . . . . . . . . . . . . . . . . . . . . . . . . . . . . . . . . . . . . . . ( l.m.n.o.p.q.r.s.t.u.v.w.x.y.z.A.B.C.D.E.: F. .G.",
". . . . . . . . . . . . . . . . . . . . . . . . . . . . . . . . . . . . . . . . . . . . . . . . . . . . . . . . . . . . . . . . . . . . . . . . . . . . . . . . . . . . . . . . . H.I.J.K.G L.M.N.O.P.Q.R.S.T.U.V.W.X.Y.Z.`. +.+++@+/ ",
". . . . . . . . . . . . . . . . . . . . . . . . . . . . . . . . . . . . . . . . . . . . . . . . . . . . . . . . . . . . . . . . . . . . . . . . . . . . . . . . . . . . . . . . . ..#+J...$+%+&+*+=+-+;+>+,+'+)+!+~+{+]+^+/+^ . l.[./ ",
". . . . . . . . . . . . . . . . . . . . . . . . . . . . . . . . . . . . . . . . . . . . . . . . . . . . . . . . . . . . . . . . . . . . . . . . . . . . . . . . . . . . . . . . . ..(+_+< :+<+[+}+|+1+2+3+4+5+4+6+7+8+9+0+a+b+}.}.F.$+",
". . . . . . . . . . . . . . . . . . . . . . . . . . . . . . . . . . . . . . . . . . . . . . . . . . . . . . . . . . . . . . . . . . . . . . . . . . . . . . . . . . . . . . . . . ..< c+@+#+d+e+f+g+h+i+j+k+l+m+n+o+p+q+r+s+t+u+v+w+l.",
". . . . . . . . . . . . . . . . . . . . . . . . . . . . . . . . . . . . . . . . . . . . . . . . . . . . . . . . . . . . . . . . . . . . . . . . . . . . . . . . . . . . . . . . . . . x+l.y+z+A+B+C+D+E+F+G+H+I+J+K+L+M+N+O+P+Q+R+S+T+",
". . . . . . . . . . . . . . . . . . . . . . . . . . . . . . . . . . . . . . . . . . . . . . . . . . . . . . . . . . . . . . . . . . . . . . . . . . . . . . . . . . . . . . . . . . . . . . U+V+W+X+Y+Z+`+ @.@+@@@Z+#@$@%@&@*@=@-@;@>@",
". . . . . . . . . . . . . . . . . . . . . . . . . . . . . . . . . . . . . . . . . . . . . . . . . . . . . . . . . . . . . . . . . . . . . . . . . . . . . . . . . . . . . . . . . . . . . . ,@. ,@U+,@U+. . U+. . '@.+)@!@*@,@~@{@]@^@",
". . . . . . . . . . . . . . . . . . . . . . . . . . . . . . . . . . . . . . . . . . . . . . . . . . . . . . . . . . . . . . . . . . . . . . . . . . . . . . . . . . . . . . . . . . . . . . U+U+U+'@,@. ,@U+U+U+U+. /@!@(@U+U+_@:@<@[@",
". . . . . . . . . . . . . . . . . . . . . . . . . . . . . . . . . . . . . . . . . . . . . . . . . . . . . . . . . . . . . . . . . . . . . . . . . . . . . . . . . . . . . . . . . . . . . . . ,@. U+. U+U+U+. U+. U+[.}@|@. ,@1@2@=@3@",
". . . . . . . . . . . . . . . . . . . . . . . . . . . . . . . . . . . . . . . . . . . . . . . . . . . . . . . . . . . . . . . . . . . . . . . . . . . . . . . . . . . . . . . . . . . . . . . . . . . . . . . . . . ... . . . . . . ..",
". . . . . . . . . . . . . . . . . . . . . . . . . . . . . . . . . . . . . . . . . . . . . . . . . . . . . . . . . . . . . . . . . . . . . . . . . . . . . . . . . . . . . . . . . . . . . . . . . . . . . . . . . . . . . . . . . . $+",
". . . . . . . . . . . . . . . . . . . . . . . . . . . . . . . . . . . . . . . . . . . . . . . . . . . . . . . . . . . . . . . . . . . . . . . . . . . . . . . . . . . . . . . . . . . . . . . . . . . . . . . . . . . . . . . . . ..^ ",
". . . . . . . . . . . . . . . . . . . . . . . . . . . . . . . . . . . . . . . . . . . . . . . . . . . . . . . . . . . . . . . . . . . . . . . . . . . . . . . . . . . . . . . . . . . . . . . . . . . . . . . . . . . . . . . . . ..: ",
". . . . . . . . . . . . . . . . . . . . . . . . . . . . . . . . . . . . . . . . . . . . . . . . . . . . . . . . . . . . . . . . . . . . . . . . . . . . 4@5@6@7@8@. . . . . 9@0@5@5@a@. . . . . . . . . b@c@. . . . . . . . . . . . . ",
". . . . . . . . . . . . . . . . . . . . . . . . . . . . . . . . . . . . . . . . . . . . . . . . . . . . . . . . . . . . . . . . . . . . . . . . . . . . 4@. . d@e@. . . . . 9@f@. . . . a@g@h@. h@g@a@. i@j@k@. . . . . . . . . . . . ",
". . . . . . . . . . . . . . . . . . . . . . . . . . . . . . . . . . . . . . . . . . . . . . . . . . . . . . . . . . . . . . . . . . . . . . . . . . . . 4@l@m@n@o@. . . . . 9@p@d@d@q@r@s@&@0@. 0@&@s@r@t@u@Z+. . . . . . . . . . . . ",
". . . . . . . . . . . . . . . . . . . . . . . . . . . . . . . . . . . . . . . . . . . . . . . . . . . . . . . . . . . . . . . . . . . . . . . . . . . . 4@v@w@x@U+. . . . . 9@f@. . . y@z@. A@. A@. z@y@9@f@. . . . . . . . . . . . . ",
". . . . . . . . . . . . . . . . . . . . . . . . . . . . . . . . . . . . . . . . . . . . . . . . . . . . . . . . . . . . . . . . . . . . . . . . . . . . 4@. . B@9@. . . . . 9@f@. . . C@s@D@0@. 7@&@E@r@F@G@Z+. . . . . . . . . . . . ",
". . . . . . . . . . . . . . . . . . . . . . . . . . . . . . . . . . . . . . . . . . . . . . . . . . . . . . . . . . . . . . . . . . . . . . . . . . . . H@. . I@J@K@f@f@f@L@M@N@. . . . O@g@h@. h@g@a@. P@H@Q@. . . . . . . . . . . . ",
". . . . . . . . . . . . . . . . . . . . . . . . . . . . . . . . . . . . . . . . . . . . . . . . . . . . . . . . . . . . . . . . . . . . . . . . . . . . . . . . . R@v@v@v@v@. . . . . . . . . . . . . . . . . . . . . . . . . . . . . ",
". . . . . . . . . . . . . . . . . . . . . . . . . . . . . . . . . . . . . . . . . . . . . . . . . . . . . . . . . . . . . . . . . . . . . . . . . . . . . . . . . . . . . . . . . . . . . . . . . . . . . . . . . . . . . . . . . . . ",
". . . . . . . . . . . . . . . . . . . . . . . . . . . . . . . . . . . . . . . . . . . . . . . . . . . . . . . . . . . . . . . . . . . . . . . . . . . . . . . . . . . . . . . . . . . . . . . . . . . . . . . . . . . . . . . . . . . ",
". . . . . . . . . . . . . . . . . . . . . . . . . . . . . . . . . . . . . . . . . . . . . . . . . . . . . . . . . . . . . . . . . . . . . . . . . . . . . . . . . . . . . . . . . . . . . . . . . . . . . . . . . . . . . . . . . . . ",
". . . . . . . . . . . . . . . . . . . . . . . . . . . . . . . . . . . . . . . . . . . . . . . . . . . . . . . . . . . . . . . . . . . . . . . . . . . . . . . . . . . . . . . . . . . . . . . . . . . . . . . . . . . . . . . . . . . "};
