/* XPM */
static char * R_HandSmall_xpm[] = {
"46 48 656 2",
"  	c None",
". 	c #C7C7C7",
"+ 	c #B0B0B0",
"@ 	c #B4B4B4",
"# 	c #727272",
"$ 	c #2A2A2A",
"% 	c #535353",
"& 	c #3A3A3A",
"* 	c #595959",
"= 	c #0F0F0F",
"- 	c #646464",
"; 	c #BEBEBE",
"> 	c #161616",
", 	c #A5A5A5",
"' 	c #6B6B6B",
") 	c #C0C0C0",
"! 	c #9D9D9D",
"~ 	c #919191",
"{ 	c #767676",
"] 	c #898989",
"^ 	c #ACACAC",
"/ 	c #6D6D6D",
"( 	c #323232",
"_ 	c #616161",
": 	c #3F3F3F",
"< 	c #888888",
"[ 	c #5A5A5A",
"} 	c #343434",
"| 	c #A8A8A8",
"1 	c #B7B8B2",
"2 	c #4D4E4A",
"3 	c #7A7A7E",
"4 	c #727274",
"5 	c #2B2B2D",
"6 	c #A1A1A6",
"7 	c #0D0D0D",
"8 	c #C2C2C0",
"9 	c #303130",
"0 	c #BEBEBF",
"a 	c #626165",
"b 	c #C6C8C1",
"c 	c #C6C8C4",
"d 	c #C7C6CD",
"e 	c #C7C7C8",
"f 	c #C7C8C3",
"g 	c #5F5F5F",
"h 	c #BDBDBD",
"i 	c #3B3B3B",
"j 	c #6B6C67",
"k 	c #3C3D3A",
"l 	c #72717A",
"m 	c #727277",
"n 	c #656568",
"o 	c #C4C6C0",
"p 	c #0F0F0E",
"q 	c #A5A4A2",
"r 	c #474642",
"s 	c #C9C7C3",
"t 	c #727372",
"u 	c #C5C8C1",
"v 	c #C6C8C5",
"w 	c #C6C6CE",
"x 	c #C8C7C4",
"y 	c #C8C8C0",
"z 	c #B2B2B2",
"A 	c #282828",
"B 	c #BBBBBB",
"C 	c #0E0E0E",
"D 	c #AAAAA8",
"E 	c #464646",
"F 	c #616067",
"G 	c #727276",
"H 	c #63635F",
"I 	c #CACBB7",
"J 	c #10100C",
"K 	c #CED190",
"L 	c #2C2C22",
"M 	c #BCBC88",
"N 	c #2D2D26",
"O 	c #737172",
"P 	c #C8C8C5",
"Q 	c #C6C8C2",
"R 	c #C7C6CC",
"S 	c #959595",
"T 	c #929292",
"U 	c #979797",
"V 	c #A3A3A3",
"W 	c #909090",
"X 	c #6C6B70",
"Y 	c #A3A3A4",
"Z 	c #6A6B69",
"` 	c #9C9C9D",
" .	c #98988F",
"..	c #CAC5BA",
"+.	c #787949",
"@.	c #DFEA43",
"#.	c #B1B644",
"$.	c #82843C",
"%.	c #999E4C",
"&.	c #A1A082",
"*.	c #C8C6C6",
"=.	c #C7C6CA",
"-.	c #C3C3C3",
";.	c #C6C8C6",
">.	c #C6C7CA",
",.	c #C9C6C4",
"'.	c #CFC6C3",
").	c #D0CB7C",
"!.	c #F1F655",
"~.	c #D7D748",
"{.	c #E1E262",
"].	c #E2E85F",
"^.	c #CECF8B",
"/.	c #CAC3CF",
"(.	c #C8C5D0",
"_.	c #C6C7C8",
":.	c #C6CABB",
"<.	c #C6C9BD",
"[.	c #C7C7C4",
"}.	c #C6C7CC",
"|.	c #C7C4CA",
"1.	c #CCC3C4",
"2.	c #D6CE90",
"3.	c #E6E164",
"4.	c #ECE578",
"5.	c #EBEA69",
"6.	c #DEE068",
"7.	c #D1CAB4",
"8.	c #C8C1CE",
"9.	c #C8C8C2",
"0.	c #C6C7C9",
"a.	c #C5C8C7",
"b.	c #C6C9C0",
"c.	c #C8C7C5",
"d.	c #C5C8C8",
"e.	c #C9C9C9",
"f.	c #CAC4BF",
"g.	c #D0CE7B",
"h.	c #F3F557",
"i.	c #E0DD58",
"j.	c #E2E35C",
"k.	c #D9DC68",
"l.	c #CEC8AC",
"m.	c #CBC5C9",
"n.	c #C8C6C8",
"o.	c #C6C5D4",
"p.	c #C6C4DA",
"q.	c #C6C6CD",
"r.	c #C8C7C6",
"s.	c #C6C7CD",
"t.	c #C4C9C4",
"u.	c #C6C8BF",
"v.	c #CECFAE",
"w.	c #DEE17A",
"x.	c #E2E547",
"y.	c #EAEC55",
"z.	c #E4E568",
"A.	c #D8DD60",
"B.	c #DCE188",
"C.	c #CAC8B4",
"D.	c #C8C5CE",
"E.	c #C6C6CB",
"F.	c #C4C8C6",
"G.	c #C7C7C6",
"H.	c #C9C6C6",
"I.	c #C7C5C6",
"J.	c #C4C4C4",
"K.	c #C8C8C8",
"L.	c #C6C6C6",
"M.	c #C8C7C8",
"N.	c #C8C7CD",
"O.	c #C4C6C9",
"P.	c #DEBEBB",
"Q.	c #EEB5B2",
"R.	c #EEB79E",
"S.	c #FDC694",
"T.	c #FFC88C",
"U.	c #FFC685",
"V.	c #F1B77C",
"W.	c #FFC88D",
"X.	c #F8C48E",
"Y.	c #EBBAA8",
"Z.	c #EFB3B2",
"`.	c #E5BEB0",
" +	c #CBCBBE",
".+	c #C6C6C5",
"++	c #C6C6C7",
"@+	c #C8C8CA",
"#+	c #C6C5C9",
"$+	c #C6C8C7",
"%+	c #C6C8C8",
"&+	c #C6C7C7",
"*+	c #C8C7C7",
"=+	c #C8C6C7",
"-+	c #C8C8C9",
";+	c #C5C5C6",
">+	c #C8C2CA",
",+	c #CCC5CD",
"'+	c #C5C9C2",
")+	c #B57A7C",
"!+	c #CA6A71",
"~+	c #BC746F",
"{+	c #B97672",
"]+	c #B57876",
"^+	c #B37877",
"/+	c #B37874",
"(+	c #BB7472",
"_+	c #B87573",
":+	c #B0797A",
"<+	c #C86C6C",
"[+	c #BC7671",
"}+	c #C4C8CA",
"|+	c #C7C7CC",
"1+	c #C8C8CD",
"2+	c #9D9DA4",
"3+	c #CAC5C9",
"4+	c #CAC5CA",
"5+	c #C3C9C9",
"6+	c #C4C8C9",
"7+	c #C5C8C9",
"8+	c #C6C6C8",
"9+	c #CBC9CA",
"0+	c #C9C7C8",
"a+	c #CBC8CE",
"b+	c #C3C2C6",
"c+	c #C1CBC3",
"d+	c #AA7A80",
"e+	c #EEB6BC",
"f+	c #CCC6BC",
"g+	c #C6C8C0",
"h+	c #BCCCC7",
"i+	c #BBCCCA",
"j+	c #BECBC8",
"k+	c #C9C7C7",
"l+	c #CCC6C6",
"m+	c #CBC4CA",
"n+	c #A1626A",
"o+	c #885057",
"p+	c #727888",
"q+	c #777886",
"r+	c #292A33",
"s+	c #2A2C35",
"t+	c #343440",
"u+	c #CAC5C4",
"v+	c #D0C6C4",
"w+	c #988E8D",
"x+	c #948A88",
"y+	c #AFA5A4",
"z+	c #CEC4C2",
"A+	c #CEC4C3",
"B+	c #C9C4BE",
"C+	c #979288",
"D+	c #9E988A",
"E+	c #A55D62",
"F+	c #CF8A8D",
"G+	c #AE9E93",
"H+	c #B09C9A",
"I+	c #A69B9C",
"J+	c #A4989D",
"K+	c #A99A9F",
"L+	c #B49CA0",
"M+	c #B7A3A6",
"N+	c #908388",
"O+	c #68232B",
"P+	c #6B3138",
"Q+	c #363647",
"R+	c #3F3D4F",
"S+	c #3C3E4C",
"T+	c #3C3F4D",
"U+	c #3C3F4E",
"V+	c #C5C7C7",
"W+	c #C6CBC9",
"X+	c #C5C7C3",
"Y+	c #CAC9C4",
"Z+	c #C9C8C0",
"`+	c #CAC7C1",
" @	c #CAC8C1",
".@	c #C8C6C0",
"+@	c #B0A9A3",
"@@	c #A1938E",
"#@	c #A99A96",
"$@	c #AD9F9A",
"%@	c #B2A39E",
"&@	c #C3B3AE",
"*@	c #CBBCB7",
"=@	c #CBBAB6",
"-@	c #AE9B95",
";@	c #958078",
">@	c #9F8A82",
",@	c #A7928A",
"'@	c #AE9890",
")@	c #B29D95",
"!@	c #B7A199",
"~@	c #BAA49C",
"{@	c #BDA89E",
"]@	c #C4A69B",
"^@	c #CEA99A",
"/@	c #C06062",
"(@	c #EB9C99",
"_@	c #CCAF9C",
":@	c #D7B0A5",
"<@	c #D4B5AD",
"[@	c #D8B7B0",
"}@	c #DFB9B1",
"|@	c #E3BCB2",
"1@	c #DDC0B5",
"2@	c #D6C4C0",
"3@	c #752E2E",
"4@	c #6E3335",
"5@	c #444251",
"6@	c #413E52",
"7@	c #414455",
"8@	c #404355",
"9@	c #3D4052",
"0@	c #CAC6C6",
"a@	c #CAC4C2",
"b@	c #9B908C",
"c@	c #92837C",
"d@	c #948078",
"e@	c #99847A",
"f@	c #A59088",
"g@	c #A8948C",
"h@	c #B59C95",
"i@	c #A98D83",
"j@	c #A0847A",
"k@	c #B6988F",
"l@	c #BC9D94",
"m@	c #C7A89F",
"n@	c #CAAAA2",
"o@	c #CEAEA6",
"p@	c #D9B9AF",
"q@	c #DBBBB0",
"r@	c #E3C3B8",
"s@	c #EBCBC0",
"t@	c #E7C7BB",
"u@	c #E6C6BA",
"v@	c #E2C2B6",
"w@	c #E0C0B5",
"x@	c #DAC3B8",
"y@	c #DABDB7",
"z@	c #DEBAB2",
"A@	c #DC9292",
"B@	c #F2B0AC",
"C@	c #DBC0AE",
"D@	c #E1BCB0",
"E@	c #DEBDB3",
"F@	c #E0C3B4",
"G@	c #E8C8B6",
"H@	c #ECC9B8",
"I@	c #E4CABB",
"J@	c #DDCAC5",
"K@	c #762C30",
"L@	c #74363E",
"M@	c #463F58",
"N@	c #443F58",
"O@	c #3F4254",
"P@	c #C8C3C5",
"Q@	c #D0C3C5",
"R@	c #A49291",
"S@	c #CCB2AE",
"T@	c #E4C4BE",
"U@	c #EFCCC5",
"V@	c #F1CDC7",
"W@	c #EECBC7",
"X@	c #EECBC4",
"Y@	c #F0CEC4",
"Z@	c #EDCCC1",
"`@	c #ECC9BF",
" #	c #F2CFC5",
".#	c #F0CCC2",
"+#	c #F1CCC3",
"@#	c #F2CCC3",
"##	c #F3CEC3",
"$#	c #F0CBBE",
"%#	c #F0CCBF",
"&#	c #ECC7BB",
"*#	c #F2CCC0",
"=#	c #F1CCBF",
"-#	c #EEC9BC",
";#	c #EAC5B9",
">#	c #DEC3BA",
",#	c #DEBBBB",
"'#	c #DEB8B7",
")#	c #E3B8B6",
"!#	c #E4B5B2",
"~#	c #D5B7AE",
"{#	c #C8AAA3",
"]#	c #BEA19E",
"^#	c #B69E97",
"/#	c #BCA59B",
"(#	c #C5A79F",
"_#	c #C4ABA4",
":#	c #BEAEB0",
"<#	c #6B262E",
"[#	c #69333E",
"}#	c #353B52",
"|#	c #3A3B53",
"1#	c #3A3C4C",
"2#	c #C7C9CB",
"3#	c #C6C8CA",
"4#	c #B0ABAA",
"5#	c #8B7D76",
"6#	c #C8ACA4",
"7#	c #C8AAA4",
"8#	c #CDAFAB",
"9#	c #D1B4AD",
"0#	c #D4B6AC",
"a#	c #D9BCB2",
"b#	c #DABCB2",
"c#	c #E1C2B8",
"d#	c #DEBEB5",
"e#	c #D3B3AA",
"f#	c #DAB7AE",
"g#	c #E3BFB5",
"h#	c #D6B1A8",
"i#	c #DAB6AC",
"j#	c #E4BFB6",
"k#	c #EAC6BC",
"l#	c #E9C4BB",
"m#	c #E2BEB4",
"n#	c #E0BEB4",
"o#	c #E9BAB3",
"p#	c #E6BCB3",
"q#	c #D3C0AE",
"r#	c #D3B4A8",
"s#	c #C4A29B",
"t#	c #A68E87",
"u#	c #8A7672",
"v#	c #6A5D5A",
"w#	c #70635E",
"x#	c #7F6762",
"y#	c #856E69",
"z#	c #867474",
"A#	c #631A1F",
"B#	c #662F30",
"C#	c #2C333E",
"D#	c #313344",
"E#	c #323442",
"F#	c #343644",
"G#	c #C5C8CA",
"H#	c #C2C8C8",
"I#	c #C5C8C6",
"J#	c #C8C6C3",
"K#	c #A49E98",
"L#	c #847B76",
"M#	c #8C817C",
"N#	c #948A86",
"O#	c #9A8E8A",
"P#	c #A49692",
"Q#	c #A69994",
"R#	c #AB9E9A",
"S#	c #6A5C57",
"T#	c #6C5E5A",
"U#	c #B1A39E",
"V#	c #827470",
"W#	c #8B7875",
"X#	c #907976",
"Y#	c #6F5B56",
"Z#	c #6C5A53",
"`#	c #A29088",
" $	c #C2ACA4",
".$	c #CAADA5",
"+$	c #D2B1A8",
"@$	c #DFBCB0",
"#$	c #E4BDAF",
"$$	c #DEBDB0",
"%$	c #CBBBAA",
"&$	c #B79E95",
"*$	c #A48885",
"=$	c #7C6D6B",
"-$	c #6D6666",
";$	c #7A7C77",
">$	c #7E7D78",
",$	c #8A7B7E",
"'$	c #8D8080",
")$	c #8D8982",
"!$	c #4C0A08",
"~$	c #681E24",
"{$	c #272128",
"]$	c #22242E",
"^$	c #262830",
"/$	c #262831",
"($	c #2A2B36",
"_$	c #C5C5C5",
":$	c #CACACA",
"<$	c #CAC6C8",
"[$	c #CDC5C9",
"}$	c #C8C4C4",
"|$	c #C8C8C4",
"1$	c #A29E99",
"2$	c #6E645C",
"3$	c #735D56",
"4$	c #B99A92",
"5$	c #DBB6AD",
"6$	c #E8C4B7",
"7$	c #D6B7AB",
"8$	c #BA9C94",
"9$	c #A78885",
"0$	c #866B6B",
"a$	c #716060",
"b$	c #C9C5C3",
"c$	c #C4CAC3",
"d$	c #CDC3CC",
"e$	c #CAC5CB",
"f$	c #C1CABE",
"g$	c #EAB8B8",
"h$	c #8C4451",
"i$	c #6C6A70",
"j$	c #676D73",
"k$	c #141618",
"l$	c #17181C",
"m$	c #1C1C22",
"n$	c #C6C6CA",
"o$	c #C4C4C8",
"p$	c #CBC9CC",
"q$	c #D0C5C3",
"r$	c #D4C4BF",
"s$	c #816A64",
"t$	c #B79A94",
"u$	c #E0C0B8",
"v$	c #B69C92",
"w$	c #9C847B",
"x$	c #826A64",
"y$	c #715D58",
"z$	c #CCC2BA",
"A$	c #CACAC0",
"B$	c #C3C9BC",
"C$	c #C6C9C2",
"D$	c #CEC4C8",
"E$	c #CCC6BE",
"F$	c #EBB7B8",
"G$	c #B0757F",
"H$	c #CECAD0",
"I$	c #C2C6CB",
"J$	c #C7C8C8",
"K$	c #CACACC",
"L$	c #999A9D",
"M$	c #C6C8CB",
"N$	c #C8CCCF",
"O$	c #C5C2C4",
"P$	c #CEC2C2",
"Q$	c #C3AEAD",
"R$	c #BFA5A2",
"S$	c #D0B5AF",
"T$	c #D3B6AF",
"U$	c #CCB5AC",
"V$	c #A39187",
"W$	c #735E54",
"X$	c #6C4C46",
"Y$	c #613231",
"Z$	c #B67A7D",
"`$	c #B57579",
" %	c #B6777A",
".%	c #B77474",
"+%	c #B97575",
"@%	c #B6767A",
"#%	c #B9747A",
"$%	c #BC7372",
"%%	c #CE9A95",
"&%	c #C8C2BA",
"*%	c #CBC9C7",
"=%	c #C9C9C8",
"-%	c #C0C4C1",
";%	c #D0CAC7",
">%	c #C3AFAD",
",%	c #BDA19B",
"'%	c #DBBBB4",
")%	c #E3C4BB",
"!%	c #D0B3A9",
"~%	c #84746D",
"{%	c #89827F",
"]%	c #A89C9A",
"^%	c #DAC2C2",
"/%	c #E7BBC0",
"(%	c #ECB2BA",
"_%	c #F0B2BD",
":%	c #F0B0BA",
"<%	c #F0B0B8",
"[%	c #EDB1BA",
"}%	c #EBB4BE",
"|%	c #F0B1BF",
"1%	c #EEB4BC",
"2%	c #EAB6BA",
"3%	c #D8C0C0",
"4%	c #C3CCC8",
"5%	c #C3C7C6",
"6%	c #C7C7C5",
"7%	c #C8C8C7",
"8%	c #CAC8C4",
"9%	c #A59A95",
"0%	c #C6B0AB",
"a%	c #D4B6AF",
"b%	c #CCADA4",
"c%	c #DCC1B7",
"d%	c #927B71",
"e%	c #AC9D9C",
"f%	c #CCC6CC",
"g%	c #CBC8CC",
"h%	c #C7C6C8",
"i%	c #C8C5C5",
"j%	c #CAC6C4",
"k%	c #C8C7C2",
"l%	c #C5CAC0",
"m%	c #C0CBC4",
"n%	c #BCCCC6",
"o%	c #CDC4C8",
"p%	c #CDC4CA",
"q%	c #C5C7CC",
"r%	c #BFCACE",
"s%	c #C4C8CB",
"t%	c #AEA39F",
"u%	c #A2928B",
"v%	c #BBA7A0",
"w%	c #B19D96",
"x%	c #7D6D67",
"y%	c #AFA39E",
"z%	c #CEC4C5",
"A%	c #CAC6CA",
"B%	c #C4C4C6",
"C%	c #C8CACA",
"D%	c #C2CAC4",
"E%	c #C3CAC1",
"F%	c #C8C8C1",
"G%	c #CBC6C1",
"H%	c #CBC6C3",
"I%	c #C8C7C3",
"J%	c #C8C6C5",
"K%	c #C8C7CA",
"L%	c #CAC7CA",
"M%	c #CCC6C7",
"N%	c #AFA8A5",
"O%	c #9B9490",
"P%	c #8B8682",
"Q%	c #CAC8C8",
"R%	c #C9C9CA",
"S%	c #C4C9C8",
"T%	c #C7C8CA",
"U%	c #C8C6CA",
"V%	c #C9C6CA",
"W%	c #CFC3C5",
"X%	c #CAC6C5",
"Y%	c #C3C9C8",
"Z%	c #C1CACA",
"`%	c #C8C6C9",
" &	c #C7C6C9",
".&	c #C7C6C6",
"+&	c #C9C8C8",
"@&	c #C4C5C4",
"#&	c #C4C7CB",
"$&	c #C8C7C9",
"%&	c #C6C4C2",
"&&	c #C7C8C4",
"*&	c #C7C9C6",
"=&	c #C5C6C4",
"-&	c #C9C6C8",
";&	c #C1CAC9",
". . . . . . . . . . . . . . . . . . . . . . . . . . . . . . . . . . . . . . . . . . . . . . ",
". . . . . . . . . . . . . . . . . . . . . . . . . . . . . . . . . . . . . . . . . . . . . . ",
". . . . . . . . . . . . . . . . . . . . . . . . . . . . . . . . . . . . . . . . . . . . . . ",
". . . . . . . . . . . . . . . . . . . . . . . . . . . . . . . . . . . . . . . . . . . . . . ",
". . . . . . . . . . . . . . . . . . . . . . . . . . . . . . . . . . . . . . . . . . . . . . ",
". . . . . . . . . . . . . . . . . . . . . . . . . . . . . . . . . . . . . . . . . . . . . . ",
". . . . . . . . . . . . . . . . . . . . . . . . . . . . . . . . . . . . . . . . . . . . . . ",
". . . . . . . . . . . . . . . . . . . . . . . . . . . . . . . . . . . . . . . . . . . . . . ",
". . . . . . . . . . . . . . . . . . . . . . . . . . . . . . . . . . . . . . . . . . . . . . ",
". . . . . . . . . . . . . . . . . . . . . . . . . . . . . . . . . . . . . . . . . . . . . . ",
". . . . . . . . . . . . . . . . . . . . . . . . . . . . . . . . . . . . . . . . . . . . . . ",
". . . . . . . . . . . . . . . . . . . . . . . . . . . . . . . . . . . . . . . . . . . . . . ",
". . . . . . . . . . . . . . . . . . . . . . . . . . . . . . . . . . . . . . . . . . . . . . ",
". . . . . . . . . . . . . . . . . . . . . . . . . . . . . . . . . . . . . . . . . . . . . . ",
". . . . . . . . . . . . . . . . . . . . . . . . . . . . . . . . . . . . . . . . . . . . . . ",
". . . . . . . . . . . . . . . . . . . . . . . . . . . . . . . . . . . . + @ . . . . . . . . ",
". . . . . . . . # $ % & * . . . . . . = . . # - . . . . . . . . . . . . - # . . . . . . . . ",
". . . . . . . . # - . ; > . . . . . . = . . # - . , ' # ) ! ~ { ] . ^ / ( # . . . . . . . . ",
". . . . . . . . # ( _ : < . . . . . . = [ [ } - . | 1 2 3 4 5 6 7 8 9 0 a # b c d e f . . . ",
". . . . . . . . # g h i ! . . . . . . = . . # - . { j k l m n o p q r s a t u v w x y . . . ",
". . . . . . . . # - . z A B . . . . . = . . # - . C D E F G H I J K L M N O P Q . R e . . . ",
". . . . . . . . ! S . . T U - - - - V ' . . ! S . W X Y Z `  ...+.@.#.$.%.&.*.. e w =.. . . ",
". . . . . . . . . . . . . . ; ; ; ; -.. . . . . . . =.;.;.>.,.'.).!.~.{.].^./.(._.:.<.. . . ",
". . . . . . . . . . . . . . . . . . . . . . . . . . [.f _.}.|.1.2.3.4.5.6.7.8.9.0.a.b.. . . ",
". . . . . . . . . . . . . . . . . . . . . . . . . . c.y v d.e.f.g.h.i.j.k.l.m.n.o.p.q.. . . ",
". . . . . . . . . . . . . . . . . . . . . . . . . . r.r.s.t.u.v.w.x.y.z.A.B.C.D.0.0.E.. . . ",
". . v t.F.F.F.a.a.;.G.r.r.r.*.*.H.H.I.. J.K.L.. . K.M.N.O.P.Q.R.S.T.U.V.W.X.Y.Z.`. +.+++@+#+",
". . v c ;.$+%+_.n.n.. &+&+. . *+*+=+-+J.@+;+-+-+K.e >+,+'+)+!+~+{+]+^+/+(+_+:+<+[+}+s.|+1+2+",
". . n.3+4+4+4+4+4+4+>.5+6+6+6+7+7+7+8+9+0+n.n.n.n.0+a+b+c+d+e+f+g+h+i+j+k+l+m+n+o+p+q+r+s+t+",
". . 0.>.>.e n.n.e e &+;.G.G.r.r.*.*.u+v+w+x+y+z+A+A+B+C+D+E+F+G+H+I+J+K+L+M+N+O+P+Q+R+S+T+U+",
". . V+W+X+Y+Z+`+ @.@+@@@#@$@%@&@*@=@-@;@>@,@'@)@!@~@{@]@^@/@(@_@:@<@[@}@|@1@2@3@4@5@6@7@8@9@",
". . 0@a@b@c@d@e@f@g@h@i@j@k@l@m@n@o@p@q@r@s@t@u@v@w@x@y@z@A@B@C@D@E@F@G@H@I@J@K@L@M@N@8@O@O@",
". . P@Q@R@S@T@U@V@W@X@Y@Z@`@ #.#+#@###$#%#&#*#=#-#;#>#,#'#)#!#~#{#]#^#/#(#_#:#<#[#}#|#1#1#1#",
". . 2#3#4#5#'@6#7#8#9#0#a#b#c#c#d#e#f#g#h#i#j#k#l#m#n#o#p#q#r#s#t#u#v#w#x#y#z#A#B#C#D#E#E#F#",
". . G#H#I#J#K#L#M#N#O#P#Q#R#S#T#U#V#W#X#Y#Z#`# $.$+$@$#$$$%$&$*$=$-$;$>$,$'$)$!$~${$]$^$/$($",
". . . . . . . . . . . _$:$K.L.L.. _$<$[$}$|$1$2$3$4$5$6$7$8$9$0$a$b$c$[.d$e$f$g$h$i$j$k$l$m$",
". . . . . . . . . . K.e.J.e.e.L.L.. n$o$p$l+q$r$s$t$u$1@v$w$x$y$z$A$B$C$<$D$E$F$G$H$I$J$K$L$",
". . . . . . . . . . . L.K.:$J.L.L.L.M$N$O$P$Q$R$S$T$U$V$W$X$Y$Z$`$ %.%+%@%#%]+$%%%&%*%=%-.++",
". . . . . . . . . . L.L.e.J.K.K.L.K.d.-%;%>%,%'%)%!%~%{%]%^%/%(%_%:%<%[%}%|%1%2%3%4%5%6%7%L.",
". . . . . . . . . . . . . . . . . . G.8%9%0%a%b%c%d%e%f%g%h%i%j%k%l%m%n%j+n.o%p%q%r%s%*.*.*.",
". . . . . . . . . . . . . . . . . . *+j%t%u%v%w%x%y%z%A%B%C%e =+r.I#D%E%F%G%H%,.x I%J%n.n.=+",
". . . . . . . . . . . . . . . . . . K%L%M%N%O%P%Q%n$o$R%S%H#T%U%V%U%}+n.W%X%Y%Z%_.j%J%`%n.n.",
". . . . . . . . . . . . . . . . . .  &K%n..&+&@&0.#&$&%&&&*&=&r.. $+5+6+-&d.;&Z%0.H.r.n.n.n.",
". . . . . . . . . . . . . . . . . . . . . . . . . . . . . . . . . . . . . . . . . . . . . . ",
". . . . . . . . . . . . . . . . . . . . . . . . . . . . . . . . . . . . . . . . . . . . . . ",
". . . . . . . . . . . . . . . . . . . . . . . . . . . . . . . . . . . . . . . . . . . . . . ",
". . . . . . . . . . . . . . . . . . . . . . . . . . . . . . . . . . . . . . . . . . . . . . ",
". . . . . . . . . . . . . . . . . . . . . . . . . . . . . . . . . . . . . . . . . . . . . . "};
