/* XPM */
static char * R_LegSmall_xpm[] = {
"116 38 525 2",
"  	c None",
". 	c #C7C7C7",
"+ 	c #C7C7C5",
"@ 	c #C6C7C9",
"# 	c #606165",
"$ 	c #26262E",
"% 	c #2F2F39",
"& 	c #373543",
"* 	c #3E394A",
"= 	c #3F3D50",
"- 	c #3B4254",
"; 	c #414055",
"> 	c #3A4053",
", 	c #3C3E51",
"' 	c #3C394C",
") 	c #353342",
"! 	c #2E2E39",
"~ 	c #22232A",
"{ 	c #727377",
"] 	c #C7C7C9",
"^ 	c #2F2F3A",
"/ 	c #353644",
"( 	c #3A3B49",
"_ 	c #413C4D",
": 	c #3D434F",
"< 	c #414051",
"[ 	c #384251",
"} 	c #3E3D50",
"| 	c #3B394D",
"1 	c #343342",
"2 	c #5F6064",
"3 	c #24252D",
"4 	c #2E2F3A",
"5 	c #343643",
"6 	c #373B49",
"7 	c #3F3D4C",
"8 	c #41404F",
"9 	c #3E4251",
"0 	c #3B404F",
"a 	c #3F3D4E",
"b 	c #393A4B",
"c 	c #343341",
"d 	c #2D2D38",
"e 	c #22222A",
"f 	c #C6C8C7",
"g 	c #C8C6C7",
"h 	c #22252C",
"i 	c #2B2F39",
"j 	c #333542",
"k 	c #383A49",
"l 	c #3C3D4F",
"m 	c #3F4052",
"n 	c #3D3E50",
"o 	c #3C3E4D",
"p 	c #383A47",
"q 	c #222229",
"r 	c #5E5F63",
"s 	c #21242C",
"t 	c #2B2F38",
"u 	c #3B3D4C",
"v 	c #C6C6C8",
"w 	c #21242B",
"x 	c #2A2E38",
"y 	c #3E3F51",
"z 	c #373946",
"A 	c #C5C5C7",
"B 	c #20232A",
"C 	c #33323F",
"D 	c #1F2027",
"E 	c #898A8E",
"F 	c #282C35",
"G 	c #323441",
"H 	c #3B3C4E",
"I 	c #333240",
"J 	c #292934",
"K 	c #212129",
"L 	c #6E6F74",
"M 	c #C8C8CB",
"N 	c #B6B7BB",
"O 	c #1E2129",
"P 	c #292D36",
"Q 	c #313341",
"R 	c #383949",
"S 	c #3A3C4B",
"T 	c #363845",
"U 	c #31303E",
"V 	c #2B2B36",
"W 	c #24242C",
"X 	c #C7C8CD",
"Y 	c #C6C6C9",
"Z 	c #B7B8BD",
"` 	c #181B22",
" .	c #313340",
"..	c #373948",
"+.	c #3A3B4D",
"@.	c #353643",
"#.	c #272732",
"$.	c #C6C7CC",
"%.	c #C8C7C6",
"&.	c #C7C7C8",
"*.	c #B7B7BB",
"=.	c #191A20",
"-.	c #292A33",
";.	c #31333F",
">.	c #373947",
",.	c #3A3B4C",
"'.	c #3A3C4A",
").	c #343644",
"!.	c #2F2E3C",
"~.	c #1B1B22",
"{.	c #C7C8CC",
"].	c #C7C7C6",
"^.	c #C6C6C6",
"/.	c #C2C1C4",
"(.	c #3E3D44",
"_.	c #292831",
":.	c #31323E",
"<.	c #393B4A",
"[.	c #343645",
"}.	c #22222D",
"|.	c #75757D",
"1.	c #C6C7CA",
"2.	c #C8C8C8",
"3.	c #636268",
"4.	c #30313D",
"5.	c #333544",
"6.	c #2B2A37",
"7.	c #24242F",
"8.	c #74757B",
"9.	c #C2C3C6",
"0.	c #C6C5C8",
"a.	c #616066",
"b.	c #27262F",
"c.	c #2F303C",
"d.	c #323442",
"e.	c #2A2A35",
"f.	c #22222B",
"g.	c #6C6D71",
"h.	c #C8C9CC",
"i.	c #5F5E64",
"j.	c #2E2F3B",
"k.	c #353744",
"l.	c #1F2026",
"m.	c #C8C9CD",
"n.	c #C5C7C7",
"o.	c #C8C8CA",
"p.	c #8B8A91",
"q.	c #2D2E3A",
"r.	c #303240",
"s.	c #272730",
"t.	c #222328",
"u.	c #C3C4C7",
"v.	c #C7C9C8",
"w.	c #B9B8BE",
"x.	c #1F1F27",
"y.	c #2C2D39",
"z.	c #3C3D4E",
"A.	c #2F313F",
"B.	c #27272E",
"C.	c #1B1C21",
"D.	c #C4C5C7",
"E.	c #1E1D26",
"F.	c #363847",
"G.	c #24252B",
"H.	c #77787C",
"I.	c #CBCCCE",
"J.	c #C4C6C4",
"K.	c #C5C5C5",
"L.	c #CACACB",
"M.	c #B6B5B9",
"N.	c #1A1A20",
"O.	c #2A2C36",
"P.	c #343642",
"Q.	c #383A48",
"R.	c #3B3D4D",
"S.	c #2E303D",
"T.	c #26262C",
"U.	c #76767A",
"V.	c #C8C9C8",
"W.	c #C9C9C9",
"X.	c #BFBFBF",
"Y.	c #3E3F40",
"Z.	c #393B48",
"`.	c #2D2F3B",
" +	c #222128",
".+	c #747378",
"++	c #656567",
"@+	c #272931",
"#+	c #323440",
"$+	c #363846",
"%+	c #2C2E3A",
"&+	c #24232A",
"*+	c #9E9DA2",
"=+	c #616263",
"-+	c #252730",
";+	c #353746",
">+	c #2B2D39",
",+	c #26252C",
"'+	c #C7C6CB",
")+	c #303030",
"!+	c #1F1F1F",
"~+	c #272727",
"{+	c #1A1A1A",
"]+	c #4F4F4F",
"^+	c #BEBEBE",
"/+	c #9E9E9E",
"(+	c #2D2D2D",
"_+	c #5C5D5F",
":+	c #24262E",
"<+	c #30323E",
"[+	c #292B37",
"}+	c #212027",
"|+	c #C9C9CB",
"1+	c #313131",
"2+	c #999999",
"3+	c #BBBBBB",
"4+	c #9A9A9A",
"5+	c #BDBDBF",
"6+	c #22242D",
"7+	c #2F313D",
"8+	c #282A36",
"9+	c #1F1E25",
"0+	c #BDBDBD",
"a+	c #323232",
"b+	c #7B7B7B",
"c+	c #5B5B5B",
"d+	c #C4C4C4",
"e+	c #B5B5B5",
"f+	c #484848",
"g+	c #494949",
"h+	c #3E3E3E",
"i+	c #CACACA",
"j+	c #BABABC",
"k+	c #1E2029",
"l+	c #4C4B52",
"m+	c #4C4C4C",
"n+	c #606060",
"o+	c #373737",
"p+	c #585858",
"q+	c #C2C2C2",
"r+	c #ABABAB",
"s+	c #2A2A2A",
"t+	c #3A3A3A",
"u+	c #5E5E5E",
"v+	c #636363",
"w+	c #8F8F8F",
"x+	c #1B1C25",
"y+	c #79787F",
"z+	c #6D6D6D",
"A+	c #252525",
"B+	c #969696",
"C+	c #959595",
"D+	c #0D0D0D",
"E+	c #8E8E8E",
"F+	c #818181",
"G+	c #C5C8C8",
"H+	c #C4C8C7",
"I+	c #C5C9C7",
"J+	c #C5C8C6",
"K+	c #C6C6C4",
"L+	c #CBC8C7",
"M+	c #C8C7C5",
"N+	c #B7B8B8",
"O+	c #16181F",
"P+	c #2B2E38",
"Q+	c #363945",
"R+	c #3B3E4D",
"S+	c #3E4052",
"T+	c #3A3D4E",
"U+	c #323644",
"V+	c #272936",
"W+	c #787782",
"X+	c #C3C7CE",
"Y+	c #C7C5CB",
"Z+	c #C6C8C5",
"`+	c #C9C6C6",
" @	c #C4C9C6",
".@	c #C8C6C6",
"+@	c #828282",
"@@	c #B9B9B9",
"#@	c #A1A1A1",
"$@	c #262626",
"%@	c #505050",
"&@	c #5D5D5D",
"*@	c #C4C9C8",
"=@	c #CAC6C7",
"-@	c #C9C7C5",
";@	c #C8C7C4",
">@	c #C9C7C4",
",@	c #C6C8C4",
"'@	c #C3CAC6",
")@	c #69686C",
"!@	c #2D2C34",
"~@	c #3A3844",
"{@	c #3C3B4A",
"]@	c #413F50",
"^@	c #3D3D4C",
"/@	c #343541",
"(@	c #282833",
"_@	c #797780",
":@	c #C4C8CD",
"<@	c #CFC3CA",
"[@	c #CDC4C5",
"}@	c #C0CBC7",
"|@	c #434343",
"1@	c #8C8C8C",
"2@	c #ACACAC",
"3@	c #464646",
"4@	c #4B4B4B",
"5@	c #8D8D8D",
"6@	c #808080",
"7@	c #A9A9A9",
"8@	c #9F9F9F",
"9@	c #414141",
"0@	c #D1C2C7",
"a@	c #D4C1C7",
"b@	c #CAC6C6",
"c@	c #C0CAC8",
"d@	c #63656A",
"e@	c #292932",
"f@	c #3A3A47",
"g@	c #3B3B4B",
"h@	c #3F3F52",
"i@	c #323543",
"j@	c #262933",
"k@	c #747B77",
"l@	c #C1CCC4",
"m@	c #CBC6C3",
"n@	c #C8C7C3",
"o@	c #CAC6C3",
"p@	c #CDC4C6",
"q@	c #C3C8CA",
"r@	c #C2C8CC",
"s@	c #7C7C7C",
"t@	c #B0B0B0",
"u@	c #AFAFAF",
"v@	c #717171",
"w@	c #707070",
"x@	c #646464",
"y@	c #767676",
"z@	c #A6A6A6",
"A@	c #C0C0C0",
"B@	c #848484",
"C@	c #666666",
"D@	c #7A7A7A",
"E@	c #B7B7B7",
"F@	c #515151",
"G@	c #C6C8C6",
"H@	c #D0C3C6",
"I@	c #CCC4C7",
"J@	c #BFCBC8",
"K@	c #BFCBCA",
"L@	c #CBC4CA",
"M@	c #CEC3C9",
"N@	c #C7C7CA",
"O@	c #5E616A",
"P@	c #252834",
"Q@	c #313444",
"R@	c #3B3E53",
"S@	c #3C4055",
"T@	c #393E52",
"U@	c #2F3647",
"V@	c #232A36",
"W@	c #747B76",
"X@	c #C0CCC3",
"Y@	c #C2CAC3",
"Z@	c #BFCCC3",
"`@	c #C1CAC5",
" #	c #C9C6CA",
".#	c #CEC2CB",
"+#	c #CAC4CE",
"@#	c #898989",
"##	c #737373",
"$#	c #727272",
"%#	c #6A6A6A",
"&#	c #1D1D1D",
"*#	c #C7C8C4",
"=#	c #C1CAC8",
"-#	c #B8CECA",
";#	c #C0C9CA",
">#	c #D1C2CA",
",#	c #CFC2C8",
"'#	c #C3C7C7",
")#	c #8B8D90",
"!#	c #2A2B31",
"~#	c #32333F",
"{#	c #3C3D4C",
"]#	c #3F4150",
"^#	c #323641",
"/#	c #262730",
"(#	c #80737C",
"_#	c #CFC5CB",
":#	c #CBC7CA",
"<#	c #C4C6C8",
"[#	c #CBC5C7",
"}#	c #CCC4CA",
"|#	c #A2A2A2",
"1#	c #6E6E6E",
"2#	c #9D9D9D",
"3#	c #C4C8C9",
"4#	c #C6C7CB",
"5#	c #CCC3C9",
"6#	c #CBC2C6",
"7#	c #C4CBC6",
"8#	c #B7CEC4",
"9#	c #BBBCC1",
"0#	c #27242F",
"a#	c #3A3846",
"b#	c #3C3A4B",
"c#	c #423F52",
"d#	c #3E3D4E",
"e#	c #363744",
"f#	c #262832",
"g#	c #76777F",
"h#	c #C9C2CB",
"i#	c #CAC5CC",
"j#	c #CDC2CC",
"k#	c #C5C9C4",
"l#	c #BECCC3",
"m#	c #C2CAC6",
"n#	c #C9C6C4",
"o#	c #CAC5C9",
"p#	c #D2C1C9",
"q#	c #CFC4C8",
"r#	c #C2C7C3",
"s#	c #C1C9BF",
"t#	c #CAC9C2",
"u#	c #BCBAC1",
"v#	c #262430",
"w#	c #323142",
"x#	c #3C3B50",
"y#	c #403F55",
"z#	c #3D3C50",
"A#	c #363749",
"B#	c #272B36",
"C#	c #6F7C76",
"D#	c #C3C6C3",
"E#	c #C3CCC9",
"F#	c #C7C4C8",
"G#	c #C9C6C8",
"H#	c #C2CAC7",
"I#	c #BBCEC3",
"J#	c #C1CAC7",
"K#	c #CDC4C9",
"L#	c #C2CCC7",
"M#	c #BBCDC1",
"N#	c #DABAB8",
"O#	c #C66D7A",
"P#	c #B06D70",
"Q#	c #632529",
"R#	c #6B2E36",
"S#	c #6D313C",
"T#	c #703440",
"U#	c #6F323E",
"V#	c #6C303A",
"W#	c #63262D",
"X#	c #954A4D",
"Y#	c #BB797D",
"Z#	c #D6C0BB",
"`#	c #CDC6C1",
" $	c #C3C9C5",
".$	c #BDCCC8",
"+$	c #CEC4C8",
"@$	c #C5C9C3",
"#$	c #C4C8CA",
"$$	c #BFCBC3",
"%$	c #DAB0B4",
"&$	c #D56F7B",
"*$	c #E6A5A8",
"=$	c #4C1015",
"-$	c #5E212B",
";$	c #662C39",
">$	c #672D3D",
",$	c #652A38",
"'$	c #602531",
")$	c #541720",
"!$	c #A86167",
"~$	c #CA676E",
"{$	c #DEBCBC",
"]$	c #CFC4C2",
"^$	c #CDC3C9",
"/$	c #CCC5C5",
"($	c #CAC6C5",
"_$	c #C5C8CA",
":$	c #C7C7C3",
"<$	c #CAC5CB",
"[$	c #CDB6B8",
"}$	c #CD7877",
"|$	c #C8B7BC",
"1$	c #1D1E27",
"2$	c #2E3542",
"3$	c #2F3B4A",
"4$	c #434F61",
"5$	c #424E5F",
"6$	c #374050",
"7$	c #1F2631",
"8$	c #806D70",
"9$	c #C46D6B",
"0$	c #CEC3C5",
"a$	c #C8C6C9",
"b$	c #C9C7C6",
"c$	c #CD7977",
"d$	c #C8BDBF",
"e$	c #3E454A",
"f$	c #344049",
"g$	c #435460",
"h$	c #4F606D",
"i$	c #495A67",
"j$	c #44525D",
"k$	c #2E3842",
"l$	c #D5C3C6",
"m$	c #C86D6C",
"n$	c #CCC1C3",
"o$	c #C9C7CA",
"p$	c #C7BFBF",
"q$	c #434C4E",
"r$	c #3B484E",
"s$	c #485760",
"t$	c #4E5F69",
"u$	c #4F6069",
"v$	c #44525A",
"w$	c #344046",
"x$	c #A99799",
"y$	c #C56D6B",
"z$	c #CFC4C6",
". . . . . . . . . . . . . . . . . . . . . . . . . . . . . . . . . . . . . . . . . . . . . . . . . . . . . . . . . . . . . . . . . . . . . . . . . . . . . . . . . . . . . . . . . . . . . + . @ # $ % & * = - ; > , ' ) ! ~ { ] . . . . ",
". . . . . . . . . . . . . . . . . . . . . . . . . . . . . . . . . . . . . . . . . . . . . . . . . . . . . . . . . . . . . . . . . . . . . . . . . . . . . . . . . . . . . . . . . . . . . + . @ # $ ^ / ( _ : < [ } | 1 ! ~ { ] . . . . ",
". . . . . . . . . . . . . . . . . . . . . . . . . . . . . . . . . . . . . . . . . . . . . . . . . . . . . . . . . . . . . . . . . . . . . . . . . . . . . . . . . . . . . . . . . . . . . + . @ 2 3 4 5 6 7 8 9 0 a b c d e { ] . . . . ",
". . . . . . . . . . . . . . . . . . . . . . . . . . . . . . . . . . . . . . . . . . . . . . . . . . . . . . . . . . . . . . . . . . . . . . . . . . . . . . . . . . . . . . . . . . . f . + g ] 2 h i j k l m m n o p c d q { ] . . . . ",
". . . . . . . . . . . . . . . . . . . . . . . . . . . . . . . . . . . . . . . . . . . . . . . . . . . . . . . . . . . . . . . . . . . . . . . . . . . . . . . . . . . . . . . . . . . f . + g ] r s t j k l m m n u p c d q { ] . . . . ",
". . . . . . . . . . . . . . . . . . . . . . . . . . . . . . . . . . . . . . . . . . . . . . . . . . . . . . . . . . . . . . . . . . . . . . . . . . . . . . . . . . . . . . . . . . . f . + g v r w x j k l m y l u z c d q { ] . . . . ",
". . . . . . . . . . . . . . . . . . . . . . . . . . . . . . . . . . . . . . . . . . . . . . . . . . . . . . . . . . . . . . . . . . . . . . . . . . . . . . . . . . . . . . . . . . . f . + g A r B t j k l m y n u z C ! D { ] . . . . ",
". . . . . . . . . . . . . . . . . . . . . . . . . . . . . . . . . . . . . . . . . . . . . . . . . . . . . . . . . . . . . . . . . . . . . . . . . . . . . . . . . . . . . . . . . . . f . + g ] E h F G k H m y l u z I J K L ] . . . . ",
". . . . . . . . . . . . . . . . . . . . . . . . . . . . . . . . . . . . . . . . . . . . . . . . . . . . . . . . . . . . . . . . . . . . . . . . . . . . . . . . . . . . . . . . . . . f . + g M N O P Q R H y y l S T U V W X ] . . . . ",
". . . . . . . . . . . . . . . . . . . . . . . . . . . . . . . . . . . . . . . . . . . . . . . . . . . . . . . . . . . . . . . . . . . . . . . . . . . . . . . . . . . . . . . . . . . f . + g Y Z ` x  ...+.y y l S @.U #.D $.] . . . . ",
". . . . . . . . . . . . . . . . . . . . . . . . . . . . . . . . . . . . . . . . . . . . . . . . . . . . . . . . . . . . . . . . . . . . . . . . . . . . . . . . . . . . . . . . . . . . . + %.&.*.=.-.;.>.,.n y l '.).!.#.~.{.&.].].].. ",
". . . . . . . . . . . . . . . . . . . . . . . . . . . . . . . . . . . . . . . . . . . . . . . . . . . . . . . . . . . . . . . . . . . . . . . . . . . . . . . . . . . . . . . . . . . . . + + ^./.(._.:.p S n y l <.[.!.}.|.1.&.+ + + . ",
". . . . . . . . . . . . . . . . . . . . . . . . . . . . . . . . . . . . . . . . . . . . . . . . . . . . . . . . . . . . . . . . . . . . . . . . . . . . . . . . . . . . . . . . . . . . . + + 2.M 3._.4.z S n y H <.5.6.7.8.9.. + + + . ",
". . . . . . . . . . . . . . . . . . . . . . . . . . . . . . . . . . . . . . . . . . . . . . . . . . . . . . . . . . . . . . . . . . . . . . . . . . . . . . . . . . . . . . . . . . . . . + + 2.0.a.b.c.T S n y H k d.e.f.g.h.. + + ].. ",
". . . . . . . . . . . . . . . . . . . . . . . . . . . . . . . . . . . . . . . . . . . . . . . . . . . . . . . . . . . . . . . . . . . . . . . . . . . . . . . . . . . . . . . . . . . . . + + &.v i.W j.k.<.n y H .. .e.l.m.n.].+ ].. . ",
". . . . . . . . . . . . . . . . . . . . . . . . . . . . . . . . . . . . . . . . . . . . . . . . . . . . . . . . . . . . . . . . . . . . . . . . . . . . . . . . . . . . . . . . . . . . . + + . o.p.e q.k.<.l y H ..r.s.t.u.v.+ + . . . ",
". . . . . . . . . . . . . . . . . . . . . . . . . . . . . . . . . . . . . . . . . . . . . . . . . . . . . . . . . . . . . . . . . . . . . . . . . . . . . . . . . . . . . . . . . . . . . + + 2.o.w.x.y.5 k l y z...A.B.C.D.v.+ + . . . ",
". . . . . . . . . . . . . . . . . . . . . . . . . . . . . . . . . . . . . . . . . . . . . . . . . . . . . . . . . . . . . . . . . . . . . . . . . . . . . . . . . . . . . . . . . . . . . + + . v w.E.y.5 k H m l F.A.G.H.I.J.+ + . . . ",
". . . . . . . . . . . . . . . . . . . . . . . . . . . . . . . . . . . . . . . . . . . . . . . . . . . . . . . . . . . . . . . . . . . . . . . . . . . . . . . . . . . . . . . . . . . . . ].].K.L.M.N.O.P.Q.z.m R.F.S.T.U.D.V.+ ].. &.. ",
". . . . . . . . . . . . . . . . . . . . . . . . . . . . . . . . . . . . . . . . . . . . . . . . . . . . . . . . . . . . . . . . . . . . . . . . . . . . . . . . . . . . . . . . . . . . . . . W.. X.Y.-.j Z.o m u >.`. +.+o.2.+ . . ] . ",
". . . . . . . . . . . . . . . . . . . . . . . . . . . . . . . . . . . . . . . . . . . . . . . . . . . . . . . . . . . . . . . . . . . . . . . . . . . . . . . . . . . . . . . . . . . . . . . 2.K.2.++@+#+p o m S $+%+&+*+] . + . . ] . ",
". . . . . . . . . . . . . . . . . . . . . . . . . . . . . . . . . . . . . . . . . . . . . . . . . . . . . . . . . . . . . . . . . . . . . . . . . . . . . . . . . . . . . . . . . . . . . . . ^.2.2.=+-+;.z u m S ;+>+,+'+v . + . . ] . ",
". . . . . . . . . . . . . . . . . . . . . . . . . . . . . . . . . . . . . . . . . . . . . . . . . . . . . . . )+!+~+{+]+^+. . . . . . /+(+. . . . . . . . . . . . . . . . . . . . . . . . . . . K.2._+:+<+p o m S [.[+}+'+|+^.+ . . ] . ",
". . . . . . . . . . . . . . . . . . . . . . . . . . . . . . . . . . . . . . . . . . . . . . . . . . . . . . . 1+2+. 3+(+4+. . . . . . /+(+. . . . . . . . . . . . . . . . . . . . . . . . . . . . ^.5+6+7+p o m u [.8+9+'+v . + . . ] . ",
". . . . . . . . . . . . . . . . . . . . . . . . . . . . . . . . . . . . . . . . . . . . . . . . . . . . . . . 1+2+. 0+a+/+. . . . . . /+(+. . . ^.b+)+)+c+d+e+f+g+)+h+. . . . . . . . . . . 2.^.i+K.j+k+`.p o m u [.8+l+'+] . + . . ] . ",
". . . . . . . . . . . . . . . . . . . . . . . . . . . . . . . . . . . . . . . . . . . . . . . . . . . . . . . )+m+n+o+p+q+. . . . . . /+(+. . . r+s+e+^+t+4+u+v+. w+h+. . . . . . . . . . . . 2.^.K.j+x+%+p o m u [.8+y+'+] ].+ . . ] . ",
". . . . . . . . . . . . . . . . . . . . . . . . . . . . . . . . . . . . . . . . . . . . . . . . . . . . . . . )+p+z+A+B+. . . . . . . /+(+. . . C+D+t+t+A+E+h+F+. w+h+. . . . . . . . G+H+I+J+K+L+M+N+O+P+Q+R+S+T+U+V+W+X+Y+G+Z+`+ @. .@",
". . . . . . . . . . . . . . . . . . . . . . . . . . . . . . . . . . . . . . . . . . . . . . . . . . . . . . . 1+2+. +@)+@@. . . . . . /+(+. . . #@$@^+. . . %@v+d+&@h+. . . . . . . f *@g =@-@;@>@,@'@)@!@~@{@]@^@/@(@_@:@<@`+;@[@}@G+J+",
". . . . . . . . . . . . . . . . . . . . . . . . . . . . . . . . . . . . . . . . . . . . . . . . . . . . . . . 1+2+. q+|@u+^.. . . . . /+!+1@1@1@2@3@4@5@6@7@8@{+)+h+9@. . . . . . . f f 0@a@b@J+. G+c@d@e@f@g@h@z.i@j@k@l@m@n@o@p@q@$.r@",
". . . . . . . . . . . . . . . . . . . . . . . . . . . . . . . . . . . . . . . . . . . . . . . . . . . . . . . s@t@. . u@v@w@x@v+x@x@y@u@v+x@x@x@z@A@B@C@D@E@. 0+e+D@F@. . . . . . . f G@H@I@J@K@L@M@N@O@P@Q@R@S@T@U@V@W@X@Y@Z@`@g  #.#+#",
". . . . . . . . . . . . . . . . . . . . . . . . . . . . . . . . . . . . . . . . . . . . . . . . . . . . . . . . . . . . . @###$###$#+@d+. . . . . . . . . ^.%#x@x@&#5@. . . . . . . . *#M+=#-#;#>#,#'#)#!#~#{#]#R+^#/#(#_#:#<#H+f `+[#}#",
". . . . . . . . . . . . . . . . . . . . . . . . . . . . . . . . . . . . . . . . . . . . . . . . . . . . . . . . . . . . . . . . . . . . . . . . . . . . . . |#1#%#2#. . . . . . . . ].>@+ 3#4#5#6#7#8#9#0#a#b#c#d#e#f#g#h#i#j#}#f k#l#m#",
". . . . . . . . . . . . . . . . . . . . . . . . . . . . . . . . . . . . . . . . . . . . . . . . . . . . . . . . . . . . . . . . . . . . . . . . . . . . . . . . . . . . . . . . . . %.n#+ o#p#q#r#s#t#u#v#w#x#y#z#A#B#C#D#E#F#G#H#Z+l#I#",
". . . . . . . . . . . . . . . . . . . . . . . . . . . . . . . . . . . . . . . . . . . . . . . . . . . . . . . . . . . . . . . . . . . . . . . . . . . . . . . . . . . . . . . . . . . Z+J#] K#L#M#N#O#P#Q#R#S#T#U#V#W#X#Y#Z#`# $.$+$[#@$",
". . . . . . . . . . . . . . . . . . . . . . . . . . . . . . . . . . . . . . . . . . . . . . . . . . . . . . . . . . . . . . . . . . . . . . . . . . . . . . . . . . . . . . . . . . . G@ @#$&.$$m#%$&$*$=$-$;$>$,$'$)$!$~${$]$f m#K#^$/$",
". . . . . . . . . . . . . . . . . . . . . . . . . . . . . . . . . . . . . . . . . . . . . . . . . . . . . . . . . . . . . . . . . . . . . . . . . . . . . . . . . . . . . . . . . . . &.($_$. :$<$[$}$|$1$2$3$4$5$6$7$8$9$0$a$N@;@].&.b$",
". . . . . . . . . . . . . . . . . . . . . . . . . . . . . . . . . . . . . . . . . . . . . . . . . . . . . . . . . . . . . . . . . . . . . . . . . . . . . . . . . . . . . . . . . . . &.($_$. :$<$[$c$d$e$f$g$h$i$j$k$l$m$n$o$N@;@].&.b$",
". . . . . . . . . . . . . . . . . . . . . . . . . . . . . . . . . . . . . . . . . . . . . . . . . . . . . . . . . . . . . . . . . . . . . . . . . . . . . . . . . . . . . . . . . . . &.($_$. :$<$[$c$p$q$r$s$t$u$v$w$x$y$z$a$N@;@].&.b$"};
