/* XPM */
static char * render_icon_xpm[] = {
"32 32 374 2",
"  	c #C6B9B0",
". 	c #C1B8A7",
"+ 	c #C3BAA9",
"@ 	c #C2BAA7",
"# 	c #C5BDAA",
"$ 	c #C2B9AA",
"% 	c #C3BAAB",
"& 	c #C3B9AD",
"* 	c #C5B9AB",
"= 	c #C2B9A8",
"- 	c #C4BBAA",
"; 	c #C3BBA6",
"> 	c #C4BCA9",
", 	c #C2BBAB",
"' 	c #C2BBA8",
") 	c #C3BBA8",
"! 	c #C1B9A6",
"~ 	c #C2BDA9",
"{ 	c #C6B9B3",
"] 	c #F8F3D6",
"^ 	c #F3F0CF",
"/ 	c #F6F2CF",
"( 	c #F4F0CB",
"_ 	c #F5F1CC",
": 	c #F4F0CA",
"< 	c #F3EFC9",
"[ 	c #F4F2CC",
"} 	c #F3F1CB",
"| 	c #F3F1CA",
"1 	c #F4F2CB",
"2 	c #F4F1CE",
"3 	c #F4F1D0",
"4 	c #F3F1C8",
"5 	c #F5F3CD",
"6 	c #F2F0CA",
"7 	c #F5F1CE",
"8 	c #F4F0CD",
"9 	c #F3F0CD",
"0 	c #F2F2CC",
"a 	c #F4F2C9",
"b 	c #F0F0CA",
"c 	c #F5F3CC",
"d 	c #CDCDAB",
"e 	c #F5F2D1",
"f 	c #F5F2CF",
"g 	c #F6F2CC",
"h 	c #F5F0D0",
"i 	c #F3EFCC",
"j 	c #D0CDAE",
"k 	c #C1BAA8",
"l 	c #F6F1D3",
"m 	c #F1F1CB",
"n 	c #A29F96",
"o 	c #5D5B5C",
"p 	c #000000",
"q 	c #EEEBC8",
"r 	c #EEECC6",
"s 	c #F2EEC9",
"t 	c #F6F1D1",
"u 	c #CECBAC",
"v 	c #C4B8AA",
"w 	c #F6F3D2",
"x 	c #F1F2CA",
"y 	c #B4B2A3",
"z 	c #48483C",
"A 	c #2E2F29",
"B 	c #0E0E10",
"C 	c #010100",
"D 	c #000100",
"E 	c #E4E1BE",
"F 	c #E7E5BF",
"G 	c #EDEBC5",
"H 	c #EFEFCB",
"I 	c #F2EFCC",
"J 	c #D0CDAC",
"K 	c #F6F3D4",
"L 	c #E6E6C4",
"M 	c #C5C2A3",
"N 	c #A09E85",
"O 	c #474548",
"P 	c #808080",
"Q 	c #9D9EA0",
"R 	c #333534",
"S 	c #010000",
"T 	c #D2D1B2",
"U 	c #D7D7B5",
"V 	c #E6E3C0",
"W 	c #ECECC8",
"X 	c #CCCBAC",
"Y 	c #EDEDC9",
"Z 	c #767273",
"` 	c #000105",
" .	c #010200",
"..	c #FFFFFF",
"+.	c #636363",
"@.	c #000002",
"#.	c #C8C4A7",
"$.	c #D1CEAF",
"%.	c #E2DFBC",
"&.	c #CBCBA9",
"*.	c #C4BBAC",
"=.	c #F6F2CD",
"-.	c #3D3A33",
";.	c #24231F",
">.	c #030303",
",.	c #C7C7C7",
"'.	c #C6C6C6",
").	c #3B3B3B",
"!.	c #BEBD9F",
"~.	c #CDCAAB",
"{.	c #E0DDBC",
"].	c #EDEAC7",
"^.	c #C2BBA9",
"/.	c #CECDB1",
"(.	c #7A7967",
"_.	c #616254",
":.	c #0C0D0F",
"<.	c #C9CBCA",
"[.	c #010101",
"}.	c #0C0C0A",
"|.	c #1C1B17",
"1.	c #23221D",
"2.	c #BDBC9E",
"3.	c #CCC9AA",
"4.	c #ECE9C6",
"5.	c #F5F2D3",
"6.	c #BFBDA4",
"7.	c #504F4B",
"8.	c #6C6C6A",
"9.	c #868686",
"0.	c #151515",
"a.	c #636164",
"b.	c #141311",
"c.	c #72715F",
"d.	c #B2B298",
"e.	c #BBBA9E",
"f.	c #C3C2A4",
"g.	c #E3E0BD",
"h.	c #F2F0C9",
"i.	c #C5C6A7",
"j.	c #9F9F85",
"k.	c #363435",
"l.	c #ECEEEB",
"m.	c #FEFFFF",
"n.	c #0E0C0F",
"o.	c #B1AFB0",
"p.	c #5C5C5E",
"q.	c #050505",
"r.	c #51504C",
"s.	c #A7A896",
"t.	c #8D8C78",
"u.	c #B2B097",
"v.	c #BEBCA3",
"w.	c #C5C4A5",
"x.	c #CDCCAD",
"y.	c #DAD7B6",
"z.	c #E8E5C2",
"A.	c #F0EEC8",
"B.	c #CFCCAD",
"C.	c #12110C",
"D.	c #48484A",
"E.	c #2A2A28",
"F.	c #7B7B7D",
"G.	c #9E9EA0",
"H.	c #09090B",
"I.	c #707070",
"J.	c #535347",
"K.	c #5C5C50",
"L.	c #A5A396",
"M.	c #B9BA9B",
"N.	c #BDBE9F",
"O.	c #C1C0A1",
"P.	c #CCCBAD",
"Q.	c #D4D4AE",
"R.	c #DCDCBA",
"S.	c #010002",
"T.	c #FFFFFD",
"U.	c #C2C2C4",
"V.	c #100E0F",
"W.	c #413E35",
"X.	c #474538",
"Y.	c #4A473E",
"Z.	c #7D7E6E",
"`.	c #BAB99B",
" +	c #BBBA9B",
".+	c #C2BEA3",
"++	c #C6C3A4",
"@+	c #CAC6A9",
"#+	c #D5D2B1",
"$+	c #DBD8B9",
"%+	c #E5E2C1",
"&+	c #EBE8C5",
"*+	c #EFECC9",
"=+	c #C2B8AC",
"-+	c #A8A8A8",
";+	c #717173",
">+	c #545257",
",+	c #97977F",
"'+	c #A2A089",
")+	c #AAA88F",
"!+	c #ABA990",
"~+	c #9F9D84",
"{+	c #A3A188",
"]+	c #ABA992",
"^+	c #BAB89F",
"/+	c #C1C0A4",
"(+	c #CAC9AB",
"_+	c #D0CFB0",
":+	c #F0EDCA",
"<+	c #EBEBC5",
"[+	c #CAC9AA",
"}+	c #2F2F2D",
"|+	c #1A1A1A",
"1+	c #1E1E1C",
"2+	c #2B2B2B",
"3+	c #020204",
"4+	c #191919",
"5+	c #101012",
"6+	c #020202",
"7+	c #050601",
"8+	c #0A0B06",
"9+	c #0D0D0D",
"0+	c #E4E4C0",
"a+	c #C9C8AA",
"b+	c #F1F1CD",
"c+	c #C0C0C0",
"d+	c #E1E1E1",
"e+	c #131313",
"f+	c #DFDFDF",
"g+	c #040404",
"h+	c #D1D1D1",
"i+	c #D5D5D5",
"j+	c #424242",
"k+	c #E3E0BF",
"l+	c #C4C3A4",
"m+	c #B0B0B0",
"n+	c #B4B4B4",
"o+	c #F1F1F1",
"p+	c #121212",
"q+	c #FEFEFE",
"r+	c #626262",
"s+	c #D8D5B4",
"t+	c #E7E4C1",
"u+	c #C3C2A3",
"v+	c #313131",
"w+	c #3F3F3F",
"x+	c #737373",
"y+	c #8D8D8D",
"z+	c #343434",
"A+	c #C2C1A2",
"B+	c #CECDAE",
"C+	c #E2DFBE",
"D+	c #515151",
"E+	c #1C1C1C",
"F+	c #060606",
"G+	c #BCBB9D",
"H+	c #DFDCBB",
"I+	c #FCFCFC",
"J+	c #E3E3E3",
"K+	c #ACACAC",
"L+	c #8E8E8E",
"M+	c #727272",
"N+	c #595959",
"O+	c #141414",
"P+	c #C9C8A9",
"Q+	c #ECE9C8",
"R+	c #C7C6A7",
"S+	c #ECECEC",
"T+	c #464646",
"U+	c #AAAAAA",
"V+	c #D4D4D4",
"W+	c #FAFAFA",
"X+	c #585858",
"Y+	c #CBC8A9",
"Z+	c #CBCAAB",
"`+	c #242424",
" @	c #4F4F4F",
".@	c #7A7A7A",
"+@	c #A5A5A5",
"@@	c #CBCBCB",
"#@	c #EFEFEF",
"$@	c #5A5A5A",
"%@	c #BEBA9D",
"&@	c #EAEAC6",
"*@	c #F2EFCE",
"=@	c #C1BAAA",
"-@	c #8B8974",
";@	c #4D4D43",
">@	c #1D1C17",
",@	c #080808",
"'@	c #2B2D2C",
")@	c #525453",
"!@	c #7B7B7B",
"~@	c #A4A4A4",
"{@	c #404040",
"]@	c #010103",
"^@	c #E1DEBD",
"/@	c #EDEAC9",
"(@	c #E2E2BE",
"_@	c #93937B",
":@	c #666755",
"<@	c #3D3D33",
"[@	c #020003",
"}@	c #CBC7AA",
"|@	c #DEDEBC",
"1@	c #F1EFC8",
"2@	c #E9E6C3",
"3@	c #DFDCB9",
"4@	c #C8C7A9",
"5@	c #C5C4A8",
"6@	c #AFAE92",
"7@	c #888772",
"8@	c #626351",
"9@	c #3E3E34",
"0@	c #1F1E1A",
"a@	c #030102",
"b@	c #BCBB9F",
"c@	c #CCC8AB",
"d@	c #F7F2D2",
"e@	c #F1EFC9",
"f@	c #ECECC6",
"g@	c #E8E8C4",
"h@	c #E4E4C2",
"i@	c #DFDEBF",
"j@	c #DCDBBC",
"k@	c #D9D9B7",
"l@	c #D3D3B1",
"m@	c #D2D2B0",
"n@	c #C6C5A7",
"o@	c #A4A48C",
"p@	c #84836F",
"q@	c #615F52",
"r@	c #BFC0A1",
"s@	c #F4EFCF",
"t@	c #F5F1CB",
"u@	c #F2EECB",
"v@	c #E7E7C3",
"w@	c #E5E5C1",
"x@	c #DDDAB9",
"y@	c #D5D5B3",
"z@	c #CFCFAD",
"A@	c #C4C4A8",
"B@	c #E3E1BB",
"C@	c #F6F3D0",
"D@	c #ECEAC4",
"E@	c #E8E6C0",
"F@	c #E4E2BC",
"G@	c #E1DEBB",
"H@	c #D9D6B5",
"I@	c #EAE7C4",
"J@	c #EBE7CA",
"K@	c #C7C4A5",
"L@	c #C4C0A3",
"M@	c #BEBAA1",
"N@	c #C2BEA5",
"O@	c #C2BEA1",
"P@	c #C5C1A4",
"Q@	c #C6C2A5",
"R@	c #C4C1A2",
"S@	c #C0BFA1",
"T@	c #C2C1A3",
"U@	c #C0C1A2",
"V@	c #BCBCA0",
"W@	c #BEBDA1",
"X@	c #B5B599",
"Y@	c #B8B79B",
"Z@	c #BFBEA0",
"`@	c #C3C2A6",
" #	c #C5C1A6",
".#	c #C4C3A5",
"+#	c #A5A488",
"@#	c #C1BBAB",
"##	c #C3BCAA",
"$#	c #C0B9A7",
"  . + @ # $ % & * $ + + + = + $ - ; > % + $ , ' @ ) + , ! + ~ { ",
"+ ] ^ / ( _ : : < [ } } | | } 1 } 2 3 [ 4 5 6 1 7 } ( 2 ( 8 3 ) ",
"' 3 } 1 [ 2 6 5 } 9 1 0 [ } 3 9 2 } 1 a } a : ( 9 [ [ b c 2 d - ",
"' e } 1 } 9 [ } _ 9 | f ^ g ( _ ( _ ( h 9 c [ 9 2 } } [ | i j * ",
"k l 9 [ } [ 6 9 } f 6 } [ | 9 ^ m 9 } 1 m n o p q r s 9 ( t u v ",
"' w [ } } } c 9 [ } } | | 9 3 m } x y z A B C D E F G H [ I J + ",
", K } 9 9 } | 2 9 [ 9 _ 8 9 4 L M N O P Q R C S T U V W [ 2 X + ",
"% / | [ 9 9 [ } [ 9 2 | ^ m Y Z ` p  .....+.D @.#.$.%.G | } &.+ ",
"*.=.^ } 8 [ x _ } | } 2 x -.;.C p p >.,.'.).p p !.~.{.].} 0 X ^.",
"+ 7 [ | _ 9 m } : [ /.(._.p :.<.,.[.p p p }.|.1.2.3.{.4.} [ u + ",
"% 5.[ 1 } } [ m 3 6.7.8.9.p 0.....p @.a.b.c.d.e.f.$.g.].[ [ u = ",
"+ e 9 2 3 [ h.i.j.k.p l.m.p n.o.p.q.r.s.t.u.v.w.x.y.z.A.[ } B.+ ",
"% 2 [ | | } 2 C.D.E.p F.G.@.H.I.J.K.L.M.N.O.P.Q.R.V r 6 } [ u + ",
"*.} 2 9 0 } [ S.T.U.p V.W.X.Y.Z.`. +.+++@+#+$+%+&+*+6 6 } b ~.+ ",
"=+e 2 9 m g | p -+;+S >+,+'+)+!+~+{+]+u.^+/+(+_+:+I } m 2 <+[++ ",
"% K | } m : [ D }+|+p 1+2+p 3+4+5+[.p >.6+7+8+9+&+q A.m 9 0+a+^.",
"+ 3 } } } ( b+p ..c+p d+..p e+..f+p g+h+i+j+p p {.%+4.H } k+l++ ",
"+ e } } } ( b+p m+P [.n+o+[.p+..q+p 6+....r+p p x.s+t+q [ k+u++ ",
"+ e } } } ( b+p [.p p p p p 6+v+w+p 6+x+y+z+[.p A+B+%.].} C+A++ ",
"+ 3 } } } ( b+p D+z+E+F+p [.p p p p p p p p p p G+[+H+].[ %+l++ ",
"+ 3 } } } ( b+p ......I+J+,.K+L+M+N+w+2+O+p [.p G+P+H+].} Q+R+= ",
"+ e } } } ( b+p ........................S+T+p p 2.P+{.4.} ^ [++ ",
"+ e } } } ( b+p U+V+W+..q+....q+..........X+p p 2.Y+{.4.} 3 Z++ ",
"+ 3 } } } ( b+p p [.p `+ @.@+@@@#@....q+..$@p p %@3.H+&@[ *@X + ",
"=@5.[ } } | b+-@;@>@p p p p p p ,@'@)@!@~@{@]@@.2.Y+^@4._ 5 u % ",
"+ 7 | [ 9 [ } /@(@T e._@:@<@|.p [@@.p p p p p p G+}@|@].} | j = ",
"' / } [ 2 9 [ 1@2@3@#+B.Y+4@5@6@7@8@9@0@a@p p p b@c@{.4.( 1 u + ",
"% d@9 9 } [ [ e@f@g@h@i@j@k@l@m@B.[+n@5@o@p@q@9@r@Z+|@&@[ } u + ",
"% s@[ 9 1 t@( ( 8 u@q ].&+v@w@(@^@x@k@y@z@X a+A@P+#+B@r ( [ u + ",
"' C@h.b+9 2 [ [ 9 6 5 | | A.e@*+D@D@E@F F@G@x@H@U {.I@*+/ 2 u @ ",
"' J@K@L@M@N@O@P@u+u+u+u+f.O@Q@R@S@T@U@V@b@W@b@X@Y@e.Z@`@ #.#+#@#",
"*.= ##' + $ - =@+ + + + % % ^.^.+ + - = = = = k $#. k k + ' k   "};
