/* XPM */
static char *rpose[] = {
/* columns rows colors chars-per-pixel */
"32 32 256 2",
"   c #010101",
".  c #0B0B0B",
"X  c #100F0C",
"o  c #13130D",
"O  c #1A190D",
"+  c #151513",
"@  c #1B1A13",
"#  c #1C1C1C",
"$  c #201F1F",
"%  c #22200D",
"&  c #2A280D",
"*  c #22221C",
"=  c #292815",
"-  c #2D2B1B",
";  c #272514",
":  c #312F1C",
">  c #332F15",
",  c #33300E",
"<  c #3A360E",
"1  c #383515",
"2  c #39371B",
"3  c #3D3A16",
"4  c #3A381B",
"5  c #333219",
"6  c #232322",
"7  c #272827",
"8  c #272828",
"9  c #282827",
"0  c #2A2A2A",
"q  c #343325",
"w  c #36342C",
"e  c #3F3B22",
"r  c #3D3B2B",
"t  c #343434",
"y  c #383730",
"u  c #3B3B3B",
"i  c #423E17",
"p  c #433F1B",
"a  c #4D480F",
"s  c #474317",
"d  c #44411C",
"f  c #49451C",
"g  c #4D4815",
"h  c #4E4A1B",
"j  c #4C4715",
"k  c #534D14",
"l  c #524D1A",
"z  c #555016",
"x  c #5B5513",
"c  c #59541B",
"v  c #5F5916",
"b  c #48462E",
"n  c #4B4820",
"m  c #4D4A2A",
"M  c #464324",
"N  c #414034",
"B  c #44433B",
"V  c #4F4D31",
"C  c #514D21",
"Z  c #524E28",
"A  c #514F34",
"S  c #555123",
"D  c #595523",
"F  c #5A572F",
"G  c #5D5821",
"H  c #56522C",
"J  c #555233",
"K  c #55533A",
"L  c #595634",
"P  c #5C593A",
"I  c #605A16",
"U  c #635D1A",
"Y  c #615C23",
"T  c #625D29",
"R  c #605C38",
"E  c #67611F",
"W  c #68611C",
"Q  c #6F681B",
"!  c #7A7214",
"~  c #7F771C",
"^  c #656022",
"/  c #676228",
"(  c #6B6522",
")  c #6A652C",
"_  c #6F6A27",
"`  c #6D682C",
"'  c #646037",
"]  c #6C6730",
"[  c #69653B",
"{  c #6E6930",
"}  c #64603C",
"|  c #726B25",
" . c #746E2B",
".. c #706A34",
"X. c #716C3B",
"o. c #77712D",
"O. c #797226",
"+. c #757037",
"@. c #7A7432",
"#. c #7A753B",
"$. c #7E7835",
"%. c #7E783A",
"&. c #75713C",
"*. c #434343",
"=. c #4B4A43",
"-. c #4B4B4B",
";. c #555443",
":. c #5F5D4F",
">. c #535453",
",. c #5A5A54",
"<. c #5C5C5B",
"1. c #605E45",
"2. c #605E4A",
"3. c #63614A",
"4. c #696647",
"5. c #6F6C44",
"6. c #636253",
"7. c #65635C",
"8. c #686656",
"9. c #6B6954",
"0. c #6E6C59",
"q. c #716F51",
"w. c #706E5A",
"e. c #797546",
"r. c #7D7843",
"t. c #787447",
"y. c #7D7959",
"u. c #646364",
"i. c #676868",
"p. c #686767",
"a. c #686866",
"s. c #6C6C6C",
"d. c #717069",
"f. c #797665",
"g. c #7E7C60",
"h. c #727272",
"j. c #7B7B7B",
"k. c #7B7B77",
"l. c #807715",
"z. c #807925",
"x. c #817929",
"c. c #807930",
"v. c #837D3A",
"b. c #817B43",
"n. c #827D4A",
"m. c #817D57",
"M. c #807D58",
"N. c #8C831C",
"B. c #9A8F15",
"V. c #9E9316",
"C. c #87802E",
"Z. c #908728",
"A. c #938A22",
"S. c #938929",
"D. c #968E33",
"F. c #9B922C",
"G. c #9B933D",
"H. c #A09419",
"J. c #AB9F17",
"K. c #A79C1D",
"L. c #A59A27",
"P. c #A79D2F",
"I. c #A89D23",
"U. c #A99F2D",
"Y. c #A49A30",
"T. c #AEA115",
"R. c #ADA11A",
"E. c #B4A71C",
"W. c #B6A91B",
"Q. c #BBAD16",
"!. c #BFB117",
"~. c #BFB118",
"^. c #AFA322",
"/. c #B5A823",
"(. c #B4AA3B",
"). c #BEB121",
"_. c #BDB132",
"`. c #858146",
"'. c #898240",
"]. c #89844B",
"[. c #8E884C",
"{. c #848055",
"}. c #8B8757",
"|. c #8B8857",
" X c #8E895E",
".X c #908A47",
"XX c #948E4A",
"oX c #918C53",
"OX c #98924F",
"+X c #969157",
"@X c #959058",
"#X c #9C9552",
"$X c #9A955C",
"%X c #8A8660",
"&X c #88866C",
"*X c #8B8869",
"=X c #868463",
"-X c #81817C",
";X c #888676",
":X c #898874",
">X c #8E8C7D",
",X c #918E6E",
"<X c #918D64",
"1X c #908E7A",
"2X c #959161",
"3X c #9E9860",
"4X c #94916A",
"5X c #949176",
"6X c #929078",
"7X c #A09A57",
"8X c #A39D5B",
"9X c #A09B69",
"0X c #A39E66",
"qX c #AEA64B",
"wX c #ACA65B",
"eX c #B1A957",
"rX c #BDB342",
"tX c #C0B21B",
"yX c #CBBC16",
"uX c #C9BB1F",
"iX c #C2B520",
"pX c #CDBE23",
"aX c #C1B636",
"sX c #CCBF31",
"dX c #C4BA53",
"fX c #CFC019",
"gX c #D3C315",
"hX c #D5C51B",
"jX c #DCCB15",
"kX c #DACA1A",
"lX c #CFC123",
"zX c #D5C621",
"xX c #D7C823",
"cX c #E0CF19",
"vX c #E5D416",
"bX c #E3D218",
"nX c #E9D715",
"mX c #EBD915",
"MX c #858585",
"NX c #8B8A81",
"BX c #999781",
"VX c #A3A180",
"CX c #ACACAC",
"ZX c #B8B7AE",
"AX c #BCBAAF",
"SX c #B3B3B0",
"DX c gray74",
"FX c #E3DFB0",
"GX c #F9F3B1",
"HX c #CDCDCD",
"JX c #D0CFCE",
"KX c gray87",
"LX c #EEEEEE",
"PX c #F2F2EF",
"IX c #FEFDEF",
"UX c gray100",
/* pixels */
"MXMXMXMXMXNXNX5X>XMXMX5X9XwXeX0XNXMXMXNX>X6X5X1XNXMXMXMXMXMXMXMX",
"j.MXM.j.BX3X3X0X3X;X:XrXvXmXmXmX3Xj.MX4X8X8X8X8X>Xj.j.j.-X-Xj.MX",
"j.j.j.j.j.<X$X$X$X&Xj.j.sXnXmXmXqXk.j.k.2X#X7X7X*Xj.k.k.j.j.j.j.",
"h.h.h.h.h.=XoX@X@X%Xh.h.rXnXmXmX_.h.h.h. X#X#X#X Xh.h.h.h.h.h.h.",
"s.s.s.s.d.|.oXoX}.d.s.y.xXmXmXxXf.s.s.s.oXOXOXoXs.s.s.s.i.s.s.s.",
"p.p.p.a.a.y.}.XXM.p.p.p.(.mXmX_.i.i.p.i.m.XXXXm.i.i.i.i.i.i.i.i.",
"u.<.u.<.7.w.].].n.u.7.u.[.mXmXzX0.u.<.u.0..X.X].u.u.u.<.u.u.<.u.",
"<.<.<.<.<.<.6.8.n.e.9.<.6.n.`.zXpXG.8.<.<.9.9.`.n.9.<.<.<.<.<.<.",
">.>.>.<.>.>.>.,.e.b.b.t.6.>.6.hXmXmXpXr.>.>.,.b.C.].b.6.>.>.>.,.",
">.2.2.2.>.>.>.5.P.U.U.#.#.3.U.mXmXmXmXnXD.>.5.v.v.v.v.v.4.>.-.>.",
"1.#.5.X.-.-.;.P.mXcXhXv.&.D.vXnXmXmXbXcXvX#.v.v.v.v.%.%.v.;.-.-.",
";.X.+.+.[ R X.F.kXmXmXiX/.cXkXkXmXmXbXF.bXiX+.+.$.$.@.;.+.5.*.*.",
"*.B K P R R R B ..I.).).iX/.c./.mXmXmXS.L.mXx.' @.@.@.K P @.K *.",
"u u u u u u t u J { { { J B ` ^.mXmXmXS.L vXmXS.o.o.o.L B  .o.A ",
"t t t t t t t t A ` ` ` A N / I.mXmXmXS.F mXmXgXx. . .H N  . .` ",
"t t 0 t w t t t Z / T / b t T tXmXmXmXz.y tXnXbXW.O._ b w T _ ) ",
"0 0 0 0 0 w m G Y / Y / S K.fXnXmXmXmXT w ( I.E.N.| ( r 0 w m Z ",
"0 8 0 8 9 Z Y G G Y G G W.mXmXmXmXmXjXM D ( ( ( ( ( Y q 0 0 7 0 ",
"8 6 6 6 q v G C h S G N.mXnX~.R.yXmXmX~ W W D l U ( ( e 6 6 6 6 ",
"6 $ * 9 n c d # $ - W gXmXH.6 # c nXmXgXQ f 6 # : U U c 6 $ $ $ ",
"# = : f c h * * d W !.mXkXl - - 4 Q.mXmXJ.c h l 2 h U U p : - - ",
"* s z z k 3 + p ~.mXmXmXT.k k v l.H.nXmXmXmXmXmXyXv v I I I I I ",
"+ @ = > 3 ; + + > x ! T.! j g k x U B.gXgXgXnXmXjXI 1 k k k x I ",
"*.UXUXUXUX-X+ PXUXUXUXSX+ + MXUXUX5X@ @ ZXUXUXIXdXK UXUXUXUXUXr.",
"u UXu + j.UXu LXMX. ,.LXM.*.UXNXVXUX=.j.PX-.! GXPX;.UXu o X > x ",
"u UXu . u UXu LXj.X < PXMXSXCX+ & FXAXj.PX-., g o [ UXu . . O % ",
"u UXCXCXKXKX# LXHXCXJXLX-.CXCX. . ZXSX. CXUXUXLX-.B UXUXUXUXu   ",
"u UXDXUXKX#   LXHXCXCX-.  CXCX    CXCX  .     CXLXu UXt   .   . ",
"t UXt j.UXj.  LXk.        t UXj.j.UXt j.LX*.  CXLXt UXt       . ",
"t UXt   j.UXt LXk.          k.UXUXj.    CXUXUXLX*.t UXUXUXUXUXt ",
"                                                                ",
"                                                                "
};
