/* XPM */ 
static char * shot_mask_xpm[] = {
"32 32 514 2",
"  	c None",
"! 	c #C5B9AB",
"# 	c #C2B9A8",
"$ 	c #C3BAAB",
"% 	c #C1B8A6",
"& 	c #C3B7A7",
"' 	c #C0B7A6",
"( 	c #C0B7A8",
") 	c #BFB6A7",
"* 	c #BEB5A6",
"+ 	c #BFB6A5",
", 	c #C0B4A4",
"- 	c #C1BAA8",
". 	c #C1B8A7",
"0 	c #C2B9AA",
"1 	c #C1BAA7",
"2 	c #F4F0D3",
"3 	c #F0EDCC",
"4 	c #EBEBC5",
"5 	c #E8E8C6",
"6 	c #E8E5C2",
"7 	c #E6E3C0",
"8 	c #E5E2BF",
"9 	c #E4E1BE",
": 	c #E3E0BD",
"; 	c #E4E1C0",
"< 	c #E3E0BF",
"= 	c #E8E6C0",
"> 	c #EAE7C4",
"? 	c #ECEAC4",
"@ 	c #F0EDCE",
"A 	c #C2B9A7",
"B 	c #F2EDCF",
"C 	c #ECE8C3",
"D 	c #E6E6C2",
"E 	c #E2E0BA",
"F 	c #DADAB8",
"G 	c #D7D7B5",
"H 	c #D4D4B2",
"I 	c #D2D2B0",
"J 	c #D2D1B2",
"K 	c #D3D0AF",
"L 	c #D5D2B1",
"M 	c #D3D0B1",
"N 	c #D5D2B3",
"O 	c #D3D2B3",
"P 	c #D1D1AF",
"Q 	c #D1D0B1",
"R 	c #D3D3B1",
"S 	c #D4D4B0",
"T 	c #DAD9BA",
"U 	c #E1DEBF",
"V 	c #C6C5A7",
"W 	c #C0B7A5",
"X 	c #EFECCB",
"Y 	c #E5E5C1",
"Z 	c #6D6A65",
"[ 	c #605E5F",
"] 	c #5F5F5D",
"^ 	c #5E5E5C",
"_ 	c #5D5D5B",
"` 	c #5A5A58",
"a 	c #555553",
"b 	c #61615F",
"c 	c #5B595A",
"d 	c #5F5F5F",
"e 	c #5E5D5B",
"f 	c #5F5D5E",
"g 	c #5C5A5B",
"h 	c #5B5B5D",
"i 	c #6A6964",
"j 	c #D0D1AF",
"k 	c #DFDCBB",
"l 	c #C2C1A3",
"m 	c #C2B6A8",
"n 	c #EBE8C7",
"o 	c #DEDEBA",
"p 	c #5D5D5D",
"q 	c #545653",
"r 	c #555555",
"s 	c #545454",
"t 	c #565656",
"u 	c #4D4D4D",
"v 	c #6E6E6E",
"w 	c #969696",
"x 	c #9B9B9B",
"y 	c #979797",
"z 	c #919191",
"{ 	c #949494",
"| 	c #898987",
"} 	c #8D8D8F",
"~ 	c #898886",
" !	c #C1C2A3",
"!!	c #BBBC9D",
"#!	c #BCB3A4",
"$!	c #BFB8A6",
"%!	c #E9E6C7",
"&!	c #DADAB6",
"'!	c #4E4E4E",
"(!	c #4D4D4B",
")!	c #4E4E4C",
"*!	c #4F4F4F",
"+!	c #4C4C4C",
",!	c #50504E",
"-!	c #434341",
".!	c #6E6E6C",
"0!	c #949391",
"1!	c #A2A2A2",
"2!	c #989898",
"3!	c #8F8F8D",
"4!	c #919193",
"5!	c #868686",
"6!	c #7B7D7C",
"7!	c #82817D",
"8!	c #B7B69A",
"9!	c #C9C8A9",
":!	c #B8B799",
";!	c #B9B0A1",
"<!	c #E9E4C6",
"=!	c #D9D6B3",
">!	c #5C5B57",
"?!	c #515151",
"@!	c #525252",
"A!	c #515153",
"B!	c #535355",
"C!	c #58585A",
"D!	c #57585A",
"E!	c #565759",
"F!	c #545557",
"G!	c #525355",
"H!	c #505050",
"I!	c #6B6B6B",
"J!	c #5B5B5B",
"K!	c #676769",
"L!	c #676767",
"M!	c #5A5A5A",
"N!	c #5F5E5C",
"O!	c #ACAA91",
"P!	c #C4C3A5",
"Q!	c #B4B397",
"R!	c #B8AEA2",
"S!	c #E4E3C4",
"T!	c #D6D3B4",
"U!	c #C4C4C2",
"V!	c #C5C5C5",
"W!	c #C5C5C3",
"X!	c #C4C6C5",
"Y!	c #C5C5C7",
"Z!	c #C8C9CB",
"[!	c #C9CBCA",
"]!	c #BCBDB8",
"^!	c #B1B0AB",
"_!	c #B7B4AF",
"`!	c #C2C0C1",
"a!	c #CACACA",
"b!	c #C6CAC9",
"c!	c #C3C8C4",
"d!	c #BEBEBE",
"e!	c #BFBFBF",
"f!	c #BDBDBD",
"g!	c #C0C0C0",
"h!	c #C1C1C1",
"i!	c #BDBDBB",
"j!	c #A5A38A",
"k!	c #C1BDA0",
"l!	c #B3B296",
"m!	c #B7AE9F",
"n!	c #D4D1B2",
"o!	c #FAFAF8",
"p!	c white",
"q!	c #FEFEFF",
"r!	c #FEFFFF",
"s!	c #FEFDF9",
"t!	c #DCD5C3",
"u!	c #BCAC93",
"v!	c #BAAC8F",
"w!	c #CABA98",
"x!	c #DDCFAC",
"y!	c #F0E6CD",
"z!	c #FCF9F2",
"{!	c #FFFEFD",
"|!	c #FDFDFB",
"}!	c #A19F86",
"~!	c #BFBB9E",
" #	c #B2B195",
"!#	c #FAF9F5",
"##	c #C7BCAA",
"$#	c #A08D6D",
"%#	c #A79976",
"&#	c #AA9870",
"'#	c #A89874",
"(#	c #B9A67E",
")#	c #CBB48B",
"*#	c #D9C9A8",
"+#	c #F6F2E9",
",#	c #FEFEFE",
"-#	c #FEFEFC",
".#	c #BEBA9D",
"0#	c #B1B094",
"1#	c #F9F9F7",
"2#	c #D8D2C6",
"3#	c #A59679",
"4#	c #BBA784",
"5#	c #C2B38A",
"6#	c #C7B48C",
"7#	c #B1A17F",
"8#	c #C1AE8D",
"9#	c #C5B38D",
":#	c #C2B08C",
";#	c #D5C8B7",
"<#	c #FDFDFD",
"=#	c #B1AF96",
">#	c #B6AD9E",
"?#	c #FFFFFD",
"@#	c #FFFEFF",
"A#	c #F9F9F9",
"B#	c #B3AA98",
"C#	c #A49472",
"D#	c #BAAE96",
"E#	c #8B8970",
"F#	c #928D77",
"G#	c #CCBD9E",
"H#	c #CDBD9B",
"I#	c #686B56",
"J#	c #91908B",
"K#	c #C6BDAB",
"L#	c #F2F2E8",
"M#	c #B0AE95",
"N#	c #FDFFFC",
"O#	c #E9E9E7",
"P#	c #9E927A",
"Q#	c #B4A179",
"R#	c #BBB09C",
"S#	c #686C5E",
"T#	c #6C6D5F",
"U#	c #CABAA0",
"V#	c #DDC5A1",
"W#	c #9D9473",
"X#	c #B8AA90",
"Y#	c #E0CEAA",
"Z#	c #F1EFE3",
"[#	c #A2A087",
"]#	c #BDB99C",
"^#	c #FBFBF9",
"_#	c #E9E5E2",
"`#	c #8F8770",
"a#	c #9F8F6D",
"b#	c #C8B499",
"c#	c #B9A88C",
"d#	c #C2AF8F",
"e#	c #CDBA99",
"f#	c #BCA989",
"g#	c #DAC99E",
"h#	c #E6CFA5",
"i#	c #D4C09F",
"j#	c #E9E6E1",
"k#	c #A09E85",
"l#	c #AFAD94",
"m#	c #B8AFA0",
"n#	c #949283",
"o#	c #695F44",
"p#	c #99886C",
"q#	c #9F8F75",
"r#	c #A29471",
"s#	c #A09170",
"t#	c #97866C",
"u#	c #B7A688",
"v#	c #9D8F72",
"w#	c #97917B",
"x#	c #F2EFEA",
"y#	c #C8C7C2",
"z#	c #575143",
"{#	c #4F4835",
"|#	c #5A513F",
"}#	c #5F5144",
"~#	c #6F604D",
" $	c #817359",
"!$	c #96876A",
"#$	c #8A7C62",
"$$	c #BAB7B0",
"%$	c #A09E87",
"&$	c #BBBA9C",
"'$	c #ADAB92",
"($	c #FFFDFE",
")$	c #FCFEFD",
"*$	c #B2B1AD",
"+$	c #444037",
",$	c #332B1E",
"-$	c #5E563F",
".$	c #706553",
"0$	c #645943",
"1$	c #655C3F",
"2$	c #A49D8B",
"3$	c #F8F8F6",
"4$	c #A19F88",
"5$	c #BCBB9D",
"6$	c #ABA990",
"7$	c #D5D4D0",
"8$	c #827F78",
"9$	c #504E42",
":$	c #332C24",
";$	c #39392F",
"<$	c #84847A",
"=$	c #EAE9E7",
">$	c #FDFEFF",
"?$	c #A2A089",
"@$	c #A9A78E",
"A$	c #FDFFFE",
"B$	c #D0D1CC",
"C$	c #8C7F6C",
"D$	c #C2BAAD",
"E$	c #FEFFFD",
"F$	c #F1F2ED",
"G$	c #D4CCB7",
"H$	c #DDC7A0",
"I$	c #F7E1BC",
"J$	c #F0E4D4",
"K$	c #F9F8F6",
"L$	c #BDBC9E",
"M$	c #E9E2D8",
"N$	c #C5B9A1",
"O$	c #CFBC92",
"P$	c #D3C199",
"Q$	c #E2CB9F",
"R$	c #EBD6A7",
"S$	c #E6DCC1",
"T$	c #F7FBFC",
"U$	c #F4F4F2",
"V$	c #AEAC93",
"W$	c #D3CAB8",
"X$	c #B6A37B",
"Y$	c #B5A486",
"Z$	c #BFAF8B",
"[$	c #D6C09B",
"]$	c #CEBC96",
"^$	c #D7C9A6",
"_$	c #F8F8F0",
"`$	c #F3F3F1",
"a$	c #A3A188",
"b$	c #E8E1CF",
"c$	c #BEAE8A",
"d$	c #968969",
"e$	c #B29E7D",
"f$	c #D7BF9B",
"g$	c #C5B79C",
"h$	c #DAC7A9",
"i$	c #FFFDF0",
"j$	c #BFB5A9",
"k$	c #E6E3C2",
"l$	c #E0DFDD",
"m$	c #DDDFDC",
"n$	c #DEDEDE",
"o$	c #DFDDDE",
"p$	c #DEDDDB",
"q$	c #DFE3E4",
"r$	c #E1E1E1",
"s$	c #CDC5BA",
"t$	c #AEA086",
"u$	c #9B9074",
"v$	c #AA9A78",
"w$	c #BBAD90",
"x$	c #B9AD97",
"y$	c #B4A890",
"z$	c #D7D1C3",
"{$	c #E6E5EA",
"|$	c #E3E3E1",
"}$	c #E3E3E3",
"~$	c #E3E3E5",
" %	c #E3E1E2",
"!%	c #E0E0E2",
"#%	c #DEDEE0",
"$%	c #DAD9D7",
"%%	c #A1A185",
"&%	c #B2B097",
"'%	c #E6E3C4",
"(%	c #6F6E6C",
")%	c #696A6C",
"*%	c #6A6C6B",
"+%	c #6B6B6D",
",%	c #696967",
"-%	c #646665",
".%	c #6A6A6C",
"0%	c #686667",
"1%	c #66635E",
"2%	c #646560",
"3%	c #6B6A65",
"4%	c #6E6D69",
"5%	c #696866",
"6%	c #676360",
"7%	c #646462",
"8%	c #656668",
"9%	c #636564",
":%	c #666867",
";%	c #6D6D6B",
"<%	c #656565",
"=%	c #696B68",
">%	c #A2A28A",
"?%	c #E5E2C3",
"@%	c #737478",
"A%	c #6C6C6A",
"B%	c #6D6D6D",
"C%	c #777779",
"D%	c #757472",
"E%	c #4D4C4A",
"F%	c #757678",
"G%	c #78797B",
"H%	c #6C6C6C",
"I%	c #707173",
"J%	c #828385",
"K%	c #7A7A7C",
"L%	c #76777B",
"M%	c #5E5E60",
"N%	c #434240",
"O%	c #474747",
"P%	c #484848",
"Q%	c #595959",
"R%	c #646464",
"S%	c #7A7A7A",
"T%	c #A6A48D",
"U%	c #C1C0A2",
"V%	c #E5E4C5",
"W%	c #D6D6B4",
"X%	c #6D6C68",
"Y%	c #949693",
"Z%	c #8C8C8A",
"[%	c #848484",
"]%	c #747577",
"^%	c #8E8E8E",
"_%	c #888888",
"`%	c #7C7A7B",
"a%	c #909090",
"b%	c #8F918E",
"c%	c #6E6C6F",
"d%	c #626264",
"e%	c #636363",
"f%	c #5E605F",
"g%	c #5A5B5D",
"h%	c #555557",
"i%	c #666666",
"j%	c #9B9B9D",
"k%	c #767573",
"l%	c #ACAB8D",
"m%	c #C3C2A4",
"n%	c #B6B599",
"o%	c #D8D7B8",
"p%	c #625E5B",
"q%	c #5C5C5A",
"r%	c #69676A",
"s%	c #6D6B6C",
"t%	c #5D5E60",
"u%	c #505052",
"v%	c #535353",
"w%	c #616163",
"x%	c #626262",
"y%	c #6A6A6A",
"z%	c #747476",
"{%	c #686765",
"|%	c #B5B59B",
"}%	c #CAC9AA",
"~%	c #B8B79B",
" &	c #EAE7C6",
"!&	c #DFDFB9",
"#&	c #B4B49A",
"$&	c #A0A086",
"%&	c #9EA186",
"&&	c #9F9F87",
"'&	c #9F9F85",
"(&	c #A29E85",
")&	c #A4A48A",
"*&	c #A8A88E",
"+&	c #B6B49B",
",&	c #C1C19F",
"-&	c #BCB3A2",
".&	c #C1B8A9",
"0&	c #ECECCA",
"1&	c #E5E5C3",
"2&	c #DBDBB7",
"3&	c #CBC8A9",
"4&	c #C4C0A3",
"5&	c #C0BCA1",
"6&	c #BDB99E",
"7&	c #BBBA9B",
"8&	c #BEBA9F",
"9&	c #BBB9A0",
":&	c #BCBB9F",
";&	c #C0BC9F",
"<&	c #C6C3A2",
"=&	c #D4D0B3",
">&	c #DDDCBD",
"?&	c #BEB5A4",
"@&	c #C1BAAA",
"A&	c #BEBDA1",
"B&	c #B9B89A",
"C&	c #AAAA8E",
"D&	c #A9A98F",
"E&	c #A6A68E",
"F&	c #A8A68D",
"G&	c #A8A68F",
"H&	c #A8A48B",
"I&	c #A5A88D",
"J&	c #A9A88C",
"K&	c #A9A58C",
"L&	c #A7A78B",
"M&	c #A7A28C",
"N&	c #A5A58B",
"O&	c #A4A48C",
"P&	c #A7A58C",
"Q&	c #AAA891",
"R&	c #ACAB8F",
"S&	c #B0AF93",
"T&	c #B5B498",
"U&	c #A1A084",
"V&	c #BBB4A1",
"W&	c #BAB1A2",
"! # $ % & ' ( ) ) ) ) ) ) ) ( ) ) ) * * ) + + ) + , ( ( % - . 0 ",
"1 2 3 4 5 6 7 8 9 8 8 8 9 8 9 9 9 8 9 9 : ; 9 : < ; 8 = > ? @ . ",
"A B C D E F G H I I J J J K L M N J J J O I P P Q R S T U 6 V W ",
"- X Y Z [ ] ^ ^ ^ ^ ^ ^ _ ^ _ ^ ^ ^ ` a b c d e f g h i j k l m ",
"0 n o p q r r r r r r r s s s t s t u v w x y z { | } ~  !J !!#!",
"$!%!&!c '!(!)!)!'!'!'!'!*!u *!+!)!,!-!.!0!1!2!3!4!5!6!7!8!9!:!;!",
"( <!=!>!?!?!@!?!?!A!A!B!C!D!E!F!G!?!H!s I!J!K!b L!M!B!N!O!P!Q!R!",
") S!T!U!V!V!W!V!X!Y!Z![!]!^!_!`!a!b!c!U!d!e!f!e!d!g!h!i!j!k!l!m!",
") S!n!o!p!p!p!q!p!r!s!t!u!v!w!x!y!z!q!{!p!p!p!p!p!p!p!|!}!~! #m!",
"( S!n!o!p!q!p!p!r!!###$#%#&#'#(#)#*#+#,#p!,#p!p!p!p!,#-#}!.#0#m!",
") S!n!1#p!p!q!p!p!2#3#4#5#6#7#8#9#:#;#<#p!p!p!p!p!,#p!|!}!~!=#>#",
") S!M o!,#?#@#r!A#B#C#D#E#F#G#H#I#J#K#L#?#p!p!p!p!p!,#-#}!~!M#m!",
"( S!N 1#p!r!@#N#O#P#Q#R#S#T#U#V#W#X#Y#Z#p!p!,#p!p!p!,#?#[#]#M#m!",
"( S!M ^#,#p!p!p!_#`#a#b#c#d#e#f#g#h#i#j#r!,#p!,#p!p!p!-#k#]#l#m#",
"* S!n!1#p!p!?#@#1#n#o#p#q#r#s#t#u#v#w#x#p!p!,#p!p!,#p!-#}!]#l#m!",
") S!n!o!p!r!?#?#p!y#z#{#|#}#~# $!$#$$$,#r!p!p!p!p!p!p!,#%$&$'$m!",
") S!n!o!p!p!($@#p!)$*$+$,$-$.$0$1$2$3$?#?#p!p!p!,#p!p!,#4$5$6$m!",
") S!n!o!p!,#p!p!r!r!,#7$8$9$:$;$<$=$>$r!@#p!p!p!p!p!p!,#?$5$@$m!",
") S!n!o!p!p!p!A$p!($p!p!r!B$C$D$r!>$?#@#E$,#p!,#p!p!p!?#[#5$@$m!",
") S!n!o!p!@#,#p!($@#p!?#F$G$H$I$J$K$p!,#p!p!p!p!p!p!p!o!}!L$6$m!",
") S!n!o!p!p!p!,#?#r!p!M$N$O$P$Q$R$S$T$?#?#p!p!p!p!p!p!U$[#L$V$m!",
") S!n!o!p!r!r!r!?#r!o!W$X$Y$Z$[$]$^$_$@#@#,#,#p!,#p!p!`$a$L$l#m!",
") S!n!o!p!?#p!p!p!r!-#b$c$d$e$f$g$h$i$($p!,#p!p!p!p!p!U$[#L$M#m!",
"j$k$Q l$m$n$o$p$m$q$r$s$t$u$v$w$x$y$z${$|$}$~$ % %!%#%$%%%L$&%m!",
") '%J (%)%*%+%I!,%-%.%0%1%2%3%4%5%6%7%8%9%9%:%;%<%9%=%,%>%L$l!>#",
"' ?%H e @%A%B%C%D%E%@!F%G%H%I%J%K%L%M%N%O%O%P%Q%H!R%S%f T%U% #m#",
") V%W%X%Y%Z%[%]%^%_%`%a%b%c%M!d%e%f%g%s s h%r K!i%[%j%k%l%m%n%;!",
"' 5 o%p%I!I!<%q%7%I!K!r%s%t%,!u%H!,!s v%s s v%w%x%y%z%{%|%}%~%;!",
"0  &!&O  !#&6$j![#$&%&&&&&'&k#}!k#(&%$$&&&&&$&&&&&)&*&+&,&M L$-&",
".&0&1&2&O 3&4&5&6&6&5$7&&$8&9&6&6&:&&$&$!!6&7&5$.#;&<&3&=&>&l ?&",
"@&Y A&B&'$'$C&D&*&E&F&@$G&H&I&J&K&I&L&M&N&F&*&O&P&Q&R&S&T&B&U&.&",
"@&# ( * V&W&;!m#m!>#>#m!m!m!m!m!m!m!m!m!m!m!m!m!m!m!m#W&#!* % @&"};