/* XPM */
static char *shottools[] = {
/* columns rows colors chars-per-pixel */
"32 32 240 2",
"   c #286922",
".  c #286923",
"X  c #296922",
"o  c #296923",
"O  c #286A22",
"+  c #2B6B24",
"@  c #2B6B25",
"#  c #2B6C24",
"$  c #2B6C25",
"%  c #2D6D26",
"&  c #2D6D27",
"*  c #2D6E26",
"=  c #2D6E27",
"-  c #2F7029",
";  c #307029",
":  c #32722B",
">  c #32722C",
",  c #32732C",
"<  c #34742E",
"1  c #34752E",
"2  c #35742E",
"3  c #34762E",
"4  c #377532",
"5  c #377631",
"6  c #377730",
"7  c #377731",
"8  c #367830",
"9  c #387432",
"0  c #387631",
"q  c #3B7734",
"w  c #3B7735",
"e  c #397933",
"r  c #397A33",
"t  c #3A7933",
"y  c #3A7A33",
"u  c #3B7834",
"i  c #3B7835",
"p  c #3B7D35",
"a  c #3D7A37",
"s  c #3E7A37",
"d  c #3C7D35",
"f  c #3E7F37",
"g  c #3F7F37",
"h  c #3E7F38",
"j  c #3F7F38",
"k  c #407C39",
"l  c #427D3C",
"z  c #427D3D",
"x  c #447F3E",
"c  c #17E902",
"v  c #17EB01",
"b  c #17EA02",
"n  c #17EC01",
"m  c #17ED01",
"M  c #17EC02",
"N  c #18E303",
"B  c #18E802",
"V  c #16F101",
"C  c #12FF00",
"Z  c #13FE01",
"A  c #17FA06",
"S  c #1BF60B",
"D  c #1CF50B",
"F  c #1DF60C",
"G  c #1DF60D",
"H  c #1EF60D",
"J  c #18FA06",
"K  c #3ADF2C",
"L  c #3CD030",
"P  c #24EF14",
"I  c #27EA18",
"U  c #2BEC1C",
"Y  c #20F00F",
"T  c #41823A",
"R  c #41823B",
"E  c #42823A",
"W  c #42823B",
"Q  c #44843D",
"!  c #44843E",
"~  c #46873F",
"^  c #468341",
"/  c #468740",
"(  c #498542",
")  c #498642",
"_  c #498942",
"`  c #498943",
"'  c #498A42",
"]  c #498A43",
"[  c #4B8C45",
"{  c #4B8D45",
"}  c #4C8C45",
"|  c #4C8D45",
" . c #4E8F48",
".. c #4F8F48",
"X. c #528E4D",
"o. c #528F4D",
"O. c #598D54",
"+. c #5B8E55",
"@. c #5B8F55",
"#. c #5B8E56",
"$. c #51924A",
"%. c #55914F",
"&. c #55924F",
"*. c #54944D",
"=. c #57974F",
"-. c #579451",
";. c #579750",
":. c #5A9654",
">. c #5D9058",
",. c #5D9158",
"<. c #5F915A",
"1. c #5E9359",
"2. c #5F9259",
"3. c #5F925A",
"4. c #599952",
"5. c #599A52",
"6. c #599A53",
"7. c #5A9953",
"8. c #5A9954",
"9. c #5B9C55",
"0. c #5B9D55",
"q. c #5D9956",
"w. c #5C9C55",
"e. c #5C9D55",
"r. c #5F9B59",
"t. c #5E9F58",
"y. c #5F9E58",
"u. c #5F9E59",
"i. c #5F9F58",
"p. c #5CA756",
"a. c #5EA058",
"s. c #5FA058",
"d. c #58BB4F",
"f. c #5AB952",
"g. c #5BBC53",
"h. c #61955C",
"j. c #629E5B",
"k. c #629E5C",
"l. c #6B9F66",
"z. c #61A25A",
"x. c #61A25B",
"c. c #62A25A",
"v. c #62A25B",
"b. c #61A75B",
"n. c #64A45D",
"m. c #64A55D",
"M. c #64A45E",
"N. c #64A55E",
"B. c #65AE5E",
"V. c #67A760",
"C. c #67A761",
"Z. c #67A860",
"A. c #67A861",
"S. c #6DA168",
"D. c #6FA36A",
"F. c #69AA63",
"G. c #69AB63",
"H. c #6AAA63",
"J. c #6CAD66",
"K. c #6BB763",
"L. c #6EB167",
"P. c #6FB068",
"I. c #70A36A",
"U. c #70A46A",
"Y. c #71A56D",
"T. c #74A86E",
"R. c #77A773",
"E. c #76A971",
"W. c #7AA975",
"Q. c #71B26B",
"!. c #72B26A",
"~. c #72B26B",
"^. c #75B46D",
"/. c #75B56D",
"(. c #74B56E",
"). c #75B46E",
"_. c #75B56E",
"`. c #46D03B",
"'. c #49D13D",
"]. c #45F134",
"[. c #4CC342",
"{. c #65C15C",
"}. c #82B17C",
"|. c #84B37F",
" X c #8FB18B",
".X c #8FB18C",
"XX c #90B38D",
"oX c #91B38D",
"OX c #92B48E",
"+X c #93B590",
"@X c #94B691",
"#X c #94B791",
"$X c #95B892",
"%X c #95B992",
"&X c #96BA93",
"*X c #97BA93",
"=X c #9CBF99",
"-X c #9EC19B",
";X c #9FC29C",
":X c #A0C29C",
">X c #A1C39D",
",X c #A2C59E",
"<X c #A3C59E",
"1X c #A3C6A0",
"2X c #A4C6A0",
"3X c #A5C8A2",
"4X c #BACFB8",
"5X c #BBD0B9",
"6X c #BCD1BA",
"7X c #BDD2BB",
"8X c #BDD3BB",
"9X c #C1D7BF",
"0X c #C2D8C0",
"qX c #C3D9C1",
"wX c #C4DAC2",
"eX c #C5DBC3",
"rX c #C6DBC4",
"tX c #C7DCC4",
"yX c #C7DCC5",
"uX c #E3ECE2",
"iX c #E4ECE3",
"pX c #E4EDE4",
"aX c #E5EDE4",
"sX c #E5EEE4",
"dX c #E6EFE6",
"fX c #E7EFE6",
"gX c #E7F0E6",
"hX c #E7F0E7",
"jX c #E8F0E7",
"kX c #E8F1E7",
"lX c #E9F1E8",
"zX c #F1F5F1",
"xX c #F1F6F1",
"cX c #F2F6F1",
"vX c #F2F6F2",
"bX c #F3F7F2",
"nX c #F3F7F3",
"mX c #F3F8F3",
"MX c #F4F8F3",
"NX c gray100",
/* pixels */
"B B B B B B v v v v v v c v v v v c v v B B B m m m m m m v m v ",
"N                   . . . . . . . . . .     # O               m ",
"v + $   + $ + $ # # # #   + + + + +   + $   $ $ $ # +   + =   B ",
"m = = q uXNXNXuXq  XnX= =  XnX% w uXNXuXw = .XNXNXNXnX= = = = V ",
"m - - 4XuXs s uX8X.XnX- - .XnX- 4XuX@.uX4X; - - nXoX- - ; - : m ",
"m , , 4XuXk , , , OXnX- , .XnX@.NX@.: #.NX@., , xXOX, , : : : m ",
"m 2 , z uXNXNXuXz OXNXNXNXNXnX#.NX#.3 #.NX#.3 3 xXOX3 3 3 3 , m ",
"m 9 q 4 4 q x uX5XOXnXq 3 @XnX1.NX<.8 h.NX<.q 3 bXOX4 q 3 8 4 m ",
"m q q 8XuX/ x uX9X#XnXt 8 *XnX8 9XuXh.uX8X8 p q bX#Xp q p 8 p m ",
"m p p / uXNXNXuX) *XnXg g #XnXp ) uXNXsX) p p p bX*Xp p p p p m ",
"m j j j g g j g j j g j g g j g g g f f f f f f f f f j f f f m ",
"m W W W W W W W W j W j W W W W W W T W W W W Q Q j Q j W W W m ",
"m ! ! ! ! Q Q Q ! ! ! ! ! ! ! ! ! Q ! Q ! Q Q ! Q ! ! ! ! Q Q m ",
"].NXNXNXNXl./ R.bXNX8X' / $.uXNXdXX.! bX-X~ ! ~ ! o.dXNXNXdXo.m ",
"m ' 0X0X' ' ' vX0XW.bX-X' 0XfXD.fX9X' mX-X] ] ] ' 9XfX%.%.fX9Xm ",
"m { 0X0X{ { :XnX{ { ;XbXI.NXD.{ I.NXI.mX;X| | |  .9XfX-.{ { | m ",
"m $.9XyX| $.:XmX| $.:XmXY.NXY.$.Y.NXY.mX;X$.......:.hXNXNXlX:.m ",
"m $.yX9X$.$.;XmX$.$.<XmXT.NXT.$.T.NXT.mX;X$.$.$.$.$.$.$.q.fXeXm ",
"m *.rXrX*.*.*.mXrX}.mX2X*.9XfXE.fXtX*.mX<X*.*.*.*.tXfXr.r.dXtXm ",
"m =.yXyX=.6.6.|.MXNXyX=.-.n.fXNXlXj.=.mXNXNXNXNX3Xj.lXNXNXlXk.m ",
"m 6.6.6.6.6.6.6.6.6.6.6.6.6.6.6.6.6.9.6.6.6.6.6.6.6.6.7.6.6.7.m ",
"m e.9.e.e.e.e.e.e.e.q.e.e.e.e.e.e.e.e.e.e.e.e.9.e.e.e.e.e.q.e.m ",
"m z.e.x.j.e.e.z.e.x.s.s.e.x.e.j.s.x.e.e.s.e.x.j.e.j.z.e.x.e.s.m ",
"m x.x.x.c.x.x.x.x.x.x.x.x.x.x.x.x.x.x.x.p.x.x.c.c.c.x.x.x.x.x.m ",
"m m.M.M.M.M.M.M.M.M.M.m.m.m.n.C.n.V.m.m.Y L p.M.m.m.n.n.n.n.n.B ",
"B m.B.N.C.B.M.H.C.C.C.N.C.B.B.N.C.B.N.N.S Z H [.B.N.C.C.C.C.B.B ",
"V G.G.G.H.H.H.H.B.d.d.d.f.f.d.d.f.d.d.d.S Z C C U f.B.H.H.B.J.B ",
"B J.J.J.J.J.J.J.g.P P P P P P P P P P P A Z C C Z Z '.J.J.J.J.m ",
"B P.P.P.P.P.P.P.P.P.P.P.P.P.P.P.J.!.J.!.H Z C C A '.L.P.T.L.L.m ",
"V !.~.~.~.~.~.~.!.!.~.~.~.!.!.!.~.~.!.!.H Z Z K K.~.~.!.!.!.~.m ",
"B /.^._././.^.^.)._._._._._._.).)._._.).H U {._._.)._.)._._._.m ",
"V V V B V B V B m m m m m m m m m m m m V m m m m m m m m m m m "
};
