/* XPM */
static char *silouette[] =
{
/* width height ncolors chars_per_pixel */
"32 32 63 2",
/* colors */
"AA c #FFFFFFFFFFFF",
"BA c #EFEFEFEFFFFF",
"CA c #DEDEDEDEEFEF",
"DA c #CECECECEE7E7",
"EA c #CECECECEDEDE",
"FA c #C6C6C6C6C6C6",
"GA c #BDBDBDBDBDBD",
"HA c #B5B5C6C6B5B5",
"IA c #B5B5B5B5CECE",
"JA c #ADADADADDEDE",
"KA c #ADADADADCECE",
"LA c #ADADADADADAD",
"MA c #9C9CA5A5C6C6",
"NA c #9C9C9C9CCECE",
"OA c #94949494B5B5",
"PA c #94949494ADAD",
"AB c #84848C8CBDBD",
"BB c #84848C8CADAD",
"CB c #848484849C9C",
"DB c #848484848484",
"EB c #848484847B7B",
"FB c #7B7B7B7BB5B5",
"GB c #7B7B7B7BADAD",
"HB c #7B7B7B7B7B7B",
"IB c #737384847373",
"JB c #6B6B73739494",
"KB c #6B6B6B6B9C9C",
"LB c #6B6B6B6B8C8C",
"MB c #6B6B6B6B7373",
"NB c #6B6B6B6B6B6B",
"OB c #5A5A63638484",
"PB c #5A5A5A5A8C8C",
"AC c #5A5A5A5A6B6B",
"BC c #525294945252",
"CC c #525252527B7B",
"DC c #525252525A5A",
"EC c #4A4A52527373",
"FC c #4A4A4A4A6363",
"GC c #4A4A4A4A5A5A",
"HC c #42424A4A8C8C",
"IC c #393939395252",
"JC c #393939394A4A",
"KC c #292931317373",
"LC c #292929296363",
"MC c #292929294A4A",
"NC c #292929293939",
"OC c #212121218484",
"PC c #212121217B7B",
"AD c #212121215A5A",
"BD c #212121212929",
"CD c #181818186B6B",
"DD c #181818185A5A",
"ED c #181818184242",
"FD c #181818183939",
"GD c #181818182929",
"HD c #080810103939",
"ID c #080808085252",
"JD c #080808084242",
"KD c #080808083939",
"LD c #080808081818",
"MD c #000008086B6B",
"ND c #000000002929",
"OD c #000000000000",
/* pixels */
"GAAAAAAAAAAAAAAAAAAAAAAAAAAAAAAAAAAAAAAAAAAAAAAAAAAAAAAAAAAAAAAA",
"HBGAAAAAAAAAAAAAAAAAAAAAAAAAAAAAAAAAAAAAAAAAAAAAAAAAAAAAAAAAAAAA",
"HBHBGAAAAAAAAAAAAAAAAAAAAAAAAAAAAAAAAAAAAAAAAAAAAAIAGBDAAAAAAAAA",
"HBHBHBGAAAAAAAAAAAAAAAAAAAAAAAAAAAAAAAAAAAAAAAAAKBNDNDNAAAAAAAAA",
"HBHBHBHBGAAAAAAAAAAAAAAAAAAAAAAAAAAAAAAAAAAAEAHCCDICIAAAAAAAAAAA",
"HBHBHBNBHBGAAAAAAAAAAAAAAAAAAAAAAAAAAAAABAJBKDLBBAAAAAAAAAAAAAAA",
"HBHBHBHBHBHBGAAAAAAAAAAAAAAAAAAAAAAAAAIAFDEDKAAAAAAAAAAAAAAAGBFB",
"HBHBHBHBHBNBHBGAAAAAAAAAAAAAAAAAAAAAJAMDECCAAAAAAAAAAAAAAAGBLDPB",
"HBHBHBHBHBHBHBHBGAAAAAAAAAAAAAAAAAFAIDNAAAPBEDOAAAAAAAAAAAHDKDEA",
"HBHBHBHBHBHBHBHBHBGAAAAAAAAAAAAAEAJDPBAABBLDODDDAAAAAAAAABOCEAAA",
"HBHBHBHBHBHBHBHBHBNBGAAAAAAAAABAEDADAAAAADODLDOBAAAAAAKAJDDAAAAA",
"HBHBHBHBHBHBHBHBHBHBHBGAAAAAAAGBJDKAAAOAKDKDLBBAAAAADAJDKBAAAAAA",
"HBHBHBHBHBHBHBHBHBHBHBHBGAAAAAIAKDNDCCEDKCCAAAAAAAAALCLCAAAAAAAA",
"HBHBHBHBHBHBHBHBHBHBHBNBHBGAAAPAODODODKDEAAAAABAMAPCOCCAAAAAAAAA",
"HBHBHBHBHBHBHBHBHBHBHBHBHBHBGAMCODODLDODABBAGBDDEDBBBAAAAAAAAAAA",
"HBHBHBHBHBHBHBHBHBHBHBHBHBHBACODODNDODODEDCDKDPBCAAAAAAAAAAAAAAA",
"HBHBHBHBHBHBHBHBHBHBHBHBACDCNCNDODODFDCBABKBCAAAAAAAAAAAAAAAAAAA",
"HBHBHBHBHBHBHBHBHBHBNBDCGCHBDCGDGDACCAAAAAAAAAAAAAAAAAAAAAAAAAAA",
"HBHBHBHBHBHBHBHBNBICICNCDCHBACBDNBDBGAAAAAAAAAAAAAAAAAAAAAAAAAAA",
"HBHBHBHBHBEBHBGCICGCJCNCJCJCBDDCHBHBHBGAAAAAAAAAAAAAAAAAAAAAAAAA",
"HBHBHBHBGCFCGCJCMCJCDCGCNCGDDCHBHBHBHBHBGAAAAAAAAAAAAAAAAAAAAAAA",
"HBHBACJCKDNDMCGCHBEBDCMCNCACEBHBHBHBHBNBHBGAAAAAAAAAAAAAAAAAAAAA",
"HBHBGCICNBGCFDJCGCACNCNCGCHBHBHBHBHBHBHBHBHBGAAAAAAAAAAAAAAAAAAA",
"HBHBHBEBACJCMBJCMCFDMCNBDBHBHBHBHBHBHBHBHBNBHBGAAAAAAAAAAAAAAAAA",
"HBHBHBHBNBGCIBDBNBGCHBHBHBHBHBHBHBHBHBHBHBHBHBHBGAAAAAAAAAAAAAAA",
"HBHBHBHBHBHBDBHBHBDBHBHBHBHBHBHBHBHBHBHBHBHBHBHBNBGAAAAAAAAAAAAA",
"HBHBHBHBHBHBHBHBHBHBHBHBHBHBHBHBHBHBHBHBHBHBHBHBHBHBGAAAAAAAAAAA",
"HBHBHBHBHBHBHBHBHBHBHBHBHBHBHBHBHBHBHBHBHBHBHBHBHBHBHBGAAAAAAAAA",
"HBHBHBHBHBHBHBHBHBHBHBHBHBHBHBHBHBHBHBHBHBHBHBHBHBHBHBNBGAAAAAAA",
"HBHBHBHBHBHBHBHBHBHBHBIBBCHBHBHBHBHBHBHBHBHBHBHBHBHBHBIBNBGAAAAA",
"HBHBHBHBHBHBHBHBHBHBHBHBIBHBHBHBHBHBHBHBHBHBHBHBHBHBHBEBHBNBHAAA",
"HBHBHBHBHBHBHBHBHBHBHBHBHBHBHBHBHBHBHBHBHBHBHBHBHBHBHBHBHBHBHBLA",
};
