/* XPM */
static char * slALL_xpm[] = {
"32 32 263 2",
"  	c #249ED2",
". 	c #249DD1",
"+ 	c #239DD0",
"@ 	c #24A0D4",
"# 	c #061B24",
"$ 	c #030E12",
"% 	c #050D11",
"& 	c #080E10",
"* 	c #030B0F",
"= 	c #000000",
"- 	c #040101",
"; 	c #43170D",
"> 	c #662315",
", 	c #0E0503",
"' 	c #39130B",
") 	c #9A341E",
"! 	c #A83821",
"~ 	c #822B19",
"{ 	c #090302",
"] 	c #010000",
"^ 	c #47441F",
"/ 	c #508824",
"( 	c #4A681B",
"_ 	c #78402A",
": 	c #120705",
"< 	c #030201",
"[ 	c #5A7C41",
"} 	c #63B951",
"| 	c #5BAE47",
"1 	c #837D68",
"2 	c #130E0B",
"3 	c #020201",
"4 	c #726D56",
"5 	c #B3D48B",
"6 	c #BAC48F",
"7 	c #B3A58A",
"8 	c #12100C",
"9 	c #050000",
"0 	c #1B1612",
"a 	c #A2896A",
"b 	c #A98E6E",
"c 	c #514335",
"d 	c #010100",
"e 	c #030000",
"f 	c #410000",
"g 	c #570000",
"h 	c #1A0000",
"i 	c #3E2A1F",
"j 	c #6F513B",
"k 	c #060604",
"l 	c #00001A",
"m 	c #00002E",
"n 	c #000005",
"o 	c #110D11",
"p 	c #2E0000",
"q 	c #5B0000",
"r 	c #5C0000",
"s 	c #2D0000",
"t 	c #000100",
"u 	c #040A08",
"v 	c #575646",
"w 	c #90886E",
"x 	c #0B130F",
"y 	c #01021C",
"z 	c #000004",
"A 	c #00005B",
"B 	c #00005C",
"C 	c #00002F",
"D 	c #490A0D",
"E 	c #1E0404",
"F 	c #390B0A",
"G 	c #0D0D0C",
"H 	c #340F0C",
"I 	c #66130F",
"J 	c #6B2019",
"K 	c #2A473A",
"L 	c #376653",
"M 	c #4E9678",
"N 	c #6EB895",
"O 	c #78BC99",
"P 	c #549D84",
"Q 	c #284D98",
"R 	c #1B3285",
"S 	c #162B50",
"T 	c #12221B",
"U 	c #070F4D",
"V 	c #05095E",
"W 	c #0C0C25",
"X 	c #050505",
"Y 	c #2F0C0F",
"Z 	c #050504",
"` 	c #3F3A34",
" .	c #625E56",
"..	c #202721",
"+.	c #2B211A",
"@.	c #69241C",
"#.	c #56271F",
"$.	c #1E3126",
"%.	c #1C3326",
"&.	c #468364",
"*.	c #4BBE74",
"=.	c #51B87F",
"-.	c #57A284",
";.	c #1E366B",
">.	c #111F6F",
",.	c #192D3E",
"'.	c #1E372C",
").	c #182E24",
"!.	c #15201E",
"~.	c #504E46",
"{.	c #544E46",
"].	c #0E0D0A",
"^.	c #01011A",
"/.	c #000057",
"(.	c #000041",
"_.	c #010101",
":.	c #0C0B09",
"<.	c #0A0807",
"[.	c #060000",
"}.	c #104614",
"|.	c #2BA93B",
"1.	c #2CAA3C",
"2.	c #254633",
"3.	c #000101",
"4.	c #100F0C",
"5.	c #050403",
"6.	c #062609",
"7.	c #2FA542",
"8.	c #3AA552",
"9.	c #162A1F",
"0.	c #09130D",
"a.	c #3CA358",
"b.	c #4BA36C",
"c.	c #172B22",
"d.	c #2196C7",
"e.	c #15551F",
"f.	c #3AC854",
"g.	c #3AC856",
"h.	c #2F5D45",
"i.	c #208CBA",
"j.	c #030D10",
"k.	c #204C35",
"l.	c #2D9B48",
"m.	c #31914E",
"n.	c #325654",
"o.	c #030506",
"p.	c #229ACB",
"q.	c #1C7BA5",
"r.	c #030B0E",
"s.	c #020304",
"t.	c #1D2A36",
"u.	c #1C5A38",
"v.	c #1F433C",
"w.	c #232F45",
"x.	c #05080B",
"y.	c #2091C0",
"z.	c #166283",
"A.	c #02090B",
"B.	c #020305",
"C.	c #18502D",
"D.	c #157928",
"E.	c #147526",
"F.	c #223442",
"G.	c #06080C",
"H.	c #1C7DA7",
"I.	c #10475E",
"J.	c #010608",
"K.	c #020203",
"L.	c #1A3A2E",
"M.	c #147125",
"N.	c #135C25",
"O.	c #21303F",
"P.	c #040608",
"Q.	c #02080A",
"R.	c #176485",
"S.	c #0A2B3A",
"T.	c #010304",
"U.	c #1B0101",
"V.	c #171F2A",
"W.	c #1D2C35",
"X.	c #1A232F",
"Y.	c #1D283B",
"Z.	c #020405",
"`.	c #010507",
" +	c #0F465D",
".+	c #05171E",
"++	c #000202",
"@+	c #2F0000",
"#+	c #16161F",
"$+	c #1A2532",
"%+	c #141B3E",
"&+	c #101675",
"*+	c #010142",
"=+	c #000003",
"-+	c #010203",
";+	c #092733",
">+	c #020B0E",
",+	c #0C0D12",
"'+	c #171F2D",
")+	c #0F144B",
"!+	c #0B0F70",
"~+	c #041218",
"{+	c #777777",
"]+	c #EEEEEE",
"^+	c #373333",
"/+	c #FFFFFF",
"(+	c #393B3D",
"_+	c #19232F",
":+	c #171D2E",
"<+	c #0C1044",
"[+	c #02080B",
"}+	c #010506",
"|+	c #333333",
"1+	c #393C3F",
"2+	c #1B2632",
"3+	c #19212E",
"4+	c #0F131C",
"5+	c #444444",
"6+	c #CCCCCC",
"7+	c #AAAAAA",
"8+	c #37393B",
"9+	c #17202C",
"0+	c #161C28",
"a+	c #0B0F14",
"b+	c #010406",
"c+	c #000001",
"d+	c #353637",
"e+	c #121922",
"f+	c #121821",
"g+	c #06080B",
"h+	c #ACAAAA",
"i+	c #343535",
"j+	c #0F141A",
"k+	c #10151C",
"l+	c #030406",
"m+	c #C0AAAA",
"n+	c #C7AAAA",
"o+	c #D1CCCC",
"p+	c #363635",
"q+	c #1B1B11",
"r+	c #1A1A10",
"s+	c #0B0A06",
"t+	c #777779",
"u+	c #907777",
"v+	c #000203",
"w+	c #450000",
"x+	c #0E0000",
"y+	c #00002D",
"z+	c #000045",
"A+	c #00000E",
"B+	c #030D11",
"C+	c #02090C",
"D+	c #020A0D",
"E+	c #020A0E",
"F+	c #020B0F",
"G+	c #030C10",
"H+	c #030E13",
"I+	c #030F14",
"J+	c #031015",
"K+	c #04141A",
"L+	c #05171F",
"M+	c #07202A",
"N+	c #0A2C3A",
"  . + + + + + + + + + + + + + + + + + + + + + + + + + + + + .   ",
"@ # $ $ $ $ $ $ $ $ $ $ $ $ $ % & $ $ $ $ $ $ $ $ $ $ $ $ $ # @ ",
"+ * = = = = = = = = = = = = - ; > , = = = = = = = = = = = = * + ",
"+ $ = = = = = = = = = = = = ' ) ! ~ { = = = = = = = = = = = $ + ",
"+ $ = = = = = = = = = = = ] ^ / ( _ : = = = = = = = = = = = $ + ",
"+ $ = = = = = = = = = = = < [ } | 1 2 = = = = = = = = = = = $ + ",
"+ $ = = = = = = = = = = = 3 4 5 6 7 8 = = = = = = = = = = = $ + ",
"+ $ = = = = = 9 = = = = = = 0 a b c d = = = = = = = = = = = $ + ",
"+ $ = = = e f g h = = = = = = i j k = = = = l m n = = = = = $ + ",
"+ o p h = 9 q r s e p h = t u v w x y m z z A B C = = n m l $ + ",
"+ D r q 9 = E F G H I J K L M N O P Q R S T U V W X = C B A $ + ",
"+ Y g f e Z `  ...+.@.#.$.%.&.*.=.-.;.>.,.'.).!.~.{.].^./.(.$ + ",
"+ $ 9 = = _.:.<.= = [.= = = }.|.1.2.t n = = = 3.Z 4.5.= n = $ + ",
"+ $ = = = = = = = = = = = = 6.7.8.9.= = = = = = = = = = = = $ + ",
"+ $ = = = = = = = = = = = = 0.a.b.c.= = = = = = = = = = = = $ + ",
"d.$ = = = = = = = = = = = = e.f.g.h._.= = = = = = = = = = = $ + ",
"i.j.= = = = = = = = = = = _.k.l.m.n.o.= = = = = = = = = = = $ p.",
"q.r.= = = = = = = = = = = s.t.u.v.w.x.= = = = = = = = = = = j.y.",
"z.A.= = = = = = = = = = = B.C.D.E.F.G.= = = = = = = = = = = r.H.",
"I.J.= = = = = = = = = = = K.L.M.N.O.P.= = = = = = = = = = = Q.R.",
"S.T.= = = = = = = = = 9 p U.V.W.X.Y.Z.= = = = = = = = = = = `. +",
".+++= = = = = = = = = @+r q #+$+%+&+*+=+= = = = = = = = = = -+;+",
">+= = = = = = = = = = h g f ,+'+)+!+A n = = = = = = = = = = 3.~+",
"`.= = = = = = = {+]+= = ^+/+(+_+:+<+l ]+{+= = = = = = = = = = [+",
"}+= = = = = = = ]+/+{+= |+/+1+2+3+4+= ]+{+= = = = = = = = = = }+",
"T.= = = = = = 5+]+6+7+= |+/+8+9+0+a+= ]+{+= = = = = = = = = = b+",
"c+= = = = = = {+]+{+]+= |+/+d+e+f+g+= ]+{+= = = = = = = = = = 3.",
"c+= = = = = = ]+6+h+]+{+|+/+i+j+k+l+= ]+{+= n = = = = = = = = c+",
"3.= = = = = 5+]+m+n+o+7+|+/+p+q+r+s+= ]+t+(./.l = = = = = = = 3.",
"3.= = = = = {+]+q r u+]+|+/+/+/+/+/+|+]+/+/+/+/+{+= = = = = = T.",
"v+= = = = = = ] s w+x+= = = = = = = = = c+y+z+A+= = = = = = 3.B+",
"B+Q.C+D+D+E+E+>+F+F+F+F+G+G+G+G+G+B+B+B+B+B+$ H+I+J+~+K+L+# M+N+"};
