/* XPM */
static char * slHead_xpm[] = {
"32 32 408 2",
"  	c #27A0D3",
". 	c #259ED1",
"+ 	c #259DD0",
"@ 	c #33AADA",
"# 	c #3EB3E1",
"$ 	c #3DB2E1",
"% 	c #3CB6E9",
"& 	c #2DA9DF",
"* 	c #239DD1",
"= 	c #2FAADF",
"- 	c #38B0E2",
"; 	c #39AEDE",
"> 	c #3CB2E0",
", 	c #3AB0DF",
"' 	c #37ADDD",
") 	c #37B0E3",
"! 	c #2BA7DC",
"~ 	c #31ADE3",
"{ 	c #3CB4E6",
"] 	c #3DB2E0",
"^ 	c #3DB1E0",
"/ 	c #38AEDD",
"( 	c #269ED1",
"_ 	c #25A0D4",
": 	c #061B24",
"< 	c #030E12",
"[ 	c #5F5D51",
"} 	c #C8BB9F",
"| 	c #CEC3A4",
"1 	c #BCBCAD",
"2 	c #96AEB7",
"3 	c #7492A0",
"4 	c #96A7AA",
"5 	c #AFAE9B",
"6 	c #C2B99E",
"7 	c #D7CEB0",
"8 	c #CCC3A7",
"9 	c #B2AB93",
"0 	c #A4A799",
"a 	c #8B9FA7",
"b 	c #7594A1",
"c 	c #9FB3B8",
"d 	c #BAB5A1",
"e 	c #CDC2A3",
"f 	c #C7BB9E",
"g 	c #807765",
"h 	c #091216",
"i 	c #030B0F",
"j 	c #000000",
"k 	c #433B31",
"l 	c #E7CFA8",
"m 	c #F5DCB5",
"n 	c #F2DCB4",
"o 	c #E4D4B2",
"p 	c #D8CAAC",
"q 	c #D3C2A1",
"r 	c #D7C3A1",
"s 	c #E0CAA6",
"t 	c #F8E7BE",
"u 	c #EAD7B2",
"v 	c #D2BE9C",
"w 	c #CCB998",
"x 	c #C7B69A",
"y 	c #CDBFA4",
"z 	c #DAC7A7",
"A 	c #E7D1AA",
"B 	c #EFD7B0",
"C 	c #E4CDA7",
"D 	c #716451",
"E 	c #171511",
"F 	c #EED5AE",
"G 	c #FFE6BC",
"H 	c #FFEEC3",
"I 	c #FFF0C5",
"J 	c #FBE5BC",
"K 	c #EDD8B1",
"L 	c #E5D2AD",
"M 	c #FFFBD8",
"N 	c #F4E9C5",
"O 	c #D8C2A0",
"P 	c #D9C5A1",
"Q 	c #E2CDA9",
"R 	c #ECD7B0",
"S 	c #F6E0B7",
"T 	c #F7E0B7",
"U 	c #F9E0B7",
"V 	c #F5DDB5",
"W 	c #3A342A",
"X 	c #706350",
"Y 	c #FFE5BB",
"Z 	c #FCE4BB",
"` 	c #F9E2B8",
" .	c #F3DBB3",
"..	c #E8D1AB",
"+.	c #E3CEA8",
"@.	c #F1E5BF",
"#.	c #FEFADD",
"$.	c #FBF2D0",
"%.	c #E6D5AF",
"&.	c #D9C39F",
"*.	c #E2CAA5",
"=.	c #E9D0AA",
"-.	c #F1D8B0",
";.	c #F4DBB2",
">.	c #FBE0B6",
",.	c #877761",
"'.	c #020201",
").	c #201C17",
"!.	c #F2D6AD",
"~.	c #ECD1A9",
"{.	c #E6CCA4",
"].	c #E2C8A2",
"^.	c #DEC6A1",
"/.	c #CEB793",
"(.	c #B99F7D",
"_.	c #AF9675",
":.	c #B39978",
"<.	c #BBA280",
"[.	c #D0B996",
"}.	c #D8C09B",
"|.	c #DCC29D",
"1.	c #E1C7A0",
"2.	c #E8CDA5",
"3.	c #F0D5AC",
"4.	c #211D17",
"5.	c #090807",
"6.	c #C6AD8B",
"7.	c #DBBF99",
"8.	c #D4B994",
"9.	c #D1B893",
"0.	c #D0B794",
"a.	c #C5AD8C",
"b.	c #B19877",
"c.	c #9F8466",
"d.	c #A3896A",
"e.	c #B69D7D",
"f.	c #C8B08E",
"g.	c #CAB390",
"h.	c #CEB590",
"i.	c #D0B691",
"j.	c #D9BE98",
"k.	c #CAB18D",
"l.	c #736350",
"m.	c #CBAF8A",
"n.	c #BCA17F",
"o.	c #B99F7E",
"p.	c #B59C7C",
"q.	c #B19979",
"r.	c #AF9778",
"s.	c #AF9678",
"t.	c #AF9777",
"u.	c #B09778",
"v.	c #B09879",
"w.	c #B89E7D",
"x.	c #BBA17F",
"y.	c #CAAF8A",
"z.	c #6F5F4C",
"A.	c #211C16",
"B.	c #B29775",
"C.	c #A88D6D",
"D.	c #A28A6B",
"E.	c #998064",
"F.	c #957B61",
"G.	c #977D61",
"H.	c #9A8065",
"I.	c #987E62",
"J.	c #93795F",
"K.	c #9A8165",
"L.	c #A38A6C",
"M.	c #AA8E6E",
"N.	c #B39775",
"O.	c #191511",
"P.	c #010101",
"Q.	c #62513E",
"R.	c #A28666",
"S.	c #9E8568",
"T.	c #9B8365",
"U.	c #967E61",
"V.	c #947D60",
"W.	c #957C60",
"X.	c #987F62",
"Y.	c #9B8265",
"Z.	c #9E8667",
"`.	c #A38767",
" +	c #5E4C3B",
".+	c #010000",
"++	c #090705",
"@+	c #7A624A",
"#+	c #997D5E",
"$+	c #957A5D",
"%+	c #8F7559",
"&+	c #8A7055",
"*+	c #897053",
"=+	c #886F54",
"-+	c #8B7154",
";+	c #8F7558",
">+	c #937A5C",
",+	c #987C5D",
"'+	c #755F46",
")+	c #080604",
"!+	c #0A0806",
"~+	c #584432",
"{+	c #84684C",
"]+	c #80654A",
"^+	c #7E6247",
"/+	c #7D6247",
"(+	c #7D6248",
"_+	c #7F654A",
":+	c #85684C",
"<+	c #594431",
"[+	c #010100",
"}+	c #2E1D13",
"|+	c #6D4B34",
"1+	c #6D5239",
"2+	c #6A4C34",
"3+	c #694D35",
"4+	c #6E5339",
"5+	c #694C35",
"6+	c #5C3220",
"7+	c #090403",
"8+	c #090100",
"9+	c #71422F",
"0+	c #92795D",
"a+	c #745A41",
"b+	c #735A41",
"c+	c #937B5E",
"d+	c #724F3C",
"e+	c #3D0E06",
"f+	c #040101",
"g+	c #030000",
"h+	c #724836",
"i+	c #BCA584",
"j+	c #9C8669",
"k+	c #9B8568",
"l+	c #BCA685",
"m+	c #85604B",
"n+	c #340C04",
"o+	c #020100",
"p+	c #2396C7",
"q+	c #6B4F40",
"r+	c #D5BE9B",
"s+	c #B9A382",
"t+	c #B9A282",
"u+	c #D2BF9A",
"v+	c #A07E66",
"w+	c #2A0A04",
"x+	c #228DBA",
"y+	c #030D10",
"z+	c #6C5F4F",
"A+	c #DDC6A2",
"B+	c #C4AF8E",
"C+	c #D9C4A0",
"D+	c #C3A788",
"E+	c #210D08",
"F+	c #249ACB",
"G+	c #1D7CA5",
"H+	c #030B0E",
"I+	c #080806",
"J+	c #A69B7F",
"K+	c #C6B292",
"L+	c #BBA887",
"M+	c #BCA889",
"N+	c #C5B292",
"O+	c #CDBC9C",
"P+	c #242019",
"Q+	c #2291C0",
"R+	c #186383",
"S+	c #02090B",
"T+	c #010303",
"U+	c #050C0A",
"V+	c #14241D",
"W+	c #686B59",
"X+	c #A19C80",
"Y+	c #9D8D73",
"Z+	c #998A71",
"`+	c #9C8B72",
" @	c #9F8F76",
".@	c #A7A084",
"+@	c #7F7F6A",
"@@	c #1C2E26",
"#@	c #07110D",
"$@	c #020404",
"%@	c #1E7EA7",
"&@	c #11475F",
"*@	c #010608",
"=@	c #010201",
"-@	c #040807",
";@	c #0D1915",
">@	c #172C24",
",@	c #1F3B31",
"'@	c #274B3C",
")@	c #264A3B",
"!@	c #405445",
"~@	c #656351",
"{@	c #736856",
"]@	c #756856",
"^@	c #766956",
"/@	c #776B58",
"(@	c #6D6A57",
"_@	c #495D4C",
":@	c #2B5142",
"<@	c #2B5544",
"[@	c #25483A",
"}@	c #1C352C",
"|@	c #12231C",
"1@	c #060C0A",
"2@	c #010202",
"3@	c #02080A",
"4@	c #186586",
"5@	c #0B2C3A",
"6@	c #010405",
"7@	c #020302",
"8@	c #040806",
"9@	c #0A1310",
"0@	c #12221C",
"a@	c #182F26",
"b@	c #193027",
"c@	c #192F26",
"d@	c #182E24",
"e@	c #162B23",
"f@	c #152921",
"g@	c #14271F",
"h@	c #182821",
"i@	c #262F27",
"j@	c #31342B",
"k@	c #33362D",
"l@	c #2A332A",
"m@	c #1B2D24",
"n@	c #162D24",
"o@	c #1A3128",
"p@	c #1B342A",
"q@	c #1D382E",
"r@	c #203D31",
"s@	c #203E33",
"t@	c #203E32",
"u@	c #101E18",
"v@	c #020504",
"w@	c #020708",
"x@	c #10475D",
"y@	c #061820",
"z@	c #070E0C",
"A@	c #0A130F",
"B@	c #0B1511",
"C@	c #0B1410",
"D@	c #0A120F",
"E@	c #09120F",
"F@	c #09120E",
"G@	c #08110E",
"H@	c #0B1510",
"I@	c #0C1713",
"J@	c #0C1813",
"K@	c #0D1A15",
"L@	c #0E1A16",
"M@	c #0E1B16",
"N@	c #0F1D17",
"O@	c #10201A",
"P@	c #101E19",
"Q@	c #0D1B17",
"R@	c #0B2A36",
"S@	c #040D0F",
"T@	c #010302",
"U@	c #030604",
"V@	c #030504",
"W@	c #030505",
"X@	c #030605",
"Y@	c #030705",
"Z@	c #040705",
"`@	c #050807",
" #	c #050A08",
".#	c #050808",
"+#	c #05151A",
"@#	c #020608",
"##	c #AAAAAA",
"$#	c #000101",
"%#	c #777878",
"&#	c #FFFFFF",
"*#	c #EEEEEE",
"=#	c #333434",
"-#	c #343434",
";#	c #454545",
">#	c #030A0C",
",#	c #020507",
"'#	c #777777",
")#	c #010304",
"!#	c #111111",
"~#	c #DDDDDD",
"{#	c #BBBBBB",
"]#	c #010406",
"^#	c #000001",
"/#	c #333333",
"(#	c #666666",
"_#	c #444444",
":#	c #000203",
"<#	c #030D11",
"[#	c #02080B",
"}#	c #02090C",
"|#	c #020A0D",
"1#	c #020A0E",
"2#	c #030C10",
"3#	c #030C11",
"4#	c #030E13",
"5#	c #030F14",
"6#	c #041015",
"7#	c #041218",
"8#	c #05141A",
"9#	c #05171F",
"0#	c #08202A",
"a#	c #0B2D3B",
"  . + + + + @ # $ % & * = - ; > , ' ) ! * ~ { ] ^ / ( + + + .   ",
"_ : < < < < [ } | 1 2 3 4 5 6 7 8 9 0 a b c d e f g h < < < : _ ",
"+ i j j j j k l m n o p q r s t u v w x y z A B C D j j j j i + ",
"+ < j j j j E F G H I J K s L M N O P Q R S T U V W j j j j < + ",
"+ < j j j j j X Y Z `  ...+.@.#.$.%.&.*.=.-.;.>.,.'.j j j j < + ",
"+ < j j j j j ).!.~.{.].^./.(._.:.<.[.}.|.1.2.3.4.j j j j j < + ",
"+ < j j j j j 5.6.7.8.9.0.a.b.c.d.e.f.g.h.i.j.k.5.j j j j j < + ",
"+ < j j j j j j l.m.n.o.p.q.r.s.t.u.v.p.w.x.y.z.j j j j j j < + ",
"+ < j j j j j j A.B.C.D.E.F.G.H.I.F.J.K.L.M.N.O.j j j j j j < + ",
"+ < j j j j j j P.Q.R.c.S.T.U.V.W.X.Y.Z.c.`. +.+j j j j j j < + ",
"+ < j j j j j j j ++@+#+$+%+&+*+=+-+;+>+,+'+)+j j j j j j j < + ",
"+ < j j j j j j j j !+~+{+]+^+/+/+(+_+:+<+)+j j j j j j j j < + ",
"+ < j j j j j j j j j [+}+|+1+2+3+4+5+6+7+j j j j j j j j j < + ",
"+ < j j j j j j j j j j 8+9+0+a+b+c+d+e+f+j j j j j j j j j < + ",
"+ < j j j j j j j j j j g+h+i+j+k+l+m+n+o+j j j j j j j j j < + ",
"p+< j j j j j j j j j j j q+r+s+t+u+v+w+j j j j j j j j j j < + ",
"x+y+j j j j j j j j j j j z+A+B+B+C+D+E+j j j j j j j j j j < F+",
"G+H+j j j j j j j j j j I+J+K+L+M+N+O+P+j j j j j j j j j j y+Q+",
"R+S+j j j j j j j T+U+V+W+X+Y+Z+`+ @.@+@@@#@$@j j j j j j j H+%@",
"&@*@j j j =@-@;@>@,@'@)@!@~@{@]@^@/@(@_@:@<@[@}@|@1@2@j j j 3@4@",
"5@6@7@8@9@0@a@b@c@d@e@f@g@h@i@j@k@l@m@n@o@p@q@r@s@t@o@u@1@v@w@x@",
"y@z@A@B@C@C@A@D@A@D@D@E@E@F@G@F@F@E@A@H@B@I@J@K@L@M@N@u@O@P@Q@R@",
"S@T@U@U@V@V@U@V@U@U@V@V@V@V@V@V@V@W@X@X@Y@Z@8@8@8@8@8@-@`@ #.#+#",
"@#j j ####j $#####%#&#&#&#&#*#P.$#=#&#-#P.P.*#&#&#*#;#P.P.P.j >#",
",#j j ####j j ####'#*#j j j j j j ##&###j j *#'#j ##*#j j j j ,#",
")#j j ####j j ####'#*#j j j j j !#~#{#~#!#j *#'#j j *#'#j j j ]#",
"^#j j ##&#&#&#&###'#&#&#&#*#j j /#&#(#&#/#j *#'#j j *#'#j j j $#",
"^#j j ####j j ####'#*#j j j j j ##~###~###j *#'#j j *#'#j j j ^#",
"$#j j ####j j ####'#*#j j j j !#~#######~#!#*#'#j ##*#j j j j $#",
"$#j j ####j j ####'#&#&#&#&#*#/#&#/#j /#&#/#*#&#&#*#_#j j j j )#",
":#j j j j j j j j j j j j j j j j j j j j j j j j j j j j j $#<#",
"<#[#}#|#|#1#H+H+i i i i 2#3#3#3#3#<#<#<#<#<#< 4#5#6#7#8#9#: 0#a#"};
