/* XPM */
static char * slLArm_xpm[] = {
"32 32 534 2",
"  	c #259AD1",
". 	c #2398CF",
"+ 	c #2397CE",
"@ 	c #2398CE",
"# 	c #2296CE",
"$ 	c #2295CD",
"% 	c #2294CD",
"& 	c #2192CD",
"* 	c #2191CC",
"= 	c #208FCC",
"- 	c #208ECB",
"; 	c #1F8DCB",
"> 	c #1F8CCB",
", 	c #1F8BCB",
"' 	c #1F8BCA",
") 	c #208FCB",
"! 	c #2090CC",
"~ 	c #2192CC",
"{ 	c #2294CE",
"] 	c #2497D0",
"^ 	c #2399D2",
"/ 	c #0E2737",
"( 	c #081C2A",
"_ 	c #051B29",
": 	c #051A28",
"< 	c #051A27",
"[ 	c #051A29",
"} 	c #051B2B",
"| 	c #061D2D",
"1 	c #061E30",
"2 	c #062134",
"3 	c #072339",
"4 	c #07263F",
"5 	c #082A45",
"6 	c #082D4A",
"7 	c #093050",
"8 	c #093255",
"9 	c #0A3457",
"0 	c #0A355A",
"a 	c #1B3952",
"b 	c #0A3459",
"c 	c #0A3355",
"d 	c #093051",
"e 	c #092E4C",
"f 	c #082A46",
"g 	c #072740",
"h 	c #092D47",
"i 	c #2296D0",
"j 	c #051826",
"k 	c #030F1B",
"l 	c #030F1A",
"m 	c #030E18",
"n 	c #030E19",
"o 	c #03101C",
"p 	c #03121F",
"q 	c #041322",
"r 	c #041627",
"s 	c #04182B",
"t 	c #051C31",
"u 	c #062038",
"v 	c #07233F",
"w 	c #072746",
"x 	c #082B4C",
"y 	c #082E51",
"z 	c #093055",
"A 	c #092F53",
"B 	c #928877",
"C 	c #33424F",
"D 	c #213A51",
"E 	c #44535E",
"F 	c #06233E",
"G 	c #061F36",
"H 	c #07223A",
"I 	c #2293CD",
"J 	c #03101D",
"K 	c #051B30",
"L 	c #061F37",
"M 	c #072846",
"N 	c #082C4D",
"O 	c #092F54",
"P 	c #0F3356",
"Q 	c #193C5D",
"R 	c #2B4153",
"S 	c #8C7F6C",
"T 	c #19334B",
"U 	c #8C7A64",
"V 	c #2C3C49",
"W 	c #082D4F",
"X 	c #082948",
"Y 	c #072542",
"Z 	c #06203A",
"` 	c #07263E",
" .	c #2193CD",
"..	c #2396CE",
"+.	c #03111E",
"@.	c #031220",
"#.	c #041423",
"$.	c #06233D",
"%.	c #072745",
"&.	c #09335B",
"*.	c #596467",
"=.	c #858880",
"-.	c #797468",
";.	c #474F54",
">.	c #625D57",
",.	c #373B3E",
"'.	c #18334D",
").	c #74746F",
"!.	c #1B3449",
"~.	c #072644",
"{.	c #06213B",
"].	c #051C2B",
"^.	c #031321",
"/.	c #041524",
"(.	c #05192C",
"_.	c #06223D",
":.	c #0C3459",
"<.	c #9A8E79",
"[.	c #978D7A",
"}.	c #968772",
"|.	c #6C6C67",
"1.	c #726C61",
"2.	c #1B354C",
"3.	c #83725B",
"4.	c #313C45",
"5.	c #082741",
"6.	c #041526",
"7.	c #041728",
"8.	c #05192D",
"9.	c #06223C",
"0.	c #072643",
"a.	c #082A4A",
"b.	c #092F52",
"c.	c #09335A",
"d.	c #0A3761",
"e.	c #203A52",
"f.	c #C5AB89",
"g.	c #E4D6B2",
"h.	c #C9BEA0",
"i.	c #B9A88D",
"j.	c #525B5F",
"k.	c #827866",
"l.	c #263543",
"m.	c #093157",
"n.	c #061D2E",
"o.	c #031221",
"p.	c #041424",
"q.	c #041525",
"r.	c #04182A",
"s.	c #051A2D",
"t.	c #051C32",
"u.	c #082949",
"v.	c #093259",
"w.	c #0A365F",
"x.	c #0B3A66",
"y.	c #434F57",
"z.	c #E2C9A2",
"A.	c #FFFCD6",
"B.	c #FFF8CD",
"C.	c #DECFAE",
"D.	c #C7B698",
"E.	c #4E5559",
"F.	c #0A355F",
"G.	c #082C4F",
"H.	c #2295CE",
"I.	c #061F31",
"J.	c #051D34",
"K.	c #062039",
"L.	c #082D50",
"M.	c #0A3965",
"N.	c #0B3C6A",
"O.	c #62605A",
"P.	c #DABE98",
"Q.	c #FDEDC3",
"R.	c #FFF5C9",
"S.	c #FFFCD0",
"T.	c #A9A590",
"U.	c #0B365D",
"V.	c #0A355E",
"W.	c #093056",
"X.	c #07253D",
"Y.	c #051D33",
"Z.	c #072440",
"`.	c #0B3D6C",
" +	c #605A52",
".+	c #B19675",
"++	c #E2C7A1",
"@+	c #FFF3C6",
"#+	c #FFF5C8",
"$+	c #28425A",
"%+	c #0A3863",
"&+	c #09345C",
"*+	c #061E36",
"=+	c #07243A",
"-+	c #072238",
";+	c #072847",
">+	c #082E52",
",+	c #0A3864",
"'+	c #0B3B69",
")+	c #0B3E6E",
"!+	c #0C3C68",
"~+	c #6C6D5E",
"{+	c #A68869",
"]+	c #B99F7D",
"^+	c #F0D4AB",
"/+	c #908A7B",
"(+	c #0B3762",
"_+	c #093258",
":+	c #07253C",
"<+	c #0C4072",
"[+	c #1F4D58",
"}+	c #4C8065",
"|+	c #818265",
"1+	c #A88A6A",
"2+	c #987E61",
"3+	c #173654",
"4+	c #072541",
"5+	c #051A2E",
"6+	c #082841",
"7+	c #082C4E",
"8+	c #0A345C",
"9+	c #19465A",
"0+	c #52997B",
"a+	c #448367",
"b+	c #3E6F55",
"c+	c #3E4A44",
"d+	c #113355",
"e+	c #093156",
"f+	c #082B48",
"g+	c #0B3B68",
"h+	c #0B3D6B",
"i+	c #0B3E6F",
"j+	c #154159",
"k+	c #539D7F",
"l+	c #519577",
"m+	c #498668",
"n+	c #275047",
"o+	c #0A375F",
"p+	c #0B3965",
"q+	c #051E35",
"r+	c #092E4E",
"s+	c #072948",
"t+	c #082B4B",
"u+	c #0B3D6A",
"v+	c #0C3F70",
"w+	c #0C4172",
"x+	c #103C5E",
"y+	c #50997C",
"z+	c #559E7E",
"A+	c #4D8D70",
"B+	c #3D6E58",
"C+	c #0C3455",
"D+	c #0A3660",
"E+	c #051B2F",
"F+	c #1E8AC7",
"G+	c #093153",
"H+	c #0A345D",
"I+	c #0B3C69",
"J+	c #0C3F6F",
"K+	c #0C4071",
"L+	c #0C4073",
"M+	c #0C3D6A",
"N+	c #397367",
"O+	c #55A07F",
"P+	c #4F9173",
"Q+	c #478064",
"R+	c #14394A",
"S+	c #0A3760",
"T+	c #082A49",
"U+	c #041729",
"V+	c #051825",
"W+	c #2499CF",
"X+	c #1E86C2",
"Y+	c #0B3252",
"Z+	c #0A2C4C",
"`+	c #0A3257",
" @	c #0B3761",
".@	c #0C3E6D",
"+@	c #0C3E6C",
"@@	c #2B5E60",
"#@	c #519B7C",
"$@	c #4D8F70",
"%@	c #4B876A",
"&@	c #264D4A",
"*@	c #0B355F",
"=@	c #092E51",
"-@	c #051D32",
";@	c #020D17",
">@	c #051722",
",@	c #2499CD",
"'@	c #1C7FBA",
")@	c #387972",
"!@	c #4A9279",
"~@	c #3D7C6F",
"{@	c #36726A",
"]@	c #336D69",
"^@	c #2E6667",
"/@	c #285F63",
"(@	c #275B64",
"_@	c #2B6468",
":@	c #326D6D",
"<@	c #35726F",
"[@	c #418576",
"}@	c #53A081",
"|@	c #4B8B70",
"1@	c #488368",
"2@	c #3C6C55",
"3@	c #0B2F4D",
"4@	c #083056",
"5@	c #082848",
"6@	c #05182B",
"7@	c #030D17",
"8@	c #020A11",
"9@	c #04141E",
"0@	c #2396C9",
"a@	c #1A77B0",
"b@	c #42897B",
"c@	c #58AB8A",
"d@	c #5BAE8D",
"e@	c #5CB190",
"f@	c #5EB593",
"g@	c #60B894",
"h@	c #61B996",
"i@	c #61B997",
"j@	c #60B794",
"k@	c #5EB390",
"l@	c #58A787",
"m@	c #519879",
"n@	c #48856A",
"o@	c #41795F",
"p@	c #3E7258",
"q@	c #17363E",
"r@	c #051E36",
"s@	c #041A2F",
"t@	c #030D16",
"u@	c #020A12",
"v@	c #02080E",
"w@	c #041119",
"x@	c #218FC0",
"y@	c #1973AA",
"z@	c #3D8075",
"A@	c #54A081",
"B@	c #549F80",
"C@	c #539D80",
"D@	c #539E7F",
"E@	c #539D7E",
"F@	c #4F9476",
"G@	c #4A8A6D",
"H@	c #447E64",
"I@	c #3F725B",
"J@	c #3A6B52",
"K@	c #38654E",
"L@	c #38634D",
"M@	c #23433C",
"N@	c #082847",
"O@	c #051E33",
"P@	c #05192E",
"Q@	c #030F1C",
"R@	c #01060A",
"S@	c #030F16",
"T@	c #2088B7",
"U@	c #186FA4",
"V@	c #3A796D",
"W@	c #4F9678",
"X@	c #4D9275",
"Y@	c #4A8A6F",
"Z@	c #48856B",
"`@	c #447E65",
" #	c #3F755C",
".#	c #3A6952",
"+#	c #335C47",
"@#	c #30543F",
"##	c #2B4937",
"$#	c #233B2D",
"%#	c #1B322D",
"&#	c #162E30",
"*#	c #08253F",
"=#	c #06243E",
"-#	c #01060B",
";#	c #010508",
">#	c #030E14",
",#	c #2085B2",
"'#	c #186B9E",
")#	c #376E64",
"!#	c #47866B",
"~#	c #437D63",
"{#	c #3E725B",
"]#	c #3A6751",
"^#	c #335B46",
"/#	c #2B4B39",
"(#	c #20372C",
"_#	c #162B2A",
":#	c #0F2530",
"<#	c #0A2438",
"[#	c #082742",
"}#	c #07243F",
"|#	c #06213A",
"1#	c #05182A",
"2#	c #03101B",
"3#	c #020C17",
"4#	c #010509",
"5#	c #010306",
"6#	c #020D11",
"7#	c #1E7FA9",
"8#	c #155F8E",
"9#	c #2C5952",
"0#	c #396B54",
"a#	c #35614C",
"b#	c #284839",
"c#	c #18302D",
"d#	c #0E252D",
"e#	c #092338",
"f#	c #072844",
"g#	c #082B4D",
"h#	c #072A4A",
"i#	c #072540",
"j#	c #051729",
"k#	c #03111F",
"l#	c #020C16",
"m#	c #020B12",
"n#	c #010406",
"o#	c #010204",
"p#	c #020C10",
"q#	c #1D79A2",
"r#	c #104769",
"s#	c #1A3632",
"t#	c #223E30",
"u#	c #B1B7B5",
"v#	c #ACB2B7",
"w#	c #061D34",
"x#	c #051F37",
"y#	c #7A8692",
"z#	c #EEF0F1",
"A#	c #364655",
"B#	c #FFFFFF",
"C#	c #787E84",
"D#	c #EEEFEF",
"E#	c #ABADAF",
"F#	c #01070C",
"G#	c #45484B",
"H#	c #EEEEEE",
"I#	c #78797A",
"J#	c #000103",
"K#	c #020A0E",
"L#	c #1A6D90",
"M#	c #10496B",
"N#	c #172C28",
"O#	c #16261D",
"P#	c #ABB1B6",
"Q#	c #ACB3B9",
"R#	c #051A2F",
"S#	c #04192D",
"T#	c #79828A",
"U#	c #35414B",
"V#	c #353E46",
"W#	c #020C15",
"X#	c #787C81",
"Y#	c #34393E",
"Z#	c #EEEEEF",
"`#	c #454749",
" $	c #AAABAC",
".$	c #777879",
"+$	c #000102",
"@$	c #000101",
"#$	c #01070A",
"$$	c #13526C",
"%$	c #0B3147",
"&$	c #071114",
"*$	c #040C13",
"=$	c #ABAFB4",
"-$	c #ABB0B4",
";$	c #46505A",
">$	c #EEEFF0",
",$	c #CDCFD1",
"'$	c #ABAFB2",
")$	c #353D44",
"!$	c #353B41",
"~$	c #02090F",
"{$	c #34383B",
"]$	c #CCCDCD",
"^$	c #777878",
"/$	c #000001",
"($	c #010608",
"_$	c #124B64",
":$	c #02070A",
"<$	c #000000",
"[$	c #AAAAAA",
"}$	c #777778",
"|$	c #333334",
"1$	c #DDDDDD",
"2$	c #111212",
"3$	c #777777",
"4$	c #041319",
"5$	c #02080B",
"6$	c #CCCCCC",
"7$	c #333333",
"8$	c #BBBBBB",
"9$	c #111111",
"0$	c #888888",
"a$	c #444444",
"b$	c #02090C",
"c$	c #030C10",
"d$	c #020B0F",
"e$	c #05161D",
"f$	c #041118",
"g$	c #000202",
"h$	c #000203",
"i$	c #000204",
"j$	c #010507",
"k$	c #0A2D3C",
"l$	c #0A2C3C",
"m$	c #08222E",
"n$	c #082432",
"o$	c #082533",
"p$	c #092534",
"q$	c #092635",
"r$	c #092735",
"s$	c #092736",
"t$	c #092837",
"u$	c #092938",
"v$	c #0A2A39",
"w$	c #0A2B3A",
"x$	c #0A2C3B",
"y$	c #0B2D3C",
"z$	c #0B2E3D",
"A$	c #0B2F3F",
"B$	c #0B3140",
"C$	c #0C3242",
"D$	c #0C3546",
"E$	c #0D384A",
"F$	c #0E3C50",
"G$	c #0F4156",
"H$	c #11475E",
"I$	c #155570",
"  . + + + + @ @ @ + + + # $ % & * = - ; > , ' ' > > ; ) ! ~ { ] ",
"^ / ( _ : : < < : [ } | 1 2 3 4 5 6 7 8 9 0 a a b c d e f g h i ",
"+ j k l l m m n l o p q r s t u v w x y z A B C D E x w F G H I ",
"+ } k k l l l k J p q r s K L v M N O P Q R S T U V W X Y Z `  .",
"..} o o o o J +.@.#.r s K G $.%.N z &.*.=.-.;.>.,.'.).!.~.{.g  .",
"..].J +.+.+.p ^./.r (.K G _.~.x O &.:.<.[.}.|.1.2.3.4.x w _.5.& ",
"..| p p @.^.#.6.7.8.t G 9.0.a.b.c.d.e.f.g.h.i.j.k.l.m.W w 9.g  .",
"# n.o.q p.q.r r.s.t.L _.0.u.y v.w.x.y.z.A.B.C.D.E.F.m.G.%.{.4  .",
"H.I./.6.r r.8.K J.K.$.0.u.L.m.F.M.N.O.P.Q.R.S.T.U.V.W.x 0.K.X.I ",
"% 2 7.r.s.K Y.G {.Z.%.a.L.m.V.M.N.`. +.+++@+#+$+%+&+b.u.Z.*+=+% ",
"I -+8.K Y.*+Z $.Y ;+x >+m.V.,+'+)+!+~+{+]+^+/+(+w._+W w 9.Y.-+$ ",
"& :+Y.*+Z $.Y w a.W O v.F.,+'+)+<+[+}+|+1+2+3+%+&+A u.4+L 5+2 H.",
"* 6+K._.4+%.u.7+b.m.8+d.M.N.)+<+9+0+a+b+c+d+M.V.e+N ~.{.Y.r.1 ..",
"! f+Z.~.u.7+>+m.&+w.,+g+h+i+<+j+k+l+m+n+o+p+F._+L.;+F q+s.q.| + ",
"- r+s+t+>+m.c.w.,+g+u+)+v+w+x+y+z+A+B+C+x.D+v.y u.Z.L E+r @.[ @ ",
"F+G+N A m.H+d.p+I+`.J+K+L+M+N+O+P+Q+R+x.S+_+y T+4+Z t U+^.k V+W+",
"X+Y+Z+`+V. @x.I+.@J+K+K++@@@#@$@%@&@*@V._+=@u.4+Z -@r.#.J ;@>@,@",
"'@)@!@~@{@]@^@/@(@_@:@<@[@}@|@1@2@3@&+4@G.5@Z.K.t 6@#.J 7@8@9@0@",
"a@b@c@d@e@f@g@h@i@j@k@l@m@n@o@p@q@z G.u.Y 9.r@s@7.#.o t@u@v@w@x@",
"y@z@A@B@C@D@E@#@F@G@H@I@J@K@L@M@T+x N@4+{.O@P@r ^.Q@t@u@v@R@S@T@",
"U@V@W@X@Y@Z@`@ #.#+#@###$#%#&#*#s+0.=#K.Y.s.r ^.o ;@u@v@-#;#>#,#",
"'#)#!#~#{#]#^#/#(#_#:#<#[#u.X ~.}#|#q+K 1#q.@.2#3#u@v@-#4#5#6#7#",
"8#9#0#a#b#c#d#e#f#g#g#h#s+%.i#9.u -@5+j#p.k#l l#m#v@-#;#n#o#p#q#",
"r#s#t#u#v#t w#L L x#q+y#z#E+(.A#B#B#B#B#C#t@D#E#F#G#H#I#o#J#K#L#",
"M#N#O#P#Q#E+R#R#5+S#s z#B#T#@.U#B#V#W#X#B#Y#Z#Z#`# $B#.$+$@$#$$$",
"%$&$*$=$-$k#p p k#+.;$>$,$'$;@)$B#!$~$Y#B#{$Z#H#]$H#H#^$+$/$($_$",
":$<$<$[$[$<$<$<$<$/$}$H#}$H#/$|$B#[$[$1$1$2$H#[$H#[$H#3$<$<$@$4$",
"5$<$<$[$[$<$<$<$<$<$H#6$[$H#3$7$B#8$B#1$9$<$H#3$0$a$H#3$<$<$<$:$",
"b$<$<$[$[$<$<$<$<$a$H#[$[$6$[$7$B#7$3$B#3$<$H#3$<$<$H#3$<$<$<$c$",
"d$<$/$[$B#B#B#B#[$}$H#/$/$}$H#7$B#7$<$3$B#7$H#3$<$<$H#3$<$<$@$e$",
"f$g$h$h$h$h$h$h$i$h$h$h$h$h$h$h$g$g$+$+$+$+$+$+$+$+$g$g$h$h$j$k$",
"l$m$n$o$p$q$r$s$t$u$u$u$v$w$w$w$w$x$x$k$y$y$z$A$B$C$D$E$F$G$H$I$"};
