/* XPM */
static char * slLayout_xpm[] = {
"32 32 283 2",
"  	c #27A0D3",
". 	c #259ED1",
"+ 	c #259DD0",
"@ 	c #25A0D4",
"# 	c #061B24",
"$ 	c #030E12",
"% 	c #050D11",
"& 	c #080E10",
"* 	c #030B0F",
"= 	c #000000",
"- 	c #040101",
"; 	c #43170D",
"> 	c #662315",
", 	c #0E0503",
"' 	c #39130B",
") 	c #9A341E",
"! 	c #A83821",
"~ 	c #822B19",
"{ 	c #090302",
"] 	c #010000",
"^ 	c #4F2F23",
"/ 	c #7A4A36",
"( 	c #633424",
"_ 	c #793E2B",
": 	c #120705",
"< 	c #030201",
"[ 	c #6E5F50",
"} 	c #A68772",
"| 	c #947D68",
"1 	c #867A6A",
"2 	c #130E0B",
"3 	c #020201",
"4 	c #776956",
"5 	c #EC815A",
"6 	c #E18C68",
"7 	c #B3A58A",
"8 	c #12100C",
"9 	c #0C0300",
"0 	c #87260E",
"a 	c #E45026",
"b 	c #E65127",
"c 	c #8D3F26",
"d 	c #020100",
"e 	c #040100",
"f 	c #2F0A02",
"g 	c #8A1E05",
"h 	c #A32406",
"i 	c #C33411",
"j 	c #CE411B",
"k 	c #A72608",
"l 	c #791B05",
"m 	c #230801",
"n 	c #020000",
"o 	c #150501",
"p 	c #471003",
"q 	c #300B02",
"r 	c #1A0E08",
"s 	c #C4431F",
"t 	c #C16542",
"u 	c #1B150F",
"v 	c #3C0E04",
"w 	c #410E03",
"x 	c #0B0200",
"y 	c #040404",
"z 	c #0D0D0C",
"A 	c #130F0C",
"B 	c #0F130E",
"C 	c #0F1D17",
"D 	c #193127",
"E 	c #26483B",
"F 	c #376653",
"G 	c #509577",
"H 	c #CC653B",
"I 	c #B2835B",
"J 	c #56A082",
"K 	c #3E775F",
"L 	c #2A4F40",
"M 	c #1B3429",
"N 	c #12221B",
"O 	c #0B1410",
"P 	c #080D0B",
"Q 	c #050505",
"R 	c #050504",
"S 	c #3F3A34",
"T 	c #625E56",
"U 	c #602C1A",
"V 	c #27271B",
"W 	c #1D372B",
"X 	c #1C3429",
"Y 	c #1B3226",
"Z 	c #1C3326",
"` 	c #4B7F64",
" .	c #C86036",
"..	c #A47A52",
"+.	c #58A383",
"@.	c #284838",
"#.	c #1A2F24",
"$.	c #1C3228",
"%.	c #1E372C",
"&.	c #3F3020",
"*.	c #2D2318",
"=.	c #504E46",
"-.	c #544E46",
";.	c #0E0D0A",
">.	c #010100",
",.	c #010101",
"'.	c #0C0B09",
").	c #3E1208",
"!.	c #7C1B05",
"~.	c #050100",
"{.	c #172018",
"].	c #B2522C",
"^.	c #8E613D",
"/.	c #264334",
"(.	c #000100",
"_.	c #320B02",
":.	c #681705",
"<.	c #100F0C",
"[.	c #050403",
"}.	c #9E2306",
"|.	c #5D1404",
"1.	c #070E0A",
"2.	c #4B7A5D",
"3.	c #50876A",
"4.	c #16271F",
"5.	c #9B2206",
"6.	c #4D1103",
"7.	c #250801",
"8.	c #952106",
"9.	c #B42807",
"0.	c #881E05",
"a.	c #6C1804",
"b.	c #6E1804",
"c.	c #701904",
"d.	c #330B02",
"e.	c #09100D",
"f.	c #4B8B6E",
"g.	c #539978",
"h.	c #172B22",
"i.	c #420E03",
"j.	c #4F1103",
"k.	c #4C1103",
"l.	c #4B1003",
"m.	c #2396C7",
"n.	c #3A0D02",
"o.	c #AC2507",
"p.	c #B12707",
"q.	c #A52407",
"r.	c #A22306",
"s.	c #A72407",
"t.	c #1A2E25",
"u.	c #59A782",
"v.	c #59A883",
"w.	c #2F5945",
"x.	c #070201",
"y.	c #992206",
"z.	c #A42406",
"A.	c #350C02",
"B.	c #228DBA",
"C.	c #030D10",
"D.	c #A72507",
"E.	c #591304",
"F.	c #060100",
"G.	c #080200",
"H.	c #030100",
"I.	c #223739",
"J.	c #3F6A66",
"K.	c #3E6C64",
"L.	c #325253",
"M.	c #040506",
"N.	c #160501",
"O.	c #1B0601",
"P.	c #1A0601",
"Q.	c #190601",
"R.	c #912006",
"S.	c #9F2306",
"T.	c #249ACB",
"U.	c #1D7CA5",
"V.	c #030B0E",
"W.	c #461003",
"X.	c #701905",
"Y.	c #020304",
"Z.	c #1E2432",
"`.	c #5E2F31",
" +	c #4A2D34",
".+	c #212C40",
"++	c #05070A",
"@+	c #0C0301",
"#+	c #932006",
"$+	c #2291C0",
"%+	c #186383",
"&+	c #02090B",
"*+	c #120401",
"=+	c #1E232F",
"-+	c #A12E17",
";+	c #762B1F",
">+	c #1E2A3A",
",+	c #1E7EA7",
"'+	c #11475F",
")+	c #010608",
"!+	c #0F0301",
"~+	c #020203",
"{+	c #1C1E2A",
"]+	c #942A16",
"^+	c #6A261B",
"/+	c #1C2735",
"(+	c #030507",
"_+	c #1C0601",
":+	c #0D0301",
"<+	c #02080A",
"[+	c #186586",
"}+	c #0B2C3A",
"|+	c #010304",
"1+	c #110401",
"2+	c #121821",
"3+	c #8A2815",
"4+	c #612319",
"5+	c #18212C",
"6+	c #050404",
"7+	c #010507",
"8+	c #10475D",
"9+	c #06171E",
"0+	c #000202",
"a+	c #0E0301",
"b+	c #430F02",
"c+	c #5D1504",
"d+	c #4E1A12",
"e+	c #892612",
"f+	c #712213",
"g+	c #552019",
"h+	c #601605",
"i+	c #380C02",
"j+	c #070200",
"k+	c #010203",
"l+	c #092734",
"m+	c #390D02",
"n+	c #862009",
"o+	c #8D250F",
"p+	c #8D230D",
"q+	c #7C210E",
"r+	c #290902",
"s+	c #000101",
"t+	c #051218",
"u+	c #AAACAC",
"v+	c #AAAAAA",
"w+	c #777777",
"x+	c #EEEEEE",
"y+	c #111111",
"z+	c #E1DEDE",
"A+	c #FFFFFF",
"B+	c #EAE0DF",
"C+	c #261E1F",
"D+	c #02080B",
"E+	c #DEDEDE",
"F+	c #514343",
"G+	c #E1DFE0",
"H+	c #ACADAE",
"I+	c #010506",
"J+	c #AAABAB",
"K+	c #333333",
"L+	c #353536",
"M+	c #090D12",
"N+	c #3A3C40",
"O+	c #010406",
"P+	c #000001",
"Q+	c #333334",
"R+	c #DDDDDD",
"S+	c #444444",
"T+	c #000203",
"U+	c #030D11",
"V+	c #02090C",
"W+	c #020A0D",
"X+	c #020A0E",
"Y+	c #030C10",
"Z+	c #030C11",
"`+	c #030E13",
" @	c #030F14",
".@	c #041015",
"+@	c #041218",
"@@	c #05141A",
"#@	c #05171F",
"$@	c #08202A",
"%@	c #0B2D3B",
"  . + + + + + + + + + + + + + + + + + + + + + + + + + + + + .   ",
"@ # $ $ $ $ $ $ $ $ $ $ $ $ $ % & $ $ $ $ $ $ $ $ $ $ $ $ $ # @ ",
"+ * = = = = = = = = = = = = - ; > , = = = = = = = = = = = = * + ",
"+ $ = = = = = = = = = = = = ' ) ! ~ { = = = = = = = = = = = $ + ",
"+ $ = = = = = = = = = = = ] ^ / ( _ : = = = = = = = = = = = $ + ",
"+ $ = = = = = = = = = = = < [ } | 1 2 = = = = = = = = = = = $ + ",
"+ $ = = = = = = = = = = = 3 4 5 6 7 8 = = = = = = = = = = = $ + ",
"+ $ = = = = = = = = = = = 9 0 a b c d = = = = = = = = = = = $ + ",
"+ $ = = = = = = = = = e f g h i j k l m n = = = = = = = = = $ + ",
"+ $ = = = = = = = = = o p q r s t u v w x = = = = = = = = = $ + ",
"+ $ = = = = y z A B C D E F G H I J K L M N O P z Q = = = = $ + ",
"+ $ = = = R S T U V W X Y Z `  ...+.@.#.$.%.&.*.=.-.;.>.= = $ + ",
"+ $ = = = ,.'.).!.~.= = = = {.].^./.(.= = = _.:.R <.[.= = = $ + ",
"+ $ = = = = o }.|.= = = = = 1.2.3.4.= = = = = 5.6.= = = = = $ + ",
"+ $ = = = 7.8.9.0.a.b.c.d.= e.f.g.h.n i.j.6.k.5.9.l.x = = = $ + ",
"m.$ = = = n.o.p.q.r.r.s.k.= t.u.v.w.x.y.9.9.9.p.9.z.A.= = = $ + ",
"B.C.= = = = q D.E.F.F.G.H.,.I.J.K.L.M.N.O.P.Q.R.S.7.] = = = $ T.",
"U.V.= = = = = W.X.= = = = Y.Z.`. +.+++= = = @+#+f = = = = = C.$+",
"%+&+= = = = = H.l.*+= = = Y.=+-+;+>+++= = = q 6.= = = = = = V.,+",
"'+)+= = = = = = !+G.= = = ~+{+]+^+/+(+= = = _+:+= = = = = = <+[+",
"}+|+= = = = = = = = = G.1+,.2+3+4+5+6+*+e = = = = = = = = = 7+8+",
"9+0+= = = = = = = = = a+b+c+d+e+f+g+h+i+j+= = = = = = = = = k+l+",
"V.= = = = = = = = = = = H.m+n+o+p+q+r+] = = = = = = = = = = s+t+",
"u+v+= = = = w+x+= = w+x+= y+z+A+B+C+= x+w+= = x+w+w+A+A+A+x+= D+",
"u+v+= = = = = x+w+= x+w+= v+E+F+G+H+= x+w+= = x+w+= = x+w+= = I+",
"J+v+= = = = = w+x+w+x+= K+A+L+M+N+A+K+x+w+= = x+w+= = x+w+= = O+",
"v+v+= = = = = = x+A+w+= K+A+K+P+Q+A+K+x+w+= = x+w+= = x+w+= = s+",
"v+v+= = = = = = w+x+= = K+A+K+= K+A+K+x+w+= = x+w+= = x+w+= = P+",
"v+v+= = = = = = w+x+= = = v+R+K+R+v+= v+v+= S+x+S+= = x+w+= = s+",
"v+A+A+A+A+v+= = w+x+= = = y+R+A+R+y+= S+x+A+A+v+= = = x+w+= = |+",
"T+= = = = = = = = = = = = = = = = = = = = = = = = = = = = = s+U+",
"U+D+V+W+W+X+V.V.* * * * Y+Z+Z+Z+Z+U+U+U+U+U+$ `+ @.@+@@@#@# $@%@"};
