/* XPM */
static char * slLFoot_xpm[] = {
"32 32 632 2",
"  	c #24A0D5",
". 	c #249FD5",
"+ 	c #239FD5",
"@ 	c #23A0D7",
"# 	c #23A0D9",
"$ 	c #23A1DA",
"% 	c #23A2DC",
"& 	c #23A3DE",
"* 	c #23A4DF",
"= 	c #23A4E0",
"- 	c #29A6DD",
"; 	c #28A1D5",
"> 	c #269FD4",
", 	c #26A0D4",
"' 	c #27A0D5",
") 	c #28A1D6",
"! 	c #28A2D7",
"~ 	c #2AA4D9",
"{ 	c #2EA8DD",
"] 	c #27A6E0",
"^ 	c #23A2DD",
"/ 	c #23A2DB",
"( 	c #23A1D9",
"_ 	c #249ED4",
": 	c #249ED3",
"< 	c #249DD2",
"[ 	c #239DD1",
"} 	c #249DD1",
"| 	c #249FD2",
"1 	c #24A1D7",
"2 	c #062D4A",
"3 	c #032748",
"4 	c #032D54",
"5 	c #033362",
"6 	c #043970",
"7 	c #04417D",
"8 	c #04468A",
"9 	c #044C96",
"0 	c #0450A0",
"a 	c #2D5378",
"b 	c #223645",
"c 	c #1A2C3C",
"d 	c #1B2E3F",
"e 	c #203445",
"f 	c #253B4E",
"g 	c #2C4158",
"h 	c #3A5269",
"i 	c #526E88",
"j 	c #115499",
"k 	c #04478B",
"l 	c #04386D",
"m 	c #03315D",
"n 	c #032A4D",
"o 	c #032441",
"p 	c #031E35",
"q 	c #03192A",
"r 	c #031522",
"s 	c #03121D",
"t 	c #061D28",
"u 	c #24A0D4",
"v 	c #239FD4",
"w 	c #03233F",
"x 	c #001F42",
"y 	c #002650",
"z 	c #002D5F",
"A 	c #01346E",
"B 	c #013B7D",
"C 	c #01428B",
"D 	c #014797",
"E 	c #054D9F",
"F 	c #283D56",
"G 	c #1E2734",
"H 	c #19222F",
"I 	c #1B2431",
"J 	c #202A39",
"K 	c #253142",
"L 	c #2D3A4C",
"M 	c #425065",
"N 	c #506886",
"O 	c #034794",
"P 	c #013F86",
"Q 	c #013876",
"R 	c #012F65",
"S 	c #002752",
"T 	c #001833",
"U 	c #001226",
"V 	c #000D1B",
"W 	c #000811",
"X 	c #00050B",
"Y 	c #030D13",
"Z 	c #239DD0",
"` 	c #03284A",
" .	c #00234A",
"..	c #002A59",
"+.	c #013168",
"@.	c #013877",
"#.	c #014593",
"$.	c #014B9E",
"%.	c #16457B",
"&.	c #23303E",
"*.	c #1A2432",
"=.	c #192330",
"-.	c #1C2533",
";.	c #202B3A",
">.	c #273343",
",.	c #2C3A4D",
"'.	c #47556A",
").	c #46678D",
"!.	c #014695",
"~.	c #014087",
"{.	c #013878",
"].	c #013066",
"^.	c #002854",
"/.	c #002043",
"(.	c #001934",
"_.	c #001327",
":.	c #000D1C",
"<.	c #000912",
"[.	c #031118",
"}.	c #239FD6",
"|.	c #032B50",
"1.	c #012E62",
"2.	c #013571",
"3.	c #013C7F",
"4.	c #01438E",
"5.	c #01489A",
"6.	c #14447B",
"7.	c #223244",
"8.	c #1E2837",
"9.	c #1C2434",
"0.	c #1B2432",
"a.	c #1D2735",
"b.	c #222C3C",
"c.	c #273445",
"d.	c #2E3D51",
"e.	c #4D5C6E",
"f.	c #396393",
"g.	c #014189",
"h.	c #013979",
"i.	c #002856",
"j.	c #002045",
"k.	c #001936",
"l.	c #001329",
"m.	c #000E1E",
"n.	c #000914",
"o.	c #00060C",
"p.	c #031119",
"q.	c #032E57",
"r.	c #002A5A",
"s.	c #013269",
"t.	c #013978",
"u.	c #014694",
"v.	c #154276",
"w.	c #233243",
"x.	c #1D2939",
"y.	c #1C2735",
"z.	c #1D2535",
"A.	c #1C2634",
"B.	c #1E2937",
"C.	c #212C3D",
"D.	c #283546",
"E.	c #323F53",
"F.	c #536174",
"G.	c #2C5F99",
"H.	c #01418A",
"I.	c #013A7B",
"J.	c #002958",
"K.	c #002247",
"L.	c #001B39",
"M.	c #00142B",
"N.	c #000F20",
"O.	c #000A16",
"P.	c #00070E",
"Q.	c #03121A",
"R.	c #03315C",
"S.	c #002D60",
"T.	c #013570",
"U.	c #01428D",
"V.	c #1A416D",
"W.	c #272E37",
"X.	c #1D2937",
"Y.	c #1B2738",
"Z.	c #1C2737",
"`.	c #1D2836",
" +	c #1F2B39",
".+	c #222E3E",
"++	c #293647",
"@+	c #344356",
"#+	c #59667A",
"$+	c #215B9D",
"%+	c #014899",
"&+	c #01428C",
"*+	c #01336C",
"=+	c #002B5B",
"-+	c #00234B",
";+	c #001D3D",
">+	c #00162F",
",+	c #001124",
"'+	c #000C1A",
")+	c #23A0D8",
"!+	c #033361",
"~+	c #013065",
"{+	c #013775",
"]+	c #013E84",
"^+	c #16467B",
"/+	c #292A1D",
"(+	c #211F0E",
"_+	c #1E1E16",
":+	c #1D2122",
"<+	c #1D252D",
"[+	c #1D2835",
"}+	c #1E2A3B",
"|+	c #202C3D",
"1+	c #233040",
"2+	c #283548",
"3+	c #37455B",
"4+	c #54667C",
"5+	c #1457A2",
"6+	c #01499A",
"7+	c #013C80",
"8+	c #031420",
"9+	c #033464",
"0+	c #094385",
"a+	c #2D393E",
"b+	c #231F0F",
"c+	c #1F1B0B",
"d+	c #1F1B0A",
"e+	c #1F1C0D",
"f+	c #201F16",
"g+	c #212422",
"h+	c #222930",
"i+	c #232E3C",
"j+	c #283649",
"k+	c #374760",
"l+	c #465E7D",
"m+	c #0852A5",
"n+	c #014A9D",
"o+	c #014592",
"p+	c #002956",
"q+	c #002248",
"r+	c #001C3B",
"s+	c #031625",
"t+	c #033564",
"u+	c #29507A",
"v+	c #3B382A",
"w+	c #201C0D",
"x+	c #1E1A0B",
"y+	c #1E1B0A",
"z+	c #1E1B0B",
"A+	c #201B0B",
"B+	c #221D0A",
"C+	c #231E0B",
"D+	c #25200D",
"E+	c #272415",
"F+	c #2B2C23",
"G+	c #363D41",
"H+	c #3E5163",
"I+	c #0A52A5",
"J+	c #014CA0",
"K+	c #014796",
"L+	c #01336D",
"M+	c #001A37",
"N+	c #00152C",
"O+	c #001022",
"P+	c #249ED2",
"Q+	c #4E6884",
"R+	c #5C594D",
"S+	c #353225",
"T+	c #242012",
"U+	c #201C0B",
"V+	c #221D0C",
"W+	c #231F0D",
"X+	c #26200D",
"Y+	c #29230C",
"Z+	c #2C250D",
"`+	c #332C11",
" @	c #423C21",
".@	c #1B4F89",
"+@	c #014EA5",
"@@	c #01499B",
"#@	c #014490",
"$@	c #013E83",
"%@	c #00244D",
"&@	c #001F41",
"*@	c #001935",
"=@	c #00142A",
"-@	c #031C31",
";@	c #013774",
">@	c #25548A",
",@	c #727F8B",
"'@	c #6E6B62",
")@	c #49463A",
"!@	c #312C1E",
"~@	c #221E0F",
"{@	c #211D0C",
"]@	c #211D0B",
"^@	c #231E0D",
"/@	c #251F0D",
"(@	c #28220E",
"_@	c #2B250F",
":@	c #2F2910",
"<@	c #393215",
"[@	c #364346",
"}@	c #0651A5",
"|@	c #014CA1",
"1@	c #013672",
"2@	c #00244C",
"3@	c #001E40",
"4@	c #031F38",
"5@	c #0D488B",
"6@	c #507298",
"7@	c #797F81",
"8@	c #636057",
"9@	c #423F32",
"0@	c #2C2919",
"a@	c #24200F",
"b@	c #231D0B",
"c@	c #241F0D",
"d@	c #27210D",
"e@	c #28230E",
"f@	c #2C2610",
"g@	c #312C12",
"h@	c #3F381B",
"i@	c #22476C",
"j@	c #014FA7",
"k@	c #012F64",
"l@	c #002957",
"m@	c #032340",
"n@	c #249FD4",
"o@	c #032E56",
"p@	c #013673",
"q@	c #01418B",
"r@	c #1E5798",
"s@	c #607B99",
"t@	c #7B7B77",
"u@	c #5E5B4F",
"v@	c #3E392C",
"w@	c #2B2716",
"x@	c #25200E",
"y@	c #231F0C",
"z@	c #29240F",
"A@	c #2E2810",
"B@	c #352F14",
"C@	c #3C3921",
"D@	c #15477D",
"E@	c #014DA4",
"F@	c #014A9C",
"G@	c #01346F",
"H@	c #002855",
"I@	c #032A4F",
"J@	c #00254F",
"K@	c #2C619D",
"L@	c #6A7E95",
"M@	c #79776E",
"N@	c #575347",
"O@	c #3B3829",
"P@	c #292515",
"Q@	c #24200E",
"R@	c #25210E",
"S@	c #2B260F",
"T@	c #302A12",
"U@	c #363014",
"V@	c #35321F",
"W@	c #193C5D",
"X@	c #0B478B",
"Y@	c #034897",
"Z@	c #01438F",
"`@	c #01336B",
" #	c #002C5E",
".#	c #229CD1",
"+#	c #032646",
"@#	c #001F44",
"##	c #002B5A",
"$#	c #013A7C",
"%#	c #013F85",
"&#	c #044896",
"*#	c #38679D",
"=#	c #717F8E",
"-#	c #737067",
";#	c #4F4C41",
">#	c #353023",
",#	c #292414",
"'#	c #28230F",
")#	c #2B2710",
"!#	c #2E2911",
"~#	c #2F2A13",
"{#	c #312C13",
"]#	c #2C2E1D",
"^#	c #243337",
"/#	c #183B5C",
"(#	c #0A417F",
"_#	c #032D55",
":#	c #2299CC",
"<#	c #03213D",
"[#	c #001A38",
"}#	c #001F43",
"|#	c #012E61",
"1#	c #01326B",
"2#	c #013B7E",
"3#	c #013F87",
"4#	c #01438C",
"5#	c #0B4B94",
"6#	c #426C99",
"7#	c #717C85",
"8#	c #69665D",
"9#	c #4A4739",
"0#	c #353121",
"a#	c #2D2915",
"b#	c #2B2611",
"c#	c #2B2510",
"d#	c #2C2812",
"e#	c #302B13",
"f#	c #353015",
"g#	c #34372B",
"h#	c #15406F",
"i#	c #013167",
"j#	c #2092C2",
"k#	c #031C32",
"l#	c #00142C",
"m#	c #001C3D",
"n#	c #002146",
"o#	c #012A59",
"p#	c #012E63",
"q#	c #013773",
"r#	c #01397A",
"s#	c #013D81",
"t#	c #124C8E",
"u#	c #4D6D92",
"v#	c #747779",
"w#	c #656258",
"x#	c #4F4C3E",
"y#	c #43402F",
"z#	c #3F3B28",
"A#	c #3D3926",
"B#	c #3C3824",
"C#	c #403B25",
"D#	c #433E26",
"E#	c #4B452B",
"F#	c #4F5249",
"G#	c #103E73",
"H#	c #1E8AB7",
"I#	c #031728",
"J#	c #000F21",
"K#	c #001227",
"L#	c #00152E",
"M#	c #001A36",
"N#	c #001D3E",
"O#	c #012956",
"P#	c #012C5E",
"Q#	c #1B4C85",
"R#	c #516A86",
"S#	c #6E757A",
"T#	c #73726B",
"U#	c #6E6B61",
"V#	c #6C695D",
"W#	c #6B685A",
"X#	c #6D685A",
"Y#	c #6F6A5B",
"Z#	c #736D5D",
"`#	c #807B6A",
" $	c #3E5876",
".$	c #012D60",
"+$	c #002853",
"@$	c #032C52",
"#$	c #2094C7",
"$$	c #1E85B2",
"%$	c #031421",
"&$	c #000C18",
"*$	c #001123",
"=$	c #001730",
"-$	c #002147",
";$	c #00254E",
">$	c #012854",
",$	c #012B5C",
"'$	c #013776",
")$	c #11437D",
"!$	c #245082",
"~$	c #345983",
"{$	c #3E5F84",
"]$	c #446283",
"^$	c #476381",
"/$	c #47617F",
"($	c #45607D",
"_$	c #405B79",
":$	c #1F426B",
"<$	c #012957",
"[$	c #03284C",
"}$	c #1F8DBD",
"|$	c #1D80AA",
"1$	c #02111B",
"2$	c #000A15",
"3$	c #000E1F",
"4$	c #002044",
"5$	c #01264F",
"6$	c #012856",
"7$	c #012B5B",
"8$	c #01326A",
"9$	c #013671",
"0$	c #013674",
"a$	c #01346D",
"b$	c #012958",
"c$	c #022546",
"d$	c #1E88B7",
"e$	c #1C7CA5",
"f$	c #020E16",
"g$	c #00070F",
"h$	c #000812",
"i$	c #000B16",
"j$	c #000C1B",
"k$	c #001125",
"l$	c #001D3C",
"m$	c #01244C",
"n$	c #012751",
"o$	c #012855",
"p$	c #012A58",
"q$	c #012D5F",
"r$	c #012C5F",
"s$	c #012752",
"t$	c #01244B",
"u$	c #02213C",
"v$	c #1C81AE",
"w$	c #196E92",
"x$	c #020C11",
"y$	c #000307",
"z$	c #000409",
"A$	c #000F1F",
"B$	c #01234A",
"C$	c #01244D",
"D$	c #012651",
"E$	c #012650",
"F$	c #01254E",
"G$	c #002145",
"H$	c #001733",
"I$	c #021D35",
"J$	c #1B7BA5",
"K$	c #B0C5CE",
"L$	c #AAADAE",
"M$	c #000103",
"N$	c #000204",
"O$	c #000205",
"P$	c #77797C",
"Q$	c #FFFFFF",
"R$	c #EEEFF0",
"S$	c #111F2E",
"T$	c #DDDFE2",
"U$	c #DDE0E3",
"V$	c #11253B",
"W$	c #001832",
"X$	c #AAB2BC",
"Y$	c #EEF0F2",
"Z$	c #44586E",
"`$	c #778493",
" %	c #021729",
".%	c #186E93",
"+%	c #B0C6CF",
"@%	c #AAACAD",
"#%	c #000001",
"$%	c #000102",
"%%	c #77787A",
"&%	c #EEEEEE",
"*%	c #00060D",
"=%	c #AAADB1",
"-%	c #DDDEE0",
";%	c #333C46",
">%	c #DDDFE1",
",%	c #AAAFB4",
"'%	c #777F88",
")%	c #44505D",
"!%	c #AAB0B6",
"~%	c #777D84",
"{%	c #010E1A",
"]%	c #12526E",
"^%	c #AEBCC2",
"/%	c #AAABAC",
"(%	c #000101",
"_%	c #777879",
":%	c #000306",
"<%	c #000408",
"[%	c #33373B",
"}%	c #33383E",
"|%	c #000710",
"1%	c #333941",
"2%	c #333B43",
"3%	c #EEEFEF",
"4%	c #777D83",
"5%	c #000B18",
"6%	c #777B81",
"7%	c #010C14",
"8%	c #114B64",
"9%	c #ABADAE",
"0%	c #AAAAAA",
"a%	c #000000",
"b%	c #777777",
"c%	c #333333",
"d%	c #333334",
"e%	c #777878",
"f%	c #041319",
"g%	c #02070A",
"h%	c #DDDDDD",
"i%	c #444444",
"j%	c #030C10",
"k%	c #ABAEAF",
"l%	c #111111",
"m%	c #05161D",
"n%	c #041218",
"o%	c #000202",
"p%	c #000203",
"q%	c #000304",
"r%	c #010507",
"s%	c #0A2D3C",
"t%	c #08232E",
"u%	c #092632",
"v%	c #092733",
"w%	c #092734",
"x%	c #092835",
"y%	c #092836",
"z%	c #092936",
"A%	c #092A37",
"B%	c #092A38",
"C%	c #0A2B39",
"D%	c #0A2C3A",
"E%	c #0A2D3B",
"F%	c #0A2E3D",
"G%	c #0B2F3F",
"H%	c #0B3040",
"I%	c #0B3242",
"J%	c #0C3546",
"K%	c #0C384A",
"L%	c #0D3C50",
"M%	c #0F4156",
"N%	c #10475E",
"O%	c #13536F",
"  . + @ # $ % & * = - ; > , ' ) ! ~ { ] & ^ / ( @ + _ : < [ } | ",
"1 2 3 4 5 6 7 8 9 0 a b c d e f g h i j k 7 l m n o p q r s t u ",
"v w x y z A B C D E F G H I J K L M N O P Q R S x T U V W X Y Z ",
"+ `  ...+.@.P #.$.%.&.*.=.-.;.>.,.'.).!.~.{.].^./.(._.:.<.X [.Z ",
"}.|.S 1.2.3.4.5.6.7.8.9.0.a.b.c.d.e.f.D g.h.+.i.j.k.l.m.n.o.p.Z ",
"@ q.r.s.t.~.u.v.w.x.y.z.A.B.C.D.E.F.G.D H.I.s.J.K.L.M.N.O.P.Q.Z ",
"@ R.S.T.3.U.V.W.X.Y.Z.a.`. +.+++@+#+$+%+&+B *+=+-+;+>+,+'+W s } ",
")+!+~+{+]+^+/+(+_+:+<+[+}+|+1+2+3+4+5+6+4.7+T.z y x (.l.m.O.8+} ",
")+9++.t.0+a+b+c+d+d+e+f+g+h+i+j+k+l+m+n+o+]+{+~+p+q+r+>+,+V s+} ",
")+t+s.h.u+v+w+x+y+z+A+B+C+D+E+F+G+H+I+J+K+H.I.L+z y /.M+N+O+q P+",
")+9++.{.Q+R+S+T+c+d+U+V+W+X+Y+Z+`+ @.@+@@@#@$@{++.r.%@&@*@=@-@: ",
")+5 ~+;@>@,@'@)@!@~@{@]@^@/@(@_@:@<@[@}@|@D C 3.1@~+..2@3@T 4@: ",
"@ R.z A I.5@6@7@8@9@0@a@b@c@d@e@f@g@h@i@j@$.u.g.B 2.k@l@ .;+m@n@",
"@ o@J.].p@3.q@r@s@t@u@v@w@x@y@X+z@A@B@C@D@E@F@o+~.I.G@1.H@K.3 . ",
"}.I@J@=++.{+3.g.#.K@L@M@N@O@P@Q@R@S@T@U@V@W@X@Y@Z@]+t.`@ #J@I@}.",
".#+#@#J@##].2.$#%#4.&#*#=#-#;#>#,#'#)#!#~#{#]#^#/#(#3.1@R p+_#}.",
":#<#[#}#2@J.|#1#{+2#3#4#5#6#7#8#9#0#a#b#c#)#d#e#f#g#h#{+i#r.q.+ ",
"j#k#l#(.m#n#y o#p#`@q#r#s#~.t#u#v#w#x#y#z#A#B#C#D#E#F#G#]...q..#",
"H#I#J#K#L#M#N#K.J@O#P#~+*+1@{.2#Q#R#S#T#U#V#W#X#Y#Z#`# $.$+$@$#$",
"$$%$&$m.*$=@=$[#3@-$;$>$,$1.s.A p@'$)$!$~${$]$^$/$($_$:$<$2@[$}$",
"|$1$W 2$'+3$,+=@=$M+;+4$ .5$6$7$.$~+8$A 9$0$p@T.a$i#.$b$J@n#c$d$",
"e$f$X g$h$i$j$N.k$=@=$k.l$x K.m$n$o$p$,$P#q$q$r$,$b$s$t$4$r+u$v$",
"w$x$y$z$X P.<.O.'+A$,+l.>+(.L.;+/.-$B$C$5$D$D$E$F$B$G$3@L.H$I$J$",
"K$L$M$N$O$y$P$Q$Q$Q$Q$R$V S$T$Q$U$V$=$W$X$Q$Y$Z$[#`$Q$Q$Q$R$ %.%",
"+%@%#%$%M$N$%%&%z$X *%g$W =%-%;%>%,%m.'%R$)%!%R$O+N.m.R$~%O.{%]%",
"^%/%#%#%(%$%_%&%N$:%y$<%[%Q$}%|%1%Q$2%3%4%5%5%R$~%O.2$3%6%g$7%8%",
"9%0%a%a%a%a%b%Q$Q$Q$&%a%c%Q$c%a%c%Q$d%&%e%$%$%&%_%$%$%&%e%$%$%f%",
"9%0%a%a%a%a%b%&%a%a%a%a%c%Q$c%a%c%Q$c%&%b%a%a%&%b%a%a%&%b%a%a%g%",
"9%0%a%a%a%a%b%&%a%a%a%a%a%0%h%c%h%0%a%b%&%i%0%&%a%a%a%&%b%a%a%j%",
"k%Q$Q$Q$Q$0%b%&%a%a%a%a%a%l%h%Q$h%l%a%a%0%Q$&%i%a%a%a%&%b%a%(%m%",
"n%(%(%(%(%(%(%(%(%(%(%(%(%(%(%$%$%$%$%$%$%$%$%$%$%o%p%p%p%q%r%s%",
"s%t%u%v%w%x%y%z%A%B%B%B%C%D%D%D%D%E%E%s%s%s%F%G%H%I%J%K%L%M%N%O%"};
