/* XPM */
static char * slLLeg_xpm[] = {
"32 32 604 2",
"  	c #24A4DF",
". 	c #2DA8DE",
"+ 	c #29A4DA",
"@ 	c #29A4DB",
"# 	c #27A4DB",
"$ 	c #26A4DD",
"% 	c #23A4DF",
"& 	c #23A3DE",
"* 	c #23A3DD",
"= 	c #23A2DC",
"- 	c #23A1DA",
"; 	c #23A1D9",
"> 	c #23A0D7",
", 	c #239FD6",
"' 	c #239FD5",
") 	c #239ED3",
"! 	c #239ED2",
"~ 	c #239DD2",
"{ 	c #239DD1",
"] 	c #239DD0",
"^ 	c #249DD1",
"/ 	c #249ED2",
"( 	c #24A5E1",
"_ 	c #4F718B",
": 	c #324B64",
"< 	c #314A63",
"[ 	c #304A63",
"} 	c #304B64",
"| 	c #304B65",
"1 	c #304B66",
"2 	c #314C67",
"3 	c #314C68",
"4 	c #304C68",
"5 	c #2F4C68",
"6 	c #304E6C",
"7 	c #314E6E",
"8 	c #2A4C6D",
"9 	c #1B4B79",
"0 	c #0A4B8E",
"a 	c #044587",
"b 	c #04407C",
"c 	c #043A70",
"d 	c #033564",
"e 	c #032E57",
"f 	c #03294B",
"g 	c #03223F",
"h 	c #031E34",
"i 	c #03192A",
"j 	c #031623",
"k 	c #03131D",
"l 	c #031119",
"m 	c #031016",
"n 	c #061C26",
"o 	c #24A0D4",
"p 	c #50677B",
"q 	c #313E50",
"r 	c #303D4F",
"s 	c #313D51",
"t 	c #303F54",
"u 	c #314055",
"v 	c #324157",
"w 	c #324259",
"x 	c #32435B",
"y 	c #32435C",
"z 	c #32445D",
"A 	c #33455D",
"B 	c #32455F",
"C 	c #344763",
"D 	c #374C68",
"E 	c #2E4B6D",
"F 	c #084488",
"G 	c #013B7E",
"H 	c #013571",
"I 	c #012E62",
"J 	c #002753",
"K 	c #002044",
"L 	c #001A36",
"M 	c #00142A",
"N 	c #000F1F",
"O 	c #000A16",
"P 	c #00070F",
"Q 	c #000409",
"R 	c #000205",
"S 	c #030C11",
"T 	c #4D6374",
"U 	c #2D3645",
"V 	c #2C3747",
"W 	c #2D3849",
"X 	c #2E3A4D",
"Y 	c #2F3C4F",
"Z 	c #303E51",
"` 	c #303F53",
" .	c #324257",
"..	c #31425A",
"+.	c #33455C",
"@.	c #354761",
"#.	c #40526D",
"$.	c #244E7E",
"%.	c #014087",
"&.	c #013A7B",
"*.	c #01336C",
"=.	c #002C5C",
"-.	c #00244D",
";.	c #001D3E",
">.	c #001730",
",.	c #001125",
"'.	c #000D1B",
").	c #000913",
"!.	c #00060D",
"~.	c #000408",
"{.	c #031017",
"].	c #4E6071",
"^.	c #2E3642",
"/.	c #2B3442",
"(.	c #2A3443",
"_.	c #2B3746",
":.	c #2C3848",
"<.	c #2E3B4C",
"[.	c #303C4E",
"}.	c #314053",
"|.	c #304055",
"1.	c #314157",
"2.	c #32445C",
"3.	c #3A4B65",
"4.	c #385274",
"5.	c #034590",
"6.	c #013E83",
"7.	c #013775",
"8.	c #013065",
"9.	c #002856",
"0.	c #002146",
"a.	c #001A38",
"b.	c #00152C",
"c.	c #001021",
"d.	c #000C19",
"e.	c #000811",
"f.	c #00060C",
"g.	c #03121A",
"h.	c #23A3DF",
"i.	c #677987",
"j.	c #525961",
"k.	c #4B515A",
"l.	c #474F5A",
"m.	c #454C59",
"n.	c #464D5A",
"o.	c #464E5A",
"p.	c #47505E",
"q.	c #4A5360",
"r.	c #4B5461",
"s.	c #434E5C",
"t.	c #354251",
"u.	c #2E3B4D",
"v.	c #2E3E54",
"w.	c #32435A",
"x.	c #364860",
"y.	c #42556D",
"z.	c #144D8E",
"A.	c #01428B",
"B.	c #01346F",
"C.	c #002D5F",
"D.	c #00254F",
"E.	c #001E40",
"F.	c #001934",
"G.	c #001329",
"H.	c #000F20",
"I.	c #000B17",
"J.	c #6D89A2",
"K.	c #7F8A96",
"L.	c #828992",
"M.	c #81868E",
"N.	c #82868B",
"O.	c #83878C",
"P.	c #83888D",
"Q.	c #838A91",
"R.	c #828991",
"S.	c #6C747E",
"T.	c #434B56",
"U.	c #2B3747",
"V.	c #2D3C50",
"W.	c #314258",
"X.	c #34455D",
"Y.	c #40526B",
"Z.	c #295282",
"`.	c #014592",
" +	c #013F85",
".+	c #013877",
"++	c #013168",
"@+	c #002958",
"#+	c #002349",
"$+	c #001D3D",
"%+	c #001832",
"&+	c #001327",
"*+	c #000B18",
"=+	c #084787",
"-+	c #124B8B",
";+	c #205695",
">+	c #295F9C",
",+	c #3066A1",
"'+	c #3167A5",
")+	c #3169A8",
"!+	c #2F69AA",
"~+	c #2B67AD",
"{+	c #2666B0",
"]+	c #2C66A8",
"^+	c #4B5765",
"/+	c #2F3A48",
"(+	c #2C3A4D",
"_+	c #314056",
":+	c #35455C",
"<+	c #3B4D65",
"[+	c #3A5678",
"}+	c #034998",
"|+	c #01428C",
"1+	c #013C7F",
"2+	c #002247",
"3+	c #001C3B",
"4+	c #001731",
"5+	c #001328",
"6+	c #000F21",
"7+	c #04407B",
"8+	c #01418A",
"9+	c #014491",
"0+	c #014796",
"a+	c #01499A",
"b+	c #014B9F",
"c+	c #014DA3",
"d+	c #014FA8",
"e+	c #0352AD",
"f+	c #506781",
"g+	c #3B4450",
"h+	c #2C3A4A",
"i+	c #33435A",
"j+	c #374861",
"k+	c #445771",
"l+	c #135097",
"m+	c #014593",
"n+	c #013979",
"o+	c #01336B",
"p+	c #002C5E",
"q+	c #002752",
"r+	c #001C3C",
"s+	c #031D32",
"t+	c #04396F",
"u+	c #01336D",
"v+	c #013B7C",
"w+	c #014189",
"x+	c #01438E",
"y+	c #014694",
"z+	c #01489A",
"A+	c #014BA0",
"B+	c #014EA6",
"C+	c #3C699D",
"D+	c #525861",
"E+	c #323D4D",
"F+	c #2E3C50",
"G+	c #334258",
"H+	c #35455D",
"I+	c #46566D",
"J+	c #215591",
"K+	c #014899",
"L+	c #013D82",
"M+	c #002C5D",
"N+	c #03213B",
"O+	c #239ED4",
"P+	c #033362",
"Q+	c #013774",
"R+	c #013D81",
"S+	c #014A9D",
"T+	c #1256A4",
"U+	c #637183",
"V+	c #454D5A",
"W+	c #324156",
"X+	c #35455B",
"Y+	c #425369",
"Z+	c #2F5A89",
"`+	c #013C80",
" @	c #013269",
".@	c #002854",
"+@	c #032644",
"@@	c #032C53",
"#@	c #002855",
"$@	c #002B5C",
"%@	c #012F63",
"&@	c #01326A",
"*@	c #013672",
"=@	c #01418B",
"-@	c #014A9C",
";@	c #37689F",
">@	c #646A72",
",@	c #3C4654",
"'@	c #313F51",
")@	c #334359",
"!@	c #3D4E66",
"~@	c #3B5A7F",
"{@	c #014EA5",
"]@	c #013876",
"^@	c #012E61",
"/@	c #002957",
"(@	c #00244C",
"_@	c #032A4F",
":@	c #032646",
"<@	c #002045",
"[@	c #002A5A",
"}@	c #01326B",
"|@	c #557294",
"1@	c #535B66",
"2@	c #354152",
"3@	c #324055",
"4@	c #384961",
"5@	c #405976",
"6@	c #0853A7",
"7@	c #014DA4",
"8@	c #014695",
"9@	c #013978",
"0@	c #012F64",
"a@	c #002A59",
"b@	c #032F59",
"c@	c #239FD4",
"d@	c #002043",
"e@	c #00234B",
"f@	c #013673",
"g@	c #013C7E",
"h@	c #15569F",
"i@	c #606F80",
"j@	c #424C5A",
"k@	c #324052",
"l@	c #44566D",
"m@	c #1457A3",
"n@	c #0150AA",
"o@	c #01428D",
"p@	c #033463",
"q@	c #23A0D8",
"r@	c #031C31",
"s@	c #00162F",
"t@	c #001936",
"u@	c #002650",
"v@	c #002B5B",
"w@	c #013166",
"x@	c #01438D",
"y@	c #014897",
"z@	c #3D6899",
"A@	c #585F6A",
"B@	c #374254",
"C@	c #405067",
"D@	c #1A5291",
"E@	c #0152AE",
"F@	c #033669",
"G@	c #229BCE",
"H@	c #031827",
"I@	c #000E1D",
"J@	c #001123",
"K@	c #001429",
"L@	c #001A39",
"M@	c #001F43",
"N@	c #00244E",
"O@	c #013167",
"P@	c #013777",
"Q@	c #01448F",
"R@	c #0D509A",
"S@	c #5C6D80",
"T@	c #414C5B",
"U@	c #334054",
"V@	c #394861",
"W@	c #28466C",
"X@	c #0651A5",
"Y@	c #0151AD",
"Z@	c #024FA6",
"`@	c #094891",
" #	c #0F4176",
".#	c #1C3B57",
"+#	c #37474E",
"@#	c #3D556D",
"##	c #1A4575",
"$#	c #04386D",
"%#	c #2297C9",
"&#	c #031320",
"*#	c #000911",
"=#	c #000A14",
"-#	c #000E1E",
";#	c #00152D",
">#	c #001A37",
",#	c #001F42",
"'#	c #00254E",
")#	c #013F86",
"!#	c #014591",
"~#	c #3A6393",
"{#	c #545C67",
"]#	c #354154",
"^#	c #324159",
"/#	c #354763",
"(#	c #283F5E",
"_#	c #1D374B",
":#	c #233337",
"<#	c #2D3123",
"[#	c #3D3921",
"}#	c #55523C",
"|#	c #7D7965",
"1#	c #738089",
"2#	c #254E7C",
"3#	c #04386E",
"4#	c #2091C1",
"5#	c #00050A",
"6#	c #000710",
"7#	c #000914",
"8#	c #001022",
"9#	c #00142B",
"0#	c #001935",
"a#	c #002550",
"b#	c #012B5D",
"c#	c #0E4A90",
"d#	c #526174",
"e#	c #3A4556",
"f#	c #2E3C52",
"g#	c #313D53",
"h#	c #34352B",
"i#	c #352E13",
"j#	c #39321A",
"k#	c #48432E",
"l#	c #65614E",
"m#	c #818177",
"n#	c #526E8D",
"o#	c #0B3F7A",
"p#	c #043669",
"q#	c #229DD3",
"r#	c #1E88B5",
"s#	c #030E14",
"t#	c #000305",
"u#	c #000307",
"v#	c #000912",
"w#	c #012B5C",
"x#	c #013169",
"y#	c #375678",
"z#	c #3D4654",
"A#	c #2A3645",
"B#	c #2D2D23",
"C#	c #322B11",
"D#	c #3D3621",
"E#	c #534E3A",
"F#	c #716D5F",
"G#	c #687682",
"H#	c #265285",
"I#	c #033260",
"J#	c #2095C9",
"K#	c #1E84AF",
"L#	c #030D11",
"M#	c #000103",
"N#	c #000203",
"O#	c #000812",
"P#	c #012751",
"Q#	c #012D5E",
"R#	c #224C7A",
"S#	c #494E57",
"T#	c #302E27",
"U#	c #342C14",
"V#	c #453F2B",
"W#	c #615C4B",
"X#	c #6F726F",
"Y#	c #3E5F84",
"Z#	c #073E7C",
"`#	c #012956",
" $	c #032E56",
".$	c #1F8DBE",
"+$	c #1D7FA9",
"@$	c #020B0E",
"#$	c #000001",
"$$	c #000102",
"%$	c #00060E",
"&$	c #001124",
"*$	c #00152E",
"=$	c #001B39",
"-$	c #012650",
";$	c #012C5C",
">$	c #013066",
",$	c #103E71",
"'$	c #54595A",
")$	c #494433",
"!$	c #534D3D",
"~$	c #6F6A5F",
"{$	c #596B7D",
"]$	c #194980",
"^$	c #013570",
"/$	c #012D5F",
"($	c #012856",
"_$	c #02284C",
":$	c #1E89B8",
"<$	c #1C7BA3",
"[$	c #000000",
"}$	c #000204",
"|$	c #000306",
"1$	c #00050B",
"2$	c #00080F",
"3$	c #000B16",
"4$	c #001D3C",
"5$	c #012651",
"6$	c #012A5A",
"7$	c #3F556D",
"8$	c #716D64",
"9$	c #64696C",
"0$	c #2F5075",
"a$	c #03356E",
"b$	c #01326C",
"c$	c #012D60",
"d$	c #012A59",
"e$	c #001E3F",
"f$	c #022341",
"g$	c #1C81AE",
"h$	c #196E91",
"i$	c #020A0C",
"j$	c #000101",
"k$	c #000C18",
"l$	c #001833",
"m$	c #012957",
"n$	c #0A3260",
"o$	c #2E4B6C",
"p$	c #103866",
"q$	c #012C5D",
"r$	c #012958",
"s$	c #012652",
"t$	c #01234B",
"u$	c #021D36",
"v$	c #1B7BA5",
"w$	c #12516B",
"x$	c #010709",
"y$	c #AAAAAA",
"z$	c #777A7D",
"A$	c #EEEEEF",
"B$	c #000C1B",
"C$	c #334559",
"D$	c #FFFFFF",
"E$	c #344F6D",
"F$	c #012349",
"G$	c #AAB5C1",
"H$	c #EEF0F2",
"I$	c #445569",
"J$	c #001126",
"K$	c #021729",
"L$	c #186E92",
"M$	c #13536E",
"N$	c #77797B",
"O$	c #00070E",
"P$	c #33404E",
"Q$	c #334355",
"R$	c #778390",
"S$	c #EEEFF1",
"T$	c #445363",
"U$	c #001226",
"V$	c #888F98",
"W$	c #444E5A",
"X$	c #000C1A",
"Y$	c #010E1A",
"Z$	c #12526E",
"`$	c #0D3749",
" %	c #010406",
".%	c #77787A",
"+%	c #EEEEEE",
"@%	c #000810",
"#%	c #333C46",
"$%	c #333E4B",
"%%	c #EEEFF0",
"&%	c #778089",
"*%	c #000D1C",
"=%	c #000A15",
"-%	c #010B13",
";%	c #114B64",
">%	c #02080B",
",%	c #777777",
"'%	c #333334",
")%	c #333536",
"!%	c #777879",
"~%	c #777878",
"{%	c #041319",
"]%	c #02090B",
"^%	c #333333",
"/%	c #02070A",
"(%	c #02090C",
"_%	c #444444",
":%	c #030C10",
"<%	c #030C0F",
"[%	c #05161D",
"}%	c #041218",
"|%	c #000304",
"1%	c #010507",
"2%	c #0A2D3C",
"3%	c #08232E",
"4%	c #092632",
"5%	c #092733",
"6%	c #092734",
"7%	c #092835",
"8%	c #092836",
"9%	c #092936",
"0%	c #092A37",
"a%	c #092A38",
"b%	c #0A2B39",
"c%	c #0A2C3A",
"d%	c #0A2C3B",
"e%	c #0A2E3D",
"f%	c #0B2F3F",
"g%	c #0B3040",
"h%	c #0B3242",
"i%	c #0C3546",
"j%	c #0C384A",
"k%	c #0D3C50",
"l%	c #0F4156",
"m%	c #10475E",
"  . + + + + + + + + @ @ # $   % & * = - ; > , ' ) ! ~ { ] ] ^ / ",
"( _ : < [ } | 1 2 3 4 5 6 7 8 9 0 a b c d e f g h i j k l m n o ",
"% p q r s t u v w x y z A B C D E F G H I J K L M N O P Q R S ] ",
"% T U V W X Y Z ` u  .w ..+.A @.#.$.%.&.*.=.-.;.>.,.'.).!.~.{.] ",
"% ].^./.(._.:.W <.[.r Z }.|.1.2.3.4.5.6.7.8.9.0.a.b.c.d.e.f.g.] ",
"h.i.j.k.l.m.n.o.p.q.r.s.t.u.v.w.x.y.z.A.G B.C.D.E.F.G.H.I.e.k { ",
"& J.K.L.M.N.N.O.P.Q.R.S.T.U.V.W.X.Y.Z.`. +.+++@+#+$+%+&+N *+j { ",
"* =+-+;+>+,+'+)+!+~+{+]+^+/+(+_+:+<+[+}+|+1+H I J 2+3+4+5+6+i ! ",
"= 7+&.6.8+9+0+a+b+c+d+e+f+g+h+` i+j+k+l+m+%.n+o+p+q+0.r+%+M s+) ",
"- t+u+7.v+6.w+x+y+z+A+B+C+D+E+F+G+H+I+J+K+x+L+7.++M+q+2+$+F.N+O+",
"; P+p+8.u+Q+&.R+%.x+0+S+T+U+V+Y W+X+Y+Z+b+0+A.`+Q+ @p+.@#+E.+@' ",
"> @@-.#@$@%@&@*@n+R+=@y+-@;@>@,@'@)@!@~@{@S+y+=@`+]@o+^@/@(@_@, ",
", :@;.<@(@q+[@I }@7.1+w+y+S+|@1@2@3@4@5@6@7@S+8@A.L+9@B.0@a@b@> ",
"c@N+>.L $+d@e@.@M+++f@g@=@8@h@i@j@k@:+l@m@n@7@S+8@o@6.n+B.%@p@q@",
") r@,.M s@t@$+0.u@v@w@Q+R+x@y@z@A@B@G+C@D@E@n@7@S+y+A.R+]@}@F@; ",
"G@H@d.I@J@K@>.L@M@N@v@O@P@6.Q@R@S@T@U@V@W@X@Y@Z@`@ #.#+#@###$#; ",
"%#&#*#=#d.-#,.;#>#,#'#=.&@9@)#!#~#{#]#^#/#(#_#:#<#[#}#|#1#2#3#q@",
"4#l 5#!.6#7#'.8#9#0#,#a#b#o+n+ +c#d#e#f#g#h#i#j#k#l#m#n#o#*.p#q#",
"r#s#t#u#Q !.v#d.c.M 0#,#D.w#x#7.1+y#z#A#B#C#D#E#F#G#H#.+u+I I#J#",
"K#L#M#N#t#~.!.O#d.8#b.a.K P#Q#&@Q+R#S#T#U#V#W#X#Y#Z#f@}@^@`# $.$",
"+$@$#$$$$$R Q %$=#'.&$*$=$K -$;$>$,$'$)$!$~${$]$9@^$++/$($(@_$:$",
"<$@$[$#$$$}$|$1$2$3$-#&+4+4$2+5$6$I 7$8$9$0$a$b$>$c$d$-$2+e$f$g$",
"h$i$[$#$j$$$}$~.f.O#k$H.G.l$$+2+-$m$n$o$p$%@^@q$r$s$t$d@3+l$u$v$",
"w$x$[$y$y$#$M#}$u#z$A$7#B$8#K@C$D$D$D$D$D$E$F$G$D$D$H$I$b.J$K$L$",
"M$x$[$y$y$#$#$M#R N$A$O$).*+I@P$D$Q$;#s@s@>.R$S$T$U$V$W$X$O Y$Z$",
"`$ %[$y$y$[$#$$$M#.%+%5#!.@%=##%D$$%6+J@J@J@%%&%-#*%*+=%O#P -%;%",
">%[$[$y$y$[$[$[$[$,%+%[$[$[$#$'%D$D$D$D$)%}$+%!%!%D$D$~%$$$$$${%",
"]%[$[$y$y$[$[$[$[$,%+%[$[$[$[$^%D$^%[$[$[$[$+%,%[$[$+%,%[$[$[$/%",
"(%[$[$y$y$[$[$[$[$,%+%[$[$[$[$^%D$^%[$[$[$[$,%+%_%[$+%,%[$[$[$:%",
"<%[$[$y$D$D$D$D$y$,%D$D$D$D$+%^%D$D$D$D$D$'%#$y$D$D$D$,%[$[$j$[%",
"}%j$j$j$j$j$j$j$j$j$$$$$$$$$$$$$$$N#N#N#N#N#N#N#N#N#N#N#N#|%1%2%",
"2%3%4%5%6%7%8%9%0%a%a%a%b%c%d%d%d%2%2%2%2%2%e%f%g%h%i%j%k%l%m%M$"};
