/* XPM */
static char * slRHand_xpm[] = {
"32 32 548 2",
"  	c #27A0D3",
". 	c #269ED1",
"+ 	c #269DD0",
"@ 	c #279DD0",
"# 	c #289DD0",
"$ 	c #299DD0",
"% 	c #2A9DD0",
"& 	c #2B9DD0",
"* 	c #2C9DD0",
"= 	c #2D9DD0",
"- 	c #2E9DD0",
"; 	c #2F9CCF",
"> 	c #309CCF",
", 	c #2F9DD0",
"' 	c #2E9CCF",
") 	c #2D9FD2",
"! 	c #26A0D4",
"~ 	c #0F1B24",
"{ 	c #0E0E12",
"] 	c #130E12",
"^ 	c #160E12",
"/ 	c #1A0E12",
"( 	c #200E12",
"_ 	c #250E12",
": 	c #2C0E12",
"< 	c #310E12",
"[ 	c #380E12",
"} 	c #3D0E12",
"| 	c #440E12",
"1 	c #490E12",
"2 	c #4E0E12",
"3 	c #530E12",
"4 	c #580E12",
"5 	c #5D0E12",
"6 	c #600E12",
"7 	c #630E12",
"8 	c #660E12",
"9 	c #611014",
"0 	c #5D181B",
"a 	c #591D1D",
"b 	c #60302D",
"c 	c #734E46",
"d 	c #864D45",
"e 	c #5A0E12",
"f 	c #540E12",
"g 	c #4C1B24",
"h 	c #2CA0D4",
"i 	c #0D0B0F",
"j 	c #0F0000",
"k 	c #140000",
"l 	c #180000",
"m 	c #1E0000",
"n 	c #250000",
"o 	c #2C0000",
"p 	c #330000",
"q 	c #3A0000",
"r 	c #420000",
"s 	c #490000",
"t 	c #4F0000",
"u 	c #560000",
"v 	c #5C0000",
"w 	c #620000",
"x 	c #670000",
"y 	c #6C0000",
"z 	c #6B0201",
"A 	c #68100D",
"B 	c #6C251E",
"C 	c #824B3C",
"D 	c #A78067",
"E 	c #C2A382",
"F 	c #DBBE98",
"G 	c #EFD4AC",
"H 	c #F7DBB2",
"I 	c #F2D7B0",
"J 	c #A35D4C",
"K 	c #610000",
"L 	c #560B0F",
"M 	c #100E12",
"N 	c #110000",
"O 	c #170000",
"P 	c #1D0000",
"Q 	c #240000",
"R 	c #2A0000",
"S 	c #3B0000",
"T 	c #4A0000",
"U 	c #520000",
"V 	c #590000",
"W 	c #600000",
"X 	c #660000",
"Y 	c #6A0000",
"Z 	c #6A0403",
"` 	c #6C1F19",
" .	c #AA8169",
"..	c #DEC29C",
"+.	c #F2D7AE",
"@.	c #F9DEB5",
"#.	c #F6DCB2",
"$.	c #F6DCB3",
"%.	c #FBE2B8",
"&.	c #FFE8BD",
"*.	c #FEEAC0",
"=.	c #FFEFC3",
"-.	c #FEF1C5",
";.	c #AA6D5A",
">.	c #5C0E12",
",.	c #120E12",
"'.	c #150000",
").	c #1A0000",
"!.	c #210000",
"~.	c #280000",
"{.	c #300000",
"].	c #390000",
"^.	c #5B0000",
"/.	c #610604",
"(.	c #702F26",
"_.	c #976A55",
":.	c #C7AB8E",
"<.	c #F5EAC3",
"[.	c #FFF4C9",
"}.	c #FFE7BD",
"|.	c #FEE4BB",
"1.	c #FCE3BA",
"2.	c #FCE2B9",
"3.	c #FEE7BD",
"4.	c #FFEDC2",
"5.	c #FFF3C7",
"6.	c #FFF7CB",
"7.	c #FDF9CD",
"8.	c #FFFCCF",
"9.	c #FFFED1",
"0.	c #85685C",
"a.	c #140E12",
"b.	c #2D0000",
"c.	c #360000",
"d.	c #400000",
"e.	c #620101",
"f.	c #70312A",
"g.	c #C3AD94",
"h.	c #FFFFD8",
"i.	c #FFFFE0",
"j.	c #FFFFEB",
"k.	c #FFFFDC",
"l.	c #FFE8BE",
"m.	c #FFEEC2",
"n.	c #FFF5C8",
"o.	c #FFF9CD",
"p.	c #FFFDD2",
"q.	c #FFFDD1",
"r.	c #FFFFD3",
"s.	c #B8D4B6",
"t.	c #2EA5D6",
"u.	c #290000",
"v.	c #320000",
"w.	c #450000",
"x.	c #620202",
"y.	c #79423D",
"z.	c #FAF9ED",
"A.	c #FFFFE3",
"B.	c #F3EBC6",
"C.	c #E8DDBB",
"D.	c #F6EDCD",
"E.	c #FFFBD3",
"F.	c #FEF5CA",
"G.	c #FFF0C5",
"H.	c #FEEEC3",
"I.	c #FFEEC3",
"J.	c #FEEFC4",
"K.	c #FFF6CA",
"L.	c #FFFDD0",
"M.	c #FFFCD0",
"N.	c #FFFACE",
"O.	c #CEE0C1",
"P.	c #2EAFDE",
"Q.	c #180E12",
"R.	c #550000",
"S.	c #5F0000",
"T.	c #6C2D2B",
"U.	c #FAFBF8",
"V.	c #FAF3DE",
"W.	c #B69B80",
"X.	c #A17962",
"Y.	c #DDC8A4",
"Z.	c #FBF4CF",
"`.	c #FFFEE8",
" +	c #FEFEE4",
".+	c #FEFBD4",
"++	c #FFF8CC",
"@+	c #FEF4C8",
"#+	c #FEF2C6",
"$+	c #FEF6CA",
"%+	c #FEFBCF",
"&+	c #FEFACF",
"*+	c #FFF5CA",
"=+	c #FFF4CA",
"-+	c #D1DABA",
";+	c #2DA9D9",
">+	c #190E12",
",+	c #1F0000",
"'+	c #270000",
")+	c #430000",
"!+	c #5A0000",
"~+	c #5C0B0C",
"{+	c #D1C5C6",
"]+	c #F9F3DB",
"^+	c #9E765E",
"/+	c #95614F",
"(+	c #CFB79A",
"_+	c #FFFCD8",
":+	c #FFFFE6",
"<+	c #FFFFFA",
"[+	c #FEFEF8",
"}+	c #FFFEE5",
"|+	c #FEFED7",
"1+	c #FFFED3",
"2+	c #FEFCD2",
"3+	c #FEFBD0",
"4+	c #FEFBCE",
"5+	c #FFF8CD",
"6+	c #FFF0C6",
"7+	c #F0D9B1",
"8+	c #693C38",
"9+	c #3C0000",
"0+	c #470000",
"a+	c #5E0000",
"b+	c #621F1F",
"c+	c #E1D6D1",
"d+	c #CBB59C",
"e+	c #D2BFA6",
"f+	c #F9F5D6",
"g+	c #FFFFE8",
"h+	c #F9F0C9",
"i+	c #F5ECD3",
"j+	c #FFFEFB",
"k+	c #FFFEF8",
"l+	c #FFFEEA",
"m+	c #FFFFE5",
"n+	c #FEFFDF",
"o+	c #FFFFDB",
"p+	c #FEFED6",
"q+	c #FEFCCF",
"r+	c #FAE5BB",
"s+	c #835243",
"t+	c #650F13",
"u+	c #1B0E12",
"v+	c #220000",
"w+	c #340000",
"x+	c #3E0000",
"y+	c #670101",
"z+	c #74322F",
"A+	c #DDD0CD",
"B+	c #FFFFFF",
"C+	c #FFFFE7",
"D+	c #F5EAC5",
"E+	c #AC7D68",
"F+	c #955343",
"G+	c #E9DBBD",
"H+	c #FFFFFD",
"I+	c #FEFEFE",
"J+	c #FFFFF6",
"K+	c #FFFFEF",
"L+	c #FEFFE8",
"M+	c #FEFDEA",
"N+	c #FEFEDE",
"O+	c #FFFED5",
"P+	c #FFF3C8",
"Q+	c #C3A789",
"R+	c #620604",
"S+	c #640E12",
"T+	c #1C0E12",
"U+	c #230000",
"V+	c #2B0000",
"W+	c #570000",
"X+	c #620606",
"Y+	c #C2ABAA",
"Z+	c #B6957C",
"`+	c #7B1410",
" @	c #870503",
".@	c #A66D5A",
"+@	c #FCF9E6",
"@@	c #FFFFFC",
"#@	c #FFFFF8",
"$@	c #F6F2DF",
"%@	c #FEFFEF",
"&@	c #FEFEFB",
"*@	c #FFFEEC",
"=@	c #FFFAD3",
"-@	c #E8D1AC",
";@	c #6E2F26",
">@	c #6D0000",
",@	c #5F0E12",
"'@	c #350000",
")@	c #4B0000",
"!@	c #5D0404",
"~@	c #8D6666",
"{@	c #FFFFF3",
"]@	c #9C715F",
"^@	c #800403",
"/@	c #890202",
"(@	c #A97663",
"_@	c #FFFFE9",
":@	c #C2A08E",
"<@	c #92433D",
"[@	c #85211E",
"}@	c #925145",
"|@	c #FDFAF0",
"1@	c #FEEFC8",
"2@	c #814D3F",
"3@	c #6C0201",
"4@	c #3F0000",
"5@	c #580E0E",
"6@	c #C7B8B9",
"7@	c #9B7362",
"8@	c #7D0201",
"9@	c #800806",
"0@	c #BF9E88",
"a@	c #FFFFF5",
"b@	c #E4D6BC",
"c@	c #904438",
"d@	c #8E0504",
"e@	c #970000",
"f@	c #900000",
"g@	c #9C6A58",
"h@	c #FFFFF2",
"i@	c #FEFAE7",
"j@	c #966B58",
"k@	c #680201",
"l@	c #680000",
"m@	c #520E12",
"n@	c #3D0000",
"o@	c #530000",
"p@	c #5C0202",
"q@	c #672424",
"r@	c #7A4340",
"s@	c #740202",
"t@	c #780B0A",
"u@	c #C3AA99",
"v@	c #D0B9A1",
"w@	c #801914",
"x@	c #940000",
"y@	c #920000",
"z@	c #7D0403",
"A@	c #93604C",
"B@	c #FAEFC8",
"C@	c #F9F3D4",
"D@	c #875143",
"E@	c #680302",
"F@	c #4C0E12",
"G@	c #269ACC",
"H@	c #440000",
"I@	c #4D0000",
"J@	c #6B0908",
"K@	c #B8A19B",
"L@	c #FCFCFC",
"M@	c #FBFBF8",
"N@	c #A37B70",
"O@	c #7B0907",
"P@	c #8B0000",
"Q@	c #77100C",
"R@	c #B5967A",
"S@	c #FDF7D4",
"T@	c #FDFDE7",
"U@	c #F7F2CC",
"V@	c #80493B",
"W@	c #6D0201",
"X@	c #450E12",
"Y@	c #2597C8",
"Z@	c #180E11",
"`@	c #480000",
" #	c #5E0202",
".#	c #9D7F7E",
"+#	c #F6F6F6",
"@#	c #F5F5F2",
"##	c #8E6157",
"$#	c #780504",
"%#	c #7F0000",
"&#	c #800000",
"*#	c #700F0D",
"=#	c #CCB7A0",
"-#	c #F8F8EE",
";#	c #F9F9EC",
">#	c #B89E8B",
",#	c #68241C",
"'#	c #670100",
")#	c #630000",
"!#	c #4E0000",
"~#	c #3C0E12",
"{#	c #2B9CCE",
"]#	c #2491C0",
"^#	c #150D11",
"/#	c #200000",
"(#	c #2F0000",
"_#	c #370000",
":#	c #500000",
"<#	c #510E0E",
"[#	c #ECECEC",
"}#	c #ECECEA",
"|#	c #75443E",
"1#	c #6A0201",
"2#	c #700000",
"3#	c #720000",
"4#	c #730000",
"5#	c #76403F",
"6#	c #F0F0F0",
"7#	c #E8E4DD",
"8#	c #78463C",
"9#	c #5E0403",
"0#	c #5D0000",
"a#	c #330E11",
"b#	c #2999CA",
"c#	c #2289B5",
"d#	c #130C0F",
"e#	c #160000",
"f#	c #1C0000",
"g#	c #4A0101",
"h#	c #704F4F",
"i#	c #72504F",
"j#	c #580101",
"k#	c #5C0303",
"l#	c #6D3E3E",
"m#	c #581C1A",
"n#	c #2A0D10",
"o#	c #2691C1",
"p#	c #2085B0",
"q#	c #100C0F",
"r#	c #130000",
"s#	c #310000",
"t#	c #440505",
"u#	c #480404",
"v#	c #540000",
"w#	c #520202",
"x#	c #510000",
"y#	c #260000",
"z#	c #210C0F",
"A#	c #248AB7",
"B#	c #1F80AA",
"C#	c #0E0B0E",
"D#	c #100000",
"E#	c #190000",
"F#	c #2E0000",
"G#	c #460000",
"H#	c #1B0C0F",
"I#	c #2286B2",
"J#	c #1E7CA4",
"K#	c #0C0B0E",
"L#	c #0D0000",
"M#	c #380000",
"N#	c #150B0E",
"O#	c #207FA9",
"P#	c #1B6E92",
"Q#	c #090A0C",
"R#	c #0A0000",
"S#	c #1B0000",
"T#	c #120000",
"U#	c #110B0E",
"V#	c #1E7AA2",
"W#	c #B1C5CE",
"X#	c #DEDDDD",
"Y#	c #1B1111",
"Z#	c #7E7777",
"`#	c #EFEEEE",
" $	c #837777",
".$	c #F0EEEE",
"+$	c #4C3333",
"@$	c #4D3333",
"#$	c #B4AAAA",
"$$	c #847777",
"%$	c #4E4444",
"&$	c #0C090C",
"*$	c #1A6D90",
"=$	c #B1C6CF",
"-$	c #ACACAD",
";$	c #050000",
">$	c #171111",
",$	c #ADAAAA",
"'$	c #7C7777",
")$	c #0E0000",
"!$	c #817777",
"~$	c #B1AAAA",
"{$	c #524444",
"]$	c #7F7777",
"^$	c #7D7777",
"/$	c #EEEEEE",
"($	c #070709",
"_$	c #14526C",
":$	c #AEBCC2",
"<$	c #ABABAC",
"[$	c #030000",
"}$	c #ABAAAA",
"|$	c #ACAAAA",
"1$	c #7A7777",
"2$	c #080000",
"3$	c #1D1111",
"4$	c #DFDDDD",
"5$	c #BFBBBB",
"6$	c #1F1111",
"7$	c #7B7777",
"8$	c #070000",
"9$	c #060000",
"0$	c #7A7A7B",
"a$	c #124B64",
"b$	c #ABADAE",
"c$	c #DDDDDD",
"d$	c #AAAAAA",
"e$	c #777777",
"f$	c #000000",
"g$	c #333333",
"h$	c #666666",
"i$	c #010000",
"j$	c #787777",
"k$	c #787878",
"l$	c #041319",
"m$	c #02070A",
"n$	c #111111",
"o$	c #030C10",
"p$	c #ABAEAF",
"q$	c #444444",
"r$	c #000101",
"s$	c #05161D",
"t$	c #041218",
"u$	c #010101",
"v$	c #010102",
"w$	c #010202",
"x$	c #010203",
"y$	c #010507",
"z$	c #0A2D3C",
"A$	c #0B2E3C",
"B$	c #08232F",
"C$	c #092633",
"D$	c #092733",
"E$	c #092734",
"F$	c #092835",
"G$	c #0A2936",
"H$	c #0A2937",
"I$	c #0A2A37",
"J$	c #0A2A38",
"K$	c #0A2B39",
"L$	c #0A2C3B",
"M$	c #0B2D3C",
"N$	c #0B2E3D",
"O$	c #0B2F3F",
"P$	c #0B3140",
"Q$	c #0C3242",
"R$	c #0C3546",
"S$	c #0D384A",
"T$	c #0E3C50",
"U$	c #0F4156",
"V$	c #11475E",
"W$	c #155570",
"  . + + @ @ # # $ % % & * * = = - ; ; ; > > > > > > , ; ' - = ) ",
"! ~ { ] ^ / ( _ : < [ } | 1 2 3 4 5 6 7 8 8 9 0 a b c d e f g h ",
"+ i j k l m n o p q r s t u v w x y z A B C D E F G H I J K L - ",
"+ M N O P Q R p S r T U V W X Y Z `  ...+.@.#.$.%.&.*.=.-.;.>.; ",
"+ ,.'.).!.~.{.].r T U ^.w /.(._.:.<.[.}.|.1.2.3.4.5.6.7.8.9.0.> ",
"@ a.l m n b.c.d.s U ^.e.f.g.h.i.j.k.5.}.3.&.l.m.n.o.8.p.q.r.s.t.",
"@ ^ ).!.u.v.S w.t V x.y.z.A.B.C.D.E.F.G.H.I.H.J.K.L.L.M.N.M.O.P.",
"@ Q.P Q b.c.d.T R.S.T.U.V.W.X.Y.Z.`. +.+++6.@+#+$+%+M.&+*+=+-+;+",
"@ >+,+'+{.q )+t !+~+{+]+^+/+(+_+:+<+[+}+|+1+2+3+N.4+%+5+6+7+8+; ",
"@ / !.u.v.9+0+U a+b+c+d+e+f+g+i.h+i+j+k+l+m+A.n+o+p+q+K.r+s+t+> ",
"@ u+v+R w+x+s u W y+z+A+B+C+D+E+F+G+H+I+H+J+K+L+M+N+O+P+Q+R+S+> ",
"@ T+U+V+w+d.T W+w X+Y+B+K+Z+`+ @.@+@@@B+B+#@$@%@&@*@=@-@;@>@,@; ",
"@ T+U+o '@d.)@W+!@~@B+{@]@^@/@(@_@{@j.:@<@[@}@|@B+J+1@2@3@x e ' ",
"@ T+U+V+w+4@s u 5@6@B+7@8@9@0@a@a@b@c@d@e@f@g@h@B+i@j@k@l@S.m@- ",
"@ u+!.R p n@0+o@p@q@r@s@t@u@I+B+v@w@x@y@z@A@B@_@C@D@E@l@W W+F@= ",
"G@>+,+'+{.q H@I@V w Y J@K@L@M@N@O@P@P@Q@R@S@T@U@V@W@x S.W+t X@* ",
"Y@Z@m n o '@4@`@U ^. #.#+#@###$#%#&#*#=#-#;#>#,#'#)#v R.!#w.~#{#",
"]#^#)./#'+(#_#d.s :#<#[#}#|#1#2#3#4#5#6#7#8#9#w 0#u :#T )+9+a#b#",
"c#d#e#f#!.~.(#_#4@w.g#h#i#j#a+W w w k#l#m#!+u U I@0+r 9+c.{.n#o#",
"p#q#r#l P U+R s#_#n@r t#u#t o@v#R.R.R.w#x#!#s w.d.S c.s#o y#z#A#",
"B#C#D#k E#m U+u.F#p _#9+4@r w.G#0+`@`@0+G#)+4@S _#v.o ~.Q ,+H#I#",
"J#K#L#N k E#P v+y#V+(#p c.M#q q 9+9+S q M#c.p (#V+~.U+/#f#l N#O#",
"P#Q#R#L#D#r#e#S#,+v+y#u.o b.{.s#v.v.s#{.F#o u.y#U+/#P E#e#T#U#V#",
"W#B+B+B+X#Y#Z#`#r#'. $.$S#m +$B+@$/#/#.$#$m P .$$$`#B+B+`#%$&$*$",
"=$-$;$>$X#,$'$`#)$D#!$`#r#k ~$B+~$'.'.`#`#{$T#`#]$`#^$R#,$/$($_$",
":$<$[$[$}$|$1$/$2$R#^$`#L#3$4$5$4$6$j `#4$`#L#`#'$`#7$8$9$/$0$a$",
"b$c$d$d$B+e$e$B+B+B+B+/$f$g$B+h$B+g$i$/$j$/$j$/$j$/$j$i$i$/$k$l$",
"b$c$c$B+e$f$e$/$f$f$e$/$f$d$c$d$c$d$f$/$e$e$/$/$e$/$e$f$f$/$e$m$",
"b$d$n$c$c$n$e$/$f$f$e$/$n$c$d$d$d$c$n$/$e$f$d$B+e$/$e$f$d$/$f$o$",
"p$d$f$n$c$d$e$/$f$f$e$/$g$B+g$f$g$B+g$/$e$f$q$/$e$/$B+B+/$q$r$s$",
"t$r$r$r$r$r$r$r$r$u$u$u$u$u$u$u$u$u$u$u$u$u$u$v$v$v$v$w$x$x$y$z$",
"A$B$C$D$E$F$G$H$I$J$J$J$K$L$L$L$L$M$M$A$A$A$N$O$P$Q$R$S$T$U$V$W$"};
