/* XPM */
static char * slRLeg_xpm[] = {
"32 32 542 2",
"  	c #249ED2",
". 	c #249DD1",
"+ 	c #249DD0",
"@ 	c #259CD0",
"# 	c #269CD0",
"$ 	c #279CD0",
"% 	c #289CD0",
"& 	c #2A9CD0",
"* 	c #2B9CCF",
"= 	c #2C9CCF",
"- 	c #2D9CCF",
"; 	c #2F9CCF",
"> 	c #309CCF",
", 	c #319CCF",
"' 	c #319DD0",
") 	c #2F9ED2",
"! 	c #2CA1D6",
"~ 	c #2AA3D9",
"{ 	c #2AA4DA",
"] 	c #2EA7DD",
"^ 	c #24A0D4",
"/ 	c #061B24",
"( 	c #050E12",
"_ 	c #060E12",
": 	c #090E12",
"< 	c #0C0E12",
"[ 	c #110E12",
"} 	c #160E12",
"| 	c #1E0E12",
"1 	c #260E12",
"2 	c #2F0E12",
"3 	c #3A0E12",
"4 	c #450E12",
"5 	c #500E12",
"6 	c #5B0E12",
"7 	c #650E12",
"8 	c #6B1318",
"9 	c #542A35",
"0 	c #3A4259",
"a 	c #314E6E",
"b 	c #304E6C",
"c 	c #2F4C68",
"d 	c #304C68",
"e 	c #314C68",
"f 	c #314C67",
"g 	c #304B66",
"h 	c #304B65",
"i 	c #304B64",
"j 	c #304A63",
"k 	c #314A63",
"l 	c #31536E",
"m 	c #2DA9DF",
"n 	c #239DD0",
"o 	c #030B0F",
"p 	c #020000",
"q 	c #050000",
"r 	c #080000",
"s 	c #0C0000",
"t 	c #120000",
"u 	c #190000",
"v 	c #210000",
"w 	c #2B0000",
"x 	c #360000",
"y 	c #430000",
"z 	c #4F0000",
"A 	c #5C0000",
"B 	c #680000",
"C 	c #730707",
"D 	c #513844",
"E 	c #374C68",
"F 	c #344763",
"G 	c #32455F",
"H 	c #33455D",
"I 	c #32445D",
"J 	c #32435C",
"K 	c #32435B",
"L 	c #324259",
"M 	c #324157",
"N 	c #314055",
"O 	c #303F54",
"P 	c #313D51",
"Q 	c #303D4F",
"R 	c #30455A",
"S 	c #2EA7DB",
"T 	c #040000",
"U 	c #060000",
"V 	c #0B0000",
"W 	c #0F0000",
"X 	c #160000",
"Y 	c #1E0000",
"Z 	c #270000",
"` 	c #310000",
" .	c #3D0000",
"..	c #4B0000",
"+.	c #590000",
"@.	c #650000",
"#.	c #720000",
"$.	c #6C2629",
"%.	c #40526D",
"&.	c #354761",
"*.	c #33455C",
"=.	c #31425A",
"-.	c #324257",
";.	c #303F53",
">.	c #303E51",
",.	c #2F3C4F",
"'.	c #2E3A4D",
").	c #2D3849",
"!.	c #2C3747",
"~.	c #2D4052",
"{.	c #2EA6DA",
"].	c #070E12",
"^.	c #0A0000",
"/.	c #0E0000",
"(.	c #140000",
"_.	c #1B0000",
":.	c #240000",
"<.	c #2D0000",
"[.	c #390000",
"}.	c #450000",
"|.	c #520000",
"1.	c #610000",
"2.	c #6E0000",
"3.	c #7B0202",
"4.	c #5A3F4C",
"5.	c #3A4B65",
"6.	c #32445C",
"7.	c #314157",
"8.	c #304055",
"9.	c #314053",
"0.	c #303C4E",
"a.	c #2E3B4C",
"b.	c #2C3848",
"c.	c #2B3746",
"d.	c #2A3443",
"e.	c #2B3442",
"f.	c #2E404F",
"g.	c #0A0E12",
"h.	c #130000",
"i.	c #1A0000",
"j.	c #2A0000",
"k.	c #340000",
"l.	c #400000",
"m.	c #4D0000",
"n.	c #5B0000",
"o.	c #690000",
"p.	c #760000",
"q.	c #7C1415",
"r.	c #495165",
"s.	c #364860",
"t.	c #32435A",
"u.	c #2E3E54",
"v.	c #2E3B4D",
"w.	c #354251",
"x.	c #434E5C",
"y.	c #4B5461",
"z.	c #4A5360",
"A.	c #47505E",
"B.	c #464E5A",
"C.	c #464D5A",
"D.	c #454C59",
"E.	c #474F5A",
"F.	c #4B515A",
"G.	c #4F606C",
"H.	c #31A9DD",
"I.	c #0D0E12",
"J.	c #200000",
"K.	c #280000",
"L.	c #320000",
"M.	c #490000",
"N.	c #560000",
"O.	c #640000",
"P.	c #7E0000",
"Q.	c #712B2F",
"R.	c #40526B",
"S.	c #34455D",
"T.	c #314258",
"U.	c #2D3C50",
"V.	c #2B3747",
"W.	c #434B56",
"X.	c #727178",
"Y.	c #87868C",
"Z.	c #87888D",
"`.	c #84878C",
" +	c #83878C",
".+	c #82868B",
"++	c #83858A",
"@+	c #858489",
"#+	c #8A8488",
"$+	c #87858B",
"%+	c #35AADD",
"&+	c #300000",
"*+	c #3A0000",
"=+	c #510000",
"-+	c #5E0000",
";+	c #6B0000",
">+	c #790000",
",+	c #840203",
"'+	c #5E424E",
")+	c #3B4D65",
"!+	c #35455C",
"~+	c #314056",
"{+	c #2C3A4D",
"]+	c #2F3A48",
"^+	c #594F55",
"/+	c #9E2B2B",
"(+	c #A42525",
"_+	c #A12A2A",
":+	c #9F2F2F",
"<+	c #9B3031",
"[+	c #973031",
"}+	c #923030",
"|+	c #8B2828",
"1+	c #821F1F",
"2+	c #6F1E22",
"3+	c #309CD0",
"4+	c #4E0000",
"5+	c #5A0000",
"6+	c #670000",
"7+	c #740000",
"8+	c #800000",
"9+	c #871212",
"0+	c #505164",
"a+	c #374861",
"b+	c #33435A",
"c+	c #2C3A4A",
"d+	c #3B4450",
"e+	c #795255",
"f+	c #9E0202",
"g+	c #9A0000",
"h+	c #940000",
"i+	c #8F0000",
"j+	c #890000",
"k+	c #820000",
"l+	c #7B0000",
"m+	c #6C0000",
"n+	c #5E0E12",
"o+	c #2E9CCF",
"p+	c #1B0E12",
"q+	c #4C0000",
"r+	c #570000",
"s+	c #630000",
"t+	c #6F0000",
"u+	c #860000",
"v+	c #822223",
"w+	c #46566D",
"x+	c #35455D",
"y+	c #334258",
"z+	c #2E3C50",
"A+	c #323D4D",
"B+	c #525861",
"C+	c #933C3D",
"D+	c #960000",
"E+	c #900000",
"F+	c #830000",
"G+	c #7C0000",
"H+	c #750000",
"I+	c #660000",
"J+	c #5F0000",
"K+	c #530E12",
"L+	c #220E12",
"M+	c #780000",
"N+	c #8C0000",
"O+	c #773337",
"P+	c #425369",
"Q+	c #35455B",
"R+	c #324156",
"S+	c #454D5A",
"T+	c #7A656A",
"U+	c #951111",
"V+	c #8D0000",
"W+	c #840000",
"X+	c #7D0000",
"Y+	c #580000",
"Z+	c #500000",
"`+	c #460E12",
" @	c #270E12",
".@	c #600000",
"+@	c #8A0000",
"@@	c #920000",
"#@	c #6A4149",
"$@	c #3D4E66",
"%@	c #334359",
"&@	c #313F51",
"*@	c #3C4654",
"=@	c #646A72",
"-@	c #933737",
";@	c #8B0000",
">@	c #700000",
",@	c #3B0E12",
"'@	c #2E0E12",
")@	c #380000",
"!@	c #420000",
"~@	c #880000",
"{@	c #910000",
"]@	c #950707",
"^@	c #5C4A57",
"/@	c #384961",
"(@	c #324055",
"_@	c #354152",
":@	c #535B66",
"<@	c #8A5557",
"[@	c #4A0000",
"}@	c #299CD0",
"|@	c #330E12",
"1@	c #3F0000",
"2@	c #550000",
"3@	c #870000",
"4@	c #970000",
"5@	c #921415",
"6@	c #4D5163",
"7@	c #324052",
"8@	c #424C5A",
"9@	c #746469",
"0@	c #8E1515",
"a@	c #620000",
"b@	c #460000",
"c@	c #3E0000",
"d@	c #370000",
"e@	c #390E12",
"f@	c #440000",
"g@	c #811B1D",
"h@	c #405067",
"i@	c #374254",
"j@	c #585F6A",
"k@	c #8B3D3E",
"l@	c #850000",
"m@	c #330000",
"n@	c #2C0000",
"o@	c #260000",
"p@	c #2899CC",
"q@	c #470000",
"r@	c #5C1918",
"s@	c #653B35",
"t@	c #523428",
"u@	c #501A14",
"v@	c #640E0C",
"w@	c #7B0808",
"x@	c #8D0101",
"y@	c #950000",
"z@	c #910506",
"A@	c #50313E",
"B@	c #384861",
"C@	c #334054",
"D@	c #414C5B",
"E@	c #765F64",
"F@	c #870C0D",
"G@	c #710000",
"H@	c #220000",
"I@	c #1D0000",
"J@	c #180000",
"K@	c #2796C7",
"L@	c #390E11",
"M@	c #642423",
"N@	c #886F68",
"O@	c #7B7763",
"P@	c #54513B",
"Q@	c #3C3821",
"R@	c #392914",
"S@	c #432010",
"T@	c #4D1C12",
"U@	c #413140",
"V@	c #354662",
"W@	c #314158",
"X@	c #344153",
"Y@	c #535C67",
"Z@	c #863A3B",
"`@	c #2E0000",
" #	c #1F0000",
".#	c #110000",
"+#	c #100E12",
"@#	c #259BCE",
"##	c #2690BF",
"$#	c #360D11",
"%#	c #5D0909",
"&#	c #7E4D4B",
"*#	c #827A6D",
"=#	c #615E4B",
"-#	c #46412C",
";#	c #373119",
">#	c #342D13",
",#	c #33342B",
"'#	c #303C51",
")#	c #2D3B51",
"!#	c #3A4556",
"~#	c #66565C",
"{#	c #7C0D0D",
"]#	c #250000",
"^#	c #1C0000",
"/#	c #0D0000",
"(#	c #0B0E11",
"_#	c #2399CA",
":#	c #2488B4",
"<#	c #310C0F",
"[#	c #3C0000",
"}#	c #6F2423",
"|#	c #80625D",
"1#	c #6E6A5C",
"2#	c #514C39",
"3#	c #3D3620",
"4#	c #312A11",
"5#	c #2D2D23",
"6#	c #2A3645",
"7#	c #3D4654",
"8#	c #6C3739",
"9#	c #230000",
"0#	c #070D10",
"a#	c #2190C1",
"b#	c #2384AF",
"c#	c #2C0C0F",
"d#	c #660606",
"e#	c #793C3B",
"f#	c #796A61",
"g#	c #615B4B",
"h#	c #443F2B",
"i#	c #342B14",
"j#	c #302E27",
"k#	c #494E57",
"l#	c #6B2222",
"m#	c #150000",
"n#	c #070000",
"o#	c #030000",
"p#	c #040C0F",
"q#	c #2089B6",
"r#	c #217FA9",
"s#	c #260B0E",
"t#	c #410000",
"u#	c #5D0000",
"v#	c #691717",
"w#	c #76534F",
"x#	c #6A6459",
"y#	c #4F4A3A",
"z#	c #474131",
"A#	c #5C504B",
"B#	c #5E1010",
"C#	c #530000",
"D#	c #170000",
"E#	c #030C0F",
"F#	c #1E85B1",
"G#	c #1F7BA3",
"H#	c #220B0E",
"I#	c #290000",
"J#	c #5B0202",
"K#	c #692E2D",
"L#	c #72615A",
"M#	c #716D64",
"N#	c #663E3D",
"O#	c #2F0000",
"P#	c #090000",
"Q#	c #010000",
"R#	c #020B0E",
"S#	c #1C7FA8",
"T#	c #1B6E91",
"U#	c #190A0C",
"V#	c #540F0F",
"W#	c #5F2D2C",
"X#	c #4E0909",
"Y#	c #1B79A1",
"Z#	c #14516B",
"`#	c #0F0709",
" $	c #B1AAAA",
".$	c #FFFFFF",
"+$	c #E2DDDD",
"@$	c #3A1111",
"#$	c #907777",
"$$	c #F1EEEE",
"%$	c #583333",
"&$	c #413333",
"*$	c #ADAAAA",
"=$	c #EEEEEE",
"-$	c #454444",
";$	c #000000",
">$	c #02090C",
",$	c #186C90",
"'$	c #15536E",
")$	c #0C0709",
"!$	c #B0AAAA",
"~$	c #2A1111",
"{$	c #E1DDDD",
"]$	c #B5AAAA",
"^$	c #8A7777",
"/$	c #F0EEEE",
"($	c #4D3333",
"_$	c #483333",
":$	c #7C7777",
"<$	c #474444",
"[$	c #888888",
"}$	c #010709",
"|$	c #12516B",
"1$	c #0D3749",
"2$	c #060406",
"3$	c #AEAAAA",
"4$	c #100000",
"5$	c #837777",
"6$	c #453333",
"7$	c #797777",
"8$	c #010608",
"9$	c #114A63",
"0$	c #02080B",
"a$	c #AAAAAA",
"b$	c #DDDDDD",
"c$	c #777777",
"d$	c #343333",
"e$	c #787777",
"f$	c #000101",
"g$	c #041319",
"h$	c #02090B",
"i$	c #333333",
"j$	c #02070A",
"k$	c #111111",
"l$	c #444444",
"m$	c #030C10",
"n$	c #05161D",
"o$	c #041218",
"p$	c #010101",
"q$	c #000102",
"r$	c #000202",
"s$	c #000203",
"t$	c #010507",
"u$	c #0A2D3C",
"v$	c #08232E",
"w$	c #092632",
"x$	c #092733",
"y$	c #092734",
"z$	c #092835",
"A$	c #092836",
"B$	c #092936",
"C$	c #0A2A37",
"D$	c #0A2A38",
"E$	c #0A2B39",
"F$	c #0A2C3A",
"G$	c #0A2D3B",
"H$	c #0A2E3D",
"I$	c #0B2F3F",
"J$	c #0B3040",
"K$	c #0B3242",
"L$	c #0C3546",
"M$	c #0C384A",
"N$	c #0D3C50",
"O$	c #0F4156",
"P$	c #10465E",
"Q$	c #13536E",
"  . + + + + @ # # $ % & * = - ; > , ' ) ! ~ ~ ~ ~ ~ ~ ~ ~ ~ { ] ",
"^ / ( _ : < [ } | 1 2 3 4 5 6 7 8 9 0 a b c d e f g h i j k l m ",
"n o p q r s t u v w x y z A B C D E F G H I J K L M N O P Q R S ",
"+ ( T U V W X Y Z `  ...+.@.#.$.%.&.H *.=.L -.N ;.>.,.'.).!.~.{.",
"+ ].U ^./.(._.:.<.[.}.|.1.2.3.4.5.6.7.8.9.>.Q 0.a.).b.c.d.e.f.{.",
"+ g.^./.h.i.v j.k.l.m.n.o.p.q.r.s.t.u.v.w.x.y.z.A.B.C.D.E.F.G.H.",
"+ I./.h.u J.K.L. .M.N.O.#.P.Q.R.S.T.U.V.W.X.Y.Z.`. +.+++@+#+$+%+",
"@ [ (.u J.Z &+*+}.=+-+;+>+,+'+)+!+~+{+]+^+/+(+_+:+<+[+}+|+1+2+3+",
"@ } i.v Z &+[.y 4+5+6+7+8+9+0+a+b+;.c+d+e+f+g+h+i+j+k+l+7+m+n+o+",
"# p+v K.&+[.y q+r+s+t+l+u+v+w+x+y+z+A+B+C+D+E+j+F+G+H+2.I+J+K+- ",
"$ L+K.&+*+y q+N.1.m+M+F+N+O+P+Q+R+,.S+T+U+V+W+X+H+2.I+J+Y+Z+`+* ",
"$  @&+[.y q+N..@;+H+8++@@@#@$@%@&@*@=@-@;@k+>+>@B J+Y+Z+M.y ,@& ",
"% '@)@!@q+N..@;+H+P.~@{@]@^@/@(@_@:@<@;@k+M+2.O.n.|.[@y  .x 2 }@",
"% |@1@M.2@J+o.7+P.3@E+4@5@6@!+7@8@9@0@F+M+2.a@+.z b@c@d@&+w 1 % ",
"}@e@f@4+n.I+>@l+W+V+h+g+g@h@y+i@j@k@l@l+t+s+Y+m.y *+m@n@o@v | # ",
"p@3 q@r@s@t@u@v@w@x@y@z@A@B@C@D@E@F@X+G@@.Y+q+!@[.&+K.H@I@J@} # ",
"K@L@b@M@N@O@P@Q@R@S@T@U@V@W@X@Y@Z@X+#.I++.4+!@)@`@o@ #i.(..#+#@#",
"##$#y 4+%#&#*#=#-#;#>#,#'#)#!#~#{#G@I+5+4+!@)@`@]#^#X .#/#V (#_#",
":#<#[#q@Z++.}#|#1#2#3#4#5#6#7#8#;+1.r+..l.x <.9#_.(.W s r U 0#a#",
"b#c#d@l.[@|.n.d#e#f#g#h#i#j#k#l#.@N.m.y d@`@:.^#m#W V n#T o#p#q#",
"r#s#&+)@t#[@=+Y+u#v#w#x#y#z#A#B#C#..!@[.&+Z Y D#.#s n#T p p E#F#",
"G#H#I#&+)@1@q@m.|.Y+J#K#L#M#N#z M.t#)@O#Z  #J@t /#P#q o#p Q#R#S#",
"T#U# #o@<.m@[.t#b@[@m.4+V#W#X#}.c@)@&+I#v i.(.W V n#T p p Q#R#Y#",
"Z#`#t  $.$.$.$+$@$#$$$m@k.m@L.%$.$.$.$.$.$&$/.*$.$.$=$-$Q#;$>$,$",
"'$)$W !$ $J@~${$]$^$/$]#]#:.H@($.$_$m#t /.V :$=$<$p [$-$;$;$}$|$",
"1$2$r *$3$/.4$!$ $5$/$J@u u J@6$.$&$W /#^.r =$7$o#p Q#;$;$;$8$9$",
"0$;$;$a$b$a$a$.$c$c$=$;$Q#Q#Q#d$.$.$.$.$d$Q#=$e$c$.$.$c$;$;$f$g$",
"h$;$;$a$b$b$.$c$;$c$=$;$;$;$;$i$.$i$;$;$;$;$=$c$;$;$=$c$;$;$;$j$",
">$;$;$a$a$k$b$b$k$c$=$;$;$;$;$i$.$i$;$;$;$;$c$=$l$;$=$c$;$;$;$m$",
"E#;$;$a$a$;$k$b$a$c$.$.$.$.$=$i$.$.$.$.$.$i$;$a$.$.$.$c$;$;$f$n$",
"o$f$f$f$f$p$p$p$p$p$p$p$p$p$p$p$p$p$p$p$p$p$f$q$q$q$q$r$s$s$t$u$",
"u$v$w$x$y$z$A$B$C$D$D$D$E$F$F$F$F$G$G$u$u$u$H$I$J$K$L$M$N$O$P$Q$"};
