/* XPM */
static char * slSpine_xpm[] = {
"32 32 338 2",
"  	c #27A0D3",
". 	c #259ED1",
"+ 	c #259DD0",
"@ 	c #28A0D2",
"# 	c #33AADA",
"$ 	c #32A9D9",
"% 	c #2CA3D5",
"& 	c #25A0D4",
"* 	c #061B24",
"= 	c #030E12",
"- 	c #061316",
"; 	c #40574D",
"> 	c #6B8371",
", 	c #647C6D",
"' 	c #5B7164",
") 	c #08161A",
"! 	c #030B0F",
"~ 	c #000000",
"{ 	c #000101",
"] 	c #050908",
"^ 	c #101E18",
"/ 	c #224034",
"( 	c #3F755F",
"_ 	c #3C745E",
": 	c #326450",
"< 	c #31634F",
"[ 	c #387159",
"} 	c #417B63",
"| 	c #25473A",
"1 	c #0F1E18",
"2 	c #050907",
"3 	c #040907",
"4 	c #0A1410",
"5 	c #182E25",
"6 	c #346350",
"7 	c #519B7C",
"8 	c #59A888",
"9 	c #55A080",
"0 	c #48896D",
"a 	c #3F775E",
"b 	c #3C7158",
"c 	c #3C7059",
"d 	c #40765E",
"e 	c #47866A",
"f 	c #529D7E",
"g 	c #58A786",
"h 	c #4F977A",
"i 	c #33624F",
"j 	c #162A22",
"k 	c #08100D",
"l 	c #020404",
"m 	c #0B1D1E",
"n 	c #0D1A14",
"o 	c #1A3229",
"p 	c #294E3F",
"q 	c #396F59",
"r 	c #4D9276",
"s 	c #59A988",
"t 	c #5DAE8C",
"u 	c #58A686",
"v 	c #549D7E",
"w 	c #519779",
"x 	c #4B8E71",
"y 	c #478369",
"z 	c #437C62",
"A 	c #20BB30",
"B 	c #0FE115",
"C 	c #2EA644",
"D 	c #478468",
"E 	c #4C8E71",
"F 	c #509779",
"G 	c #539D7D",
"H 	c #5CB08D",
"I 	c #59A787",
"J 	c #48886E",
"K 	c #32614E",
"L 	c #203F33",
"M 	c #13241D",
"N 	c #0C1814",
"O 	c #08171A",
"P 	c #3A7666",
"Q 	c #569F80",
"R 	c #559F7F",
"S 	c #539B7B",
"T 	c #509374",
"U 	c #4A896C",
"V 	c #478266",
"W 	c #457F63",
"X 	c #468065",
"Y 	c #49866B",
"Z 	c #4B896D",
"` 	c #49886B",
" .	c #478368",
"..	c #457F65",
"+.	c #04F706",
"@.	c #00FF00",
"#.	c #11DF19",
"$.	c #49876B",
"%.	c #4B8A6F",
"&.	c #4A886C",
"*.	c #478367",
"=.	c #468265",
"-.	c #49876A",
";.	c #4D8E70",
">.	c #529878",
",.	c #56A080",
"'.	c #52997A",
").	c #448773",
"!.	c #2B5246",
"~.	c #345B45",
"{.	c #31543F",
"].	c #2D4D38",
"^.	c #2C4834",
"/.	c #2A4533",
"(.	c #2A4633",
"_.	c #2E4D38",
":.	c #365D46",
"<.	c #407359",
"[.	c #467F65",
"}.	c #478267",
"|.	c #478166",
"1.	c #468066",
"2.	c #15D91E",
"3.	c #01FE01",
"4.	c #23C034",
"5.	c #468266",
"6.	c #488467",
"7.	c #42785E",
"8.	c #38644C",
"9.	c #30513B",
"0.	c #2C4935",
"a.	c #2B4935",
"b.	c #2D4C38",
"c.	c #30513C",
"d.	c #325842",
"e.	c #365F48",
"f.	c #3A6D5B",
"g.	c #0D1E1D",
"h.	c #0E140C",
"i.	c #0C0F0A",
"j.	c #0B0F09",
"k.	c #090D08",
"l.	c #090C07",
"m.	c #090E08",
"n.	c #0D140C",
"o.	c #1B2B1D",
"p.	c #355C46",
"q.	c #41765C",
"r.	c #457E63",
"s.	c #448562",
"t.	c #428860",
"u.	c #458363",
"v.	c #468164",
"w.	c #457E64",
"x.	c #437A5E",
"y.	c #39654D",
"z.	c #213526",
"A.	c #0F150E",
"B.	c #0B1009",
"C.	c #0B100A",
"D.	c #0D120B",
"E.	c #10160F",
"F.	c #142723",
"G.	c #000100",
"H.	c #101A13",
"I.	c #3B6850",
"J.	c #42785D",
"K.	c #447D62",
"L.	c #467F64",
"M.	c #468165",
"N.	c #468166",
"O.	c #458065",
"P.	c #437A5F",
"Q.	c #3E6F55",
"R.	c #1B2E22",
"S.	c #010201",
"T.	c #20382B",
"U.	c #457F64",
"V.	c #437C61",
"W.	c #2D503D",
"X.	c #020302",
"Y.	c #070C09",
"Z.	c #3B6A51",
"`.	c #41755B",
" +	c #437B60",
".+	c #31A247",
"++	c #22C031",
"@+	c #399152",
"#+	c #3F7056",
"$+	c #111E16",
"%+	c #010202",
"&+	c #305541",
"*+	c #41775D",
"=+	c #11DD17",
"-+	c #407459",
";+	c #3B674F",
">+	c #050806",
",+	c #233F32",
"'+	c #42765B",
")+	c #13D61B",
"!+	c #20B92E",
"~+	c #417359",
"{+	c #305843",
"]+	c #020403",
"^+	c #1A3025",
"/+	c #457C60",
"(+	c #42775C",
"_+	c #3E7A59",
":+	c #3C7C56",
"<+	c #407759",
"[+	c #43795E",
"}+	c #274838",
"|+	c #172A21",
"1+	c #488267",
"2+	c #457D61",
"3+	c #42795E",
"4+	c #447A5E",
"5+	c #234133",
"6+	c #2396C7",
"7+	c #1A2E25",
"8+	c #467E63",
"9+	c #437F5F",
"0+	c #40835C",
"a+	c #447F60",
"b+	c #4A866A",
"c+	c #29493A",
"d+	c #228DBA",
"e+	c #030D10",
"f+	c #234032",
"g+	c #4A8A6C",
"h+	c #14C91D",
"i+	c #01E801",
"j+	c #23B533",
"k+	c #49856A",
"l+	c #345F4C",
"m+	c #249ACB",
"n+	c #1D7CA5",
"o+	c #030B0E",
"p+	c #325E4B",
"q+	c #447E65",
"r+	c #427961",
"s+	c #04CB06",
"t+	c #00CF00",
"u+	c #10BA18",
"v+	c #437F64",
"w+	c #427A63",
"x+	c #050807",
"y+	c #2291C0",
"z+	c #186383",
"A+	c #02090B",
"B+	c #060D0A",
"C+	c #386954",
"D+	c #376853",
"E+	c #376753",
"F+	c #1D852A",
"G+	c #0C9713",
"H+	c #267B3A",
"I+	c #396B55",
"J+	c #3B7059",
"K+	c #11201B",
"L+	c #1E7EA7",
"M+	c #11475F",
"N+	c #010608",
"O+	c #11211A",
"P+	c #2B5040",
"Q+	c #294D3E",
"R+	c #2A4F40",
"S+	c #2A4F3F",
"T+	c #2B5141",
"U+	c #2B5242",
"V+	c #2D5443",
"W+	c #1F3B2E",
"X+	c #010101",
"Y+	c #02080A",
"Z+	c #186586",
"`+	c #0B2C3A",
" @	c #010304",
".@	c #0F1C17",
"+@	c #182D23",
"@@	c #182D24",
"#@	c #182E24",
"$@	c #192F25",
"%@	c #193026",
"&@	c #1A3227",
"*@	c #1B3228",
"=@	c #1A3328",
"-@	c #172B24",
";@	c #020202",
">@	c #010507",
",@	c #10475D",
"'@	c #06171E",
")@	c #000202",
"!@	c #040608",
"~@	c #060A0A",
"{@	c #070D0C",
"]@	c #080F0D",
"^@	c #08100E",
"/@	c #080F0E",
"(@	c #070C0C",
"_@	c #05080A",
":@	c #020203",
"<@	c #010203",
"[@	c #092734",
"}@	c #000001",
"|@	c #010102",
"1@	c #051218",
"2@	c #121618",
"3@	c #DDDDDD",
"4@	c #FFFFFF",
"5@	c #111111",
"6@	c #777777",
"7@	c #EEEEEE",
"8@	c #444444",
"9@	c #333333",
"0@	c #AAAAAA",
"a@	c #02080B",
"b@	c #AAACAC",
"c@	c #010506",
"d@	c #AAABAB",
"e@	c #010406",
"f@	c #111112",
"g@	c #888888",
"h@	c #111212",
"i@	c #000203",
"j@	c #030D11",
"k@	c #02090C",
"l@	c #020A0D",
"m@	c #020A0E",
"n@	c #030C10",
"o@	c #030C11",
"p@	c #030E13",
"q@	c #030F14",
"r@	c #041015",
"s@	c #041218",
"t@	c #05141A",
"u@	c #05171F",
"v@	c #08202A",
"w@	c #0B2D3B",
"  . + + + + + + + + + + + + @ # $ % + + + + + + + + + + + + .   ",
"& * = = = = = = = = = = = - ; > , ' ) = = = = = = = = = = = * & ",
"+ ! ~ ~ ~ ~ ~ ~ ~ { ] ^ / ( _ : < [ } | 1 2 { ~ ~ ~ ~ ~ ~ ~ ! + ",
"+ = ~ ~ ~ { 3 4 5 6 7 8 9 0 a b c d e f g h i j k l ~ ~ ~ ~ = + ",
"+ m n o p q r s t u v w x y z A B C D E F G g H I J K L M N O + ",
"+ P Q R S T U V W X Y Z `  ...+.@.#. .$.%.&.*.=.-.;.>.R ,.'.).+ ",
"+ !.~.{.].^./.(._.:.<.[.}.|.1.2.3.4.5.6.=.7.8.9.0.a.b.c.d.e.f.+ ",
"+ g.h.i.j.k.l.m.n.o.p.q.r.[.[.s.t.u.v.w.x.y.z.A.j.B.B.C.D.E.F.+ ",
"+ = ~ ~ ~ ~ ~ ~ ~ G.H.I.J.K.L.M.N.O.W P.Q.R.S.~ ~ ~ ~ ~ ~ ~ = + ",
"+ = ~ ~ ~ ~ ~ ~ ~ ~ ~ T.<.P.r.L.L.U.V.q.W.X.~ ~ ~ ~ ~ ~ ~ ~ = + ",
"+ = ~ ~ ~ ~ ~ ~ ~ ~ ~ Y.Z.`. +.+++@+J.#+$+~ ~ ~ ~ ~ ~ ~ ~ ~ = + ",
"+ = ~ ~ ~ ~ ~ ~ ~ ~ ~ %+&+<.*++.@.=+-+;+>+~ ~ ~ ~ ~ ~ ~ ~ ~ = + ",
"+ = ~ ~ ~ ~ ~ ~ ~ ~ ~ ~ ,+'+`.)+3.!+~+{+]+~ ~ ~ ~ ~ ~ ~ ~ ~ = + ",
"+ = ~ ~ ~ ~ ~ ~ ~ ~ ~ ~ ^+/+(+_+:+<+[+}+~ ~ ~ ~ ~ ~ ~ ~ ~ ~ = + ",
"+ = ~ ~ ~ ~ ~ ~ ~ ~ ~ ~ |+1+2+P.3+4+V 5+~ ~ ~ ~ ~ ~ ~ ~ ~ ~ = + ",
"6+= ~ ~ ~ ~ ~ ~ ~ ~ ~ ~ 7+&.8+9+0+a+b+c+~ ~ ~ ~ ~ ~ ~ ~ ~ ~ = + ",
"d+e+~ ~ ~ ~ ~ ~ ~ ~ ~ ~ f+g+X h+i+j+k+l+S.~ ~ ~ ~ ~ ~ ~ ~ ~ = m+",
"n+o+~ ~ ~ ~ ~ ~ ~ ~ ~ S.p+q+r+s+t+u+v+w+x+~ ~ ~ ~ ~ ~ ~ ~ ~ e+y+",
"z+A+~ ~ ~ ~ ~ ~ ~ ~ ~ B+C+D+E+F+G+H+I+J+K+~ ~ ~ ~ ~ ~ ~ ~ ~ o+L+",
"M+N+~ ~ ~ ~ ~ ~ ~ ~ ~ O+P+Q+p R+S+T+U+V+W+X+~ ~ ~ ~ ~ ~ ~ ~ Y+Z+",
"`+ @~ ~ ~ ~ ~ ~ ~ ~ ~ .@+@@@#@$@%@&@*@=@-@;@~ ~ ~ ~ ~ ~ ~ ~ >@,@",
"'@)@~ ~ ~ ~ ~ ~ ~ ~ { !@~@{@]@^@/@/@]@(@_@:@~ ~ ~ ~ ~ ~ ~ ~ <@[@",
"o+~ ~ ~ ~ ~ ~ ~ ~ ~ }@|@|@|@|@|@;@;@;@;@;@|@~ ~ ~ ~ ~ ~ ~ ~ { 1@",
"2@3@4@4@3@5@6@4@4@4@7@8@~ 9@4@4@4@9@~ 7@0@~ ~ 7@6@7@4@4@4@4@6@a@",
"b@3@5@5@3@0@6@7@~ ~ 0@7@~ ~ 9@4@9@~ ~ 7@7@8@~ 7@6@7@6@~ ~ ~ ~ c@",
"d@3@5@~ ~ ~ 6@7@~ ~ 6@7@~ ~ 9@4@9@~ ~ 7@3@7@~ 7@6@7@6@~ ~ ~ ~ e@",
"f@3@4@4@3@5@6@7@0@0@7@0@~ ~ 9@4@9@~ ~ 7@6@7@6@7@6@7@4@4@4@6@~ { ",
"}@~ ~ 5@3@0@6@7@0@0@g@~ ~ ~ 9@4@9@~ ~ 7@6@6@7@7@6@7@6@~ ~ ~ ~ }@",
"0@3@5@5@3@0@6@7@~ ~ ~ ~ ~ ~ 9@4@9@~ ~ 7@6@~ 0@4@6@7@6@~ ~ ~ ~ { ",
"h@3@4@4@3@5@6@7@~ ~ ~ ~ ~ 9@4@4@4@9@~ 7@6@~ 8@7@6@7@4@4@4@4@6@ @",
"i@~ ~ ~ ~ ~ ~ ~ ~ ~ ~ ~ ~ ~ ~ ~ ~ ~ ~ ~ ~ ~ ~ ~ ~ ~ ~ ~ ~ ~ { j@",
"j@a@k@l@l@m@o+o+! ! ! ! n@o@o@o@o@j@j@j@j@j@= p@q@r@s@t@u@* v@w@"};
