/* XPM */
static char *thirds[] =
{
/* width height ncolors chars_per_pixel */
"32 32 67 2",
/* colors */
"AA c #FFFFFFFFFFFF",
"BA c #EFEF63636363",
"CA c #EFEF4A4A4A4A",
"DA c #E7E78C8C8484",
"EA c #E7E75A5A5A5A",
"FA c #E7E739394242",
"GA c #DEDE9C9C9C9C",
"HA c #DEDE94948C8C",
"IA c #DEDE8C8C8C8C",
"JA c #DEDE73737373",
"KA c #D6D6ADADADAD",
"LA c #CECECECECECE",
"MA c #CECEADADADAD",
"NA c #CECE94949C9C",
"OA c #CECE84848C8C",
"PA c #CECE73737B7B",
"AB c #C6C67B7B8484",
"BB c #C6C66B6B7B7B",
"CB c #BDBDD6D6D6D6",
"DB c #BDBDCECECECE",
"EB c #BDBDBDBDBDBD",
"FB c #BDBD94949C9C",
"GB c #BDBD7B7B8484",
"HB c #BDBD63637373",
"IB c #ADADBDBDC6C6",
"JB c #ADADB5B5BDBD",
"KB c #ADADADADBDBD",
"LB c #ADAD5A5A6B6B",
"MB c #A5A5A5A5ADAD",
"NB c #9C9CA5A5B5B5",
"OB c #9C9C9C9CADAD",
"PB c #9C9C6B6B8484",
"AC c #9C9C63637373",
"BC c #9C9C21214242",
"CC c #94944A4A6B6B",
"DC c #8C8C9494BDBD",
"EC c #8C8C9494ADAD",
"FC c #8C8C94949C9C",
"GC c #8C8C52527373",
"HC c #8C8C42425A5A",
"IC c #84848C8C9C9C",
"JC c #848463637B7B",
"KC c #7B7B8C8CADAD",
"LC c #7B7B7B7B9C9C",
"MC c #7B7B7B7B8484",
"NC c #7B7B31315A5A",
"OC c #73737B7BADAD",
"PC c #737329295A5A",
"AD c #6B6B73739494",
"BD c #6B6B6B6B9C9C",
"CD c #6B6B6B6B8C8C",
"DD c #6B6B39396363",
"ED c #6B6B21214242",
"FD c #5A5A63639494",
"GD c #5A5A63638C8C",
"HD c #5A5A63637B7B",
"ID c #5A5A5A5A8484",
"JD c #5A5A5A5A7373",
"KD c #525252529494",
"LD c #4A4A5A5A8C8C",
"MD c #4A4A4A4A7B7B",
"ND c #42424A4A6B6B",
"OD c #393942428C8C",
"PD c #393942427B7B",
"AE c #313139396B6B",
"BE c #292942428C8C",
"CE c #292931316B6B",
/* pixels */
"LALALALADBKABACBLALALALALALALALALALALALALALALADBGAGADBLALALALALA",
"LAEBEBEBEBMABALAEBEBEBEBEBEBEBEBEBEBEBEBEBEBEBDBIAOALAEBEBEBEBLA",
"LAEBLAEBLANABBLADBEBLAEBLAEBLAEBLAEBLAEBLAEBEBLAOAHADBEBLAEBEBLA",
"EBLAEBDBEBMABADBEBLAEBEBEBLAEBEBEBLAEBEBEBLAEBDBHAOAEBLAEBLAEBLA",
"LAEBEBEBLANABADBEBEBLAEBLAEBLAEBLAEBLAEBLAEBLAEBHANADBEBEBEBLAEB",
"EBLAEBLACBFBBADBEBLAEBLAEBEBEBLAEBEBEBLAEBEBEBDBHAIADBLAEBLAEBLA",
"LAEBLAEBLAMABADBLAEBEBEBLAEBLAEBEBLAEBEBLAEBLAKBCCCCEBEBLAEBEBLA",
"EBLAEBEBDBFBBADBEBLAEBLAEBLAEBEBLAEBEBLAEBLAECPDEDHBDBLAEBLAEBLA",
"LADBDBLADBMABBLADBDBDBDBDBEBDBDBDBDBLADBJBDCADNBOAFBCBDBEBDBDBDB",
"IAIAJAIAOABACAIAOAJAIAJAJAIAIAJAIAJAIAHBLBLBIAIABBBAIAPAHBHBJAIA",
"IAOAIAOAIAJACAOAIAOAIAOAHAOAIAOAIAHANCPCABHBOAOABABAHAACHCGBGAIA",
"DBDBDBDBDBEBBACBDBDBDBDBDBDBDBLADBECLDJBECDCKCCBHAHAIBLDKCDBDBLA",
"LAEBEBLAEBHABBLADBMADBEBEBLAEBLAOBMDMBJBLCKBMCIBHANAFDADLAEBEBLA",
"LAEBLAEBLAFBBACBMADBLAEBLAEBLAOBCECDLAKCLCHDECLANACCGDLAEBLAEBLA",
"LAEBEBLADBMABADBDBEBEBLAEBEBLAMBCDOBLCAELCEBLADBPANCNBDBEBEBLAEB",
"LAEBLAEBDBHABACBMADBMAEBLAEBLAMBOBAAEBCDEBLAMBOCDDGBLAEBEBLAEBLA",
"LAEBEBDBEBFBJADBDBMACBEBEBLAEBFCKBCBLAMCOCBDKDECOAHADBLAEBEBLAEB",
"EBLADBMADBMABACBMADBEBLAEBEBECJDOBOBJCCDAELCMBDBHAOADBEBEBLAEBLA",
"LAEBLADBEBMABADBDBLALAEBOBICOBNDAEJCFCEBKBEBLADBIAHADBEBLAEBEBLA",
"EBLAEBEBDBHABADBLAEBICIDNDOBEBHDJCDBLAEBLALAEBDBHAOALAEBEBLAEBLA",
"LAEBLAEBDBMABADBMBCDCDIDBDCDJDMCDBEBDBEBEBEBLAEBOAGADBEBLAEBEBLA",
"EBLAEBEBDBFBBCODIDCDICOBCDNDCDLAEBLAEBLAEBLAEBDBHAOAEBLAEBEBEBLA",
"LAEBDBLAMBJCBCBEODOBDBLCMDCDDBDBLAEBDBEBLADBDBDBNAHADBDBLADBLAEB",
"GANANAHANAHBEAPBGCDDDDNCJCGANAHANAHAGANAHANAHAGAJAJANANAHAGAOAKA",
"IAIAIAPAHAJAFAPAHAIAPAPADAIAIAPAIAPAIAIAPAIAPAIAEABAOAIAPAIAIAJA",
"DBDBDBCBDBMABACBLADBDBLADBDBDBDBDBDBDBDBDBDBDBCBNAHADBDBDBDBDBCB",
"LAEBEBLADBNABACBEBEBLAEBEBEBEBLAEBEBEBEBLAEBLAEBHAOADBEBLAEBEBLA",
"DBMALAEBDBFBBADBEBLAEBEBLAEBLAEBEBLAEBLAEBLAEBDBOAHADBLAEBEBEBLA",
"LADBEBEBLAMABADBDBEBLAEBEBLAEBLAEBEBLAEBEBEBLADBOAHADBEBLAEBLAEB",
"LAEBEBLADBFBBADBEBLAEBEBLAEBLAEBEBLAEBEBLAEBEBDBHAOALAEBEBLAEBLA",
"LAEBLAEBLAMABADBEBEBLAEBEBEBEBLAEBEBLAEBEBLAEBLAOAHADBEBEBEBLAEB",
"EBLADBMADBMABADBLALAEBLALALALAEBLALAEBLALAEBLADBHAOADBLALALAEBLA",
};
