/* XPM */
static char *trunk[] = {
/* columns rows colors chars-per-pixel */
"32 32 256 2",
"   c #020202",
".  c #0C0C0C",
"X  c #100F0F",
"o  c #131313",
"O  c #1A1A1A",
"+  c #1C1515",
"@  c #1F1F20",
"#  c #201C1B",
"$  c #2B1C1C",
"%  c #381F1F",
"&  c #32201F",
"*  c #232323",
"=  c #272827",
"-  c #272828",
";  c #282827",
":  c #2B2B2B",
">  c #2B2223",
",  c #322323",
"<  c #3B2525",
"1  c #3D2A29",
"2  c #343434",
"3  c #39393A",
"4  c #3F5051",
"5  c #5C1412",
"6  c #422D2D",
"7  c #4A2120",
"8  c #4B2C2A",
"9  c #493434",
"0  c #4A3737",
"q  c #522F2E",
"w  c #503635",
"e  c #543A38",
"r  c #7A0602",
"t  c #7B0906",
"y  c #6F211F",
"u  c #692121",
"i  c #623534",
"p  c #732321",
"a  c #712D2C",
"s  c #763836",
"d  c #424242",
"f  c #4B4B4B",
"g  c #455556",
"h  c #554241",
"j  c #5A4847",
"k  c #535353",
"l  c #565959",
"z  c #5F5050",
"x  c #5B5B5C",
"c  c #624C4C",
"v  c #645655",
"b  c #695959",
"n  c #6B5655",
"m  c #725959",
"M  c #605F60",
"N  c #6C605F",
"B  c #646464",
"V  c #676868",
"C  c #686867",
"Z  c #6C6C6C",
"A  c #716F6F",
"S  c #76706E",
"D  c #727272",
"F  c #7B7B7B",
"G  c #7A7271",
"H  c #7E7F80",
"J  c #890702",
"K  c #8A0B06",
"L  c #810B08",
"P  c #960C08",
"I  c #980602",
"U  c #9A0C08",
"Y  c #920602",
"T  c #90120F",
"R  c #941A18",
"E  c #981614",
"W  c #9C1B16",
"Q  c #99211E",
"!  c #842421",
"~  c #962725",
"^  c #9C2626",
"/  c #AF0C06",
"(  c #A80D08",
")  c #A20B07",
"_  c #AC110C",
"`  c #B40B05",
"'  c #B40E08",
"]  c #BB0C06",
"[  c #BA0F09",
"{  c #B1120D",
"}  c #BB120D",
"|  c #B31510",
" . c #BB1813",
".. c #B21E1C",
"X. c #A72B29",
"o. c #AD3331",
"O. c #B62420",
"+. c #875252",
"@. c #9D4F4C",
"#. c #8C6462",
"$. c #9F7674",
"%. c #B14440",
"&. c #A9615E",
"*. c #AA6F6D",
"=. c #A26B6A",
"-. c #B26764",
";. c #B07170",
":. c #BD7674",
">. c #A87775",
",. c #C40C06",
"<. c #C40E08",
"1. c #CC0300",
"2. c #CD0C06",
"3. c #CD0E09",
"4. c #C2100A",
"5. c #CC100A",
"6. c #CD1A15",
"7. c #CC1E19",
"8. c #C21B16",
"9. c #D20C05",
"0. c #D50F08",
"q. c #DF0B04",
"w. c #DB0F08",
"e. c #D5120B",
"r. c #DE120B",
"t. c #D71711",
"y. c #D41B15",
"u. c #DC1410",
"i. c #DB1B14",
"p. c #C1231D",
"a. c #D3211B",
"s. c #DA211B",
"d. c #CC2922",
"f. c #C1322F",
"g. c #C83A36",
"h. c #C93531",
"j. c #D72620",
"k. c #DB2720",
"l. c #DA2F29",
"z. c #D92925",
"x. c #D7312C",
"c. c #DC302A",
"v. c #DF3A34",
"b. c #D73631",
"n. c #E10500",
"m. c #E50E09",
"M. c #EB0600",
"N. c #E6130C",
"B. c #EB110A",
"V. c #E01510",
"C. c #E41B15",
"Z. c #E01F19",
"A. c #F11E16",
"S. c #E0211B",
"D. c #EA211B",
"F. c #F3231C",
"G. c #E12B25",
"H. c #E52722",
"J. c #EC322C",
"K. c #E1342E",
"L. c #E53630",
"P. c #E23A34",
"I. c #EE3730",
"U. c #EB3B34",
"Y. c #E33E3A",
"T. c #F42C25",
"R. c #F5332C",
"E. c #F23731",
"W. c #F53B35",
"Q. c #F23F38",
"!. c #F83730",
"~. c #DE403D",
"^. c #E6413B",
"/. c #EC423C",
"(. c #F3413B",
"). c #F9423B",
"_. c #CF4844",
"`. c #C44C47",
"'. c #C55854",
"]. c #D04B46",
"[. c #DC504A",
"{. c #C96A67",
"}. c #C36F6D",
"|. c #C9726F",
" X c #DA6260",
".X c #D87977",
"XX c #EB4741",
"oX c #EA4842",
"OX c #EB4E48",
"+X c #E44541",
"@X c #EC524C",
"#X c #E1534E",
"$X c #EF5651",
"%X c #EB5B56",
"&X c #E65C58",
"*X c #F44640",
"=X c #F44A44",
"-X c #F54E48",
";X c #F84E48",
":X c #F5524C",
">X c #F65550",
",X c #F65A55",
"<X c #F65E59",
"1X c #FA5852",
"2X c #EF625D",
"3X c #F5615C",
"4X c #F9625C",
"5X c #E66E69",
"6X c #E86763",
"7X c #E46966",
"8X c #E77875",
"9X c #EF7570",
"0X c #F56661",
"qX c #F76B66",
"wX c #F06D69",
"eX c #F96762",
"rX c #F86A66",
"tX c #F96F6A",
"yX c #F3726D",
"uX c #F8726D",
"iX c #F47572",
"pX c #F57874",
"aX c #F67E7A",
"sX c #F87571",
"dX c #F87973",
"fX c #F87D79",
"gX c #80807F",
"hX c #F8837E",
"jX c #858585",
"kX c #8B8B8B",
"lX c #8B8584",
"zX c #989494",
"xX c #9F9D9D",
"cX c #A29D9D",
"vX c #A5A1A0",
"bX c #AAA5A5",
"nX c #ACACAC",
"mX c #ADAFB2",
"MX c #ADB1B2",
"NX c gray69",
"BX c #B7BEC0",
"VX c #CB8987",
"CX c #D28A88",
"ZX c #DA8E8D",
"AX c #C3B1B0",
"SX c #DAB0AE",
"DX c #D3B6B7",
"FX c #F88581",
"GX c #C4C9CB",
"HX c #CCDCDD",
"JX c gray87",
"KX c #D5DBDD",
"LX c #CDE5E7",
"PX c #EEEEEE",
"IX c #E2ECED",
"UX c gray100",
/* pixels */
"jXjXjXjXjXjXjXjXjXjXjXjXkXkXkXjXjXjXjXjXjXjXjXjXjXjXjXjXjXjXjXkX",
"gXgXH F gXgXH gXF F H kXbXcXbXcXcXkXgXF H F H H H gXH H H H F gX",
"F F F F F F F F F F F kXD B B F F xXzXF F F F F F F F F F F F F ",
"D D A D D A D A D D D Z d D D A V D zXb D D A D A A A A A D A D ",
"Z Z Z Z Z A $.}.{.|.;.#.g G Z Z Z Z C l Z Z Z Z Z Z Z Z Z Z Z A ",
"V V B B C .XaXaXdXqX<X#XAXCX].'.&.lX4 v V V B V V V V V V B V V ",
"B B M B =.:X3XqXiXdXiX<X3X3X:XQ.%XDXs O.g.%.@.+.m N M M M B M B ",
"x l x N 8X,X:X:X-X-X-X*XW.(.*X-X>X-X=XXXP.G.s.y.5.d.`.*.x x x x ",
"l l l v 9XFXhXhXiX3X$X/.H.Z.D.D.J.J.I.I.L.I.U.L.~.@XuXhX>.k l l ",
"k f f z 2X3X3XqXyXpXaXhXiX3XOXL.S.S.i.u.N.r.N.S.(.*X,X4XpXb f k ",
"f f f j @X,X,X,X,X<X<X3XeXtXpXpXpXwX%X^.l.6.<.c.R.W.(.-X3Xn f f ",
"d f d h oX:X;X;X:X:X>X>XOX;X1X,X3X4XqXuXyXyX6XP.F.F.R.W.oXn d d ",
"d 0 4 9 x.Y.XX=X=X*X).yXDXVX[.;X:X:X:X1X:X1XeXv.S.D.F.T.(.c 3 0 ",
"3 3 3 0 m.B.C.H.K.Y.U.7XKXHX:.!.).(.(.=X=X=X1Xb.y.s.D.F.I.j 3 3 ",
"3 2 2 9 u.B.B.B.B.N.m. XMXMX|.U.Q.W.W.W.).W.;Xx.} a.s.k.x.h 3 3 ",
"2 2 2 1 u.N.N.N.B.N.M.&XMXGX-.i.k.v.~.U.I.R.).o._ O.p.e.S.e : 2 ",
": : : 1 e.r.r.r.r.r.q.~.IXLX-.n.w.w.e.y.a.a.v.o.U { ,.2.i.w : : ",
": - - < 3.0.e.e.e.e.0.u.7XZX].9.e.e.e.w.0.2.a.X.I ( ' ,.7.6 ; : ",
"* * * > ..5.2.2.3.5.3.3.1.1.2.5.5.5.5.5.5.2.a.X.J P ) /  .6 * * ",
"* * @ @ > 8 a ~ | 4.,.,.<.<.4.4.4.4.4.4.4.,.7.^ J K P ) _ < @ * ",
"O O O O O O O O # 7 a Q } ] ] ] ] [ [ [ [ ] 8.Q r L K J E & O O ",
"O O O O O O O O O O O O , w y W { ` ` ` ' '  .R r r L y & O O O ",
"o o o o o o o o o o o o o o o # < 7 p W _ ` ' T t 5 $ o o o o o ",
"o X . 4 UXUXUXUXd H UXUXUXNXo o o X o + < i ! p % o X o o o o o ",
"X X X . X nXNXX . gXPX. k PXH . . X X o . X o . . . . X X . X X ",
". . . . . nXnX. . F PX. f PXF . O nXnXnXO . kXk . f kX. . . . . ",
"  .   . . nXnX. . F UXUXUXPXf O IXJXnXJXIX+ nXPXF PXnX. .   .   ",
"  . .     nXnX    F PX.   nXPX3 UX2   3 UX2   nXUXnX.     .   . ",
"          nXnX    F PX    nXPX3 UXF   F UX3 d PXPXPXd     .     ",
"          nXnX    D UXUXUXPXd   G UXUXUXD   PXnX  nXPX          ",
"                                                                ",
"                                                                "
};
