/* XPM */
static char *tween[] = {
/* columns rows colors chars-per-pixel */
"32 32 176 2",
"   c #020202",
".  c #0C0C0C",
"X  c #141414",
"o  c #1A1A1A",
"O  c #1F1F20",
"+  c #1F201F",
"@  c #201F1F",
"#  c #21201B",
"$  c #242424",
"%  c #272728",
"&  c #272B27",
"*  c #272828",
"=  c #282727",
"-  c #282728",
";  c #282827",
":  c #2C2C2B",
">  c #332F21",
",  c #36332E",
"<  c #3B3526",
"1  c #38362E",
"2  c #333333",
"3  c #3A3836",
"4  c #3A3A3A",
"5  c #274927",
"6  c #3F403F",
"7  c #216320",
"8  c #3F4040",
"9  c #41381D",
"0  c #413A24",
"q  c #423B32",
"w  c #403F40",
"e  c #4D4433",
"r  c #514528",
"t  c #52492E",
"y  c #514A3B",
"u  c #604D3C",
"i  c #665F2D",
"p  c #6A5431",
"a  c #79562D",
"s  c #715D36",
"d  c #786129",
"f  c #434343",
"g  c #484747",
"h  c #4B4A4B",
"j  c #495149",
"k  c #564B40",
"l  c #5D4E40",
"z  c #5B5149",
"x  c #535353",
"c  c #5E5854",
"v  c #5B5B5B",
"b  c #457645",
"n  c #457845",
"m  c #497C4A",
"M  c #566557",
"N  c #546855",
"B  c #5C6A5C",
"V  c #6A5542",
"C  c #685D52",
"Z  c #765C42",
"A  c #7B5E44",
"S  c #69635D",
"D  c #7D715E",
"F  c #656565",
"G  c #6C6C6C",
"H  c #77726B",
"J  c #7F776C",
"K  c #727272",
"L  c #7A7775",
"P  c #7C7C7B",
"I  c #7E7F80",
"U  c #148414",
"Y  c #129312",
"T  c #0FA00F",
"R  c #0FA110",
"E  c #0CBD0C",
"W  c #10A110",
"Q  c #13AD13",
"!  c #26AB26",
"~  c #2DAE2D",
"^  c #29BE28",
"/  c #06D106",
"(  c #08D108",
")  c #1BD70F",
"_  c #15D215",
"`  c #15DA15",
"'  c #04E404",
"]  c #0BEC0B",
"[  c #26C126",
"{  c #638723",
"}  c #8C711A",
"|  c #826A24",
" . c #846A29",
".. c #8E7932",
"X. c #976936",
"o. c #A37821",
"O. c #BB7D2A",
"+. c #B57B38",
"@. c #826E59",
"#. c #926F4F",
"$. c #9B6C41",
"%. c #9E7340",
"&. c #857E76",
"*. c #A37F46",
"=. c #C57B2A",
"-. c #C87023",
";. c #C87C24",
":. c #CA7929",
">. c #D47E2B",
",. c #DC7D21",
"<. c #EA7D14",
"1. c #F17E18",
"2. c #E57D20",
"3. c #87991E",
"4. c #A6831E",
"5. c #B08417",
"6. c #AA8B20",
"7. c #AD8C29",
"8. c #B2802C",
"9. c #BB8721",
"0. c #B48535",
"q. c #B5883B",
"w. c #878077",
"e. c #B3844C",
"r. c #B48B4E",
"t. c #84C51C",
"y. c #C49615",
"u. c #D39711",
"i. c #DA9E11",
"p. c #CF8736",
"a. c #CC8B37",
"s. c #C59324",
"d. c #CE9A25",
"f. c #D38D27",
"g. c #DC8323",
"h. c #DC9627",
"j. c #DFA508",
"k. c #C8A32B",
"l. c #E9830F",
"z. c #EC8E0E",
"x. c #E68213",
"c. c #E0801E",
"v. c #E98412",
"b. c #EA8B11",
"n. c #ED940D",
"m. c #ED9C0B",
"M. c #E29312",
"N. c #EC9110",
"B. c #EC9B15",
"V. c #EF9D1B",
"C. c #F48215",
"Z. c #F68219",
"A. c #F09F0C",
"S. c #E38424",
"D. c #E99F22",
"F. c #EDA708",
"G. c #EFAC08",
"H. c #E4AB17",
"J. c #EFB20F",
"K. c #EFBB18",
"L. c #F0A406",
"P. c #F0A20A",
"I. c #F3AD04",
"U. c #F2A908",
"Y. c #F1A81D",
"T. c #F4B304",
"R. c #F5BA03",
"E. c #E1B627",
"W. c #F0A220",
"Q. c #848484",
"!. c gray55",
"~. c #ACACAC",
"^. c gray69",
"/. c #DEDEDE",
"(. c #EEEEEE",
"). c gray100",
/* pixels */
"Q.Q.Q.Q.Q.Q.Q.K K Q.Q.!.Q.Q.Q.Q.Q.Q.Q.Q.Q.Q.Q.Q.Q.Q.Q.Q.Q.Q.Q.Q.",
"P P P P P Q.P P P P P P P P P P Q.P P Q.I I I I I I I I I I I I ",
"P P P P P L P P L &.&.P P L L P L P P L L P P I P L L I L L P P ",
"K K K K K K F X.>.S.g.p.r.&.K K K K K K K K K K K K K G K K K K ",
"G G G G G A <.1.<.x.l.l.b.a.H G G G G G G G G G G G G G G G G G ",
"F F F F V 1.<.>.S.x.v.b.b.N.r.F F F F F F F F F F G F F F F G F ",
"F F F x -.1.#.F @.g.v.v.b.N.D.@.F F M ^ ] ] ] ] ] ] ] ] ] [ F v ",
"v v v z 1.:.v v C +.l.b.N.b.V.*.v v ~ ` m N B N N N N N N M v v ",
"x x x l Z.,.C x c ;.b.b.b.N.V.q.x n ] n x x x x x x x x v x v x ",
"h x x l Z.x.:.%.=.b.b.N.N.n.V.0.x _ ! x x x x x x x x x x h x x ",
"g h h k C.v.v.v.v.b.b.N.n.n.n.u.3.) j h h h h h h h h h h h g h ",
"4 f f g =.x.v.v.b.b.N.N.n.n.n.m.L.9.s f g f f f 8 g g 8 8 h 8 8 ",
"4 w w w Z <.v.b.b.b.z.z.n.n.m.m.L.m.m.o.y 8 8 8 8 8 8 8 8 w 8 8 ",
"4 4 4 4 4 X.v.b.z.N.N.Y.V.B.Y.m.L.L.F.G.u.d 4 4 4 4 4 4 8 4 4 4 ",
"3 3 2 2 2 3 a O.f.h.h.8.p i t.{ 9.L.L.U.I.G.5.t 2 2 2 4 2 2 2 4 ",
"2 : 2 2 2 2 : 2 q e 3 2 2 Q E 2 e d.s.F.I.J.T.F.d 2 : 2 2 2 2 : ",
": : : : : : : : : : : : 7 ] 5 : : 1 1 i.I.T.T.T.R.7., : : : : : ",
"* ; ; ; ; ; ; ; - * - & ( U - $ ; - -  .H.J.T.R.R.R...$ * * - - ",
"$ $ $ Y W W T T R R W ( ( $ $ $ $ $ $ $ < r 4.R.R.R.k.r $ $ $ $ ",
"+ + + E / / / / / / / ' U o $ o o $ o + $ o @ } K.E.4.9 o $ + + ",
"o o o o o o o o o o o o o o o o o o o o o o o # 0 > o o o o o o ",
"o o X o o o X o o o o o o X o o o o X o o o X o X o X o o o X o ",
"X X X X X X X X X o X X X X X X X X X X X X X X X X X o X X X X ",
"f ).).).).6 I (.X . I (.f ).).).).).f (.).).).).P ^./.o X ^.^.X ",
". . ~.^.. . P (.. . P (.f ).8 . . . . (.P X . . X ~.).P . ^.~.. ",
". . ~.~.. . I (.. . P (.4 ).4 . . . . (.P . . . . ^./.).6 ^.^.. ",
". . ~.~..   P (.g !.L (.4 ).).).).4 . (.).).).P . ~.~.~.~.~.~.. ",
"  . ~.~.  . P (.~.(.~.(.4 ).3   .   . (.P     .   ~.~.4 )./.~.  ",
"    ~.~.  . P ).~.g (.(.3 ).3         (.L         ~.~.  P ).~.  ",
"    ~.~.    L (.g   ~.(.2 ).).).).).3 (.).).).).L ~.~.  X /.~.  ",
"                                                                ",
"                                                                "
};
