/* XPM */
static char *upgrade[] = {
/* columns rows colors chars-per-pixel */
"32 32 233 2",
"   c #020202",
".  c #0C0C0C",
"X  c #141414",
"o  c #1B1B1B",
"O  c #1F1F20",
"+  c #1F201F",
"@  c #201F1F",
"#  c #23231D",
"$  c #3A371E",
"%  c #3E3B17",
"&  c #232323",
"*  c #272728",
"=  c #272827",
"-  c #272828",
";  c #282727",
":  c #282728",
">  c #282827",
",  c #2B2B2B",
"<  c #353423",
"1  c #3B3922",
"2  c #3E3D2B",
"3  c #333333",
"4  c #383936",
"5  c #3A3A3A",
"6  c #3F3F40",
"7  c #0E6F00",
"8  c #037100",
"9  c #0C7300",
"0  c #127402",
"q  c #137900",
"w  c #3E4038",
"e  c #3C5234",
"r  c #237308",
"t  c #2A790C",
"y  c #326D16",
"u  c #3C7B15",
"i  c #3F4040",
"p  c #403F40",
"a  c #46432A",
"s  c #4A4725",
"d  c #40403D",
"f  c #49473E",
"g  c #59573F",
"h  c #467936",
"j  c #5A6B3F",
"k  c #5F7F39",
"l  c #625D2A",
"z  c #696317",
"x  c #6B6519",
"c  c #6F681B",
"v  c #676232",
"b  c #686330",
"n  c #787232",
"m  c #78723C",
"M  c #434343",
"N  c #464F44",
"B  c #474848",
"V  c #4B4B4A",
"C  c #4E5748",
"Z  c #555340",
"A  c #52524F",
"S  c #58584E",
"D  c #535353",
"F  c #5B5B5B",
"G  c #50624A",
"H  c #5F635C",
"J  c #537C4C",
"K  c #6F6C4A",
"L  c #616954",
"P  c #6D6C5A",
"I  c #627247",
"U  c #76734E",
"Y  c #79765C",
"T  c #646364",
"R  c #696865",
"E  c #6C6C6C",
"W  c #6F706C",
"Q  c #777E6A",
"!  c #727272",
"~  c #787A77",
"^  c #7B7B7B",
"/  c #7E7F80",
"(  c #1F9304",
")  c #218809",
"_  c #2A8D01",
"`  c #2A8B0E",
"'  c #2F8710",
"]  c #2F9D00",
"[  c #318710",
"{  c #318817",
"}  c #329305",
"|  c #32900F",
" . c #349B03",
".. c #399204",
"X. c #3A9A01",
"o. c #399123",
"O. c #33A100",
"+. c #3EA803",
"@. c #4C9816",
"#. c #408B24",
"$. c #408F2B",
"%. c #448A38",
"&. c #498E3B",
"*. c #449A2F",
"=. c #4E9235",
"-. c #499C36",
";. c #588037",
":. c #46A505",
">. c #42AA00",
",. c #47AB0E",
"<. c #48A507",
"1. c #4EAF00",
"2. c #4FAF0B",
"3. c #47B604",
"4. c #4DB104",
"5. c #4CB20B",
"6. c #54AB03",
"7. c #5FAB0E",
"8. c #5BAA10",
"9. c #53B401",
"0. c #55BC04",
"q. c #5BB20C",
"w. c #5BBD01",
"e. c #5BB80A",
"r. c #63873A",
"t. c #678C3C",
"y. c #619F29",
"u. c #66AA3D",
"i. c #6CA83D",
"p. c #74AE2E",
"a. c #7DA835",
"s. c #73B42C",
"d. c #73B134",
"f. c #7DB237",
"g. c #4A8040",
"h. c #56884E",
"j. c #5A8144",
"k. c #568154",
"l. c #5C8152",
"z. c #549347",
"x. c #5C9359",
"c. c #5DA14F",
"v. c #5EAD4F",
"b. c #6B8A42",
"n. c #698652",
"m. c #6C994A",
"M. c #72835A",
"N. c #6B8561",
"B. c #679765",
"V. c #75846A",
"C. c #7C8E6E",
"Z. c #798976",
"A. c #789066",
"S. c #7B936E",
"D. c #73A251",
"F. c #7CAA73",
"G. c #5BC301",
"H. c #5FC30F",
"J. c #65C505",
"K. c #65CC02",
"L. c #66D301",
"P. c #6FDE04",
"I. c #73D502",
"U. c #72DA02",
"Y. c #7FE305",
"T. c #7DE901",
"R. c #807B44",
"E. c #AEA11C",
"W. c #B7AA1B",
"Q. c #B8AA16",
"!. c #ABA028",
"~. c #ABA13A",
"^. c #B9AD28",
"/. c #B3A831",
"(. c #BEB122",
"). c #BEB33D",
"_. c #868C40",
"`. c #82805D",
"'. c #8C8750",
"]. c #839452",
"[. c #9D9540",
"{. c #9C965B",
"}. c #81817B",
"|. c #828F75",
" X c #8B8974",
".X c #81986E",
"XX c #83A456",
"oX c #81AB55",
"OX c #84B45B",
"+X c #9BB95C",
"@X c #82A663",
"#X c #88A960",
"$X c #8DB46D",
"%X c #ABA242",
"&X c #A8A04A",
"*X c #BDB342",
"=X c #81D904",
"-X c #87C12B",
";X c #82D224",
":X c #9BD73C",
">X c #81E800",
",X c #80E808",
"<X c #89E305",
"1X c #85C44B",
"2X c #C0B216",
"3X c #C1B31E",
"4X c #CCBD1C",
"5X c #C4BF23",
"6X c #CABD2A",
"7X c #CFC01F",
"8X c #D6C61A",
"9X c #DBCA16",
"0X c #DBCB19",
"qX c #D1C42F",
"wX c #D6CA23",
"eX c #E0CF16",
"rX c #E4D316",
"tX c #E3D319",
"yX c #E8D716",
"uX c #E8D618",
"iX c #EBD915",
"pX c #848484",
"aX c #848C81",
"sX c #8B8B8B",
"dX c #929F86",
"fX c #949988",
"gX c #8FA486",
"hX c #ADADAD",
"jX c gray69",
"kX c #CDCDCD",
"lX c gray87",
"zX c #EEEEEE",
"xX c gray100",
/* pixels */
"pXpXpXpXpXpXpXpXsXpXpXpXpXpXpXpXpXpXpXpXpXpXgXg.A.pXsX/ sX/ sX/ ",
"}.^ / / / / R. X6XiXuX*XR./ / / / / / / / / F.*.y fXsXR./ / / / ",
"^ ^ ~ ^ ^ ^ / *XiXiXiXiX X/ ^ ^ / / R./ ~ B.z.v.o.j.^ ^ / / / / ",
"! ! ! ! ! ! ^ *XiXiXiXiX&X/ ! ! T E / / ! c.&.x.-.r aX! E E E / ",
"E E E E E E E &XiXiXiXuXR.E E E E E E E S.$.o.%.o.{ h ~ T E E E ",
"T R T T T T R R '.tX6XY E T E T T T T E D.) ` ' { | t S.T T E T ",
"T T T T F T T P [.tX6X%XT T T F T F T fX| ( _ _ _ _ } u / T T T ",
"F F F F F F F /.iXiXiXiXP F F F F F E m. . . . .X.X.O.} P F F F ",
"D D D F D D R.iXuXiXiXuXiXK D D F D @X<.+.:.>.+.<.<.+.,.[ Z.D D ",
"D V V D A S uXiX0XiXiX^.iXeXD A A h.f.4.6.3.5.2.4.6.9.9.6.k L D ",
"V V V V V 8XiXm 3XiXiX4XtXiX(.V B |.b.t.d.G.0.e.0.q.y.r.b.J S V ",
"p B B p 0XiXiXB 6XiXiXtXZ Z iX!.B M M M $X0.G.G.G.7.S.B M M B M ",
"p p 6 6 tXyXn p 4XiXiX8Xf p 3X4X6 6 6 i OXG.H.J.K.6.S.p p p p d ",
"6 6 5 6 v v 5 5 8XiXiX3Xw 5 5 p 5 5 5 N 1XK.K.K.L.7.^ 5 5 5 5 5 ",
"3 5 3 5 3 4 4 4 iXiXiX4X3 3 5 3 4 4 4 H ;XU.U.U.U.p.F 3 3 3 4 4 ",
"3 , 3 , 3 , , l iX0XyX9X3 , 3 , 3 , 3 ].<XY.T.>X=XXX4 3 3 3 , 3 ",
", , 3 , , , , W.iXa , rX!.2 , , > , j :X>XT.T.T.-XV., , , , , , ",
"* > > > > > > 9XiX> > eXrXs > * > w +XI.U.U.U.U.XX< > : , : > : ",
"& & & & & & < iXiX> & 0XiX$ & & A D.e.G.w.w.w.s.e & & & & & & * ",
"O + o O + & c iXiX# o 9XiX$ 3 V.u. . . . . .@.m.O o O O O O O O ",
"o o o o # x iXiXiX# o 9XuXtXa.0 8 9 0 9 q =.Q & o o o o o o o o ",
"o X X o X % 2XQ.z @ o _.wX5Xk J k.l.l.J N.C X o o X o o o X o o ",
"X X X X X X X X X X X X X X X X X X X X X X X X X X X X X o X X ",
"X X X X jXhXX X hXhX}.xXxXxXzXF X + lXxXxXlX& zXxXxXxXjX. . X . ",
". . . . jXjX. X hXhX/ zX. . jXzX. hXlXO O jXO zX^ . D zXR.X X . ",
". . . . hXhX. . hXhX^ zX. . R.zX6 xX6 . . . . zX^ . . zX/ X . . ",
".   . . hXhX  . hXhX^ zXjXhXzXjX5 xX5 hXxXxX4 zXkXhXkXzXB . . . ",
"  .   . hXhX.   hXhX~ zXhXhXsX  4 xX5   4 xX4 zXkXzXzXB .   . . ",
".       ~ lXX X lX~ ~ zX.         hXlXo 4 xX3 zX^ B zXhX        ",
"        X lXxXxXlXX ~ zX          X lXxXxXxX3 zX~   M zX/       ",
"                                                                ",
"                                                                "
};
