/* XPM */
static char * UpperBodySmall_xpm[] = {
"84 31 405 2",
"  	c None",
". 	c #C4C8C7",
"+ 	c #C7C7C7",
"@ 	c #C4C8CB",
"# 	c #C3C7C7",
"$ 	c #C9C8CC",
"% 	c #C8C9C4",
"& 	c #C5C7BF",
"* 	c #C6C6CC",
"= 	c #C8C9CB",
"- 	c #C7C9C0",
"; 	c #C4C5C1",
"> 	c #C6C6C8",
", 	c #C5C8C6",
"' 	c #C6C9C6",
") 	c #C4C8CD",
"! 	c #C3C7C8",
"~ 	c #C5C9C4",
"{ 	c #C5C7C8",
"] 	c #C7C8C2",
"^ 	c #C8CAC3",
"/ 	c #A1AC95",
"( 	c #9EA797",
"_ 	c #A1AD91",
": 	c #A2B08D",
"< 	c #BDC8BD",
"[ 	c #B0BCAA",
"} 	c #A1B088",
"| 	c #9EAB90",
"1 	c #A0AB94",
"2 	c #A2AC8B",
"3 	c #A0AD87",
"4 	c #9DAA95",
"5 	c #9FAC96",
"6 	c #ACB7A0",
"7 	c #C4C7C9",
"8 	c #C7C8C9",
"9 	c #C8C8C7",
"0 	c #C4CFB5",
"a 	c #BFCDB0",
"b 	c #BFCFAF",
"c 	c #9EB088",
"d 	c #BDCAB9",
"e 	c #9FAE97",
"f 	c #BCCFA2",
"g 	c #C0D0B2",
"h 	c #C4CFBA",
"i 	c #C3CCB9",
"j 	c #C0CDA9",
"k 	c #C0CEAD",
"l 	c #C3D0AC",
"m 	c #A1AB8A",
"n 	c #C7C6D1",
"o 	c #C5C3CC",
"p 	c #C0CCB5",
"q 	c #BFD4AD",
"r 	c #B9CDAB",
"s 	c #9FB38A",
"t 	c #BCCCB6",
"u 	c #9FB196",
"v 	c #B8CEA0",
"w 	c #BCD0AF",
"x 	c #BFCDBB",
"y 	c #C3CCC9",
"z 	c #C2CEB6",
"A 	c #C0CDAB",
"B 	c #C1CEA6",
"C 	c #A3AE84",
"D 	c #C6CBBB",
"E 	c #C7C7C6",
"F 	c #C6C6C7",
"G 	c #A0AE8D",
"H 	c #9CAE88",
"I 	c #A0AD93",
"J 	c #AFBB9C",
"K 	c #C4CEBB",
"L 	c #B1BCA4",
"M 	c #A0AD8B",
"N 	c #9FAC90",
"O 	c #8E9D7B",
"P 	c #BCCAAA",
"Q 	c #C1D0A9",
"R 	c #92A076",
"S 	c #A2AC8F",
"T 	c #B0B89D",
"U 	c #C7C6CC",
"V 	c #C7C6CB",
"W 	c #A1AC92",
"X 	c #C2CCBA",
"Y 	c #C4C8C6",
"Z 	c #C7C9C5",
"` 	c #C7C6CA",
" .	c #C8C7C7",
"..	c #C7C7C5",
"+.	c #C6C9C3",
"@.	c #A3AF96",
"#.	c #BBCCAD",
"$.	c #C0CDB5",
"%.	c #A0AA95",
"&.	c #C4C8CC",
"*.	c #C6C7CA",
"=.	c #C7C6C9",
"-.	c #A1AD8F",
";.	c #C0CDB6",
">.	c #C2C8CA",
",.	c #C8C5CA",
"'.	c #C9C6C7",
").	c #C8C6C9",
"!.	c #C6C8C5",
"~.	c #A3AF94",
"{.	c #BACCAE",
"].	c #BFCDB7",
"^.	c #A0AA94",
"/.	c #C5C7CF",
"(.	c #C7C7C9",
"_.	c #C7C8BF",
":.	c #C7C8C0",
"<.	c #A3AD86",
"[.	c #C0CFAF",
"}.	c #C3C7CB",
"|.	c #C8C7C8",
"1.	c #CAC4C8",
"2.	c #CAC5C6",
"3.	c #C9C6C8",
"4.	c #C6C7C7",
"5.	c #A2B18F",
"6.	c #B9CEA9",
"7.	c #BECEB2",
"8.	c #A0AC89",
"9.	c #C6C8C8",
"0.	c #C7C7C3",
"a.	c #A2AD89",
"b.	c #BDD0AE",
"c.	c #C6C8CB",
"d.	c #C6C7C4",
"e.	c #C6C8C3",
"f.	c #A2B092",
"g.	c #BECEB5",
"h.	c #9FAC8F",
"i.	c #C7C8C7",
"j.	c #C6C8C7",
"k.	c #C7C7C4",
"l.	c #C8C6C8",
"m.	c #C6C7C9",
"n.	c #A2AC91",
"o.	c #C0CFAD",
"p.	c #C7C7CB",
"q.	c #C6C8C0",
"r.	c #C6C9BF",
"s.	c #C6C7C8",
"t.	c #CAC5CA",
"u.	c #A4AF94",
"v.	c #BACDAA",
"w.	c #BECDB6",
"x.	c #9EAB96",
"y.	c #C9C6C5",
"z.	c #C5C8C9",
"A.	c #BFCFAC",
"B.	c #C8C7CB",
"C.	c #C6C8C2",
"D.	c #C5C9C2",
"E.	c #C9C6CA",
"F.	c #BBCDAA",
"G.	c #BFCDB4",
"H.	c #9EAC92",
"I.	c #C8C7C6",
"J.	c #C5C8C7",
"K.	c #C6C8C4",
"L.	c #A7A7A7",
"M.	c #8B8B8B",
"N.	c #A3A3A3",
"O.	c #8E8E8E",
"P.	c #B2B2B2",
"Q.	c #676767",
"R.	c #646464",
"S.	c #696969",
"T.	c #949494",
"U.	c #C5C5C5",
"V.	c #9E9E9E",
"W.	c #A1AC91",
"X.	c #BFD0AD",
"Y.	c #C4C9C4",
"Z.	c #C5C8C8",
"`.	c #C5C7CC",
" +	c #C7C7C8",
".+	c #BDCBAB",
"++	c #C0CDB3",
"@+	c #9EAD8E",
"#+	c #C8C8C3",
"$+	c #C6C8C6",
"%+	c #C9C6C6",
"&+	c #868686",
"*+	c #4F4F4F",
"=+	c #808080",
"-+	c #555555",
";+	c #9C9C9C",
">+	c #343434",
",+	c #B6B6B6",
"'+	c #A2A2A2",
")+	c #2E2E2E",
"!+	c #9F9F9F",
"~+	c #464646",
"{+	c #8F8F8F",
"]+	c #A1AC93",
"^+	c #BDCFAD",
"/+	c #C4C9C3",
"(+	c #C8C6C7",
"_+	c #C5C7CA",
":+	c #C4C7CC",
"<+	c #C4C7C1",
"[+	c #A4AF92",
"}+	c #C0CBB0",
"|+	c #C2CDB2",
"1+	c #9EAC89",
"2+	c #C8C9C1",
"3+	c #C4C9C8",
"4+	c #8C8C8C",
"5+	c #262626",
"6+	c #444444",
"7+	c #474747",
"8+	c #BDBDBD",
"9+	c #333333",
"0+	c #4A4A4A",
"a+	c #2D2D2D",
"b+	c #8A8A8A",
"c+	c #515151",
"d+	c #585858",
"e+	c #5C5C5C",
"f+	c #C0C0C0",
"g+	c #3E3E3E",
"h+	c #414141",
"i+	c #606060",
"j+	c #383838",
"k+	c #A1A1A1",
"l+	c #404040",
"m+	c #969696",
"n+	c #3F3F3F",
"o+	c #424242",
"p+	c #BABABA",
"q+	c #656565",
"r+	c #242424",
"s+	c #7F7F7F",
"t+	c #454545",
"u+	c #BFBFBF",
"v+	c #A1AB94",
"w+	c #BDCFAE",
"x+	c #C6CAC4",
"y+	c #C8C5C7",
"z+	c #CAC7C9",
"A+	c #C3C5C9",
"B+	c #C5CACA",
"C+	c #C5CCBD",
"D+	c #A1AD8E",
"E+	c #C4CBBA",
"F+	c #C1CBB2",
"G+	c #A0AE8A",
"H+	c #C7CAC0",
"I+	c #C4C8C9",
"J+	c #C1C1C1",
"K+	c #2C2C2C",
"L+	c #757575",
"M+	c #434343",
"N+	c #737373",
"O+	c #303030",
"P+	c #A5A5A5",
"Q+	c #202020",
"R+	c #616161",
"S+	c #6B6B6B",
"T+	c #C3C3C3",
"U+	c #909090",
"V+	c #373737",
"W+	c #626262",
"X+	c #666666",
"Y+	c #BCCEAF",
"Z+	c #C6CAC3",
"`+	c #CAC7C8",
" @	c #C6C4C6",
".@	c #C7C9CE",
"+@	c #C1C8C5",
"@@	c #C5D1B6",
"#@	c #A0AD8D",
"$@	c #C7CFBC",
"%@	c #A0AF8B",
"&@	c #C3C5BD",
"*@	c #C3C8CB",
"=@	c #CBC5C6",
"-@	c #929292",
";@	c #707070",
">@	c #494949",
",@	c #2F2F2F",
"'@	c #A9A9A9",
")@	c #4B4B4B",
"!@	c #797979",
"~@	c #B4B4B4",
"{@	c #B5B5B5",
"]@	c #979797",
"^@	c #C2C2C2",
"/@	c #3A3A3A",
"(@	c #9D9D9D",
"_@	c #363636",
":@	c #858585",
"<@	c #3D3D3D",
"[@	c #535353",
"}@	c #C6C6C6",
"|@	c #C0CBB7",
"1@	c #9CAE90",
"2@	c #C6CAC2",
"3@	c #C7C4C4",
"4@	c #CCC8C8",
"5@	c #C6C8CA",
"6@	c #C2CAC2",
"7@	c #AFBD99",
"8@	c #B1BD9D",
"9@	c #C9C8CA",
"0@	c #A6AB9C",
"a@	c #BBC8A6",
"b@	c #C9CBC3",
"c@	c #C3C8CC",
"d@	c #C6C7CC",
"e@	c #CCC5C5",
"f@	c #ADADAD",
"g@	c #5F5F5F",
"h@	c #B7B7B7",
"i@	c #525252",
"j@	c #1C1C1C",
"k@	c #B3B3B3",
"l@	c #565656",
"m@	c #BEBEBE",
"n@	c #353535",
"o@	c #848484",
"p@	c #C0CBB6",
"q@	c #B0BFA7",
"r@	c #B1BBA4",
"s@	c #C4CDB1",
"t@	c #C3CDAE",
"u@	c #C3CEB2",
"v@	c #B2BFA6",
"w@	c #9EAB8D",
"x@	c #C4CEB3",
"y@	c #C1C5BB",
"z@	c #A6AD9E",
"A@	c #C0CAB4",
"B@	c #C5C8C3",
"C@	c #BBBBBB",
"D@	c #484848",
"E@	c #C4CDBD",
"F@	c #C0C9BF",
"G@	c #B1BDA9",
"H@	c #A0AF91",
"I@	c #9CAD8B",
"J@	c #9FAE90",
"K@	c #AFBBA7",
"L@	c #C1CAC0",
"M@	c #C3CCBD",
"N@	c #B3BEA6",
"O@	c #B1B9A8",
"P@	c #C5CCC2",
"Q@	c #C5C8C5",
"R@	c #B1B1B1",
"S@	c #989898",
"T@	c #B9B9B9",
"U@	c #A3AB96",
"V@	c #C3CDB8",
"W@	c #C3CDC3",
"X@	c #BFC8CB",
"Y@	c #C3CBD2",
"Z@	c #BFC7CB",
"`@	c #C2CCC3",
" #	c #C2CCB8",
".#	c #B5BEA8",
"+#	c #B0B9A8",
"@#	c #C3CABF",
"##	c #C2C7C2",
"$#	c #C6C8C9",
"%#	c #C0C8B4",
"&#	c #A5AD92",
"*#	c #A1AB93",
"=#	c #A0AB97",
"-#	c #9FAA98",
";#	c #A3AE9A",
">#	c #9EA890",
",#	c #A2AA8F",
"'#	c #B0B8A3",
")#	c #C3CAC0",
"!#	c #C7C9C9",
"~#	c #C5C6C9",
"{#	c #C8CBC5",
"]#	c #C4C8BC",
"^#	c #C4CCB6",
"/#	c #C3CDAD",
"(#	c #C5D1AD",
"_#	c #C4CEAE",
":#	c #C6CDB7",
"<#	c #C6CABE",
"[#	c #C4C8C5",
"}#	c #C6C7CB",
"|#	c #C7C7CA",
"1#	c #C5CABF",
"2#	c #C4CABC",
"3#	c #C4CABE",
"4#	c #C8C7C3",
"5#	c #C9C7C1",
"6#	c #C7C6CD",
"7#	c #C8C7C0",
"8#	c #C7C6C7",
". + + + + + + + + + + + + + + + + + + + + + + + + + + + + + + + + + + + + + + + + + + + + + + + + + + + + + + + + + + + + + + + + + + + + + + + + + + + + + + + + + + + ",
"@ + + + + + + + + + + + + + + + + + + + + + + + + + + + + + + + + + + + + + + + + + + + + + + + + + + + + + + + + + + + + + + + + + + + + + + + + + + + + + + + + + + + ",
"# $ % & * = - ; > , ' ) ! ~ { ] ^ + + + + + + + + + + + + + + + + + + + + + + + + + + + + + + + + + + + + + + + + + + + + + + + + + + + + + + + + + + + + + + + + + + + ",
"/ ( _ : < [ } | 1 2 3 4 5 6 7 8 9 + + + + + + + + + + + + + + + + + + + + + + + + + + + + + + + + + + + + + + + + + + + + + + + + + + + + + + + + + + + + + + + + + + + ",
"0 a b c d e f g h i j k l m , n o + + + + + + + + + + + + + + + + + + + + + + + + + + + + + + + + + + + + + + + + + + + + + + + + + + + + + + + + + + + + + + + + + + + ",
"p q r s t u v w x y z A B C D E F + + + + + + + + + + + + + + + + + + + + + + + + + + + + + + + + + + + + + + + + + + + + + + + + + + + + + + + + + + + + + + + + + + + ",
"G H I J K L M N O P Q R S T ^ U V + + + + + + + + + + + + + + + + + + + + + + + + + + + + + + + + + + + + + + + + + + + + + + + + + + + + + + + + + + + + + + + + + + + ",
"W X Y Z `  ...+.@.#.$.%.&.*.V U =.+ + + + + + + + + + + + + + + + + + + + + + + + + + + + + + + + + + + + + + + + + + + + + + + + + + + + + + + + + + + + + + + + + + + ",
"-.;.>.8 ,.'.).!.~.{.].^./.(.] _.:.+ + + + + + + + + + + + + + + + + + + + + + + + + + + + + + + + + + + + + + + + + + + + + + + + + + + + + + + + + + + + + + + + + + + ",
"<.[.}.|.1.2.3.4.5.6.7.8.9.+ 0.+ ..+ + + + + + + + + + + + + + + + + + + + + + + + + + + + + + + + + + + + + + + + + + + + + + + + + + + + + + + + + + + + + + + + + + + ",
"a.b.>.c.d.e.9.*.f.r g.h.i.j.k.l.m.+ + + + + + + + + + + + + + + + + + + + + + + + + + + + + + + + + + + + + + + + + + + + + + + + + + + + + + + + + + + + + + + + + + + ",
"n.o.Y p.q.r.s.t.u.v.w.x.|.j.e.y.z.+ + + + + + + + + + + + + + + + + + + + + + + + + + + + + + + + + + + + + + + + + + + + + + + + + + + + + + + + + + + + + + + + + + + ",
"n.A.Y B.C.D.m.E.u.F.G.H.I.J.K.y.z.+ + L.M.+ + N.O.+ + + + + + + + + + + + + + + + P.Q.R.S.T.U.+ + + + + + + S.V.+ + + + + + + + + + + + + + + + + + + + + + + + + + + + ",
"W.X.Y.B...Z.`. +u..+++@+#+J.$+%+z.+ + &+*++ + =+-++ + + + + + + + + + + + + + + + ;+>+,+'+)+!++ + + + + + + ~+{++ + + + + + + + + + + + + + + + + + + + + + + + + + + + ",
"]+^+/+E.(+_+:+<+[+}+|+1+2+3+s.%+s.+ + &+*++ + =+-+4+5+6+7+8+9+0+a+b+P.c+d+e+f+g+h+i+j+U.k+l+P.m+n+o+M.p+d+q+r+s+t+u+'+R.+ + + + + + + + + + + + + + + + + + + + + + + + ",
"v+w+x+y+z+A+B+C+D+E+F+G+H+I+m.2. ++ + &+*++ + s+-+4+n+J+K+L.9+T.4+t+L+M+N+O+P+g+M.;+Q+R+M+S+T+~+U+!+V+M.W++ ~+{+W+U+X+k++ + + + + + + + + + + + + + + + + + + + + + + + ",
"1 Y+Z+`+ @.@+@@@#@+.$@%@&@*@*.=@E + + -@7+T++ ;@i+4+>@U.,@'@9+'+M.)@!@R.~@{@T+g+]@;+j++ ^@/@(@7+U+!+_@:@R.^@<@{+!+h+[@}@+ + + + + + + + + + + + + + + + + + + + + + + + ",
"|@1@2@3@4@5@6@7@8@9@0@a@b@c@d@e@E + + ^@-+~+*+o+f@4+Q+0+g@J+9+6+<@;+h@*+i@R+~@g+]@;+j@[@6+h+h@]@n+h+M.k@n+l@r+{+m@n@o@+ + + + + + + + + + + + + + + + + + + + + + + + + ",
"p@q@r@s@t@u@v@w@x@y@z@A@B@@ V %+E + + + + + + + + 4+>@+ + + 9+'++ + + + + + + + + + + + + + + + + + + + + + + + C@D@C@+ + + + + + + + + + + + + + + + + + + + + + + + + ",
"E@F@G@H@I@J@K@L@M@N@O@P@Q@m.(. +(++ + + + + + + + R@S@+ + + U+T@+ + + + + + + + + + + + + + + + + + + + + + + + ,+U++ + + + + + + + + + + + + + + + + + + + + + + + + + ",
"U@V@W@X@Y@Z@`@ #.#+#@###$#*.(.+ I.+ + + + + + + + + + + + + + + + + + + + + + + + + + + + + + + + + + + + + + + + + + + + + + + + + + + + + + + + + + + + + + + + + + + ",
"%#&#*#=#-#;#>#,#'#)#Y.!#~#*. +E E + + + + + + + + + + + + + + + + + + + + + + + + + + + + + + + + + + + + + + + + + + + + + + + + + + + + + + + + + + + + + + + + + + + ",
"{#]#^#/#(#_#:#<#+.[#{ *.}#|# +E E + + + + + + + + + + + + + + + + + + + + + + + + + + + + + + + + + + + + + + + + + + + + + + + + + + + + + + + + + + + + + + + + + + + ",
"U U !.1#2#3#K.V U (.m.|#|#|# ++ E + + + + + + + + + + + + + + + + + + + + + + + + + + + + + + + + + + + + + + + + + + + + + + + + + + + + + + + + + + + + + + + + + + + ",
"=.l.+ s.J.9.+ (+l.(.(. + + + + + ++ + + + + + + + + + + + + + + + + + + + + + + + + + + + + + + + + + + + + + + + + + + + + + + + + + + + + + + + + + + + + + + + + + + ",
"4#5#I.V 6#U E 7#4#l.8#E E E  +(. ++ + + + + + + + + + + + + + + + + + + + + + + + + + + + + + + + + + + + + + + + + + + + + + + + + + + + + + + + + + + + + + + + + + + ",
"(+ .+  + + + +(+ .(++ E E E +  + ++ + + + + + + + + + + + + + + + + + + + + + + + + + + + + + + + + + + + + + + + + + + + + + + + + + + + + + + + + + + + + + + + + + + ",
"+ + + + + + + + + + + + + + + + + + + + + + + + + + + + + + + + + + + + + + + + + + + + + + + + + + + + + + + + + + + + + + + + + + + + + + + + + + + + + + + + + + + + ",
"+ + + + + + + + + + + + + + + + + + + + + + + + + + + + + + + + + + + + + + + + + + + + + + + + + + + + + + + + + + + + + + + + + + + + + + + + + + + + + + + + + + + + ",
"+ + + + + + + + + + + + + + + + + + + + + + + + + + + + + + + + + + + + + + + + + + + + + + + + + + + + + + + + + + + + + + + + + + + + + + + + + + + + + + + + + + + + ",
"+ + + + + + + + + + + + + + + + + + + + + + + + + + + + + + + + + + + + + + + + + + + + + + + + + + + + + + + + + + + + + + + + + + + + + + + + + + + + + + + + + + + + "};
