/* XPM */
static char * versionup_xpm[] = {
"32 32 550 2",
"  	c #E1E1E1",
". 	c #E0E0E0",
"+ 	c #A8A8A8",
"@ 	c #A3A2A3",
"# 	c #A2A3A3",
"$ 	c #A3A3A3",
"% 	c #A3A3A2",
"& 	c #A3A2A2",
"* 	c #DFDFDF",
"= 	c #9D9E9E",
"- 	c #999898",
"; 	c #999999",
"> 	c #999998",
", 	c #989999",
"' 	c #999899",
") 	c #9E9E9E",
"! 	c #9C9C9C",
"~ 	c #959595",
"{ 	c #487DA2",
"] 	c #2A78AE",
"^ 	c #225177",
"/ 	c #133D61",
"( 	c #416381",
"_ 	c #D2D9DE",
": 	c #CFD6DC",
"< 	c #CDD3DA",
"[ 	c #CDD4DB",
"} 	c #DCE2E5",
"| 	c #DFE6E8",
"1 	c #E6E6E7",
"2 	c #779DB7",
"3 	c #186295",
"4 	c #1E6291",
"5 	c #2C587B",
"6 	c #8B8F92",
"7 	c #DEDEDE",
"8 	c #989898",
"9 	c #919191",
"0 	c #3C6E92",
"a 	c #216697",
"b 	c #0B3C63",
"c 	c #002554",
"d 	c #37567B",
"e 	c #FAFBFC",
"f 	c #FBFCFB",
"g 	c #F5F7F7",
"h 	c #E9EBED",
"i 	c #878B9B",
"j 	c #6A7186",
"k 	c #B4B6BE",
"l 	c #7E9EB6",
"m 	c #084A7C",
"n 	c #19537F",
"o 	c #134E7A",
"p 	c #325B7B",
"q 	c #949494",
"r 	c #8D8D8D",
"s 	c #8E8D8D",
"t 	c #8D8E8D",
"u 	c #38698F",
"v 	c #1D6093",
"w 	c #0C3C64",
"x 	c #002755",
"y 	c #F7F8F8",
"z 	c #F4F5F6",
"A 	c #F0F2F5",
"B 	c #DCE1E4",
"C 	c #23314F",
"D 	c #00052F",
"E 	c #67778C",
"F 	c #779AB4",
"G 	c #064777",
"H 	c #154F79",
"I 	c #17567E",
"J 	c #0F3A61",
"K 	c #DDDDDD",
"L 	c #909090",
"M 	c #898989",
"N 	c #8A8989",
"O 	c #386A8F",
"P 	c #216496",
"Q 	c #002752",
"R 	c #37577B",
"S 	c #F0F4F5",
"T 	c #EBEFF0",
"U 	c #E9EDF0",
"V 	c #D8DEE1",
"W 	c #2B3F5E",
"X 	c #001941",
"Y 	c #738297",
"Z 	c #7899B2",
"` 	c #054777",
" .	c #134E79",
"..	c #15527D",
"+.	c #0E395D",
"@.	c #898A89",
"#.	c #89898A",
"$.	c #8A898A",
"%.	c #909091",
"&.	c #868685",
"*.	c #858685",
"=.	c #858586",
"-.	c #396C90",
";.	c #236798",
">.	c #0A3A62",
",.	c #00244F",
"'.	c #375778",
").	c #E9ECEF",
"!.	c #E0E4E8",
"~.	c #E0E3E7",
"{.	c #D0D6DB",
"].	c #263957",
"^.	c #000F3A",
"/.	c #6D7C92",
"(.	c #7599B2",
"_.	c #064B7B",
":.	c #16537F",
"<.	c #13517C",
"[.	c #0B365B",
"}.	c #858585",
"|.	c #858686",
"1.	c #868586",
"2.	c #8D8D8E",
"3.	c #DCDCDC",
"4.	c #898A8A",
"5.	c #828181",
"6.	c #818281",
"7.	c #828282",
"8.	c #35688D",
"9.	c #216495",
"0.	c #0A375E",
"a.	c #002148",
"b.	c #3A5574",
"c.	c #EDEEEF",
"d.	c #E0E3E5",
"e.	c #E1E3E5",
"f.	c #D2D7D9",
"g.	c #495871",
"h.	c #203659",
"i.	c #8A95A5",
"j.	c #7699B2",
"k.	c #054C7C",
"l.	c #144F7C",
"m.	c #0A4371",
"n.	c #0F5243",
"o.	c #117B2F",
"p.	c #187B34",
"q.	c #11782E",
"r.	c #4F7B59",
"s.	c #828281",
"t.	c #7E7D7E",
"u.	c #7D7E7D",
"v.	c #7D7D7E",
"w.	c #33648A",
"x.	c #1C6092",
"y.	c #093B64",
"z.	c #00244C",
"A.	c #1E4167",
"B.	c #9DB1C1",
"C.	c #A6B7C6",
"D.	c #A1B1C1",
"E.	c #9FAFBF",
"F.	c #A3B4C2",
"G.	c #A2B5C3",
"H.	c #AAB7C5",
"I.	c #426C90",
"J.	c #054373",
"K.	c #083F6F",
"L.	c #043A6B",
"M.	c #0F5541",
"N.	c #198E3A",
"O.	c #19903B",
"P.	c #1A923C",
"Q.	c #148534",
"R.	c #497954",
"S.	c #7E7E7D",
"T.	c #DCDCDB",
"U.	c #838382",
"V.	c #797A79",
"W.	c #797979",
"X.	c #7A797A",
"Y.	c #306085",
"Z.	c #195A8D",
"`.	c #145284",
" +	c #134978",
".+	c #104776",
"++	c #0F4273",
"@+	c #124475",
"#+	c #104475",
"$+	c #114674",
"%+	c #104573",
"&+	c #0B4070",
"*+	c #043D6D",
"=+	c #07406F",
"-+	c #053E6E",
";+	c #033969",
">+	c #105543",
",+	c #279640",
"'+	c #299A42",
")+	c #2A9B43",
"!+	c #1F8B39",
"~+	c #477752",
"{+	c #838383",
"]+	c #DBDCDC",
"^+	c #DBDBDB",
"/+	c #7F7F7F",
"(+	c #767675",
"_+	c #767575",
":+	c #767676",
"<+	c #2D5D82",
"[+	c #0E4C7F",
"}+	c #629DBA",
"|+	c #93CEE4",
"1+	c #89C5E0",
"2+	c #7DC1DD",
"3+	c #71BEDC",
"4+	c #65B9DC",
"5+	c #56B5DC",
"6+	c #48B0DC",
"7+	c #38AADC",
"8+	c #28A5DB",
"9+	c #2AA0CC",
"0+	c #39A0AA",
"a+	c #2F7B80",
"b+	c #255D66",
"c+	c #1F6B46",
"d+	c #339E43",
"e+	c #39A349",
"f+	c #3AA44A",
"g+	c #2A913D",
"h+	c #40734D",
"i+	c #707671",
"j+	c #717672",
"k+	c #7B7B7B",
"l+	c #727272",
"m+	c #25537A",
"n+	c #073E73",
"o+	c #91C1D3",
"p+	c #C9F8FF",
"q+	c #BFEDFF",
"r+	c #B8ECFD",
"s+	c #ADE9FD",
"t+	c #A4E4FE",
"u+	c #99E1FD",
"v+	c #8CDEFD",
"w+	c #80D8FB",
"x+	c #72D3FB",
"y+	c #56A194",
"z+	c #2A873D",
"A+	c #349441",
"B+	c #339341",
"C+	c #329440",
"D+	c #44AA4D",
"E+	c #46AC4E",
"F+	c #47AD4F",
"G+	c #42A74B",
"H+	c #32913E",
"I+	c #338F40",
"J+	c #339140",
"K+	c #287D3A",
"L+	c #DADADA",
"M+	c #787878",
"N+	c #6E6E6E",
"O+	c #214E75",
"P+	c #05386C",
"Q+	c #AEC2D2",
"R+	c #F7FFFF",
"S+	c #EBF6FD",
"T+	c #EAF6FD",
"U+	c #E9F7FC",
"V+	c #E6F5FB",
"W+	c #E5F4FB",
"X+	c #E2F5FB",
"Y+	c #E0F3FB",
"Z+	c #DDF3FB",
"`+	c #669B82",
" @	c #399743",
".@	c #5BBC56",
"+@	c #57B854",
"@@	c #57B855",
"#@	c #55B553",
"$@	c #56B654",
"%@	c #58B856",
"&@	c #5ABA57",
"*@	c #318B3E",
"=@	c #747474",
"-@	c #6A6A6A",
";@	c #1F4D73",
">@	c #04386B",
",@	c #AAC2D1",
"'@	c #EFFEFF",
")@	c #E3F4FB",
"!@	c #E1F3FA",
"~@	c #DEF2FA",
"{@	c #DDF2FA",
"]@	c #D9F1FA",
"^@	c #D6F0FA",
"/@	c #D3EFFA",
"(@	c #6DA389",
"_@	c #429C48",
":@	c #69C45C",
"<@	c #65BF5A",
"[@	c #63BE59",
"}@	c #64BE59",
"|@	c #67C15B",
"1@	c #358E3F",
"2@	c #D9D9D9",
"3@	c #707070",
"4@	c #676766",
"5@	c #666766",
"6@	c #666666",
"7@	c #1E4B70",
"8@	c #04376A",
"9@	c #A8C2D2",
"0@	c #ECFDFF",
"a@	c #E0F4FA",
"b@	c #DBF2FA",
"c@	c #D8F1FA",
"d@	c #D5F0FA",
"e@	c #D2EEFA",
"f@	c #78B093",
"g@	c #3D9945",
"h@	c #67BF5E",
"i@	c #62BB5B",
"j@	c #6BC063",
"k@	c #74C76B",
"l@	c #73C66A",
"m@	c #6FC267",
"n@	c #72C469",
"o@	c #388E44",
"p@	c #707170",
"q@	c #6D6D6D",
"r@	c #636362",
"s@	c #626363",
"t@	c #626263",
"u@	c #1D476A",
"v@	c #043362",
"w@	c #A5C0D1",
"x@	c #E8FCFF",
"y@	c #DAF2FA",
"z@	c #D7F0FA",
"A@	c #D0EDFA",
"B@	c #A6CEC7",
"C@	c #70AB84",
"D@	c #6AA67F",
"E@	c #66A17C",
"F@	c #419156",
"G@	c #7DC785",
"H@	c #8AD091",
"I@	c #8DD393",
"J@	c #6AB775",
"K@	c #2E753D",
"L@	c #416D4B",
"M@	c #3E6F4A",
"N@	c #3F6C4A",
"O@	c #D8D8D8",
"P@	c #696A69",
"Q@	c #5E5E5E",
"R@	c #5F5E5F",
"S@	c #5E5F5F",
"T@	c #183651",
"U@	c #001E44",
"V@	c #EDFFFF",
"W@	c #E2FAFF",
"X@	c #E1FAFF",
"Y@	c #E0FAFF",
"Z@	c #DEF9FF",
"`@	c #DBF8FF",
" #	c #D9F7FF",
".#	c #D6F5FF",
"+#	c #D5F5FF",
"@#	c #D3F5FE",
"##	c #E1FDFC",
"$#	c #607E95",
"%#	c #173053",
"&#	c #66A17D",
"*#	c #80C983",
"=#	c #95D796",
"-#	c #99DA99",
";#	c #6BB574",
">#	c #386844",
",#	c #5F5F5E",
"'#	c #5F5E5E",
")#	c #5E5E5F",
"!#	c #6A696A",
"~#	c #666565",
"{#	c #5A5B5B",
"]#	c #5B5B5B",
"^#	c #183F62",
"/#	c #02305E",
"(#	c #7390AA",
"_#	c #AFC3D3",
":#	c #A8BECE",
"<#	c #A7BECE",
"[#	c #A6BDCE",
"}#	c #A7BECF",
"|#	c #A9BFCF",
"1#	c #3E6385",
"2#	c #0A3460",
"3#	c #629E79",
"4#	c #8FD67B",
"5#	c #A4E48D",
"6#	c #A9E790",
"7#	c #76BF6E",
"8#	c #376743",
"9#	c #5B5A5B",
"0#	c #626262",
"a#	c #575757",
"b#	c #1F4766",
"c#	c #023763",
"d#	c #002A56",
"e#	c #002B53",
"f#	c #002A55",
"g#	c #002A54",
"h#	c #012A54",
"i#	c #012952",
"j#	c #012754",
"k#	c #012552",
"l#	c #002C56",
"m#	c #0A395E",
"n#	c #589373",
"o#	c #4C9E48",
"p#	c #5AA655",
"q#	c #5CA856",
"r#	c #449948",
"s#	c #376543",
"t#	c #D7D7D7",
"u#	c #5F5F60",
"v#	c #535354",
"w#	c #545354",
"x#	c #535353",
"y#	c #3B4D5C",
"z#	c #183F60",
"A#	c #14395A",
"B#	c #163B5A",
"C#	c #163A5B",
"D#	c #163A5A",
"E#	c #16395A",
"F#	c #153C5E",
"G#	c #133B5F",
"H#	c #344859",
"I#	c #535453",
"J#	c #545353",
"K#	c #5F5F5F",
"L#	c #5B5C5C",
"M#	c #504F50",
"N#	c #505050",
"O#	c #50504F",
"P#	c #504F4F",
"Q#	c #4F5050",
"R#	c #4F504F",
"S#	c #4F4F4F",
"T#	c #4F4F50",
"U#	c #5C5C5C",
"V#	c #D6D6D6",
"W#	c #575858",
"X#	c #4C4C4C",
"Y#	c #4B4C4C",
"Z#	c #4C4C4B",
"`#	c #4C4B4C",
" $	c #585858",
".$	c #E4E4E4",
"+$	c #C5C5C5",
"@$	c #484848",
"#$	c #C2C2C2",
"$$	c #9D9E9D",
"%$	c #FFFFFF",
"&$	c #F3F3F3",
"*$	c #7A7979",
"=$	c #9E9D9E",
"-$	c #9D9D9D",
";$	c #E7E7E7",
">$	c #606061",
",$	c #E6E6E6",
"'$	c #515151",
")$	c #505151",
"!$	c #9B9C9B",
"~$	c #454445",
"{$	c #444445",
"]$	c #C1C1C1",
"^$	c #454544",
"/$	c #444545",
"($	c #444544",
"_$	c #515150",
":$	c #C4C4C4",
"<$	c #D6D5D5",
"[$	c #D9D9DA",
"}$	c #FDFDFD",
"|$	c #676767",
"1$	c #666768",
"2$	c #9A9A9A",
"3$	c #F2F2F2",
"4$	c #424141",
"5$	c #414141",
"6$	c #414241",
"7$	c #4E4E4F",
"8$	c #C0C0C0",
"9$	c #414142",
"0$	c #C3C3C3",
"a$	c #D5D5D5",
"b$	c #C2C2C1",
"c$	c #BEBFBF",
"d$	c #BEBEBF",
"e$	c #3D3E3D",
"f$	c #BFBFBF",
"g$	c #BFBFBE",
"h$	c #BFBEBF",
"i$	c #3D3E3E",
"j$	c #3E3E3E",
"k$	c #656565",
"l$	c #656564",
"m$	c #3D3D3E",
"n$	c #3E3D3D",
"o$	c #3E3E3D",
"p$	c #E5E5E5",
"q$	c #D4D4D4",
"r$	c #969696",
"s$	c #3A3A3B",
"t$	c #BEBDBD",
"u$	c #3A3A3A",
"v$	c #474747",
"w$	c #3A3B3A",
"x$	c #3B3A3B",
"y$	c #BDBDBD",
"z$	c #494848",
"A$	c #373737",
"B$	c #363736",
"C$	c #BCBCBC",
"D$	c #6C6C6C",
"E$	c #373637",
"F$	c #373736",
"G$	c #454545",
"H$	c #D3D3D3",
"I$	c #BBBBBB",
"J$	c #333334",
"K$	c #343433",
"L$	c #929392",
"M$	c #F1F1F1",
"N$	c #333434",
"O$	c #5C5D5C",
"P$	c #5D5C5C",
"Q$	c #69696A",
"R$	c #333433",
"S$	c #333333",
"T$	c #343334",
"U$	c #3E3F3E",
"V$	c #D3D4D3",
"W$	c #3E3E3F",
"X$	c #3F3E3F",
"Y$	c #3F3E3E",
"  . . . . . . . . . . . . . . . . . . . . . . . . . . . . . .   ",
"  + @ # $ $ % $ @ $ $ % $ $ $ @ & $ $ @ @ # $ $ $ @ $ @ @ # +   ",
"* = - ; ; ; ; > > ; ; ; ; ; , > ; ; ; , , ' ; ' ; ; ; ; ; ; ) * ",
"* ! ~ ~ ~ { ] ^ / ( _ : < [ } | 1 2 3 4 5 6 ~ ~ ~ ~ ~ ~ ~ ~ ! * ",
"7 8 9 9 9 0 a b c d e f g h i j k l m n o p 9 9 9 9 9 9 9 9 8 7 ",
"7 q r s t u v w x d y z A B C D E F G H I J r r t r r s r r q 7 ",
"K L M N N O P w Q R S T U V W X Y Z `  ...+.M M @.@.M #.N $.%.K ",
"K t &.*.=.-.;.>.,.'.).!.~.{.].^./.(._.:.<.[.=.=.}.}.&.|.}.1.2.K ",
"3.4.5.6.7.8.9.0.a.b.c.d.e.f.g.h.i.j.k.l.m.n.o.p.p.q.r.s.6.6.@.3.",
"3.&.t.u.v.w.x.y.z.A.B.C.D.E.F.G.H.I.J.K.L.M.N.O.P.Q.R.v.t.S.*.3.",
"T.U.V.W.X.Y.Z.`. +.+++@+#+#+$+%+&+*+=+-+;+>+,+'+)+!+~+X.X.X.{+]+",
"^+/+(+_+:+<+[+}+|+1+2+3+4+5+6+7+8+9+0+a+b+c+d+e+f+g+h+:+i+j+/+^+",
"^+k+l+l+l+m+n+o+p+q+r+s+t+u+v+w+x+y+z+A+B+C+D+E+F+G+H+I+J+K+k+^+",
"L+M+N+N+N+O+P+Q+R+S+T+U+V+W+X+Y+Z+`+ @.@+@@@#@#@#@$@%@%@&@*@M+L+",
"L+=@-@-@-@;@>@,@'@)@)@!@~@{@]@^@/@(@_@:@<@<@[@[@[@}@<@<@|@1@=@L+",
"2@3@4@5@6@7@8@9@0@!@a@~@{@b@c@d@e@f@g@h@i@j@k@k@k@l@m@m@n@o@p@2@",
"2@q@r@s@t@u@v@w@x@{@{@b@y@z@d@/@A@B@C@D@E@F@G@H@I@J@K@L@M@N@q@2@",
"O@P@Q@R@S@T@U@,@V@W@X@Y@Z@`@ #.#+#@###$#%#&#*#=#-#;#>#,#'#)#!#O@",
"O@~#{#]#]#^#/#(#_#:#:#:#<#<#<#[#[#}#|#1#2#3#4#5#6#7#8#]#9#{#6@O@",
"O@0#a#a#a#b#c#d#e#d#f#f#g#h#h#h#i#j#k#l#m#n#o#p#q#r#s#a#a#a#0#O@",
"t#u#v#w#x#y#z#A#B#C#C#C#D#C#C#D#D#E#C#F#G#H#x#I#I#x#v#v#J#v#K#t#",
"t#L#M#N#O#P#M#N#N#Q#Q#N#N#R#N#P#M#Q#S#M#M#T#O#N#Q#S#P#M#M#N#U#t#",
"V#W#X#X#X#X#X#X#X#Y#X#X#X#Z#X#X#X#X#Y#`#`#X#Y#X#X#X#X#X#X#X# $V#",
".$+$@$@$#$#$$$%$%$%$&$*$q@%$%$%$%$%$q@&$=$@$@$&$-$#$%$%$%$;$>$V#",
"* ,$'$)$,$! !$&$~${$]$&$^$^$/$/$]$]$($&$! {$~$&$! ]$]$~$_$,$:$<$",
"[$}$|$1$%$|$2$3$4$5$2$3$5$5$6$2$,$7$5$3$2$5$5$3$2$8$8$9$5$8$0$a$",
"a$b$c$c$d$e$8 3$f$g$3$h$i$j$k$%$l$m$n$3$8 o$j$3$8 c$p$c$d$%$) a$",
"q$! p$p$r$s$r$3$O@%$t$u$u$v$p$r$s$u$w$3$r$x$u$3$r$t$p$y$y$r$z$q$",
"q$-@%$%$K#A$q 3$B$C$3$D$A$C$C$A$E$F$F$C$C$E$D$3$D$C$C$F$A$B$G$q$",
"H$j$I$I$J$K$L$M$N$K$I$M$O$%$%$%$%$%$P$Q$M$%$%$I$N$I$I$R$S$T$U$V$",
"V#X#j$j$j$j$j$j$j$W$X$j$j$j$j$j$j$j$j$j$Y$Y$U$j$j$X$j$j$j$j$X#V#",
"a$H$H$H$H$H$H$H$H$H$H$H$H$H$H$H$H$H$H$H$H$H$H$H$H$H$H$H$H$H$H$a$"};
