/* XPM */
static char *warp[] = {
/* columns rows colors chars-per-pixel */
"32 32 50 1",
"  c #020201",
". c #0C0C0C",
"X c #131313",
"o c #1A1A1A",
"O c #1F1F20",
"+ c #201F1F",
"@ c #232323",
"# c #272728",
"$ c #272828",
"% c #282727",
"& c #282827",
"* c #2B2B2B",
"= c #333333",
"- c #3B3B3B",
"; c #3F403F",
": c #3F4040",
"> c #403F40",
", c #434343",
"< c #484748",
"1 c #484847",
"2 c #4B4B4B",
"3 c #4F5050",
"4 c #535253",
"5 c #585758",
"6 c #5B5B5B",
"7 c #5F5F60",
"8 c #636363",
"9 c #676868",
"0 c #6B6B6B",
"q c #737373",
"w c #7B7B7B",
"e c #848484",
"r c #8B8B8B",
"t c #939393",
"y c #979897",
"u c #9B9B9B",
"i c #A09FA0",
"p c #A5A5A5",
"a c #A8A7A7",
"s c #ACACAC",
"d c #B1B1B1",
"f c #BBBBBB",
"g c #C3C3C3",
"h c #CBCBCB",
"j c #D3D3D3",
"k c #DCDCDC",
"l c #E3E3E3",
"z c #EDEDED",
"x c gray95",
"c c #FEFEFE",
/* pixels */
"eeeeeeerwwwweeeeeeerqwqweerereee",
"wwewertagklhtryagysfjlldwewwweew",
"wasdfgjklkkljwwq8*4jlkkllwwqwqqw",
"qttyupslhjgq199wy5--2dkjkd9qqqqq",
"0tuadgkklhhjkzxllxzf8wdkkk9000q0",
"990998kkfhlzxdttyaglzdfjlk999998",
"8qweragh+6ck9==,,58rgzredl787877",
"666666r0wkk6.o=6068qwgl2,u666666",
"56670wtdkzqqqryppoo@2yld44545545",
"334458qylfo.o+,ruo=,8tgl24422433",
"22458qruzw,1480ty-259ral42222222",
"177899qalq260ruagqq24qyl01,,,1,,",
">70wrudglq-,48wuffg44qyl1;;->>>>",
"-,2450wuzw......XXXo&5az--------",
"======-=gd..Xo@*=;28rdgl--=-====",
"=><48qrdhz9..Xo+=17qrglr==*===*=",
"****=--20sj2359qryafgjj=********",
"$-;2469qwrkj8Xo%*-2ulx8%%%#%*#*#",
"%@@@@@@@%@-jlfruadhzl%@@@@@@@@@@",
"+-2480wydhklllzxxxkkl@o@o@o@+@o+",
"ooooooooooeeo$-11=@o2roooooooooo",
"oooooooooXooXoooXoooXoXooXoooooo",
"XXXXXXXXXXXXXoXXXXXXXoXXXoXXXXXX",
"XXXXsdXXdd.XwxXX,ccccwXxcccdXX.X",
"....sd.Xds.Xzcw.-c-Xec-zwX2xwX..",
"....ds..sd.2xhs.-c-.-c-xw..zw...",
".. .sswwss.wzwx.-csskkoxhshx2...",
" .. sfkkfs zhszw-cfcko zhss2  . ",
".   scwwca2zssha=c=wcw zw    .  ",
"    skXXkawz  wz=c= qc=xw       ",
"                                ",
"                                "
};
