/* XPM */
static char *window[] =
{
/* width height ncolors chars_per_pixel */
"32 32 35 2",
/* colors */
"AA c #FFFFD6D6D6D6",
"BA c #FFFFCECECECE",
"CA c #F7F7BDBDBDBD",
"DA c #EFEFC6C6C6C6",
"EA c #EFEFBDBDBDBD",
"FA c #E7E7ADADADAD",
"GA c #DEDEB5B5B5B5",
"HA c #DEDEADADADAD",
"IA c #D6D69C9C9C9C",
"JA c #CECEADADADAD",
"KA c #CECE9C9C9C9C",
"LA c #CECE8C8C8C8C",
"MA c #BDBD9C9C9C9C",
"NA c #BDBD8C8C8C8C",
"OA c #B5B57B7B7B7B",
"PA c #ADAD84848484",
"AB c #ADAD7B7B7B7B",
"BB c #A5A56B6B6B6B",
"CB c #9C9C73737373",
"DB c #9C9C6B6B6B6B",
"EB c #94945A5A5A5A",
"FB c #8C8C5A5A5A5A",
"GB c #84844A4A4A4A",
"HB c #7B7B52525252",
"IB c #7B7B4A4A4A4A",
"JB c #737339393939",
"KB c #6B6B42424242",
"LB c #6B6B39393939",
"MB c #636329292929",
"NB c #5A5A29292929",
"OB c #525218181818",
"PB c #4A4A18181818",
"AC c #424208080808",
"BC c #393908080808",
"CC c #292900000000",
/* pixels */
"FAKAIAKAIAIAKAIAKAIAKAIAKAHAKAJAIAJAIAJAKAHAKAJAJAHAKAJAJAJAKAEA",
"NALAMALALAMALAKALAMALAMAKANAKANALAMALAMAKANAMAKANAMAKANAMAKAMAMA",
"HANALANANALANANAKANAKALANAKANAKANAKAMALAMAMALAMAMANAMAKAMAMAMAHA",
"KANALANAKALANAKANALANANAKANAIAMAKAKANANAMALAMAMALAMAKAMANAKAMAJA",
"IALANALANAMALANALAMANAFAHAKANABAKANAEAEANAMANAKAMANAMANAMAMANAJA",
"IANALANALANALAKANANAFAABIBDBBCBCCCFBLBPAGANAKAMANAMAKAMALAMAKAJA",
"IALAMALAMALAMANALAKABACCDBHAFBABFBDANAPBDAJANANAKAMANAMAMAKAMAKA",
"KANALANALALANALAOABABCBABAHAFBBAIBDBABABBCBANAMAMALAMAKAMAMAMAJA",
"IALANALAMANALANAEAEBDBFBFBBCFAKAKAIBBABAHBKAMALAMAMALAMANAKAMAHA",
"IANALANALAKANANACAFBBAFABAFBHAPAEAPBFBFBNBABHANAKANAMAMAKAMANAJA",
"IALANALANANAFAHABABCIBLAPBIBBAEAHACBBABABACBBAPAMAKANAMAMAKAMAJA",
"IANALANANABAIBBCACFBOBBCLBBAKAIBNABCCCDBPBKBLBEAMANAMALAMAMALAJA",
"IALANALABABCIABABABCNBFBEBBCNBEBIBABIBCCPBHBDBCBEANAMAMANAMAMAJA",
"KALANABAMBEAFBEBCCLABABAIBGAHAKAKABABAKAAAAAAANBAAAAHADABANAMAHA",
"IANALAOAIBEABAFAABEBIAFAIBKAKAHAGAKALBLBLBCCCCCCCCPBPBCCKBDANAJA",
"IAOAEAEBGBJBGBPBBAIBFAFAIBKABAPBBCBCNACCNBIBCCAAKACCAADAKBEAMAJA",
"IALAHAGBBABALAEBHAIBFAEAIBKANAABKABAEABCBAPACCBAAAPBPAJAFBGAMAKA",
"IAOACAIBMBBBHAEBHAIBFAHAIBHAFBKALBEAKACCEAAACCBABACCAAJAHBDANAJA",
"IANAFAGBBAOAMBABHAIBFAEAIBKAABFBKANABANBCCEACCCCCCCCKAGAKBGAMAHA",
"KALAIALAMBBAFAABIAJBKAHAGBKADBKAHABAABABGAIBIBAAKAPAPBCCMADANAJA",
"IANANAEAOBIBIANBBAABBABAFBABABPBABLBNAPANBBANBBAHAEADAAAJANAMAJA",
"KALALAOABAEBACNANBMBEBHAABLBOADBBAEAFBNALBCCBCAAPANAMANAMAMAKAJA",
"IANALALANAHAIAACBCBCACBCCCLBNBFBCCBCFBNBNAAABAPAKAMAMAMAKAMANAJA",
"IANAKANALALAKABABAEANAKAIAHANBDBBAHAGABAGAKAPAKAMAKANAKANAMAMAJA",
"IALANALAMANALAOANALAHAHAHAKABAEANAMANANANAMAKANAMAMAKAMAMAKAMAKA",
"IAMALANANALAMALALAMALANANANANANAMALANAKAMANANAKAMALAMAMAKAMAMAHA",
"IALANAKALANALANANALAMALAMALANANAKANAKANAMAKAMANAKAMANAMANAKAMAKA",
"IAMALANANANAKANAKANANAKANAKANAKAMALAMAMALAMANAKAMANAKAMAKAMAMAJA",
"KALANALAKANANAKANALAKANALANAKANALAMANAKANAKAMANAMAMANAKAMAMAKAJA",
"IALAMALANAKALANALAMANALAMALAMANAMANAKANAKAMANAMALAMAKAMAMAMANAHA",
"LANALAMANALANAKANALAMAMALAMALAMALAMANAKANAKAMANAMALAMAMAKAMAMAMA",
"HAKAKAKAIAKAKAKAKAJAIAIAKAKAKAIAJAIAJAKAKAJAKAJAKAJAJAKAJAKAJAEA",
};
