/* XPM */
static char *zooAssets[] = {
/* columns rows colors chars-per-pixel */
"32 32 252 2",
"   c #000046",
".  c #041266",
"X  c #0D2197",
"o  c #2F4196",
"O  c #1341FD",
"+  c #1E55EF",
"@  c #1F62DD",
"#  c #2549FB",
"$  c #2057F4",
"%  c #3057F4",
"&  c #3854FC",
"*  c #395FF1",
"=  c #226CEF",
"-  c #286EEE",
";  c #226BF1",
":  c #2C69FB",
">  c #2D6AFB",
",  c #2479FB",
"<  c #2679F9",
"1  c #3E72F2",
"2  c #3F70F5",
"3  c #435BB9",
"4  c #5E6BA8",
"5  c #6D749D",
"6  c #6978B4",
"7  c #4757FE",
"8  c #5767D2",
"9  c #436AF7",
"0  c #436AF8",
"q  c #4F66F6",
"w  c #4D6EF7",
"e  c #4B6AF8",
"r  c #4A74EE",
"t  c #4470F2",
"y  c #546EE6",
"u  c #5269F3",
"i  c #5068F9",
"p  c #5B60FE",
"a  c #5F77EB",
"s  c #7973D6",
"d  c #696CFD",
"f  c #6175EE",
"g  c #6972EF",
"h  c #6878E9",
"j  c #6170F0",
"k  c #6B70F4",
"l  c #6970FC",
"z  c #6A71FE",
"x  c #727DF1",
"c  c #2783C9",
"v  c #2885CB",
"b  c #2C8FCC",
"n  c #2D98D5",
"m  c #2F9DD4",
"M  c #399ECA",
"N  c #3A9ED8",
"B  c #2987EB",
"V  c #2987EC",
"C  c #2D88EA",
"Z  c #2A8FF3",
"A  c #2E9AEC",
"S  c #2B91FF",
"D  c #2F9EF1",
"F  c #2E9AFF",
"G  c #2E9CF8",
"H  c #2F9EFE",
"J  c #309BFE",
"K  c #31A6CE",
"L  c #31A6D1",
"P  c #32A9D3",
"I  c #35B2DB",
"U  c #37B4DB",
"Y  c #36B5DF",
"T  c #37B6DE",
"R  c #2FA0FF",
"E  c #30A2E4",
"W  c #31A7EA",
"Q  c #33A8E6",
"!  c #33ACE1",
"~  c #35A8E4",
"^  c #35ADE1",
"/  c #34AEEB",
"(  c #31A3FF",
")  c #33ABF4",
"_  c #33ACFF",
"`  c #35B1E7",
"'  c #35B2E8",
"]  c #37B9E1",
"[  c #37BAE3",
"{  c #37B8E6",
"}  c #37BBE4",
"|  c #37BBEC",
" . c #3AB5E9",
".. c #38BAE3",
"X. c #38BBE4",
"o. c #3ABCE3",
"O. c #38BCE5",
"+. c #39BDE7",
"@. c #3CBBE2",
"#. c #39BEE8",
"$. c #39BEEA",
"%. c #39BFEC",
"&. c #36B4FE",
"*. c #37B8F2",
"=. c #38BEFF",
"-. c #3AC3E4",
";. c #39C0EE",
":. c #3CC6ED",
">. c #3CC8EF",
",. c #3AC2F0",
"<. c #3AC3F3",
"1. c #3BC6F6",
"2. c #3AC4FE",
"3. c #3BC8F6",
"4. c #3DCCFD",
"5. c #3ED0FA",
"6. c #3FD3FE",
"7. c #3FD4FF",
"8. c #7E86B2",
"9. c #5C96E6",
"0. c #56B1D1",
"q. c #44ABE5",
"w. c #679DDA",
"e. c #7688CB",
"r. c #6A81F2",
"t. c #728AFD",
"y. c #68A2DE",
"u. c #69AAEC",
"i. c #4BC0E6",
"p. c #40D3FE",
"a. c #40D4FF",
"s. c #5EC5EA",
"d. c #68C2DF",
"f. c #BE3A51",
"g. c #D8262A",
"h. c #E22626",
"j. c #E03434",
"k. c #E03838",
"l. c #E03E3E",
"z. c #C2374B",
"x. c #CF5353",
"c. c #DF4343",
"v. c #D84F4F",
"b. c #DF4B4B",
"n. c #DE4E4E",
"m. c #DE5050",
"M. c #DE5757",
"N. c #DE5959",
"B. c #DD5C5C",
"V. c #DC5F5F",
"C. c #DD6161",
"Z. c #DD6666",
"A. c #DC6D6D",
"S. c #D47A7A",
"D. c #BC7199",
"F. c #9078D1",
"G. c #889098",
"H. c #8C93B5",
"J. c #9199A2",
"K. c #9BA3AC",
"L. c #98A5B2",
"P. c #9DA7B0",
"I. c #9FA8B2",
"U. c #A190A6",
"Y. c #AAAAAA",
"T. c #A8ABAD",
"R. c gray68",
"E. c #AFAFAF",
"W. c #A3ADB7",
"Q. c #A5AFB9",
"!. c #A6B0BA",
"~. c #A7B1BB",
"^. c #AFB2B5",
"/. c #A8B1BB",
"(. c #A9B2BC",
"). c #AFB7BF",
"_. c #BDA8A8",
"`. c #B1B1B1",
"'. c gray71",
"]. c #B7B7B7",
"[. c gray72",
"{. c gray73",
"}. c #B9BCBF",
"|. c gray74",
" X c #BFBEBE",
".X c #8588DF",
"XX c #8497DE",
"oX c #9797DA",
"OX c #8182EC",
"+X c #8A8CE1",
"@X c #888BED",
"#X c #898BF1",
"$X c #8D91E3",
"%X c #829AFF",
"&X c #9B9CEC",
"*X c #9FA3CA",
"=X c #92A1DE",
"-X c #8AA2FF",
";X c #ACB8D1",
":X c #B2B9C1",
">X c #B9BEC3",
",X c #B9BBCE",
"<X c #BABCC9",
"1X c #A3A6F9",
"2X c #A4A7F9",
"3X c #A0B5FA",
"4X c #B5B5F7",
"5X c #BAC0C5",
"6X c #BDC0C3",
"7X c #BDC2C7",
"8X c #BEC1C4",
"9X c #B3C7FF",
"0X c #CA9999",
"qX c #DA8282",
"wX c #DA8787",
"eX c #DA8D8D",
"rX c #D89494",
"tX c #D89D9D",
"yX c #D7A7A7",
"uX c #D7AAAA",
"iX c #D6AFAF",
"pX c #D8A3A3",
"aX c #D6B7B7",
"sX c #C9BECA",
"dX c #C0C0C0",
"fX c #C0C1C5",
"gX c #C6C6C7",
"hX c #C3C7CA",
"jX c #C5C5CF",
"kX c #C5C8CB",
"lX c #C6C9CC",
"zX c #C8C8C8",
"xX c #CCC9CA",
"cX c #CDCDCD",
"vX c #CCCCCE",
"bX c gray81",
"nX c #C0C1D3",
"mX c #CFD0D1",
"MX c #D0C0C0",
"NX c #D5C3C3",
"BX c #D5C6C6",
"VX c #D5CCCC",
"CX c gray82",
"ZX c #D2D2D2",
"AX c LightGray",
"SX c #D0D0D5",
"DX c gray83",
"FX c #D5D5D5",
"GX c gray84",
"HX c #D6D6DB",
"JX c #D1E4FF",
"KX c #E0F3FF",
/* pixels */
"DXDXDXDXDXDXDXDXDXDXDXDXDXDXDXDXDXDXDXDXDXDXDXDXDXDXDXDXDXDXDXDX",
"DXDXDXDXDXDXDXDXDXDXDXDXDXDXDXDXDXDXDXDXDXDXDXDXXXDXDXDXDXDXDXDX",
"DXDXDXDXDXhX:X(.Q.~.~.Q.Q.~.Q.~.~.Q.Q.~.Q.Q.gX8.KXe.H.<XZXDXDXDX",
"DXDXDX).L.(.5XhXlXlXlXlXlXlXlXlXlXlXlXlXfX8.3XKXKXKXJXJX3XH.DXDX",
"DXDXAXL.DXDXDXDXDXDXDXDXDXDXDXDXDXDXDXDXe.JXKXJXJXKXKX9X4 . DXDX",
"DXDXhX(.DXDXDXDXDXDXDXDXDXDXDXDXDXDXDXDX8 t.t.%XJXKX.     o DXDX",
"DXDX:X7XDXDXDXDXDXDXDXDXDXDXDXDXDXDXtXM.g.%Xt.r.9Xe.    . o DXDX",
"DXDX(.hXDXDXDXDXDXDXDXDXDXNXrXA.n.h.b.wX6 -Xt.t.-Xo   . . 3 DXDX",
"DXDXQ.lXDXDXDXDX4X4XSXaXC.l.C.qXpXVXDXDX8.-Xt.t.-Xo   . . 4 DXDX",
"DXDXQ.lXDXDXDX@X, , O 7 F.sXZXDXDXDXDXDX8.D.F.%X-Xo   . . 5 DXDX",
"DXDXQ.lXDXDXk S H F G Z A ; $ f nXAXDXBXx.f.s %X3X3   X 5 Q.DXDX",
"DXDX~.lXDXx R ( H J D D W W O.V 2XcXZXV.Z.DXgXU.z.4 H.xXlXQ.DXDX",
"DXDXQ.lXg _ &._ _ ) ) / ' } Q z '. XS.V.VXDXDXqXA.DXDXDXlX~.DXDX",
"DXDX(.f =.2.&.&.&.*.| #.O.O.i E.'.0Xg.BXDXDXDXl.uXDXDXDXlXQ.DXDX",
"DXGXy 4.2.=.2.2.<.;.#.O.-.% .XoX_.v.yXDXDXDXpXk.DXDXDXDXlX~.DXDX",
"DX@XJ a.6.4.4.1.<.$.O.-.= w.c @ + & d cXZXAXN.eXDXDXDXDXlXQ.DXDX",
"DXHX$X9 =.6.4.<.$.#.#.B y.v n E O.V 1X|.cXaXj.AXDXDXDXDXlX~.AXAX",
"cXZXK.<XOX: <.:.;.O.A 9.b n I [ Q z R.{.cXV.eXAXDXDXDXDXlX~.DXDX",
"ZXZXW.7XcXh w < #.` 1 M L Y ..o.i Y.'.zXrXm.AXDXDXDXDXDXzX~.DXDX",
"ZXAXQ.lXa <. .u.e 2 0.K Y ..-.% +XoX|.MXc.iXDXDXDXDXDXDXlX~.DXDX",
"ZXDXQ.=XJ 6.4.<.s.d.P I [ -.= w.c @ + & d cXZXDXDXDXDXDXlXQ.DXDX",
"mXZXQ.lX&X0 2.p.1.{ Y ..O.B y.v N q.i.B 1X|.cXDXDXDXDXDXlXQ.DXDX",
"ZXZXQ.lXcXjXOX> <.:.#...A 9.b m ^ @.~ z R.{.cXDXDXDXDXDXlXQ.DXDX",
"ZXDXQ.lXZXcXgXh w , #.' 1 M P Y ..[ q Y.'.zXZXDXDXDXDXDXlX(.DXDX",
"AXDX(.hXDXAX# 1. .u.e t 0.K U o.-.* R.{.gXAXDXDXDXDXDXDXhX(.AXDX",
"AXDX).7XDXp F 6.4.<.s.d.P I [ -.- R.'.zXZXDXDXDXDXDXDXDX7X:XDXDX",
"DXDXhX(.AXbX&X9 =.p.1.{ Y [ O.C ;X'.gXZXDXDXDXDXDXDXDXDX(.hXDXDX",
"DXDXDXL.AXZXzXjXOX: <.:.#.[ A =X`.dXmXDXDXDXDXDXDXDXDXDXL.DXDXDX",
"DXDXAX:XL.~.>XdX>X,Xj < #.' r T.^.7XhXzXlXlXlXlXhX5X(.L.).DXDXDX",
"DXDXDXDXDXhX:X(.W.P.K.*Xu t G.J.P.Q.~.Q.Q.Q.~.Q.(.:XhXDXDXDXDXDX",
"DXDXDXDXDXDXDXDXDXAXZXzXdX{.{.zXZXDXDXDXDXDXDXDXDXDXDXDXDXDXDXDX",
"DXDXDXDXDXDXDXDXDXDXAXAXbXcXcXZXDXDXDXDXDXDXDXDXDXDXDXDXDXDXDXDX"
};
