/* XPM */
static char * zooAnimStore_xpm[] = {
"32 32 146 2",
"  	c #000000",
". 	c #020202",
"+ 	c #040404",
"@ 	c #050505",
"# 	c #060606",
"$ 	c #070707",
"% 	c #0A0A0A",
"& 	c #0C0D0D",
"* 	c #0D0D0D",
"= 	c #0F1011",
"- 	c #101010",
"; 	c #101112",
"> 	c #111111",
", 	c #121212",
"' 	c #131313",
") 	c #141414",
"! 	c #141415",
"~ 	c #151515",
"{ 	c #151516",
"] 	c #161616",
"^ 	c #171717",
"/ 	c #1A1A1A",
"( 	c #1A1B1B",
"_ 	c #1B1B1B",
": 	c #1D1D1D",
"< 	c #1F2020",
"[ 	c #202020",
"} 	c #212121",
"| 	c #262626",
"1 	c #272727",
"2 	c #26282A",
"3 	c #2A2D2F",
"4 	c #2D2D2D",
"5 	c #2E2E2E",
"6 	c #2F2F2F",
"7 	c #2F2F30",
"8 	c #323232",
"9 	c #363636",
"0 	c #393939",
"a 	c #3E3E3E",
"b 	c #404142",
"c 	c #424242",
"d 	c #464646",
"e 	c #474747",
"f 	c #494949",
"g 	c #4A4A4A",
"h 	c #474B50",
"i 	c #4B4B4B",
"j 	c #4B4C4D",
"k 	c #4C4C4C",
"l 	c #4F4F4F",
"m 	c #505050",
"n 	c #515151",
"o 	c #525252",
"p 	c #535353",
"q 	c #555555",
"r 	c #575757",
"s 	c #595959",
"t 	c #5B5B5B",
"u 	c #5F5F5F",
"v 	c #606060",
"w 	c #606162",
"x 	c #616161",
"y 	c #626262",
"z 	c #656565",
"A 	c #666666",
"B 	c #696969",
"C 	c #666C73",
"D 	c #6C6C6C",
"E 	c #6D6D6D",
"F 	c #6F6F6F",
"G 	c #6A7177",
"H 	c #707070",
"I 	c #717171",
"J 	c #737373",
"K 	c #767676",
"L 	c #777777",
"M 	c #787878",
"N 	c #7A7A7A",
"O 	c #7B7B7B",
"P 	c #767E85",
"Q 	c #7D7D7D",
"R 	c #7F7F7F",
"S 	c #808080",
"T 	c #828282",
"U 	c #838383",
"V 	c #848484",
"W 	c #858585",
"X 	c #888888",
"Y 	c #8A8A8A",
"Z 	c #909090",
"` 	c #939393",
" .	c #949494",
"..	c #959595",
"+.	c #9A9A9A",
"@.	c #9B9B9B",
"#.	c #9C9C9C",
"$.	c #9E9E9E",
"%.	c #9D9FA2",
"&.	c #A0A0A0",
"*.	c #A2A2A2",
"=.	c #98A5B2",
"-.	c #9EA8B1",
";.	c #A5A8AA",
">.	c #AAAAAA",
",.	c #A3ADB7",
"'.	c #AAADAF",
").	c #ADADAD",
"!.	c #A6B0BA",
"~.	c #AFAFAF",
"{.	c #A9B2BC",
"].	c #B1B1B1",
"^.	c #B4B4B4",
"/.	c #B5B5B5",
"(.	c #AFB7BF",
"_.	c #B6B6B6",
":.	c #B6B8BB",
"<.	c #B2B9C1",
"[.	c #B9B9B9",
"}.	c #BBBBBB",
"|.	c #BCBCBC",
"1.	c #BDBDBD",
"2.	c #BAC0C5",
"3.	c #BDC0C3",
"4.	c #C0C0C0",
"5.	c #C1C1C1",
"6.	c #BDC2C7",
"7.	c #C2C2C2",
"8.	c #C3C3C3",
"9.	c #C4C4C4",
"0.	c #C5C5C5",
"a.	c #C3C7CA",
"b.	c #C7C7C7",
"c.	c #C8C8C8",
"d.	c #C6C9CC",
"e.	c #CACACA",
"f.	c #CBCBCB",
"g.	c #CCCCCC",
"h.	c #CDCDCD",
"i.	c #CECECE",
"j.	c #CFCFCF",
"k.	c #D0D0D0",
"l.	c #D1D1D1",
"m.	c #D2D2D2",
"n.	c #D3D3D3",
"o.	c #D4D4D4",
"o.o.o.o.o.o.o.o.o.o.o.o.o.o.o.o.o.o.o.o.o.o.o.o.o.o.o.o.o.o.o.o.",
"o.o.o.o.o.o.o.o.o.o.o.o.o.o.o.o.o.o.o.o.o.o.o.o.o.o.o.o.o.o.o.o.",
"o.o.o.o.o.a.<.{.!.!.!.!.!.!.!.!.!.!.!.!.!.!.!.!.{.<.a.o.o.o.o.o.",
"o.o.o.(.=.{.2.a.d.d.d.d.d.d.d.d.d.d.d.d.d.d.d.d.a.2.{.=.(.o.o.o.",
"o.o.o.=.o.o.o.o.o.o.o.o.h.j.o.o.o.o.o.o.o.o.o.o.o.o.o.o.=.o.o.o.",
"o.o.a.{.o.o.o.o.o.o.o.).v 5.o.o.o.o.o.o.o.o.o.o.o.o.o.o.{.a.o.o.",
"o.o.(.6.o.o.o.k.D c 4 ] X T c.o.o.o.o.o.o.o.o.o.o.o.o.o.6.(.o.o.",
"o.o.{.a.o.o.j.t .   * - > 9 ].o.o.o.o.o.o.o.o.o.o.o.o.o.a.{.o.o.",
"o.o.!.d.o.1.s   ] V e._.T $.m.o.o.o.o.o.o.o.o.8.+.o.o.o.d.!.o.o.",
"o.o.!.d.o.f   $ E o.o.o.o.o.o.o.o.o.o.o.o.4.g.o.B t 1.o.d.!.o.o.",
"o.o.!.d.O     q o.o.o.o.o.o.o.o.o.o.o.o.o.` o T 4   _ E 3.!.o.o.",
"o.o.!.;.]   6 e.o.o.o.o.o.o.o.o.o.o.o.o.o.o.U n u y ~ + %.!.o.o.",
"o.o.!.b     V o.o.o.o.h.o.7.M A R ).o.o.o.o.n.o.o.o.Q   7 ,.o.o.",
"o.o.C     6 i.o.o.o.*.6 r _       % v m.o.o.o.o.o.o./.]   P o.o.",
"o.l.2     U o.o.o.o.q               + &.o.o.o.o.o.o.o.g   3 m.o.",
"o.o.h     S o.o./.m -                 Y o.o.o.o.o.o.o.H   ; 1.o.",
"o.o.P     : |.o.o.r                   W o.o.o.o.o.o.o.~.&   Z o.",
"o.o.-.<     v o.o.J                   x o.o.o.o.o.o.o.b.!   D o.",
"o.o.!.w     > ~.o.^.0 | +             X o.o.o.o.o.o.o.c.{   a o.",
"o.o.!.'.)     e e.o.o.f.8           ^ 4.o.o.o.o.o.o.o.|.,   > }.",
"o.o.!.d.v       5 ` o.o.N       / 0 I o.o.o.o.o.o.[.D 1     ' >.",
"o.o.!.d.|.:         z g.9       F o.o.o.c.*...L i >       = @.o.",
"o.o.!.d.o. .*       * }         c @.I d _ # .           ( G o.o.",
"o.o.!.d.o.o.K                                       + p :.!.o.o.",
"o.o.{.a.o.o.o.i                                 _ k #.o.a.{.o.o.",
"o.o.(.6.o.o.o.&.@                           5 S 9.o.o.o.6.(.o.o.",
"o.o.a.{.o.o.o.0.'         . .             l j.o.o.o.o.o.{.a.o.o.",
"o.o.o.=.o.o.o.g.[         . .           > ^.o.o.o.o.o.o.=.o.o.o.",
"o.o.o.(.=.{.2.a.j         . .           b d.d.d.a.2.{.=.(.o.o.o.",
"o.o.o.o.o.a.<.{.!.!.!.!.!.!.!.!.!.!.!.!.!.!.!.!.{.<.a.o.o.o.o.o.",
"o.o.o.o.o.o.o.o.o.o.o.o.o.o.o.o.o.o.o.o.o.o.o.o.o.o.o.o.o.o.o.o.",
"o.o.o.o.o.o.o.o.o.o.o.o.o.o.o.o.o.o.o.o.o.o.o.o.o.o.o.o.o.o.o.o."};
