/* XPM */
static char * zooGraphFilter_xpm[] = {
"32 32 248 2",
"  	c #D4D0C8",
". 	c #C7C5C5",
"+ 	c #A1A3BB",
"@ 	c #9093B7",
"# 	c #8186B3",
"$ 	c #B5B4C0",
"% 	c #9094B7",
"& 	c #B4B3C0",
"* 	c #C5C3C4",
"= 	c #C3C1C4",
"- 	c #9295B7",
"; 	c #D1CDC7",
"> 	c #E7E66A",
", 	c #F4F627",
"' 	c #E3E36D",
") 	c #9EA0BA",
"! 	c #B7B6C1",
"~ 	c #D3CFC7",
"{ 	c #F8FB10",
"] 	c #FCFF00",
"^ 	c #8B8FB5",
"/ 	c #CAC7C6",
"( 	c #D2CEC6",
"_ 	c #D0BDB6",
": 	c #F9B60C",
"< 	c #ECEC40",
"[ 	c #C8C6C4",
"} 	c #868AB4",
"| 	c #CFCCC7",
"1 	c #D3CFC8",
"2 	c #CEC0B8",
"3 	c #F42120",
"4 	c #E45B3C",
"5 	c #C6C48D",
"6 	c #D0CCA9",
"7 	c #CDCAC5",
"8 	c #D2CEC9",
"9 	c #D0CCC9",
"0 	c #9996D7",
"a 	c #8A87DB",
"b 	c #8683DC",
"c 	c #9996D6",
"d 	c #CDC7C0",
"e 	c #F12927",
"f 	c #DD4E4B",
"g 	c #B4B1AA",
"h 	c #C3BFB8",
"i 	c #CFCBC3",
"j 	c #9C99D6",
"k 	c #8784DC",
"l 	c #B0ADD1",
"m 	c #A5A2D4",
"n 	c #AAA6D3",
"o 	c #B1AECB",
"p 	c #B93B67",
"q 	c #EC2928",
"r 	c #B4B0A9",
"s 	c #CECAC3",
"t 	c #8087D4",
"u 	c #93CE9B",
"v 	c #89E181",
"w 	c #8AE082",
"x 	c #8DE085",
"y 	c #C5D3BA",
"z 	c #CEABA4",
"A 	c #FA090A",
"B 	c #7E64A8",
"C 	c #BFBBB7",
"D 	c #A0DB97",
"E 	c #8ACF94",
"F 	c #7F8DCE",
"G 	c #C7D3BB",
"H 	c #86E17E",
"I 	c #B7D6AD",
"J 	c #B6B3D0",
"K 	c #A4A1D5",
"L 	c #CDC9C1",
"M 	c #E93E3B",
"N 	c #D75B58",
"O 	c #A5A2B8",
"P 	c #8482D3",
"Q 	c #D2CEC7",
"R 	c #93DE8B",
"S 	c #AFD8A5",
"T 	c #9390D9",
"U 	c #C6C2CC",
"V 	c #D3D0C7",
"W 	c #87E17F",
"X 	c #C1D4B6",
"Y 	c #9592D8",
"Z 	c #C8C4CB",
"` 	c #D1CDC5",
" .	c #D09C96",
"..	c #F81110",
"+.	c #B9ADA6",
"@.	c #C7C3BB",
"#.	c #BCB9CC",
"$.	c #8380DD",
"%.	c #C7C3CB",
"&.	c #AAD9A1",
"*.	c #A1DB98",
"=.	c #C3C0CC",
"-.	c #9794D8",
";.	c #D0D1C4",
">.	c #83E27B",
",.	c #D2D0C6",
"'.	c #8886DC",
").	c #CCC8C0",
"!.	c #EE2D2B",
"~.	c #CF6D69",
"{.	c #C0BCB5",
"].	c #C5C1CC",
"^.	c #83E27C",
"/.	c #8885DC",
"(.	c #D1CDC9",
"_.	c #AED8A4",
":.	c #A5DB9B",
"<.	c #CFCBC9",
"[.	c #8D8BDA",
"}.	c #D0CCC4",
"|.	c #D6857F",
"1.	c #F21E1D",
"2.	c #B8B3AC",
"3.	c #C9C5BE",
"4.	c #B6D7AC",
"5.	c #B4D7A9",
"6.	c #A9A6D3",
"7.	c #84E27D",
"8.	c #B6B7CB",
"9.	c #A3A0D5",
"0.	c #CBC1BA",
"a.	c #F51A19",
"b.	c #C68781",
"c.	c #C2BEB7",
"d.	c #D4D1C6",
"e.	c #D3D0B1",
"f.	c #A19FB3",
"g.	c #D8D5B4",
"h.	c #B5D7AB",
"i.	c #7BA9AF",
"j.	c #B8B5CE",
"k.	c #DF615D",
"l.	c #E73735",
"m.	c #BAB7B0",
"n.	c #CBC7BF",
"o.	c #D6D2AB",
"p.	c #F3E729",
"q.	c #F6F40B",
"r.	c #E6DD54",
"s.	c #5897A8",
"t.	c #CACAC3",
"u.	c #D29D96",
"v.	c #F90F0E",
"w.	c #BBA59E",
"x.	c #C5C1BA",
"y.	c #A8DA9E",
"z.	c #DF7571",
"A.	c #FB3A0A",
"B.	c #FBEF02",
"C.	c #FCFD00",
"D.	c #FCBC02",
"E.	c #EF3634",
"F.	c #DC8782",
"G.	c #D0CBC3",
"H.	c #D8D5A9",
"I.	c #A7B676",
"J.	c #CCCB48",
"K.	c #F9320C",
"L.	c #C6837F",
"M.	c #BEBBB4",
"N.	c #CDC9C2",
"O.	c #C8D3BC",
"P.	c #CEC9C2",
"Q.	c #E94542",
"R.	c #F2201F",
"S.	c #C49B7C",
"T.	c #DADA4D",
"U.	c #E7E92D",
"V.	c #A6A574",
"W.	c #CD7570",
"X.	c #FB0D0D",
"Y.	c #EE8725",
"Z.	c #F9E906",
"`.	c #FBE601",
" +	c #DCAE44",
".+	c #CAC6BF",
"++	c #85E27D",
"@+	c #CAD2BF",
"#+	c #E55451",
"$+	c #F02322",
"%+	c #B5A7A1",
"&+	c #B9B6AF",
"*+	c #8A88C1",
"=+	c #A4A1B4",
"-+	c #BB9791",
";+	c #CC9848",
">+	c #F6EF0C",
",+	c #F3F60F",
"'+	c #B3DA4B",
")+	c #C8C4BC",
"!+	c #D4908B",
"~+	c #F61716",
"{+	c #B5AAA4",
"]+	c #C6C2C5",
"^+	c #827FD3",
"/+	c #C4C1B9",
"(+	c #B9B5B5",
"_+	c #8886A7",
":+	c #D5D46B",
"<+	c #D8D76E",
"[+	c #A0D974",
"}+	c #B2D4A8",
"|+	c #91DF89",
"1+	c #B0D8A6",
"2+	c #CFCDBA",
"3+	c #D5C195",
"4+	c #F9370F",
"5+	c #C6917D",
"6+	c #A19ED4",
"7+	c #9D9AD3",
"8+	c #8A88D5",
"9+	c #B7B3C7",
"0+	c #D1CEC5",
"a+	c #94DE8C",
"b+	c #98DD90",
"c+	c #BCD5B1",
"d+	c #D8D785",
"e+	c #F8E10D",
"f+	c #F7E10C",
"g+	c #D1D075",
"h+	c #B1AED1",
"i+	c #BCB8CE",
"j+	c #C6D3BB",
"k+	c #DADB6B",
"l+	c #FBF702",
"m+	c #FAFB06",
"n+	c #DFDE65",
"o+	c #D1CE94",
"p+	c #E6E641",
"q+	c #E7E842",
"r+	c #D9D695",
"s+	c #CBC8C3",
"t+	c #9396B8",
"u+	c #C2C0C4",
"v+	c #B9B8C1",
"w+	c #C9C6C5",
"x+	c #9C9EBA",
"y+	c #8C90B6",
"                                                                ",
"      . + @ # # # # # # # # # # # # # # # # # # # # @ + .       ",
"    $ % & *                                         * & % $     ",
"  = - ;                                             > , ' - =   ",
"  ) !                                             ~ { ] { ! )   ",
"  ^ /                                           ( _ : ] < [ ^   ",
"  } |                                   1     ( 2 3 4 5 6 7 }   ",
"  } |     8 9                       1 0 a b c d e f g h i | }   ",
"  } |     j k l                     m n     o p q r h s ~ | }   ",
"  } |         t u v w x y         1 b     ( z A B C s ~   | }   ",
"  } |       D E F     G H I       J K   ~ L M N O P Q     | }   ",
"  } |     R S   T U     V W X     Y Z   `  ...+.@.#.$.%.  | }   ",
"  } |   &.*.    =.-.      ;.>.,.  '.  ~ ).!.~.{.i ~ U ].  | }   ",
"  } | ;.^.        /.(.      _.:.<.[.  }.|.1.2.3.(         | }   ",
"  } | 4.5.        6.l         7.8.9.( 0.a.b.c.}.          | }   ",
"  } |           d.e.f.g.      h.i.j.i k.l.m.n.(           | }   ",
"  } |         ( o.p.q.r.( ~     s.t.u.v.w.x.`       y.;.  | }   ",
"  } |     ~ }.z.A.B.C.D.E.F.G.H.I.J.K.L.M.N.~     O.x     | }   ",
"  } |   ~ P.Q.R.S.T.U.V.W.!.X.Y.Z.`. +m..+(     V ++@+    | }   ",
"  } | ~ i #+$+%+&+{.c.*+=+r -+;+>+,+'+)+`       v I       | }   ",
"  } | ` !+~+{+M..+}.` ]+^+/+(+_+:+<+[+}+    ,.|+1+        | }   ",
"  } 2+3+4+5+M.).(       6+7+8+9+L }.0+a+a+b+++c+          | }   ",
"  } d+e+f+g+.+(           h+i+~ ~       O.j+              | }   ",
"  } k+l+m+n+`                                             | }   ",
"  } o+p+q+r+~                                             | }   ",
"  } s+).i (                                               | }   ",
"  ^ / ~ ~                                                 / ^   ",
"  ) !                                                     ! )   ",
"  = - ;                                                 ; t+u+  ",
"    $ % v+w+                                        w+v+% $     ",
"      . x+y+# # # # # # # # # # # # # # # # # # # # y+x+.       ",
"                                                                "};
