/* XPM */
static char * zooGreaseMonkey_xpm[] = {
"32 32 691 2",
"  	c #D4D0C8",
". 	c #C7C5C5",
"+ 	c #A1A3BB",
"@ 	c #9093B7",
"# 	c #8186B3",
"$ 	c #8F93B6",
"% 	c #A1A2BB",
"& 	c #C3C1C4",
"* 	c #8489B4",
"= 	c #8E91B6",
"- 	c #B4B3C0",
"; 	c #C5C3C4",
"> 	c #D3CFC7",
", 	c #D2CEC6",
"' 	c #CFCBC3",
") 	c #CAC6BF",
"! 	c #C3C0BB",
"~ 	c #BDBBB8",
"{ 	c #BABAB9",
"] 	c #BCBBBB",
"^ 	c #BBBABA",
"/ 	c #B7B6B3",
"( 	c #B7B5B1",
"_ 	c #B8B5B0",
": 	c #B8B5AF",
"< 	c #B9B8B5",
"[ 	c #BABABA",
"} 	c #C2C1BE",
"| 	c #CEC7B8",
"1 	c #CAC7BD",
"2 	c #B8B6B1",
"3 	c #C0BCB5",
"4 	c #BBB9BA",
"5 	c #B0B0BD",
"6 	c #8D91B6",
"7 	c #9EA0BA",
"8 	c #9295B7",
"9 	c #D1CDC7",
"0 	c #C8C5BE",
"a 	c #BCBBB9",
"b 	c #BFBAB8",
"c 	c #A8948B",
"d 	c #9A7261",
"e 	c #996F55",
"f 	c #BF9F73",
"g 	c #C3AA86",
"h 	c #A6907F",
"i 	c #B5AAA6",
"j 	c #BFBEB8",
"k 	c #D6CDB0",
"l 	c #E1D0A8",
"m 	c #E0C995",
"n 	c #E8CA91",
"o 	c #EEDAA1",
"p 	c #D0CBBA",
"q 	c #B3AFA9",
"r 	c #BFBCB4",
"s 	c #CDCAC3",
"t 	c #9195B7",
"u 	c #8B8FB5",
"v 	c #B7B6C1",
"w 	c #D0CCC4",
"x 	c #BDBBB9",
"y 	c #B9ACA2",
"z 	c #905D40",
"A 	c #894F29",
"B 	c #BB8E54",
"C 	c #E1BB6D",
"D 	c #EAC56F",
"E 	c #E8C475",
"F 	c #B68444",
"G 	c #965B37",
"H 	c #CE9F5A",
"I 	c #E2B967",
"J 	c #E8C271",
"K 	c #EBCA80",
"L 	c #EFD491",
"M 	c #EBD489",
"N 	c #EDDA9E",
"O 	c #A8A59F",
"P 	c #B8B4AD",
"Q 	c #C6C2BB",
"R 	c #CECAC3",
"S 	c #B5B5BF",
"T 	c #868AB4",
"U 	c #CAC7C6",
"V 	c #D1CDC5",
"W 	c #CDC9C1",
"X 	c #C0BEB9",
"Y 	c #C5BEAF",
"Z 	c #C7A764",
"` 	c #D5AB56",
" .	c #E1BB62",
"..	c #ECCD7D",
"+.	c #DEB868",
"@.	c #B28032",
"#.	c #DAA12F",
"$.	c #CB902A",
"%.	c #8A4A1E",
"&.	c #A3621A",
"*.	c #DEB45E",
"=.	c #CA9331",
"-.	c #DFB14F",
";.	c #E5BD64",
">.	c #E8C36D",
",.	c #E0B863",
"'.	c #A4A19A",
").	c #B2AFA8",
"!.	c #C3BFB8",
"~.	c #C8C6C4",
"{.	c #CFCCC7",
"].	c #C7C3BC",
"^.	c #BCB9B4",
"/.	c #D6B471",
"(.	c #E6BF62",
"_.	c #CDA447",
":.	c #E3B13D",
"<.	c #D99E2F",
"[.	c #CC9217",
"}.	c #B57611",
"|.	c #C37C09",
"1.	c #CC8508",
"2.	c #B87F1A",
"3.	c #AA6D16",
"4.	c #E8C97D",
"5.	c #925E22",
"6.	c #B87E23",
"7.	c #DAA638",
"8.	c #D7A835",
"9.	c #D5B075",
"0.	c #9D9A95",
"a.	c #B0ADA6",
"b.	c #C1BDB6",
"c.	c #CCC8C0",
"d.	c #CDCAC5",
"e.	c #CFCBC4",
"f.	c #C9C6BE",
"g.	c #C0BDB6",
"h.	c #AC9382",
"i.	c #D3A23C",
"j.	c #D39B2B",
"k.	c #916111",
"l.	c #BF7C08",
"m.	c #C47807",
"n.	c #C47E08",
"o.	c #C37B06",
"p.	c #C87E04",
"q.	c #CD8305",
"r.	c #D89E2E",
"s.	c #CC952F",
"t.	c #D6B378",
"u.	c #4B1F0F",
"v.	c #5D1F0C",
"w.	c #854016",
"x.	c #C3934A",
"y.	c #A39E94",
"z.	c #9E9B95",
"A.	c #CBC8C0",
"B.	c #B9B6B1",
"C.	c #A77E5E",
"D.	c #B17324",
"E.	c #C38007",
"F.	c #B76F07",
"G.	c #C0790B",
"H.	c #C07F09",
"I.	c #C3810F",
"J.	c #BD7E16",
"K.	c #D38D0A",
"L.	c #D99F20",
"M.	c #C9A058",
"N.	c #9C6F44",
"O.	c #421F11",
"P.	c #4A1610",
"Q.	c #62210E",
"R.	c #834529",
"S.	c #9E8B81",
"T.	c #92908B",
"U.	c #A5A29B",
"V.	c #B7B3AD",
"W.	c #C5C1BA",
"X.	c #CAC7C2",
"Y.	c #C1BFB8",
"Z.	c #BBB8B3",
"`.	c #B8B7B5",
" +	c #D7B26E",
".+	c #935317",
"++	c #C58315",
"@+	c #BF7605",
"#+	c #BD790E",
"$+	c #BF7E0E",
"%+	c #D29310",
"&+	c #DAA21E",
"*+	c #D5A337",
"=+	c #C19943",
"-+	c #D3B37A",
";+	c #472312",
">+	c #3D130B",
",+	c #561D10",
"'+	c #71331E",
")+	c #8F6048",
"!+	c #8E8C87",
"~+	c #9A9791",
"{+	c #ADAAA3",
"]+	c #BEBAB3",
"^+	c #C9C5BE",
"/+	c #C2C0BC",
"(+	c #CDC6B0",
"_+	c #D6B165",
":+	c #C2A271",
"<+	c #D6B582",
"[+	c #A86D1D",
"}+	c #BF8532",
"|+	c #D29331",
"1+	c #D0932D",
"2+	c #D3992B",
"3+	c #DAA232",
"4+	c #BB8C38",
"5+	c #C8A258",
"6+	c #E7C67B",
"7+	c #AB8554",
"8+	c #43160B",
"9+	c #4B1307",
"0+	c #5A1B0F",
"a+	c #6C2D1B",
"b+	c #9A7668",
"c+	c #8F8C87",
"d+	c #A19E98",
"e+	c #B4B1AA",
"f+	c #C3C0B8",
"g+	c #CECBC6",
"h+	c #8D91B4",
"i+	c #C0BFB9",
"j+	c #DDCEA3",
"k+	c #E8BF5E",
"l+	c #D7A441",
"m+	c #C0892C",
"n+	c #B18A48",
"o+	c #D6B15F",
"p+	c #C7963F",
"q+	c #C3974D",
"r+	c #C39750",
"s+	c #BF9350",
"t+	c #C69843",
"u+	c #E4B864",
"v+	c #E2C076",
"w+	c #A07E4D",
"x+	c #4E2010",
"y+	c #410F08",
"z+	c #58170A",
"A+	c #641F12",
"B+	c #763624",
"C+	c #927871",
"D+	c #93908B",
"E+	c #A7A49E",
"F+	c #BAB7B0",
"G+	c #C8C4BC",
"H+	c #C6C3BD",
"I+	c #E2C673",
"J+	c #E5B749",
"K+	c #E2AD41",
"L+	c #DCAD54",
"M+	c #CE9735",
"N+	c #6C4012",
"O+	c #4C2B15",
"P+	c #563117",
"Q+	c #5A3823",
"R+	c #996F31",
"S+	c #C3953A",
"T+	c #C99B45",
"U+	c #C2954F",
"V+	c #A2723F",
"W+	c #4D1F0D",
"X+	c #46110E",
"Y+	c #401109",
"Z+	c #601D11",
"`+	c #692314",
" @	c #85412E",
".@	c #907D79",
"+@	c #94928D",
"@@	c #A9A69F",
"#@	c #BBB8B0",
"$@	c #C8C5BD",
"%@	c #CCC0A6",
"&@	c #DCA02F",
"*@	c #D7A125",
"=@	c #DBA640",
"-@	c #E0A954",
";@	c #9F681F",
">@	c #471606",
",@	c #360E07",
"'@	c #310D07",
")@	c #391007",
"!@	c #50160B",
"~@	c #4A210D",
"{@	c #41210D",
"]@	c #491709",
"^@	c #47160F",
"/@	c #2E0C07",
"(@	c #501308",
"_@	c #5D1B0B",
":@	c #672514",
"<@	c #6D2814",
"[@	c #7B331E",
"}@	c #996F65",
"|@	c #989692",
"1@	c #A5A29C",
"2@	c #CDC9C2",
"3@	c #D0C09D",
"4@	c #D6A044",
"5@	c #D7A02B",
"6@	c #D39D33",
"7@	c #D29937",
"8@	c #844114",
"9@	c #6D260E",
"0@	c #591C0A",
"a@	c #53190B",
"b@	c #5B1C09",
"c@	c #6B2312",
"d@	c #4A1409",
"e@	c #4D1408",
"f@	c #511409",
"g@	c #400E06",
"h@	c #4C120B",
"i@	c #6C280F",
"j@	c #7A301A",
"k@	c #742E18",
"l@	c #7D3620",
"m@	c #772F18",
"n@	c #884A30",
"o@	c #967E78",
"p@	c #A2A09C",
"q@	c #AFACA5",
"r@	c #BEBBB4",
"s@	c #A2A4B7",
"t@	c #BDB6A8",
"u@	c #A99880",
"v@	c #AB8E62",
"w@	c #AB834D",
"x@	c #865436",
"y@	c #76311C",
"z@	c #772C17",
"A@	c #742A0F",
"B@	c #712A11",
"C@	c #641D11",
"D@	c #5F1D0D",
"E@	c #621E11",
"F@	c #5D170D",
"G@	c #621A0A",
"H@	c #742814",
"I@	c #7A3015",
"J@	c #783518",
"K@	c #7E391E",
"L@	c #833D23",
"M@	c #752E14",
"N@	c #763019",
"O@	c #693021",
"P@	c #938278",
"Q@	c #ABAAA7",
"R@	c #9093B4",
"S@	c #B8B5B2",
"T@	c #B0ADA7",
"U@	c #A6A39F",
"V@	c #9F9C97",
"W@	c #9B9894",
"X@	c #98928E",
"Y@	c #8E7F79",
"Z@	c #864C36",
"`@	c #742C14",
" #	c #6A241B",
".#	c #7A2E1A",
"+#	c #7F311D",
"@#	c #803019",
"##	c #803419",
"$#	c #823B1B",
"%#	c #834121",
"&#	c #814224",
"*#	c #864227",
"=#	c #864223",
"-#	c #813C1D",
";#	c #7E402B",
">#	c #4B1A0E",
",#	c #481915",
"'#	c #624844",
")#	c #A59E99",
"!#	c #C4C1BC",
"~#	c #8C90B5",
"{#	c #C2BEBA",
"]#	c #B7B3AE",
"^#	c #ABA9A3",
"/#	c #A8A6A1",
"(#	c #A19E99",
"_#	c #A3A09D",
":#	c #855344",
"<#	c #7B301C",
"[#	c #752E1A",
"}#	c #732C1B",
"|#	c #722A13",
"1#	c #83371D",
"2#	c #863E22",
"3#	c #7B381D",
"4#	c #78361E",
"5#	c #77331C",
"6#	c #844128",
"7#	c #833E29",
"8#	c #5A1E15",
"9#	c #4C1510",
"0#	c #471813",
"a#	c #34110C",
"b#	c #4F2019",
"c#	c #9B8E87",
"d#	c #BBB9B4",
"e#	c #858AB4",
"f#	c #878BB4",
"g#	c #C8C5C1",
"h#	c #BDB9B2",
"i#	c #B1AEA8",
"j#	c #AAA7A3",
"k#	c #BAB0AA",
"l#	c #683120",
"m#	c #47140A",
"n#	c #5C180C",
"o#	c #732917",
"p#	c #853F27",
"q#	c #7A391E",
"r#	c #6C2911",
"s#	c #6F2614",
"t#	c #6F2917",
"u#	c #601B0E",
"v#	c #652215",
"w#	c #542017",
"x#	c #541609",
"y#	c #45160C",
"z#	c #4B120B",
"A#	c #56130F",
"B#	c #5F2410",
"C#	c #BA9E69",
"D#	c #B0ADA8",
"E#	c #8489B3",
"F#	c #C4C1B9",
"G#	c #B4B1AC",
"H#	c #B1AFAD",
"I#	c #723C2A",
"J#	c #65230D",
"K#	c #6D2912",
"L#	c #732916",
"M#	c #66200E",
"N#	c #692212",
"O#	c #652311",
"P#	c #581C0C",
"Q#	c #4A1B0D",
"R#	c #83665E",
"S#	c #8A7E7B",
"T#	c #7E7470",
"U#	c #82675C",
"V#	c #6D2911",
"W#	c #722B17",
"X#	c #65210B",
"Y#	c #B06C14",
"Z#	c #D49413",
"`#	c #DAA025",
" $	c #9E99A0",
".$	c #BAB8B4",
"+$	c #B4B3AF",
"@$	c #684032",
"#$	c #501E0F",
"$$	c #6C2B15",
"%$	c #6E2510",
"&$	c #763218",
"*$	c #723728",
"=$	c #61433A",
"-$	c #2E100B",
";$	c #2E1205",
">$	c #603329",
",$	c #8A8784",
"'$	c #8A8883",
")$	c #918E8A",
"!$	c #9A8F8B",
"~$	c #6D4131",
"{$	c #A76210",
"]$	c #C68007",
"^$	c #D4960C",
"/$	c #DAA015",
"($	c #DFB041",
"_$	c #D9C486",
":$	c #BEBCB5",
"<$	c #B6B4B1",
"[$	c #613221",
"}$	c #5C2111",
"|$	c #65260E",
"1$	c #78351A",
"2$	c #7D3D24",
"3$	c #958780",
"4$	c #999695",
"5$	c #543228",
"6$	c #5E2917",
"7$	c #6C321D",
"8$	c #7B6F68",
"9$	c #918E89",
"0$	c #989590",
"a$	c #9B9993",
"b$	c #AC9B86",
"c$	c #B76E0C",
"d$	c #C58308",
"e$	c #D89D17",
"f$	c #D8A728",
"g$	c #E1B857",
"h$	c #BAAD8C",
"i$	c #C2BEB7",
"j$	c #B3AFAB",
"k$	c #632C1A",
"l$	c #6A2919",
"m$	c #632917",
"n$	c #612713",
"o$	c #8C6048",
"p$	c #84837F",
"q$	c #898884",
"r$	c #988981",
"s$	c #522613",
"t$	c #2D1209",
"u$	c #3E2018",
"v$	c #989693",
"w$	c #9F9E99",
"x$	c #BFB6A9",
"y$	c #AE660A",
"z$	c #CB8C14",
"A$	c #D2A542",
"B$	c #D6B265",
"C$	c #B2A698",
"D$	c #A09D97",
"E$	c #A49890",
"F$	c #5B1E09",
"G$	c #642415",
"H$	c #531609",
"I$	c #6A2613",
"J$	c #937A70",
"K$	c #898783",
"L$	c #A6A4A1",
"M$	c #583B29",
"N$	c #431608",
"O$	c #3F1508",
"P$	c #82756E",
"Q$	c #9D9C97",
"R$	c #A6A49F",
"S$	c #ADAAA5",
"T$	c #B5955E",
"U$	c #ABA088",
"V$	c #A39C8D",
"W$	c #9E988F",
"X$	c #8387B0",
"Y$	c #AAA6A0",
"Z$	c #826757",
"`$	c #4E1608",
" %	c #471207",
".%	c #591D0B",
"+%	c #753A1F",
"@%	c #908B86",
"#%	c #9C9A94",
"$%	c #A2A09B",
"%%	c #9A8E81",
"&%	c #55200C",
"*%	c #4F1E0B",
"=%	c #734D41",
"-%	c #9B9893",
";%	c #A7A5A0",
">%	c #AFACA6",
",%	c #AFABA5",
"'%	c #ABA8A2",
")%	c #AAA7A1",
"!%	c #AAA8A4",
"~%	c #8488B2",
"{%	c #93612F",
"]%	c #6F2E0C",
"^%	c #662609",
"/%	c #712A0B",
"(%	c #7B4828",
"_%	c #908F8C",
":%	c #96948E",
"<%	c #A3A09B",
"[%	c #A8A4A0",
"}%	c #52210F",
"|%	c #5D260F",
"1%	c #642614",
"2%	c #9A9792",
"3%	c #B9B5AE",
"4%	c #BCB8B1",
"5%	c #BAB7B3",
"6%	c #8589B3",
"7%	c #C5C2BB",
"8%	c #CDC1AA",
"9%	c #CE9221",
"0%	c #CC9020",
"a%	c #CA8D22",
"b%	c #C88D1C",
"c%	c #D7A74B",
"d%	c #99958B",
"e%	c #999792",
"f%	c #A4A19B",
"g%	c #A9A7A2",
"h%	c #B8B7B6",
"i%	c #6E3724",
"j%	c #732F16",
"k%	c #7B3B20",
"l%	c #9A9590",
"m%	c #A8A59E",
"n%	c #C7C3BB",
"o%	c #C1BEBE",
"p%	c #BEBDB9",
"q%	c #D8B981",
"r%	c #D6A346",
"s%	c #D7A548",
"t%	c #D9A452",
"u%	c #D5A241",
"v%	c #CE8C1D",
"w%	c #B89F6B",
"x%	c #96938E",
"y%	c #A19D97",
"z%	c #9D8C82",
"A%	c #A2897D",
"B%	c #6D331D",
"C%	c #813E24",
"D%	c #8A4A2F",
"E%	c #98948F",
"F%	c #B5B4BF",
"G%	c #8B8EB5",
"H%	c #BFBDB9",
"I%	c #E2BF7D",
"J%	c #E4BD79",
"K%	c #DFBF7A",
"L%	c #DEBB74",
"M%	c #DFB872",
"N%	c #D1A34D",
"O%	c #B5944C",
"P%	c #8A6956",
"Q%	c #6E301A",
"R%	c #793620",
"S%	c #7F3D22",
"T%	c #5E240F",
"U%	c #672A19",
"V%	c #7E3E25",
"W%	c #97928D",
"X%	c #CFCBC5",
"Y%	c #B9B8C1",
"Z%	c #C9C6C5",
"`%	c #C1BDB7",
" &	c #DFD0A4",
".&	c #E1BC74",
"+&	c #DDB36F",
"@&	c #CB9F50",
"#&	c #B78E4B",
"$&	c #AA9671",
"%&	c #8D8377",
"&&	c #6B2D21",
"*&	c #662217",
"=&	c #742D1B",
"-&	c #753925",
";&	c #581A10",
">&	c #774231",
",&	c #989491",
"'&	c #A6A39D",
")&	c #BFBCBB",
"!&	c #B6B5BE",
"~&	c #C2C0C4",
"{&	c #9C9EBA",
"]&	c #8C90B6",
"^&	c #8387B3",
"/&	c #C8C3B6",
"(&	c #E1C596",
"_&	c #D4B279",
":&	c #BBA180",
"<&	c #8A8CAB",
"[&	c #8186B2",
"}&	c #888BAE",
"|&	c #72372E",
"1&	c #371212",
"2&	c #8D7369",
"3&	c #5D2E1F",
"4&	c #692517",
"5&	c #5C211A",
"6&	c #5E362F",
"7&	c #878BAD",
"8&	c #A3A19B",
"9&	c #9C9994",
"0&	c #A19F9B",
"a&	c #885042",
"b&	c #66271C",
"c&	c #32130A",
"d&	c #37150D",
"e&	c #5C1D11",
"f&	c #5C221A",
"g&	c #4E2520",
"h&	c #92908A",
"                                                                ",
"    . + @ # # # # # # # # # # # # # # # # # # # # # # $ % .     ",
"  & * = - ; > , ' ) ! ~ { ] ^ / ( _ : < [ } | 1 2 3 4 5 6 * &   ",
"  7 8 9     , ' 0 a b c d e f g h i j k l m n o p q r ) s t 7   ",
"  u v     > w ) x y z A B C D E F G H I J K L M N O P Q R S u   ",
"  T U   > V W X Y Z `  ...+.@.#.$.%.&.*.=.-.;.>.,.'.).!.W ~.T   ",
"  T {.  , ' ].^./.(._.:.<.[.}.|.1.2.3.4.5.6.7.8.9.0.a.b.c.d.T   ",
"  T {., e.f.g.h.i.j.k.l.m.n.o.p.q.r.s.t.u.v.w.x.y.z.).!.W d.T   ",
"  T d.w A.X B.C.D.E.F.G.H.I.J.K.L.M.N.O.P.Q.R.S.T.U.V.W.R d.T   ",
"  T X.) Y.Z.`. +.+++@+#+$+%+&+*+=+-+;+>+,+'+)+!+~+{+]+^+w d.T   ",
"  T /+~ (+_+:+<+[+}+|+1+2+3+4+5+6+7+8+9+0+a+b+c+d+e+f+W , g+T   ",
"  h+i+j+k+l+m+n+o+p+q+r+s+t+u+v+w+x+y+z+A+B+C+D+E+F+G+' , g+T   ",
"  H+I+J+K+L+M+N+O+P+Q+R+S+T+U+V+W+X+Y+Z+`+ @.@+@@@#@$@w , g+T   ",
"  %@&@*@=@-@;@>@,@'@)@!@~@{@]@^@/@(@_@:@<@[@}@|@1@P Q 2@, g+T   ",
"  3@4@5@6@7@8@9@0@a@b@c@d@e@f@g@h@i@j@k@l@m@n@o@p@q@r@$@R d.T   ",
"  s@t@u@v@w@x@y@z@A@B@C@D@E@F@G@H@I@J@K@L@M@N@O@P@Q@q r $@X.T > ",
"  R@S@T@U@V@W@X@Y@Z@`@ #.#+#@###$#%#&#*#=#-#;#>#,#'#)#q r !#T , ",
"  ~#{#r@]#T@^#/#(#_#:#<#[#}#|#1#2#3#4#5#6#7#8#9#0#a#b#c#q d#e#W ",
"  f#g#^+W.b.h#P i#j#k#l#m#n#o#p#q#r#s#t#u#v#w#x#y#z#A#B#C#D#E#F#",
"  T d.w 2@c.$@F#]+G#H#I#J#K#L#M#N#O#P#Q#R#S#T#U#V#W#X#Y#Z#`# $V.",
"  T {.> , V w c.Q .$+$@$#$$$%$&$*$=$-$;$>$,$'$)$!$~${$]$^$/$($_$",
"  T {.    > , w ) :$<$[$}$|$1$2$3$4$5$6$7$8$9$0$a$b$c$d$e$f$g$h$",
"  T {.      > , c.i$j$k$l$m$n$o$p$q$r$s$t$u$v$w$d+x$y$z$A$B$C$D$",
"  T {.        , W !.E$F$G$H$I$J$K$)$L$M$N$O$P$Q$R$S$T$U$V$W$X$Y$",
"  T {.        , c.b.Z$`$ %.%+%@%9$#%$%%%&%*%=%-%;%>%,%'%)%!%~%P ",
"  T {.      > w ) g.{%]%^%/%(%_%:%<%E+[%}%|%1%2%E+q 3%#@4%5%6%W.",
"  T U       , ' 7%8%9%0%a%b%c%d%e%f%g%h%i%j%k%l%m%P i$n%$@o%e#2@",
"  u v       , 2@p%q%r%s%t%u%v%w%x%y%z%A%B%C%D%E%@@F+n%W w F%G%, ",
"  7 8 9     , W H%I%J%K%L%M%N%O%P%Q%R%S%T%U%V%W%m%#@G+' X%8 7   ",
"  & * = Y%Z%, W `% &.&+&@&#&$&%&B+&&*&=&-&;&>&,&'&F+)&!&= * ~&  ",
"    . {&]&# # # ^&/&(&_&:&<&[&}&|&1&2&3&4&5&6&7&# # # u {&.     ",
"            , ' G+Z.>%8&9&~+2%0&a&b&c&d&e&f&g&h&'&F+G+w >       "};



