/* XPM */
static char * zooHotkeyer_xpm[] = {
"32 32 193 2",
"  	c #D4D0C8",
". 	c #C7C5C5",
"+ 	c #A1A3BB",
"@ 	c #9093B7",
"# 	c #8186B3",
"$ 	c #B5B4C0",
"% 	c #9094B7",
"& 	c #B4B3C0",
"* 	c #C5C3C6",
"= 	c #C6C6C5",
"- 	c #C0C0C0",
"; 	c #C1C1C1",
"> 	c #C2C2C2",
", 	c #C4C4C4",
"' 	c #C7C7C7",
") 	c #C3C3C3",
"! 	c #C6C6C6",
"~ 	c #C5C5C5",
"{ 	c #CFCFD5",
"] 	c #B9B9C7",
"^ 	c #C3C1C4",
"/ 	c #9295B7",
"( 	c #D1CDC7",
"_ 	c #D3D2CE",
": 	c #D5D4D2",
"< 	c #DDDDDD",
"[ 	c #E2E2E2",
"} 	c #E5E5E5",
"| 	c #E7E7E7",
"1 	c #E9E9E9",
"2 	c #EBEBEB",
"3 	c #EDEDED",
"4 	c #EEEEEE",
"5 	c #F1F1F1",
"6 	c #F3F3F3",
"7 	c #F2F2F2",
"8 	c #F4F4F4",
"9 	c #F5F5F5",
"0 	c #F7F7F7",
"a 	c #F6F6F6",
"b 	c #F6F5F5",
"c 	c #DFDDDA",
"d 	c #9EA0BA",
"e 	c #B7B6C1",
"f 	c #D3D1CD",
"g 	c #D5D5D5",
"h 	c #DBDBDB",
"i 	c #E1E1E1",
"j 	c #EFEFEF",
"k 	c #F0F0F0",
"l 	c #F8F8F8",
"m 	c #FBFBFB",
"n 	c #FEFEFE",
"o 	c #FDFDFD",
"p 	c #FFFFFF",
"q 	c #FCFCFC",
"r 	c #B3B3C1",
"s 	c #8B8FB5",
"t 	c #C8C6C6",
"u 	c #CACAC8",
"v 	c #DCDCDC",
"w 	c #E6E6E6",
"x 	c #ECECEC",
"y 	c #EAEAEA",
"z 	c #B9B9B9",
"A 	c #A1A1A7",
"B 	c #868AB4",
"C 	c #C7C6C8",
"D 	c #CCCCCC",
"E 	c #D3D3D3",
"F 	c #DFDFDF",
"G 	c #D9D9D9",
"H 	c #D2D2D2",
"I 	c #D0D0D0",
"J 	c #DADADA",
"K 	c #D8D8D8",
"L 	c #D7D7D7",
"M 	c #D6D6D6",
"N 	c #BFBFBF",
"O 	c #959595",
"P 	c #8C8D8F",
"Q 	c #B2B2B5",
"R 	c #CACACA",
"S 	c #CECECE",
"T 	c #CDCDCD",
"U 	c #CFCFCF",
"V 	c #D1D1D1",
"W 	c #9C9C9C",
"X 	c #898989",
"Y 	c #8D8E90",
"Z 	c #B1B1B4",
"` 	c #CBCBCB",
" .	c #939393",
"..	c #8A8A8A",
"+.	c #AFAFB2",
"@.	c #BCBCBC",
"#.	c #8C8C8C",
"$.	c #BABABA",
"%.	c #969696",
"&.	c #8B8B8B",
"*.	c #C9C9C9",
"=.	c #B1B1B1",
"-.	c #B0B0B0",
";.	c #B3B3B3",
">.	c #B5B5B5",
",.	c #BBBBBB",
"'.	c #3A3A3A",
").	c #1E1E1E",
"!.	c #1F1F1F",
"~.	c #4B4B4B",
"{.	c #6A6A6A",
"].	c #262626",
"^.	c #2D2D2D",
"/.	c #7F7F7F",
"(.	c #8B8C8E",
"_.	c #212121",
":.	c #545454",
"<.	c #9A9A9A",
"[.	c #979797",
"}.	c #A8A8A8",
"|.	c #9F9F9F",
"1.	c #242424",
"2.	c #595959",
"3.	c #BEBEBE",
"4.	c #AEAEB1",
"5.	c #1D1D1D",
"6.	c #5E5E5E",
"7.	c #BDBDBD",
"8.	c #A2A2A2",
"9.	c #161616",
"0.	c #282828",
"a.	c #2B2B2B",
"b.	c #B4B4B4",
"c.	c #383838",
"d.	c #525252",
"e.	c #1C1C1C",
"f.	c #5C5C5C",
"g.	c #AFAFAF",
"h.	c #ABABAB",
"i.	c #2C2C2C",
"j.	c #3E3E3E",
"k.	c #6D6D6D",
"l.	c #515151",
"m.	c #2F2F2F",
"n.	c #AAAAAA",
"o.	c #717171",
"p.	c #111111",
"q.	c #101010",
"r.	c #1A1A1A",
"s.	c #292929",
"t.	c #B7B7B7",
"u.	c #858585",
"v.	c #A3A3A3",
"w.	c #A9A9A9",
"x.	c #797979",
"y.	c #767676",
"z.	c #747474",
"A.	c #7B7B7B",
"B.	c #8A8B8D",
"C.	c #8D8D8D",
"D.	c #DEDEDE",
"E.	c #A5A5A5",
"F.	c #9D9D9D",
"G.	c #949494",
"H.	c #898A8C",
"I.	c #B6B6B8",
"J.	c #C8C8C8",
"K.	c #A7A7A7",
"L.	c #A0A0A0",
"M.	c #A4A4A4",
"N.	c #939396",
"O.	c #A1A1A1",
"P.	c #A2A2A8",
"Q.	c #B6B5C1",
"R.	c #D8D7D4",
"S.	c #989898",
"T.	c #929292",
"U.	c #9B9B9B",
"V.	c #9E9E9E",
"W.	c #A7A7B4",
"X.	c #D3D0CD",
"Y.	c #B8B8B8",
"Z.	c #999999",
"`.	c #ACADAC",
" +	c #9296B7",
".+	c #C2C0C4",
"++	c #B3B3BF",
"@+	c #9B9CA2",
"#+	c #96979C",
"$+	c #ABACBB",
"%+	c #8F93B6",
"&+	c #9C9EBA",
"*+	c #8C90B6",
"                                                                ",
"      . + @ # # # # # # # # # # # # # # # # # # # # @ + .       ",
"    $ % & * = - ; > > , ' ' ; ) ! ~ ! ! ' ~ ) - - ! { ] % $     ",
"  ^ / ( _ : < < [ } | 1 2 3 2 4 5 5 6 7 6 8 9 0 a 9 7 b c / ^   ",
"  d e f g h h i [ } 1 2 3 j k 8 0 l m n o o n p o n o q i r d   ",
"  s t u v h v i [ [ } w 1 2 x 4 5 7 7 7 7 8 9 8 0 o o y z A s   ",
"  B C D E F F G H I H E g h J K J G L K L K K M < 9 j N O P B   ",
"  B Q , R h G E S T U U U V U T V S V I V I I U H J v W X Y B   ",
"  B Z , ` J g U H U T T T I I ` S V S U U S V H S U !  ...P B   ",
"  B +., S G U T U T I I V S S V U U I T V V R U S T @. .#.P B   ",
"  B +., V J ` S I T I U T T U T S D S I S S I S S U $.%.&.P B   ",
"  B +.~ H h *.T I U I =.=.-.-.z S ' ;.>.R S ` U T T ,.%.&.P B   ",
"  B +.! I h *.S S V T '.).).!.~.~ {.].^./.U U U S D ,.%.&.(.B   ",
"  B +.~ U J R S U S D _.:.<.[.}.|.1.X 2.^.3.V S U ` ,.O &.(.B   ",
"  B 4.~ I < U U U U H 5.6.=.=.! 7.8.*.{.5.- *.U U ` ,.O &.(.B   ",
"  B 4.~ I < U I V S D ).9.0.a.%.T ' b.c.d.S ' U U ` ,.O &.(.B   ",
"  B +.~ I v S U T V U e.f.g.h.N *.$.i.j.7.S I S U ` ,.O &.(.B   ",
"  B 4.~ I < U I V D I ).k.E V T 3.l.m.n.R S ` H S ` ,.O &.(.B   ",
"  B +.~ I v T S D H D 1.o.U R V [.p.q.r.s.t.H D U ` ,.O &.(.B   ",
"  B +.~ V h ` D S S T u.v.D T I w.x.y.z.A., U U U ` ,.O &.P B   ",
"  B +.~ I J D T U V D U T U U T H E U I U T U D S T @.O ..P B   ",
"  B +.~ S G S I I I H U S T U I D T I T S V U H S D $.[.&.B.B   ",
"  B +., T J I V T I V I U D S D U U D U D H V S D S 7.[...P B   ",
"  B +.) D v V ` I I U V U I I I T ` T T U D S U V S t.[.C.Y B   ",
"  B +.! D D.K U S V V I I I I H V V V H V E I I D @.E.F.G.H.B   ",
"  B I.J.V v F J D ) ' ' ! ' , ~ ! ! ' ~ ! ! ! J.7.|.K.L.M.N.B   ",
"  s t S G K H z O.W 8.O.L.L.L.L.O.L.L.L.O.L.L.|.v.L.F.F.v.P.s   ",
"  d Q.R.M I t.S.T.[.W W U.U.W W W U.U.U.U.U.U.O [.L.w.V.w.W.d   ",
"  ^ / X.D Y.[.G.S.S.W V.W U.W <.Z.U.U.F.W <.U.Z. .S.W }.`. +.+  ",
"    $ % ++@+ .T.T.S.V.S.%.Z.V.L.L.L.V.V.V.S.%.[.G. .#+$+%+$     ",
"      . &+*+# # # # # # # # # # # # # # # # # # # # *+&+.       ",
"                                                                "};
