/* XPM */
static char * zooIcon_xpm[] = {
"32 32 24 1",
" 	c #D4D0C8",
".	c #C7C5C5",
"+	c #A1A3BB",
"@	c #9093B7",
"#	c #8186B3",
"$	c #B5B4C0",
"%	c #9094B7",
"&	c #B4B3C0",
"*	c #C5C3C4",
"=	c #C3C1C4",
"-	c #9295B7",
";	c #D1CDC7",
">	c #9EA0BA",
",	c #B7B6C1",
"'	c #8B8FB5",
")	c #CAC7C6",
"!	c #868AB4",
"~	c #CFCCC7",
"{	c #9396B8",
"]	c #C2C0C4",
"^	c #B9B8C1",
"/	c #C9C6C5",
"(	c #9C9EBA",
"_	c #8C90B6",
"                                ",
"   .+@####################@+.   ",
"  $%&*                    *&%$  ",
" =-;                        ;-= ",
" >,                          ,> ",
" ')                          )' ",
" !~                          ~! ",
" !~                          ~! ",
" !~                          ~! ",
" !~                          ~! ",
" !~                          ~! ",
" !~                          ~! ",
" !~                          ~! ",
" !~                          ~! ",
" !~                          ~! ",
" !~                          ~! ",
" !~                          ~! ",
" !~                          ~! ",
" !~                          ~! ",
" !~                          ~! ",
" !~                          ~! ",
" !~                          ~! ",
" !~                          ~! ",
" !~                          ~! ",
" !~                          ~! ",
" !~                          ~! ",
" ')                          )' ",
" >,                          ,> ",
" =-;                        ;{] ",
"  $%^/                    /^%$  ",
"   .(_####################_(.   ",
"                                "};
