/* XPM */
static char *zooKeyCommands[] = {
/* columns rows colors chars-per-pixel */
"32 32 26 1",
"  c #BB9646",
". c #BD9849",
"X c #C29D4D",
"o c #C49F4F",
"O c #CBA556",
"+ c #D2AC5C",
"@ c #D7B161",
"# c #D9B363",
"$ c #DEB867",
"% c #E0BA69",
"& c #F3C12F",
"* c #FADA4E",
"= c #FBDF54",
"- c #989590",
"; c #9C9993",
": c #A39A87",
"> c #A6A39D",
", c #ACA390",
"< c #AAA7A1",
"1 c #B4B0A9",
"2 c #B9B5AE",
"3 c #C2BEB7",
"4 c #C7C3BB",
"5 c #D6CCB8",
"6 c #D0CCC4",
"7 c #D4D0C8",
/* pixels */
"77777777777777777777777777777777",
"77777777777777777777777777777777",
"77777777777777777777777777777777",
"77777777777777777777777777777777",
"77777777777777777777777777777777",
"77777777777777777777777777777777",
"77777777777777777777777777777777",
"777777777777777775%%%%%%%%577777",
"77777777777777777%&&&&&&&&%77777",
"7777775%%%575%%57%&==*&&&&#$5777",
"777777%&&&%7%&&%7%&==&oooo&&%777",
"777777%&=&#6%&&#6%&==&.-;o&&#677",
"7775%%%&=&O#%&&O#%&==&X13@&&O477",
"777%&&&*=*&&&**&&&*==&o37%&&o377",
"777%&================&o37%&&o377",
"777%&================&o37%&&o377",
"777%&================&o37%&&o377",
"777%&&&&&&&&&&&&&&*==&o37%&&o377",
"7775@o            &==&o37%&&o377",
"77774<;;;;;;;;;;;o&==&o37%&&o377",
"77776433333333333@&==&o@%%&&o377",
"77777777777777777%&==*&&&&@o:377",
"77777777777777777%&&&&&&&&+><477",
"777777777777777775@o  .Xoo,24677",
"7777777777777777774<;;;;;;<47777",
"77777777777777777764333333467777",
"77777777777777777777777777777777",
"77777777777777777777777777777777",
"77777777777777777777777777777777",
"77777777777777777777777777777777",
"77777777777777777777777777777777",
"77777777777777777777777777777777"
};
