/* XPM */
static char * zooLineOfAction_xpm[] = {
"32 32 256 2",
"  	c #301512",
". 	c #79040E",
"+ 	c #711417",
"@ 	c #372C37",
"# 	c #3F2C25",
"$ 	c #9B0707",
"% 	c #422F29",
"& 	c #930C0A",
"* 	c #851511",
"= 	c #393831",
"- 	c #363B32",
"; 	c #B2090D",
"> 	c #433C36",
", 	c #9A1716",
"' 	c #802322",
") 	c #8E1E17",
"! 	c #B61108",
"~ 	c #7B2C23",
"{ 	c #424441",
"] 	c #4E4037",
"^ 	c #6E332B",
"/ 	c #C90B0B",
"( 	c #A01E1A",
"_ 	c #DE0304",
": 	c #4A4247",
"< 	c #7D2E2A",
"[ 	c #E70000",
"} 	c #47463F",
"| 	c #DF0500",
"1 	c #55413A",
"2 	c #444558",
"3 	c #D50A09",
"4 	c #75342E",
"5 	c #B11A16",
"6 	c #444A41",
"7 	c #8E292A",
"8 	c #524541",
"9 	c #F30000",
"0 	c #723834",
"a 	c #484851",
"b 	c #5C423C",
"c 	c #C31611",
"d 	c #F30009",
"e 	c #BC1B15",
"f 	c #EB0804",
"g 	c #D50F1B",
"h 	c #FD0000",
"i 	c #FC0003",
"j 	c #E10D08",
"k 	c #C61913",
"l 	c #4C4F41",
"m 	c #81382F",
"n 	c #F70500",
"o 	c #4E4E46",
"p 	c #584A41",
"q 	c #E10E12",
"r 	c #B8231B",
"s 	c #C71C1B",
"t 	c #93342B",
"u 	c #71433F",
"v 	c #525149",
"w 	c #564F49",
"x 	c #D91616",
"y 	c #604B44",
"z 	c #D11A19",
"A 	c #EC0D19",
"B 	c #505446",
"C 	c #575447",
"D 	c #51574D",
"E 	c #4E5567",
"F 	c #A53533",
"G 	c #51556E",
"H 	c #595850",
"I 	c #9D3C32",
"J 	c #575861",
"K 	c #5B5A53",
"L 	c #6D5543",
"M 	c #D22A23",
"N 	c #6C564F",
"O 	c #A2413B",
"P 	c #7A5250",
"Q 	c #605F57",
"R 	c #595D76",
"S 	c #71594D",
"T 	c #EC2322",
"U 	c #7E5744",
"V 	c #656255",
"W 	c #64635B",
"X 	c #5F5F7F",
"Y 	c #735D56",
"Z 	c #5A6280",
"` 	c #67665E",
" .	c #60647D",
"..	c #726258",
"+.	c #805C53",
"@.	c #DA3435",
"#.	c #63695F",
"$.	c #726656",
"%.	c #7F6156",
"&.	c #666686",
"*.	c #746661",
"=.	c #6B6B63",
"-.	c #6E6B5E",
";.	c #7C665E",
">.	c #B24F48",
",.	c #6C6C8D",
"'.	c #757264",
").	c #73726A",
"!.	c #737460",
"~.	c #7C6E69",
"{.	c #C4514B",
"].	c #707091",
"^.	c #8D6A66",
"/.	c #787567",
"(.	c #76756D",
"_.	c #A7615E",
":.	c #E44745",
"<.	c #81736E",
"[.	c #B85C56",
"}.	c #70749A",
"|.	c #986B5E",
"1.	c #7B7A72",
"2.	c #82786C",
"3.	c #C85B51",
"4.	c #7F7C6E",
"5.	c #7E7D75",
"6.	c #7F7E76",
"7.	c #7E8172",
"8.	c #9B766C",
"9.	c #878079",
"0.	c #83827A",
"a.	c #7980A0",
"b.	c #818380",
"c.	c #868376",
"d.	c #7C80A7",
"e.	c #838677",
"f.	c #8C8277",
"g.	c #7A82AE",
"h.	c #87877E",
"i.	c #7F83AA",
"j.	c #8A8779",
"k.	c #7D85B1",
"l.	c #7E86B3",
"m.	c #8286AD",
"n.	c #908882",
"o.	c #8B8B82",
"p.	c #8E8B7D",
"q.	c #93897D",
"r.	c #A2847D",
"s.	c #868AB1",
"t.	c #938C85",
"u.	c #8F8E86",
"v.	c #988A85",
"w.	c #9C8B81",
"x.	c #A7877B",
"y.	c #A18A81",
"z.	c #919188",
"A.	c #98918A",
"B.	c #8C8FB7",
"C.	c #8F8FB1",
"D.	c #979486",
"E.	c #95948C",
"F.	c #AB8D86",
"G.	c #97968D",
"H.	c #9C948E",
"I.	c #8E95B6",
"J.	c #9B978A",
"K.	c #9493B6",
"L.	c #A99188",
"M.	c #B28D89",
"N.	c #9A9A91",
"O.	c #BB8D86",
"P.	c #AE9486",
"Q.	c #9E9B8D",
"R.	c #AD958C",
"S.	c #9D9C94",
"T.	c #A79893",
"U.	c #A29B94",
"V.	c #AA998E",
"W.	c #A09F97",
"X.	c #BC948A",
"Y.	c #B49A8C",
"Z.	c #BC9692",
"`.	c #A3A299",
" +	c #A5A294",
".+	c #9CA0BB",
"++	c #B69C8E",
"@+	c #B09E94",
"#+	c #BB9A8E",
"$+	c #B99A94",
"%+	c #A4A49B",
"&+	c #A0A69C",
"*+	c #B59D95",
"=+	c #A1A1B7",
"-+	c #A7A69D",
";+	c #AEA497",
">+	c #AAA798",
",+	c #B5A399",
"'+	c #BDA294",
")+	c #ADA99B",
"!+	c #B3A89C",
"~+	c #ABABA2",
"{+	c #B8A79C",
"]+	c #B2AAA3",
"^+	c #BEA69D",
"/+	c #B0AD9F",
"(+	c #B2AFA0",
"_+	c #B0AFA6",
":+	c #B2B1A9",
"<+	c #B5B2A3",
"[+	c #B4B3AA",
"}+	c #B6B6AD",
"|+	c #B4B4BE",
"1+	c #B9B6A7",
"2+	c #BEB4A7",
"3+	c #BCB8AA",
"4+	c #B6B7C1",
"5+	c #B9B9B0",
"6+	c #CCB3AA",
"7+	c #BEBAAC",
"8+	c #B8B9C3",
"9+	c #BCBBB3",
"0+	c #C1B9B2",
"a+	c #C0BDAE",
"b+	c #BEBDB4",
"c+	c #C6BBAE",
"d+	c #BFBEB5",
"e+	c #C2BEB0",
"f+	c #C1C0B7",
"g+	c #C4C1B2",
"h+	c #C2C2B9",
"i+	c #CBC0B4",
"j+	c #C3C1C5",
"k+	c #C6C1C0",
"l+	c #C4C4BB",
"m+	c #CAC2BA",
"n+	c #C8C4B5",
"o+	c #C6C6BD",
"p+	c #CAC4C3",
"q+	c #C8C7BF",
"r+	c #CBC6C5",
"s+	c #CEC6BF",
"t+	c #CCC9BA",
"u+	c #CAC9C0",
"v+	c #CBCAC1",
"w+	c #CCCBC2",
"x+	c #D1C9C2",
"y+	c #D4C9BC",
"z+	c #CDCCC3",
"A+	c #CECDC4",
"B+	c #CFCEC5",
"C+	c #D0CFC7",
"D+	c #D3CFC0",
"E+	c #D5CDC6",
"F+	c #D4D0C2",
"G+	c #D1D1C8",
"G+G+G+G+G+G+G+G+G+G+G+G+G+G+G+G+G+G+G+G+G+G+G+G+G+G+h+%+b+B+C+G+",
"E+E+E+p+=+K.l.l.l.l.m.m.l.m.m.m.m.l.l.l.l.l.l.].G X : 7 z f :.x+",
"G+G+|+K.|+p+E+y+y+E+E+y+E+E+E+y+F+y+y+y+y+y+G+f.7.m j 9 ; + ..n+",
"F+p+I.B+E+G+F+E+E+E+E+G+F+F+F+G+F+E+G+G+E+E+y+h.O n k %.h.a } d+",
"B+=+|+G+y+E+G+G+F+F+E+F+F+F+F+E+G+E+x+G+G+C+z.< i 5 > V V { J w+",
"y+C.r+F+G+G+E+E+G+G+G+G+F+G+E+g+G.j.1.7+ +6 $.d ; o #.w (.} E D+",
"G+s.E+E+E+G+G+E+E+E+E+G+F+G+`.Q.w+e+d+K } C c f b f.o # D m+d.C+",
"E+B.C+G+G+E+E+G+G+G+G+G+]+'.o+E+<+G.E+/+= ) n ~ D (.> # o `.s.x+",
"E+l.E+E+G+G+E+E+E+E+E+[+(.p.5+G+g+j.B+n++.n $ ).- V 8.<.Q *.s.7+",
"G+B.C+G+E+E+G+G+G+G+G+N. +6.0.%+`.h.D+A+@.j   C #.w P p.o.(.m.u+",
"6+m.E+G+G+E+E+E+E+E+E+%+z.4. +p.6.5.g+O.n * 6 l `.y 5.5.h._+a.G+",
"d g _.[+G+G+G+G+G+G+G+C+1+5+z+d+t+E._+r j f.j.D w N >+g+o+}+i.E+",
"0 . 9 >.q.s+E+F+F+E+G+E+G+E+<.0.4.9.S 9 ( '.d+-.N _+b+g+7+9+s.G+",
"a+,.) i U !.D+E+E+G+E+G+E+ +` n+e+E.M f N &+a+;.V.t+d+h+w+z+l.E+",
"(+R u.s j |.o.G+E+F+F+F+G+Q ~+5+)+[.i ' K [+,+x.t.3+e+W.u.B+s.G+",
"0.Z h.v.3 x 4 m+F+G+E+G+y+` (+<+$+d ; -.o V.Z.~+1.5+`.D./.E+l.E+",
"N 2 0+h+r.x [ 3.i+E+F+B+Q.Q 0.++j | L = 8 Z.]+d+H ]+z+u.u.A+B.G+",
"/+@ {+E+l+A.F [ i T :.3.7 O r 9 f u C x.^.>+3+t+t.u.E+J.h.E+l.E+",
"h+G v.^+u+a+&+9.^ , / 9 9 i _ , 1 Q y.X.m+9.l+G+/+-+z+h.f+B+s.G+",
"G+].0.2+#+7+(+w+(+p.p.<.*.~.K } q.M.#+x+E+`.U.x+q+U.s+-+E+E+l.E+",
"G+d.9.k+u+@+R.0+y+x+z+d+d+r+1+x.1 (+l+o+x+u+:+]+G+_+N.G+G+E+B.G+",
"E+k.9+%+E+E+c+^+F.F.R.L.@+'+$+!+).0+e+E+G+G+G+o+]+]+E+E+E+C+l.E+",
"E+g.z+b+0+A.o.u.9.T.n.A./+e+v+x+d+6.v+n+E+E+E+w+5+G+G+G+B+B+s.G+",
"G+d.r+0+C+x+x+u+q+w+m+h+N.h.g+v+A+z.5+U.[+G+A+k+E+E+E+E+E+E+l.E+",
"D+i.C+B+G+A+E+B+G+B+E+G+G+U.h+E+B+E+6.6.v o.n+v+x+G+G+G+G+E+B.G+",
"E+s.k+E+E+E+G+E+E+E+G+E+E+G+]+C+E+C+`.1+]+=.]+x+G+E+E+E+E+C+l.E+",
"E+B.r+u+u+x+G+B+B+E+B+F+E+G+y+-+y+u+A+W.E+`.0.E+u+W.C+G+G+r+B.G+",
"C+=+|+E+E+C+E+E+E+F+x+B+G+E+G+-+u+s+E+7+q+s+` [+n.H.E+E+E+8+=+E+",
"B+j+K.r+E+G+C+G+G+G+E+x+G+E+E+E+`.B+G+B+t+l+5.Q u+u.C+G+E+K.j+G+",
"E+C+8+I.8+r+F+E+E+]+f+G+E+z+G+G+U.s+E+x+v+x+1.u.r+H.r+8+B.4+G+E+",
"G+G+E+r+.+B.l.l.l.l.l.l.l.l.l.l.k.,.l.l.g.d.G G }.X B..+j+E+G+G+",
"E+E+G+G+E+G+E+E+G+E+E+G+E+m+E+G+E+E.E+E+x+s+0./.k+S.E+G+G+G+E+E+"};
