/* XPM */
static char *zoom[] =
{
/* width height ncolors chars_per_pixel */
"32 32 38 2",
/* colors */
"AA c #FFFFFFFFFFFF",
"BA c #EFEFEFEFEFEF",
"CA c #D6D6D6D6D6D6",
"DA c #CECECECEDEDE",
"EA c #CECECECECECE",
"FA c #B5B5BDBDBDBD",
"GA c #ADADADADC6C6",
"HA c #ADADADADADAD",
"IA c #9C9C9C9CADAD",
"JA c #9C9C9C9C9C9C",
"KA c #949494948C8C",
"LA c #8C8C8C8C9C9C",
"MA c #848484848C8C",
"NA c #7B7B7B7B9494",
"OA c #7B7B7B7B8C8C",
"PA c #737373737B7B",
"AB c #6B6B6B6B8C8C",
"BB c #6B6B6B6B7B7B",
"CB c #5A5A63638484",
"DB c #5A5A5A5A8C8C",
"EB c #5A5A5A5A7B7B",
"FB c #5A5A5A5A6B6B",
"GB c #4A4A52527373",
"HB c #4A4A4A4A7B7B",
"IB c #4A4A4A4A6B6B",
"JB c #4A4A4A4A5A5A",
"KB c #393939397373",
"LB c #393939396B6B",
"MB c #393939395252",
"NB c #393939394A4A",
"OB c #292931316B6B",
"PB c #292929296B6B",
"AC c #292929295A5A",
"BC c #212129294A4A",
"CC c #181818186363",
"DC c #181818184A4A",
"EC c #080808085A5A",
"FC c #080808084242",
/* pixels */
"HAHAHAHAHAHAHAHAHAHAHAHAHAHAHAHAHAHAHAHAOADBLAABIBOAHAHAHAHAHAHA",
"HAJAJAJAJAJAJAJAJAJAJAJAJAJAJAJAJAJAHAKBECLBHBMBLAJAHAJAJAJAJAHA",
"HAJAHAJAJAHAJAJAHAJAJAHAJAJAHAJAHAJAABFCFCPBPAHAHAJAABOAJAHAJAHA",
"HAJAJAHAJAJAHAJAJAHAJAJAHAJAJAHAJAOALBCCPBJAHAIAOAIBLBKBEBJAJAHA",
"HAJAJAJAHAJAJAHAJAJAHAJAJAHAJAHAOAIBJBMBJAIAHAOAFBDBNAJAGBEBIAHA",
"HAJAHAJAJAHAJAJAJAHAJAJAJAJAHAOAIBIBACABHAJAJAIBEBLACAGAOAHBMAHA",
"HAJAJAHAJAJAHAJAJAJAHAJAHAJAMAIBIBMBIBHAJAHABBIBBBFADALAOAIBJAHA",
"HAJAHAJAJAJAJAHAJAHAJAJAJAHAOAFBIBACJAJAJAHAGBIBLALAABOAFBLBJAHA",
"HAJAJAHAJAHAJAJAJAJAHAJAJAHAMAMBACOAHAJAHALALBBBOACBOAFBBCOAHAJA",
"JAHAJAJAHAJAJAJAHAJAJAHAJAHAPAACEBHAJAJAHAEBGBNABBEBMBBCBBHAJAHA",
"HAJAJAJAJAHAJAHAJAJAJAJAHAJABBPBLAJAHAJAMAPBNALAIBACIBLAHAJAJAHA",
"JAHAJAHAJAJAHAJAJAJAHAJAJAHAOAOAABGBEBLAMBNBPBLBHBJAJAHAJAJAJAHA",
"HAJAHAJAJAJAJAHAJAHAJAJAJAJAHAJANANAOAHBDCNBBCEBHAHAJAJAHAJAHAJA",
"HAJAJAJAHAJAHAJAJAJAJAHAJAHALAIAEAGALALAJBDCLBHAJAJAJAHAJAJAHAHA",
"HAJAHAJAJAHAJAJAHAJAJAJAHAJAJACAAABAHAOAOALBLAHAJAHAJAJAHAHAPADB",
"JAHAJAJAHAJAJAJAJAHAJAHAJAJAHABAAAAAEALAOABBHBKAHAJAHAJABBLBDBDB",
"HAJAJAHAJAJAHAJAJAJAHAJAJAJALAEAAACALAJAMABBMBNAHAJAEBKBHBABABEB",
"HAJAHAJAJAJAJAHAJAHAJAHAMABBOALALALAJAJAKAOALBABLALBHBNAABABIBOA",
"HAJAJAHAJAHAJAJAHAJAOABBBBIAMABCHBMAHAJAJAJAJAJAJAJAHAJAIAJAJAHA",
"JAHAJAJAHAJAJAHAMAEBDBACBBOABBFBJAHAJAJAJAHAJAHAJAIAJAJAHAJAJAHA",
"HAJAHAJAJAJAJAABHBFBIBBBIBJBJBLAJAJAHAJAHAJAJAJAJAHAJAJAJAHAJAHA",
"HAJAJAJAABCCPBIBBBOAJAEBIBLBJAHAJAHAJAJAJAJAHAJAHAJAJAJAHAJAJAHA",
"HAJAHABBGBDBPBLBOAJAABMBIBJAJAJAJAJAHAJAHAJAJAJAJAHAJAHAJAJAHAJA",
"JAHAJALAJAJAEBCBIBOBMBEBHAJAHAJAHAJAJAHAJAJAJAHAJAJAHAJAJAHAJAHA",
"HAJAJAHAJAOAOAHAJADBOAHAJAJAJAHAJAJAJAJAHAJAHAJAJAJAJAJAHAJAJAHA",
"HAJAHAJAJAHAJAJAHAJAHAJAJAJAHAJAJAJAHAJAJAHAJAJAJAHAJAHAJAJAJAHA",
"HAJAJAHAJAJAHAJAJAJAJAHAJAHAJAJAHAJAJAHAJAJAJAHAJAJAHAJAJAHAJAHA",
"JAHAJAJAHAJAJAHAJAJAHAJAJAJAJAHAJAJAHAJAJAJAHAJAHAJAJAJAHAJAJAHA",
"HAJAJAJAJAHAJAJAHAJAJAHAJAHAJAJAHAJAJAHAJAJAJAJAJAHAJAJAJAHAJAHA",
"HAJAHAJAHAJAJAJAJAJAHAJAJAJAHAJAJAJAHAJAJAHAJAHAJAJAHAJAHAJAJAHA",
"HAJAJAHAJAJAHAJAHAJAJAHAJAJAJAHAJAJAJAHAJAJAHAJAJAJAJAHAJAJAHAJA",
"HAHAHAJAHAHAJAHAJAHAHAJAHAHAHAJAHAHAHAJAHAHAJAHAHAHAHAJAHAHAJAHA",
};
