/* XPM */
static char *zooNameSpacey[] = {
/* columns rows colors chars-per-pixel */
"32 32 104 2",
"   c black",
".  c #201D14",
"X  c #201F14",
"o  c #202014",
"O  c #30271D",
"+  c #302D1D",
"@  c #302F1D",
"#  c #30301D",
"$  c #403427",
"%  c #403927",
"&  c #403A27",
"*  c #403C27",
"=  c #403F27",
"-  c #404027",
";  c #505031",
":  c #505034",
">  c #60603B",
",  c #705A45",
"<  c #706645",
"1  c #706945",
"2  c #707049",
"3  c #80674E",
"4  c #80734E",
"5  c #80774E",
"6  c #807D4E",
"7  c #807F4E",
"8  c #9C9C00",
"9  c #80804E",
"0  c #808053",
"q  c #8F8F57",
"w  c #9F8061",
"e  c #9F8761",
"r  c #9F9361",
"t  c #9F9C61",
"y  c #9F9F61",
"u  c #9F9D68",
"i  c #9F9F68",
"p  c #BF9A75",
"a  c #AFAF6B",
"s  c #BFAD75",
"d  c #BFAE75",
"f  c #BFBB75",
"g  c #BFBF75",
"h  c #BFBB7C",
"j  c #BFBF7C",
"k  c #CECE63",
"l  c #CFCD7F",
"z  c #CFCF7F",
"x  c #8186B3",
"c  c #868AB4",
"v  c #8B8FB5",
"b  c #8C90B6",
"n  c #9093B7",
"m  c #9094B7",
"M  c #9295B7",
"N  c #9396B8",
"B  c #9C9EBA",
"V  c #9EA0BA",
"C  c #BFBF9A",
"Z  c #A1A3BB",
"A  c #B4B3C0",
"S  c #B5B4C0",
"D  c #B7B6C1",
"F  c #B9B8C1",
"G  c #DFB488",
"H  c #DFC888",
"J  c #DFCA88",
"K  c #DFDF88",
"L  c #CFCFA7",
"P  c #DFDFB4",
"I  c #EECE88",
"U  c #EFC192",
"Y  c #FFCE9C",
"T  c #F6D091",
"R  c #F6D991",
"E  c #F6DF91",
"W  c #EFE592",
"Q  c #EFEF92",
"!  c #F6E191",
"~  c #F6E193",
"^  c #F6E491",
"/  c #F6E399",
"(  c #F6EA91",
")  c #FFE59C",
"_  c #FFE69C",
"`  c #FFF99C",
"'  c #FFFF9C",
"]  c #EFEFA3",
"[  c #FFF4A4",
"{  c #FFF9A6",
"}  c #FFFDA6",
"|  c #FFFFA6",
" . c #C2C0C4",
".. c #C3C1C4",
"X. c #C5C3C4",
"o. c #C7C5C5",
"O. c #C9C6C5",
"+. c #CAC7C6",
"@. c #CFCCC7",
"#. c #D1CDC7",
"$. c #D4D0C8",
"%. c #EFEFC1",
"&. c #FFFFCE",
"*. c gray97",
/* pixels */
"$.$.$.$.$.$.$.$.$.$.$.$.$.$.$.$.$.$.$.$.$.$.$.$.$.$.$.$.$.$.$.$.",
"$.$.$.o.V m x x x x x x x x x x x x x x x x x x x x n Z o.$.$.$.",
"$.$.S M A 8 8 8 8 8   $.$.$.$.$.$.$.$.$.$.$.$.$.$.$.X.A m S $.$.",
"$...M #.8 *.&.&.' ' 8   $.$.$.$.$.$.$.$.$.$.$.$.$.$.$.$.@.m ..$.",
"$.V S 8 k k k k k k k 8 8 8 8 8 8 $.$.$.$.$.$.$.$.$.$.$.$.F V $.",
"$.b +.8 %.L &.&.&.&.C &.&.&.&.' k   $.$.$.$.$.$.$.$.$.$.$.+.v $.",
"$.c @.8 C - ' ' ' ' 9 ' ' ' ' Y k   $.$.$.$.$.$.$.$.$.$.$.@.c $.",
"$.c @.8 C # ; ; Q ' - ' , ; , y k   $.$.$.$.$.$.$.$.$.$.$.@.c $.",
"$.c @.8 C o Q q > '   y ; Y ; 3 k   $.$.$.$.$.$.$.$.$.$.$.@.c $.",
"$.c @.8 C - ' g - '   9 3 ' 3 9 k   $.$.$.$.$.$.$.$.$.$.$.@.c $.",
"$.c @.8 C   a > 9 '   p # p o 3 k   $.$.$.$.$.$.$.$.$.$.$.@.c $.",
"$.c @.8 P y q q Y ' 3 Q w q , 3 k   $.$.$.$.$.$.$.$.$.$.$.@.c $.",
"$.c @.8 &.Y ' Y ' Y ' U # $ O G k   $.$.$.$.$.$.$.$.$.$.$.@.c $.",
"$.c @.8 k k k k k k k k k k k k k   $.$.$.$.$.$.$.$.$.$.$.@.c $.",
"$.c @.$.                            $.$.$.$.$.$.$.$.$.$.$.@.c $.",
"$.c @.$.$.$.$.$.  $.$.$.$.$.$.$.$.$.$.$.$.$.$.$.$.$.$.$.$.@.c $.",
"$.c @.$.$.$.$.$.  $.$.$.$.$.$.$.$.$.$.$.$.$.$.$.$.$.$.$.$.@.c $.",
"$.c @.$.$.$.$.$.  $.$.$.$.$.$.8 8 8 8 8   $.$.$.$.$.$.$.$.@.c $.",
"$.c @.$.$.$.$.$.  $.$.$.$.$.8 *.&.&.' ' 8   $.$.$.$.$.$.$.@.c $.",
"$.c @.$.$.$.$.$.  $.$.$.$.8 k k k k k k k 8 8 8 8 8 8 $.$.@.c $.",
"$.c @.$.$.$.$.$.  $.$.$.$.8 &.&.&.&.&.&.&.&.&.&.&.' k   $.@.c $.",
"$.c @.$.$.$.$.$.  $.$.$.$.8 &.] : 2 | | | | [ u [ ~ k   $.@.c $.",
"$.c @.$.$.$.$.$.  $.$.$.$.8 &.u # K Q g l ` r + J ^ k   $.@.c $.",
"$.c @.$.$.$.$.$.  $.$.$.$.8 &.0 o g ; 7 @ y 5 . d E k   $.@.c $.",
"$.c @.$.$.$.$.$.          8 &.j - ' g 6 . 5 s & ) ^ k   $.@.c $.",
"$.c @.$.$.$.$.$.$.$.$.$.$.8 &.j - J . f 1 4 s & ) R k   $.@.c $.",
"$.v o.$.$.$.$.$.$.$.$.$.$.8 &.h - W . * & < H . e T k   $.+.v $.",
"$.V F $.$.$.$.$.$.$.$.$.$.8 &./ ( W ^ E ^ E ^ R T I k   $.S V $.",
"$.X.N @.$.$.$.$.$.$.$.$.$.8 k k k k k k k k k k k k k   @.N X.$.",
"$.$.S m F o.$.$.$.$.$.$.$.$.                            m S $.$.",
"$.$.$.o.B b x x x x x x x x x x x x x x x x x x x x b B o.$.$.$.",
"$.$.$.$.$.$.$.$.$.$.$.$.$.$.$.$.$.$.$.$.$.$.$.$.$.$.$.$.$.$.$.$."
};
