/* XPM */
static char * zooPanelCycler_xpm[] = {
"32 32 314 2",
"  	c #D4D0C8",
". 	c #C7C5C5",
"+ 	c #A1A3BB",
"@ 	c #9093B7",
"# 	c #8186B3",
"$ 	c #B5B4C0",
"% 	c #9094B7",
"& 	c #B4B3C0",
"* 	c #C5C3C4",
"= 	c #D6CCC1",
"- 	c #E5A17A",
"; 	c #F76A34",
"> 	c #FB5924",
", 	c #FE4E1B",
"' 	c #FB5925",
") 	c #F47642",
"! 	c #E9976C",
"~ 	c #D9C5B3",
"{ 	c #C3C1C4",
"] 	c #9295B7",
"^ 	c #D1CDC7",
"/ 	c #D4D0C7",
"( 	c #EA9568",
"_ 	c #FE4C19",
": 	c #FD681C",
"< 	c #FF9116",
"[ 	c #FFAE16",
"} 	c #FFBE16",
"| 	c #FFAF16",
"1 	c #FF9216",
"2 	c #FF6B17",
"3 	c #FE4A18",
"4 	c #EE8757",
"5 	c #D5CBC0",
"6 	c #9EA0BA",
"7 	c #B7B6C1",
"8 	c #D3CFC7",
"9 	c #D2CEC6",
"0 	c #D2CCC2",
"a 	c #F56B37",
"b 	c #FE5C18",
"c 	c #FFB816",
"d 	c #FFCB16",
"e 	c #FFC816",
"f 	c #FE7118",
"g 	c #FC511F",
"h 	c #D8C1AD",
"i 	c #8B8FB5",
"j 	c #C9C6C5",
"k 	c #3F3636",
"l 	c #BB4D20",
"m 	c #F95F17",
"n 	c #FFC916",
"o 	c #FE8617",
"p 	c #F06D20",
"q 	c #FE7216",
"r 	c #FFC316",
"s 	c #FF8217",
"t 	c #FA5A26",
"u 	c #D3CDC4",
"v 	c #CAC7C6",
"w 	c #868AB4",
"x 	c #CDCAC5",
"y 	c #C9C9D2",
"z 	c #C8C8D1",
"A 	c #D0AFA2",
"B 	c #FD501A",
"C 	c #FFA816",
"D 	c #FA5719",
"E 	c #F54E1C",
"F 	c #C76336",
"G 	c #B26843",
"H 	c #B46740",
"I 	c #E25926",
"J 	c #F8511A",
"K 	c #E3986B",
"L 	c #C5C5CE",
"M 	c #EC7142",
"N 	c #FE6218",
"O 	c #F74916",
"P 	c #AA5E37",
"Q 	c #6C6862",
"R 	c #777570",
"S 	c #7C7A75",
"T 	c #7A7874",
"U 	c #74726E",
"V 	c #C1653A",
"W 	c #FB6C18",
"X 	c #FFA316",
"Y 	c #FB531E",
"Z 	c #C9C5C0",
"` 	c #C0BEC4",
" .	c #FD4B19",
"..	c #FC4919",
"+.	c #4C2D1D",
"@.	c #1D1919",
"#.	c #262121",
"$.	c #2C2626",
"%.	c #97948E",
"&.	c #999690",
"*.	c #8E8C86",
"=.	c #9B7860",
"-.	c #F5571C",
";.	c #FB511B",
">.	c #C9B09D",
",.	c #C7C7D0",
"'.	c #C7A394",
").	c #FF4716",
"!.	c #A9765E",
"~.	c #292323",
"{.	c #77777C",
"].	c #9C9CA3",
"^.	c #383030",
"/.	c #A5A29B",
"(.	c #B6B2AB",
"_.	c #B1AEA7",
":.	c #AD8B72",
"<.	c #F7571C",
"[.	c #F9631C",
"}.	c #CC9A7D",
"|.	c #C4C4CD",
"1.	c #C9957E",
"2.	c #ED5A2A",
"3.	c #88888E",
"4.	c #322B2B",
"5.	c #8F8F95",
"6.	c #B2B2BA",
"7.	c #3D3434",
"8.	c #CF855E",
"9.	c #C7B09D",
"0.	c #C2BEB7",
"a.	c #C68D6C",
"b.	c #F8631B",
"c.	c #FE7317",
"d.	c #D38762",
"e.	c #858AB4",
"f.	c #C1C1CA",
"g.	c #ABA8AD",
"h.	c #A28D85",
"i.	c #9E9EA6",
"j.	c #3A3131",
"k.	c #9B9BA2",
"l.	c #B7B7C0",
"m.	c #DE4C19",
"n.	c #FC4816",
"o.	c #673F2C",
"p.	c #DD7344",
"q.	c #FD8118",
"r.	c #FF7916",
"s.	c #D87E51",
"t.	c #C2C2CB",
"u.	c #AFAFB7",
"v.	c #A3A3AA",
"w.	c #B3B3BB",
"x.	c #3D3535",
"y.	c #9D9DA4",
"z.	c #B7B7BF",
"A.	c #3C3332",
"B.	c #FC4B19",
"C.	c #FF8F16",
"D.	c #FB4816",
"E.	c #FB4C1A",
"F.	c #FFB916",
"G.	c #FF7516",
"H.	c #D77C4C",
"I.	c #8589B3",
"J.	c #C6C6CF",
"K.	c #BDBDC6",
"L.	c #B9B9C2",
"M.	c #9E9EA5",
"N.	c #B6B6BF",
"O.	c #54392C",
"P.	c #F8501B",
"Q.	c #FE8716",
"R.	c #FB5E19",
"S.	c #FE6616",
"T.	c #C28563",
"U.	c #B4B4BC",
"V.	c #754126",
"W.	c #F65E1B",
"X.	c #FA571A",
"Y.	c #B18E7A",
"Z.	c #9A4721",
"`.	c #FD7217",
" +	c #FC4A18",
".+	c #A59E99",
"++	c #858AB3",
"@+	c #AEAEB6",
"#+	c #C64D1B",
"$+	c #FF8B16",
"%+	c #FF8316",
"&+	c #DC6533",
"*+	c #AAA8A4",
"=+	c #AAAAB2",
"-+	c #EB4B18",
";+	c #FFAA16",
">+	c #F7591B",
",+	c #AF8062",
"'+	c #B3B0AC",
")+	c #A9A3A7",
"!+	c #FFC616",
"~+	c #FFA916",
"{+	c #F94D1A",
"]+	c #9A948E",
"^+	c #BAB8B4",
"/+	c #9C9CA2",
"(+	c #B4968B",
"_+	c #F35017",
":+	c #F95619",
"<+	c #BA734D",
"[+	c #A8A59E",
"}+	c #C4C0BB",
"|+	c #C2886F",
"1+	c #F56117",
"2+	c #FE6F17",
"3+	c #F94F1C",
"4+	c #C1A996",
"5+	c #C9C6C2",
"6+	c #C8C4BC",
"7+	c #B4B0A9",
"8+	c #A7A49E",
"9+	c #9F9FA6",
"0+	c #D57850",
"a+	c #FE7B16",
"b+	c #FF6216",
"c+	c #FB501E",
"d+	c #D3B6A3",
"e+	c #CECBC6",
"f+	c #CFCBC3",
"g+	c #C2BEB6",
"h+	c #3A3232",
"i+	c #B8B8C1",
"j+	c #B8B8C0",
"k+	c #B1B1BA",
"l+	c #EB6432",
"m+	c #FF9616",
"n+	c #FFB716",
"o+	c #FE7816",
"p+	c #F7601A",
"q+	c #F84F1A",
"r+	c #FD4917",
"s+	c #EC5C27",
"t+	c #DE7A4C",
"u+	c #D79E7E",
"v+	c #CFCCC7",
"w+	c #D0CCC4",
"x+	c #3E3535",
"y+	c #F44A17",
"z+	c #FF8516",
"A+	c #F45B1B",
"B+	c #FC4716",
"C+	c #FC4817",
"D+	c #DA5B27",
"E+	c #BC653A",
"F+	c #A26B4B",
"G+	c #826E5E",
"H+	c #73716C",
"I+	c #7E7C77",
"J+	c #B6B3AF",
"K+	c #978B88",
"L+	c #F05120",
"M+	c #D35929",
"N+	c #AB5D3A",
"O+	c #91654F",
"P+	c #3A261B",
"Q+	c #595754",
"R+	c #6C6A66",
"S+	c #7A7873",
"T+	c #817E7A",
"U+	c #86837E",
"V+	c #8B8883",
"W+	c #93908B",
"X+	c #A4A19B",
"Y+	c #B8B5B0",
"Z+	c #B5B5BE",
"`+	c #A2A2AA",
" @	c #7F7F85",
".@	c #6D6D72",
"+@	c #6F6F74",
"@@	c #78787D",
"#@	c #282222",
"$@	c #6D6B67",
"%@	c #888580",
"&@	c #9C9994",
"*@	c #B0ADA6",
"=@	c #B7B3AD",
"-@	c #BCB8B1",
";@	c #C3BFB8",
">@	c #C6C2BE",
",@	c #302929",
"'@	c #2D2626",
")@	c #2F2929",
"!@	c #352D2D",
"~@	c #92908A",
"{@	c #AEABA4",
"]@	c #C1BDB6",
"^@	c #CDC9C1",
"/@	c #A9A69F",
"(@	c #A6A39D",
"_@	c #A5A29C",
":@	c #A09D97",
"<@	c #98958F",
"[@	c #96938E",
"}@	c #999691",
"|@	c #9E9C96",
"1@	c #A4A19A",
"2@	c #C6C2BA",
"3@	c #C3C0B8",
"4@	c #C1BEB7",
"5@	c #9396B8",
"6@	c #C2C0C4",
"7@	c #B9B8C1",
"8@	c #9C9EBA",
"9@	c #8C90B6",
"                                                                ",
"      . + @ # # # # # # # # # # # # # # # # # # # # @ + .       ",
"    $ % & *                     = - ; > , ' ) ! ~   * & % $     ",
"  { ] ^                     / ( _ : < [ } | 1 2 3 4 5   ^ ] {   ",
"  6 7 8 9 9 9 9 9 9 9 9 9 0 a b c d d d d d d d e f g h   7 6   ",
"  i j k k k k k k k k k k l m n | o p q 1 r d d d d s t u v i   ",
"  w x k y y y y y y y z A B C D E F G H I J c d d d d b K x w   ",
"  w x k y y y y y y y L M N O P Q R S T U V W d d d d X Y Z w   ",
"  w x k y y y y y y z `  ...+.@.#.$.%.&.*.=.-.d d d d d ;.>.w   ",
"  w x k y y y y y y ,.'.).!.~.{.].^./.(._.:.<.d d d d d [.}.w   ",
"  w x k y y y y y y |.1.2.3.4.5.6.7.8.9.0.a.b.d d d d d c.d.e.8 ",
"  w x k y y y y y z f.g.h.i.j.k.l.7.m.n.o.p.q.d d d d d r.s.e.8 ",
"  w x k y y y y y z t.u.v.w.x.y.z.A.B.C.D.E.F.d d d d d G.H.I.9 ",
"  w x k y y y y y y J.K.L.f.k M.N.O.P.d Q.R.d d d d d d S.T.I.9 ",
"  w x k y y y y y y y ,.J.,.k M.U.V.W.d d C d d d d d d X.Y.I.9 ",
"  w x k y y y y y y y y y y k M.6.Z.`.d d d d d d d d }  +.+++9 ",
"  w x k y y y y y y y y y y k y.@+#+$+d d d d d d d d %+&+*+e.8 ",
"  w x k y y y y y y y y y y k y.=+-+;+d d d d d d d d >+,+'+w   ",
"  w x k y y y y y y y y y y k ].)+D.!+d d d d d d d ~+{+]+^+w   ",
"  w x k y y y y y y y y y y k /+(+_+d d d d d d d e :+<+[+}+w   ",
"  w x k k k k k k k k k k k k /+|+1+d d d d d d d d 2+3+4+5+w   ",
"  w x 6+7+8+4.M.M.M.M.M.M.i.9+v.0+a+d d d d d d d d !+b+c+d+w   ",
"  w e+f+6+g+h+i+i+i+i+i+i+i+j+k+l+m+d d d n+1 o+p+q+r+s+t+u+w   ",
"  w v+8 9 w+x+x+x+x+x+x+x+x+7.j.y+z+q A+B+C+D+E+F+G+H+I+&.J+e.  ",
"  w v+    9 6+7+8+4.M.M.M.M.].K+L+M+N+O+P+Q+R+S+T+U+V+W+X+Y+e.8 ",
"  w v+    8 f+6+g+h+i+i+i+i+Z+`+ @.@+@@@#@$@%@&@[+*@=@-@;@>@w   ",
"  i v       8 9 w+x+x+x+x+x+7.^.,@'@)@4.!@~@{@]@6+^@w+9 9 j i   ",
"  6 7           9 6+7+/@8+(@_@:@<@[@}@|@1@*@2@w+8         7 6   ",
"  { ] ^         8 f+6+3@;@;@;@0.4@]@4@0.3@6+f+8         ^ 5@6@  ",
"    $ % 7@j       8 9 9 9 9 9 9 9 9 9 9 9 9 8       j 7@% $     ",
"      . 8@9@# # # # # # # # # # # # # # # # # # # # 9@8@.       ",
"                                                                "};
