/* XPM */
static char *zooRenamer[] = {
/* columns rows colors chars-per-pixel */
"32 32 125 2",
"   c #4A5777",
".  c #6A6B6F",
"X  c #75726D",
"o  c #7D7A76",
"O  c #345596",
"+  c #3E609E",
"@  c #475B8E",
"#  c #5E6985",
"$  c #5E6E96",
"%  c #5A6D9C",
"&  c #5F709B",
"*  c #4667A4",
"=  c #4E70AB",
"-  c #576CA0",
";  c #5A6EA0",
":  c #5670A6",
">  c #5A72A1",
",  c #5678B0",
"<  c #66718C",
"1  c #637194",
"2  c #65759A",
"3  c #697594",
"4  c #68789F",
"5  c #6579A4",
"6  c #637CAA",
"7  c #6B7CA3",
"8  c #5D80B8",
"9  c #6D80AD",
"0  c #6588BE",
"q  c #6E84B1",
"w  c #7182A7",
"e  c #7485AA",
"r  c #7C8DAF",
"t  c #738CB6",
"y  c #7993BC",
"u  c #6D90C5",
"i  c #7499CB",
"p  c #7F99C0",
"a  c #7DA2D3",
"s  c #85827B",
"d  c #8D8B85",
"f  c #918E88",
"g  c #94928C",
"h  c #98958F",
"j  c #909092",
"k  c #999690",
"l  c #9C9993",
"z  c #8294B5",
"x  c #899BBA",
"c  c #979CA1",
"v  c #8DA0BE",
"b  c #A09C96",
"n  c #A19E98",
"m  c #A6A39C",
"M  c #A8A49D",
"N  c #A1A7AC",
"B  c #A4AAAE",
"V  c #A9A6A0",
"C  c #ADAAA3",
"Z  c #A4ACB2",
"A  c #ADB5BB",
"S  c #B1ADA6",
"D  c #B1AEA8",
"F  c #B5B2AB",
"G  c #B8B4AE",
"H  c #B4B4B1",
"J  c #B2B8BC",
"K  c #B9B6B1",
"L  c #BCB9B3",
"P  c #BEBCB8",
"I  c #849FC6",
"U  c #8AA6CA",
"Y  c #84A9D9",
"T  c #92A5C2",
"R  c #97A9C6",
"E  c #9AAEC9",
"W  c #91ACD1",
"Q  c #9FB3CD",
"!  c #97B2D5",
"~  c #9DB8DA",
"^  c #8CB1E0",
"/  c #93B9E5",
"(  c #AEB9C3",
")  c #A4B8D2",
"_  c #A2BEDE",
"`  c #A8BCD6",
"'  c #98C0EE",
"]  c #ADC1D9",
"[  c #BDC5CB",
"{  c #B1C6DC",
"}  c #BEC8D3",
"|  c #A8C6E6",
" . c #B4C9E0",
".. c #BBD3EC",
"X. c #C1BDB6",
"o. c #C1BEB9",
"O. c #C4C1BB",
"+. c #C8C5BD",
"@. c #C6C5C1",
"#. c #C8C6C2",
"$. c #CCC9C3",
"%. c #CFCDC8",
"&. c #C4CDD5",
"*. c #C6D2DE",
"=. c #D1CDC6",
"-. c #D1CEC8",
";. c #D4D0C7",
":. c #D5D1C9",
">. c #D8D4CD",
",. c #DCD8CE",
"<. c #D6D5D6",
"1. c #D9D6D0",
"2. c #DCD9D3",
"3. c #DAD9D8",
"4. c #C1D3E6",
"5. c #D2DAE2",
"6. c #E0DDD6",
"7. c #E0DED9",
"8. c #E4E0DB",
"9. c #E1E0E0",
"0. c #F0EFEC",
"q. c #F6F6F6",
"w. c #F7F7F8",
"e. c #F8F7F6",
"r. c #FCFCFC",
/* pixels */
"3 3 3 $ $ 2 5 7 w e r z z x v T R Q Q ) ` ] { { 4.5.&.&.} 4.&.[ ",
"  . < - ; ; 6 e q - O + * = , 8 0 u i a Y ^ / ' ..+.F o.H A s Z ",
"3 j # @ % % 7 7 w 6 > 6 9 q t y y U U W ! ~ _ | { c N Z Z ( B A ",
"@.L K O.$.$.#.$.$.$.%.=.%.%.%.%.%.%.-.%.%.:.=.;.%.=.=.=.%.=.=.$.",
"+.g X S ,.:.:.:.:.:.:.:.:.:.;.;.:.:.:.:.;.:.:.:.:.:.:.-.:.:.:.$.",
":.=.+.=.-.=.-.-.%.=.;.=.=.-.;.%.%.;.;.%.=.=.=.%.=.=.=.=.=.=.=.#.",
"+.#.=.=.=.-.=.$.:.=.o.O.O.X.O.O.+.X.O.:.+.+.=.=.=.=.+.=.:.-.:.$.",
"#.0.D h k b k g F :.K $.F l f g g g M :.F g d b b X.D X.:.-.-.$.",
"2.2.$.X.L L L X.o.>.,.,.O.S F S G C X.>.+.X.D X.X.+.X.=.=.=.=.=.",
"-.-.>.>.,.:.=.P o.o.o.o.o.O.O.o.o.o.O.O.o.O.+.@.6.,.6.6.2.6.2.+.",
"o.m D M $.:.o.<.w.w.e.e.w.w.w.q.q.q.w.w.q.q.e.q.6.M D L G G o.G ",
"+.D n k o.:.+.7.r.r.r.r.r.r.r.r.r.r.r.r.r.r.r.r.2.G k n f k M D ",
",.:.:.>.-.:.=.6.8.8.8.8.8.8.8.8.8.8.8.8.8.8.8.8.$.L L L L L K K ",
":.:.:.:.:.:.$.P O.@.O.O.O.@.@.O.@.O.O.O.@.O.O.@.3.>.3.7.7.7.6.@.",
"+.M M k +.>.X.<.w.r.w.r.w.r.w.r.w.r.r.w.r.w.w.q.2.M l D M V D F ",
"=.S M n X.>.+.7.r.r.r.r.r.r.r.r.r.r.r.r.r.r.r.r.>.F l M g l C F ",
":.>.,.,.:.:.;.>.2.,.2.2.6.6.6.6.6.2.2.2.2.2.2.6.+.F K K K K G G ",
"=.O.$.+.O.$.:.%.-.;.-.=.$.S O.o.+.+.$.:.=.=.=.=.:.:.,.:.:.,.:.%.",
"+.b d f l S :.:.:.:.;.:.=.g o f d d D >.;.;.;.:.:.;.:.:.;.:.:.=.",
":.+.=.+.+.=.%.%.+.=.=.=.:.=.+.$.+.+.=.=.=.$.=.%.:.:.:.:.:.:.:.%.",
"P $.$.#.$.$.#.$.=.$.$.-.=.P #.$.%.#.$.#.#.#.#.$.3.>.2.8.8.7.6.O.",
"@.r.r.r.r.r.r.r.r.r.r.>.F <.r.r.r.r.r.r.r.r.r.r.6.n k V b m S F ",
"$.r.r.w.r.w.w.r.w.r.r.3.X.2.r.e.r.w.r.r.r.e.w.e.1.K m V l M S F ",
"1.2.1.2.2.2.,.,.2.2.,.:.:.,.2.2.,.2.,.,.3.2.6.6.$.G P P P L K K ",
"%.+.%.:.O.+.=.=.+.=.=.-.=.=.-.+.=.=.=.%.>.7.-.=.2.8.%.>.7.2.2.O.",
"O.C k b S l g m M d h k m g S f f b l +.2.,.K M l M k l b g %.G ",
"%.X.F D +.O.G X.+.L L G X.G X.+.D X.K $.>.#.G M l m G S V C K F ",
">.,.2.6.,.2.6.6.6.6.2.6.,.2.,.,.2.2.2.2.>.$.#.=.$.%.$.$.$.#.#.O.",
"2.>.-.=.=.X.D X.L +.:.-.:.:.=.O.2.>.,.=.%.=.:.:.:.:.>.>.>.,.1.L ",
"2.,.=.k M h n h h M M g l %.%.o.,.:.,.S b k b f S C g h %.:.:.F ",
">.P L G G L X.G K L G F F K K o.o.L K L G G F F G G F D X.K K D ",
">.-.=.=.=.=.=.=.=.=.=.-.=.%.=.:.=.=.=.=.=.=.%.=.=.%.=.%.%.%.%.$."
};
