/* XPM */
static char * zooshots_xpm[] = {
"32 32 436 2",
"  	c #C6B9B0",
". 	c #C1B8A7",
"+ 	c #C3BAA9",
"@ 	c #C2BAA7",
"# 	c #C5BDAA",
"$ 	c #C2B9AA",
"% 	c #C3BAAB",
"& 	c #C3B9AD",
"* 	c #C5B9AB",
"= 	c #C2B9A8",
"- 	c #C4BBAA",
"; 	c #C3BBA6",
"> 	c #C4BCA9",
", 	c #C2BBAB",
"' 	c #C2BBA8",
") 	c #C3BBA8",
"! 	c #C1B9A6",
"~ 	c #C2BDA9",
"{ 	c #C6B9B3",
"] 	c #F8F3D6",
"^ 	c #F3F0CF",
"/ 	c #F6F2CF",
"( 	c #F4F0CB",
"_ 	c #F5F1CC",
": 	c #F4F0CA",
"< 	c #F3EFCA",
"[ 	c #E7E3C1",
"} 	c #DAD9B7",
"| 	c #D8D7B5",
"1 	c #E2E0BD",
"2 	c #EFEDC7",
"3 	c #F3F1CA",
"4 	c #F3F1CB",
"5 	c #F4F2CB",
"6 	c #F4F1CE",
"7 	c #F4F1D0",
"8 	c #F4F2CC",
"9 	c #F3F1C8",
"0 	c #F5F3CD",
"a 	c #F2F0CA",
"b 	c #F5F1CE",
"c 	c #F4F0CD",
"d 	c #E2E0C0",
"e 	c #C4C3AC",
"f 	c #969587",
"g 	c #4F4E48",
"h 	c #2E2E27",
"i 	c #45453B",
"j 	c #656454",
"k 	c #92907A",
"l 	c #C9C7AC",
"m 	c #EFECCA",
"n 	c #F3F0CD",
"o 	c #F4F2C9",
"p 	c #F0F0CA",
"q 	c #F5F3CC",
"r 	c #CDCDAB",
"s 	c #F5F2D1",
"t 	c #E2DEC0",
"u 	c #959384",
"v 	c #242421",
"w 	c #060606",
"x 	c #030303",
"y 	c #010101",
"z 	c #080808",
"A 	c #393934",
"B 	c #ADAB97",
"C 	c #E6E3C0",
"D 	c #F5F0D0",
"E 	c #E7E4C4",
"F 	c #E0DEBA",
"G 	c #F2EFCC",
"H 	c #F3EFCC",
"I 	c #D0CDAE",
"J 	c #C1BAA8",
"K 	c #F6F1D3",
"L 	c #E9E8C8",
"M 	c #8E8D81",
"N 	c #131312",
"O 	c #000000",
"P 	c #020202",
"Q 	c #191917",
"R 	c #A6A494",
"S 	c #E4E0BD",
"T 	c #F0ECC8",
"U 	c #C2BFA6",
"V 	c #7E7D72",
"W 	c #403F38",
"X 	c #3F3E35",
"Y 	c #696759",
"Z 	c #B0AD94",
"` 	c #EEEAC5",
" .	c #F1EDC7",
"..	c #F6F1D1",
"+.	c #CECBAC",
"@.	c #C4B8AA",
"#.	c #F6F3D2",
"$.	c #E7E6C6",
"%.	c #B8B7A3",
"&.	c #252522",
"*.	c #161615",
"=.	c #ABAA95",
"-.	c #A1A08F",
";.	c #252523",
">.	c #040404",
",.	c #262623",
"'.	c #A7A694",
").	c #E5E3BF",
"!.	c #F0EDCB",
"~.	c #D0CDAC",
"{.	c #F6F3D4",
"].	c #BAB9A4",
"^.	c #7B7A70",
"/.	c #111110",
"(.	c #373633",
"_.	c #0E0E0D",
":.	c #080707",
"<.	c #A5A390",
"[.	c #E6E3C2",
"}.	c #CCCBAC",
"|.	c #8E8D7E",
"1.	c #54534D",
"2.	c #0C0C0C",
"3.	c #0B0B0B",
"4.	c #2B2B2B",
"5.	c #212121",
"6.	c #282826",
"7.	c #CCCBB0",
"8.	c #E9E8C2",
"9.	c #CBCBA9",
"0.	c #C4BBAC",
"a.	c #F6F2CD",
"b.	c #78766A",
"c.	c #3E3D39",
"d.	c #070706",
"e.	c #323232",
"f.	c #BABABA",
"g.	c #C1C1C1",
"h.	c #232323",
"i.	c #9F9E8E",
"j.	c #DCDAB8",
"k.	c #EEEEC9",
"l.	c #C2BBA9",
"m.	c #929181",
"n.	c #52524C",
"o.	c #090909",
"p.	c #C5C5C5",
"q.	c #E5E5E5",
"r.	c #303030",
"s.	c #1F1F1F",
"t.	c #9A9A9A",
"u.	c #3F3F3F",
"v.	c #565650",
"w.	c #CDCBAB",
"x.	c #EAE9C4",
"y.	c #F5F2D3",
"z.	c #BDBCA5",
"A.	c #77766C",
"B.	c #0F0F0E",
"C.	c #2E2E2E",
"D.	c #3B3B3B",
"E.	c #282828",
"F.	c #DEDEDE",
"G.	c #707070",
"H.	c #383734",
"I.	c #C3C2A3",
"J.	c #E6E4C0",
"K.	c #E3E1C2",
"L.	c #A9A896",
"M.	c #1D1D1B",
"N.	c #404040",
"O.	c #202020",
"P.	c #474743",
"Q.	c #BEBD9F",
"R.	c #CFCCAD",
"S.	c #EFEDC8",
"T.	c #DAD8BA",
"U.	c #75746A",
"V.	c #807F74",
"W.	c #C0BEA0",
"X.	c #EEEAC6",
"Y.	c #D2CFB5",
"Z.	c #53524C",
"`.	c #0A0A09",
" +	c #7D7C71",
".+	c #242422",
"++	c #171716",
"@+	c #ABA994",
"#+	c #C9C7A8",
"$+	c #E5E5C0",
"%+	c #CDCAAB",
"&+	c #C2B8AC",
"*+	c #EBE8C8",
"=+	c #C7C5AE",
"-+	c #67665D",
";+	c #20201E",
">+	c #1B1B1B",
",+	c #595959",
"'+	c #B0AF97",
")+	c #A7A693",
"!+	c #2A2A27",
"~+	c #818074",
"{+	c #B6B69B",
"]+	c #D8D6B7",
"^+	c #E6E6C1",
"/+	c #CAC9AA",
"(+	c #CBCBAB",
"_+	c #A09E8B",
":+	c #69685F",
"<+	c #2B2B28",
"[+	c #131211",
"}+	c #070707",
"|+	c #5C5C5C",
"1+	c #B5B5B5",
"2+	c #A2A297",
"3+	c #CBC7A9",
"4+	c #A4A393",
"5+	c #171616",
"6+	c #31312E",
"7+	c #898779",
"8+	c #B3B095",
"9+	c #CDC9AA",
"0+	c #E7E3BF",
"a+	c #C9C8AA",
"b+	c #F3EFC9",
"c+	c #EDE9C4",
"d+	c #E1DEC0",
"e+	c #CBC9AB",
"f+	c #BDBBA4",
"g+	c #A8A790",
"h+	c #A5A58E",
"i+	c #67665E",
"j+	c #0C0C0B",
"k+	c #222222",
"l+	c #757575",
"m+	c #656565",
"n+	c #757467",
"o+	c #605F57",
"p+	c #111111",
"q+	c #73726D",
"r+	c #9B9B88",
"s+	c #9E9D86",
"t+	c #BDBA9F",
"u+	c #F0EEC9",
"v+	c #C4C3A4",
"w+	c #E0DEC0",
"x+	c #8F8E7B",
"y+	c #CAC8AC",
"z+	c #E0DCBA",
"A+	c #DAD8B8",
"B+	c #D1D1B3",
"C+	c #908F83",
"D+	c #0F0F0F",
"E+	c #151515",
"F+	c #141313",
"G+	c #494947",
"H+	c #8E8E81",
"I+	c #D9D7B7",
"J+	c #E9E7C2",
"K+	c #F2F1CD",
"L+	c #939285",
"M+	c #131311",
"N+	c #4C4C46",
"O+	c #848376",
"P+	c #78776C",
"Q+	c #595850",
"R+	c #2F2F2C",
"S+	c #40403D",
"T+	c #C0BEA1",
"U+	c #F1EFC9",
"V+	c #F5F2CF",
"W+	c #C2C1A2",
"X+	c #EEECCA",
"Y+	c #696860",
"Z+	c #1D1D1D",
"`+	c #0E0E0E",
" @	c #101010",
".@	c #828177",
"+@	c #BDBC9F",
"@@	c #E3E1BD",
"#@	c #F3EFCB",
"$@	c #BEBCA7",
"%@	c #5B5A52",
"&@	c #5B5A53",
"*@	c #8D8D88",
"=@	c #B4B4B4",
"-@	c #B2B2B2",
";@	c #565656",
">@	c #1D1D1C",
",@	c #8B8B84",
"'@	c #ADAB9A",
")@	c #B5B49F",
"!@	c #F0EEC8",
"~@	c #C7C6A7",
"{@	c #E7E5C3",
"]@	c #CDCCAF",
"^@	c #BCBBA1",
"/@	c #C0BEAE",
"(@	c #CCCBC3",
"_@	c #CCCBC1",
":@	c #A5A399",
"<@	c #85857A",
"[@	c #191918",
"}@	c #6B6B63",
"|@	c #AFAE99",
"1@	c #B6B49D",
"2@	c #C5C3AA",
"3@	c #E3DFBC",
"4@	c #F1EFCA",
"5@	c #E3DFBD",
"6@	c #D7D5B7",
"7@	c #CDCBB0",
"8@	c #C8C6A8",
"9@	c #C6C4A6",
"0@	c #BBBAA1",
"a@	c #353530",
"b@	c #9C9B8A",
"c@	c #BFBCA1",
"d@	c #D4D2B1",
"e@	c #E2E0BE",
"f@	c #EEEBC9",
"g@	c #CBCAAB",
"h@	c #F1EECB",
"i@	c #E9E8C3",
"j@	c #E4E2BE",
"k@	c #727267",
"l@	c #0D0D0D",
"m@	c #3F3F3A",
"n@	c #B3B097",
"o@	c #D1CEB0",
"p@	c #EDEBC6",
"q@	c #C1BAAA",
"r@	c #F2F0C9",
"s@	c #DEDCC5",
"t@	c #555550",
"u@	c #474744",
"v@	c #393937",
"w@	c #383836",
"x@	c #B4B29D",
"y@	c #DCD9BA",
"z@	c #EEECC7",
"A@	c #A5A59E",
"B@	c #252525",
"C@	c #939288",
"D@	c #4A4A49",
"E@	c #383736",
"F@	c #6B6B6A",
"G@	c #2A2A2A",
"H@	c #A8A79B",
"I@	c #D5D4B2",
"J@	c #E6E4C9",
"K@	c #696967",
"L@	c #707069",
"M@	c #9F9E8D",
"N@	c #51514E",
"O@	c #575756",
"P@	c #9F9E93",
"Q@	c #4E4E49",
"R@	c #60605C",
"S@	c #C6C4AB",
"T@	c #E6E4BF",
"U@	c #F7F2D2",
"V@	c #F1F2CA",
"W@	c #ECEDCB",
"X@	c #A2A29C",
"Y@	c #373736",
"Z@	c #A4A28E",
"`@	c #B3B29A",
" #	c #40403E",
".#	c #7A7A76",
"+#	c #A2A28F",
"@#	c #A3A18F",
"##	c #2E2E2D",
"$#	c #A7A596",
"%#	c #DAD8B6",
"&#	c #F4EFCF",
"*#	c #F1F1CB",
"=#	c #F1EECD",
"-#	c #B3B3A2",
";#	c #4B4B48",
">#	c #9C9B8C",
",#	c #BAB79F",
"'#	c #848378",
")#	c #A0A094",
"!#	c #A9AA90",
"~#	c #CCC8AB",
"{#	c #A19F8B",
"]#	c #BBBB9F",
"^#	c #D5D6B2",
"/#	c #F6F3D0",
"(#	c #F1F1CD",
"_#	c #EBE9C6",
":#	c #AEAD98",
"<#	c #969482",
"[#	c #BDBB9F",
"}#	c #CECCAC",
"|#	c #E4E2BD",
"1#	c #D6D2B5",
"2#	c #C7C4AA",
"3#	c #DFDDBA",
"4#	c #DDDBB9",
"5#	c #E1E1BD",
"6#	c #EBE7CA",
"7#	c #C7C4A5",
"8#	c #C4C0A3",
"9#	c #BEBAA1",
"0#	c #C2BEA5",
"a#	c #C2BEA1",
"b#	c #C5C1A4",
"c#	c #C1C0A2",
"d#	c #B6B59B",
"e#	c #ACAA90",
"f#	c #AFAB92",
"g#	c #B8B598",
"h#	c #BDBC9E",
"i#	c #B5B699",
"j#	c #B2B297",
"k#	c #B7B69B",
"l#	c #BCBB9F",
"m#	c #B8B79C",
"n#	c #B3B397",
"o#	c #B7B69A",
"p#	c #BBBA9E",
"q#	c #BFBEA0",
"r#	c #C3C2A6",
"s#	c #C5C1A6",
"t#	c #C4C3A5",
"u#	c #A5A488",
"v#	c #C1BBAB",
"w#	c #C3BCAA",
"x#	c #C0B7A8",
"y#	c #BCB3A5",
"z#	c #BCB5A4",
"A#	c #C0B9A7",
"B#	c #C2BAA9",
"C#	c #C0B8A7",
"  . + @ # $ % & * $ + + + = + $ - ; > % + $ , ' @ ) + , ! + ~ { ",
"+ ] ^ / ( _ : < [ } | 1 2 3 4 5 4 6 7 8 9 0 a 5 b 4 ( 6 ( c 7 ) ",
"' 7 4 5 8 6 d e f g h i j k l m n 4 5 o 4 o : ( n 8 8 p q 6 r - ",
"' s ^ / ( t u v w w x x y z A B C < ( D E F 4 G 6 4 4 8 3 H I * ",
"J K 4 4 L M N O O O y y O O P Q R S T U V W X Y Z `  .8 ( ..+.@.",
"' #.4 $.%.&.O y O y y O y y O O *.=.-.;.w x y >.,.'.).!.8 G ~.+ ",
", {.n ].^./.O y y O O O O O y y O (._.O O O y O O :.<.[.a 6 }.+ ",
"% / 8 |.1.2.O y y O 3.4.5.>.y y y O O y O O O O y O 6.7.8.a 9.+ ",
"0.a.^ b.c.d.O y y O e.f.g.h.O y y y y y y y z O O y P i.j.k.}.l.",
"+ b 4 m.n.o.O y O O e.p.q.r.O y O y y y O s.t.u.y O P v.w.x.+.+ ",
"% y.4 z.A.B.O P y O w C.D.3.O y y O y y O E.F.G.x y y H.I.J.+.= ",
"+ s n K.L.M.O P y O O O O O y y O O y y y z N.O.y y P P.Q.1 R.+ ",
"% 6 8 S.T.U.x O y y y O O y y y y x O y O O O O y O O V.W.).+.+ ",
"0.4 ^ b X.Y.Z.x O O y y y y y O `. +.+O O P y y O O ++@+#+$+%++ ",
"&+s 4 5 4 *+=+-+;+w O O O O >.>+,+'+)+!+P P O O O x ~+{+]+^+/++ ",
"% {.^ / ( ( x.(+_+:+<+[+N }+z |+1+2+3+4+5+O O O 6+7+8+9+0+4 a+l.",
"+ 7 ^ / ( _ b+c+d+e+f+g+h+i+j+k+l+m+n+o+j+p+q+r+s+t+w.J.u+n v++ ",
"+ s 4 5 8 6 a w+x+y+z+A+B+C+/.O D+E+F+O O 2.G+H+v+I+J+u+_ n I.+ ",
"+ s 4 5 4 n K+L+M+N+O+P+Q+R+}+x O O O y y y O S+T+J.U+n 4 V+W++ ",
"+ 7 n 8 4 8 X+Y+O O 3.Z+5.`+O P P y P y P O  @.@+@@@5 n 8 4 v++ ",
"+ 7 8 ^ / ( #@$@%@&@*@=@-@;@ @y y y y y O >@,@'@)@1 !@6 n 8 ~@= ",
"+ s 4 4 5 8 n {@]@^@/@(@_@:@<@[@O O O P O }@|@1@2@3@S.: b+8 /++ ",
"+ s 3 4 5 4 n 4@J+5@6@7@8@9@0@a@O O O y M+b@c@d@e@J.f@0 4 n g@+ ",
"+ 7 ^ n 8 4 8 a h@u+!.i@j@).d+k@l@O P O m@n@o@i@p@T h@4 _ n }.+ ",
"q@y.8 8 4 4 4 q n 8 4 a 3 r@s@t@u@v@}+`+w@x@y@z@n 4 V+n 4 V++.% ",
"+ b 3 4 n n 4 3 6 n 8 4 3 ^ A@B@C@D@E@F@G@H@I@2 n 8 4 n 8 4 I = ",
"' / 4 3 8 n n 8 4 8 n n 8 J@K@L@M@N@O@P@Q@R@S@T@n n 8 6 n 8 +.+ ",
"% U@n ^ 4 c 8 V@_ 4 3 8 W@X@Y@Z@`@ #.#+#@###$#%#z@8 n 4 8 n +.+ ",
"% &#8 8 3 _ n *#4 : 8 =#-#;#>#,#e+'#)#!#~#{#]#^#X.4 3 _ 4 3 +.+ ",
"' /#r@(#n 6 8 8 n a 0 _#:#<#[#}#|#1#2#(+3#S 4#5#S.: 8 4 : 8 +.@ ",
"' 6#7#8#9#0#a#b#I.I.I.c#d#e#f#g#h#+@i#j#k#l#m#n#o#p#q#r#s#t#u#v#",
"0.= w#' + $ - q@+ + + = x#y#z#A#+ = B#C#. = = J A#. J J + ' J   "};
