/* XPM */
static char *zooScriptLoader[] = {
/* columns rows colors chars-per-pixel */
"32 32 88 1",
"  c #403F3C",
". c #514F4C",
"X c #54524F",
"o c #555350",
"O c #565451",
"+ c #5A5B6A",
"@ c #555872",
"# c #5D5F79",
"$ c #666460",
"% c #676561",
"& c #6A6864",
"* c #716F6B",
"= c #74726E",
"- c #767471",
"; c #797672",
": c #7B7974",
"> c #7C7A75",
", c #7D7A76",
"< c #7E7C77",
"1 c #7F7D78",
"2 c #676A8A",
"3 c #74789C",
"4 c #807E79",
"5 c #83807B",
"6 c #83817C",
"7 c #84827E",
"8 c #87847F",
"9 c #868481",
"0 c #8A8782",
"q c #8D8A85",
"w c #8D8B85",
"e c #8E8B86",
"r c #918E88",
"t c #918F89",
"y c #95928C",
"u c #989590",
"i c #999690",
"p c #9B9993",
"a c #9F9C96",
"s c #9F9D99",
"d c #8186B3",
"f c #8488B1",
"g c #868AB4",
"h c #8B8FB5",
"j c #8C90B6",
"k c #9093B7",
"l c #9094B7",
"z c #9295B7",
"x c #9396B8",
"c c #9C9EBA",
"v c #9EA0BA",
"b c #A09D97",
"n c #A29F99",
"m c #A3A09A",
"M c #A6A39D",
"N c #AAA6A0",
"B c #AAA7A1",
"V c #AEAAA4",
"C c #AAA8AB",
"Z c #A1A3BB",
"A c #B1AEA7",
"S c #B0ADAC",
"D c #B3B1AC",
"F c #B5B2AB",
"G c #B8B4AD",
"H c #B9B5AE",
"J c #BCB8B1",
"K c #BFBCB4",
"L c #B4B3C0",
"P c #B5B4C0",
"I c #B7B6C1",
"U c #B9B8C1",
"Y c #BFBDC3",
"T c #C3BFB8",
"R c #C6C2BB",
"E c #CAC6BF",
"W c #C2C0C4",
"Q c #C3C1C4",
"! c #C5C3C4",
"~ c #C7C5C5",
"^ c #C9C6C1",
"/ c #C9C6C5",
"( c #CAC7C6",
") c #CDC9C2",
"_ c #CFCCC7",
"` c #D1CDC5",
"' c #D1CDC7",
"] c #D4D0C8",
/* pixels */
"]]]]]]]]]]]]]]]]]]]]]]]]]]]]]]]]",
"]]]~vlddddddddddddddddddddkv~]]]",
"]]PzL~]]]]]]]]]]]]]]]]]]]]~JlI]]",
"]Qz']]]]]]]]]]]]EGR]]]]]]]]]_xCC",
"]vP]]]]]]]]]]]]]Km<]]]]]]]]]]I+]",
"]h(]RMaVBm]]peR]]]8]]]]JJ]]]]S#]",
"]g_])$n,iyR5F^;)]]8]]]]  ]]]]-g]",
"]g_]]8]8'mG.88:y]]8]]]]E^]]]K9g]",
"]g_]]8]8]mG:]]]]]]8]]]]JJ]]]*^g]",
"]g_]Kom8im<a5a:Vi8O8G]]  ]]R9_g]",
"]g_]]]]]]]]])G]]]]]]]]]E^]]y)_g]",
"]g_]]]]]]]]]]]]]]]]]]]]]]]]]]_g]",
"]g_]]]]]]]]]FT]]]]]]]]]]]]]]]_g]",
"]g_]]]]Y]]]M,:i]]]]]]]]]]]]]]_g]",
"]g_]]]]Y]]]1]]n]]B8G]]]]]]]]]_g]",
"]g_]]]]Y]]]n5w)]KB]1R]]]]]i895@K",
"]g_]]]]Y]]]]]R,]T<8%G]]]]]Vmmn2R",
"]g_]]]]Y]]]X)J,],']aG]]]]]KGGF3)",
"]g']]]]Y]]]m%5']0pwX<]]]]]]]]_g]",
"]g']]]]Y]]]]MJ]]]KE]]]]]]]]]]_g]",
"]g_]]]]Y]]]]]]]]]]]]]]]]]]]]]_g]",
"]g_]]]]Y]]]]KR]]]]]]]]]]]]]]]_g]",
"]g_]]]]Y]]]]yV]]]]]]]]y]]]]]]_g]",
"]g_]]]]Y]]]FmR]RMGwK]J%mmK]]]_g]",
"]g_]]]]Y]]]Rbm])&e'*]R=GG^]]]_g]",
"]g']]]]Y]]]]Gm]]8]]8]]8]]]]]]_g]",
"]h(]]]]Y]]]]Gm]]8]_8]]8]]]]]](h]",
"]vP]]]]Y]]]8=%8FXmEoi]awiw]]]Ic]",
"]Qz']']]]]]]]]]]]]]]]]]RT]]]_xQ]",
"]]PzU(]]]]]]]]]]]]]]]]]]]](UlP]]",
"]]]~vhddddddddddddddddddddhc(]]]",
"]]]]]]]]]]]]]]]]]]]]]]]]]]]]]]]]"
};
