/* XPM */
static char * zooToolBox_xpm[] = {
"32 32 694 2",
"  	c #D4D0C8",
". 	c #C7C5C5",
"+ 	c #A1A3BB",
"@ 	c #9093B7",
"# 	c #8186B3",
"$ 	c #D5D1C9",
"% 	c #B5B4C0",
"& 	c #9094B7",
"* 	c #B4B3C0",
"= 	c #C5C3C4",
"- 	c #D4D2CD",
"; 	c #D3CFC8",
"> 	c #D3CFC7",
", 	c #C5C2C7",
"' 	c #CDC9C9",
") 	c #B9B7CE",
"! 	c #CECACD",
"~ 	c #BEBAC4",
"{ 	c #8A899E",
"] 	c #A1A2B9",
"^ 	c #B5B4C4",
"/ 	c #C7C4BE",
"( 	c #C4C1C1",
"_ 	c #CFCCC7",
": 	c #D2CEC6",
"< 	c #B6B5C1",
"[ 	c #C3C1C4",
"} 	c #9295B7",
"| 	c #D1CDC7",
"1 	c #C4C2C7",
"2 	c #B6B3C3",
"3 	c #D0CECC",
"4 	c #CFCBC3",
"5 	c #BEBDCE",
"6 	c #BEBDD9",
"7 	c #B0AFCC",
"8 	c #B0ABBE",
"9 	c #52434B",
"0 	c #3E212B",
"a 	c #40252F",
"b 	c #776A7B",
"c 	c #BBB8C2",
"d 	c #B6B6CC",
"e 	c #C5C4CD",
"f 	c #CECAC3",
"g 	c #D1CEC7",
"h 	c #CECDCC",
"i 	c #D3D0C9",
"j 	c #9EA0BA",
"k 	c #B7B6C1",
"l 	c #C1BFCE",
"m 	c #B1AED2",
"n 	c #B7B8CB",
"o 	c #CBCACD",
"p 	c #B8B9D4",
"q 	c #B0B0CE",
"r 	c #A3A3BB",
"s 	c #493A43",
"t 	c #60302A",
"u 	c #67201B",
"v 	c #863A2D",
"w 	c #522625",
"x 	c #69596A",
"y 	c #A9A5C3",
"z 	c #B7B6CC",
"A 	c #C4C6CF",
"B 	c #B6B9C5",
"C 	c #C5C6CB",
"D 	c #CDC9C2",
"E 	c #D0CCC4",
"F 	c #8B8FB5",
"G 	c #CAC7C6",
"H 	c #C5C3C9",
"I 	c #C6C3C6",
"J 	c #CECAC8",
"K 	c #BAB7CE",
"L 	c #AFABCD",
"M 	c #AEACD5",
"N 	c #B0B1D6",
"O 	c #8D8BA4",
"P 	c #5E4E56",
"Q 	c #4F2A27",
"R 	c #7E362A",
"S 	c #9E3B32",
"T 	c #902D25",
"U 	c #A13A2A",
"V 	c #9D3E2B",
"W 	c #863A2F",
"X 	c #582728",
"Y 	c #64505F",
"Z 	c #A1A2BB",
"` 	c #B8B9D2",
" .	c #C3C0BF",
"..	c #C3C2C7",
"+.	c #D0CECE",
"@.	c #C8C5C4",
"#.	c #868AB4",
"$.	c #C6C2CB",
"%.	c #AFACCA",
"&.	c #B5B1D1",
"*.	c #B6B3D2",
"=.	c #8B88A7",
"-.	c #81869A",
";.	c #848895",
">.	c #1C1019",
",.	c #5C3238",
"'.	c #6F292A",
").	c #752A27",
"!.	c #682621",
"~.	c #6A2721",
"{.	c #692924",
"].	c #5D2321",
"^.	c #552421",
"/.	c #492A1F",
"(.	c #251C20",
"_.	c #43475C",
":.	c #B6B7D2",
"<.	c #B4AFCA",
"[.	c #BDBDC1",
"}.	c #C3BFB8",
"|.	c #CBC7BF",
"1.	c #CCC9C4",
"2.	c #8589B3",
"3.	c #CCC8C1",
"4.	c #B5B2C6",
"5.	c #AFACC9",
"6.	c #514F66",
"7.	c #6D6D78",
"8.	c #655F6D",
"9.	c #9792A5",
"0.	c #87899C",
"a.	c #84899B",
"b.	c #898D9B",
"c.	c #838487",
"d.	c #807465",
"e.	c #A29077",
"f.	c #5E584F",
"g.	c #6B6D7A",
"h.	c #9C96AB",
"i.	c #9E91A5",
"j.	c #9896B1",
"k.	c #979BBA",
"l.	c #B0B2CD",
"m.	c #B3B1BF",
"n.	c #B1AEA9",
"o.	c #BBB8B0",
"p.	c #C7C3BB",
"q.	c #CAC7C2",
"r.	c #ACA9AD",
"s.	c #B3B1CA",
"t.	c #565566",
"u.	c #A5A6A5",
"v.	c #C8C3D0",
"w.	c #69607F",
"x.	c #B5ADD6",
"y.	c #B1ACDC",
"z.	c #B1AEDF",
"A.	c #9F98B7",
"B.	c #9D8079",
"C.	c #E9C2A6",
"D.	c #655451",
"E.	c #847C9B",
"F.	c #B7AAD7",
"G.	c #B1ACE2",
"H.	c #B0ADE1",
"I.	c #ADAED9",
"J.	c #B2B4D3",
"K.	c #B9BBC8",
"L.	c #AEADB7",
"M.	c #B7B5B9",
"N.	c #C5C1BA",
"O.	c #C9C6C2",
"P.	c #CDC9C1",
"Q.	c #C1BDB8",
"R.	c #B6B1D3",
"S.	c #7A7895",
"T.	c #616169",
"U.	c #D3D5D7",
"V.	c #7B7C88",
"W.	c #9595AD",
"X.	c #AFAFD2",
"Y.	c #ABAED5",
"Z.	c #969BB7",
"`.	c #978678",
" +	c #D0B188",
".+	c #5E5B4F",
"++	c #778198",
"@+	c #AFADCD",
"#+	c #B0B0D3",
"$+	c #AEABD3",
"%+	c #B2AFD8",
"&+	c #AFB0D6",
"*+	c #ADB1D3",
"=+	c #B0ADC4",
"-+	c #B5B2AE",
";+	c #C4C1B9",
">+	c #CFCBC9",
",+	c #B8B9C7",
"'+	c #B7B6D2",
")+	c #B3AFD6",
"!+	c #A19DBD",
"~+	c #44414F",
"{+	c #B5B4B9",
"]+	c #CDCDD4",
"^+	c #5B5B69",
"/+	c #AEAFC9",
"(+	c #AFB0D8",
"_+	c #9A98B7",
":+	c #948675",
"<+	c #E9D0A7",
"[+	c #6D5F5E",
"}+	c #5F5E72",
"|+	c #4A4B4F",
"1+	c #464552",
"2+	c #8585A2",
"3+	c #AFB1CD",
"4+	c #AEAFCA",
"5+	c #B0AED0",
"6+	c #AAA9B1",
"7+	c #B2AFA8",
"8+	c #C2BEB7",
"9+	c #C9C6C1",
"0+	c #C7C4C1",
"a+	c #B4B3C5",
"b+	c #B3AFD3",
"c+	c #AAA5C6",
"d+	c #413E51",
"e+	c #8B898E",
"f+	c #DBDADD",
"g+	c #9B9BA5",
"h+	c #7B7A92",
"i+	c #B0AED5",
"j+	c #9F98B6",
"k+	c #988675",
"l+	c #CCB38F",
"m+	c #4C3C39",
"n+	c #302D39",
"o+	c #2E2E2B",
"p+	c #807A7B",
"q+	c #3F3D4D",
"r+	c #9999A8",
"s+	c #3E3C4D",
"t+	c #85819D",
"u+	c #B6B5C6",
"v+	c #B2B0AD",
"w+	c #C2BEB8",
"x+	c #C8C5C0",
"y+	c #CFCBC5",
"z+	c #C6C3BF",
"A+	c #BEBBBB",
"B+	c #B5B1D3",
"C+	c #B3AECF",
"D+	c #6F6B82",
"E+	c #4B494D",
"F+	c #B1AEAE",
"G+	c #C0BEC4",
"H+	c #575568",
"I+	c #A8A6C6",
"J+	c #A19AB2",
"K+	c #99867A",
"L+	c #ECD1B3",
"M+	c #5E4D41",
"N+	c #1A1311",
"O+	c #70675A",
"P+	c #40352E",
"Q+	c #4D464A",
"R+	c #535253",
"S+	c #A9A7AF",
"T+	c #76718A",
"U+	c #B2B1D1",
"V+	c #AFAEC0",
"W+	c #BFBBB5",
"X+	c #C3C0C5",
"Y+	c #B2B1D3",
"Z+	c #B2AED1",
"`+	c #B4B0CD",
" @	c #8F8CA2",
".@	c #1E1A21",
"+@	c #5D585A",
"@@	c #4C494C",
"#@	c #73717B",
"$@	c #6B687C",
"%@	c #A19CAD",
"&@	c #8E7E7B",
"*@	c #927A68",
"=@	c #4D3B29",
"-@	c #BEAC95",
";@	c #ECD6BE",
">@	c #6E6058",
",@	c #453E3E",
"'@	c #484846",
")@	c #9A9AA3",
"!@	c #8B87A5",
"~@	c #B1AFD6",
"{@	c #ACAAB1",
"]@	c #C5C2BE",
"^@	c #8488B2",
"/@	c #C0BCC6",
"(@	c #AFADD4",
"_@	c #B1AFD7",
":@	c #AEABCD",
"<@	c #4D4A63",
"[@	c #4D4B5A",
"}@	c #726D77",
"|@	c #757075",
"1@	c #535052",
"2@	c #4D4B4E",
"3@	c #66646C",
"4@	c #7D7C86",
"5@	c #2F2527",
"6@	c #806B5D",
"7@	c #E1CDAD",
"8@	c #E9CEAA",
"9@	c #8A6C53",
"0@	c #594D48",
"a@	c #4D484B",
"b@	c #424245",
"c@	c #575968",
"d@	c #AAA9CE",
"e@	c #AEACD4",
"f@	c #A6A3A1",
"g@	c #B7B3AD",
"h@	c #C3C0BB",
"i@	c #8488B1",
"j@	c #CDCAC6",
"k@	c #C3C1C5",
"l@	c #BAB6CE",
"m@	c #ABA8CC",
"n@	c #565568",
"o@	c #3B3A44",
"p@	c #7D7B86",
"q@	c #CFCDD0",
"r@	c #7B777B",
"s@	c #2A282E",
"t@	c #D0D2D3",
"u@	c #CCCFD0",
"v@	c #919193",
"w@	c #3C2E29",
"x@	c #C0A68D",
"y@	c #ECD8AF",
"z@	c #C7B694",
"A@	c #53413F",
"B@	c #836879",
"C@	c #A2979A",
"D@	c #61606A",
"E@	c #5E556B",
"F@	c #8C8FAA",
"G@	c #B2ADD4",
"H@	c #ABA8C4",
"I@	c #A5A29B",
"J@	c #B8B4AD",
"K@	c #C4C1BC",
"L@	c #CCCAC6",
"M@	c #B7B6C6",
"N@	c #B4B1D2",
"O@	c #7A7693",
"P@	c #9F9EA8",
"Q@	c #C7C5C7",
"R@	c #C8C2C9",
"S@	c #9F9A98",
"T@	c #312D2C",
"U@	c #302C31",
"V@	c #88848B",
"W@	c #746B6A",
"X@	c #766857",
"Y@	c #E4D1AA",
"Z@	c #E9D2AE",
"`@	c #978176",
" #	c #2B191C",
".#	c #766866",
"+#	c #9D938E",
"@#	c #90767C",
"##	c #554C49",
"$#	c #555E5D",
"%#	c #7C6E86",
"&#	c #B0AFD3",
"*#	c #A5A3B5",
"=#	c #A9A69F",
"-#	c #BCB8B1",
";#	c #C6C3BE",
">#	c #C6C4BF",
",#	c #B5B2CD",
"'#	c #928DA7",
")#	c #7D7A82",
"!#	c #817D7F",
"~#	c #787179",
"{#	c #4C4447",
"]#	c #5D574F",
"^#	c #292021",
"/#	c #60545D",
"(#	c #7B6764",
"_#	c #EED4B4",
":#	c #D8C19B",
"<#	c #5D4D3D",
"[#	c #776864",
"}#	c #5C4F53",
"|#	c #423939",
"1#	c #8C8B84",
"2#	c #4A2224",
"3#	c #7B433E",
"4#	c #704540",
"5#	c #210D18",
"6#	c #959BB5",
"7#	c #A6A5AE",
"8#	c #AEAAA4",
"9#	c #C1BDB6",
"0#	c #C8C4BC",
"a#	c #B8B4B9",
"b#	c #A7A5C1",
"c#	c #40404F",
"d#	c #33323C",
"e#	c #524E60",
"f#	c #8B8794",
"g#	c #211713",
"h#	c #41342E",
"i#	c #827476",
"j#	c #6A5957",
"k#	c #9E8B79",
"l#	c #4E3D3A",
"m#	c #4E4447",
"n#	c #756F62",
"o#	c #39362A",
"p#	c #645F63",
"q#	c #504B52",
"r#	c #4A080A",
"s#	c #761F1F",
"t#	c #682022",
"u#	c #18080A",
"v#	c #717481",
"w#	c #A4A2A0",
"x#	c #CBC8C3",
"y#	c #CDCAC5",
"z#	c #BFBCB8",
"A#	c #B4B5D4",
"B#	c #9396B1",
"C#	c #5C5E75",
"D#	c #ACACCA",
"E#	c #83829C",
"F#	c #766762",
"G#	c #978575",
"H#	c #534A41",
"I#	c #5A5553",
"J#	c #605A60",
"K#	c #6D6772",
"L#	c #625D65",
"M#	c #484546",
"N#	c #686766",
"O#	c #4F4E51",
"P#	c #736969",
"Q#	c #8C1A22",
"R#	c #510D0E",
"S#	c #363027",
"T#	c #746263",
"U#	c #575053",
"V#	c #A4A19B",
"W#	c #B6B3AC",
"X#	c #CECBC6",
"Y#	c #CFCBC4",
"Z#	c #BFBCC4",
"`#	c #B1ACD0",
" $	c #ACAAD9",
".$	c #ADAEE0",
"+$	c #B1B1DB",
"@$	c #89869E",
"#$	c #8E7866",
"$$	c #E2C7AA",
"%$	c #786454",
"&$	c #5B4F4F",
"*$	c #9D96A3",
"=$	c #706A77",
"-$	c #7C777D",
";$	c #1D1D1E",
">$	c #8E8E91",
",$	c #797680",
"'$	c #452D39",
")$	c #4E1618",
"!$	c #64503C",
"~$	c #E0CCA9",
"{$	c #B39785",
"]$	c #363131",
"^$	c #A6A39D",
"/$	c #BAB7B0",
"($	c #C8C4BD",
"_$	c #B7B3BB",
":$	c #B1AECB",
"<$	c #ADAED1",
"[$	c #A6A8C2",
"}$	c #545661",
"|$	c #9B8A6B",
"1$	c #EFD6B0",
"2$	c #695647",
"3$	c #554A47",
"4$	c #5D5B58",
"5$	c #4E4E4C",
"6$	c #CCC9CD",
"7$	c #A7A7AF",
"8$	c #CBCAD2",
"9$	c #575154",
"0$	c #22120F",
"a$	c #957B69",
"b$	c #E8D8B5",
"c$	c #F4D5AB",
"d$	c #C4AB90",
"e$	c #1B1F1A",
"f$	c #A9A5A0",
"g$	c #BEBBB4",
"h$	c #CAC6BF",
"i$	c #ABA8AB",
"j$	c #888699",
"k$	c #2A2936",
"l$	c #0F0D13",
"m$	c #A69477",
"n$	c #EAD2B3",
"o$	c #523E3A",
"p$	c #473D40",
"q$	c #4A4A44",
"r$	c #50524A",
"s$	c #A19FA2",
"t$	c #B5B3BE",
"u$	c #3C363D",
"v$	c #2F231C",
"w$	c #BCAA8D",
"x$	c #F3DAB5",
"y$	c #F6D5AE",
"z$	c #FDD2A9",
"A$	c #D5B99D",
"B$	c #191712",
"C$	c #9E9B96",
"D$	c #BFBCB4",
"E$	c #C1BEB7",
"F$	c #5C575C",
"G$	c #3A2F33",
"H$	c #645554",
"I$	c #62534E",
"J$	c #B79C82",
"K$	c #ECCFB2",
"L$	c #402A22",
"M$	c #625455",
"N$	c #353032",
"O$	c #100D0F",
"P$	c #B0AAAE",
"Q$	c #645B5D",
"R$	c #54463C",
"S$	c #D9C2A3",
"T$	c #F5D8AD",
"U$	c #F6D1A8",
"V$	c #FCD0AE",
"W$	c #F7D2AE",
"X$	c #B59E8A",
"Y$	c #170E11",
"Z$	c #918F8A",
"`$	c #C8C5BD",
" %	c #2B2620",
".%	c #B4A38D",
"+%	c #CAB093",
"@%	c #C9AD8D",
"#%	c #EDCBA4",
"$%	c #F5D5A8",
"%%	c #C5AC85",
"&%	c #72624C",
"*%	c #4F4340",
"=%	c #544953",
"-%	c #2E2328",
";%	c #77695B",
">%	c #E6CFAE",
",%	c #F5D4A9",
"'%	c #F8D2A5",
")%	c #F7D3AC",
"!%	c #EECDAE",
"~%	c #877B5F",
"{%	c #13120A",
"]%	c #332F35",
"^%	c #9F9B96",
"/%	c #3A322E",
"(%	c #D0BAA3",
"_%	c #F3D4AF",
":%	c #F8D6AA",
"<%	c #F5D2A8",
"[%	c #F6D3A9",
"}%	c #F6D5AA",
"|%	c #F3D7AD",
"1%	c #E5CBA5",
"2%	c #7C6958",
"3%	c #5C4F4E",
"4%	c #9A8471",
"5%	c #F9D2A7",
"6%	c #FBD3A1",
"7%	c #F2D5AC",
"8%	c #DBC4AA",
"9%	c #52473D",
"0%	c #0D0D0D",
"a%	c #595858",
"b%	c #999691",
"c%	c #ABA8A2",
"d%	c #5E5550",
"e%	c #C6AD97",
"f%	c #F7D4AE",
"g%	c #FBD3A6",
"h%	c #F9D3AA",
"i%	c #F7D1AC",
"j%	c #F8D3AE",
"k%	c #F8D4AF",
"l%	c #F6D3AF",
"m%	c #A98E78",
"n%	c #82736D",
"o%	c #756051",
"p%	c #F4D2AE",
"q%	c #F4D5AF",
"r%	c #AE9C83",
"s%	c #261C16",
"t%	c #2C2A28",
"u%	c #82817E",
"v%	c #9B9892",
"w%	c #B4B0A9",
"x%	c #C3C0B8",
"y%	c #C9C6C5",
"z%	c #89847F",
"A%	c #796C64",
"B%	c #B19C88",
"C%	c #E2C6AA",
"D%	c #F2D4AE",
"E%	c #F5D4AC",
"F%	c #F8D3AC",
"G%	c #FAD3AC",
"H%	c #BC9D84",
"I%	c #807169",
"J%	c #51433A",
"K%	c #E3CCB7",
"L%	c #776656",
"M%	c #110D0B",
"N%	c #52514F",
"O%	c #96948F",
"P%	c #9E9B95",
"Q%	c #A7A49E",
"R%	c #B3AFA9",
"S%	c #C0BCB5",
"T%	c #B6B5C0",
"U%	c #C6C2BB",
"V%	c #B4B1AA",
"W%	c #939089",
"X%	c #6B645E",
"Y%	c #7A6E5D",
"Z%	c #A9987D",
"`%	c #D8C1A1",
" &	c #F1D5B1",
".&	c #F6D4AE",
"+&	c #B99E86",
"@&	c #766B65",
"#&	c #26201E",
"$&	c #413530",
"%&	c #302826",
"&&	c #7C7A77",
"*&	c #A29F99",
"=&	c #ADAAA3",
"-&	c #D1CDC5",
";&	c #D0CCC6",
">&	c #9396B8",
",&	c #C2C0C4",
"'&	c #B9B8C1",
")&	c #C7C4C3",
"!&	c #A19E98",
"~&	c #8A8681",
"{&	c #665E57",
"]&	c #68584D",
"^&	c #9F8674",
"/&	c #A79384",
"(&	c #3F3C3A",
"_&	c #0D0E12",
":&	c #4D4847",
"<&	c #94908C",
"[&	c #BEBAB3",
"}&	c #B8B7C0",
"|&	c #9C9EBA",
"1&	c #7E83AF",
"2&	c #7B80AB",
"3&	c #767BA4",
"4&	c #72779F",
"5&	c #6E7298",
"6&	c #6A6E93",
"7&	c #666A8D",
"8&	c #5E6181",
"9&	c #48485F",
"0&	c #312F3D",
"a&	c #1E1D26",
"b&	c #4E5168",
"c&	c #5F6283",
"d&	c #636689",
"e&	c #696D92",
"f&	c #70749B",
"g&	c #8085B2",
"h&	c #8C90B6",
"i&	c #ACA9A2",
"j&	c #A5A29C",
"k&	c #9F9C97",
"                                                                ",
"      . + @ # # # # # # # # # # # # # # # # # # # # @ + .     $ ",
"    % & * =     - ; > > , ' ) ! ~ { ] ^ / ( _ : >   = * & <     ",
"  [ } |       > 1 2 3 4 5 6 7 8 9 0 a b c d e f g h i > | } [   ",
"  j k       > : l m n o p q r s t u v w x y z A B C D E : k j   ",
"  F G   $ H I J K L M N O P Q R S T U V W X Y Z `  ...+.E @.F   ",
"  #._   : $.%.&.*.=.-.;.>.,.'.).!.~.{.].^./.(._.:.<.[.}.|.1.2.  ",
"  #._   : 3.4.5.6.7.8.9.0.a.b.c.d.e.f.g.h.i.j.k.l.m.n.o.p.q.2.  ",
"  #._   : |.r.s.t.u.v.w.x.y.z.A.B.C.D.E.F.G.H.I.J.K.L.M.N.O.2.  ",
"  #._   : P.Q.R.S.T.U.V.W.X.Y.Z.`. +.+++@+#+$+%+&+*+=+-+;+O.2.  ",
"  #._   >+,+'+)+!+~+{+]+^+/+(+_+:+<+[+}+|+1+2+3+4+5+6+7+8+9+2.  ",
"  #._ > : 0+a+b+c+d+e+f+g+h+i+j+k+l+m+n+o+p+q+r+s+t+u+v+w+x+2.  ",
"  #._ > y+z+A+B+C+D+E+F+G+H+I+J+K+L+M+N+O+P+Q+R+S+T+U+V+W+x+2.  ",
"  #._ > X+7 Y+Z+`+ @.@+@@@#@$@%@&@*@=@-@;@>@,@'@)@!@~@{@o.]@^@> ",
"  #._ : /@(@_@:@<@[@}@|@1@2@3@4@5@6@7@8@9@0@a@b@c@d@e@f@g@h@i@> ",
"  #.j@k@l@m@n@o@p@q@r@s@t@u@v@w@x@y@z@A@B@C@D@E@F@G@H@I@J@K@i@> ",
"  #.L@M@N@O@P@Q@R@S@T@U@V@W@X@Y@Z@`@ #.#+#@###$#%#&#*#=#-#;#2.  ",
"  2.1.>#,#'#)#!#~#{#]#^#/#(#_#:#<#[#}#|#1#2#3#4#5#6#7#8#9#O.2.  ",
"  2.1.0#a#b#c#d#e#f#g#h#i#j#k#l#m#n#o#p#q#r#s#t#u#v#w#7+;+x#2.  ",
"  #.y#|.z#A#B#C#D#E#F#G#H#I#J#K#L#M#N#O#P#Q#R#S#T#U#V#W#0#1.#.  ",
"  #.X#Y#Z#`# $.$+$@$#$$$%$&$*$=$-$;$>$,$'$)$!$~${$]$^$/$|.y##.  ",
"  #.X#: ($_$:$<$[$}$|$1$2$3$4$5$6$7$8$9$0$a$b$c$d$e$f$g$P.y##.  ",
"  #._ : h$-#i$j$k$l$m$n$o$p$q$r$s$t$u$v$w$x$y$z$A$B$C$D$f X##.  ",
"  #._ : f E$F$G$H$I$J$K$L$M$N$O$P$Q$R$S$T$U$V$W$X$Y$Z$D$D X##.  ",
"  #._ > : `$ %.%+%@%#%$%%%&%*%=%-%;%>%,%'%)%!%~%{%]%^%g$D y##.  ",
"  #._   : f /%(%_%:%<%[%}%|%1%2%3%4%5%6%7%8%9%0%a%b%c%D$D y##.  ",
"  F G   > f d%e%f%g%h%i%j%k%l%m%n%o%p%q%r%s%t%u%v%V#w%x%4 y%F   ",
"  j k   > 4 z%A%B%C%D%c$E%F%G%H%I%J%K%L%M%N%O%P%Q%R%S%|.: T%j   ",
"  [ } | > E U%V%W%X%Y%Z%`% &.&+&@&#&$&%&&&v%*&=&J@}.|.-&;&>&,&  ",
"    % & '&)&|.g$7+=#!&~&{&]&^&/&(&_&:&<&P%Q%7+[&0#D )&}&& %     ",
"      . |&F 1&2&3&4&5&6&7&8&9&0&a&b&c&d&e&f&3&2&1&g&h&|&.       ",
"            > : f |.p.9#/$w%i&j&k&!&Q%7+[&0#f : >               "};
