/* XPM */
static char * zooTriggered_1_xpm[] = {
"32 32 373 2",
"  	c #D3CFC7",
". 	c #D2CFC6",
"+ 	c #D1CEC6",
"@ 	c #CFCDC4",
"# 	c #CDCBC1",
"$ 	c #C9C8BE",
"% 	c #C5C6BA",
"& 	c #C1C3B7",
"* 	c #BDC0B3",
"= 	c #B9BEB0",
"- 	c #B7BCAE",
"; 	c #B5BBAC",
"> 	c #B4BAAC",
", 	c #B4BAAB",
"' 	c #B3B9AA",
") 	c #D1CEC5",
"! 	c #CECCC3",
"~ 	c #CAC9BF",
"{ 	c #C4C5BA",
"] 	c #BCC0B3",
"^ 	c #AEB6A6",
"/ 	c #A7B1A0",
"( 	c #A2AE9C",
"_ 	c #9EAB98",
": 	c #9CAA96",
"< 	c #9AA994",
"[ 	c #9AA894",
"} 	c #99A893",
"| 	c #C9C9BF",
"1 	c #B6BBAD",
"2 	c #A9B3A2",
"3 	c #9DAB97",
"4 	c #879A83",
"5 	c #4B6849",
"6 	c #284928",
"7 	c #1B3B1B",
"8 	c #153515",
"9 	c #0F2F0F",
"0 	c #B2B9AA",
"a 	c #A1AD9A",
"b 	c #587356",
"c 	c #082408",
"d 	c #001A00",
"e 	c #002D00",
"f 	c #003C00",
"g 	c #004300",
"h 	c #004700",
"i 	c #004C00",
"j 	c #004B00",
"k 	c #004900",
"l 	c #004500",
"m 	c #003D00",
"n 	c #002E00",
"o 	c #001B00",
"p 	c #082508",
"q 	c #325231",
"r 	c #002B00",
"s 	c #005500",
"t 	c #006100",
"u 	c #006200",
"v 	c #006300",
"w 	c #006400",
"x 	c #006500",
"y 	c #005800",
"z 	c #002C00",
"A 	c #587456",
"B 	c #086908",
"C 	c #408C40",
"D 	c #6BA66B",
"E 	c #7BAF7B",
"F 	c #7BB07B",
"G 	c #69A569",
"H 	c #499249",
"I 	c #328532",
"J 	c #247D24",
"K 	c #1C781C",
"L 	c #127312",
"M 	c #056B05",
"N 	c #016A01",
"O 	c #006800",
"P 	c #006900",
"Q 	c #006A00",
"R 	c #082708",
"S 	c #005B00",
"T 	c #006700",
"U 	c #207B20",
"V 	c #78AF78",
"W 	c #B9D6B9",
"X 	c #C5DDC5",
"Y 	c #ACCEAC",
"Z 	c #79B179",
"` 	c #469346",
" .	c #237E23",
"..	c #127512",
"+.	c #0B710B",
"@.	c #077007",
"#.	c #066F06",
"$.	c #046E04",
"%.	c #046F04",
"&.	c #006D00",
"*.	c #006E00",
"=.	c #006F00",
"-.	c #082908",
";.	c #001E00",
">.	c #006B00",
",.	c #78B178",
"'.	c #A7CCA7",
").	c #BCD8BC",
"!.	c #9DC79D",
"~.	c #5AA15A",
"{.	c #278427",
"].	c #117911",
"^.	c #087408",
"/.	c #057205",
"(.	c #047304",
"_.	c #037303",
":.	c #027402",
"<.	c #007300",
"[.	c #007400",
"}.	c #007500",
"|.	c #002000",
"1.	c #A8B2A0",
"2.	c #4B6B49",
"3.	c #003500",
"4.	c #AACFAA",
"5.	c #B8D7B8",
"6.	c #9FCA9F",
"7.	c #539F53",
"8.	c #157E15",
"9.	c #067606",
"0.	c #037603",
"a.	c #027502",
"b.	c #027602",
"c.	c #027702",
"d.	c #027802",
"e.	c #017901",
"f.	c #007900",
"g.	c #007A00",
"h.	c #007B00",
"i.	c #003B00",
"j.	c #285028",
"k.	c #3A933A",
"l.	c #C0DCC0",
"m.	c #B3D6B3",
"n.	c #61A961",
"o.	c #007600",
"p.	c #007700",
"q.	c #007C00",
"r.	c #007D00",
"s.	c #007F00",
"t.	c #007E00",
"u.	c #008000",
"v.	c #008100",
"w.	c #005200",
"x.	c #285128",
"y.	c #9FAC99",
"z.	c #1B441B",
"A.	c #6FB26F",
"B.	c #C6E1C6",
"C.	c #82BD82",
"D.	c #208B20",
"E.	c #008200",
"F.	c #008400",
"G.	c #008500",
"H.	c #008600",
"I.	c #008700",
"J.	c #1B471B",
"K.	c #153F15",
"L.	c #005C00",
"M.	c #8CC48C",
"N.	c #A5D1A5",
"O.	c #47A147",
"P.	c #088208",
"Q.	c #008300",
"R.	c #008800",
"S.	c #008900",
"T.	c #008A00",
"U.	c #008B00",
"V.	c #008C00",
"W.	c #008D00",
"X.	c #008E00",
"Y.	c #154315",
"Z.	c #0F3A0F",
"`.	c #006600",
" +	c #8DC68D",
".+	c #69B569",
"++	c #1F901F",
"@+	c #048504",
"#+	c #008F00",
"$+	c #009100",
"%+	c #009200",
"&+	c #009300",
"*+	c #009400",
"=+	c #0F3F0F",
"-+	c #0F3B0F",
";+	c #74BC74",
">+	c #3EA33E",
",+	c #0F8E0F",
"'+	c #028802",
")+	c #009000",
"!+	c #009500",
"~+	c #009600",
"{+	c #009700",
"]+	c #009800",
"^+	c #009900",
"/+	c #009A00",
"(+	c #0F400F",
"_+	c #0F3D0F",
":+	c #5EB45E",
"<+	c #269B26",
"[+	c #098E09",
"}+	c #028D02",
"|+	c #009B00",
"1+	c #009D00",
"2+	c #009E00",
"3+	c #00A000",
"4+	c #00A100",
"5+	c #0F420F",
"6+	c #51B151",
"7+	c #199919",
"8+	c #079207",
"9+	c #029102",
"0+	c #009C00",
"a+	c #009F00",
"b+	c #00A200",
"c+	c #00A300",
"d+	c #00A400",
"e+	c #00A600",
"f+	c #00A700",
"g+	c #0F440F",
"h+	c #007200",
"i+	c #43AD43",
"j+	c #159A15",
"k+	c #059505",
"l+	c #029502",
"m+	c #00A900",
"n+	c #00AA00",
"o+	c #00AB00",
"p+	c #00AC00",
"q+	c #0F450F",
"r+	c #3BAC3B",
"s+	c #139D13",
"t+	c #049804",
"u+	c #029A02",
"v+	c #00A800",
"w+	c #00AD00",
"x+	c #00AF00",
"y+	c #00B000",
"z+	c #00B100",
"A+	c #00B200",
"B+	c #0F470F",
"C+	c #007800",
"D+	c #34AC34",
"E+	c #0E9F0E",
"F+	c #049D04",
"G+	c #029E02",
"H+	c #00A500",
"I+	c #00AE00",
"J+	c #00B300",
"K+	c #00B400",
"L+	c #00B500",
"M+	c #00B700",
"N+	c #00B800",
"O+	c #0F490F",
"P+	c #0F430F",
"Q+	c #2EAE2E",
"R+	c #0AA20A",
"S+	c #04A004",
"T+	c #02A202",
"U+	c #00B600",
"V+	c #00BA00",
"W+	c #00BC00",
"X+	c #00BD00",
"Y+	c #00BE00",
"Z+	c #0F4B0F",
"`+	c #154B15",
" @	c #28AF28",
".@	c #0AA60A",
"+@	c #04A404",
"@@	c #02A602",
"#@	c #00C000",
"$@	c #00C100",
"%@	c #00C300",
"&@	c #00C400",
"*@	c #00C500",
"=@	c #155215",
"-@	c #1B521B",
";@	c #27B327",
">@	c #0AA90A",
",@	c #04A904",
"'@	c #01AA01",
")@	c #00B900",
"!@	c #00BF00",
"~@	c #00C700",
"{@	c #00C800",
"]@	c #00CA00",
"^@	c #00CB00",
"/@	c #1B591B",
"(@	c #285F28",
"_@	c #20B420",
":@	c #09AD09",
"<@	c #02AD02",
"[@	c #00C600",
"}@	c #00CC00",
"|@	c #00CE00",
"1@	c #00D000",
"2@	c #00D100",
"3@	c #286428",
"4@	c #4B7849",
"5@	c #08B008",
"6@	c #05B105",
"7@	c #00C200",
"8@	c #00CF00",
"9@	c #00D300",
"0@	c #00D500",
"a@	c #00D600",
"b@	c #00D700",
"c@	c #00D800",
"d@	c #4B7A49",
"e@	c #879C83",
"f@	c #003000",
"g@	c #04B404",
"h@	c #00BB00",
"i@	c #00D400",
"j@	c #00D900",
"k@	c #00DB00",
"l@	c #00DD00",
"m@	c #00DE00",
"n@	c #003E00",
"o@	c #879D83",
"p@	c #083E08",
"q@	c #01B701",
"r@	c #00DA00",
"s@	c #00E100",
"t@	c #00E400",
"u@	c #00E300",
"v@	c #00C900",
"w@	c #084A08",
"x@	c #588256",
"y@	c #005000",
"z@	c #00DF00",
"A@	c #00E700",
"B@	c #00E900",
"C@	c #00EA00",
"D@	c #588356",
"E@	c #326B31",
"F@	c #005300",
"G@	c #00CD00",
"H@	c #00E800",
"I@	c #00EB00",
"J@	c #00ED00",
"K@	c #00EF00",
"L@	c #327131",
"M@	c #084308",
"N@	c #003700",
"O@	c #006000",
"P@	c #004400",
"Q@	c #084E08",
"R@	c #588556",
"S@	c #4B7D49",
"T@	c #286828",
"U@	c #1B5E1B",
"V@	c #155A15",
"W@	c #0F540F",
"X@	c #0F550F",
"Y@	c #0F560F",
"Z@	c #0F570F",
"`@	c #0F580F",
" #	c #0F590F",
".#	c #155F15",
"+#	c #1B641B",
"@#	c #286D28",
"##	c #4B7E49",
"  . + @ # $ % & * = - ; > , , ' ' , , > ; - = * & % $ # @ + .   ",
". ) ! ~ { ] ; ^ / ( _ : < [ } } } } [ < : _ ( / ^ ; ] { ~ ! ) . ",
"+ ! | & 1 2 3 4 5 6 7 8 9 9 9 9 9 9 9 9 8 7 6 5 4 3 2 1 & | ! + ",
"@ ~ & 0 a b c d e f g h i j i i i i i i k l m n o p b a 0 & ~ @ ",
"# { 1 a q r s t t t t u u u v v v v v w v x w x w y z q a 1 { # ",
"$ ] 2 A r w w w B C D E F G H I J K L M N O P Q Q P P n A 2 ] $ ",
"% ; 3 R S T U V W X Y Z `  ...+.@.#.$.%.&.&.*.*.=.*.*.t -.3 ; % ",
"& ^ 4 ;.>.>.,.'.).!.~.{.].^./.(.(.(._.:.<.<.<.[.}.[.[.[.|.4 ^ & ",
"* 1.2.3.=.^.4.5.6.7.8.9.0.a.a.b.c.c.d.e.f.g.g.g.h.g.h.g.i.2.1.* ",
"= ( j.k <.k.l.m.n.o.o.p.f.f.g.g.q.q.q.r.s.t.u.v.u.u.u.v.w.x.( = ",
"- y.z.s p.A.B.C.D.h.q.q.r.t.s.u.v.v.E.F.F.G.H.H.I.I.I.I.t J.y.- ",
"; : K.L.h.M.N.O.P.s.u.v.Q.Q.F.G.H.R.R.S.T.U.V.W.W.W.X.W.>.Y.: ; ",
"> < Z.`.s. +.+++@+F.G.I.I.R.T.U.U.W.X.#+$+$+%+&+*+*+*+*+o.=+< > ",
", [ -+P Q.;+>+,+'+S.T.U.V.X.#+)+$+&+*+!+~+{+]+^+/+/+/+/+q.(+[ , ",
"' [ _+>.I.:+<+[+}+W.#+$+$+&+*+!+{+]+^+|+1+2+2+3+3+3+4+3+u.5+[ ' ",
"' } _+*.U.6+7+8+9+$+&+*+{+]+^+|+0+1+a+4+b+c+d+e+e+f+e+e+G.g+} ' ",
"' } =+h+#+i+j+k+l+~+{+^+|+0+2+a+4+c+d+e+f+m+n+o+p+p+p+p+T.q+} ' ",
"' [ (+}.&+r+s+t+u+/+0+1+a+4+c+d+e+v+m+o+w+x+y+z+A+A+z+z+X.B+[ ' ",
", [ 5+C+{+D+E+F+G+2+3+b+c+H+v+m+o+w+I+z+J+K+L+M+M+N+M+M+&+O+[ , ",
"> < P+h.|+Q+R+S+T+c+H+f+m+o+w+x+z+A+K+U+N+V+W+X+Y+Y+Y+Y+]+Z+< > ",
"; : `+p.a+ @.@+@@@f+n+p+I+y+A+K+U+N+V+W+Y+#@$@%@&@&@*@&@*+=@: ; ",
"- y.-@[.c+;@>@,@'@w+I+z+J+L+M+)@W+X+!@%@*@~@{@]@]@]@^@]@%+/@y.- ",
"= ( (@Q v+_@:@<@x+z+K+U+)@V+W+!@$@%@[@{@]@}@|@1@2@2@2@2@H.3@( = ",
"* 1.4@w.p+5@6@y+J+U+)@V+Y+#@7@*@~@]@}@8@1@9@0@a@b@b@c@c@O d@1.* ",
"& ^ e@f@y+z+g@L+N+h@X+#@7@*@~@]@}@8@2@i@a@j@k@k@l@m@m@m@n@o@^ & ",
"% ; 3 p@2+L+q@)@W+!@7@&@~@]@}@8@2@i@b@r@k@m@s@s@t@u@t@v@w@3 ; % ",
"$ ] 2 x@y@N+h@X+#@%@[@{@^@8@1@i@b@j@k@z@s@t@A@A@B@C@C@T D@2 ] $ ",
"# { 1 a E@F@m+$@%@~@v@G@1@9@0@c@k@l@s@t@A@H@I@J@K@9@P L@a 1 { # ",
"@ ~ & 0 a x@M@N@O@E.*+2+n+o+I+x+A+K+M+V+A+o+^+}.P@Q@R@a 0 & ~ @ ",
"+ ! | & 1 2 3 o@S@T@U@V@W@X@Y@Y@Z@Z@`@ #.#+#@###o@3 2 1 & | ! + ",
". ) ! ~ { ] ; ^ / ( _ : < [ } } } } [ < : _ ( / ^ ; ] { ~ ! ) . ",
"  . + @ # $ % & * = - ; > , , ' ' , , > ; - = * & % $ # @ + .   "};

