/* XPM */
static char *zooWeightSave[] = {
/* columns rows colors chars-per-pixel */
"32 32 256 2",
"   c black",
".  c #000002",
"X  c #070708",
"o  c #000A0C",
"O  c #08080A",
"+  c #0A0A11",
"@  c #041305",
"#  c #041719",
"$  c #100C13",
"%  c #191909",
"&  c #1B1818",
"*  c #16172E",
"=  c #1A241A",
"-  c #082831",
";  c #142528",
":  c #11283B",
">  c #14363D",
",  c #25251C",
"<  c #262827",
"1  c #222C32",
"2  c #23382F",
"3  c #21333E",
"4  c #283435",
"5  c #2D3036",
"6  c #2F3934",
"7  c #2B3B39",
"8  c #30312F",
"9  c #343534",
"0  c #323B3B",
"q  c #163243",
"w  c #2D3C43",
"e  c #363F40",
"r  c #32453A",
"t  c #0D4556",
"y  c #154A65",
"u  c #176074",
"i  c #2E4946",
"p  c #2B4257",
"a  c #2C505B",
"s  c #3D4644",
"d  c #3B4349",
"f  c #3F4F46",
"g  c #3F4A4A",
"h  c #3F4D4D",
"j  c #374B55",
"k  c #3F5746",
"l  c #39545B",
"z  c #3C535F",
"x  c #2D6576",
"c  c #473F3D",
"v  c #424432",
"b  c #615E3E",
"n  c #454542",
"m  c #484B4E",
"M  c #424B51",
"N  c #414D58",
"B  c #4C4E51",
"V  c #4B534F",
"C  c #475055",
"Z  c #41525B",
"A  c #475952",
"S  c #4C5255",
"D  c #4D575B",
"F  c #4E5E5D",
"G  c #534E52",
"H  c #525555",
"J  c #525358",
"K  c #53545A",
"L  c #50575E",
"P  c #54555B",
"I  c #55565C",
"U  c #515E5A",
"Y  c #595554",
"T  c #59545E",
"R  c #595A5E",
"E  c #5E5E5A",
"W  c #5F5D5D",
"Q  c #425D68",
"!  c #495963",
"~  c #545C63",
"^  c #5F5F60",
"/  c #5D5F64",
"(  c #48626E",
")  c #496972",
"_  c #506062",
"`  c #556564",
"'  c #576A69",
"]  c #566E6B",
"[  c #5A6061",
"{  c #5A6266",
"}  c #596765",
"|  c #5F6065",
" . c #5E6661",
".. c #5D6767",
"X. c #596D68",
"o. c #5C6A6A",
"O. c #5E726D",
"+. c #5E7478",
"@. c #636858",
"#. c #77735B",
"$. c #616364",
"%. c #656667",
"&. c #616268",
"*. c #63646A",
"=. c #656669",
"-. c #666769",
";. c #67676B",
":. c #65666C",
">. c #66676E",
",. c #606C66",
"<. c #616A6D",
"1. c #686363",
"2. c #6A6B6D",
"3. c #6E6E6C",
"4. c #626C73",
"5. c #6A6A72",
"6. c #686C71",
"7. c #6A6D75",
"8. c #6D6E75",
"9. c #6E726F",
"0. c #647572",
"q. c #637876",
"w. c #647B79",
"e. c #6B7076",
"r. c #6A7772",
"t. c #6A7676",
"y. c #6D7373",
"u. c #6E7073",
"i. c #6F7074",
"p. c #6F7076",
"a. c #6E7377",
"s. c #6D767B",
"d. c #6C7C7C",
"f. c #726B70",
"g. c #727569",
"h. c #707176",
"j. c #727274",
"k. c #737474",
"l. c #737477",
"z. c #767572",
"x. c #777674",
"c. c #707179",
"v. c #75767E",
"b. c #747B7B",
"n. c #777F7E",
"m. c #787777",
"M. c #7C7876",
"N. c #78797C",
"B. c #357A90",
"V. c #767780",
"C. c #777881",
"Z. c #787981",
"A. c #7A7B84",
"S. c #797D80",
"D. c #7B7C86",
"F. c #7D7E81",
"G. c #7E7F81",
"H. c #7D7E87",
"J. c #7E7F88",
"K. c #7F8073",
"L. c #6A8889",
"P. c #6E9191",
"I. c #738584",
"U. c #768489",
"Y. c #71898A",
"T. c #7B8283",
"R. c #7F8487",
"E. c #7A8C88",
"W. c #7B8D91",
"Q. c #7C9494",
"!. c #7C9B9A",
"~. c #7FA4A3",
"^. c #858767",
"/. c #84817F",
"(. c #858F78",
"). c #838486",
"_. c #848486",
"`. c #81828B",
"'. c #82838C",
"]. c #81878A",
"[. c #878789",
"{. c #84858F",
"}. c #838989",
"|. c #88898A",
" X c #858690",
".X c #868791",
"XX c #818C91",
"oX c #898A94",
"OX c #8A8B95",
"+X c #888F90",
"@X c #8B8C96",
"#X c #8D8E90",
"$X c #8C8D97",
"%X c #8E8F99",
"&X c #839B97",
"*X c #849898",
"=X c #849B9B",
"-X c #879999",
";X c #8F9796",
":X c #8F909A",
">X c #8B9897",
",X c #899899",
"<X c #8D9999",
"1X c #94928E",
"2X c #929294",
"3X c #90919C",
"4X c #91929C",
"5X c #92939D",
"6X c #93949E",
"7X c #979798",
"8X c #96979F",
"9X c #919A9A",
"0X c #9A9996",
"qX c #989899",
"wX c #9A9B9B",
"eX c #9E9E9F",
"rX c #8F9BA1",
"tX c #9495A0",
"yX c #9596A1",
"uX c #9697A1",
"iX c #9697A2",
"pX c #9798A3",
"aX c #9899A4",
"sX c #9A9BA5",
"dX c #9B9CA7",
"fX c #9E9EA1",
"gX c #8BA6A1",
"hX c #88A4A4",
"jX c #8FA9A3",
"kX c #8BACAC",
"lX c #8DB4B4",
"zX c #94A3A2",
"xX c #95A4AA",
"cX c #92AEAD",
"vX c #9FA0A1",
"bX c #9AACAC",
"nX c #96B0AB",
"mX c #98B6B4",
"MX c #9EBBBA",
"NX c #A9A689",
"BX c #A4A5AB",
"VX c #AEADB2",
"CX c #A0B4B4",
"ZX c #B2AFA8",
"AX c #BAB6B0",
"SX c #B9B3BA",
"DX c #BEBBB4",
"FX c #BDBBBA",
"GX c #ABC1B9",
"HX c #AFCAC9",
"JX c #C8C4BE",
"KX c #CCC9C2",
"LX c #C1DADA",
"PX c #D2CEC6",
"IX c #D4D0C8",
"UX c #C9E1E1",
/* pixels */
"IXIXIXIXIXIXIXIXPXPXIXIXIXIXIXIXIXIXIXIXIXIXIXIXIXIXIXIXIXIXIXIX",
"IXIXIXAXx.k.j.j.k.k.j.j.j.j.j.j.j.j.j.j.j.j.j.j.j.j.j.m.AXIXIXIX",
"IXIX1X2.eXvXvXvXvXvXfXfXvXvXvXvXvXvXvXvXvXvXvXfXvXvXvXeX;.1XIXIX",
"IXZX%.eXeXeXeXeXeXeXeXeXfXfXeXeXeXeXeXeXeXeXeXeXeXeXeXeXvX%.ZXIX",
"PX3.wXwXwXwXwXwXwXwXwXwXwXwXwXwXwXwXwXwXwXwXwXwXwXwXwXwXwXwX3.PX",
"IX%.7X7X7X7X7X7XqXqXqXqX7XqXqXqX7XqXqXqX7X7XqXwX7X7X7XwX0XqX%.PX",
"IX=.2X2X2X2X2X2X2X2X2X2X2X2X2X2X2X2X2X2X2X2X2X2X2X2X2X2X2X2X=.IX",
"IX=.#X#X#X#X#X+XXX].T.+X#X#X#X#X|.2X#X#X|.#X#X#X#X|.#X#X#X#X=.IX",
"IX=.|.|.|.|.b.I.9Xm.m.t.U._.|.|.|.|.|._.|.|.|.|.|.|.|.|.|.|.=.IX",
"IX=._._._.k.y.9Xy.N.9X9XT.s.]._._._._.)._._._.)._._._._._._.=.IX",
"IX%.T.G.8.T.@Xm.2.9X;X<X9XT.{ S.G.G.G.G.G.G.G.G.G.G.G.G.G.G.=.IX",
"PX2.E n T.n.}.v ].<X-X-X-X9XS.o.N.N.N.N.N.v.N.N.N.N.N.N.N.N.=.IX",
"JXn z.9.n.t.o.V ,X*X*X-X*X-X;X~ j.l.l.l.k.l.l.k.k.c.x.j.l.l.=.IX",
"DX, E b.<.0.M ;.,X*X*X,X,X,X<X! <.8.p.p.8.y.p.8.4.<.6.y.f.a.>.IX",
"DX^ 8 ^ e ! # o.Y.Y.w.4 7 g U 1 j P I I P P p Z h 7 w ! L &.>.IX",
"JXB B / w ` # d.Q.Q.X.n 9 < & $ : l ! R ! w ~ ` ' o.M ..m R / IX",
"PX/ K { 4 D ; W.!.*X` R M.1.Y Y G d j Q - S F ] +.3 d 0 o < &.PX",
"PX2.R s @ e ; Q.hXhXY.#   @ = & c c /. .D U.} d.1 rX<.i ] O.$.KX",
"IXp./ H   9 ; =XkXkXkXhXY.6   > q : T & I.h r.2 d.+.l hXbXcXS DX",
"IXv.>.K W 8 < X.mXlXlXMX=X  * m m M t < I.6 U 0 W.) MXQ.L.cX! wX",
"IXZ.c.>.I ^   o jXMXMXzX5 X N =.5.$.a S q.A V o.Y.cXgX= v A r /.",
"IXJ.Z.V.8./ d O # A f   q N ;.v.Z.c.z w.] ~ M XXL.mX2 #.NX(.@ 0X",
"IX'.G.J.A.c...B * + * j ~ 5.V.J.J.Z.! +.] ! r -XP.cX< b ^.@.  /.",
"IX.X'.'.'.J.A.8.| ~ | 5.v.J.'.'.'.J.<.j ` o.S xXL.HXk v K.E SXf.",
"IXOX.X.X.X.X.X'.J.V.D.'..X.X.X.X.X.Xv.z 7.E.' HX!.LXMX6 g.V 2.m ",
"IX%XOXoXOXOXOXoXoXoXoXoXoXoXoXoXoXoX'.7.Q ( w HXMXHXUXcX% | | 0X",
"IXtX%X%X%X%X%X%X%X%X%X%X%X%X%X%X%X%X%X'.7.Q y p }.zXGXi +.:.k.ZX",
"IXBX5X5X5X5X5X6X5X5X5X6X5X5X5X5X5X5X5X:X.XV.6.( x B.u x e.H.vXKX",
"PXKXtXiXtXiXtXiXtXiXtXiXiXtXiXtXtXtXtXtXtX:X.XA.a.5.5.V. X:XJXIX",
"IXIXFXaXaXaXaXaXaXaXaXaXaXaXaXaXaXaXaXaXaXpXiXtX%X@X$X:XpXFXIXIX",
"IXIXIXKXVXBXdXdXdXdXdXdXdXdXdXdXdXdXdXdXdXdXdXdXdXdXBXVXKXIXIXIX",
"IXIXIXIXIXIXIXIXIXIXIXIXIXIXIXIXIXIXIXIXIXIXIXIXIXIXIXIXIXIXIXIX"
};
