/* XPM */
static char *zooXferAnim[] = {
/* columns rows colors chars-per-pixel */
"32 32 186 2",
"   c #171716",
".  c #1C1B1A",
"X  c #23221E",
"o  c #29251D",
"O  c #382D1B",
"+  c #222224",
"@  c #25262A",
"#  c #2A2824",
"$  c #2A2A2D",
"%  c #2D2E31",
"&  c #2E313A",
"*  c #302D26",
"=  c #34322C",
"-  c #323234",
";  c #35363A",
":  c #3B3A33",
">  c #3A3B3F",
",  c #343741",
"<  c #353841",
"1  c #3E3E41",
"2  c #423624",
"3  c #40392D",
"4  c #4B3D29",
"5  c #423D34",
"6  c #444037",
"7  c #43413A",
"8  c #5B503D",
"9  c #635032",
"0  c #69583D",
"q  c #444542",
"w  c #464648",
"e  c #4D4B43",
"r  c #494A4D",
"t  c #434653",
"y  c #494B54",
"u  c #4D5055",
"i  c #4C505E",
"p  c #59554B",
"a  c #515155",
"s  c #51545D",
"d  c #525662",
"f  c #555A64",
"g  c #5F5F65",
"h  c #595D6A",
"j  c #5D606B",
"k  c #5D6273",
"l  c #645947",
"z  c #6D5E45",
"x  c #645F54",
"c  c #676458",
"v  c #766749",
"b  c #7D6A49",
"n  c #756950",
"m  c #78705A",
"M  c #686A62",
"N  c #636771",
"B  c #777161",
"V  c #7B7D73",
"C  c #7B7B7C",
"Z  c #5E6988",
"A  c #636B83",
"S  c #686F85",
"D  c #66708E",
"F  c #6E748C",
"G  c #697595",
"H  c #6E7A9B",
"J  c #707589",
"K  c #747887",
"L  c #7B7B80",
"P  c #737D9B",
"I  c #7D8087",
"U  c #7A848D",
"Y  c #7682A6",
"T  c #7381A9",
"R  c #7B85A4",
"E  c #7D89AC",
"W  c #7B89B1",
"Q  c #A77C3A",
"!  c #88704A",
"~  c #9D7B45",
"^  c #9A7D4D",
"/  c #9A7E51",
"(  c #A27E46",
")  c #807F82",
"_  c #97825C",
"`  c #9D8356",
"'  c #9E865B",
"]  c #86847B",
"[  c #8B897B",
"{  c #938264",
"}  c #9D8E72",
"|  c #9C917B",
" . c #AE8445",
".. c #A38654",
"X. c #B48845",
"o. c #BB8E49",
"O. c #B58E52",
"+. c #BD914E",
"@. c #B49156",
"#. c #B8965D",
"$. c #BD9C66",
"%. c #B39B73",
"&. c #BFA270",
"*. c #C7974D",
"=. c #C69751",
"-. c #C59A56",
";. c #CD9F56",
":. c #D09948",
">. c #D9A14C",
",. c #D5A254",
"<. c #DAA657",
"1. c #C0A97E",
"2. c #E9AB4F",
"3. c #E3AB57",
"4. c #EAAE54",
"5. c #ECB056",
"6. c #EBB15A",
"7. c #F0B155",
"8. c #F1B75F",
"9. c #EDB663",
"0. c #ECB96A",
"q. c #E4BC7D",
"w. c #E8BA73",
"e. c #848489",
"r. c #8A8B81",
"t. c #8A898D",
"y. c #818592",
"u. c #8B8B92",
"i. c #8F989F",
"p. c #9D9D8D",
"a. c #97969D",
"s. c #98979D",
"d. c #858CA3",
"f. c #818EB4",
"g. c #8D97A2",
"h. c #8D93A9",
"j. c #8392BC",
"k. c #959DAC",
"l. c #9B9CA4",
"z. c #96A0A7",
"x. c #98A5B2",
"c. c #A0A091",
"v. c #A6A89E",
"b. c #ABA594",
"n. c #B2A88F",
"m. c #A6A4A8",
"M. c #A9A7AC",
"N. c #A9ADA0",
"B. c #A5AFB8",
"V. c #A6B0B9",
"C. c #ABB3BC",
"Z. c #B8BAAD",
"A. c #B6B6B6",
"S. c #B3B6BA",
"D. c #B5B9BC",
"F. c #BDBFB2",
"G. c #BBBBBB",
"H. c #8695C1",
"J. c #8897C1",
"K. c #8999C4",
"L. c #8E9DC9",
"P. c #909FC8",
"I. c #93A0C7",
"U. c #95A2C8",
"Y. c #98A4C7",
"T. c #9DA8C9",
"R. c #A3ACC8",
"E. c #AAB2C9",
"W. c #B1B6CA",
"Q. c #B1B8C0",
"!. c #B6BAC9",
"~. c #B9BDC1",
"^. c #BBBDC8",
"/. c #BBC0C5",
"(. c #E0BE85",
"). c #DBC092",
"_. c #D9C299",
"`. c #C7CABC",
"'. c #D5C4A4",
"]. c #D1C7AF",
"[. c #E1C18B",
"{. c #C2C2C3",
"}. c #C3C6C9",
"|. c #C5C9CC",
" X c #CDCDCD",
".X c #D3D3D3",
/* pixels */
".X.X.X.X.X.X.X.X.X.X.X.X.X.X.X.X.X.X.X.X.X.X.X.X.X.X.X.X.X.X.X.X",
".X.X.X.X.X.X.X.X.X.X.X.X.X.X.X.X.X.X.X.X.X.X.X.X.X.X.X.X.X.X.X.X",
".X.X.X.X.X}.Q.C.V.V.V.C.E.V.V.V.V.V.V.V.V.V.V.B.C.D.}..X.X.X.X.X",
".X.X.XQ.x.C./.}.|.|.|. X|.|.|.|.|.|.|.|.}.}.}.}.}.~.V.x.D..X.X.X",
".X.X.Xx..X.X.X.X.X.X.X.X.X.X.X.X.X.X.X.X.X X.X X X X X Xx..X.X.X",
".X.X/.C..X.X.X.X.X.X.X.X.X.X.X.X.X.Xm * [ .X X X X X X XV.|..X.X",
".X.XQ./..X.X.X.X.X.X.X.X.X.X.X.X.Xc 9 X.4 : 6 ]  X X X}./.Q..X.X",
".X.XC.}..X.XV q = = X p e 6 o # X z *.5.>.Q ~ 4 * p.v.|./.V..X.X",
".X.XE.|..Xv.X ] | } &.n ! ^ @.@.o.*.5.5.4.5.5.4. .O o = V B..X.X",
".X.XB.|..Xq ] ]._.).(.q.w.0.6.6.6.6.5.5.5.5.5.5.7.2.:.` c i..X.X",
".X.XV.|..X+ b.'._.[.q.q.0.0.8.8.6.6.5.5.5.5.5.5.3.,.@.' m U .X.X",
".X.XB.}..XV e n.| &.%.&.$.#...@.3.5.5.5.5.4.<.-...8 O = r z..X.X",
".X.XV.|..X X:   # * . 7 : # = { ,.5.5.<.-.^ v n * 6 V r./.B..X.X",
".X.XB.|. X.X.X X.X X X X.X X X2 o.;..._ l X X # r.{.{.G.~.B..X.X",
".X.XV.}..X.X X.X X X.X X X X X0 ` 8 . = : c.Z.F.{.{.G.{.~.B..X.X",
".X.XV.}. X X X X X X X X X X X# = e c.r.`.{.{.{.G.{.`.~.G.B..X.X",
".X.XV.}. X X X X X X X) $ N |.M [  X{.{.{.{.{.{.G.G.G.G.{.B..X.X",
".X.XB.}. X X X X) 1 , , G t g |.|.{. X{.{.{.{.{.{.G.G.G.G.B..X.X",
".X.XV.}..Xm.a.% < D Z W K.P d @ @ + > r a . - - w ) G.G.~.B..X.X",
".X.XR.) & + @ D H.K.H.H.K.K.P P P P S k k h.y.u.C + M.G.D.B..X.X",
".X.Xg.f A P H.H.H.H.H.H.H.H.H.K.K.L.P.Y.R.R.E.!.^.C w G.D.B..X.X",
".X.XU N F P W H.H.H.H.H.K.H.H.j.L.P.U.Y.T.R.E.W.!.a.+ A.D.B..X.X",
".X.Xk.a - $ t F d.f.H.K.K.K.H.j.P J R d.h.d.k.y.l.w C A.~.B..X.X",
".X.XB.{.t.L 1 @ k h D P f.K.K.W K $ @ ; < . % @   1 A.A.D.B..X.X",
".X.XB.^.}.|.{.u.$ + . s K J W H & t.G.A.A.A.A.A.A.A.A.G.D.B..X.X",
".X.XQ.~.{.{.{.{.G.{.l.; - . y J i a A.A.A.A.A.A.A.A.A.A.D.C..X.X",
".X.X}.C.{.{.{.`.{.G.{.G.G.l.w % $ u.A.A.A.A.A.A.A.A.A.A.V.}..X.X",
".X.X.Xx.{.{.{.G.G.G.G.G.A.A.A.A.A.G.A.A.A.A.A.A.A.A.A.A.x..X.X.X",
".X.X.XQ.x.C.D.~.~.~.A.Q.~.A.A.D.A.D.D.S.D.S.S.S.Q.S.V.x.Q..X.X.X",
".X.X.X.X.X}.C.V.B.B.B.B.B.B.B.B.B.B.B.B.B.B.B.B.V.S.}..X.X.X.X.X",
".X.X.X.X.X.X.X.X.X.X.X.X.X.X.X.X.X.X.X.X.X.X.X.X.X.X.X.X.X.X.X.X",
".X.X.X.X.X.X.X.X.X.X.X.X.X.X.X.X.X.X.X.X.X.X.X.X.X.X.X.X.X.X.X.X"
};
