/* XPM */
static char *zooXferAnimQuickLoader[] = {
/* columns rows colors chars-per-pixel */
"32 32 186 2",
"   c #171716",
".  c #1D1B18",
"X  c #23221E",
"o  c #29251D",
"O  c #382D1B",
"+  c #2A2824",
"@  c #302D26",
"#  c #34322C",
"$  c #3B3A33",
"%  c #423624",
"&  c #40392D",
"*  c #4B3D29",
"=  c #423D34",
"-  c #444037",
";  c #43413A",
":  c #5B503D",
">  c #635032",
",  c #69583D",
"<  c #444541",
"1  c #4D4B43",
"2  c #4D4F4E",
"3  c #59554B",
"4  c #645947",
"5  c #6D5E45",
"6  c #645F54",
"7  c #676458",
"8  c #766749",
"9  c #7D6A49",
"0  c #756950",
"q  c #78705A",
"w  c #686A62",
"e  c #777161",
"r  c #7B7D73",
"t  c #7D7F7B",
"y  c #7A848D",
"u  c #A77C3A",
"i  c #88704A",
"p  c #9D7B45",
"a  c #9A7D4D",
"s  c #9A7E51",
"d  c #A27E46",
"f  c #97825C",
"g  c #9D8356",
"h  c #9E865B",
"j  c #86847B",
"k  c #8B897B",
"l  c #938264",
"z  c #9D8E72",
"x  c #9C917B",
"c  c #AE8445",
"v  c #A38654",
"b  c #B48845",
"n  c #BB8E49",
"m  c #B58E52",
"M  c #BD914E",
"N  c #B49156",
"B  c #B8965D",
"V  c #BD9C66",
"C  c #B39B73",
"Z  c #BFA270",
"A  c #DE9200",
"S  c #DC9D24",
"D  c #D99F2C",
"F  c #DFA027",
"G  c #DDA63E",
"H  c #E19500",
"J  c #E69800",
"K  c #EA9C03",
"L  c #EB9E09",
"P  c #E29D19",
"I  c #ECA00B",
"U  c #ECA112",
"Y  c #EDA519",
"T  c #E7A426",
"R  c #E2A42B",
"E  c #E6A82F",
"W  c #E8A82D",
"Q  c #E1A632",
"!  c #E7AB36",
"~  c #E4AB3C",
"^  c #EBAC31",
"/  c #E9AE3B",
"(  c #F0AA20",
")  c #C7974D",
"_  c #C69751",
"`  c #C59A56",
"'  c #CD9F56",
"]  c #D09948",
"[  c #C6A35B",
"{  c #C9A45B",
"}  c #CDA85C",
"|  c #D0A54F",
" . c #D9A14C",
".. c #DEAD4D",
"X. c #D5A254",
"o. c #D4AB57",
"O. c #D6AD5D",
"+. c #DAA657",
"@. c #C7A668",
"#. c #C1AA7C",
"$. c #D0AC62",
"%. c #D3B06A",
"&. c #DEB973",
"*. c #DDBC7D",
"=. c #E4AD42",
"-. c #E2AF4C",
";. c #E9AB4F",
":. c #E3AB57",
">. c #EAAE54",
",. c #E7B34E",
"<. c #E8B147",
"1. c #E8B44E",
"2. c #E1B256",
"3. c #E3B458",
"4. c #ECB056",
"5. c #EBB15A",
"6. c #F0B155",
"7. c #F1B75F",
"8. c #E5B964",
"9. c #EDB663",
"0. c #ECB96A",
"q. c #E4BC7D",
"w. c #E8BA73",
"e. c #8A8B81",
"r. c #8F989F",
"t. c #9D9D8D",
"y. c #96A0A7",
"u. c #98A5B2",
"i. c #A0A091",
"p. c #A6A89E",
"a. c #ABA594",
"s. c #B2A88F",
"d. c #A7ACAD",
"f. c #A9ADA0",
"g. c #A8ADAE",
"h. c #A6ADB3",
"j. c #A5AFB8",
"k. c #A8AEB1",
"l. c #A6B0B9",
"z. c #AAB1B5",
"x. c #ABB4BC",
"c. c #B9B6AA",
"v. c #BBB9AB",
"b. c #B6B6B6",
"n. c #B3B6BA",
"m. c #B5B8BC",
"M. c #BDBCB2",
"N. c #BABABA",
"B. c #B2B9C1",
"V. c #B9BDC1",
"C. c #BBC0C5",
"Z. c #C1B08B",
"A. c #CEB98F",
"S. c #D1B681",
"D. c #D6BC89",
"F. c #DFBF82",
"G. c #DBBF88",
"H. c #D1BB93",
"J. c #C0B9A7",
"K. c #CABDA2",
"L. c #E0BE85",
"P. c #DEC38D",
"I. c #D2C09C",
"U. c #DBC092",
"Y. c #DBC59C",
"T. c #C8C0AD",
"R. c #C7CABC",
"E. c #CBC4B3",
"W. c #C9C5BA",
"Q. c #D4C3A4",
"!. c #D3C5AA",
"~. c #D8C5A2",
"^. c #D8C7AA",
"/. c #D3C9B5",
"(. c #D2CABD",
"). c #D8CBB2",
"_. c #E0C289",
"`. c #C3C3C4",
"'. c #C3C6C9",
"]. c #C5C9CB",
"[. c #C9C7C2",
"{. c #CAC8C3",
"}. c #CBCBCB",
"|. c #D0CECB",
" X c #D4D1CA",
".X c #D3D3D3",
/* pixels */
".X.X.X.X.X.X.X.X.X.X.X.X.X.X.X.X.X.X.X.X.X.X.X.X.X.X.X.X.X.X.X.X",
".X.X.X.X.X.X.X.X.X.X.X.X.X.X.X.X.X.X.X.X.X.X.X.X.X.X.X.X.X.X.X.X",
".X.X.X.X.X'.B.x.l.l.z.g.j.l.l.d.g.z.l.l.j.g.d.d.z.n.'..X.X.X.X.X",
".X.X.XB.u.x.C.].}.}.]. XS.Q.'.R.S.O.%.T.'.T.%.o.$.Z.z.u.B..X.X.X",
".X.X.Xu..X.X.X.X.X.X.X.X_.( 8..X X1.Y / (..XP.Y I I T I.u..X.X.X",
".X.X'.l..X.X.X.X.X.X.X.X.XY.4._..X).<.Y ~ Y.|.Q.W K I Q z.]..X.X",
".X.XB.C..X.X.X.X.X.X.X.X.X.XY.W 8. X X3.U W !.|.D.K K K #.z..X.X",
".X.XB.]..X.X.X.X.X.X.X.X.X.X|.G.^ *.|./.! I ~ !.}.D.R K } z..X.X",
".X.Xl.]..X.X.X.X.X.X.X.X.X.X.X.X^.=.*.}./.-.K P I.}.H.P | d..X.X",
".X.Xl.]..X.X.X.X.X.X.X.X.X.X}..X|.&.U 2.}.(.! J F E.C.*.} d..X.X",
".X.Xl.]..X.X.X.X.X.X]..X.X}.}..X|.|.!.=.D.}.T.~ J F A.`.v.g..X.X",
".X.Xj.]..X.X]..X}..X}..X.X}..X|..X}.q @ k -.{.{...A S K.C.j..X.X",
".X.Xl.'..X.X]..X.X.X|..X}.}.|.}.}.7 > c * & ; k K.F A D v.j..X.X",
".X.Xj.]..X}.y < # # . 3 1 = o + + 5 _ 6. .u p * # t.p.H { k..X.X",
".X.Xl.'.}.f.X s e.z C i i a m m M ) >.>.4.>.>.4.c O o # t k..X.X",
".X.Xl.]..X< e.E.^.G.L.L.w.0.9.9.5.>.4.4.4.>.>.>.>.;.] d 6 r..X.X",
".X.Xl.'.}.X a.K.H.L.L.w.w.9.9.9.5.>.4.5.4.5.>.4.:.+.N h q y .X.X",
".X.Xl.'.}.t 3 s.x #.C Z V B v B :.4.4.4.4.>.+.` v : @ # 2 y..X.X",
".X.Xl.'.|.}.$   @ #   = $ + # s X.6.6.+.` s 8 0 @ ; j j Z l..X.X",
".X.Xl.].}.}.}.}.}.}.}.}.{.'.'.% n ' v l 4 . X + e.N.M.@.@.z..X.X",
".X.Xl.'.}.}.}.{.{.}.`.`.`.`.`., v : . # $ i.c.M.N.N.N.N.v.g..X.X",
".X.Xl.'.}.}.'.].`.`.{.`.`.`.`.@ @ 1 i.e.R.N.N.N.b.N.b.N.m.h..X.X",
".X.Xl.C.}.{.{.}.`.`.`.`.`.`.V.w e.V.J.V.N.N.N.N.N.b.b.b.m.j..X.X",
".X.Xl.`.}.`.`.`.`.`.V.`.V.'.J.N.N.N.V.V.N.N.N.b.b.b.m.m.m.j..X.X",
".X.Xj.V.'.{.`.`.[.`.N.`.N.N.N.N.N.N.N.b.b.b.b.b.b.b.b.b.m.l..X.X",
".X.XB.B.`.`.`.`.N.`.V.N.N.N.N.N.N.b.b.b.b.b.b.b.b.b.b.b.m.x..X.X",
".X.X].B.`.`.`.V.`.N.C.N.N.C.N.N.b.b.b.b.b.b.b.b.b.b.b.N.l.]..X.X",
".X.X.Xu.`.`.`.N.N.N.N.N.N.J.N.N.b.b.b.b.b.b.b.b.b.b.b.b.u..X.X.X",
".X.X.XB.u.l.V.V.V.m.m.m.m.m.m.m.m.m.m.b.m.m.n.n.n.n.x.u.n..X.X.X",
".X.X.X.X.X'.x.l.l.z.l.l.j.j.j.l.l.j.j.j.l.l.l.j.l.x.]..X.X.X.X.X",
".X.X.X.X.X.X.X.X.X.X.X.X.X.X.X.X.X.X.X.X.X.X.X.X.X.X.X.X.X.X.X.X",
".X.X.X.X.X.X.X.X.X.X.X.X.X.X.X.X.X.X.X.X.X.X.X.X.X.X.X.X.X.X.X.X"
};
