/* XPM */
static char * image_name[]={
"32 32 64 2",
"  	c #4D4D4D",
". 	c #454545",
"X 	c #363636",
"o 	c #4A4A4A",
"O 	c #2B2B2B",
"+ 	c #0A0A0A",
"@ 	c #080808",
"# 	c #333333",
"$ 	c #0F0F0F",
"% 	c #00562D",
"& 	c #91D2A0",
"* 	c #5C5C5C",
"= 	c #212121",
"- 	c #3D3D3D",
"; 	c #1A1A1A",
": 	c #1F1F1F",
"> 	c #8FBC8F",
", 	c #9BEEB4",
"< 	c #474747",
"1 	c #242424",
"2 	c #0D0D0D",
"3 	c #509F69",
"4 	c #141414",
"5 	c #2E2E2E",
"6 	c #525252",
"7 	c #303030",
"8 	c #404040",
"9 	c #000001",
"0 	c #030303",
"q 	c #575757",
"w 	c #292929",
"e 	c #636363",
"r 	c #171717",
"t 	c #121212",
"y 	c #3B3B3B",
"u 	c #424242",
"i 	c #55562F",
"p 	c #1C1C1C",
"a 	c #B8860B",
"s 	c #262626",
"d 	c #F2DE0D",
"f 	c #FFFF00",
"g 	c #4F4F4F",
"h 	c #545454",
"j 	c #2F4F4F",
"k 	c #5E5E5E",
"l 	c #616161",
"z 	c #050505",
"x 	c #2F2F64",
"c 	c #595959",
"v 	c #91D2DE",
"b 	c #9BEFF2",
"n 	c #6A6A8D",
"m 	c #5F929E",
"M 	c #87CEFA",
"N 	c #529584",
"B 	c #6B6B6B",
"V 	c #7E88AB",
"C 	c #383838",
"Z 	c #384B66",
"A 	c #696969",
"S 	c #72D5CD",
"D 	c #666666",
"F 	c #7C98D3",
"                                        . X                     ",
"                                    o O + @ .                   ",
"                                  # $ % & * =                   ",
"                              - ; : > , , , $ -                 ",
"                          < 1 2 3 , , , , , 3 4                 ",
"                      o 5 + 6 , , , , & , , , = 7               ",
"                      8 9 & , , , , 6 0 q , , & 2 o             ",
"                        1 q , , 3 2 1 8 + & , , % w             ",
"                        < + 3 : ; -     O # , , & + .           ",
"                          O $ #         o $ 3 , , e :           ",
"                o < . o   o o             X r , , , t y         ",
"            o u - i i i i o                 p 3 , , 3 t o       ",
"          u w # i i i i i i o               8 + , , , O 5       ",
"        - : = i a a i i i i i                 s o , , & 2 <     ",
"    o 7 + i a a 2 i a i i i i               o 1 @ , , , o s     ",
"    w s d f f f d 2 a a i i i o           # $ % & , , , > 0 8   ",
"  o @ d f f f f f a i a i i i         - r : & , , , & o 2 O <   ",
"  - r f f f f f f a 1 a i i .       w 2 3 , , , & g + 5 <       ",
"  . 2 f f f f f f a O i i .         y t , , , h + # <           ",
"    4 a f f f f f = 5 # o             : q q $ % <   o o         ",
"    y + a f f d i 4 -                 . @ %   o y j k l j j     ",
"      - r @ t z 1 o                     o j x c v b b b b n j   ",
"          < 8 o                       j j m b b M N k m b b j   ",
"        . j j c c c c c j j u       j B b b V j y u   - m b e o ",
"      C n b b b b b b b b b n C   o j b b j y o       C m b k o ",
"    - B b b m Z Z Z Z Z m b v * < . A V c <       C O n b b j   ",
"    w b b n -           u h     u .       o   - X N b b b Z u   ",
"    O b b j o           o       j o     * B c m b b b n j u     ",
"    w S b v Z C X X X x Z V D   -   o 6 v b b b F Z C u         ",
"    o 7 m b b b b b b b b b m j o     j j k q j X o             ",
"          Z A n n n n n D Z 6             o                     ",
"                                                                "
};
