/* XPM */
static char * image_name[]={
"32 32 90 2",
"  	c #4D4D4D",
". 	c #454545",
"X 	c #363636",
"o 	c #4A4A4A",
"O 	c #2B2B2B",
"+ 	c #0D0D0D",
"@ 	c #0A0A0A",
"# 	c #333333",
"$ 	c #121212",
"% 	c #424242",
"& 	c #C7C7C7",
"* 	c #666666",
"= 	c #212121",
"- 	c #3D3D3D",
"; 	c #1C1C1C",
": 	c #A6A6A6",
"> 	c #E5E5E5",
", 	c #D9D9D9",
"< 	c #0F0F0F",
"1 	c #474747",
"2 	c #242424",
"3 	c #828282",
"4 	c #E0E0E0",
"5 	c #8C8C8C",
"6 	c #171717",
"7 	c #2E2E2E",
"8 	c #5C5C5C",
"9 	c #D4D4D4",
"0 	c #BDBDBD",
"q 	c #D6D6D6",
"w 	c #E3E3E3",
"e 	c #262626",
"r 	c #303030",
"t 	c #404040",
"y 	c #000001",
"u 	c #ADADAD",
"i 	c #030303",
"p 	c #616161",
"a 	c #B5B5B5",
"s 	c #C2C2C2",
"d 	c #292929",
"f 	c #383838",
"g 	c #CCCCCC",
"h 	c #A1A1A1",
"j 	c #707070",
"k 	c #1F1F1F",
"l 	c #1A1A1A",
"z 	c #DEDEDE",
"x 	c #141414",
"c 	c #3B3B3B",
"v 	c #7D7D7D",
"b 	c #999999",
"n 	c #080808",
"m 	c #55562F",
"M 	c #D1D1D1",
"N 	c #F2DE0D",
"B 	c #FFFF00",
"V 	c #545454",
"C 	c #CDCD1D",
"Z 	c #B8860B",
"A 	c #C9C9C9",
"S 	c #ABABAB",
"D 	c #8A8A8A",
"F 	c #595959",
"G 	c #CFCFCF",
"H 	c #5E5E5E",
"J 	c #636363",
"K 	c #2F4F4F",
"L 	c #D11619",
"P 	c #8E2323",
"I 	c #2F2F64",
"U 	c #FF6347",
"Y 	c #91D2DE",
"T 	c #9BEFF2",
"R 	c #6A6A8D",
"E 	c #6B3939",
"W 	c #FF0000",
"Q 	c #5F929E",
"! 	c #F5280A",
"~ 	c #A22E61",
"^ 	c #DB7093",
"/ 	c #B3B3B3",
"( 	c #A52A2A",
") 	c #DA322D",
"_ 	c #384B66",
"` 	c #A6B8C7",
"' 	c #529584",
"] 	c #9E9E9E",
"[ 	c #FF7256",
"{ 	c #708090",
"                                        . X                     ",
"                                    o O + @ .                   ",
"                                  # $ % & * =                   ",
"                              - ; = : > > , < -                 ",
"                          1 2 + 3 4 > > > > 5 6                 ",
"                      o 7 + 8 9 > > > 0 q > w e r               ",
"                      t y u > > > 9 8 i p > > a + o             ",
"                        2 p > 4 3 + 2 t @ s > > o d             ",
"                        1 @ 5 = ; -     O f > > g @ .           ",
"                          O < #         o $ h > > j k           ",
"                          o o             X l 4 > z x c         ",
"              . # r t                       ; v > > b x o       ",
"            r n m m + ; 1                   t @ M > > r 7       ",
"          r $ N B B B m l o                   e V > > 0 + 1     ",
"        o @ C B B B B B l X                 o 2 n 9 > > V e     ",
"        f 2 B B B B B B Z 2               # < . A > > > S i t   ",
"        # m B B B B B B Z =           - l 2 u > > > & V + O 1   ",
"        % + B B B B B B m r         d + D w > > & F + r 1       ",
"          k m B B B B Z @ o         c x z > G H + X 1           ",
"          1 6 ; Z Z m + -             k J J $ t 1   o o         ",
"              X 2 = 7 o               . n .   o c K H p K K     ",
"                                  L P   o K I F h U Y T T R K   ",
"                          f r I E W W E K Q T Y ! W ~ Q T T K   ",
"                        f Q T T T ^ W W / T b W W L   - Q T J o ",
"                      K Q T T R J * ( W W 8 ! W L     f Q T H o ",
"                      K T T V 1   - Q U W W W ) I f O R T T K   ",
"                      _ T T d     c Q T W W W ` K ' T T T _ %   ",
"                      K T T 8     o V U W W W ! J T T R K %     ",
"                      K Q T T ' H K ( W W ] ) W L   f %         ",
"                        f ' T T T [ W W Y T { L W L             ",
"                          c 7 I E W W E # k d   W W P           ",
"                                  ( E             (             "
};
