/* XPM */
static char * image_name[]={
"32 32 80 2",
"  	c #4D4D4D",
". 	c #4F4F4F",
"X 	c #575757",
"o 	c #5C5C5C",
"O 	c #595959",
"+ 	c #545454",
"@ 	c #525252",
"# 	c #616161",
"$ 	c #666666",
"% 	c #6E6E6E",
"& 	c #707070",
"* 	c #6B6B6B",
"= 	c #696969",
"- 	c #474747",
"; 	c #2E2E2E",
": 	c #1F1F1F",
"> 	c #737373",
", 	c #5E5E5E",
"< 	c #303030",
"1 	c #0A0A0A",
"2 	c #384B66",
"3 	c #5F929E",
"4 	c #7C98D3",
"5 	c #333333",
"6 	c #262626",
"7 	c #636363",
"8 	c #454545",
"9 	c #171717",
"0 	c #212121",
"q 	c #9BEFF2",
"w 	c #2F4F4F",
"e 	c #292929",
"r 	c #000000",
"t 	c #050505",
"y 	c #080808",
"u 	c #72D5CD",
"i 	c #363636",
"p 	c #91D2DE",
"a 	c #0D0D0D",
"s 	c #7A7A7A",
"d 	c #121212",
"f 	c #0F0F0F",
"g 	c #757575",
"h 	c #6A6A8D",
"j 	c #4A4A4A",
"k 	c #7E7E7E",
"l 	c #141414",
"z 	c #828282",
"x 	c #242424",
"c 	c #858585",
"v 	c #000001",
"b 	c #1A1A1A",
"n 	c #787878",
"m 	c #B5B5B5",
"M 	c #404040",
"N 	c #E5E5E5",
"B 	c #D4D4D4",
"V 	c #E8E8E8",
"C 	c #FFFFFF",
"Z 	c #CCCCCC",
"A 	c #3B3B3B",
"S 	c #C2C2C2",
"D 	c #3D3D3D",
"F 	c #B3B3B3",
"G 	c #A1A1A1",
"H 	c #424242",
"J 	c #919191",
"K 	c #7D7D7D",
"L 	c #FAFAFA",
"P 	c #D6D6D6",
"I 	c #B0B0B0",
"U 	c #F7F7F7",
"Y 	c #1C1C1C",
"T 	c #2B2B2B",
"R 	c #030303",
"E 	c #FCFCFC",
"W 	c #C9C9C9",
"Q 	c #E3E3E3",
"! 	c #D9D9D9",
"~ 	c #999999",
"                                                                ",
"                                              . .               ",
"                                        . X o o o O +           ",
"                                    @ O # $ % & & * # X .       ",
"                                + o # = = - ; : ; . > $ O       ",
"          @ X O O O o O O O o , $ * X < 1 2 3 4 3 5 6 % 7 +     ",
"      @ O # $ * % % & & % % & % 8 9 0 3 q q q q q q 2 w % , .   ",
"    @ , = > # e 1 r r r r r t y w 4 q q u 7 i w 3 q p a & $ +   ",
"  . o = s X d 3 p q q q q w w p q q 3 6 f i . + 9 3 q w X = X   ",
"  + 7 g > d p q q q q q h w q q 3 d 5 y j + , & 6 3 q # j % O   ",
"  X = k w 3 q q O l r r y u q 3 d 4 q = 6   @ i 9 q q w @ * O   ",
"  O % z l p q w e + + - f q q d 9 6 q p y x y w p q p a > $ X   ",
"  O % c r q q y $ o   - 1 q q y < y q q v 2 p q q u 9 + > # @   ",
"  O % z 9 p q 2 6 + X + d 4 q 3 9 5 q u b q q 4 w a X n $ O     ",
"  X = k w h q q $ b v r r r y e 3 6 h # o 3 e 9   s g = o .     ",
"  @ 7 g n f 4 q q q q q q q q q q 6 a 1 f x O k n % 7 O @       ",
"    o = s , a $ p q q q q q q q u 9 m 9 M n & = 7 o +           ",
"    + , = g % 5 f r r r r r r r v 1 N B l 8 , O +               ",
"      + o 7 = % & > > > & % * = $ a V C Z a A                   ",
"        . + X o o , , o o O X X + a V C C S 1 D                 ",
"                  . .             a V C C C F a D               ",
"                                  a V C C C C G d H             ",
"                                  a V C C C C C J d 8           ",
"                                  a V C C C C C C K l -         ",
"                                  a V C C C C L P I 0 9 j       ",
"                                  a V C U C C Y f 0 x T 8       ",
"                                  R E W x S C z x               ",
"                                  r s a : j C Q 1 j             ",
"                                  r : 8 j f ! C D 5             ",
"                                  ;       5 , ~ : Y             ",
"                                          8 y x i j             ",
"                                            j                   "
};
