/* XPM */
static char * image_name[]={
"32 32 55 2",
"  	c #4D4D4D",
". 	c #474747",
"X 	c #1F1F1F",
"o 	c #030303",
"O 	c #000000",
"+ 	c #4A4A4A",
"@ 	c #1A1A1A",
"# 	c #55562F",
"$ 	c #F2DE0D",
"% 	c #FFFF00",
"& 	c #FFFFFF",
"* 	c #00FF40",
"= 	c #32D838",
"- 	c #00562D",
"; 	c #000001",
": 	c #6B3939",
"> 	c #292929",
", 	c #404040",
"< 	c #3D3D3D",
"1 	c #EBEBEB",
"2 	c #333333",
"3 	c #737373",
"4 	c #B5B5B5",
"5 	c #2B2B2B",
"6 	c #ADADAD",
"7 	c #EDEDED",
"8 	c #454545",
"9 	c #9C9C9C",
"0 	c #858585",
"q 	c #7F7F7F",
"w 	c #696969",
"e 	c #242424",
"r 	c #424242",
"t 	c #3B3B3B",
"y 	c #2F4F4F",
"u 	c #5E5E5E",
"i 	c #2F2F64",
"p 	c #595959",
"a 	c #91D2DE",
"s 	c #9BEFF2",
"d 	c #6A6A8D",
"f 	c #383838",
"g 	c #303030",
"h 	c #363636",
"j 	c #5F929E",
"k 	c #87CEFA",
"l 	c #529584",
"z 	c #7C98D3",
"x 	c #636363",
"c 	c #666666",
"v 	c #545454",
"b 	c #384B66",
"n 	c #5C5C5C",
"m 	c #72D5CD",
"M 	c #2E2E2E",
"                                                                ",
"                                                                ",
"                                                                ",
"                                                                ",
"                                                                ",
"    . X o O O O O O O O O O O O O O O O O O O O O O O o X +     ",
"    @ # $ % % % % % O & O * * * * * * * * * * * * * * = - X     ",
"    ; $ % % % % % % O & O * * * * * * * * * * * * * * * = o     ",
"    O % % % % % % % O & O * * * * * * * * * * * * * * * * O     ",
"    O % % % % % % % O & O * * * * * * * * * * * * * * * * O     ",
"    o $ % % % % % % O & O * * * * * * * * * * * * * * * = o     ",
"    X : $ % % % % % O & O * * * * * * * * * * * * * * = - X     ",
"    + X o O O O O O O O O O O O O O O O O O O O O O O o X +     ",
"                    . > ,                                       ",
"      &       &     < 1 2 +   &       &       &       &         ",
"      &       &   . 3 & 4 5   &       &       &       &         ",
"      6       6   < 7 & & 8 , 6       6       6       6         ",
"                . 8 9 0 q w e                                   ",
"                8 < r +                                         ",
"                                                    + +         ",
"                                              + t y u u y y     ",
"                                          y i p a s s s s d y   ",
"                          f g i y y y h y j s s k l u j s s y   ",
"                        f j s s s s j l s s z y t r   < j s x + ",
"                      y j s s d x c y s s u j j 8     f j s u + ",
"                      y s s v .   < j s x y j s i f 5 d s s y   ",
"                      b s s >     t j s b + y s y l s s s b r   ",
"                      y s s n     + b s a b j s x s s d y r     ",
"                      y j s s l u y y b n m s j j b f r         ",
"                        f l s s s s s s s s j M h +             ",
"                          t M i f 2 i i 2 X >                   ",
"                                                                "
};
