/* XPM */
static char * nrm_zerobrow_xpm[] = {
"32 32 492 2",
"  	c #C3C2C2",
". 	c #C0BFBF",
"+ 	c #BEBEBD",
"@ 	c #BCBCBB",
"# 	c #BABAB9",
"$ 	c #B3B3B2",
"% 	c #9C9C9C",
"& 	c #909292",
"* 	c #8C8E8D",
"= 	c #8B8C8C",
"- 	c #919291",
"; 	c #A7A7A6",
"> 	c #B7B8B7",
", 	c #BBBBBA",
"' 	c #A9AAA9",
") 	c #808383",
"! 	c #838B8C",
"~ 	c #899293",
"{ 	c #899191",
"] 	c #848C8C",
"^ 	c #7D8585",
"/ 	c #757C7C",
"( 	c #6D7071",
"_ 	c #6A6C6C",
": 	c #878887",
"< 	c #B1B1B0",
"[ 	c #BCBCBC",
"} 	c #B9B9B9",
"| 	c #B7B7B7",
"1 	c #8C8E8E",
"2 	c #8E989A",
"3 	c #9CA8A9",
"4 	c #78807F",
"5 	c #717577",
"6 	c #6B6F70",
"7 	c #656969",
"8 	c #616363",
"9 	c #616263",
"0 	c #606262",
"a 	c #555757",
"b 	c #5E5E5E",
"c 	c #A3A3A3",
"d 	c #B9B9B8",
"e 	c #B8B8B7",
"f 	c #919392",
"g 	c #9BA8A7",
"h 	c #A3B0B0",
"i 	c #798081",
"j 	c #636768",
"k 	c #5D6161",
"l 	c #5A5C5C",
"m 	c #565757",
"n 	c #545454",
"o 	c #565656",
"p 	c #585757",
"q 	c #5B5B5B",
"r 	c #5C5C5C",
"s 	c #AEAEAD",
"t 	c #BBBABA",
"u 	c #B8B7B7",
"v 	c #AAA9A9",
"w 	c #838A8B",
"x 	c #9AA7A7",
"y 	c #707779",
"z 	c #5A5D5E",
"A 	c #505252",
"B 	c #4C4C4C",
"C 	c #4B4C4C",
"D 	c #50504F",
"E 	c #5F5F5F",
"F 	c #636363",
"G 	c #646464",
"H 	c #676767",
"I 	c #7A7979",
"J 	c #BAB9B8",
"K 	c #B7B6B5",
"L 	c #8F8F8E",
"M 	c #838F8F",
"N 	c #656D6D",
"O 	c #4D5151",
"P 	c #454747",
"Q 	c #434444",
"R 	c #464646",
"S 	c #555555",
"T 	c #626262",
"U 	c #666666",
"V 	c #696969",
"W 	c #6B6B6B",
"X 	c #AAA9A8",
"Y 	c #B8B8B8",
"Z 	c #B5B5B4",
"` 	c #B2B2B1",
" .	c #7C7F7E",
"..	c #717B7B",
"+.	c #474C4C",
"@.	c #3E4141",
"#.	c #3A3A3A",
"$.	c #424141",
"%.	c #4B4B4B",
"&.	c #505050",
"*.	c #575757",
"=.	c #606060",
"-.	c #686868",
";.	c #6C6C6C",
">.	c #6F6F6F",
",.	c #6D6D6D",
"'.	c #595959",
").	c #959595",
"!.	c #B4B4B3",
"~.	c #727676",
"{.	c #697273",
"].	c #586060",
"^.	c #5D6262",
"/.	c #4F5151",
"(.	c #4A4A49",
"_.	c #4F4D4D",
":.	c #555252",
"<.	c #5C5757",
"[.	c #615C5C",
"}.	c #646060",
"|.	c #625E5E",
"1.	c #6A6666",
"2.	c #6C6868",
"3.	c #6C6767",
"4.	c #5A5858",
"5.	c #898988",
"6.	c #B7B7B6",
"7.	c #ABACAB",
"8.	c #6E7172",
"9.	c #787E7F",
"0.	c #797879",
"a.	c #746363",
"b.	c #694646",
"c.	c #744242",
"d.	c #824040",
"e.	c #8F4141",
"f.	c #943D3D",
"g.	c #963535",
"h.	c #9A3434",
"i.	c #9B3838",
"j.	c #984747",
"k.	c #8D5555",
"l.	c #795D5D",
"m.	c #6E6464",
"n.	c #5B5959",
"o.	c #7D7D7D",
"p.	c #B3B2B1",
"q.	c #B6B4B5",
"r.	c #B2B0B1",
"s.	c #AAA9AA",
"t.	c #736F70",
"u.	c #766263",
"v.	c #732A2A",
"w.	c #991515",
"x.	c #C80E0E",
"y.	c #DD0A0A",
"z.	c #EB0909",
"A.	c #F10A0A",
"B.	c #F30808",
"C.	c #F40505",
"D.	c #F50505",
"E.	c #E60E0E",
"F.	c #CE1E1E",
"G.	c #A63D3D",
"H.	c #835757",
"I.	c #635757",
"J.	c #767576",
"K.	c #B2AFB0",
"L.	c #B4B4B4",
"M.	c #B0B0B0",
"N.	c #A8A9A9",
"O.	c #6D6869",
"P.	c #604041",
"Q.	c #751717",
"R.	c #B31717",
"S.	c #DA0B0B",
"T.	c #E20707",
"U.	c #E80505",
"V.	c #E70808",
"W.	c #E70C0C",
"X.	c #E40D0D",
"Y.	c #E20E0E",
"Z.	c #DD0F0F",
"`.	c #CC1717",
" +	c #B22121",
".+	c #893535",
"++	c #795555",
"@+	c #655C5C",
"#+	c #767676",
"$+	c #B0AFAF",
"%+	c #B4B2B2",
"&+	c #B0AEAE",
"*+	c #A4A3A3",
"=+	c #636565",
"-+	c #383535",
";+	c #413131",
">+	c #836565",
",+	c #B98B8B",
"'+	c #C79999",
")+	c #9B6B6B",
"!+	c #653434",
"~+	c #6A3C3C",
"{+	c #7A4D4D",
"]+	c #815555",
"^+	c #B78E8E",
"/+	c #CCABAB",
"(+	c #A78F8F",
"_+	c #6D5E5E",
":+	c #625959",
"<+	c #797878",
"[+	c #AFADAD",
"}+	c #B3B1B1",
"|+	c #949394",
"1+	c #686A6A",
"2+	c #565C5D",
"3+	c #252929",
"4+	c #525354",
"5+	c #ECEDED",
"6+	c #E0E0E0",
"7+	c #BFBFBF",
"8+	c #484848",
"9+	c #C0C0C0",
"0+	c #8B8B8B",
"a+	c #8C8C8C",
"b+	c #FFFFFF",
"c+	c #676868",
"d+	c #B1B0B0",
"e+	c #ADACAC",
"f+	c #7D8181",
"g+	c #535A5A",
"h+	c #444A4B",
"i+	c #25292A",
"j+	c #F3F3F3",
"k+	c #DADADA",
"l+	c #C8C8C8",
"m+	c #8F8F8F",
"n+	c #7A7A7A",
"o+	c #D7D7D7",
"p+	c #818181",
"q+	c #C9C9C9",
"r+	c #5A5A5A",
"s+	c #707070",
"t+	c #535353",
"u+	c #ACABAB",
"v+	c #7D7F7F",
"w+	c #4D5454",
"x+	c #3B4041",
"y+	c #333737",
"z+	c #1E1F1F",
"A+	c #727272",
"B+	c #D4D4D4",
"C+	c #E2E2E2",
"D+	c #ADADAD",
"E+	c #585959",
"F+	c #545555",
"G+	c #777777",
"H+	c #8D8D8D",
"I+	c #D2D2D2",
"J+	c #E6E6E6",
"K+	c #C5C5C5",
"L+	c #828282",
"M+	c #5D5D5D",
"N+	c #525252",
"O+	c #AEADAE",
"P+	c #868687",
"Q+	c #464C4C",
"R+	c #373C3D",
"S+	c #393C3C",
"T+	c #212121",
"U+	c #232323",
"V+	c #3D3D3D",
"W+	c #4F4F4F",
"X+	c #454444",
"Y+	c #4C4D4D",
"Z+	c #5E6060",
"`+	c #747474",
" @	c #6E6E6E",
".@	c #626363",
"+@	c #ADACAD",
"@@	c #A9A8A9",
"#@	c #979697",
"$@	c #3C3F41",
"%@	c #35393A",
"&@	c #363A3B",
"*@	c #1F2020",
"=@	c #323232",
"-@	c #3B3B3B",
";@	c #444444",
">@	c #4A4A4A",
",@	c #4D4F51",
"'@	c #5D5F60",
")@	c #7F7F7F",
"!@	c #656565",
"~@	c #636263",
"{@	c #A8A7A7",
"]@	c #A5A4A4",
"^@	c #4D4D4D",
"/@	c #2E3131",
"(@	c #373C3C",
"_@	c #151515",
":@	c #282828",
"<@	c #3C3D3D",
"[@	c #404040",
"}@	c #414646",
"|@	c #5A5C5D",
"1@	c #7B7B7B",
"2@	c #585858",
"3@	c #444545",
"4@	c #838282",
"5@	c #ABAAAA",
"6@	c #A7A6A6",
"7@	c #848383",
"8@	c #343637",
"9@	c #121313",
"0@	c #1D1D1D",
"a@	c #383939",
"b@	c #242424",
"c@	c #2A2F2E",
"d@	c #4D4F4F",
"e@	c #6A6A6A",
"f@	c #737373",
"g@	c #787878",
"h@	c #757575",
"i@	c #9F9E9E",
"j@	c #A6A5A5",
"k@	c #B6B487",
"l@	c #DED83D",
"m@	c #D9D445",
"n@	c #A6A45C",
"o@	c #46494A",
"p@	c #171919",
"q@	c #111111",
"r@	c #313131",
"s@	c #333333",
"t@	c #181919",
"u@	c #2C2C2C",
"v@	c #4E4E4E",
"w@	c #616060",
"x@	c #9A9999",
"y@	c #B1AF90",
"z@	c #A9A8A8",
"A@	c #CDC85C",
"B@	c #FFF600",
"C@	c #F9F10A",
"D@	c #FCF305",
"E@	c #B1AD2A",
"F@	c #212323",
"G@	c #070707",
"H@	c #343434",
"I@	c #3C3B3B",
"J@	c #494848",
"K@	c #515151",
"L@	c #7E7D7D",
"M@	c #B6B385",
"N@	c #BCB97B",
"O@	c #A7A7A7",
"P@	c #CBC75B",
"Q@	c #A9A899",
"R@	c #F4EC12",
"S@	c #E8E112",
"T@	c #2A2E2E",
"U@	c #0B0B0B",
"V@	c #74700D",
"W@	c #BEB80E",
"X@	c #5E5D30",
"Y@	c #B1AC33",
"Z@	c #DCD51C",
"`@	c #CDC725",
" #	c #6F6E5F",
".#	c #606161",
"+#	c #979432",
"@#	c #DED72E",
"##	c #B4B286",
"$#	c #DAD442",
"%#	c #E5DF2D",
"&#	c #A7A5A6",
"*#	c #A3A1A2",
"=#	c #CBC65B",
"-#	c #D4CE4C",
";#	c #FBF208",
">#	c #E4DD23",
",#	c #434646",
"'#	c #D3CC05",
")#	c #FDF400",
"!#	c #F2E903",
"~#	c #8A8626",
"{#	c #9D992C",
"]#	c #E2DB12",
"^#	c #F8EF05",
"/#	c #EAE20E",
"(#	c #E4DD0E",
"_#	c #FEF501",
":#	c #C7C262",
"<#	c #E6DF2C",
"[#	c #F1E919",
"}#	c #A1A0A0",
"|#	c #CAC65A",
"1#	c #EEE61D",
"2#	c #ACAA8D",
"3#	c #6A6A5B",
"4#	c #C5BE04",
"5#	c #837F13",
"6#	c #EFE604",
"7#	c #DAD30B",
"8#	c #B5B021",
"9#	c #FCF302",
"0#	c #D6CF1C",
"a#	c #C5BF28",
"b#	c #C0BB28",
"c#	c #787758",
"d#	c #FDF401",
"e#	c #DDD624",
"f#	c #F8EF0D",
"g#	c #E8E127",
"h#	c #B9B678",
"i#	c #A4A3A4",
"j#	c #A09E9F",
"k#	c #CAC559",
"l#	c #BCB870",
"m#	c #FCF306",
"n#	c #A6A495",
"o#	c #B2AE4E",
"p#	c #F5EC03",
"q#	c #585848",
"r#	c #F9F004",
"s#	c #F1E909",
"t#	c #A6A236",
"u#	c #F8EF0C",
"v#	c #B8B477",
"w#	c #C9C559",
"x#	c #CAC558",
"y#	c #E8E126",
"z#	c #A3A292",
"A#	c #FAF103",
"B#	c #ACA704",
"C#	c #161616",
"D#	c #DED706",
"E#	c #E1D909",
"F#	c #BBB51E",
"G#	c #F4EB07",
"H#	c #747246",
"I#	c #FDF402",
"J#	c #DAD43D",
"K#	c #F0E918",
"L#	c #B7B476",
"M#	c #BCB86F",
"N#	c #A4A2A2",
"O#	c #9F9D9D",
"P#	c #C9C458",
"Q#	c #F2EA15",
"R#	c #FDF403",
"S#	c #B6B277",
"T#	c #DBD42A",
"U#	c #F6EE00",
"V#	c #848020",
"W#	c #6C6B3E",
"X#	c #FCF401",
"Y#	c #E8E00B",
"Z#	c #E7E027",
"`#	c #FDF404",
" $	c #FEF502",
".$	c #C0BC67",
"+$	c #FDF502",
"@$	c #B1AE7F",
"#$	c #A2A1A2",
"$$	c #9D9C9D",
"%$	c #A9A78A",
"&$	c #C8C458",
"*$	c #AFAC81",
"=$	c #9A987A",
"-$	c #A7A22B",
";$	c #343325",
">$	c #202020",
",$	c #2F2F2F",
"'$	c #4C4B3C",
")$	c #8E8B36",
"!$	c #7C7B6D",
"~$	c #A9A789",
"{$	c #CDC851",
"]$	c #A3A293",
"^$	c #B4B277",
"/$	c #A19FA0",
"($	c #9C9A9B",
"_$	c #9A9899",
":$	c #898888",
"<$	c #414444",
"[$	c #151616",
"}$	c #9B999A",
"|$	c #999798",
"1$	c #9F9E9F",
"2$	c #9B9A9B",
"3$	c #A3A2A3",
"  . . . . . . . . . . . . . . . . . . . . . . . . . . . . . .   ",
"+ @ @ @ @ @ @ @ @ @ @ # $ % & * = - ; > @ @ @ @ @ @ @ @ @ @ @ + ",
"+ , , , , , , , , # ' ) ! ~ { ] ^ / ( _ : < , , , , , , , , , + ",
"[ } } } } } } } | 1 2 3 { 4 5 6 7 8 9 0 a b c } } } } } } } } [ ",
"@ d d d d d d e f g h i j k l m n n o p q r b s d d d d d d d @ ",
"t u u u u u u v w x y z A B C D o q E F G H r I u u u u u u u t ",
"J K K K K K K L M N O P Q R B S b T U V W W V b X K K K K K K J ",
"Y Z Z Z Z Z `  ...+.@.#.$.%.&.*.=.U -.;.>.,.,.'.).Z Z Z Z Z Z Y ",
"e !.!.!.!.!.s ~.{.].^./.(._.:.<.[.}.|.}.1.2.3.4.5.!.!.!.!.!.!.e ",
"6.$ $ $ $ $ 7.8.9.0.a.b.c.d.e.f.g.h.i.j.k.l.m.n.o.p.p.$ $ $ $ 6.",
"q.r.r.r.r.r.s.t.u.v.w.x.y.z.A.B.C.C.D.E.F.G.H.I.J.K.K.r.r.r.r.q.",
"L.M.M.M.M.M.N.O.P.Q.R.S.T.U.V.W.X.Y.Z.`. +.+++@+#+$+$+M.M.M.M.L.",
"%+&+&+&+&+&+*+=+-+;+>+,+'+)+!+~+{+]+^+/+(+_+:+|.<+[+&+&+&+&+&+%+",
"}+[+[+[+[+|+1+2+3+4+5+6+V 7+o.8+W 9+0+a+b+} T r c+I [+[+[+[+[+}+",
"d+e+e+e+e+f+g+h+i+n j+k+q l+m+B n+o+p+p+b+q+-.r+s+t+e+e+e+e+e+d+",
"$+u+u+u+u+v+w+x+y+z+A+B+C+D+E+F+G+H+I+J+K+L+U M+H N+u+u+u+u+u+$+",
"O+s.s.s.s.P+Q+R+S+T+U+V+W+X+Y+Z+`+A+F  @;.s+,.q .@*.s.s.s.s.s.O+",
"+@@@@@@@@@#@$@%@&@*@=@-@;@>@,@'@W )@`+`+o.#+!@*.E+~@@@@@@@@@@@+@",
"u+{@{@{@{@]@^@/@(@_@:@<@B [@}@|@;.G+1@p+n+W =.2@3@4@{@{@{@{@{@u+",
"5@6@6@6@6@6@7@8@(@9@0@a@R b@c@d@e@f@g@h@ @U r >@*.i@6@6@6@6@6@5@",
"v j@k@l@l@l@m@n@o@p@q@r@s@9@t@u@v@,.f@W !@T *.w@x@j@j@k@y@j@j@v ",
"z@]@A@B@C@C@D@B@E@F@G@T+r@H@I@J@F G+`+V T T K@L@]@]@M@D@N@]@]@z@",
"O@c P@B@c c Q@R@S@T@U@V@W@X@R t+Y@Z@`@ #G .#+#@###c $#B@%#c c O@",
"&#*#=#B@=#=#-#;#>#,#'#)#!#)#~#{#B@]#^#/#G (#_#C@_#:#<#B@[#*#*#&#",
"]@}#|#B@B@B@B@1#2#3#)#4#5#6#7#8#9#0#a#b#c#d#e#|#f#g#h#B@h#}#}#]@",
"i#j#k#B@j#l#m#R@n#o#B@B@B@B@p#q#]#r#B@s#t#B@B@B@B@u#v#B@v#j#j#i#",
"*+i@w#B@i@i@x#B@y#z#A#B#C#D#E#F#G# #0#B@H#I#J#i@K#K#L#B@M#i@i@*+",
"N#O#P#B@O#O#O#Q#R#S#T#)#U#)#V#W#_#X#d#Y#~@Z#_#`# $.$O#+$B@@$O#N#",
"#$$$%$&$$$$$$$%$&$*$$$=$-$;$>$,$'${#)$!$$$$$~${$]$$$$$^$&$]$$$#$",
"/$($($($($($_$_$_$_$_$($:$<$[$0@R .@r ($}$_$_$_$|$}$($($($($($/$",
"1$2$2$2$2$2$2$2$2$2$2$2$2$2$2$2$2$2$2$2$2$2$2$2$2$2$2$2$2$2$2$1$",
"3$1$1$1$1$1$1$1$1$1$1$1$1$1$1$1$1$1$1$1$1$1$1$1$1$1$1$1$1$1$1$3$"};
