/* XPM */
static char * nrm_allblock_xpm[] = {
"32 32 877 2",
"  	c #CEB47A",
". 	c #D8C1A1",
"+ 	c #DCC8A9",
"@ 	c #D4C2A8",
"# 	c #BFB39F",
"$ 	c #BCAB94",
"% 	c #C2B19A",
"& 	c #BEAD9B",
"* 	c #BAA995",
"= 	c #BCAE9A",
"- 	c #BAAB93",
"; 	c #BFB39A",
"> 	c #C4B6A0",
", 	c #C4B8A0",
"' 	c #C2B6A0",
") 	c #C2B6A2",
"! 	c #C5B9A4",
"~ 	c #CDC1A6",
"{ 	c #C8BDA3",
"] 	c #C2B5A0",
"^ 	c #C9BAA5",
"/ 	c #C6B4A0",
"( 	c #C7B7A3",
"_ 	c #CFC0AC",
": 	c #C8B9A4",
"< 	c #C6B69F",
"[ 	c #C6B8A0",
"} 	c #CCBDA6",
"| 	c #D2C4AE",
"1 	c #DFD0BA",
"2 	c #D5C1A5",
"3 	c #CDBA99",
"4 	c #D0B88B",
"5 	c #D9C5A9",
"6 	c #DCC8AA",
"7 	c #D1C2A7",
"8 	c #C8B9A3",
"9 	c #CBBDA7",
"0 	c #CDBEA3",
"a 	c #D0C4AE",
"b 	c #D2C6AC",
"c 	c #C9BBA2",
"d 	c #D2C5AE",
"e 	c #DCD3BC",
"f 	c #E0D4BE",
"g 	c #E3D7BE",
"h 	c #E3D9C2",
"i 	c #E4DCC5",
"j 	c #E4DAC2",
"k 	c #E3D7C2",
"l 	c #E1D4BC",
"m 	c #DFD4BA",
"n 	c #D6C9B1",
"o 	c #CDC0A9",
"p 	c #C9BFA7",
"q 	c #C3B69E",
"r 	c #BEAF9B",
"s 	c #C6BCA6",
"t 	c #C4B9A3",
"u 	c #C3B49E",
"v 	c #DBCDBD",
"w 	c #E1D2BC",
"x 	c #D6C4A9",
"y 	c #CDBB9B",
"z 	c #D2B98A",
"A 	c #DBC7AB",
"B 	c #DCC7A6",
"C 	c #DDCBAE",
"D 	c #E0D1B9",
"E 	c #E1D5BE",
"F 	c #E0D7C0",
"G 	c #DDD2BB",
"H 	c #DAD0BB",
"I 	c #E0D5C1",
"J 	c #E4DBC9",
"K 	c #E5DDCB",
"L 	c #E4DBC8",
"M 	c #E2D9C2",
"N 	c #E0D8C2",
"O 	c #E3DBC6",
"P 	c #E2DAC3",
"Q 	c #E2D6BD",
"R 	c #E1D6BF",
"S 	c #E4DDC9",
"T 	c #E5DDC9",
"U 	c #E4DBC7",
"V 	c #E1D8C2",
"W 	c #D3C9B0",
"X 	c #CABEA8",
"Y 	c #D2C8B3",
"Z 	c #D0C8B3",
"` 	c #CFC1AB",
" .	c #E0D3C0",
"..	c #DDCDB7",
"+.	c #D9C7B1",
"@.	c #D3C0A8",
"#.	c #D4BB8A",
"$.	c #DBC5A4",
"%.	c #DCC9AA",
"&.	c #DECEB1",
"*.	c #E3D6C0",
"=.	c #E2D3B9",
"-.	c #DCD0B2",
";.	c #DCCFB7",
">.	c #E1D6C5",
",.	c #E3D9C6",
"'.	c #E1DAC8",
").	c #E2DCC8",
"!.	c #E2DBC5",
"~.	c #E3DCC8",
"{.	c #E2DCC9",
"].	c #E1DBC6",
"^.	c #E2DAC4",
"/.	c #E3DCCB",
"(.	c #E2DBCB",
"_.	c #E3DACB",
":.	c #E2DAC8",
"<.	c #E3DBC8",
"[.	c #DED5BF",
"}.	c #DCD2BC",
"|.	c #E2D9C3",
"1.	c #E1D7C5",
"2.	c #E1D6C3",
"3.	c #DFCEB9",
"4.	c #DCCBB6",
"5.	c #D4C0A5",
"6.	c #D4BA80",
"7.	c #D9C195",
"8.	c #DAC69E",
"9.	c #E0D2B6",
"0.	c #E4D8BD",
"a.	c #DCCAA7",
"b.	c #DCCDB1",
"c.	c #E2D8C1",
"d.	c #C7BEAA",
"e.	c #252420",
"f.	c #36342F",
"g.	c #E3DCC7",
"h.	c #E1DBC7",
"i.	c #969083",
"j.	c #252421",
"k.	c #E3DBC7",
"l.	c #E1D9C2",
"m.	c #E2DAC6",
"n.	c #969186",
"o.	c #E3D9C7",
"p.	c #DCD3BD",
"q.	c #DCD3BE",
"r.	c #E2D7C4",
"s.	c #DFCFBA",
"t.	c #DDCBB5",
"u.	c #DAC6B0",
"v.	c #D4B987",
"w.	c #D8BF95",
"x.	c #DDC8A3",
"y.	c #DFCCAC",
"z.	c #C1B49B",
"A.	c #BEAF95",
"B.	c #DCC9AB",
"C.	c #E0D5BD",
"D.	c #605C53",
"E.	c #0B0B0A",
"F.	c #030302",
"G.	c #949083",
"H.	c #E0D9C6",
"I.	c #DFD7C0",
"J.	c #7D786B",
"K.	c #030202",
"L.	c #DFD4BE",
"M.	c #DED3B8",
"N.	c #E0D7C3",
"O.	c #7E796E",
"P.	c #DFD6C0",
"Q.	c #DED6C3",
"R.	c #E0D6C3",
"S.	c #DFD3BD",
"T.	c #CFC4AB",
"U.	c #CCBEAA",
"V.	c #DFD3BE",
"W.	c #DBC9B3",
"X.	c #D7C6B0",
"Y.	c #D5BB8B",
"Z.	c #D9C299",
"`.	c #DFC8A3",
" +	c #D7C2A1",
".+	c #AA9E88",
"++	c #908F86",
"@+	c #B3AE9F",
"#+	c #D1C7AF",
"$+	c #312F2A",
"%+	c #3B3933",
"&+	c #1C1B18",
"*+	c #3F3D37",
"=+	c #E1D7C1",
"-+	c #DFD4BB",
";+	c #7E796B",
">+	c #CDC5B1",
",+	c #DBD2BD",
"'+	c #E0D5BC",
")+	c #E1D9C4",
"!+	c #7F7B70",
"~+	c #E1D9C6",
"{+	c #E1D8C6",
"]+	c #DBD3BF",
"^+	c #B8B09F",
"/+	c #78756D",
"(+	c #8D8677",
"_+	c #E1D3BA",
":+	c #E1D2BB",
"<+	c #DFCDB9",
"[+	c #DAC8B1",
"}+	c #CFB47F",
"|+	c #D4B779",
"1+	c #D0B47A",
"2+	c #C5AF8F",
"3+	c #D6C5A8",
"4+	c #D1C8B3",
"5+	c #B8B4A3",
"6+	c #868275",
"7+	c #020202",
"8+	c #7B776B",
"9+	c #59554D",
"0+	c #151412",
"a+	c #DFD5BC",
"b+	c #79756A",
"c+	c #939086",
"d+	c #BCB7A7",
"e+	c #E2D9C1",
"f+	c #7F7A6F",
"g+	c #D5CEBA",
"h+	c #B7B2A3",
"i+	c #B7B3A5",
"j+	c #B3AEA2",
"k+	c #C9C1AD",
"l+	c #DACDB0",
"m+	c #DFCDB7",
"n+	c #DFCDB8",
"o+	c #DAC9B0",
"p+	c #C3A554",
"q+	c #CFB36D",
"r+	c #C6AB68",
"s+	c #CCB388",
"t+	c #DECDAD",
"u+	c #E2DBC2",
"v+	c #DBCEB4",
"w+	c #504C43",
"x+	c #090908",
"y+	c #6A675F",
"z+	c #47453F",
"A+	c #6B675B",
"B+	c #E2DCC5",
"C+	c #726E63",
"D+	c #7C7971",
"E+	c #B2AE9E",
"F+	c #E2E1C8",
"G+	c #7C796D",
"H+	c #B5B09F",
"I+	c #ABA698",
"J+	c #BDB6A6",
"K+	c #D9D2BF",
"L+	c #E1DFCB",
"M+	c #E0DDC8",
"N+	c #DBD0BA",
"O+	c #DBCAB5",
"P+	c #DCC9B2",
"Q+	c #D9C7B0",
"R+	c #D3B780",
"S+	c #D7C296",
"T+	c #D1BA91",
"U+	c #D0BFA2",
"V+	c #B7B1A0",
"W+	c #BFBAAB",
"X+	c #D0CAB4",
"Y+	c #33312C",
"Z+	c #CAC4B0",
"`+	c #737065",
" @	c #989487",
".@	c #CAC3B0",
"+@	c #C7C0AD",
"@@	c #BBB4A3",
"#@	c #646158",
"$@	c #C5BEAC",
"%@	c #DAD3C0",
"&@	c #E1DCC7",
"*@	c #DFD8C4",
"=@	c #D0C9B8",
"-@	c #C3BCAB",
";@	c #CFC5B3",
">@	c #DCCFB6",
",@	c #D9C7AB",
"'@	c #D6C2A6",
")@	c #D9C19C",
"!@	c #D8C5AA",
"~@	c #DDCDB2",
"{@	c #C1B69F",
"]@	c #706D68",
"^@	c #A39F92",
"/@	c #67655B",
"(@	c #7D796E",
"_@	c #B6B0A0",
":@	c #B4AFA0",
"<@	c #54514A",
"[@	c #848077",
"}@	c #6F6B62",
"|@	c #C4BFAF",
"1@	c #817C74",
"2@	c #AEA697",
"3@	c #6E6B61",
"4@	c #D1CAB8",
"5@	c #CAC5B3",
"6@	c #B8B2A3",
"7@	c #9B968C",
"8@	c #A5A094",
"9@	c #66635F",
"0@	c #A9A194",
"a@	c #E1D5BB",
"b@	c #DBC8B2",
"c@	c #D9C5AC",
"d@	c #DBC4A1",
"e@	c #D1BD9C",
"f@	c #DDCAAE",
"g@	c #D9CCAF",
"h@	c #D3CDB8",
"i@	c #D2CCB7",
"j@	c #35332C",
"k@	c #171613",
"l@	c #B8B3A3",
"m@	c #B9B4A3",
"n@	c #C2BCAA",
"o@	c #B1AA99",
"p@	c #4F4C45",
"q@	c #767266",
"r@	c #1F1D1B",
"s@	c #67635B",
"t@	c #C9C4B2",
"u@	c #C5BDAC",
"v@	c #D9CFBA",
"w@	c #DED0B9",
"x@	c #D7C7AE",
"y@	c #DAC6AD",
"z@	c #D7BF9F",
"A@	c #D2BFA0",
"B@	c #D8CBB3",
"C@	c #DCD5BE",
"D@	c #E0D7B8",
"E@	c #B7AE93",
"F@	c #C3B89F",
"G@	c #E0DCC4",
"H@	c #E0DDC9",
"I@	c #E0DCC8",
"J@	c #E0DBC5",
"K@	c #B7B09D",
"L@	c #BBB6A4",
"M@	c #A9A494",
"N@	c #A9A593",
"O@	c #8C887B",
"P@	c #9B9788",
"Q@	c #B7B3A2",
"R@	c #D2CDBB",
"S@	c #A9A69A",
"T@	c #A9A698",
"U@	c #A9A697",
"V@	c #A9A797",
"W@	c #A9A799",
"X@	c #E0DBC8",
"Y@	c #DED6C0",
"Z@	c #DCD1BC",
"`@	c #DDD0B8",
" #	c #D3C2A8",
".#	c #DBC3AB",
"+#	c #D2BB97",
"@#	c #CFBD9E",
"##	c #DDCCAF",
"$#	c #D7C9AE",
"%#	c #D9CFB7",
"&#	c #DED7BA",
"*#	c #DDD5BC",
"=#	c #DDD5C0",
"-#	c #DDD7C2",
";#	c #DFD8C5",
">#	c #DED8C1",
",#	c #DDD4BB",
"'#	c #D9D1BC",
")#	c #BEB9AA",
"!#	c #C3BCAD",
"~#	c #C9C1AF",
"{#	c #D8CFBB",
"]#	c #DFD5C2",
"^#	c #DDD6C4",
"/#	c #DFD7C2",
"(#	c #DFD7C5",
"_#	c #DFD8C7",
":#	c #DED7C7",
"<#	c #DED7C4",
"[#	c #DBD0B9",
"}#	c #DACFBA",
"|#	c #DDD0B7",
"1#	c #D2BFA6",
"2#	c #D8C1A5",
"3#	c #D3BE9C",
"4#	c #D3C0A3",
"5#	c #DCCCB0",
"6#	c #D5C8AD",
"7#	c #D8CFB4",
"8#	c #DED7BE",
"9#	c #DDD9C0",
"0#	c #DED7C3",
"a#	c #DDD7C1",
"b#	c #DED8C4",
"c#	c #DDD3BA",
"d#	c #DFD9C3",
"e#	c #BAB5A5",
"f#	c #AEA99B",
"g#	c #B7B19F",
"h#	c #DDD3BF",
"i#	c #DED8C5",
"j#	c #DED5C1",
"k#	c #DDD9C5",
"l#	c #DED7C5",
"m#	c #DFD6C2",
"n#	c #DACFB8",
"o#	c #D8CBB6",
"p#	c #D4C1A5",
"q#	c #D3BFA1",
"r#	c #D3C0A0",
"s#	c #D3BEA0",
"t#	c #DDCDAF",
"u#	c #D6C8AC",
"v#	c #D8D1B8",
"w#	c #DDD8BD",
"x#	c #DED8C2",
"y#	c #DED6BF",
"z#	c #DCD6C0",
"A#	c #DDD8C4",
"B#	c #DDD6BD",
"C#	c #DCD3B7",
"D#	c #C4BFAE",
"E#	c #C1BCAD",
"F#	c #A5A193",
"G#	c #BEB8A7",
"H#	c #DED7C1",
"I#	c #DDD7C3",
"J#	c #DED6C2",
"K#	c #DDD8C2",
"L#	c #DED7C2",
"M#	c #D9CEB8",
"N#	c #D6C8B2",
"O#	c #D4C6A9",
"P#	c #D7C3A8",
"Q#	c #D2BE9B",
"R#	c #CFBC9E",
"S#	c #DCCAAC",
"T#	c #D7CFBB",
"U#	c #DCD7BD",
"V#	c #DCD5BD",
"W#	c #DCD4BD",
"X#	c #DDD6C1",
"Y#	c #D9D3BC",
"Z#	c #D6D1BB",
"`#	c #DCD7BF",
" $	c #DCD4BE",
".$	c #C1BBAB",
"+$	c #BCB6A7",
"@$	c #ACA89A",
"#$	c #C0BBAB",
"$$	c #DCD5C0",
"%$	c #DDD6C2",
"&$	c #DDD6C3",
"*$	c #DCD5C2",
"=$	c #D8D0BB",
"-$	c #D6CBB7",
";$	c #DDD0B9",
">$	c #D2C2A9",
",$	c #CFBA98",
"'$	c #D5C1A1",
")$	c #D9C7AA",
"!$	c #D1C4AB",
"~$	c #D7CDBA",
"{$	c #DCD5BF",
"]$	c #DBD5C0",
"^$	c #DCD6C2",
"/$	c #DCD7C3",
"($	c #D6D0BC",
"_$	c #C1BCAC",
":$	c #D4CDBB",
"<$	c #BBB6A7",
"[$	c #A29E92",
"}$	c #DED9C5",
"|$	c #DBD3BD",
"1$	c #DBD4BF",
"2$	c #DCD6C4",
"3$	c #DCD6C3",
"4$	c #D9D0BB",
"5$	c #D6CBB6",
"6$	c #DBCDB6",
"7$	c #CFBEA3",
"8$	c #D0BDA0",
"9$	c #D8C3A3",
"0$	c #CFBB9C",
"a$	c #D8C5A9",
"b$	c #D2C4AB",
"c$	c #D6CDB6",
"d$	c #DDD4BF",
"e$	c #DBD4C0",
"f$	c #DBD5C3",
"g$	c #DCD6C1",
"h$	c #DCD4BC",
"i$	c #DBD1B6",
"j$	c #DDD5BF",
"k$	c #CAC4B3",
"l$	c #949085",
"m$	c #AFAA9D",
"n$	c #ACA899",
"o$	c #8C887E",
"p$	c #D7D2BE",
"q$	c #DBD5C1",
"r$	c #DDD7C4",
"s$	c #DCD5C4",
"t$	c #DAD0BE",
"u$	c #D8CCB4",
"v$	c #DACCB5",
"w$	c #D3C3A8",
"x$	c #D1BDA1",
"y$	c #D8C3A0",
"z$	c #D1BFA0",
"A$	c #D5C2A2",
"B$	c #D4C4A8",
"C$	c #D7CDB5",
"D$	c #DBD3BB",
"E$	c #DBD2BC",
"F$	c #DCD4BF",
"G$	c #DBD4BE",
"H$	c #DAD3BB",
"I$	c #DAD3BD",
"J$	c #A8A496",
"K$	c #949086",
"L$	c #C9C3B0",
"M$	c #D7D1BD",
"N$	c #999589",
"O$	c #C0BAA9",
"P$	c #DAD2BB",
"Q$	c #DBD4C2",
"R$	c #DAD4C2",
"S$	c #DAD1BD",
"T$	c #D7CAB1",
"U$	c #D4C5AC",
"V$	c #D2C2AA",
"W$	c #D4BFA3",
"X$	c #D2BE98",
"Y$	c #D3C2A2",
"Z$	c #756B57",
"`$	c #000000",
" %	c #060605",
".%	c #5E5A50",
"+%	c #DBD2BB",
"@%	c #21201D",
"#%	c #4B4841",
"$%	c #DAD2BA",
"%%	c #C0BAAB",
"&%	c #484641",
"*%	c #070706",
"=%	c #615E57",
"-%	c #B6B0A1",
";%	c #B8B1A0",
">%	c #33312B",
",%	c #161614",
"'%	c #A7A394",
")%	c #21211E",
"!%	c #7B776C",
"~%	c #2C2923",
"{%	c #0E0D0B",
"]%	c #D3C1A8",
"^%	c #D1BB9C",
"/%	c #CFB88E",
"(%	c #746955",
"_%	c #26231E",
":%	c #D5CDB6",
"<%	c #676358",
"[%	c #282723",
"}%	c #DBD4BD",
"|%	c #514E46",
"1%	c #DBD1B9",
"2%	c #D7D0BC",
"3%	c #7C786F",
"4%	c #3B3A35",
"5%	c #CAC3B1",
"6%	c #3D3A35",
"7%	c #050505",
"8%	c #C0BBAA",
"9%	c #32312C",
"0%	c #191815",
"a%	c #BFB8A4",
"b%	c #DAD4C1",
"c%	c #5D5A52",
"d%	c #908A7D",
"e%	c #282722",
"f%	c #7A7669",
"g%	c #5C5850",
"h%	c #100F0D",
"i%	c #B6A78E",
"j%	c #D2BEA0",
"k%	c #D1BC9F",
"l%	c #CFBB97",
"m%	c #D3C1A2",
"n%	c #776D5A",
"o%	c #12110F",
"p%	c #3F3D36",
"q%	c #10100E",
"r%	c #3C3A34",
"s%	c #BBB7A7",
"t%	c #615F57",
"u%	c #121210",
"v%	c #9A978B",
"w%	c #CCC6B5",
"x%	c #D8D1BD",
"y%	c #726E64",
"z%	c #1D1D1B",
"A%	c #625F55",
"B%	c #DBD3BE",
"C%	c #D9D3C0",
"D%	c #DBD2C1",
"E%	c #DBD1BE",
"F%	c #23221E",
"G%	c #0B0A09",
"H%	c #B1A590",
"I%	c #D5C6AC",
"J%	c #D1BFA3",
"K%	c #D1BC9C",
"L%	c #D5C3A9",
"M%	c #786E5E",
"N%	c #191714",
"O%	c #767164",
"P%	c #5D5950",
"Q%	c #A69E8C",
"R%	c #282622",
"S%	c #D3CBB7",
"T%	c #A8A396",
"U%	c #5F5B52",
"V%	c #1B1B18",
"W%	c #9F9A8E",
"X%	c #CDC6B6",
"Y%	c #DAD3BF",
"Z%	c #060606",
"`%	c #767267",
" &	c #6A675E",
".&	c #DAD3BE",
"+&	c #DAD2BE",
"@&	c #DAD1BA",
"#&	c #060505",
"$&	c #867D6F",
"%&	c #D9C8AF",
"&&	c #D1BB9E",
"*&	c #CDB895",
"=&	c #D1C0A2",
"-&	c #776D5B",
";&	c #CFC4A8",
">&	c #D3CAB4",
",&	c #787364",
"'&	c #504D45",
")&	c #C2BAA8",
"!&	c #AAA597",
"~&	c #A7A190",
"{&	c #6C6961",
"]&	c #C8C2B2",
"^&	c #55534B",
"/&	c #B6B09F",
"(&	c #312F2B",
"_&	c #C8C2B1",
":&	c #8F897B",
"<&	c #A5A191",
"[&	c #787468",
"}&	c #3F3B35",
"|&	c #0E0D0C",
"1&	c #BDAD94",
"2&	c #D1BD9D",
"3&	c #D1BCA2",
"4&	c #CCB893",
"5&	c #D0BD9F",
"6&	c #766C5B",
"7&	c #0A0908",
"8&	c #24211E",
"9&	c #1A1916",
"0&	c #D8CCB6",
"a&	c #131210",
"b&	c #201F1C",
"c&	c #23221F",
"d&	c #908A7B",
"e&	c #48453E",
"f&	c #191816",
"g&	c #CBC3B1",
"h&	c #A49F91",
"i&	c #141412",
"j&	c #131211",
"k&	c #24221F",
"l&	c #908A7E",
"m&	c #272522",
"n&	c #747064",
"o&	c #D6C9B5",
"p&	c #2C2823",
"q&	c #13120F",
"r&	c #B7A58D",
"s&	c #CEBA9E",
"t&	c #CEBA98",
"u&	c #CDBC9F",
"v&	c #C5B59B",
"w&	c #9A8D7B",
"x&	c #9F9584",
"y&	c #D8CEB5",
"z&	c #D1C8AF",
"A&	c #D4C7AB",
"B&	c #A09989",
"C&	c #868276",
"D&	c #7F7B6F",
"E&	c #A09A89",
"F&	c #CBC2AC",
"G&	c #928D81",
"H&	c #6C695F",
"I&	c #BFB9A7",
"J&	c #A9A394",
"K&	c #C6BEA8",
"L&	c #DAD4BE",
"M&	c #CBC6B4",
"N&	c #7B786C",
"O&	c #615D54",
"P&	c #C2B9A8",
"Q&	c #A8A18F",
"R&	c #D5CBB4",
"S&	c #D0BEA2",
"T&	c #A0917E",
"U&	c #C0AC8A",
"V&	c #CBB792",
"W&	c #CCB695",
"X&	c #CEBC9E",
"Y&	c #D1C0A6",
"Z&	c #CFBDA5",
"`&	c #D4C7B1",
" *	c #D9CEB6",
".*	c #D8CDB7",
"+*	c #D6CCB1",
"@*	c #AAA390",
"#*	c #858076",
"$*	c #C0B6A3",
"%*	c #D9CFB6",
"&*	c #CAC0A9",
"**	c #C1BBA9",
"=*	c #D8D0BA",
"-*	c #A49E90",
";*	c #C2BCA7",
">*	c #DAD5BA",
",*	c #CFC6AF",
"'*	c #A39E90",
")*	c #AFA795",
"!*	c #D1C7AE",
"~*	c #D9CFB9",
"{*	c #D7CFBA",
"]*	c #D5CAB4",
"^*	c #D2C1A7",
"/*	c #D4C2A9",
"(*	c #CEBB9E",
"_*	c #CEB999",
":*	c #CCB997",
"<*	c #CFBDA1",
"[*	c #D2C1A6",
"}*	c #CFBCA2",
"|*	c #D4C9B2",
"1*	c #D8CEB8",
"2*	c #D7CCB5",
"3*	c #D6CCB4",
"4*	c #D3CCB5",
"5*	c #BFB8A3",
"6*	c #D2C9AF",
"7*	c #D7CFB8",
"8*	c #D9CFB5",
"9*	c #B8AD94",
"0*	c #7F7C73",
"a*	c #BEB8A9",
"b*	c #938E82",
"c*	c #AFA693",
"d*	c #D1C6B0",
"e*	c #D2C7AA",
"f*	c #BBB4A0",
"g*	c #D8CEBC",
"h*	c #D8D1BE",
"i*	c #D7CEB9",
"j*	c #D7CDB7",
"k*	c #D3C8B1",
"l*	c #D1C1A7",
"m*	c #D3C1AA",
"n*	c #CDBBA1",
"o*	c #CDB695",
"p*	c #C9B694",
"q*	c #CEBC9F",
"r*	c #CEBCA0",
"s*	c #CCBA9E",
"t*	c #CFC1A9",
"u*	c #D2C4AC",
"v*	c #D2C5AD",
"w*	c #D4CAB1",
"x*	c #D4CAB2",
"y*	c #D7CFB4",
"z*	c #D5CDB3",
"A*	c #D0C2A4",
"B*	c #B5A479",
"C*	c #A09883",
"D*	c #B5AF9F",
"E*	c #C1B8A3",
"F*	c #D0C6AF",
"G*	c #B4AC97",
"H*	c #B3A993",
"I*	c #C6BDA5",
"J*	c #D9D0B8",
"K*	c #D6CDB7",
"L*	c #D6CCB7",
"M*	c #D5CAB5",
"N*	c #D4CAB5",
"O*	c #D4C8B4",
"P*	c #D0C1A8",
"Q*	c #D0BEA6",
"R*	c #CDB89C",
"S*	c #CBB494",
"T*	c #C7B591",
"U*	c #CBB99A",
"V*	c #CEBD9F",
"W*	c #D2C3AA",
"X*	c #D4C7AF",
"Y*	c #D1C6AE",
"Z*	c #D3CAB3",
"`*	c #D3CAB2",
" =	c #D4CCB3",
".=	c #D5CDB7",
"+=	c #D6CEB8",
"@=	c #D5CCB3",
"#=	c #D2C8AC",
"$=	c #D6CAAF",
"%=	c #D5C8B0",
"&=	c #D3C7AD",
"*=	c #D4C7AD",
"==	c #D5CAB0",
"-=	c #D3C7AF",
";=	c #D4CAB4",
">=	c #D3C8B3",
",=	c #D2C7B0",
"'=	c #D2C7AF",
")=	c #D1C4B0",
"!=	c #D1C0A8",
"~=	c #CFBDA3",
"{=	c #C9B492",
"]=	c #C8B28E",
"^=	c #C8B693",
"/=	c #CBB899",
"(=	c #C7B898",
"_=	c #BBAE93",
":=	c #C4B79F",
"<=	c #D1C7B1",
"[=	c #D2C9B2",
"}=	c #D2C9B1",
"|=	c #D4CCB4",
"1=	c #D5CCB6",
"2=	c #D4CBB3",
"3=	c #D5CBB6",
"4=	c #D3C6AD",
"5=	c #D4C5AB",
"6=	c #D5C6AE",
"7=	c #D2C3AB",
"8=	c #D0C4AB",
"9=	c #D3C5AC",
"0=	c #D3C5AB",
"a=	c #D0C2A9",
"b=	c #D0C6B0",
"c=	c #D0C6AE",
"d=	c #D1C6AD",
"e=	c #CABDA5",
"f=	c #C0B59F",
"g=	c #CBBAA1",
"h=	c #D2C0A5",
"i=	c #CAB596",
"j=	c #C8B28C",
"  . + @ # $ % & * = - ; > , ' ) ! ~ { ] ^ / ( _ : < [ } | 1 2 3 ",
"4 5 6 7 8 9 0 a b c d e f g h i j k l m n o p q r s t u v w x y ",
"z A B C D E F G H I J K L M N O P Q R S T U V W X Y Z `  ...+.@.",
"#.$.%.&.*.=.-.;.>.,.'.).O !.~.{.].^./.(._.:.<.,.[.}.|.1.2.3.4.5.",
"6.7.8.9.0.a.b.c.d.e.f.g.h.O i.j.O k.l.m.n.j.,.<.o.p.q.L r.s.t.u.",
"v.w.x.y.z.A.B.C.D.E.F.G.H.I.J.K.L.C.M.N.O.F.P.Q.R.S.T.U.V.1 W.X.",
"Y.Z.`. +.+++@+#+$+%+&+*+=+-+;+K.>+,+'+)+!+F.~+{+]+^+/+(+_+:+<+[+",
"}+|+1+2+3+4+5+6+7+8+9+0+a+F b+7+c+d+e+N.f+F.P.g+h+i+j+k+l+m+n+o+",
"p+q+r+s+t+u+v+w+x+y+z+K.A+B+C+7+D+E+F+B+G+7+H+I+J+K+L+M+N+O+P+Q+",
"R+S+T+U+V+W+X+&+F.7+7+7+Y+Z+`+7+ @.@+@@@#@7+$@%@&@*@=@-@;@>@,@'@",
")@!@~@{@]@^@/@7+(@_@:@<@x+[@}@7+d+|@1@2@3@7+4@5@6@7@8@9@0@a@b@c@",
"d@e@f@g@h@i@j@k@l@m@n@o@7+p@q@F.F.7+7+r@s@7+7+7+7+7+t@u@v@w@x@y@",
"z@A@C B@C@D@E@F@G@H@I@J@K@L@$@M@N@O@P@Q@R@S@T@U@V@W@X@Y@Z@`@ #.#",
"+#@###$#%#&#*#=#-#;#;#>#,#'#)#!#~#l@{#]#^#;#/#(#_#:#<#[#}#|#1#2#",
"3#4#5#6#7#8#9#0#a#b#b#a#c#d#h+e#f#g#P.h#b#i#j#j#k#l#m#n#o#`@p#q#",
"r#s#t#u#v#w#x#Y@y#z#A#B#C#d#D#E#F#G#m#}.H#I#J#j#K#L#J#M#N#w@O#P#",
"Q#R#S#b T#U#V#W#X#Y#Z#`# $L#.$+$@$#$0#q.$$%$&$*$%$%$%$=$-$;$>$,$",
"'$R#)$!$~$X#{$]$^$/$k#z#W#($_$:$<$[$}$|$1$2$3$^$^#2$&$4$5$6$7$8$",
"9$0$a$b$c$d$ $e$f$g$h$i$j$k$l$m$n$o$p$=#1$q$^$f$r$2$s$t$u$v$w$x$",
"y$z$A$B$C$D$E$W#F$ $G$H$I$J$K$L$M$N$O$=#P$I$Q$R$^$g$^$S$T$U$V$W$",
"X$Y$Z$`$`$ %.%+%@%#%$%g$%%&% %`$*%=%-%;%>%`$`$,%'%)%!%t$~%{%]%^%",
"/%Q#(%_%:%<%[%}%[%|%1%2%3%`$4%5%6%7%8%9%0%a%b%c%d%e%f%g%h%i%j%k%",
"l%m%n%o%p%q%r%4$[%|%1$s%t%u%v%w%x%`$y%z%A%B%C%D%E%[%F%G%H%I%J%,$",
"K%L%M%N%O%P% %Q%R%|%S%T%U%V%W%X%Y%Z%`%j. &.&+&@&@&[%E.#&$&%&x$&&",
"*&=&-&_%;&>&0%,&R%'&)&!&~&`${&]&^& %/&(&@%_&E$:&<&[%[&}&|&1&2&3&",
"4&5&6&7&8&#&9&0&[%a&b&c&d&e&`$f&`$z+g&h&i&j&k& %l&m&n&o&p&q&r&s&",
"t&u&v&w&x&y&z&A&B&C&D&E&F&4+G&H&I&J&K&L&M&N&O&P&z&Q&5%R&S&T&U&V&",
"W&X&Y&Z&`& *.*+*@*#*$*I$%*&*h&**=*-*;*>*,*'*G.)*!*~*{*]*^*/*(*_*",
":*<*[*}*|*1*2*3*4*5*6*7*8*9*0*+$a*b*c*d*e*f*$@g*h*i*j*k*l*m*n*o*",
"p*q*r*s*t*u*v*w*x*y*z*z&A*B*C*D*E*F*G*H*I*J*K*L*M*N*O*P*s*Q*R*S*",
"T*U*V*U+W*X*Y*Z*`* =.=+=@=#=$=%=&=*===-=;=4+>=,='=;=O*)=!=~={=]=",
"^=/=X&(=_=:=<=[=Z*}=|=1=2=3=4=5=6=7=8=9=0=a=b=c=[=d=e=f=g=h=i=j="};
