/* XPM */
static char * nrm_back_D_xpm[] = {
"32 32 290 2",
"  	c #C3C2C2",
". 	c #C0BFBF",
"+ 	c #BDBCBC",
"@ 	c #787B7B",
"# 	c #848A8A",
"$ 	c #8E9192",
"% 	c #7B7B7B",
"& 	c #B8B7B7",
"* 	c #BEBEBD",
"= 	c #BCBCBB",
"- 	c #AEAEAE",
"; 	c #8E9393",
"> 	c #9CA6A5",
", 	c #7E8383",
"' 	c #696B6B",
") 	c #676868",
"! 	c #636463",
"~ 	c #A2A2A1",
"{ 	c #BBBBBA",
"] 	c #818686",
"^ 	c #9DA9AA",
"/ 	c #696E6E",
"( 	c #4F4F4F",
"_ 	c #5E5E5E",
": 	c #6E6E6E",
"< 	c #717171",
"[ 	c #5F5F5F",
"} 	c #A4A4A3",
"| 	c #BCBCBC",
"1 	c #B9B9B9",
"2 	c #979898",
"3 	c #798283",
"4 	c #555A5A",
"5 	c #383838",
"6 	c #494949",
"7 	c #696969",
"8 	c #6D6D6D",
"9 	c #676767",
"0 	c #7A7A7A",
"a 	c #B9B9B8",
"b 	c #7C7F7E",
"c 	c #606768",
"d 	c #303131",
"e 	c #333232",
"f 	c #4C4C4C",
"g 	c #636363",
"h 	c #727272",
"i 	c #666666",
"j 	c #646464",
"k 	c #C0B3B2",
"l 	c #E99797",
"m 	c #FD7676",
"n 	c #EE6161",
"o 	c #C49F9F",
"p 	c #BBBABA",
"q 	c #B5B4B4",
"r 	c #717474",
"s 	c #4C5151",
"t 	c #272828",
"u 	c #353535",
"v 	c #686868",
"w 	c #EA8F8F",
"x 	c #FF7272",
"y 	c #FF5252",
"z 	c #FF1A1A",
"A 	c #E61A1A",
"B 	c #BAB9B8",
"C 	c #B7B6B5",
"D 	c #A5A4A3",
"E 	c #64696A",
"F 	c #35393A",
"G 	c #242424",
"H 	c #393939",
"I 	c #4B4B4B",
"J 	c #5B5B5B",
"K 	c #626262",
"L 	c #606060",
"M 	c #D03030",
"N 	c #FF1111",
"O 	c #FF0303",
"P 	c #FF0000",
"Q 	c #FF0E0E",
"R 	c #FF2A2A",
"S 	c #FD3737",
"T 	c #FF0C0C",
"U 	c #EB0000",
"V 	c #CC0000",
"W 	c #BAA3A2",
"X 	c #B8B8B8",
"Y 	c #B5B5B4",
"Z 	c #909190",
"` 	c #555B5B",
" .	c #252728",
"..	c #3B3B3B",
"+.	c #575757",
"@.	c #5D5D5D",
"#.	c #5C5C5C",
"$.	c #D72626",
"%.	c #E30000",
"&.	c #D90000",
"*.	c #C00000",
"=.	c #B00D0D",
"-.	c #B5AFAE",
";.	c #B8B8B7",
">.	c #B4B4B3",
",.	c #7F8080",
"'.	c #484E4E",
").	c #1E1F1F",
"!.	c #252525",
"~.	c #3A3A3A",
"{.	c #555555",
"].	c #5A5A5A",
"^.	c #BA9493",
"/.	c #C01717",
"(.	c #B00000",
"_.	c #B00F0F",
":.	c #B38585",
"<.	c #B7B7B6",
"[.	c #B3B3B2",
"}.	c #737575",
"|.	c #383D3D",
"1.	c #171818",
"2.	c #484848",
"3.	c #545454",
"4.	c #595959",
"5.	c #B39E9D",
"6.	c #B6B4B5",
"7.	c #B2B0B1",
"8.	c #767677",
"9.	c #2A2D2E",
"0.	c #131314",
"a.	c #272626",
"b.	c #474747",
"c.	c #525252",
"d.	c #565656",
"e.	c #535353",
"f.	c #636263",
"g.	c #B4B4B4",
"h.	c #B0B0B0",
"i.	c #838383",
"j.	c #191B1B",
"k.	c #0A0A0A",
"l.	c #212121",
"m.	c #363636",
"n.	c #454545",
"o.	c #515151",
"p.	c #444444",
"q.	c #858585",
"r.	c #B4B2B2",
"s.	c #B0AEAE",
"t.	c #A9A7A7",
"u.	c #535455",
"v.	c #0C0D0E",
"w.	c #0E0E0E",
"x.	c #404040",
"y.	c #3D3D3D",
"z.	c #464646",
"A.	c #A2A1A1",
"B.	c #B3B1B1",
"C.	c #AFADAD",
"D.	c #858787",
"E.	c #889293",
"F.	c #2D3030",
"G.	c #020202",
"H.	c #131313",
"I.	c #232323",
"J.	c #2C2C2C",
"K.	c #373737",
"L.	c #757373",
"M.	c #B1B0B0",
"N.	c #ADACAC",
"O.	c #787C7D",
"P.	c #575C5D",
"Q.	c #2A2C2B",
"R.	c #292929",
"S.	c #343434",
"T.	c #585858",
"U.	c #616161",
"V.	c #A4A3A3",
"W.	c #B0AFAF",
"X.	c #ACABAB",
"Y.	c #797A7A",
"Z.	c #363A3B",
"`.	c #121111",
" +	c #2E2D2D",
".+	c #AAA9A9",
"++	c #AEADAE",
"@+	c #AAA9AA",
"#+	c #808081",
"$+	c #1A1D1D",
"%+	c #000000",
"&+	c #161616",
"*+	c #2B2C2C",
"=+	c #424242",
"-+	c #ADACAD",
";+	c #A9A8A9",
">+	c #9D9C9D",
",+	c #424445",
"'+	c #3D4242",
")+	c #3B3F3E",
"!+	c #929192",
"~+	c #A8A7A7",
"{+	c #A5A4A4",
"]+	c #767A7A",
"^+	c #6E7777",
"/+	c #484A4A",
"(+	c #6B6B6B",
"_+	c #565555",
":+	c #A7A6A6",
"<+	c #ABAAAA",
"[+	c #6D7171",
"}+	c #434748",
"|+	c #292828",
"1+	c #434343",
"2+	c #9A9A9A",
"3+	c #A6A5A5",
"4+	c #666869",
"5+	c #2A2C2C",
"6+	c #1D1D1D",
"7+	c #4A4A4A",
"8+	c #908F8F",
"9+	c #A9A8A8",
"0+	c #646565",
"a+	c #1E2020",
"b+	c #161717",
"c+	c #474848",
"d+	c #414141",
"e+	c #858484",
"f+	c #A7A7A7",
"g+	c #A3A3A3",
"h+	c #636464",
"i+	c #151616",
"j+	c #1C1D1D",
"k+	c #464849",
"l+	c #595C5C",
"m+	c #686B6C",
"n+	c #5F6061",
"o+	c #3E3E3E",
"p+	c #A7A5A6",
"q+	c #A3A1A2",
"r+	c #818081",
"s+	c #363939",
"t+	c #656C6C",
"u+	c #737979",
"v+	c #737676",
"w+	c #717374",
"x+	c #686A6A",
"y+	c #999798",
"z+	c #A1A0A0",
"A+	c #6F7474",
"B+	c #696F6F",
"C+	c #454747",
"D+	c #4E4E4E",
"E+	c #868585",
"F+	c #A4A3A4",
"G+	c #A09E9F",
"H+	c #646768",
"I+	c #2F3031",
"J+	c #2B2B2B",
"K+	c #777677",
"L+	c #9F9E9E",
"M+	c #626363",
"N+	c #202020",
"O+	c #3F3F3F",
"P+	c #6F6F6F",
"Q+	c #A4A2A2",
"R+	c #9F9D9D",
"S+	c #171919",
"T+	c #1E1E1E",
"U+	c #747373",
"V+	c #A2A1A2",
"W+	c #919091",
"X+	c #303233",
"Y+	c #3C3C3C",
"Z+	c #858485",
"`+	c #A19FA0",
" @	c #9C9A9B",
".@	c #333536",
"+@	c #3B3A3A",
"@@	c #414040",
"#@	c #9A9899",
"$@	c #9F9E9F",
"%@	c #9B9A9B",
"&@	c #333636",
"*@	c #8D8C8D",
"=@	c #A3A2A3",
"-@	c #8A8A8B",
";@	c #404242",
">@	c #424141",
",@	c #646364",
"  . . . . . + @ # $ % & . . . . . . . . . . . . . . . . . . .   ",
"* = = = = - ; > , ' ) ! ~ = = = = = = = = = = = = = = = = = = * ",
"* { { { { ] ^ / ( _ : < [ } { { { { { { { { { { { { { { { { { * ",
"| 1 1 1 2 3 4 5 6 7 % 8 9 0 1 1 1 1 1 1 1 1 1 1 1 1 1 1 1 1 1 | ",
"= a a a b c d e f g h 7 i j a a a a a a a a a a k l m n o a a = ",
"p & & q r s t u f _ v i g _ & & & & & & & & & & w x y z A & & p ",
"B C C D E F G H I J g K L M N O P P P P P P Q R S R T U V W C B ",
"X Y Y Z `  .G ..I +._ [ @.#.Y Y Y Y Y Y Y Y Y Y $.%.&.*.=.-.Y X ",
";.>.>.,.'.).!.~.6 {.#.#.].@.>.>.>.>.>.>.>.>.>.>.^./.(._.:.>.>.;.",
"<.[.[.}.|.1.!.~.2.3.4.4.+.J [.[.[.[.[.[.[.[.[.[.[.[.5.[.[.[.[.<.",
"6.7.7.8.9.0.a.~.b.c.+.d.e.f.7.7.7.7.7.7.7.7.7.7.7.7.7.7.7.7.7.6.",
"g.h.h.i.j.k.l.m.n.( e.o.p.q.h.h.h.h.h.h.h.h.h.h.h.h.h.h.h.h.h.g.",
"r.s.s.t.u.v.w.t 5 x.p.y.z.A.s.s.s.s.s.s.s.s.s.s.s.s.s.s.s.s.s.r.",
"B.C.C.D.E.F.G.H.I.J.K.y.L.C.C.C.C.C.C.C.C.C.C.C.C.C.C.C.C.C.C.B.",
"M.N.N.O.P.Q.R.S.b.d.T.U.{.V.N.N.N.N.N.N.N.N.N.N.N.N.N.N.N.N.N.M.",
"W.X.X.Y.Z.`. +p.d.U.@.3.T..+X.X.X.X.X.X.X.X.X.X.X.X.X.X.X.X.X.W.",
"++@+@+#+$+%+&+*+~.=+z...< @+@+@+@+@+@+@+@+@+@+@+@+@+@+@+@+@+@+++",
"-+;+;+>+,+'+)+..n.f f x.!+;+;+;+;+;+;+;+;+;+;+;+;+;+;+;+;+;+;+-+",
"X.~+~+{+]+^+/+f j (+g _+:+~+~+~+~+~+~+~+~+~+~+~+~+~+~+~+~+~+~+X.",
"<+:+:+{+[+}+|+1+@.i _ o.2+:+:+:+:+:+:+:+:+:+:+:+:+:+:+:+:+:+:+<+",
".+3+3+3+4+5+6+..f d.T.7+8+3+3+3+3+3+3+3+3+3+3+3+3+3+3+3+3+3+3+.+",
"9+{+{+{+0+a+b+m.c+e.3.d+e+{+{+{+{+{+{+{+{+{+{+{+{+{+{+{+{+{+{+9+",
"f+g+g+g+h+i+j+k+l+m+n+o+i.g+g+g+g+g+g+g+g+g+g+g+g+g+g+g+g+g+g+f+",
"p+q+q+q+r+s+t+u+v+w+x+o.y+q+q+q+q+q+q+q+q+q+q+q+q+q+q+q+q+q+q+p+",
"{+z+z+z+z+A+B+C+o.i j D+E+z+z+z+z+z+z+z+z+z+z+z+z+z+z+z+z+z+z+{+",
"F+G+G+G+G+H+I+J+n.T.#.I K+G+G+G+G+G+G+G+G+G+G+G+G+G+G+G+G+G+G+F+",
"V.L+L+L+L+M+a+N+O+( D+n.P+L+L+L+L+L+L+L+L+L+L+L+L+L+L+L+L+L+L+V.",
"Q+R+R+R+R+P+S+T+x.e.b.H U+R+R+R+R+R+R+R+R+R+R+R+R+R+R+R+R+R+R+Q+",
"V+>+>+>+>+W+X+X+Y+c.d+u Z+>+>+>+>+>+>+>+>+>+>+>+>+>+>+>+>+>+>+V+",
"`+ @ @ @ @ @f..@+@e.u @@#@ @ @ @ @ @ @ @ @ @ @ @ @ @ @ @ @ @ @`+",
"$@%@%@%@%@%@Z+&@H e.z.*@%@%@%@%@%@%@%@%@%@%@%@%@%@%@%@%@%@%@%@$@",
"=@$@$@$@$@$@-@;@>@d.,@$@$@$@$@$@$@$@$@$@$@$@$@$@$@$@$@$@$@$@$@=@"};
