/* XPM */
static char * nrm_rtikleg_xpm[] = {
"32 32 389 2",
"  	c #C3C2C2",
". 	c #C0BFBF",
"+ 	c #B7B6B6",
"@ 	c #BABABA",
"# 	c #BFBFBF",
"$ 	c #B6B6B6",
"% 	c #A9A8A8",
"& 	c #8E8E8E",
"* 	c #878686",
"= 	c #B9B8B8",
"- 	c #BEBDBD",
"; 	c #BEBEBD",
"> 	c #BCBCBB",
", 	c #B7B7B7",
"' 	c #C0C0C0",
") 	c #C4C4C4",
"! 	c #B8B8B8",
"~ 	c #C5C5C5",
"{ 	c #A3A3A3",
"] 	c #7A7A7A",
"^ 	c #B2B2B1",
"/ 	c #BBBBBA",
"( 	c #CBCDCD",
"_ 	c #D4D4D5",
": 	c #CFCFCF",
"< 	c #C9C8C8",
"[ 	c #BDBDBD",
"} 	c #AFAFAF",
"| 	c #878787",
"1 	c #5C5C5B",
"2 	c #A6A6A5",
"3 	c #B6B6B5",
"4 	c #898988",
"5 	c #000000",
"6 	c #646463",
"7 	c #969695",
"8 	c #BCBCBC",
"9 	c #B9B9B9",
"0 	c #B7AFAF",
"a 	c #B8BBBB",
"b 	c #AFAEAE",
"c 	c #9B9B9B",
"d 	c #909090",
"e 	c #838383",
"f 	c #6A6A6A",
"g 	c #626262",
"h 	c #9A9A9A",
"i 	c #B1B1B1",
"j 	c #6F6F6F",
"k 	c #949494",
"l 	c #B9B9B8",
"m 	c #B9B3B2",
"n 	c #E4A4A5",
"o 	c #A98F8F",
"p 	c #777A7A",
"q 	c #656565",
"r 	c #5D5D5D",
"s 	c #50504F",
"t 	c #696969",
"u 	c #868686",
"v 	c #787878",
"w 	c #ACACAB",
"x 	c #B8B8B7",
"y 	c #6F6F6E",
"z 	c #ADADAC",
"A 	c #0C0C0C",
"B 	c #4A4A4A",
"C 	c #BBBABA",
"D 	c #B8B7B7",
"E 	c #BCA9A9",
"F 	c #F5A3A3",
"G 	c #8D4747",
"H 	c #3C4242",
"I 	c #3B3B3B",
"J 	c #353535",
"K 	c #444444",
"L 	c #666565",
"M 	c #999899",
"N 	c #6A6969",
"O 	c #A4A3A3",
"P 	c #B4B3B3",
"Q 	c #6E6E6E",
"R 	c #313131",
"S 	c #252525",
"T 	c #BAB9B8",
"U 	c #B7B6B5",
"V 	c #C4A1A0",
"W 	c #F29494",
"X 	c #783838",
"Y 	c #848382",
"Z 	c #717171",
"` 	c #797877",
" .	c #908F8F",
"..	c #7E7D7C",
"+.	c #898989",
"@.	c #8A8988",
"#.	c #AEADAC",
"$.	c #B6B5B4",
"%.	c #6E6D6D",
"&.	c #ABAAA9",
"*.	c #B5B5B4",
"=.	c #D1A2A1",
"-.	c #E17978",
";.	c #764A49",
">.	c #929291",
",.	c #A0A0A0",
"'.	c #A4A4A3",
").	c #A5A5A4",
"!.	c #A8A8A7",
"~.	c #848483",
"{.	c #6C6C6C",
"].	c #6D6D6C",
"^.	c #919190",
"/.	c #484848",
"(.	c #B4B4B3",
"_.	c #DFA7A7",
":.	c #C65859",
"<.	c #7B6261",
"[.	c #999998",
"}.	c #B3B3B2",
"|.	c #8B8B8B",
"1.	c #848485",
"2.	c #949493",
"3.	c #6C6C6B",
"4.	c #787877",
"5.	c #90908F",
"6.	c #B7B7B6",
"7.	c #B5ADAC",
"8.	c #EEAAAA",
"9.	c #AA3C3C",
"0.	c #837A79",
"a.	c #9E9E9D",
"b.	c #AFAFAE",
"c.	c #717170",
"d.	c #6B6B6A",
"e.	c #6B6B6B",
"f.	c #30302F",
"g.	c #242424",
"h.	c #B6B4B5",
"i.	c #B2B0B1",
"j.	c #BCA3A3",
"k.	c #F2A2A2",
"l.	c #8B3738",
"m.	c #8C8B8C",
"n.	c #A2A0A1",
"o.	c #B0AEAF",
"p.	c #B1AFB0",
"q.	c #848384",
"r.	c #7A797A",
"s.	c #9B999A",
"t.	c #7E7D7D",
"u.	c #838182",
"v.	c #9A9999",
"w.	c #5F5E5E",
"x.	c #B4B4B4",
"y.	c #B0B0B0",
"z.	c #C79F9F",
"A.	c #F08E8E",
"B.	c #763F40",
"C.	c #8F8F8F",
"D.	c #A5A5A5",
"E.	c #A2A2A2",
"F.	c #ABABAB",
"G.	c #757575",
"H.	c #B4B2B2",
"I.	c #B0AEAE",
"J.	c #DAA5A6",
"K.	c #DE6E6E",
"L.	c #734D4D",
"M.	c #939191",
"N.	c #A8A6A6",
"O.	c #AEACAC",
"P.	c #838282",
"Q.	c #C0C0BF",
"R.	c #727272",
"S.	c #9C9A9A",
"T.	c #ACAAAA",
"U.	c #B3B1B1",
"V.	c #AFADAD",
"W.	c #B1A5A5",
"X.	c #EDAFAF",
"Y.	c #C04F4F",
"Z.	c #786464",
"`.	c #969595",
" +	c #A9A7A7",
".+	c #959393",
"++	c #B0B0B1",
"@+	c #797777",
"#+	c #A5A3A3",
"$+	c #B1B0B0",
"%+	c #ADACAC",
"&+	c #B59E9E",
"*+	c #F1A4A4",
"=+	c #A73433",
"-+	c #7F7474",
";+	c #999898",
">+	c #AAA9A9",
",+	c #858585",
"'+	c #AAAAAA",
")+	c #9B9A9A",
"!+	c #B0AFAF",
"~+	c #ACABAB",
"{+	c #BA9898",
"]+	c #F09798",
"^+	c #8E3434",
"/+	c #888787",
"(+	c #9D9C9C",
"_+	c #ABAAAA",
":+	c #929191",
"<+	c #ADAEAE",
"[+	c #919191",
"}+	c #A5A4A4",
"|+	c #AEADAE",
"1+	c #AAA9AA",
"2+	c #B18D8E",
"3+	c #E16B6B",
"4+	c #972A2A",
"5+	c #868081",
"6+	c #9E9D9E",
"7+	c #A9A8A9",
"8+	c #A1A0A1",
"9+	c #737373",
"0+	c #7D7C7D",
"a+	c #9F9E9F",
"b+	c #ADACAD",
"c+	c #AC9091",
"d+	c #E77475",
"e+	c #C32E2E",
"f+	c #7B5859",
"g+	c #9B9A9B",
"h+	c #A8A7A8",
"i+	c #7E7E7E",
"j+	c #6D6C6D",
"k+	c #A7A6A7",
"l+	c #A8A7A7",
"m+	c #A59999",
"n+	c #DF6968",
"o+	c #D43C3D",
"p+	c #783232",
"q+	c #939292",
"r+	c #A3A2A2",
"s+	c #818181",
"t+	c #605F5F",
"u+	c #A7A6A6",
"v+	c #A6A5A5",
"w+	c #CA6767",
"x+	c #DF4D4D",
"y+	c #8D1F1F",
"z+	c #837777",
"A+	c #9E9D9D",
"B+	c #A09F9F",
"C+	c #ADADAD",
"D+	c #595858",
"E+	c #A2A1A1",
"F+	c #B96D6D",
"G+	c #E45B5B",
"H+	c #AD2424",
"I+	c #724F4F",
"J+	c #979696",
"K+	c #959494",
"L+	c #545454",
"M+	c #8F8E8E",
"N+	c #AC7676",
"O+	c #E56262",
"P+	c #CB2B2B",
"Q+	c #712B2B",
"R+	c #8E8D8D",
"S+	c #9F9E9E",
"T+	c #969696",
"U+	c #525252",
"V+	c #8B8A8A",
"W+	c #A7A7A7",
"X+	c #A18686",
"Y+	c #E36666",
"Z+	c #DA3E3E",
"`+	c #861C1C",
" @	c #7E7070",
".@	c #999999",
"+@	c #AEAEAE",
"@@	c #535353",
"#@	c #A7A5A6",
"$@	c #A3A1A2",
"%@	c #A09697",
"&@	c #DB6969",
"*@	c #E05353",
"=@	c #A31F1F",
"-@	c #704E4D",
";@	c #939192",
">@	c #A09E9F",
",@	c #989798",
"'@	c #9D9D9D",
")@	c #5C5C5C",
"!@	c #7B7A7B",
"~@	c #999798",
"{@	c #A1A0A0",
"]@	c #CE6E6E",
"^@	c #E36363",
"/@	c #BA2727",
"(@	c #6D2929",
"_@	c #8D8D8D",
":@	c #6E6F6E",
"<@	c #949393",
"[@	c #A4A3A4",
"}@	c #C47878",
"|@	c #E77979",
"1@	c #CD3333",
"2@	c #741617",
"3@	c #7E7374",
"4@	c #979596",
"5@	c #9F9D9E",
"6@	c #8E8C8D",
"7@	c #949495",
"8@	c #6D6D6D",
"9@	c #5C5A5B",
"0@	c #8F8D8E",
"a@	c #9D9B9C",
"b@	c #C07B7B",
"c@	c #E46F6F",
"d@	c #B82B2B",
"e@	c #621313",
"f@	c #756060",
"g@	c #8C8C8C",
"h@	c #737372",
"i@	c #807F7F",
"j@	c #A4A2A2",
"k@	c #9F9D9D",
"l@	c #A69797",
"m@	c #E8A4A4",
"n@	c #EA8484",
"o@	c #A03535",
"p@	c #6B1514",
"q@	c #715A5A",
"r@	c #8F8D8D",
"s@	c #9D9B9B",
"t@	c #9A9898",
"u@	c #929292",
"v@	c #707070",
"w@	c #878585",
"x@	c #9E9C9C",
"y@	c #A2A1A2",
"z@	c #9D9C9D",
"A@	c #AA9494",
"B@	c #CA7879",
"C@	c #B74646",
"D@	c #934545",
"E@	c #812F2F",
"F@	c #601212",
"G@	c #6C5D5D",
"H@	c #9A999A",
"I@	c #9C9B9C",
"J@	c #868586",
"K@	c #6E6D6E",
"L@	c #7D7D7D",
"M@	c #848585",
"N@	c #616061",
"O@	c #A19FA0",
"P@	c #9C9A9B",
"Q@	c #AD8788",
"R@	c #EDA0A0",
"S@	c #DC7F7F",
"T@	c #9B2C2C",
"U@	c #511313",
"V@	c #693636",
"W@	c #6A5757",
"X@	c #7E7C7D",
"Y@	c #9A9899",
"Z@	c #989697",
"`@	c #848283",
" #	c #747374",
".#	c #727172",
"+#	c #7F7D7E",
"@#	c #929091",
"##	c #9B8585",
"$#	c #A77B7B",
"%#	c #936666",
"&#	c #744B4B",
"*#	c #716869",
"=#	c #828182",
"-#	c #8B8A8B",
";#	c #969596",
">#	c #919091",
",#	c #898889",
"'#	c #8E8D8E",
")#	c #949394",
"!#	c #A3A2A3",
"~#	c #959495",
"{#	c #8A8A8A",
"]#	c #878687",
"^#	c #979697",
"  . . . . . . . . + @ # $ % & * = - . . . . . . . . . . . . .   ",
"; > > > > > > > > , ' ) ! ~ ' { ] ^ / > > > > > > > > > > > > ; ",
"; / / / / / / / / ( _ : < [ } | 1 2 3 / / 4 5 / 4 5 / / 6 5 7 ; ",
"8 9 9 9 9 9 9 9 ! 0 a b c d e f g h i 9 9 j 5 9 j 5 9 k 5 j 9 8 ",
"> l l l l l l l m n o p q r s t u v w x l y 5 l y 5 z A B l l > ",
"C D D D D D D D E F G H I J K L M N O P D Q 5 D Q 5 R S D D D C ",
"T U U U U U U U V W X Y Z `  ...c +.@.#.$.%.5 U %.5 5 A &.U U T ",
"! *.*.*.*.*.*.*.=.-.;.>.,.'.).!.~.i {.).^ ].5 *.].5 ^.A /.*.*.! ",
"x (.(.(.(.(.(.(._.:.<.[.w ^ ^ }.|., 1.2.z 3.5 (.3.5 (.4.5 5.(.x ",
"6.}.}.}.}.}.}.7.8.9.0.a.b.}.}.}.b.2.} c.2 d.5 }.e.5 }.}.f.g.}.6.",
"h.i.i.i.i.i.i.j.k.l.m.n.o.i.i.i.p.q.[ r.s.t.5 i.u.5 i.i.v.5 w.h.",
"x.y.y.y.y.y.y.z.A.B.C.D.} y.y.y.y.E.E.F.G.D.} y.y.y.y.y.y.y.y.x.",
"H.I.I.I.I.I.I.J.K.L.M.N.I.I.I.I.I.O.P.Q.R.S.T.I.I.I.I.I.I.I.I.H.",
"U.V.V.V.V.V.W.X.Y.Z.`. +V.V.V.V.V.V..+++c @+#+O.V.V.V.V.V.V.V.U.",
"$+%+%+%+%+%+&+*+=+-+;+% %+%+%+%+%+%+>+,+'+L )+>+%+%+%+%+%+%+%+$+",
"!+~+~+~+~+~+{+]+^+/+(+>+~+~+~+~+~+~+_+:+<+G.[+}+~+~+~+~+~+~+~+!+",
"|+1+1+1+1+1+2+3+4+5+6+7+1+1+1+1+1+1+1+8+'+9+0+a+7+1+1+1+1+1+1+|+",
"b+7+7+7+7+7+c+d+e+f+g+h+7+7+7+7+7+7+7+6+i i+j+h k+7+7+7+7+7+7+b+",
"~+l+l+l+l+l+m+n+o+p+q+r+l+l+l+l+l+l+l+v.} s+t+`.}+l+l+l+l+l+l+~+",
"_+u+u+u+u+u+v+w+x+y+z+A+v+u+u+u+u+u+u+B+C+,+D+:+E+u+u+u+u+u+u+_+",
">+v+v+v+v+v+}+F+G+H+I+J+r+v+v+v+v+v+v+K+y.|.L+M+B+v+v+v+v+v+v+>+",
"% }+}+}+}+}+}+N+O+P+Q+R+S+}+}+}+}+}+}+T+y.C.U+V+A+}+}+}+}+}+}+% ",
"W+{ { { { { { X+Y+Z+`+ @.@E.{ { { { { c +@T+@@| c { { { { { { W+",
"#@$@$@$@$@$@$@%@&@*@=@-@;@>@$@$@$@$@$@,@<+'@)@!@~@n.$@$@$@$@$@#@",
"}+{@{@{@{@{@{@B+]@^@/@(@V+)+{@{@{@{@{@_@i W+:@N <@B+{@{@{@{@{@}+",
"[@>@>@>@>@>@>@>@}@|@1@2@3@4@5@>@>@>@>@6@7@c 8@9@0@a@>@>@>@>@>@[@",
"O S+S+S+S+S+S+S+b@c@d@e@f@:+A+S+S+S+S+;+g@E.(+h@i@;+S+S+S+S+S+O ",
"j@k@k@k@k@k@k@l@m@n@o@p@q@r@s@k@k@k@k@t@u@E.i+v@L w@S.x@k@k@k@j@",
"y@z@z@z@z@z@A@B@C@D@E@F@G@m.H@z@z@z@z@I@J@K@)@L@M@N@v@,@I@z@z@y@",
"O@P@P@P@P@Q@R@S@T@U@V@W@X@0@Y@P@P@P@P@P@Z@0@`@ #.#K@+#@#Y@P@P@O@",
"a+g+g+g+g+##$#%#&#*#!@=#-#;#H@g+g+g+g+g+H@M ;#>#-#,#'#)#M g+g+a+",
"!#a+a+a+a+z@~#{#]#{#>#^#g+6+a+a+a+a+a+a+a+a+a+6+z@g+z@6+6+a+a+!#"};
