/* XPM */
static char * nrm_rtfkarm_xpm[] = {
"32 32 450 2",
"  	c #C3C2C2",
". 	c #C0BFBF",
"+ 	c #BEBEBD",
"@ 	c #BCBCBB",
"# 	c #BBBBBA",
"$ 	c #969695",
"% 	c #000000",
"& 	c #3E3E3E",
"* 	c #0C0C0C",
"= 	c #898988",
"- 	c #BCBCBC",
"; 	c #B9B9B9",
"> 	c #888888",
", 	c #ADADAD",
"' 	c #565656",
") 	c #B9B9B8",
"! 	c #BDB2B1",
"~ 	c #CE9D9D",
"{ 	c #DD7D7D",
"] 	c #A98E8E",
"^ 	c #B5B5B4",
"/ 	c #B8B8B7",
"( 	c #888887",
"_ 	c #252525",
": 	c #4A4A4A",
"< 	c #BBBABA",
"[ 	c #B8B7B7",
"} 	c #BDA3A3",
"| 	c #F8A0A0",
"1 	c #FFABAB",
"2 	c #FF8B8B",
"3 	c #BC3838",
"4 	c #A8A2A2",
"5 	c #B3B2B2",
"6 	c #878686",
"7 	c #626262",
"8 	c #565555",
"9 	c #BAB9B8",
"0 	c #B7B6B5",
"a 	c #C48C8C",
"b 	c #EF8B8B",
"c 	c #FFBEBE",
"d 	c #FF9F9F",
"e 	c #FF6363",
"f 	c #FE1717",
"g 	c #9E4747",
"h 	c #AD9191",
"i 	c #B2ACAB",
"j 	c #B6B5B4",
"k 	c #868585",
"l 	c #B8B8B8",
"m 	c #E28383",
"n 	c #FC9595",
"o 	c #FFA3A3",
"p 	c #FF716F",
"q 	c #FF2523",
"r 	c #F40707",
"s 	c #F60E0D",
"t 	c #E66F6F",
"u 	c #893A3A",
"v 	c #ACACAB",
"w 	c #B3B3B2",
"x 	c #858584",
"y 	c #545454",
"z 	c #181818",
"A 	c #A9A9A8",
"B 	c #B0B0B0",
"C 	c #A9A9A9",
"D 	c #B4B4B3",
"E 	c #CD5D5D",
"F 	c #F55656",
"G 	c #FF2121",
"H 	c #F40909",
"I 	c #FF1717",
"J 	c #CC0000",
"K 	c #C20000",
"L 	c #9B0101",
"M 	c #744948",
"N 	c #9D9D9D",
"O 	c #AEAEAD",
"P 	c #90908F",
"Q 	c #A8A8A7",
"R 	c #242424",
"S 	c #60605F",
"T 	c #BBA2A1",
"U 	c #C7C4C4",
"V 	c #CBCBCB",
"W 	c #C5C5C5",
"X 	c #B7B7B6",
"Y 	c #AD6160",
"Z 	c #E22929",
"` 	c #FF3838",
" .	c #FF201E",
"..	c #ED0000",
"+.	c #A70000",
"@.	c #950000",
"#.	c #592828",
"$.	c #8A8A89",
"%.	c #9D9D9C",
"&.	c #ADADAC",
"*.	c #B5B0AF",
"=.	c #DF9A99",
"-.	c #F79C9D",
";.	c #FF9999",
">.	c #E4C1C1",
",.	c #CDCDCD",
"'.	c #A8A8A8",
").	c #B6B4B5",
"!.	c #B2B0B1",
"~.	c #A27172",
"{.	c #B62E2E",
"].	c #FF4848",
"^.	c #F20303",
"/.	c #930000",
"(.	c #900000",
"_.	c #710000",
":.	c #6C4A4A",
"<.	c #929091",
"[.	c #A5A4A5",
"}.	c #B1AFB0",
"|.	c #E38383",
"1.	c #FFC2C2",
"2.	c #FF9E9E",
"3.	c #E89A9A",
"4.	c #8F8F8F",
"5.	c #B4B4B4",
"6.	c #A79696",
"7.	c #9D4747",
"8.	c #FF3F3F",
"9.	c #FA0707",
"0.	c #9A0000",
"a.	c #870000",
"b.	c #620808",
"c.	c #847F7F",
"d.	c #999999",
"e.	c #AAAAAA",
"f.	c #B09B9B",
"g.	c #FD8787",
"h.	c #FFAFAF",
"i.	c #FFA7A7",
"j.	c #FF7F7F",
"k.	c #DD7E7E",
"l.	c #989898",
"m.	c #838383",
"n.	c #B4B2B2",
"o.	c #B0AEAE",
"p.	c #AEACAC",
"q.	c #9E7272",
"r.	c #FF2828",
"s.	c #FF1515",
"t.	c #B50000",
"u.	c #8C0000",
"v.	c #931515",
"w.	c #8A8888",
"x.	c #A19F9F",
"y.	c #A88A8A",
"z.	c #FF6B6B",
"A.	c #FF8686",
"B.	c #FF7575",
"C.	c #FF4D4D",
"D.	c #CD6B6B",
"E.	c #7D7D7D",
"F.	c #B3B1B1",
"G.	c #AFADAD",
"H.	c #A69E9E",
"I.	c #F01C1C",
"J.	c #FF1818",
"K.	c #B40707",
"L.	c #E50000",
"M.	c #EE6868",
"N.	c #962929",
"O.	c #9E9C9C",
"P.	c #ACAAAA",
"Q.	c #AD9E9E",
"R.	c #F84848",
"S.	c #FF4040",
"T.	c #FE2F2F",
"U.	c #F30C0C",
"V.	c #BF5A58",
"W.	c #8B8B8B",
"X.	c #7A7979",
"Y.	c #B1B0B0",
"Z.	c #ADACAC",
"`.	c #ACABAB",
" +	c #BC3333",
".+	c #FF1616",
"++	c #A50D0D",
"@+	c #FF2A2A",
"#+	c #FF8886",
"$+	c #FF3434",
"%+	c #902E2E",
"&+	c #A09F9F",
"*+	c #AAA9A9",
"=+	c #D27A7A",
"-+	c #FFA2A4",
";+	c #FF2626",
">+	c #C00000",
",+	c #AE0000",
"'+	c #A36B6B",
")+	c #878787",
"!+	c #787878",
"~+	c #B0AFAF",
"{+	c #995F5F",
"]+	c #DB1313",
"^+	c #FF4A4A",
"/+	c #962C2C",
"(+	c #9F9898",
"_+	c #A9A8A8",
":+	c #B09E9E",
"<+	c #FB9696",
"[+	c #FF9898",
"}+	c #D74141",
"|+	c #721919",
"1+	c #763333",
"2+	c #8D8484",
"3+	c #767676",
"4+	c #AEADAE",
"5+	c #AAA9AA",
"6+	c #BB5B5B",
"7+	c #FF7373",
"8+	c #FF8383",
"9+	c #FD7C7C",
"0+	c #FF5C5C",
"a+	c #FF4F4F",
"b+	c #FF4545",
"c+	c #982828",
"d+	c #9D9B9C",
"e+	c #A7A6A7",
"f+	c #DF7777",
"g+	c #FFA9A7",
"h+	c #E65656",
"i+	c #960303",
"j+	c #796262",
"k+	c #5B5B5B",
"l+	c #858586",
"m+	c #858585",
"n+	c #747474",
"o+	c #ADACAD",
"p+	c #A9A8A9",
"q+	c #A75152",
"r+	c #E73A3B",
"s+	c #E75656",
"t+	c #EF4C4C",
"u+	c #F94F4F",
"v+	c #FF5252",
"w+	c #FF2424",
"x+	c #962626",
"y+	c #9C9A9B",
"z+	c #A6A5A6",
"A+	c #B19494",
"B+	c #FE9D9D",
"C+	c #FF7D7D",
"D+	c #AD1616",
"E+	c #5A2727",
"F+	c #838283",
"G+	c #6D6C6D",
"H+	c #848484",
"I+	c #888889",
"J+	c #727272",
"K+	c #A8A7A7",
"L+	c #A3A2A2",
"M+	c #7B4C4C",
"N+	c #CB0C0C",
"O+	c #D83030",
"P+	c #E94141",
"Q+	c #F84F4F",
"R+	c #FF4444",
"S+	c #FF2323",
"T+	c #972424",
"U+	c #9B9A9A",
"V+	c #A5A4A4",
"W+	c #EB7F7F",
"X+	c #FFA3A1",
"Y+	c #CF4040",
"Z+	c #640B0B",
"`+	c #7C7979",
" @	c #8D8C8C",
".@	c #808080",
"+@	c #717171",
"@@	c #ABAAAA",
"#@	c #A7A6A6",
"$@	c #9D9C9C",
"%@	c #7B5858",
"&@	c #B80505",
"*@	c #D32F2F",
"=@	c #E63C3C",
"-@	c #F54C4C",
";@	c #FF4343",
">@	c #FF2022",
",@	c #902D2D",
"'@	c #A4A3A3",
")@	c #C08D8D",
"!@	c #FFA7A6",
"~@	c #F96868",
"{@	c #9D0000",
"]@	c #644444",
"^@	c #858484",
"/@	c #999898",
"(@	c #9A9999",
"_@	c #797879",
":@	c #8A8A8B",
"<@	c #707170",
"[@	c #A6A5A5",
"}@	c #9E9D9D",
"|@	c #7E5E5E",
"1@	c #A90909",
"2@	c #CE2B2B",
"3@	c #E13939",
"4@	c #F24949",
"5@	c #FE4F4F",
"6@	c #FF4C4E",
"7@	c #FF2222",
"8@	c #8F2F2F",
"9@	c #A9A1A1",
"0@	c #F68E8E",
"a@	c #FF9696",
"b@	c #BE2C2C",
"c@	c #591C1C",
"d@	c #7F7E7E",
"e@	c #908F8F",
"f@	c #6F6F6F",
"g@	c #888989",
"h@	c #6F6F70",
"i@	c #856F6F",
"j@	c #8A1212",
"k@	c #C82525",
"l@	c #DB3434",
"m@	c #EE4444",
"n@	c #FC4C4C",
"o@	c #FF4C4C",
"p@	c #FF1E20",
"q@	c #943B3B",
"r@	c #A2A1A1",
"s@	c #D38383",
"t@	c #E7585A",
"u@	c #7A0505",
"v@	c #706060",
"w@	c #6A6A6A",
"x@	c #6E6E6E",
"y@	c #A7A7A7",
"z@	c #A3A3A3",
"A@	c #A2A2A2",
"B@	c #8D8383",
"C@	c #722020",
"D@	c #C21818",
"E@	c #D42F2F",
"F@	c #E93F41",
"G@	c #F94949",
"H@	c #FF4949",
"I@	c #FF2C2A",
"J@	c #9A5D5D",
"K@	c #A28D8D",
"L@	c #FCA5A5",
"M@	c #AF1819",
"N@	c #5A2E2E",
"O@	c #7F7F7F",
"P@	c #919191",
"Q@	c #9F9F9F",
"R@	c #757575",
"S@	c #A7A5A6",
"T@	c #A3A1A2",
"U@	c #A2A0A1",
"V@	c #9F9D9E",
"W@	c #949293",
"X@	c #6D3535",
"Y@	c #B90707",
"Z@	c #CB2A2A",
"`@	c #E03939",
" #	c #F44646",
".#	c #FF5050",
"+#	c #ED3434",
"@#	c #F14747",
"##	c #FF9C9C",
"$#	c #C94141",
"%#	c #650B0B",
"&#	c #787475",
"*#	c #898889",
"=#	c #9B999A",
"-#	c #565556",
";#	c #626261",
">#	c #A1A0A0",
",#	c #969595",
"'#	c #734F4F",
")#	c #910C0C",
"!#	c #C02020",
"~#	c #D53030",
"{#	c #EC4242",
"]#	c #FF4244",
"^#	c #FD2525",
"/#	c #CD5C5E",
"(#	c #950505",
"_#	c #603D3D",
":#	c #807F7F",
"<#	c #939292",
"[#	c #9F9E9E",
"}#	c #505151",
"|#	c #A4A3A4",
"1#	c #A09E9F",
"2#	c #9E9C9D",
"3#	c #979596",
"4#	c #857A7B",
"5#	c #6A2222",
"6#	c #B60A0A",
"7#	c #C62828",
"8#	c #D52121",
"9#	c #CD0000",
"0#	c #980000",
"a#	c #921314",
"b#	c #5A1414",
"c#	c #7A7879",
"d#	c #8A8889",
"e#	c #9A9899",
"f#	c #575757",
"g#	c #6E4A4A",
"h#	c #7E0909",
"i#	c #940000",
"j#	c #7B0000",
"k#	c #6F0000",
"l#	c #630E0E",
"m#	c #747171",
"n#	c #838282",
"o#	c #949393",
"p#	c #828181",
"q#	c #A4A2A2",
"r#	c #9F9D9D",
"s#	c #9C9A9A",
"t#	c #959393",
"u#	c #847B7B",
"v#	c #521C1C",
"w#	c #550909",
"x#	c #6E0C0C",
"y#	c #634040",
"z#	c #7F7D7D",
"A#	c #908E8E",
"B#	c #9D9B9B",
"C#	c #A2A1A2",
"D#	c #9D9C9D",
"E#	c #9C9B9C",
"F#	c #979697",
"G#	c #8E8D8E",
"H#	c #7E7D7E",
"I#	c #8B8A8B",
"J#	c #A1A0A1",
"K#	c #A19FA0",
"L#	c #959394",
"M#	c #939192",
"N#	c #969596",
"O#	c #9F9E9F",
"P#	c #9B9A9B",
"Q#	c #A3A2A3",
"  . . . . . . . . . . . . . . . . . . . . . . . . . . . . . .   ",
"+ @ @ @ @ @ @ @ @ @ @ @ @ @ @ @ @ @ @ @ @ @ @ @ @ @ @ @ @ @ @ + ",
"+ # # # # # # # # # # # # $ % % % & $ * # $ * = # # # # # # # + ",
"- ; ; ; ; ; ; ; ; ; ; ; ; > % ; ; ; > % , * ' ; ; ; ; ; ; ; ; - ",
"@ ) ) ) ! ~ { ] ^ / ) ) ) ( % ) ) ) ( % _ : ) ) ) ) ) ) ) ) ) @ ",
"< [ [ } | 1 2 3 4 5 [ [ [ 6 % % % 7 6 % % 8 [ [ [ [ [ [ [ [ [ < ",
"9 0 a b c d e f g h i j 0 k % 0 0 0 k % k % k 0 0 0 0 0 0 0 0 9 ",
"l ^ m n o p q r s t u v w x % ^ ^ ^ x % ^ y z A ^ ^ ^ ^ ^ ^ B C ",
"/ D E F G H I J K L M N O P * D D D P * D Q R S D D D D T U V W ",
"X w Y Z `  ...+.@.#.$.%.&.w w w w w w w w w w w w *.=.-.;.>.,.'.",
").!.~.{.].^./.(._.:.<.[.}.!.!.!.!.!.!.!.!.!.!.!.!.|.1.c 2.3.B 4.",
"5.B 6.7.8.9.0.a.b.c.d.e.B B B B B B B B B B B B f.g.h.i.j.k.l.m.",
"n.o.p.q.r.s.t.u.v.w.x.p.o.o.o.o.o.o.o.o.o.o.o.o.y.z.A.B.C.D.4.E.",
"F.G.p.H.I.J.K.L.M.N.O.P.G.G.G.G.G.G.G.G.G.G.G.G.Q.R.S.T.U.V.W.X.",
"Y.Z.Z.`. +.+++@+#+$+%+&+*+Z.Z.Z.Z.Z.Z.Z.Z.Z.Z.Z.=+-+;+>+,+'+)+!+",
"~+`.`.`.{+]+.+;.B.^+G /+(+_+`.`.`.`.`.`.`.`.`.:+<+[+}+|+1+2+x 3+",
"4+5+5+5+6+7+8+9+0+a+b+;+c+d+e+5+5+5+5+5+5+5+5+f+g+h+i+j+k+l+m+n+",
"o+p+p+p+q+r+s+t+u+v+a+b+w+x+y+z+p+p+p+p+p+p+A+B+C+D+E+F+G+H+I+J+",
"`.K+K+K+L+M+N+O+P+Q+v+a+R+S+T+U+V+K+K+K+K+K+W+X+Y+Z+`+ @H+.@W.+@",
"@@#@#@#@V+$@%@&@*@=@-@a+a+;@>@,@U+'@#@#@#@)@!@~@{@]@^@/@(@_@:@<@",
"*+[@[@[@[@V+}@|@1@2@3@4@5@6@;@7@8@(@L+[@9@0@a@b@c@d@e@&+V+f@g@h@",
"_+V+V+V+V+V+'@}@i@j@k@l@m@n@o@;@p@q@/@r@s@1 t@u@v@6 (@'@V+w@m.x@",
"y@z@z@z@z@z@z@A@N B@C@D@E@F@G@H@b+I@J@K@L@8+M@N@O@P@Q@z@z@+@R@w@",
"S@T@T@T@T@T@T@T@U@V@W@X@Y@Z@`@ #H@.#+#@###$#%#&#*#=#U@T@T@V@-#;#",
"V+>#>#>#>#>#>#>#>#&+}@,#'#)#!#~#{#]#J.^#/#(#_#:#<#[#>#>#>#&++@}#",
"|#1#1#1#1#1#1#1#1#1#1#2#3#4#5#6#7#8#9#0#a#b#c#d#e#1#1#1#1#1#y+f#",
"'@[#[#[#[#[#[#[#[#[#[#[#}@/@4.g#h#i#j#k#l#m#n#o#}@[#[#[#[#[#}@p#",
"q#r#r#r#r#r#r#r#r#r#r#r#r#O.s#t#u#v#w#x#y#z#A#B#r#r#r#r#r#r#r#r#",
"C#D#D#D#D#D#D#D#D#D#D#D#D#D#D#E#F#G#F+H#O@I#F#D#D#D#D#D#D#D#D#J#",
"K#y+y+y+y+y+y+y+y+y+y+y+y+y+y+y+y+e#L#<.M#N#=#y+y+y+y+y+y+y+y+K#",
"O#P#P#P#P#P#P#P#P#P#P#P#P#P#P#P#P#P#P#P#P#P#P#P#P#P#P#P#P#P#P#O#",
"Q#O#O#O#O#O#O#O#O#O#O#O#O#O#O#O#O#O#O#O#O#O#O#O#O#O#O#O#O#O#O#Q#"};
