/* XPM */
static char * nrm_tngBik_xpm[] = {
"32 32 533 2",
"  	c #C3C2C2",
". 	c #C0BFBF",
"+ 	c #B8B8B8",
"@ 	c #A0A2A4",
"# 	c #8F9497",
"$ 	c #949A9C",
"% 	c #9B9FA2",
"& 	c #848788",
"* 	c #77797B",
"= 	c #818385",
"- 	c #878B8D",
"; 	c #8E9293",
"> 	c #94989A",
", 	c #979B9D",
"' 	c #9B9EA0",
") 	c #9CA0A3",
"! 	c #A2A6A7",
"~ 	c #BEBEBD",
"{ 	c #BCBCBB",
"] 	c #B4B5B4",
"^ 	c #9B9E9F",
"/ 	c #757879",
"( 	c #65686A",
"_ 	c #65696B",
": 	c #6D7173",
"< 	c #777C7E",
"[ 	c #7F8487",
"} 	c #868B8F",
"| 	c #8B9093",
"1 	c #8E9396",
"2 	c #919699",
"3 	c #959B9D",
"4 	c #BBBBBA",
"5 	c #B3B4B3",
"6 	c #7C7B79",
"7 	c #646768",
"8 	c #676C6E",
"9 	c #6D7274",
"0 	c #767B7D",
"a 	c #808588",
"b 	c #878C8F",
"c 	c #909699",
"d 	c #979C9F",
"e 	c #BCBCBC",
"f 	c #B9B9B9",
"g 	c #AAAAA8",
"h 	c #787874",
"i 	c #686A6B",
"j 	c #696D6F",
"k 	c #707476",
"l 	c #808688",
"m 	c #878D8F",
"n 	c #8B9194",
"o 	c #8E9497",
"p 	c #969C9F",
"q 	c #B9B9B8",
"r 	c #A1A19D",
"s 	c #71706B",
"t 	c #6B6D6C",
"u 	c #6C6F71",
"v 	c #727678",
"w 	c #7A7E80",
"x 	c #868C8E",
"y 	c #8B9193",
"z 	c #8F9597",
"A 	c #919799",
"B 	c #BBBABA",
"C 	c #B8B7B7",
"D 	c #B6B5B5",
"E 	c #908F8A",
"F 	c #72716D",
"G 	c #6E6F6E",
"H 	c #707274",
"I 	c #75797B",
"J 	c #7C8183",
"K 	c #82888A",
"L 	c #8C9194",
"M 	c #8F9598",
"N 	c #92979A",
"O 	c #969C9E",
"P 	c #BAB9B8",
"Q 	c #B7B6B5",
"R 	c #A1A19F",
"S 	c #84827D",
"T 	c #737271",
"U 	c #707171",
"V 	c #747777",
"W 	c #7A7D7F",
"X 	c #7E8385",
"Y 	c #84898B",
"Z 	c #8C9294",
"` 	c #909698",
" .	c #92989A",
"..	c #B5B5B4",
"+.	c #B4B4B3",
"@.	c #848685",
"#.	c #6E6F6F",
"$.	c #747474",
"%.	c #757678",
"&.	c #797C7D",
"*.	c #7D8182",
"=.	c #808587",
"-.	c #868A8C",
";.	c #898F91",
">.	c #8C9395",
",.	c #B8B8B7",
"'.	c #B3B3B2",
").	c #969A9A",
"!.	c #727376",
"~.	c #777779",
"{.	c #7F8082",
"].	c #7E8183",
"^.	c #7F8485",
"/.	c #828789",
"(.	c #888C8E",
"_.	c #929899",
":.	c #969C9D",
"<.	c #B7B7B6",
"[.	c #8E9899",
"}.	c #6E7A7C",
"|.	c #848789",
"1.	c #838788",
"2.	c #838688",
"3.	c #868A8D",
"4.	c #898E90",
"5.	c #8C9093",
"6.	c #8F9496",
"7.	c #969B9D",
"8.	c #B6B4B5",
"9.	c #B2B0B1",
"0.	c #929092",
"a.	c #788687",
"b.	c #858B8D",
"c.	c #86898B",
"d.	c #878B8E",
"e.	c #909597",
"f.	c #93989B",
"g.	c #979C9E",
"h.	c #B4B4B4",
"i.	c #B0B0B0",
"j.	c #B4ADAD",
"k.	c #C4A09F",
"l.	c #C18C8B",
"m.	c #8A7274",
"n.	c #6E8387",
"o.	c #858D90",
"p.	c #888D90",
"q.	c #909498",
"r.	c #B4B2B2",
"s.	c #B0AEAE",
"t.	c #BFA0A0",
"u.	c #D49291",
"v.	c #E17C7C",
"w.	c #E3696C",
"x.	c #EF5D60",
"y.	c #D66264",
"z.	c #907778",
"A.	c #71878A",
"B.	c #818C8F",
"C.	c #898D90",
"D.	c #909598",
"E.	c #93999B",
"F.	c #B3B1B1",
"G.	c #AFADAD",
"H.	c #C59A99",
"I.	c #DC8887",
"J.	c #E16C6C",
"K.	c #DF5A5E",
"L.	c #E25D60",
"M.	c #E96264",
"N.	c #F46A69",
"O.	c #FF706E",
"P.	c #E86968",
"Q.	c #A06567",
"R.	c #787B7E",
"S.	c #858E90",
"T.	c #B1B0B0",
"U.	c #ADACAC",
"V.	c #BD9395",
"W.	c #D97C7D",
"X.	c #DD6262",
"Y.	c #D95055",
"Z.	c #E3595D",
"`.	c #EC6164",
" +	c #F46B6A",
".+	c #F06967",
"++	c #E56061",
"@+	c #D24F54",
"#+	c #C33944",
"$+	c #AE2533",
"%+	c #7E525B",
"&+	c #7F8A8D",
"*+	c #8C9295",
"=+	c #8F9396",
"-+	c #B0AFAF",
";+	c #ACABAB",
">+	c #B29B9C",
",+	c #CD7577",
"'+	c #D6585C",
")+	c #D0474E",
"!+	c #DA4F55",
"~+	c #EB5D5E",
"{+	c #EE6363",
"]+	c #DE585A",
"^+	c #CD4A4F",
"/+	c #BB3A45",
"(+	c #AA2D3B",
"_+	c #A02335",
":+	c #A3263A",
"<+	c #BB2C43",
"[+	c #9F4B5A",
"}+	c #7A7E81",
"|+	c #879195",
"1+	c #91979A",
"2+	c #AEADAE",
"3+	c #AAA9AA",
"4+	c #B98184",
"5+	c #CA5D56",
"6+	c #ADAB1F",
"7+	c #C37C36",
"8+	c #DF5055",
"9+	c #DD5356",
"0+	c #BF3D44",
"a+	c #A92A36",
"b+	c #9F2232",
"c+	c #9D2132",
"d+	c #A5273A",
"e+	c #B13347",
"f+	c #C14359",
"g+	c #D55A6E",
"h+	c #F76F86",
"i+	c #C8717F",
"j+	c #7D7D81",
"k+	c #858F91",
"l+	c #ADACAD",
"m+	c #A9A8A9",
"n+	c #AA9D9F",
"o+	c #BB6268",
"p+	c #C44249",
"q+	c #B19524",
"r+	c #99FF00",
"s+	c #AB8227",
"t+	c #9C202E",
"u+	c #901527",
"v+	c #971B2F",
"w+	c #A62A3E",
"x+	c #B93C50",
"y+	c #D15468",
"z+	c #E86B7F",
"A+	c #F6798D",
"B+	c #FD7E93",
"C+	c #FF7188",
"D+	c #BC6F7B",
"E+	c #808486",
"F+	c #879093",
"G+	c #8F9498",
"H+	c #92989B",
"I+	c #A8A7A7",
"J+	c #A88D8F",
"K+	c #B1474F",
"L+	c #BB373F",
"M+	c #C43941",
"N+	c #AE9922",
"O+	c #99F701",
"P+	c #963F29",
"Q+	c #A92E41",
"R+	c #BF4357",
"S+	c #D75B6E",
"T+	c #EC6D81",
"U+	c #F57488",
"V+	c #F26E83",
"W+	c #E46176",
"X+	c #D84A63",
"Y+	c #B95060",
"Z+	c #87797C",
"`+	c #808A8B",
" @	c #8A9092",
".@	c #8E9498",
"+@	c #959A9D",
"@@	c #ABAAAA",
"#@	c #A7A6A6",
"$@	c #A38488",
"%@	c #A4343F",
"&@	c #AE2934",
"*@	c #B12C37",
"=@	c #A62933",
"-@	c #965A1F",
";@	c #A7B023",
">@	c #D4576B",
",@	c #E8687C",
"'@	c #ED6A7E",
")@	c #E45E74",
"!@	c #D34E64",
"~@	c #C4445A",
"{@	c #BA3A53",
"]@	c #A94456",
"^@	c #8B7677",
"/@	c #859191",
"(@	c #8B9295",
"_@	c #8E9496",
":@	c #AAA9A9",
"<@	c #A6A5A5",
"[@	c #9F8386",
"}@	c #982C39",
"|@	c #9E1E2B",
"1@	c #9B1E2A",
"2@	c #8A1523",
"3@	c #840F1F",
"4@	c #8A1626",
"5@	c #99DB09",
"6@	c #A6E115",
"7@	c #E45F74",
"8@	c #DB546A",
"9@	c #CC495F",
"0@	c #BD4158",
"a@	c #B03F54",
"b@	c #9E384C",
"c@	c #88263A",
"d@	c #7F565C",
"e@	c #899190",
"f@	c #90989A",
"g@	c #A9A8A8",
"h@	c #A5A4A4",
"i@	c #A09092",
"j@	c #8C2B38",
"k@	c #8C1121",
"l@	c #86111F",
"m@	c #760718",
"n@	c #78081A",
"o@	c #8B1527",
"p@	c #A1293C",
"q@	c #B56542",
"r@	c #9CF506",
"s@	c #A5DC14",
"t@	c #C8465C",
"u@	c #B94158",
"v@	c #A73C51",
"w@	c #8C3042",
"x@	c #722031",
"y@	c #5E0D1A",
"z@	c #591C24",
"A@	c #777072",
"B@	c #8E999B",
"C@	c #94999C",
"D@	c #A7A7A7",
"E@	c #A3A3A3",
"F@	c #A19E9E",
"G@	c #843A45",
"H@	c #7A0716",
"I@	c #740717",
"J@	c #6D0212",
"K@	c #77071A",
"L@	c #8D182A",
"M@	c #A62A3D",
"N@	c #BE3C50",
"O@	c #CF475C",
"P@	c #CC5858",
"Q@	c #B0A32E",
"R@	c #B4634B",
"S@	c #9F3A4E",
"T@	c #7E2738",
"U@	c #651A27",
"V@	c #581420",
"W@	c #67373A",
"X@	c #877274",
"Y@	c #827578",
"Z@	c #848D8D",
"`@	c #8E9699",
" #	c #8E9598",
".#	c #8F9699",
"+#	c #90979A",
"@#	c #93999C",
"##	c #A7A5A6",
"$#	c #A3A1A2",
"%#	c #8D6268",
"&#	c #700A19",
"*#	c #670010",
"=#	c #750616",
"-#	c #8C1527",
";#	c #A52439",
">#	c #BB3249",
",#	c #C83F55",
"'#	c #C9455D",
")#	c #BE485F",
"!#	c #A03B4F",
"~#	c #782535",
"{#	c #5E1724",
"]#	c #5D252E",
"^#	c #7A585D",
"/#	c #95888A",
"(#	c #858B8C",
"_#	c #81888B",
":#	c #8B9396",
"<#	c #8D9396",
"[#	c #A1A0A0",
"}#	c #9D9596",
"|#	c #752833",
"1#	c #61000F",
"2#	c #64000F",
"3#	c #720213",
"4#	c #890D21",
"5#	c #A01B2F",
"6#	c #B52C43",
"7#	c #C63F57",
"8#	c #C74B63",
"9#	c #A84257",
"0#	c #7A2738",
"a#	c #5D1C27",
"b#	c #663B41",
"c#	c #887476",
"d#	c #9F9D9D",
"e#	c #9A9B9B",
"f#	c #767A7B",
"g#	c #7A8184",
"h#	c #858C90",
"i#	c #878F92",
"j#	c #888F92",
"k#	c #899093",
"l#	c #8C9396",
"m#	c #8D9497",
"n#	c #A4A3A4",
"o#	c #A09E9F",
"p#	c #855A61",
"q#	c #5E0513",
"r#	c #62000F",
"s#	c #700012",
"t#	c #820519",
"u#	c #971127",
"v#	c #B62D44",
"w#	c #CB4B64",
"x#	c #BC4F66",
"y#	c #892F41",
"z#	c #60202B",
"A#	c #6E484D",
"B#	c #8C7C7E",
"C#	c #908F90",
"D#	c #6D7074",
"E#	c #737B7E",
"F#	c #7D8589",
"G#	c #80888C",
"H#	c #828B8E",
"I#	c #8A9194",
"J#	c #A4A3A3",
"K#	c #9F9E9E",
"L#	c #6C2E38",
"M#	c #5F000F",
"N#	c #6E0011",
"O#	c #7A0012",
"P#	c #920A21",
"Q#	c #BA324A",
"R#	c #CE566E",
"S#	c #A7465A",
"T#	c #6C2835",
"U#	c #673F43",
"V#	c #8B7D7E",
"W#	c #808182",
"X#	c #5F6669",
"Y#	c #6B7377",
"Z#	c #747C80",
"`#	c #7A8286",
" $	c #7E868A",
".$	c #868E91",
"+$	c #A4A2A2",
"@$	c #5F101D",
"#$	c #690010",
"$$	c #75000E",
"%$	c #8F091E",
"&$	c #C03B53",
"*$	c #CA5971",
"=$	c #8B394A",
"-$	c #65343C",
";$	c #847373",
">$	c #888888",
",$	c #697072",
"'$	c #666F73",
")$	c #727A7E",
"!$	c #798185",
"~$	c #7F878B",
"{$	c #838B8F",
"]$	c #A2A1A2",
"^$	c #9D9C9D",
"/$	c #72000D",
"($	c #911023",
"_$	c #C3435C",
":$	c #BB5369",
"<$	c #773743",
"[$	c #795E61",
"}$	c #9A9698",
"|$	c #909092",
"1$	c #70767A",
"2$	c #636C70",
"3$	c #6A7376",
"4$	c #737C7F",
"5$	c #7B8386",
"6$	c #80888B",
"7$	c #848C8F",
"8$	c #878D90",
"9$	c #A19FA0",
"0$	c #9C9A9B",
"a$	c #62000D",
"b$	c #8A1023",
"c$	c #B73F58",
"d$	c #A4475B",
"e$	c #71434B",
"f$	c #877B7C",
"g$	c #919193",
"h$	c #6E7376",
"i$	c #656E71",
"j$	c #6E787A",
"k$	c #778083",
"l$	c #818A8D",
"m$	c #9F9E9F",
"n$	c #9B9A9B",
"o$	c #72343E",
"p$	c #882D3E",
"q$	c #874854",
"r$	c #82656A",
"s$	c #979395",
"t$	c #686F72",
"u$	c #6B7376",
"v$	c #7A8285",
"w$	c #80878A",
"x$	c #838B8E",
"y$	c #898F92",
"z$	c #A3A2A3",
"A$	c #999092",
"B$	c #947E83",
"C$	c #989092",
"D$	c #797E80",
"E$	c #70777A",
"F$	c #787F82",
"G$	c #7E8588",
"H$	c #828A8D",
"  . . . . . . . . . . . . . . . . + @ # $ % & * = - ; > , ' ) ! ",
"~ { { { { { { { { { { { { { { { { { { ] ^ / ( _ : < [ } | 1 2 3 ",
"~ 4 4 4 4 4 4 4 4 4 4 4 4 4 4 4 4 4 4 4 5 6 7 8 9 0 a b | 1 c d ",
"e f f f f f f f f f f f f f f f f f f f g h i j k < l m n o c p ",
"{ q q q q q q q q q q q q q q q q q q q r s t u v w l x y z A p ",
"B C C C C C C C C C C C C C C C C C C D E F G H I J K x L M N O ",
"P Q Q Q Q Q Q Q Q Q Q Q Q Q Q Q Q Q Q R S T U V W X Y m Z `  .O ",
"+ ..................................+.@.#.$.%.&.*.=.-.;.>.`  .O ",
",.+.+.+.+.+.+.+.+.+.+.+.+.+.+.+.+.+.'.).!.~.{.].^./.(.| o ` _.:.",
"<.'.'.'.'.'.'.'.'.'.'.'.'.'.'.'.'.'.'.'.[.}.|.1.2.3.4.5.6.`  .7.",
"8.9.9.9.9.9.9.9.9.9.9.9.9.9.9.9.9.9.9.9.9.0.a.b.c.d.4.L e.A f.g.",
"h.i.i.i.i.i.i.i.i.i.i.i.i.i.i.i.i.i.i.j.k.l.m.n.o.(.p.L q.N f.g.",
"r.s.s.s.s.s.s.s.s.s.s.s.s.s.s.s.s.t.u.v.w.x.y.z.A.B.C.L D.N E.g.",
"F.G.G.G.G.G.G.G.G.G.G.G.G.G.G.H.I.J.K.L.M.N.O.P.Q.R.S.Z # N E.g.",
"T.U.U.U.U.U.U.U.U.U.U.U.U.V.W.X.Y.Z.`. +.+++@+#+$+%+&+*+=+ .E.O ",
"-+;+;+;+;+;+;+;+;+;+;+>+,+'+)+!+~+{+]+^+/+(+_+:+<+[+}+|+o 1+E.O ",
"2+3+3+3+3+3+3+3+3+3+4+5+6+7+8+9+0+a+b+c+d+e+f+g+h+i+j+k+o 1+E.3 ",
"l+m+m+m+m+m+m+m+n+o+p+q+r+r+s+t+u+v+w+x+y+z+A+B+C+D+E+F+G+A H+3 ",
";+I+I+I+I+I+I+J+K+L+M+N+r+r+O+P+Q+R+S+T+U+V+W+X+Y+Z+`+ @.@A H++@",
"@@#@#@#@#@#@$@%@&@*@=@-@r+r+r+;@>@,@'@)@!@~@{@]@^@/@(@_@M c H++@",
":@<@<@<@<@[@}@|@1@2@3@4@5@r+r+6@7@8@9@0@a@b@c@d@e@f@e.o D.1+H++@",
"g@h@h@h@i@j@k@l@m@n@o@p@q@r@r+s@t@u@v@w@x@y@z@A@B@c M M c 1+1+C@",
"D@E@E@F@G@H@I@J@K@L@M@N@O@P@Q@R@S@T@U@V@W@X@Y@Z@`@ #.@M .#c +#@#",
"##$#$#%#&#*#*#=#-#;#>#,#'#)#!#~#{#]#^#/#$#$#(#_#(@:#*+<# #.#.#f.",
"h@[#}#|#1#2#3#4#5#6#7#8#9#0#a#b#c#d#[#[#[#e#f#g#h#i#j#k#l#m# #H+",
"n#o#p#q#r#s#t#u#v#w#x#y#z#A#B#o#o#o#o#o#o#C#D#E#F#G#H#o.k#I#l#c ",
"J#K#L#M#N#O#P#Q#R#S#T#U#V#K#K#K#K#K#K#K#K#W#X#Y#Z#`# $H#.$j#I#o ",
"+$d#@$#$$$%$&$*$=$-$;$d#d#d#d#d#d#d#d#d#d#>$,$'$Y#)$!$~${$.$j#<#",
"]$^$M#/$($_$:$<$[$}$^$^$^$^$^$^$^$^$^$^$^$^$|$1$2$3$4$5$6$7$8$*+",
"9$0$a$b$c$d$e$f$0$0$0$0$0$0$0$0$0$0$0$0$0$0$0$g$h$i$j$k$F#l$o.n ",
"m$n$o$p$q$r$s$n$n$n$n$n$n$n$n$n$n$n$n$n$n$n$n$n$|$t$u$4$v$w$x$y$",
"z$m$A$B$C$m$m$m$m$m$m$m$m$m$m$m$m$m$m$m$m$m$m$m$m$D$i$E$F$G$H$j#"};
