/* XPM */
static char * nrm_rtlid_xpm[] = {
"32 32 486 2",
"  	c #000000",
". 	c #171717",
"+ 	c #3A3B3B",
"@ 	c #3C3C3C",
"# 	c #3D3E3D",
"$ 	c #3E3E3E",
"% 	c #3F3F3F",
"& 	c #3D3D3D",
"* 	c #3B3B3B",
"= 	c #393A3A",
"- 	c #383838",
"; 	c #363636",
"> 	c #343434",
", 	c #323232",
"' 	c #313130",
") 	c #090909",
"! 	c #3D3C3C",
"~ 	c #3F3F3E",
"{ 	c #3A3A3A",
"] 	c #313131",
"^ 	c #232323",
"/ 	c #3B3B3C",
"( 	c #3E3F3F",
"_ 	c #3E3F3E",
": 	c #3D3D3C",
"< 	c #030303",
"[ 	c #404040",
"} 	c #414141",
"| 	c #303031",
"1 	c #0B0B0B",
"2 	c #373737",
"3 	c #2F2F2F",
"4 	c #212021",
"5 	c #222222",
"6 	c #232423",
"7 	c #313030",
"8 	c #393939",
"9 	c #323131",
"0 	c #302F2F",
"a 	c #252525",
"b 	c #121212",
"c 	c #121112",
"d 	c #131313",
"e 	c #1C1D1C",
"f 	c #313231",
"g 	c #434344",
"h 	c #444444",
"i 	c #454545",
"j 	c #434343",
"k 	c #424242",
"l 	c #343333",
"m 	c #131312",
"n 	c #141515",
"o 	c #161616",
"p 	c #181818",
"q 	c #303030",
"r 	c #585858",
"s 	c #565656",
"t 	c #575757",
"u 	c #545454",
"v 	c #515252",
"w 	c #4F4F4F",
"x 	c #4C4C4C",
"y 	c #484848",
"z 	c #404140",
"A 	c #373736",
"B 	c #040404",
"C 	c #0F1010",
"D 	c #0F0F0F",
"E 	c #141414",
"F 	c #131414",
"G 	c #171818",
"H 	c #1C1C1D",
"I 	c #1A1A1A",
"J 	c #434342",
"K 	c #6F6F6F",
"L 	c #6B6B6B",
"M 	c #6D6D6D",
"N 	c #6E6E6E",
"O 	c #686868",
"P 	c #646465",
"Q 	c #5F605F",
"R 	c #5A5959",
"S 	c #535353",
"T 	c #4E4D4D",
"U 	c #424142",
"V 	c #3C3C3D",
"W 	c #333333",
"X 	c #070707",
"Y 	c #2A2A2A",
"Z 	c #3E3D3D",
"` 	c #444141",
" .	c #454141",
"..	c #3E3A3A",
"+.	c #292626",
"@.	c #1D1C1C",
"#.	c #1F1E1E",
"$.	c #5F5F5F",
"%.	c #818181",
"&.	c #7F8080",
"*.	c #828282",
"=.	c #848484",
"-.	c #838383",
";.	c #7E7E7E",
">.	c #7A7B7B",
",.	c #757575",
"'.	c #666666",
").	c #5E5E5E",
"!.	c #4E4E4E",
"~.	c #464647",
"{.	c #504C4B",
"].	c #524443",
"^.	c #593B3B",
"/.	c #643C3C",
"(.	c #6F4747",
"_.	c #775757",
":.	c #544141",
"<.	c #282020",
"[.	c #737272",
"}.	c #909190",
"|.	c #929292",
"1.	c #959595",
"2.	c #979797",
"3.	c #989898",
"4.	c #9A9999",
"5.	c #9B9A9A",
"6.	c #999999",
"7.	c #939394",
"8.	c #8B8B8B",
"9.	c #787878",
"0.	c #656565",
"a.	c #5B5C5B",
"b.	c #525252",
"c.	c #494949",
"d.	c #0C0C0C",
"e.	c #4D4948",
"f.	c #634949",
"g.	c #723333",
"h.	c #90302F",
"i.	c #AC3C3B",
"j.	c #AA393A",
"k.	c #A33D3D",
"l.	c #9C5050",
"m.	c #6A4242",
"n.	c #857A7A",
"o.	c #9F9F9F",
"p.	c #A6A6A5",
"q.	c #AFAFAF",
"r.	c #ACACAC",
"s.	c #9C9C9C",
"t.	c #727272",
"u.	c #919192",
"v.	c #8F8F8F",
"w.	c #757574",
"x.	c #686969",
"y.	c #5D5D5D",
"z.	c #1D1B1B",
"A.	c #655050",
"B.	c #864141",
"C.	c #B23B3B",
"D.	c #DA4343",
"E.	c #DE4141",
"F.	c #E04646",
"G.	c #DD4343",
"H.	c #C6403F",
"I.	c #B05454",
"J.	c #A57F7F",
"K.	c #A29B9B",
"L.	c #A7A7A7",
"M.	c #A3A4A3",
"N.	c #7C7C7C",
"O.	c #595858",
"P.	c #363535",
"Q.	c #353535",
"R.	c #474747",
"S.	c #616160",
"T.	c #717170",
"U.	c #7A7A7A",
"V.	c #777777",
"W.	c #6B6B6C",
"X.	c #555555",
"Y.	c #4D4D4D",
"Z.	c #332B2B",
"`.	c #8E5E5D",
" +	c #B84848",
".+	c #DA4040",
"++	c #DB5F5F",
"@+	c #EFB2B2",
"#+	c #F5D1D2",
"$+	c #F1AFAF",
"%+	c #E75857",
"&+	c #CC4444",
"*+	c #B76969",
"=+	c #AC9696",
"-+	c #ADABAB",
";+	c #2C2C2C",
">+	c #373837",
",+	c #292929",
"'+	c #6A696A",
")+	c #6E6D6E",
"!+	c #606060",
"~+	c #565555",
"{+	c #412D2D",
"]+	c #AF6363",
"^+	c #CA3E3E",
"/+	c #DC6C6C",
"(+	c #FFFAFA",
"_+	c #F8FFFF",
":+	c #FFFFFF",
"<+	c #F8D1D0",
"[+	c #E15150",
"}+	c #C65B5B",
"|+	c #B68E8E",
"1+	c #AFAAAA",
"2+	c #585859",
"3+	c #2B2B2B",
"4+	c #2A2B2A",
"5+	c #1F2020",
"6+	c #2B2B2A",
"7+	c #1F1F1F",
"8+	c #242424",
"9+	c #533232",
"0+	c #C46161",
"a+	c #C33A3A",
"b+	c #FAE3E3",
"c+	c #A3A9A9",
"d+	c #B9B9B9",
"e+	c #EF9393",
"f+	c #D15E5E",
"g+	c #BB8F8E",
"h+	c #AFA8A8",
"i+	c #717171",
"j+	c #292829",
"k+	c #212121",
"l+	c #111111",
"m+	c #1D1D1D",
"n+	c #222223",
"o+	c #1E1E1E",
"p+	c #484847",
"q+	c #5D3232",
"r+	c #C85656",
"s+	c #DB7474",
"t+	c #ECF0F0",
"u+	c #4C4E4E",
"v+	c #393B3B",
"w+	c #919595",
"x+	c #F2C1C1",
"y+	c #CE7070",
"z+	c #BD9B9B",
"A+	c #B2ADAD",
"B+	c #939393",
"C+	c #545455",
"D+	c #7B7B7B",
"E+	c #A0A0A0",
"F+	c #868686",
"G+	c #767676",
"H+	c #BFBFBF",
"I+	c #AEAEAE",
"J+	c #191919",
"K+	c #1B1B1B",
"L+	c #010000",
"M+	c #693C3C",
"N+	c #C95051",
"O+	c #E8A4A4",
"P+	c #F3FFFF",
"Q+	c #636565",
"R+	c #575252",
"S+	c #C7B6B5",
"T+	c #EED9D9",
"U+	c #F8E6E6",
"V+	c #F5D2D2",
"W+	c #CE7D7D",
"X+	c #BFA7A7",
"Y+	c #B6B4B4",
"Z+	c #9A9A9A",
"`+	c #BDBDBD",
" @	c #D2D2D2",
".@	c #F4F5F5",
"+@	c #B3B2B3",
"@@	c #4A4A4A",
"#@	c #101010",
"$@	c #0A0A0A",
"%@	c #6C3F3F",
"&@	c #CB5656",
"*@	c #DF6262",
"=@	c #E58282",
"-@	c #D56A6A",
";@	c #D86565",
">@	c #E45D5D",
",@	c #E04848",
"'@	c #E64E4E",
")@	c #EA7170",
"!@	c #D37C7B",
"~@	c #C2ACAC",
"{@	c #B6B6B5",
"]@	c #AAAAAA",
"^@	c #C6C5C5",
"/@	c #8C8C8C",
"(@	c #4E4F4E",
"_@	c #DEDDDD",
":@	c #FAFAFA",
"<@	c #F6F6F6",
"[@	c #F0F0F0",
"}@	c #949495",
"|@	c #282828",
"1@	c #030000",
"2@	c #784747",
"3@	c #CC5252",
"4@	c #DD3736",
"5@	c #E43535",
"6@	c #E93E3E",
"7@	c #E93F3F",
"8@	c #E83C3C",
"9@	c #E83A39",
"0@	c #E63738",
"a@	c #E14747",
"b@	c #D18181",
"c@	c #C2B1B1",
"d@	c #B5B5B4",
"e@	c #B0B1B1",
"f@	c #BBBBBB",
"g@	c #C0C0C0",
"h@	c #B6B6B6",
"i@	c #AAABAA",
"j@	c #D1D1D1",
"k@	c #DADADA",
"l@	c #E0DFDF",
"m@	c #E8E8E8",
"n@	c #E7E8E7",
"o@	c #E7E7E7",
"p@	c #CECECE",
"q@	c #333433",
"r@	c #020000",
"s@	c #744949",
"t@	c #C75353",
"u@	c #D83535",
"v@	c #E13535",
"w@	c #E43636",
"x@	c #E53737",
"y@	c #E53636",
"z@	c #E33737",
"A@	c #E04040",
"B@	c #D96565",
"C@	c #C69797",
"D@	c #BDB5B5",
"E@	c #B2B3B3",
"F@	c #B2B2B2",
"G@	c #B8B8B8",
"H@	c #B2B3B2",
"I@	c #B5B5B5",
"J@	c #B3B3B3",
"K@	c #A8A8A9",
"L@	c #A1A1A1",
"M@	c #A9A9AA",
"N@	c #737474",
"O@	c #515150",
"P@	c #644D4D",
"Q@	c #AD6464",
"R@	c #C64747",
"S@	c #D23737",
"T@	c #D93535",
"U@	c #DB3636",
"V@	c #DA3B3B",
"W@	c #D54747",
"X@	c #CD6666",
"Y@	c #C38D8E",
"Z@	c #B6A8A8",
"`@	c #B5B4B4",
" #	c #B0B1B0",
".#	c #A3A3A3",
"+#	c #A2A2A2",
"@#	c #9D9D9D",
"##	c #909090",
"$#	c #868685",
"%#	c #767675",
"&#	c #676666",
"*#	c #646464",
"=#	c #6C6C6D",
"-#	c #505050",
";#	c #524C4C",
">#	c #846B6C",
",#	c #A06667",
"'#	c #B25A5B",
")#	c #BC5353",
"!#	c #C15656",
"~#	c #BF6262",
"{#	c #B97777",
"]#	c #B19090",
"^#	c #A79D9D",
"/#	c #A7A5A6",
"(#	c #A6A6A6",
"_#	c #8D8D8C",
":#	c #888888",
"<#	c #5A5A5A",
"[#	c #646463",
"}#	c #464646",
"|#	c #424141",
"1#	c #656262",
"2#	c #736A6A",
"3#	c #826F70",
"4#	c #8D7474",
"5#	c #947979",
"6#	c #968282",
"7#	c #968C8C",
"8#	c #959392",
"9#	c #A4A3A3",
"0#	c #777878",
"a#	c #707070",
"b#	c #6A6969",
"c#	c #636363",
"d#	c #5C5C5C",
"e#	c #595959",
"f#	c #585958",
"g#	c #5B5B5B",
"h#	c #636262",
"i#	c #6B6A6A",
"j#	c #727171",
"k#	c #7C7C7D",
"l#	c #7E7F7F",
"m#	c #808081",
"n#	c #858585",
"o#	c #676767",
"p#	c #8C8B8C",
"q#	c #8D8D8D",
"r#	c #878787",
"s#	c #717271",
"t#	c #696868",
"u#	c #656564",
"v#	c #616161",
"w#	c #2E2E2E",
"x#	c #434444",
"y#	c #545554",
"z#	c #5F6060",
"A#	c #6B6C6B",
"B#	c #666767",
"C#	c #535453",
"D#	c #7B7B7A",
"E#	c #717172",
"F#	c #717071",
"G#	c #69696A",
"H#	c #585857",
"I#	c #2D2D2C",
"J#	c #5A5A5B",
"K#	c #535454",
"L#	c #50504F",
"M#	c #414140",
"N#	c #2F3030",
"O#	c #242323",
"P#	c #3D3E3E",
"Q#	c #2D2D2D",
"R#	c #2E2F2F",
"S#	c #282929",
"T#	c #080808",
"U#	c #3B3A3B",
"V#	c #262627",
"W#	c #2D2C2D",
"X#	c #444343",
"Y#	c #3B3B3A",
"Z#	c #2C2C2D",
"`#	c #29292A",
" $	c #262626",
".$	c #222322",
"+$	c #020202",
"@$	c #3C3B3C",
"#$	c #3D3C3D",
"$$	c #333332",
"%$	c #292928",
"&$	c #414041",
"*$	c #3B3C3C",
"=$	c #383837",
"-$	c #272727",
";$	c #242423",
">$	c #202120",
",$	c #010101",
"'$	c #333233",
")$	c #2F2F2E",
"!$	c #202020",
"~$	c #202021",
"{$	c #2F2E2E",
"]$	c #282727",
"^$	c #242324",
"/$	c #393839",
"($	c #353534",
"_$	c #232324",
":$	c #222323",
"<$	c #252524",
"          . + @ # $ % % % % % % % $ $ $ $ $ $ & @ * = - ; > , ' ",
"        ) ; @ ! $ % % % % % % % ~ $ $ $ $ $ $ $ & * { - ; > , ] ",
"        ^ / * & $ % % % % $ ( _ $ $ $ $ $ $ $ $ : * { - ; > , ] ",
"      < ] * & % [ } % % % $ $ $ _ $ $ $ $ $ $ $ ! * { - ; > , | ",
"      1 2 3 4 5 6 7 % } % % % % % % % % ~ $ $ & @ * 8 - ; > 9 0 ",
"      . a b c b b d e f g h h i i h h j k } [ $ & * 8 2 ; l ] 3 ",
"      . b c m n o p . o q r s r r t s u v w x y h z & { A > ] 3 ",
"    B C D E . E F G H I J K L M N N M L O P Q R S T y U V - W q ",
"    X b Y Z `  ...+.@.#.$.%.&.*.=.=.-.%.;.>.,.N '.).s !.~.% 8 > ",
"    X > {.].^./.(._.:.<.[.}.|.1.2.3.4.5.6.7.8.*.9.K 0.a.b.c.k / ",
"    d.e.f.g.h.i.j.k.l.m.n.5.o.p.q.r.s.=.t.=.8.u.v.-.w.x.y.u x h ",
"    z.A.B.C.D.E.F.G.H.I.J.K.L.M.N.O.% P., Q.- R.S.T.U.V.W.).X.Y.",
"    Z.`. +.+++@+#+$+%+&+*+=+-+N ;+Q.>+2 2 2 Q.q Y ,+0 h '+)+!+~+",
"    {+]+^+/+(+_+:+:+<+[+}+|+1+2+3+W 4+5+^ Y 3 ] 3 6+a 7+8+z !+!+",
"    9+0+a+b+c+u d+:+:+e+f+g+h+i+I m j+c.j k+l+E m+^ 8+n+o+. o+p+",
"    q+r+s+t+u+v+w+:+:+x+y+z+A+B+C+D+E+F+G+H+I+V.{ l+d.J+K+J+d o ",
"  L+M+N+O+P+Q+R+S+T+U+V+W+X+Y+Z+o.`+D+U h  @:+:+.@+@@@d.) b #@$@",
"  L+%@&@*@=@-@;@>@,@'@)@!@~@{@]@I+^@/@Y.(@_@:+:@<@:@[@}@Y   ) |@",
"  1@2@3@4@5@6@7@8@9@0@a@b@c@d@e@f@`+g@h@i@j@k@l@m@n@o@p@D+q@- !.",
"  r@s@t@u@v@w@x@y@z@A@B@C@D@E@F@G@H@I@d+`+J@K@E+o.L@M@s.t.N@r O@",
"  L+P@Q@R@S@T@U@V@W@X@Y@Z@`@r.q. #.#+#+#E+@#3.##$#N.%#&#*#=#Q -#",
"    ;#>#,#'#)#!#~#{#]#^#/#(#B+L.r.s.##_#8.:#*.D+t.O y.<#[#).b.}#",
"    |#1#2#3#4#5#6#7#8#B+6./@D+E+9#+#|.*.0#a#b#c#d#e#f#g#e#Y.k 8 ",
"    W b.<#h#i#j#V.k#l#m#n#M o###p#q#q#r#N.s#t#u#v#).<#b.y & Q.w#",
"    a x#y !.y#<#z#*#0.A#B#-#C#D#U.,.E#F#N G#*#).H#-#y [ 8 , I#|@",
"    . { @ [ j }#c.@@x -#h 2 @ J#y.d#r K#L#Y.c.i M#: - l N#;+|@O#",
"    D Q.8 * & $ ~ $ [ P#q ,+Q#i }#}#h % & @ { - 2 > ] R#;+S#a k+",
"    T#q - U#@ & & # % - 3+V#W#X#j k $ * Y#8 - ; > ] 3 Z#`# $.$7+",
"    +$,+; 8 @$& #$% ( $$%$a w#k &$% *$Y#8 =$; W ] 3 ;+Y -$;$>$o+",
"    ,$^ '$2 Y#* & } & ;+|@8+)$[ & @ U#8 2 Q.W 7 w#;+`#-$8+5 !$m+",
"      ~${$> 8 { q 3 3 ,+]$^$w#& * { /$2 ($, N#w#3+,+-$a 5 k+!$o+",
"      7+I#] ; { > ,+_$:$^ 5 Q#@$8 - ; > ] R#;+Y |@ $<$^ k+>$!$o+"};
