/* XPM */
static char * nrm_tngCik_xpm[] = {
"32 32 535 2",
"  	c #C3C2C2",
". 	c #C0BFBF",
"+ 	c #B8B8B8",
"@ 	c #A0A2A4",
"# 	c #8F9497",
"$ 	c #949A9C",
"% 	c #9B9FA2",
"& 	c #848788",
"* 	c #77797B",
"= 	c #818385",
"- 	c #878B8D",
"; 	c #8E9293",
"> 	c #94989A",
", 	c #979B9D",
"' 	c #9B9EA0",
") 	c #9CA0A3",
"! 	c #A2A6A7",
"~ 	c #BEBEBD",
"{ 	c #BCBCBB",
"] 	c #B4B5B4",
"^ 	c #9B9E9F",
"/ 	c #757879",
"( 	c #65686A",
"_ 	c #65696B",
": 	c #6D7173",
"< 	c #777C7E",
"[ 	c #7F8487",
"} 	c #868B8F",
"| 	c #8B9093",
"1 	c #8E9396",
"2 	c #919699",
"3 	c #959B9D",
"4 	c #BBBBBA",
"5 	c #B3B4B3",
"6 	c #7C7B79",
"7 	c #646768",
"8 	c #676C6E",
"9 	c #6D7274",
"0 	c #767B7D",
"a 	c #808588",
"b 	c #878C8F",
"c 	c #909699",
"d 	c #979C9F",
"e 	c #BCBCBC",
"f 	c #B9B9B9",
"g 	c #AAAAA8",
"h 	c #787874",
"i 	c #686A6B",
"j 	c #696D6F",
"k 	c #707476",
"l 	c #808688",
"m 	c #878D8F",
"n 	c #8B9194",
"o 	c #8E9497",
"p 	c #969C9F",
"q 	c #B9B9B8",
"r 	c #A1A19D",
"s 	c #71706B",
"t 	c #6B6D6C",
"u 	c #6C6F71",
"v 	c #727678",
"w 	c #7A7E80",
"x 	c #868C8E",
"y 	c #8B9193",
"z 	c #8F9597",
"A 	c #919799",
"B 	c #BBBABA",
"C 	c #B8B7B7",
"D 	c #B6B5B5",
"E 	c #908F8A",
"F 	c #72716D",
"G 	c #6E6F6E",
"H 	c #707274",
"I 	c #75797B",
"J 	c #7C8183",
"K 	c #82888A",
"L 	c #8C9194",
"M 	c #8F9598",
"N 	c #92979A",
"O 	c #969C9E",
"P 	c #BAB9B8",
"Q 	c #B7B6B5",
"R 	c #A1A19F",
"S 	c #84827D",
"T 	c #737271",
"U 	c #707171",
"V 	c #747777",
"W 	c #7A7D7F",
"X 	c #7E8385",
"Y 	c #84898B",
"Z 	c #8C9294",
"` 	c #909698",
" .	c #92989A",
"..	c #B5B5B4",
"+.	c #B4B4B3",
"@.	c #848685",
"#.	c #6E6F6F",
"$.	c #747474",
"%.	c #757678",
"&.	c #797C7D",
"*.	c #7D8182",
"=.	c #808587",
"-.	c #868A8C",
";.	c #898F91",
">.	c #8C9395",
",.	c #B8B8B7",
"'.	c #B3B3B2",
").	c #969A9A",
"!.	c #727376",
"~.	c #777779",
"{.	c #7F8082",
"].	c #7E8183",
"^.	c #7F8485",
"/.	c #828789",
"(.	c #888C8E",
"_.	c #929899",
":.	c #969C9D",
"<.	c #B7B7B6",
"[.	c #8E9899",
"}.	c #6E7A7C",
"|.	c #848789",
"1.	c #838788",
"2.	c #838688",
"3.	c #868A8D",
"4.	c #898E90",
"5.	c #8C9093",
"6.	c #8F9496",
"7.	c #969B9D",
"8.	c #B6B4B5",
"9.	c #B2B0B1",
"0.	c #929092",
"a.	c #788687",
"b.	c #858B8D",
"c.	c #86898B",
"d.	c #878B8E",
"e.	c #909597",
"f.	c #93989B",
"g.	c #979C9E",
"h.	c #B4B4B4",
"i.	c #B0B0B0",
"j.	c #B4ADAD",
"k.	c #C4A09F",
"l.	c #C18C8B",
"m.	c #8A7274",
"n.	c #6E8387",
"o.	c #858D90",
"p.	c #888D90",
"q.	c #909498",
"r.	c #B4B2B2",
"s.	c #B0AEAE",
"t.	c #BFA0A0",
"u.	c #D49291",
"v.	c #E17C7C",
"w.	c #E3696C",
"x.	c #EF5D60",
"y.	c #D66264",
"z.	c #907778",
"A.	c #71878A",
"B.	c #818C8F",
"C.	c #898D90",
"D.	c #909598",
"E.	c #93999B",
"F.	c #B3B1B1",
"G.	c #AFADAD",
"H.	c #C59A99",
"I.	c #DC8887",
"J.	c #E16C6C",
"K.	c #DF5A5E",
"L.	c #E25D60",
"M.	c #E96264",
"N.	c #F46A69",
"O.	c #FF706E",
"P.	c #E86968",
"Q.	c #A06567",
"R.	c #787B7E",
"S.	c #858E90",
"T.	c #B1B0B0",
"U.	c #ADACAC",
"V.	c #BD9395",
"W.	c #D97C7D",
"X.	c #DD6262",
"Y.	c #D95055",
"Z.	c #E3595D",
"`.	c #EC6164",
" +	c #F46B6A",
".+	c #F06967",
"++	c #E56061",
"@+	c #D24F54",
"#+	c #C33944",
"$+	c #AE2533",
"%+	c #7E525B",
"&+	c #7F8A8D",
"*+	c #8C9295",
"=+	c #8F9396",
"-+	c #B0AFAF",
";+	c #ACABAB",
">+	c #B29B9C",
",+	c #CD7577",
"'+	c #D6585C",
")+	c #D0474E",
"!+	c #DA4F55",
"~+	c #EB5D5E",
"{+	c #EE6363",
"]+	c #DE585A",
"^+	c #CD4A4F",
"/+	c #BB3A45",
"(+	c #AA2D3B",
"_+	c #A02335",
":+	c #A3263A",
"<+	c #BB2C43",
"[+	c #9F4B5A",
"}+	c #7A7E81",
"|+	c #879195",
"1+	c #91979A",
"2+	c #AEADAE",
"3+	c #AAA9AA",
"4+	c #B98184",
"5+	c #CC555A",
"6+	c #C73F47",
"7+	c #D4464D",
"8+	c #DF5055",
"9+	c #DD5356",
"0+	c #BF3D44",
"a+	c #A92A36",
"b+	c #9F2232",
"c+	c #9D2132",
"d+	c #A5273A",
"e+	c #B13347",
"f+	c #C14359",
"g+	c #D55A6E",
"h+	c #F76F86",
"i+	c #C8717F",
"j+	c #7D7D81",
"k+	c #858F91",
"l+	c #ADACAD",
"m+	c #A9A8A9",
"n+	c #AA9D9F",
"o+	c #BB6268",
"p+	c #C44249",
"q+	c #C53B43",
"r+	c #CF4349",
"s+	c #CF484D",
"t+	c #B6363F",
"u+	c #9C202E",
"v+	c #901527",
"w+	c #971B2F",
"x+	c #A62A3E",
"y+	c #B93C50",
"z+	c #D15468",
"A+	c #E86B7F",
"B+	c #F6798D",
"C+	c #FD7E93",
"D+	c #FF7188",
"E+	c #BC6F7B",
"F+	c #808486",
"G+	c #879093",
"H+	c #8F9498",
"I+	c #92989B",
"J+	c #A8A7A7",
"K+	c #A88D8F",
"L+	c #B1474F",
"M+	c #BB373F",
"N+	c #C43941",
"O+	c #C13A42",
"P+	c #B0313A",
"Q+	c #991F2D",
"R+	c #8E1528",
"S+	c #951C30",
"T+	c #A92E41",
"U+	c #BF4357",
"V+	c #D75B6E",
"W+	c #EC6D81",
"X+	c #F57488",
"Y+	c #F26E83",
"Z+	c #E46176",
"`+	c #D84A63",
" @	c #B95060",
".@	c #87797C",
"+@	c #808A8B",
"@@	c #8A9092",
"#@	c #8E9498",
"$@	c #959A9D",
"%@	c #ABAAAA",
"&@	c #A7A6A6",
"*@	c #A38488",
"=@	c #A4343F",
"-@	c #AE2934",
";@	c #B12C37",
">@	c #A62933",
",@	c #951D2B",
"'@	c #8A1325",
")@	c #92192C",
"!@	c #A52B3E",
"~@	c #BB4054",
"{@	c #D4576B",
"]@	c #E8687C",
"^@	c #ED6A7E",
"/@	c #E45E74",
"(@	c #D34E64",
"_@	c #C4445A",
":@	c #BA3A53",
"<@	c #A94456",
"[@	c #8B7677",
"}@	c #859191",
"|@	c #8B9295",
"1@	c #8E9496",
"2@	c #AAA9A9",
"3@	c #A6A5A5",
"4@	c #9F8386",
"5@	c #982C39",
"6@	c #9E1E2B",
"7@	c #9B1E2A",
"8@	c #8A1523",
"9@	c #840F1F",
"0@	c #8A1326",
"a@	c #9A2336",
"b@	c #B03649",
"c@	c #C94C5F",
"d@	c #DD5D71",
"e@	c #E45F74",
"f@	c #DB546A",
"g@	c #CC495F",
"h@	c #BD4158",
"i@	c #B03F54",
"j@	c #9E384C",
"k@	c #88263A",
"l@	c #7F565C",
"m@	c #899190",
"n@	c #90989A",
"o@	c #A9A8A8",
"p@	c #A5A4A4",
"q@	c #A09092",
"r@	c #8C2B38",
"s@	c #8C1121",
"t@	c #86111F",
"u@	c #760718",
"v@	c #78081A",
"w@	c #8B1527",
"x@	c #A1293C",
"y@	c #BC3E52",
"z@	c #D14F63",
"A@	c #DA5469",
"B@	c #D54E65",
"C@	c #C8465C",
"D@	c #B94158",
"E@	c #A73C51",
"F@	c #8C3042",
"G@	c #722031",
"H@	c #5E0D1A",
"I@	c #591C24",
"J@	c #777072",
"K@	c #8E999B",
"L@	c #94999C",
"M@	c #A7A7A7",
"N@	c #A3A3A3",
"O@	c #A19E9E",
"P@	c #843A45",
"Q@	c #7A0716",
"R@	c #740717",
"S@	c #6D0212",
"T@	c #77071A",
"U@	c #8D182A",
"V@	c #A62A3D",
"W@	c #BE3C50",
"X@	c #CF475C",
"Y@	c #D14960",
"Z@	c #C8455D",
"`@	c #B9445A",
" #	c #9F3A4E",
".#	c #7E2738",
"+#	c #651A27",
"@#	c #581420",
"##	c #67373A",
"$#	c #877274",
"%#	c #827578",
"&#	c #848D8D",
"*#	c #8E9699",
"=#	c #8E9598",
"-#	c #8F9699",
";#	c #90979A",
">#	c #93999C",
",#	c #A7A5A6",
"'#	c #A3A1A2",
")#	c #A3A59A",
"!#	c #94BB2D",
"~#	c #7C5212",
"{#	c #670010",
"]#	c #750616",
"^#	c #8C1527",
"/#	c #A52439",
"(#	c #BB3249",
"_#	c #C83F55",
":#	c #C9455D",
"<#	c #BE485F",
"[#	c #A03B4F",
"}#	c #782535",
"|#	c #5E1724",
"1#	c #5D252E",
"2#	c #7A585D",
"3#	c #95888A",
"4#	c #858B8C",
"5#	c #81888B",
"6#	c #8B9396",
"7#	c #8D9396",
"8#	c #A1A0A0",
"9#	c #9BC651",
"0#	c #99FF00",
"a#	c #786009",
"b#	c #720213",
"c#	c #890D21",
"d#	c #A01B2F",
"e#	c #B52C43",
"f#	c #C63F57",
"g#	c #C74B63",
"h#	c #A84257",
"i#	c #7A2738",
"j#	c #5D1C27",
"k#	c #663B41",
"l#	c #887476",
"m#	c #9F9D9D",
"n#	c #9A9B9B",
"o#	c #767A7B",
"p#	c #7A8184",
"q#	c #858C90",
"r#	c #878F92",
"s#	c #888F92",
"t#	c #899093",
"u#	c #8C9396",
"v#	c #8D9497",
"w#	c #A4A3A4",
"x#	c #A09E9F",
"y#	c #8FAA32",
"z#	c #98F601",
"A#	c #862B15",
"B#	c #971127",
"C#	c #B62D44",
"D#	c #CB4B64",
"E#	c #BC4F66",
"F#	c #892F41",
"G#	c #60202B",
"H#	c #6E484D",
"I#	c #8C7C7E",
"J#	c #908F90",
"K#	c #6D7074",
"L#	c #737B7E",
"M#	c #7D8589",
"N#	c #80888C",
"O#	c #828B8E",
"P#	c #8A9194",
"Q#	c #A4A3A3",
"R#	c #9F9E9E",
"S#	c #786729",
"T#	c #969A0E",
"U#	c #BA324A",
"V#	c #CE566E",
"W#	c #A7465A",
"X#	c #6C2835",
"Y#	c #673F43",
"Z#	c #8B7D7E",
"`#	c #808182",
" $	c #5F6669",
".$	c #6B7377",
"+$	c #747C80",
"@$	c #7A8286",
"#$	c #7E868A",
"$$	c #868E91",
"%$	c #A4A2A2",
"&$	c #60131D",
"*$	c #91D503",
"=$	c #A0DA10",
"-$	c #CA5971",
";$	c #8B394A",
">$	c #65343C",
",$	c #847373",
"'$	c #888888",
")$	c #697072",
"!$	c #666F73",
"~$	c #727A7E",
"{$	c #798185",
"]$	c #7F878B",
"^$	c #838B8F",
"/$	c #A2A1A2",
"($	c #9D9C9D",
"_$	c #5F000F",
":$	c #7A330A",
"<$	c #99F102",
"[$	c #A0DD15",
"}$	c #773743",
"|$	c #795E61",
"1$	c #9A9698",
"2$	c #909092",
"3$	c #70767A",
"4$	c #636C70",
"5$	c #6A7376",
"6$	c #737C7F",
"7$	c #7B8386",
"8$	c #80888B",
"9$	c #848C8F",
"0$	c #878D90",
"a$	c #A19FA0",
"b$	c #9C9A9B",
"c$	c #62000D",
"d$	c #8A1023",
"e$	c #B54F51",
"f$	c #9EA42D",
"g$	c #78623F",
"h$	c #877B7C",
"i$	c #919193",
"j$	c #6E7376",
"k$	c #656E71",
"l$	c #6E787A",
"m$	c #778083",
"n$	c #818A8D",
"o$	c #9F9E9F",
"p$	c #9B9A9B",
"q$	c #72343E",
"r$	c #882D3E",
"s$	c #874854",
"t$	c #82656A",
"u$	c #979395",
"v$	c #686F72",
"w$	c #6B7376",
"x$	c #7A8285",
"y$	c #80878A",
"z$	c #838B8E",
"A$	c #898F92",
"B$	c #A3A2A3",
"C$	c #999092",
"D$	c #947E83",
"E$	c #989092",
"F$	c #797E80",
"G$	c #70777A",
"H$	c #787F82",
"I$	c #7E8588",
"J$	c #828A8D",
"  . . . . . . . . . . . . . . . . + @ # $ % & * = - ; > , ' ) ! ",
"~ { { { { { { { { { { { { { { { { { { ] ^ / ( _ : < [ } | 1 2 3 ",
"~ 4 4 4 4 4 4 4 4 4 4 4 4 4 4 4 4 4 4 4 5 6 7 8 9 0 a b | 1 c d ",
"e f f f f f f f f f f f f f f f f f f f g h i j k < l m n o c p ",
"{ q q q q q q q q q q q q q q q q q q q r s t u v w l x y z A p ",
"B C C C C C C C C C C C C C C C C C C D E F G H I J K x L M N O ",
"P Q Q Q Q Q Q Q Q Q Q Q Q Q Q Q Q Q Q R S T U V W X Y m Z `  .O ",
"+ ..................................+.@.#.$.%.&.*.=.-.;.>.`  .O ",
",.+.+.+.+.+.+.+.+.+.+.+.+.+.+.+.+.+.'.).!.~.{.].^./.(.| o ` _.:.",
"<.'.'.'.'.'.'.'.'.'.'.'.'.'.'.'.'.'.'.'.[.}.|.1.2.3.4.5.6.`  .7.",
"8.9.9.9.9.9.9.9.9.9.9.9.9.9.9.9.9.9.9.9.9.0.a.b.c.d.4.L e.A f.g.",
"h.i.i.i.i.i.i.i.i.i.i.i.i.i.i.i.i.i.i.j.k.l.m.n.o.(.p.L q.N f.g.",
"r.s.s.s.s.s.s.s.s.s.s.s.s.s.s.s.s.t.u.v.w.x.y.z.A.B.C.L D.N E.g.",
"F.G.G.G.G.G.G.G.G.G.G.G.G.G.G.H.I.J.K.L.M.N.O.P.Q.R.S.Z # N E.g.",
"T.U.U.U.U.U.U.U.U.U.U.U.U.V.W.X.Y.Z.`. +.+++@+#+$+%+&+*+=+ .E.O ",
"-+;+;+;+;+;+;+;+;+;+;+>+,+'+)+!+~+{+]+^+/+(+_+:+<+[+}+|+o 1+E.O ",
"2+3+3+3+3+3+3+3+3+3+4+5+6+7+8+9+0+a+b+c+d+e+f+g+h+i+j+k+o 1+E.3 ",
"l+m+m+m+m+m+m+m+n+o+p+q+r+s+t+u+v+w+x+y+z+A+B+C+D+E+F+G+H+A I+3 ",
";+J+J+J+J+J+J+K+L+M+N+O+P+Q+R+S+T+U+V+W+X+Y+Z+`+ @.@+@@@#@A I+$@",
"%@&@&@&@&@&@*@=@-@;@>@,@'@)@!@~@{@]@^@/@(@_@:@<@[@}@|@1@M c I+$@",
"2@3@3@3@3@4@5@6@7@8@9@0@a@b@c@d@e@f@g@h@i@j@k@l@m@n@e.o D.1+I+$@",
"o@p@p@p@q@r@s@t@u@v@w@x@y@z@A@B@C@D@E@F@G@H@I@J@K@c M M c 1+1+L@",
"M@N@N@O@P@Q@R@S@T@U@V@W@X@Y@Z@`@ #.#+#@###$#%#&#*#=##@M -#c ;#>#",
",#'#)#!#~#{#{#]#^#/#(#_#:#<#[#}#|#1#2#3#'#'#4#5#|@6#*+7#=#-#-#f.",
"p@8#9#0#0#a#b#c#d#e#f#g#h#i#j#k#l#m#8#8#8#n#o#p#q#r#s#t#u#v#=#I+",
"w#x#y#0#0#z#A#B#C#D#E#F#G#H#I#x#x#x#x#x#x#J#K#L#M#N#O#o.t#P#u#c ",
"Q#R#S#0#0#0#T#U#V#W#X#Y#Z#R#R#R#R#R#R#R#R#`# $.$+$@$#$O#$$s#P#o ",
"%$m#&$*$0#0#=$-$;$>$,$m#m#m#m#m#m#m#m#m#m#'$)$!$.$~${$]$^$$$s#7#",
"/$($_$:$<$0#[$}$|$1$($($($($($($($($($($($($2$3$4$5$6$7$8$9$0$*+",
"a$b$c$d$e$f$g$h$b$b$b$b$b$b$b$b$b$b$b$b$b$b$b$i$j$k$l$m$M#n$o.n ",
"o$p$q$r$s$t$u$p$p$p$p$p$p$p$p$p$p$p$p$p$p$p$p$p$2$v$w$6$x$y$z$A$",
"B$o$C$D$E$o$o$o$o$o$o$o$o$o$o$o$o$o$o$o$o$o$o$o$o$F$k$G$H$I$J$s#"};
