/* XPM */
static char * nrm_rtfkleg_xpm[] = {
"32 32 380 2",
"  	c #C3C2C2",
". 	c #C0BFBF",
"+ 	c #B7B6B6",
"@ 	c #BABABA",
"# 	c #BFBFBF",
"$ 	c #B6B6B6",
"% 	c #A9A8A8",
"& 	c #8E8E8E",
"* 	c #878686",
"= 	c #B9B8B8",
"- 	c #BEBDBD",
"; 	c #BEBEBD",
"> 	c #BCBCBB",
", 	c #B7B7B7",
"' 	c #C0C0C0",
") 	c #C4C4C4",
"! 	c #B8B8B8",
"~ 	c #C5C5C5",
"{ 	c #A3A3A3",
"] 	c #7A7A7A",
"^ 	c #B2B2B1",
"/ 	c #BBBBBA",
"( 	c #CBCDCD",
"_ 	c #D4D4D5",
": 	c #CFCFCF",
"< 	c #C9C8C8",
"[ 	c #BDBDBD",
"} 	c #AFAFAF",
"| 	c #878787",
"1 	c #5C5C5B",
"2 	c #A6A6A5",
"3 	c #B6B6B5",
"4 	c #969695",
"5 	c #000000",
"6 	c #3E3E3E",
"7 	c #0C0C0C",
"8 	c #898988",
"9 	c #BCBCBC",
"0 	c #B9B9B9",
"a 	c #B7AFAF",
"b 	c #B8BBBB",
"c 	c #AFAEAE",
"d 	c #9B9B9B",
"e 	c #909090",
"f 	c #838383",
"g 	c #6A6A6A",
"h 	c #626262",
"i 	c #9A9A9A",
"j 	c #B1B1B1",
"k 	c #888888",
"l 	c #ADADAD",
"m 	c #565656",
"n 	c #B9B9B8",
"o 	c #B9B3B2",
"p 	c #E4A4A5",
"q 	c #A98F8F",
"r 	c #777A7A",
"s 	c #656565",
"t 	c #5D5D5D",
"u 	c #50504F",
"v 	c #696969",
"w 	c #868686",
"x 	c #787878",
"y 	c #ACACAB",
"z 	c #B8B8B7",
"A 	c #888887",
"B 	c #252525",
"C 	c #4A4A4A",
"D 	c #BBBABA",
"E 	c #B8B7B7",
"F 	c #BCA9A9",
"G 	c #F5A3A3",
"H 	c #8D4747",
"I 	c #3C4242",
"J 	c #3B3B3B",
"K 	c #353535",
"L 	c #444444",
"M 	c #666565",
"N 	c #999899",
"O 	c #6A6969",
"P 	c #A4A3A3",
"Q 	c #B4B3B3",
"R 	c #565555",
"S 	c #BAB9B8",
"T 	c #B7B6B5",
"U 	c #C4A1A0",
"V 	c #F29494",
"W 	c #783838",
"X 	c #848382",
"Y 	c #717171",
"Z 	c #797877",
"` 	c #908F8F",
" .	c #7E7D7C",
"..	c #898989",
"+.	c #8A8988",
"@.	c #AEADAC",
"#.	c #858584",
"$.	c #868585",
"%.	c #B5B5B4",
"&.	c #D1A2A1",
"*.	c #E17978",
"=.	c #764A49",
"-.	c #929291",
";.	c #A0A0A0",
">.	c #A4A4A3",
",.	c #A5A5A4",
"'.	c #A8A8A7",
").	c #848483",
"!.	c #6C6C6C",
"~.	c #838382",
"{.	c #545454",
"].	c #181818",
"^.	c #A9A9A8",
"/.	c #B4B4B3",
"(.	c #DFA7A7",
"_.	c #C65859",
":.	c #7B6261",
"<.	c #999998",
"[.	c #B3B3B2",
"}.	c #8B8B8B",
"|.	c #848485",
"1.	c #949493",
"2.	c #8A8A8A",
"3.	c #90908F",
"4.	c #242424",
"5.	c #60605F",
"6.	c #B7B7B6",
"7.	c #B5ADAC",
"8.	c #EEAAAA",
"9.	c #AA3C3C",
"0.	c #837A79",
"a.	c #9E9E9D",
"b.	c #AFAFAE",
"c.	c #717170",
"d.	c #B6B4B5",
"e.	c #B2B0B1",
"f.	c #BCA3A3",
"g.	c #F2A2A2",
"h.	c #8B3738",
"i.	c #8C8B8C",
"j.	c #A2A0A1",
"k.	c #B0AEAF",
"l.	c #B1AFB0",
"m.	c #848384",
"n.	c #7A797A",
"o.	c #9B999A",
"p.	c #ACAAAB",
"q.	c #B4B4B4",
"r.	c #B0B0B0",
"s.	c #C79F9F",
"t.	c #F08E8E",
"u.	c #763F40",
"v.	c #8F8F8F",
"w.	c #A5A5A5",
"x.	c #A2A2A2",
"y.	c #ABABAB",
"z.	c #757575",
"A.	c #B4B2B2",
"B.	c #B0AEAE",
"C.	c #DAA5A6",
"D.	c #DE6E6E",
"E.	c #734D4D",
"F.	c #939191",
"G.	c #A8A6A6",
"H.	c #AEACAC",
"I.	c #838282",
"J.	c #C0C0BF",
"K.	c #727272",
"L.	c #9C9A9A",
"M.	c #ACAAAA",
"N.	c #B3B1B1",
"O.	c #AFADAD",
"P.	c #B1A5A5",
"Q.	c #EDAFAF",
"R.	c #C04F4F",
"S.	c #786464",
"T.	c #969595",
"U.	c #A9A7A7",
"V.	c #959393",
"W.	c #B0B0B1",
"X.	c #797777",
"Y.	c #A5A3A3",
"Z.	c #B1B0B0",
"`.	c #ADACAC",
" +	c #B59E9E",
".+	c #F1A4A4",
"++	c #A73433",
"@+	c #7F7474",
"#+	c #999898",
"$+	c #AAA9A9",
"%+	c #858585",
"&+	c #AAAAAA",
"*+	c #9B9A9A",
"=+	c #B0AFAF",
"-+	c #ACABAB",
";+	c #BA9898",
">+	c #F09798",
",+	c #8E3434",
"'+	c #888787",
")+	c #9D9C9C",
"!+	c #ABAAAA",
"~+	c #929191",
"{+	c #ADAEAE",
"]+	c #919191",
"^+	c #A5A4A4",
"/+	c #AEADAE",
"(+	c #AAA9AA",
"_+	c #B18D8E",
":+	c #E16B6B",
"<+	c #972A2A",
"[+	c #868081",
"}+	c #9E9D9E",
"|+	c #A9A8A9",
"1+	c #A1A0A1",
"2+	c #737373",
"3+	c #7D7C7D",
"4+	c #9F9E9F",
"5+	c #ADACAD",
"6+	c #AC9091",
"7+	c #E77475",
"8+	c #C32E2E",
"9+	c #7B5859",
"0+	c #9B9A9B",
"a+	c #A8A7A8",
"b+	c #7E7E7E",
"c+	c #6D6C6D",
"d+	c #A7A6A7",
"e+	c #A8A7A7",
"f+	c #A59999",
"g+	c #DF6968",
"h+	c #D43C3D",
"i+	c #783232",
"j+	c #939292",
"k+	c #A3A2A2",
"l+	c #9A9999",
"m+	c #818181",
"n+	c #605F5F",
"o+	c #A7A6A6",
"p+	c #A6A5A5",
"q+	c #CA6767",
"r+	c #DF4D4D",
"s+	c #8D1F1F",
"t+	c #837777",
"u+	c #9E9D9D",
"v+	c #A09F9F",
"w+	c #595858",
"x+	c #A2A1A1",
"y+	c #B96D6D",
"z+	c #E45B5B",
"A+	c #AD2424",
"B+	c #724F4F",
"C+	c #979696",
"D+	c #959494",
"E+	c #8F8E8E",
"F+	c #AC7676",
"G+	c #E56262",
"H+	c #CB2B2B",
"I+	c #712B2B",
"J+	c #8E8D8D",
"K+	c #9F9E9E",
"L+	c #969696",
"M+	c #525252",
"N+	c #8B8A8A",
"O+	c #A7A7A7",
"P+	c #A18686",
"Q+	c #E36666",
"R+	c #DA3E3E",
"S+	c #861C1C",
"T+	c #7E7070",
"U+	c #999999",
"V+	c #AEAEAE",
"W+	c #535353",
"X+	c #A7A5A6",
"Y+	c #A3A1A2",
"Z+	c #A09697",
"`+	c #DB6969",
" @	c #E05353",
".@	c #A31F1F",
"+@	c #704E4D",
"@@	c #939192",
"#@	c #A09E9F",
"$@	c #989798",
"%@	c #9D9D9D",
"&@	c #5C5C5C",
"*@	c #7B7A7B",
"=@	c #999798",
"-@	c #A1A0A0",
";@	c #CE6E6E",
">@	c #E36363",
",@	c #BA2727",
"'@	c #6D2929",
")@	c #8D8D8D",
"!@	c #6E6F6E",
"~@	c #949393",
"{@	c #A4A3A4",
"]@	c #C47878",
"^@	c #E77979",
"/@	c #CD3333",
"(@	c #741617",
"_@	c #7E7374",
":@	c #979596",
"<@	c #9F9D9E",
"[@	c #8E8C8D",
"}@	c #949495",
"|@	c #6D6D6D",
"1@	c #5C5A5B",
"2@	c #8F8D8E",
"3@	c #9D9B9C",
"4@	c #C07B7B",
"5@	c #E46F6F",
"6@	c #B82B2B",
"7@	c #621313",
"8@	c #756060",
"9@	c #8C8C8C",
"0@	c #737372",
"a@	c #807F7F",
"b@	c #A4A2A2",
"c@	c #9F9D9D",
"d@	c #A69797",
"e@	c #E8A4A4",
"f@	c #EA8484",
"g@	c #A03535",
"h@	c #6B1514",
"i@	c #715A5A",
"j@	c #8F8D8D",
"k@	c #9D9B9B",
"l@	c #9A9898",
"m@	c #929292",
"n@	c #707070",
"o@	c #878585",
"p@	c #9E9C9C",
"q@	c #A2A1A2",
"r@	c #9D9C9D",
"s@	c #AA9494",
"t@	c #CA7879",
"u@	c #B74646",
"v@	c #934545",
"w@	c #812F2F",
"x@	c #601212",
"y@	c #6C5D5D",
"z@	c #9A999A",
"A@	c #9C9B9C",
"B@	c #868586",
"C@	c #6E6D6E",
"D@	c #7D7D7D",
"E@	c #848585",
"F@	c #616061",
"G@	c #A19FA0",
"H@	c #9C9A9B",
"I@	c #AD8788",
"J@	c #EDA0A0",
"K@	c #DC7F7F",
"L@	c #9B2C2C",
"M@	c #511313",
"N@	c #693636",
"O@	c #6A5757",
"P@	c #7E7C7D",
"Q@	c #9A9899",
"R@	c #989697",
"S@	c #848283",
"T@	c #747374",
"U@	c #727172",
"V@	c #7F7D7E",
"W@	c #929091",
"X@	c #9B8585",
"Y@	c #A77B7B",
"Z@	c #936666",
"`@	c #744B4B",
" #	c #716869",
".#	c #828182",
"+#	c #8B8A8B",
"@#	c #969596",
"##	c #919091",
"$#	c #898889",
"%#	c #8E8D8E",
"&#	c #949394",
"*#	c #A3A2A3",
"=#	c #959495",
"-#	c #878687",
";#	c #979697",
"  . . . . . . . . + @ # $ % & * = - . . . . . . . . . . . . .   ",
"; > > > > > > > > , ' ) ! ~ ' { ] ^ / > > > > > > > > > > > > ; ",
"; / / / / / / / / ( _ : < [ } | 1 2 3 / 4 5 5 5 6 4 7 / 4 7 8 ; ",
"9 0 0 0 0 0 0 0 ! a b c d e f g h i j 0 k 5 0 0 0 k 5 l 7 m 0 9 ",
"> n n n n n n n o p q r s t u v w x y z A 5 n n n A 5 B C n n > ",
"D E E E E E E E F G H I J K L M N O P Q * 5 5 5 h * 5 5 R E E D ",
"S T T T T T T T U V W X Y Z `  .d ..+.@.#.5 T T T $.5 $.5 $.T S ",
"! %.%.%.%.%.%.%.&.*.=.-.;.>.,.'.).j !.,.~.5 %.%.%.#.5 %.{.].^.! ",
"z /././././././.(._.:.<.y ^ ^ [.}., |.1.2.7 /././.3.7 /.'.4.5.z ",
"6.[.[.[.[.[.[.7.8.9.0.a.b.[.[.[.b.1.} c.2 ^ [.[.[.[.[.[.[.[.[.6.",
"d.e.e.e.e.e.e.f.g.h.i.j.k.e.e.e.l.m.[ n.o.p.e.e.e.e.e.e.e.e.e.d.",
"q.r.r.r.r.r.r.s.t.u.v.w.} r.r.r.r.x.x.y.z.w.} r.r.r.r.r.r.r.r.q.",
"A.B.B.B.B.B.B.C.D.E.F.G.B.B.B.B.B.H.I.J.K.L.M.B.B.B.B.B.B.B.B.A.",
"N.O.O.O.O.O.P.Q.R.S.T.U.O.O.O.O.O.O.V.W.d X.Y.H.O.O.O.O.O.O.O.N.",
"Z.`.`.`.`.`. +.+++@+#+% `.`.`.`.`.`.$+%+&+M *+$+`.`.`.`.`.`.`.Z.",
"=+-+-+-+-+-+;+>+,+'+)+$+-+-+-+-+-+-+!+~+{+z.]+^+-+-+-+-+-+-+-+=+",
"/+(+(+(+(+(+_+:+<+[+}+|+(+(+(+(+(+(+(+1+&+2+3+4+|+(+(+(+(+(+(+/+",
"5+|+|+|+|+|+6+7+8+9+0+a+|+|+|+|+|+|+|+}+j b+c+i d+|+|+|+|+|+|+5+",
"-+e+e+e+e+e+f+g+h+i+j+k+e+e+e+e+e+e+e+l+} m+n+T.^+e+e+e+e+e+e+-+",
"!+o+o+o+o+o+p+q+r+s+t+u+p+o+o+o+o+o+o+v+l %+w+~+x+o+o+o+o+o+o+!+",
"$+p+p+p+p+p+^+y+z+A+B+C+k+p+p+p+p+p+p+D+r.}.{.E+v+p+p+p+p+p+p+$+",
"% ^+^+^+^+^+^+F+G+H+I+J+K+^+^+^+^+^+^+L+r.v.M+N+u+^+^+^+^+^+^+% ",
"O+{ { { { { { P+Q+R+S+T+U+x.{ { { { { d V+L+W+| d { { { { { { O+",
"X+Y+Y+Y+Y+Y+Y+Z+`+ @.@+@@@#@Y+Y+Y+Y+Y+$@{+%@&@*@=@j.Y+Y+Y+Y+Y+X+",
"^+-@-@-@-@-@-@v+;@>@,@'@N+*+-@-@-@-@-@)@j O+!@O ~@v+-@-@-@-@-@^+",
"{@#@#@#@#@#@#@#@]@^@/@(@_@:@<@#@#@#@#@[@}@d |@1@2@3@#@#@#@#@#@{@",
"P K+K+K+K+K+K+K+4@5@6@7@8@~+u+K+K+K+K+#+9@x.)+0@a@#+K+K+K+K+K+P ",
"b@c@c@c@c@c@c@d@e@f@g@h@i@j@k@c@c@c@c@l@m@x.b+n@M o@L.p@c@c@c@b@",
"q@r@r@r@r@r@s@t@u@v@w@x@y@i.z@r@r@r@r@A@B@C@&@D@E@F@n@$@A@r@r@q@",
"G@H@H@H@H@I@J@K@L@M@N@O@P@2@Q@H@H@H@H@H@R@2@S@T@U@C@V@W@Q@H@H@G@",
"4+0+0+0+0+X@Y@Z@`@ #*@.#+#@#z@0+0+0+0+0+z@N @###+#$#%#&#N 0+0+4+",
"*#4+4+4+4+r@=#2.-#2.##;#0+}+4+4+4+4+4+4+4+4+4+}+r@0+r@}+}+4+4+*#"};
