/* XPM */
static char * nrm_jawl_xpm[] = {
"32 32 687 2",
"  	c #717A7B",
". 	c #484C4D",
"+ 	c #2F3031",
"@ 	c #646767",
"# 	c #F9FAFA",
"$ 	c #FFFFFF",
"% 	c #EDEDED",
"& 	c #545454",
"* 	c #000000",
"= 	c #4B4B4B",
"- 	c #F5F5F5",
"; 	c #F6F6F6",
"> 	c #8A8A8A",
", 	c #575757",
"' 	c #7A7A7A",
") 	c #989898",
"! 	c #A3A3A3",
"~ 	c #F1F1F1",
"{ 	c #717171",
"] 	c #2B2B2B",
"^ 	c #E3E3E3",
"/ 	c #FBFBFB",
"( 	c #B9B9B9",
"_ 	c #8C8C8C",
": 	c #919191",
"< 	c #828181",
"[ 	c #7E8181",
"} 	c #727B7C",
"| 	c #4B5050",
"1 	c #2E2F30",
"2 	c #545656",
"3 	c #F1F2F3",
"4 	c #F4F4F4",
"5 	c #818181",
"6 	c #252525",
"7 	c #7C7C7C",
"8 	c #F7F7F7",
"9 	c #FCFCFC",
"0 	c #979797",
"a 	c #5A5A5A",
"b 	c #9F9F9F",
"c 	c #B0B0B0",
"d 	c #F8F8F8",
"e 	c #9C9C9C",
"f 	c #292929",
"g 	c #5E5E5E",
"h 	c #EFEFEF",
"i 	c #8D8D8D",
"j 	c #939393",
"k 	c #838282",
"l 	c #808181",
"m 	c #4E5354",
"n 	c #3A3B3B",
"o 	c #303131",
"p 	c #A5A5A5",
"q 	c #CFCFCF",
"r 	c #DFDFDF",
"s 	c #7D7D7D",
"t 	c #5C5C5C",
"u 	c #7E7E7E",
"v 	c #A8A8A8",
"w 	c #A6A6A6",
"x 	c #D9D9D9",
"y 	c #D2D2D2",
"z 	c #E7E7E7",
"A 	c #E0E0E0",
"B 	c #9B9B9B",
"C 	c #949494",
"D 	c #828282",
"E 	c #7D7E7E",
"F 	c #727A7B",
"G 	c #515555",
"H 	c #434444",
"I 	c #303030",
"J 	c #434343",
"K 	c #F0F0F0",
"L 	c #FEFFFF",
"M 	c #979898",
"N 	c #696969",
"O 	c #6A6B6B",
"P 	c #828383",
"Q 	c #A7A7A7",
"R 	c #CECECE",
"S 	c #FAFAFA",
"T 	c #FDFDFD",
"U 	c #DCDCDC",
"V 	c #929292",
"W 	c #999999",
"X 	c #717979",
"Y 	c #515556",
"Z 	c #414444",
"` 	c #3E3F3F",
" .	c #373737",
"..	c #414141",
"+.	c #9D9D9D",
"@.	c #AFAFAF",
"#.	c #AAABAB",
"$.	c #969797",
"%.	c #727272",
"&.	c #707070",
"*.	c #7D8182",
"=.	c #848787",
"-.	c #B3B3B3",
";.	c #909090",
">.	c #A1A1A1",
",.	c #B5B5B5",
"'.	c #C4C4C4",
").	c #C3C3C3",
"!.	c #969696",
"~.	c #9A9A9A",
"{.	c #7F7E7E",
"].	c #787979",
"^.	c #6F7879",
"/.	c #4F5555",
"(.	c #3F4141",
"_.	c #404242",
":.	c #484848",
"<.	c #535353",
"[.	c #606060",
"}.	c #686767",
"|.	c #6D6D6D",
"1.	c #6E6D6D",
"2.	c #747676",
"3.	c #858B8B",
"4.	c #848585",
"5.	c #8E8E8E",
"6.	c #878787",
"7.	c #A2A2A2",
"8.	c #A4A4A4",
"9.	c #7B7B7B",
"0.	c #6E7878",
"a.	c #515657",
"b.	c #3D3E3E",
"c.	c #3B3D3D",
"d.	c #474747",
"e.	c #5B5B5B",
"f.	c #5F5F5F",
"g.	c #656666",
"h.	c #6E6F6F",
"i.	c #676666",
"j.	c #6C7271",
"k.	c #868D8D",
"l.	c #838485",
"m.	c #B2B2B2",
"n.	c #AAAAAA",
"o.	c #AEAEAE",
"p.	c #8B8B8B",
"q.	c #777878",
"r.	c #797979",
"s.	c #6E7677",
"t.	c #545959",
"u.	c #393D3C",
"v.	c #353635",
"w.	c #40403F",
"x.	c #4D4D4D",
"y.	c #5B5A59",
"z.	c #646463",
"A.	c #727171",
"B.	c #757474",
"C.	c #5F605F",
"D.	c #6A7172",
"E.	c #899191",
"F.	c #ADADAD",
"G.	c #ACACAC",
"H.	c #868686",
"I.	c #6C7475",
"J.	c #59605C",
"K.	c #4E513F",
"L.	c #525139",
"M.	c #5F5D41",
"N.	c #68664E",
"O.	c #636355",
"P.	c #60615E",
"Q.	c #656566",
"R.	c #6B6B6B",
"S.	c #737373",
"T.	c #545555",
"U.	c #6F7778",
"V.	c #868D8E",
"W.	c #7F7F80",
"X.	c #A9A9A9",
"Y.	c #B4B4B4",
"Z.	c #B2B2AE",
"`.	c #A9A9A0",
" +	c #A2A194",
".+	c #A9A68D",
"++	c #A09E89",
"@+	c #848480",
"#+	c #6F6F70",
"$+	c #787878",
"%+	c #69706F",
"&+	c #7C7F63",
"*+	c #A7A253",
"=+	c #CCC459",
"-+	c #D3CB5C",
";+	c #BEB75B",
">+	c #938E58",
",+	c #68665A",
"'+	c #616162",
")+	c #686868",
"!+	c #616161",
"~+	c #404142",
"{+	c #697171",
"]+	c #7A8080",
"^+	c #7B7B7C",
"/+	c #ABABAB",
"(+	c #B0AFAB",
"_+	c #B9B899",
":+	c #C5C186",
"<+	c #CEC77D",
"[+	c #DFD875",
"}+	c #C9C478",
"|+	c #8F8B79",
"1+	c #6F6E6F",
"2+	c #757576",
"3+	c #717562",
"4+	c #ABAB68",
"5+	c #DED662",
"6+	c #F5EB65",
"7+	c #F1E764",
"8+	c #DAD060",
"9+	c #A39D5A",
"0+	c #686758",
"a+	c #5E5F5F",
"b+	c #686768",
"c+	c #6F6F6E",
"d+	c #313234",
"e+	c #616969",
"f+	c #6E7272",
"g+	c #7F7F7F",
"h+	c #A0A0A0",
"i+	c #AAAAA1",
"j+	c #C0BB8B",
"k+	c #D6CF79",
"l+	c #E2DA73",
"m+	c #F4EA6C",
"n+	c #EAE06D",
"o+	c #B1AC70",
"p+	c #78776F",
"q+	c #6B6C6F",
"r+	c #7D7D5B",
"s+	c #BEBB69",
"t+	c #E7DE60",
"u+	c #B3AC50",
"v+	c #7D7A49",
"w+	c #63614D",
"x+	c #565754",
"y+	c #5D5D5C",
"z+	c #666766",
"A+	c #272828",
"B+	c #2D3031",
"C+	c #596060",
"D+	c #616464",
"E+	c #9F9E9E",
"F+	c #959595",
"G+	c #9E9E9E",
"H+	c #A0A09D",
"I+	c #A09F93",
"J+	c #A6A48A",
"K+	c #C4BE7D",
"L+	c #EFE66D",
"M+	c #FCF269",
"N+	c #D8D06C",
"O+	c #7D7B67",
"P+	c #545459",
"Q+	c #8D8C70",
"R+	c #BFBD6B",
"S+	c #E4DB64",
"T+	c #E8DD61",
"U+	c #847F40",
"V+	c #333331",
"W+	c #404040",
"X+	c #50504F",
"Y+	c #3D3D3D",
"Z+	c #131414",
"`+	c #2D3030",
" @	c #414646",
".@	c #404141",
"+@	c #848484",
"@@	c #969697",
"#@	c #8F8F92",
"$@	c #8D8D8F",
"%@	c #B3B080",
"&@	c #F0E56B",
"*@	c #FFF569",
"=@	c #D4CD6B",
"-@	c #78766B",
";@	c #888788",
">@	c #A5A392",
",@	c #BDB96C",
"'@	c #E5DD65",
")@	c #F4E965",
"!@	c #A69F4A",
"~@	c #36352B",
"{@	c #3A3A38",
"]@	c #565656",
"^@	c #4F4F4F",
"/@	c #262626",
"(@	c #161616",
"_@	c #282A2A",
":@	c #282828",
"<@	c #272626",
"[@	c #3A3939",
"}@	c #525252",
"|@	c #8C8C8E",
"1@	c #8D8D8A",
"2@	c #B9B47B",
"3@	c #F5EC6A",
"4@	c #FEF46B",
"5@	c #C1BB67",
"6@	c #8A8985",
"7@	c #B3B1B1",
"8@	c #ACABA1",
"9@	c #ACA96D",
"0@	c #DCD465",
"a@	c #F6EB65",
"b@	c #CDC557",
"c@	c #4E4B2D",
"d@	c #31312F",
"e@	c #3F3F40",
"f@	c #494949",
"g@	c #3C3C3C",
"h@	c #474646",
"i@	c #4A4A4A",
"j@	c #555555",
"k@	c #636363",
"l@	c #757575",
"m@	c #8F8F8F",
"n@	c #8B8B8C",
"o@	c #919187",
"p@	c #C4BE76",
"q@	c #FDF268",
"r@	c #F8EF6D",
"s@	c #A5A067",
"t@	c #949492",
"u@	c #B1B0B0",
"v@	c #B0AFAC",
"w@	c #9E9C75",
"x@	c #CDC764",
"y@	c #E8DE60",
"z@	c #7D783A",
"A@	c #2A2A28",
"B@	c #666666",
"C@	c #6E6E6E",
"D@	c #777777",
"E@	c #89898B",
"F@	c #969585",
"G@	c #D2CB72",
"H@	c #FFF668",
"I@	c #EEE56D",
"J@	c #8A8768",
"K@	c #B0AFAF",
"L@	c #AEADAE",
"M@	c #9B9986",
"N@	c #B4B166",
"O@	c #EEE466",
"P@	c #F3E864",
"Q@	c #AFA94C",
"R@	c #3D3C2B",
"S@	c #313131",
"T@	c #3F3F3F",
"U@	c #898A8C",
"V@	c #A09C82",
"W@	c #E0D770",
"X@	c #FFF869",
"Y@	c #E2DA69",
"Z@	c #939076",
"`@	c #A8A7A8",
" #	c #ADACAD",
".#	c #A5A49F",
"+#	c #99976A",
"@#	c #E3DA66",
"##	c #F7EC66",
"$#	c #D6CD5A",
"%#	c #686538",
"&#	c #323230",
"*#	c #3D3D3E",
"=#	c #454545",
"-#	c #5B5C5C",
";#	c #646464",
">#	c #898A8A",
",#	c #8D8D8E",
"'#	c #8B8C8C",
")#	c #ACA97F",
"!#	c #EFE46C",
"~#	c #DFD763",
"{#	c #B8B48A",
"]#	c #A9A8A9",
"^#	c #ACABAB",
"/#	c #A8A7A7",
"(#	c #8C8C78",
"_#	c #C8C266",
":#	c #F6EC66",
"<#	c #EBE161",
"[#	c #999447",
"}#	c #3F3F34",
"|#	c #434345",
"1#	c #4E4F50",
"2#	c #4B4D4D",
"3#	c #505151",
"4#	c #565757",
"5#	c #5D5D5D",
"6#	c #696A6A",
"7#	c #767676",
"8#	c #898989",
"9#	c #888787",
"0#	c #8A8A8C",
"a#	c #909088",
"b#	c #C7C177",
"c#	c #FFF468",
"d#	c #E1D869",
"e#	c #C0BC93",
"f#	c #ABAAAA",
"g#	c #A7A6A6",
"h#	c #989792",
"i#	c #A5A466",
"j#	c #EEE465",
"k#	c #CBC357",
"l#	c #64613B",
"m#	c #3E3F3E",
"n#	c #4A4A4C",
"o#	c #4E5050",
"p#	c #5B5A5A",
"q#	c #626262",
"r#	c #7B7A7A",
"s#	c #868585",
"t#	c #8B8B8D",
"u#	c #A5A282",
"v#	c #EBE26C",
"w#	c #FFF768",
"x#	c #FAEF67",
"y#	c #DCD579",
"z#	c #B1AF9E",
"A#	c #AAA9A9",
"B#	c #A6A5A5",
"C#	c #A6A5A4",
"D#	c #97956E",
"E#	c #E0D765",
"F#	c #FAEF66",
"G#	c #EFE563",
"H#	c #A59E4C",
"I#	c #474738",
"J#	c #444445",
"K#	c #4C4C4C",
"L#	c #6C6C6B",
"M#	c #777676",
"N#	c #838384",
"O#	c #959488",
"P#	c #CAC477",
"Q#	c #FEF468",
"R#	c #EBE266",
"S#	c #C7C288",
"T#	c #A7A6A5",
"U#	c #A9A8A8",
"V#	c #A5A4A4",
"W#	c #9B9A81",
"X#	c #CBC564",
"Y#	c #F8ED66",
"Z#	c #FBF066",
"`#	c #D7CD5B",
" $	c #706E41",
".$	c #363737",
"+$	c #545352",
"@$	c #63625E",
"#$	c #737268",
"$$	c #807F73",
"%$	c #8A8A80",
"&$	c #909089",
"*$	c #90908E",
"=$	c #8C8C8D",
"-$	c #919089",
";$	c #B3B07D",
">$	c #ECE36D",
",$	c #FFF567",
"'$	c #F9EE68",
")$	c #D0C972",
"!$	c #AFAC9B",
"~$	c #A5A49A",
"{$	c #B1AC66",
"]$	c #EFE464",
"^$	c #E9E061",
"/$	c #9A944B",
"($	c #424038",
"_$	c #3F3F3E",
":$	c #52524A",
"<$	c #696756",
"[$	c #817E5F",
"}$	c #969368",
"|$	c #A6A271",
"1$	c #AFAB7A",
"2$	c #ADA981",
"3$	c #A2A187",
"4$	c #98988B",
"5$	c #908F8D",
"6$	c #90908C",
"7$	c #A7A584",
"8$	c #DAD174",
"9$	c #FBEF69",
"0$	c #FEF369",
"a$	c #E5DC66",
"b$	c #C2BE84",
"c$	c #A7A5A6",
"d$	c #A3A1A2",
"e$	c #A5A3A1",
"f$	c #A19D78",
"g$	c #D2CB5F",
"h$	c #F2E864",
"i$	c #C2BA56",
"j$	c #615F3F",
"k$	c #4D4C40",
"l$	c #787550",
"m$	c #98935A",
"n$	c #A5A060",
"o$	c #B0AB67",
"p$	c #B9B36F",
"q$	c #C5BF75",
"r$	c #CBC578",
"s$	c #C9C47A",
"t$	c #B9B57F",
"u$	c #A2A088",
"v$	c #A2A087",
"w$	c #C6C17A",
"x$	c #F0E66D",
"y$	c #FCF16A",
"z$	c #F3E968",
"A$	c #CBC370",
"B$	c #B0AC96",
"C$	c #A1A0A0",
"D$	c #A6A492",
"E$	c #AAA55D",
"F$	c #E2D95F",
"G$	c #F4E964",
"H$	c #E8DE61",
"I$	c #B5AE54",
"J$	c #928D4E",
"K$	c #A9A358",
"L$	c #C8C060",
"M$	c #D5CD64",
"N$	c #D3CC67",
"O$	c #D2CB6C",
"P$	c #D4CD71",
"Q$	c #D7D175",
"R$	c #DBD474",
"S$	c #DBD374",
"T$	c #C8C27A",
"U$	c #BFBA7C",
"V$	c #E0D870",
"W$	c #F8EE6A",
"X$	c #DBD366",
"Y$	c #BEBA81",
"Z$	c #A4A39E",
"`$	c #A4A3A4",
" %	c #A09E9F",
".%	c #A3A19D",
"+%	c #C1B956",
"@%	c #F6EA65",
"#%	c #EFE564",
"$%	c #E5DC62",
"%%	c #EBE164",
"&%	c #EFE565",
"*%	c #EEE567",
"=%	c #EDE368",
"-%	c #ECE369",
";%	c #EFE66C",
">%	c #F1E86C",
",%	c #F0E76C",
"'%	c #E7DF6F",
")%	c #DDD572",
"!%	c #EDE36D",
"~%	c #F6EC6A",
"{%	c #EBE166",
"]%	c #C9C271",
"^%	c #AFAB94",
"/%	c #A4A3A3",
"(%	c #A5A398",
"_%	c #A5A065",
":%	c #D0C959",
"<%	c #F0E562",
"[%	c #F7EC65",
"}%	c #F3E965",
"|%	c #F4E966",
"1%	c #F6EB66",
"2%	c #F7ED68",
"3%	c #F9EF68",
"4%	c #FAF069",
"5%	c #FBF069",
"6%	c #F9EF6A",
"7%	c #F3E96C",
"8%	c #E9DF6E",
"9%	c #E0D86F",
"0%	c #E6DE6C",
"a%	c #E6DC66",
"b%	c #D5CC68",
"c%	c #C1BB84",
"d%	c #A4A39B",
"e%	c #A4A2A2",
"f%	c #9F9D9D",
"g%	c #A09E9D",
"h%	c #A8A58F",
"i%	c #B8B165",
"j%	c #DDD35D",
"k%	c #EAE061",
"l%	c #DBD15B",
"m%	c #CCC358",
"n%	c #D5CD60",
"o%	c #DFD664",
"p%	c #E6DD67",
"q%	c #EBE26A",
"r%	c #EDE26B",
"s%	c #EBE26D",
"t%	c #D7D06E",
"u%	c #C5BE6B",
"v%	c #CEC667",
"w%	c #D7CE66",
"x%	c #CAC47B",
"y%	c #B1AE93",
"z%	c #A19F9C",
"A%	c #A2A1A2",
"B%	c #9D9C9D",
"C%	c #9F9D9C",
"D%	c #B1AE8F",
"E%	c #CAC374",
"F%	c #CCC466",
"G%	c #AAA456",
"H%	c #8B8749",
"I%	c #918D4A",
"J%	c #9C9650",
"K%	c #A6A159",
"L%	c #ADA760",
"M%	c #B0AA63",
"N%	c #B3AD65",
"O%	c #BDB767",
"P%	c #C1BA68",
"Q%	c #C1BA67",
"R%	c #C7C069",
"S%	c #D3CB6E",
"T%	c #D8D17A",
"U%	c #BCB98D",
"V%	c #A2A09B",
"W%	c #A19FA0",
"X%	c #9C9A9B",
"Y%	c #9F9D9A",
"Z%	c #A7A596",
"`%	c #AAA78D",
" &	c #8A8A76",
".&	c #757767",
"+&	c #454331",
"@&	c #383727",
"#&	c #414030",
"$&	c #494937",
"%&	c #575543",
"&&	c #706D52",
"*&	c #9D996A",
"=&	c #B8B475",
"-&	c #B1AC6B",
";&	c #C6C082",
">&	c #C7C688",
",&	c #BEBD8B",
"'&	c #A7A495",
")&	c #9F9E9F",
"!&	c #9B9A9B",
"~&	c #999895",
"{&	c #7C8288",
"]&	c #232426",
"^&	c #171719",
"/&	c #1C1D1F",
"(&	c #272929",
"_&	c #787775",
":&	c #969690",
"<&	c #A1A298",
"[&	c #878777",
"}&	c #99978D",
"|&	c #9C9A95",
"1&	c #9D9B98",
"2&	c #9C9B9B",
"3&	c #A3A2A3",
"4&	c #88898E",
"5&	c #858E8E",
"6&	c #54595A",
"7&	c #242525",
"8&	c #2D2E2E",
"9&	c #858485",
"0&	c #A0A1A2",
"a&	c #A0A1A3",
"b&	c #9E9FA2",
"c&	c #85878B",
"d&	c #707075",
"  . + @ # $ $ % & * = - ; > , ' ) ! ~ $ { * ] ^ $ $ / ( _ : < [ ",
"} | 1 2 3 $ $ 4 5 6 7 8 9 0 a 7 b c d $ e f g h $ $ / ( i j k l ",
"} m n o p $ $ $ % q ~ $ r s t u v w x $ d y z $ $ $ A B C C D E ",
"F G H I J w K $ $ $ L y M N O P Q v b R S $ $ $ T U v V W C l ' ",
"X Y Z `  ...{ +.@.#.$.5 %.&.*.=.e -.+.;.>.,.'.).c e !.~.) : {.].",
"^./.(._.:.= = <.[.}.|.{ 1.2.3.4.C @.c b 5.6.5.: !.7.8.+.!.5.7 9.",
"0.a.b.c.d.& e.f.g.O h.%.i.j.k.l.i w m.n.+.!.) b v o.8.~.C p.q.r.",
"s.t.u.v.w.x.y.z.N |.A.B.C.D.E.l.> e c F.p 8.v F.-.G.+.0 V H.A.2.",
"I.J.K.L.M.N.O.P.Q.R.S.&.T.U.V.W.p.W X.Q p F.Y.Y.Z.`. +.+++@+#+$+",
"%+&+*+=+-+;+>+,+'+)+S.!+~+{+]+^+;.+.p ! ! /+F.(+_+:+<+[+}+|+1+2+",
"3+4+5+6+7+8+9+0+a+b+c+d.d+e+f+g+0 0 h+p p w Q i+j+k+l+m+n+o+p+q+",
"r+s+5+t+u+v+w+x+y+z+g A+B+C+D+D E+F+G+Q 8.! 7.H+I+J+K+L+M+N+O+P+",
"Q+R+S+T+U+V+W+X+a f.Y+Z+`+ @.@[.u +@0 p 7.G+B @@#@$@%@&@*@=@-@;@",
">@,@'@)@!@~@{@:.]@^@/@(@_@:@<@[@}@N 5.7.G+B F+;.|@1@2@3@4@5@6@7@",
"8@9@0@a@b@c@d@e@^@f@g@..h@i@j@k@l@H.~.>.b ~.j m@n@o@p@q@r@s@t@u@",
"v@w@x@)@y@z@A@ .d.}@a !+B@C@D@5 : 7.v p p G+C m@E@F@G@H@I@J@E+K@",
"L@M@N@O@P@Q@R@S@T@x.a !+B@|.l@s p.h+G.G.Q B V m@U@V@W@X@Y@Z@`@L@",
" #.#+#@###$#%#&#*#=#i@& -#;#|.l@u _ 0 e V 6.>#,#'#)#!#H@~#{#]# #",
"^#/#(#_#:#<#[#}#|#1#2#3#4#5#6#2.r.7#g+8#8#9#'#0#a#b#q@c#d#e#/#^#",
"f#g#h#i#j#:#k#l#m#n#o#<.p#q#C@r#s#> m@V C F+: t#u#v#w#x#y#z#g#f#",
"A#B#C#D#E#F#G#H#I#Y+J#K#& f.L#M#N#m@j V ;.m@i O#P#Q#*@R#S#T#B#A#",
"U#V#V#W#X#Y#Z#`# $.$T@f@+$@$#$$$%$&$*$5.i =$-$;$>$,$'$)$!$V#V#U#",
"Q ! ! ~${$]$F#^$/$($_$:$<$[$}$|$1$2$3$4$5$6$7$8$9$0$a$b$! ! ! Q ",
"c$d$d$e$f$g$h$h$i$j$k$l$m$n$o$p$q$r$s$t$u$v$w$x$y$z$A$B$d$d$d$c$",
"V#C$C$C$D$E$F$G$H$I$J$K$L$M$N$O$P$Q$R$S$T$U$V$W$W$X$Y$Z$C$C$C$V#",
"`$ % % %.%f$+%<#@%#%$%%%&%*%=%-%;%>%,%I@'%)%!%~%{%]%^% % % % %`$",
"/%E+E+E+E+(%_%:%<%[%}%|%1%2%3%4%5%5%6%7%8%9%0%a%b%c%d%E+E+E+E+/%",
"e%f%f%f%f%g%h%i%j%k%l%m%n%o%p%q%r%s%0%t%]%u%v%w%x%y%z%f%f%f%f%e%",
"A%B%B%B%B%B%C%D%E%F%G%H%I%J%K%L%M%N%O%P%Q%R%S%T%U%V%B%B%B%B%B%A%",
"W%X%X%X%X%X%X%Y%Z%`% &.&+&@&#&$&%&&&*&=&-&;&>&,&'&X%X%X%X%X%X%W%",
")&!&!&!&!&!&!&!&!&~&{&F ]&^&/&(&X+_&:&<&[&}&|&1&2&!&!&!&!&!&!&)&",
"3&)&)&)&)&)&)&)&)&4&5&6&7&8&b.4#9&0&a&b&c&d&)&)&)&)&)&)&)&)&)&3&"};
