/* XPM */
static char * nrm_look_xpm[] = {
"32 32 229 2",
"  	c #C3C2C2",
". 	c #C0BFBF",
"+ 	c #BEBEBD",
"@ 	c #BCBCBB",
"# 	c #BBBBBA",
"$ 	c #BCBCBC",
"% 	c #B9B9B9",
"& 	c #B9B9B8",
"* 	c #BBBABA",
"= 	c #B8B7B7",
"- 	c #BAB9B8",
"; 	c #B7B6B5",
"> 	c #B8B8B8",
", 	c #B5B5B4",
"' 	c #B8B8B7",
") 	c #B4B4B3",
"! 	c #929291",
"~ 	c #B7B7B6",
"{ 	c #B3B3B2",
"] 	c #181818",
"^ 	c #373737",
"/ 	c #222222",
"( 	c #060606",
"_ 	c #2E2E2D",
": 	c #030303",
"< 	c #6D6D6C",
"[ 	c #161616",
"} 	c #050505",
"| 	c #A8A8A7",
"1 	c #B6B4B5",
"2 	c #B2B0B1",
"3 	c #161516",
"4 	c #2C2B2C",
"5 	c #6B6A6A",
"6 	c #000000",
"7 	c #646363",
"8 	c #7D7C7C",
"9 	c #252525",
"0 	c #B4B4B4",
"a 	c #B0B0B0",
"b 	c #151515",
"c 	c #2B2B2B",
"d 	c #0E0E0E",
"e 	c #2E2E2E",
"f 	c #141414",
"g 	c #636363",
"h 	c #7C7C7C",
"i 	c #B4B2B2",
"j 	c #B0AEAE",
"k 	c #9A9898",
"l 	c #1B1B1B",
"m 	c #E9E8E8",
"n 	c #EEEEEE",
"o 	c #1D1D1D",
"p 	c #A5A3A3",
"q 	c #E1E1E1",
"r 	c #E0DFDF",
"s 	c #1B1A1A",
"t 	c #636262",
"u 	c #080808",
"v 	c #B3B1B1",
"w 	c #AFADAD",
"x 	c #6A6969",
"y 	c #6C6C6C",
"z 	c #F3F3F3",
"A 	c #FCFBFB",
"B 	c #6A6A6A",
"C 	c #737171",
"D 	c #666666",
"E 	c #737373",
"F 	c #626161",
"G 	c #494949",
"H 	c #595858",
"I 	c #B1B0B0",
"J 	c #ADACAC",
"K 	c #2B2A2A",
"L 	c #404040",
"M 	c #F4F4F4",
"N 	c #FBFBFB",
"O 	c #494848",
"P 	c #B3B3B3",
"Q 	c #FFFFFF",
"R 	c #D5D5D5",
"S 	c #414040",
"T 	c #616060",
"U 	c #0E0D0D",
"V 	c #0A0A0A",
"W 	c #A2A1A1",
"X 	c #B0AFAF",
"Y 	c #ACABAB",
"Z 	c #2A2A2A",
"` 	c #303030",
" .	c #0B0B0B",
"..	c #DBDADA",
"+.	c #F6F5F5",
"@.	c #FDFDFD",
"#.	c #E5E4E4",
"$.	c #353535",
"%.	c #DCDBDB",
"&.	c #F8F8F8",
"*.	c #0C0C0C",
"=.	c #313030",
"-.	c #2F2E2E",
";.	c #AEADAE",
">.	c #AAA9AA",
",.	c #F9F9F9",
"'.	c #E8E7E8",
").	c #171717",
"!.	c #D9D9D9",
"~.	c #191919",
"{.	c #ABAAAB",
"].	c #959495",
"^.	c #ADACAD",
"/.	c #A9A8A9",
"(.	c #151415",
"_.	c #E2E2E2",
":.	c #FAFAFA",
"<.	c #E6E6E6",
"[.	c #D8D8D8",
"}.	c #070707",
"|.	c #9E9D9E",
"1.	c #A8A7A7",
"2.	c #2A2929",
"3.	c #E5E5E5",
"4.	c #D4D3D3",
"5.	c #F6F6F6",
"6.	c #A9A8A8",
"7.	c #4E4E4E",
"8.	c #ABAAAA",
"9.	c #A7A6A6",
"0.	c #292929",
"a.	c #101010",
"b.	c #DDDDDD",
"c.	c #F8F7F7",
"d.	c #FEFEFE",
"e.	c #CECECE",
"f.	c #F7F7F7",
"g.	c #F3F2F2",
"h.	c #121212",
"i.	c #131313",
"j.	c #AAA9A9",
"k.	c #A6A5A5",
"l.	c #3E3D3D",
"m.	c #C1C0C0",
"n.	c #EAEAEA",
"o.	c #E4E4E4",
"p.	c #3D3D3D",
"q.	c #B2B2B2",
"r.	c #F5F5F5",
"s.	c #C5C5C5",
"t.	c #3F3F3F",
"u.	c #4D4D4D",
"v.	c #7E7E7E",
"w.	c #A5A4A4",
"x.	c #555454",
"y.	c #676767",
"z.	c #939393",
"A.	c #515151",
"B.	c #212121",
"C.	c #5C5B5B",
"D.	c #717070",
"E.	c #DBDBDB",
"F.	c #828282",
"G.	c #272727",
"H.	c #414141",
"I.	c #999999",
"J.	c #5D5C5C",
"K.	c #535353",
"L.	c #2D2C2C",
"M.	c #A7A7A7",
"N.	c #A3A3A3",
"O.	c #282828",
"P.	c #848484",
"Q.	c #202020",
"R.	c #8D8D8D",
"S.	c #909090",
"T.	c #474747",
"U.	c #8B8B8B",
"V.	c #5B5B5B",
"W.	c #A7A5A6",
"X.	c #A3A1A2",
"Y.	c #0F0F0F",
"Z.	c #3D3C3C",
"`.	c #8F8D8E",
" +	c #040404",
".+	c #313131",
"++	c #0D0D0D",
"@+	c #989697",
"#+	c #A2A0A1",
"$+	c #3A393A",
"%+	c #737273",
"&+	c #969495",
"*+	c #5B5A5B",
"=+	c #222122",
"-+	c #A1A0A0",
";+	c #141313",
">+	c #797878",
",+	c #3C3C3C",
"'+	c #343333",
")+	c #9F9E9E",
"!+	c #9C9B9B",
"~+	c #5A5A5A",
"{+	c #7A7A7A",
"]+	c #1A1A1A",
"^+	c #A4A3A4",
"/+	c #A09E9F",
"(+	c #0D0C0C",
"_+	c #787677",
":+	c #131213",
"<+	c #9D9C9D",
"[+	c #9F9D9E",
"}+	c #5A5959",
"|+	c #010101",
"1+	c #8C8A8B",
"2+	c #A4A3A3",
"3+	c #818080",
"4+	c #777676",
"5+	c #959494",
"6+	c #575656",
"7+	c #949393",
"8+	c #8B8A8A",
"9+	c #A4A2A2",
"0+	c #9F9D9D",
"a+	c #A2A1A2",
"b+	c #A19FA0",
"c+	c #9C9A9B",
"d+	c #9F9E9F",
"e+	c #9B9A9B",
"f+	c #A3A2A3",
"  . . . . . . . . . . . . . . . . . . . . . . . . . . . . . .   ",
"+ @ @ @ @ @ @ @ @ @ @ @ @ @ @ @ @ @ @ @ @ @ @ @ @ @ @ @ @ @ @ + ",
"+ # # # # # # # # # # # # # # # # # # # # # # # # # # # # # # + ",
"$ % % % % % % % % % % % % % % % % % % % % % % % % % % % % % % $ ",
"@ & & & & & & & & & & & & & & & & & & & & & & & & & & & & & & @ ",
"* = = = = = = = = = = = = = = = = = = = = = = = = = = = = = = * ",
"- ; ; ; ; ; ; ; ; ; ; ; ; ; ; ; ; ; ; ; ; ; ; ; ; ; ; ; ; ; ; - ",
"> , , , , , , , , , , , , , , , , , , , , , , , , , , , , , , > ",
"' ) ) ) ) ) ) ) ) ) ! ! ) ) ) ) ) ) ! ! ) ) ) ) ) ) ) ) ) ) ) ' ",
"~ { ] ^ { { { { { / ( ( _ { { { { _ ( ( / { { { : < { { [ } | ~ ",
"1 2 3 4 2 2 2 2 5 6 6 6 } 5 2 2 5 } 6 6 6 5 2 2 6 7 2 8 6 9 2 1 ",
"0 a b c a a a a d } e e 6 f a a f 6 c c } d a a 6 g a 9 6 h a 0 ",
"i j b c j j j k } l m n o } p k } l q r s } k j 6 t p u f j j i ",
"v w b c w w w x 6 y z A B 6 C x 6 D A A E 6 x w 6 F G 6 H w w v ",
"I J b K J J J L 6 $ M N > 6 O L 6 P Q Q R 6 S J 6 T U V W J J I ",
"X Y b Z Y Y Y `  ...+.@.#.} $.$.} %.Q Q &.*.=.J 6 $.6 -.Y Y Y X ",
";.>.b Z >.>.>.Z [ q ,.Q '.).Z Z b !.Q Q ,.~.c {.6 : : ].>.>.>.;.",
"^./.(.Z /././.Z [ _.:.Q <.).Z Z b [.Q Q ,.~.c {.6 6 }.|./././.^.",
"Y 1.f 2.1.1.1.2.[ r ,.Q 3.).2.2.b 4.N Q 5.~.c 6.6 6 6 7.1.1.1.Y ",
"8.9.f 0.9.9.9.0.a.b.c.d.#. .e e V e.f.d.g.h.Z 1.6 h.} i.9.9.9.8.",
"j.k.f 0.k.k.k.l.6 m.n.o.J 6 p.l.6 q.+.r.s.6 t.9.6 u.i.} v.k.k.j.",
"6.w.f 0.w.w.w.x.6 y.z.A.B.6 T C.6 D.E.F.G.6 H.I.6 J.K.6 L.w.w.6.",
"M.N.f O.N.N.N.P.6 Q.t.( 6 6 v.R.6 B.S.] 6 6 T.U.6 V.I.*.V N.N.M.",
"W.X.f Y.Z.Z.Z.`.Y. +.+++6 }.@+#+Y. +$+d 6 : %+&+6 *+X.=+6 H X.W.",
"w.-+;+6 6 6 6 >+,+6 6 6 6 '+)+-+,+6 6 6 6 e !+-+6 ~+-+{+6 ]+-+w.",
"^+/+(+6 6 6 6 _+/+i.6 6 :+<+/+/+/+i.6 6 i.[+/+/+6 }+/+/+d |+1+^+",
"2+)+3+4+4+4+4+5+)+5+6+6+7+)+)+)+)+5+6+6+5+)+)+)+4+5+)+)+8+4+5+2+",
"9+0+0+0+0+0+0+0+0+0+0+0+0+0+0+0+0+0+0+0+0+0+0+0+0+0+0+0+0+0+0+9+",
"a+<+<+<+<+<+<+<+<+<+<+<+<+<+<+<+<+<+<+<+<+<+<+<+<+<+<+<+<+<+<+a+",
"b+c+c+c+c+c+c+c+c+c+c+c+c+c+c+c+c+c+c+c+c+c+c+c+c+c+c+c+c+c+c+b+",
"d+e+e+e+e+e+e+e+e+e+e+e+e+e+e+e+e+e+e+e+e+e+e+e+e+e+e+e+e+e+e+d+",
"f+d+d+d+d+d+d+d+d+d+d+d+d+d+d+d+d+d+d+d+d+d+d+d+d+d+d+d+d+d+d+f+"};
