/* XPM */
static char * nrm_lfikwrist_xpm[] = {
"32 32 288 2",
"  	c #C3C2C2",
". 	c #C0BFBF",
"+ 	c #BEBEBD",
"@ 	c #BCBCBB",
"# 	c #BBBBBA",
"$ 	c #898988",
"% 	c #000000",
"& 	c #646463",
"* 	c #969695",
"= 	c #BCBCBC",
"- 	c #B9B9B9",
"; 	c #6F6F6F",
"> 	c #949494",
", 	c #B9B9B8",
"' 	c #6F6F6E",
") 	c #ADADAC",
"! 	c #0C0C0C",
"~ 	c #4A4A4A",
"{ 	c #BBBABA",
"] 	c #B8B7B7",
"^ 	c #6E6E6E",
"/ 	c #313131",
"( 	c #252525",
"_ 	c #BAB9B8",
": 	c #B7B6B5",
"< 	c #6E6D6D",
"[ 	c #ABAAA9",
"} 	c #B8B8B8",
"| 	c #B5B5B4",
"1 	c #6D6D6C",
"2 	c #919190",
"3 	c #484848",
"4 	c #B8B8B7",
"5 	c #B4B4B3",
"6 	c #6C6C6B",
"7 	c #787877",
"8 	c #90908F",
"9 	c #B7B7B6",
"0 	c #B3B3B2",
"a 	c #6B6B6B",
"b 	c #30302F",
"c 	c #242424",
"d 	c #B6B4B5",
"e 	c #B2B0B1",
"f 	c #838182",
"g 	c #9A9999",
"h 	c #5F5E5E",
"i 	c #B4B4B4",
"j 	c #B0B0B0",
"k 	c #B4B2B2",
"l 	c #B0AEAE",
"m 	c #B3B1B1",
"n 	c #AEACAC",
"o 	c #A7ABA7",
"p 	c #A1AAA3",
"q 	c #99AA9D",
"r 	c #92A998",
"s 	c #91A897",
"t 	c #83A58C",
"u 	c #7CA487",
"v 	c #86A68F",
"w 	c #92AA98",
"x 	c #94AA9A",
"y 	c #A1AAA2",
"z 	c #ACACAB",
"A 	c #AFADAD",
"B 	c #249046",
"C 	c #1EA548",
"D 	c #75D12F",
"E 	c #C5ED14",
"F 	c #D0F011",
"G 	c #8EDD28",
"H 	c #27BB4B",
"I 	c #1EB34C",
"J 	c #1EB94E",
"K 	c #1FBD4F",
"L 	c #1EBB4F",
"M 	c #1EB14B",
"N 	c #1DB14B",
"O 	c #1DAD49",
"P 	c #1DB04A",
"Q 	c #1EB44C",
"R 	c #1DAB49",
"S 	c #27A34E",
"T 	c #35A357",
"U 	c #3CA45C",
"V 	c #3DA75E",
"W 	c #47A464",
"X 	c #53A16B",
"Y 	c #5DA172",
"Z 	c #56A16D",
"` 	c #63A276",
" .	c #60A475",
"..	c #5EA374",
"+.	c #5AA06F",
"@.	c #63A376",
"#.	c #A2ADA5",
"$.	c #178A3A",
"%.	c #90C91D",
"&.	c #FFFF00",
"*.	c #C3E310",
"=.	c #178B3B",
"-.	c #168338",
";.	c #157E36",
">.	c #157B34",
",.	c #147532",
"'.	c #126D2E",
").	c #12692D",
"!.	c #126A2D",
"~.	c #137230",
"{.	c #147833",
"].	c #157C35",
"^.	c #178839",
"/.	c #178E3C",
"(.	c #178C3B",
"_.	c #18923E",
":.	c #18933D",
"<.	c #18943F",
"[.	c #1BA546",
"}.	c #137732",
"|.	c #188D3D",
"1.	c #26D85C",
"2.	c #289638",
"3.	c #FCFD01",
"4.	c #58931E",
"5.	c #116129",
"6.	c #105A27",
"7.	c #0F5725",
"8.	c #0F5524",
"9.	c #0F5625",
"0.	c #105E28",
"a.	c #115F28",
"b.	c #105F28",
"c.	c #105C27",
"d.	c #105A26",
"e.	c #0C461E",
"f.	c #093215",
"g.	c #0C431D",
"h.	c #093316",
"i.	c #13672C",
"j.	c #9BAAA0",
"k.	c #4FAF30",
"l.	c #7BA415",
"m.	c #0E5223",
"n.	c #0D4B20",
"o.	c #0C481F",
"p.	c #0E5324",
"q.	c #0F5926",
"r.	c #0E5524",
"s.	c #0E5022",
"t.	c #0D4D21",
"u.	c #0D4F21",
"v.	c #0C431C",
"w.	c #093116",
"x.	c #082812",
"y.	c #092E14",
"z.	c #0B3618",
"A.	c #4D9262",
"B.	c #ADACAD",
"C.	c #2AA53D",
"D.	c #FCFE01",
"E.	c #53891B",
"F.	c #0D4C20",
"G.	c #0B3D1A",
"H.	c #0B421C",
"I.	c #0C401C",
"J.	c #0D4E21",
"K.	c #0D4A20",
"L.	c #0B3F1B",
"M.	c #105726",
"N.	c #0F5424",
"O.	c #176E30",
"P.	c #4C9261",
"Q.	c #5F976F",
"R.	c #619871",
"S.	c #6E9C7B",
"T.	c #7B9F85",
"U.	c #A2A6A3",
"V.	c #ACABAB",
"W.	c #18923D",
"X.	c #8CC41C",
"Y.	c #C1D60B",
"Z.	c #11682C",
"`.	c #0D4B21",
" +	c #10612A",
".+	c #267F41",
"++	c #4A905F",
"@+	c #6A9A78",
"#+	c #81A08A",
"$+	c #90A295",
"%+	c #8DA292",
"&+	c #8FA395",
"*+	c #9CA49E",
"=+	c #9DA59E",
"-+	c #A7A6A6",
";+	c #ABAAAA",
">+	c #168538",
",+	c #167F36",
"'+	c #77B822",
")+	c #BEDF11",
"!+	c #C8E30D",
"~+	c #8AB918",
"{+	c #1D6D29",
"]+	c #189640",
"^+	c #1EBC50",
"/+	c #619972",
"(+	c #A0A4A0",
"_+	c #A6A5A5",
":+	c #AAA9A9",
"<+	c #126C2E",
"[+	c #157C34",
"}+	c #157933",
"|+	c #13702F",
"1+	c #12682C",
"2+	c #116029",
"3+	c #137231",
"4+	c #22D65A",
"5+	c #44AF65",
"6+	c #A5A4A4",
"7+	c #A9A8A8",
"8+	c #779F83",
"9+	c #20813E",
"0+	c #11632A",
"a+	c #21CE57",
"b+	c #35B35B",
"c+	c #9EA39F",
"d+	c #A3A3A3",
"e+	c #A7A7A7",
"f+	c #A7A5A6",
"g+	c #A3A1A2",
"h+	c #58956A",
"i+	c #147130",
"j+	c #0F5022",
"k+	c #11652A",
"l+	c #136F2F",
"m+	c #147431",
"n+	c #137431",
"o+	c #1DB64D",
"p+	c #7A9F85",
"q+	c #A1A0A0",
"r+	c #9E9F9E",
"s+	c #5F966F",
"t+	c #247D3F",
"u+	c #106028",
"v+	c #0E5122",
"w+	c #18943E",
"x+	c #1FBE51",
"y+	c #60A074",
"z+	c #A4A3A4",
"A+	c #A09E9F",
"B+	c #969D98",
"C+	c #569268",
"D+	c #147430",
"E+	c #11622A",
"F+	c #168037",
"G+	c #158036",
"H+	c #1EB84D",
"I+	c #7C9C86",
"J+	c #A4A3A3",
"K+	c #9F9E9E",
"L+	c #9E9D9D",
"M+	c #559268",
"N+	c #137632",
"O+	c #157E35",
"P+	c #1B9E44",
"Q+	c #979D98",
"R+	c #A4A2A2",
"S+	c #9F9D9D",
"T+	c #939C94",
"U+	c #268743",
"V+	c #137330",
"W+	c #116A2D",
"X+	c #789B82",
"Y+	c #A2A1A2",
"Z+	c #9D9C9D",
"`+	c #2D8748",
" @	c #11642A",
".@	c #0F5E28",
"+@	c #8E9B92",
"@@	c #A19FA0",
"#@	c #9C9A9B",
"$@	c #5D926D",
"%@	c #127130",
"&@	c #1D7537",
"*@	c #799782",
"=@	c #9F9E9F",
"-@	c #9B9A9B",
";@	c #A3A2A3",
"  . . . . . . . . . . . . . . . . . . . . . . . . . . . . . .   ",
"+ @ @ @ @ @ @ @ @ @ @ @ @ @ @ @ @ @ @ @ @ @ @ @ @ @ @ @ @ @ @ + ",
"+ # # # # # # # # # # # # # # # # # # $ % # $ % # # & % * # # + ",
"= - - - - - - - - - - - - - - - - - - ; % - ; % - > % ; - - - = ",
"@ , , , , , , , , , , , , , , , , , , ' % , ' % ) ! ~ , , , , @ ",
"{ ] ] ] ] ] ] ] ] ] ] ] ] ] ] ] ] ] ] ^ % ] ^ % / ( ] ] ] ] ] { ",
"_ : : : : : : : : : : : : : : : : : : < % : < % % ! [ : : : : _ ",
"} | | | | | | | | | | | | | | | | | | 1 % | 1 % 2 ! 3 | | | | } ",
"4 5 5 5 5 5 5 5 5 5 5 5 5 5 5 5 5 5 5 6 % 5 6 % 5 7 % 8 5 5 5 4 ",
"9 0 0 0 0 0 0 0 0 0 0 0 0 0 0 0 0 0 0 a % 0 a % 0 0 b c 0 0 0 9 ",
"d e e e e e e e e e e e e e e e e e e f % e f % e e g % h e e d ",
"i j j j j j j j j j j j j j j j j j j j j j j j j j j j j j j i ",
"k l l l l l l l l l l l l l l l l l l l l l l l l l l l l l l k ",
"m n o p q r s r t u v w r r r x y z A A A A A A A A A A A A A m ",
"B C D E F G H I J K L M N O P Q N R S T U V W X Y Z `  ...+.@.#.",
"$.%.&.&.&.&.*.=.-.;.>.,.'.).!.'.~.,.{.].;.^./.(.(._.:.<.[.}.|.1.",
"2.3.&.&.&.&.&.4.5.6.7.8.9.0.a.0.b.0.0.0.c.c.0.c.d.9.e.f.g.h.i.j.",
"k.&.&.&.&.&.&.l.9.m.n.o.p.c.q.9.r.m.s.t.u.r.m.n.o.v.w.x.y.z.A.B.",
"C.D.&.&.&.&.&.E.8.F.o.G.o.t.H.I.o.o.J.K.L.s.M.N.O.P.Q.R.S.T.U.V.",
"W.X.&.&.&.&.Y.7.m.q.Z.`. +.+++@+#+#+$+%+#+&+*+=+-+-+-+-+-+-+-+;+",
">+,+'+)+!+~+{+7.7.]+^+/+(+_+_+_+_+_+_+_+_+_+_+_+_+_+_+_+_+_+_+:+",
"'.<+>.[+}+|+1+2+7.3+4+5+6+6+6+6+6+6+6+6+6+6+6+6+6+6+6+6+6+6+6+7+",
"8+9+5.1+).).1+1+0+d.3+a+b+c+d+d+d+d+d+d+d+d+d+d+d+d+d+d+d+d+d+e+",
"f+g+h+i+j+p.c.k+l+m+).n+o+K p+g+g+g+g+g+g+g+g+g+g+g+g+g+g+g+g+f+",
"6+q+q+r+s+t+u+v+1+[+-.~.).w+x+y+q+q+q+q+q+q+q+q+q+q+q+q+q+q+q+6+",
"z+A+A+A+A+A+B+C+D+E+{.F+>.1+G+H+I+A+A+A+A+A+A+A+A+A+A+A+A+A+A+z+",
"J+K+K+K+K+K+K+K+L+M+N+m+^.O+5.3+P+Q+K+K+K+K+K+K+K+K+K+K+K+K+K+J+",
"R+S+S+S+S+S+S+S+S+S+T+U+V+}+).s.W+X+S+S+S+S+S+S+S+S+S+S+S+S+S+R+",
"Y+Z+Z+Z+Z+Z+Z+Z+Z+Z+Z+Z+`+ @5.g..@+@Z+Z+Z+Z+Z+Z+Z+Z+Z+Z+Z+Z+Z+Y+",
"@@#@#@#@#@#@#@#@#@#@#@#@#@$@%@&@*@#@#@#@#@#@#@#@#@#@#@#@#@#@#@@@",
"=@-@-@-@-@-@-@-@-@-@-@-@-@-@-@-@-@-@-@-@-@-@-@-@-@-@-@-@-@-@-@=@",
";@=@=@=@=@=@=@=@=@=@=@=@=@=@=@=@=@=@=@=@=@=@=@=@=@=@=@=@=@=@=@;@"};
