/* XPM */
static char * nrm_lids_xpm[] = {
"32 32 383 2",
"  	c #000000",
". 	c #171717",
"+ 	c #3A3B3B",
"@ 	c #3C3C3C",
"# 	c #3D3E3D",
"$ 	c #3E3E3E",
"% 	c #3F3F3F",
"& 	c #3D3D3D",
"* 	c #3B3B3B",
"= 	c #393A3A",
"- 	c #383838",
"; 	c #363636",
"> 	c #343434",
", 	c #323232",
"' 	c #313130",
") 	c #090909",
"! 	c #3D3C3C",
"~ 	c #3F3F3E",
"{ 	c #3A3A3A",
"] 	c #313131",
"^ 	c #232323",
"/ 	c #3B3B3C",
"( 	c #3E3F3F",
"_ 	c #3E3F3E",
": 	c #3D3D3C",
"< 	c #030303",
"[ 	c #404040",
"} 	c #414141",
"| 	c #303031",
"1 	c #0B0B0B",
"2 	c #373737",
"3 	c #2F2F2F",
"4 	c #212021",
"5 	c #222222",
"6 	c #232423",
"7 	c #313030",
"8 	c #393939",
"9 	c #323131",
"0 	c #302F2F",
"a 	c #252525",
"b 	c #121212",
"c 	c #121112",
"d 	c #131313",
"e 	c #1C1D1C",
"f 	c #313231",
"g 	c #434344",
"h 	c #444444",
"i 	c #454545",
"j 	c #434343",
"k 	c #424242",
"l 	c #343333",
"m 	c #131312",
"n 	c #141515",
"o 	c #161616",
"p 	c #181818",
"q 	c #303030",
"r 	c #585858",
"s 	c #565656",
"t 	c #575757",
"u 	c #545454",
"v 	c #515252",
"w 	c #4F4F4F",
"x 	c #4C4C4C",
"y 	c #484848",
"z 	c #404140",
"A 	c #373736",
"B 	c #040404",
"C 	c #0F1010",
"D 	c #0F0F0F",
"E 	c #141414",
"F 	c #141413",
"G 	c #171718",
"H 	c #1D1C1D",
"I 	c #1A1A1A",
"J 	c #434342",
"K 	c #6F6F6F",
"L 	c #6B6B6B",
"M 	c #6D6D6D",
"N 	c #6E6E6E",
"O 	c #686868",
"P 	c #646465",
"Q 	c #5F605F",
"R 	c #5A5959",
"S 	c #535353",
"T 	c #4E4D4D",
"U 	c #424142",
"V 	c #3C3C3D",
"W 	c #333333",
"X 	c #070707",
"Y 	c #2A2929",
"Z 	c #262627",
"` 	c #1C1C1C",
" .	c #1F1E1E",
"..	c #5F5F5F",
"+.	c #818181",
"@.	c #7F8080",
"#.	c #828282",
"$.	c #848484",
"%.	c #838383",
"&.	c #7E7E7E",
"*.	c #7A7B7B",
"=.	c #757575",
"-.	c #666666",
";.	c #5E5E5E",
">.	c #4E4E4E",
",.	c #464647",
"'.	c #464646",
").	c #414140",
"!.	c #4D4E4E",
"~.	c #202020",
"{.	c #727272",
"].	c #909191",
"^.	c #929292",
"/.	c #959595",
"(.	c #979797",
"_.	c #989898",
":.	c #9A9999",
"<.	c #9B9A9A",
"[.	c #999999",
"}.	c #939394",
"|.	c #8B8B8B",
"1.	c #787878",
"2.	c #656565",
"3.	c #5B5C5B",
"4.	c #525252",
"5.	c #494949",
"6.	c #0C0C0C",
"7.	c #494A49",
"8.	c #616161",
"9.	c #606060",
"0.	c #696969",
"a.	c #4E4F4E",
"b.	c #9B9B9B",
"c.	c #9F9F9F",
"d.	c #A6A6A5",
"e.	c #AFAFAF",
"f.	c #ACACAC",
"g.	c #9C9C9C",
"h.	c #919192",
"i.	c #8F8F8F",
"j.	c #757574",
"k.	c #686969",
"l.	c #5D5D5D",
"m.	c #1B1B1B",
"n.	c #555555",
"o.	c #515151",
"p.	c #626262",
"q.	c #8A8A8A",
"r.	c #909091",
"s.	c #808080",
"t.	c #7C7C7C",
"u.	c #939393",
"v.	c #9FA09F",
"w.	c #A7A7A7",
"x.	c #A3A3A3",
"y.	c #595858",
"z.	c #363535",
"A.	c #353535",
"B.	c #474747",
"C.	c #616160",
"D.	c #717170",
"E.	c #7A7A7A",
"F.	c #777777",
"G.	c #6B6B6C",
"H.	c #4D4D4D",
"I.	c #2D2D2D",
"J.	c #6D6C6C",
"K.	c #737373",
"L.	c #8F908F",
"M.	c #BBBBBB",
"N.	c #CECECE",
"O.	c #CBCBCB",
"P.	c #B8B8B8",
"Q.	c #A4A4A4",
"R.	c #6E6D6E",
"S.	c #2C2C2C",
"T.	c #373837",
"U.	c #2A2A2A",
"V.	c #292929",
"W.	c #6A696A",
"X.	c #565555",
"Y.	c #7D7E7D",
"Z.	c #DEDEDE",
"`.	c #E1E1E1",
" +	c #F0EFEF",
".+	c #F4F5F4",
"++	c #E6E6E6",
"@+	c #B7B7B7",
"#+	c #9C9C9B",
"$+	c #A8A8A8",
"%+	c #ADADAD",
"&+	c #2B2B2B",
"*+	c #2A2B2A",
"=+	c #1F2020",
"-+	c #2B2B2A",
";+	c #1F1F1F",
">+	c #242424",
",+	c #6C6D6C",
"'+	c #D0D1D0",
")+	c #B0B0B0",
"!+	c #FDFDFD",
"~+	c #FCFCFC",
"{+	c #D9D9D9",
"]+	c #AEAEAE",
"^+	c #ABABAC",
"/+	c #ADACAC",
"(+	c #707171",
"_+	c #292829",
":+	c #212121",
"<+	c #111111",
"[+	c #1D1D1D",
"}+	c #222223",
"|+	c #1E1E1E",
"1+	c #484847",
"2+	c #3E3E3F",
"3+	c #909090",
"4+	c #969696",
"5+	c #D4D4D4",
"6+	c #8D8D8D",
"7+	c #FFFFFF",
"8+	c #E5E5E5",
"9+	c #B5B5B5",
"0+	c #B2B2B2",
"a+	c #7B7B7B",
"b+	c #A0A0A0",
"c+	c #868686",
"d+	c #767676",
"e+	c #BFBFBF",
"f+	c #191919",
"g+	c #4A4A4B",
"h+	c #B1B1B1",
"i+	c #E0E0E0",
"j+	c #5C5C5C",
"k+	c #BCBDBC",
"l+	c #F4F4F4",
"m+	c #EDEDED",
"n+	c #B8B8B9",
"o+	c #B7B7B8",
"p+	c #9A9A9A",
"q+	c #BDBDBD",
"r+	c #D2D2D2",
"s+	c #F4F5F5",
"t+	c #B3B2B3",
"u+	c #4A4A4A",
"v+	c #101010",
"w+	c #0A0A0A",
"x+	c #A1A1A1",
"y+	c #B8B7B8",
"z+	c #BEBEBE",
"A+	c #B5B4B4",
"B+	c #BBBBBC",
"C+	c #CCCCCC",
"D+	c #BCBCBC",
"E+	c #B6B6B6",
"F+	c #AAAAAA",
"G+	c #C6C5C5",
"H+	c #8C8C8C",
"I+	c #DEDDDD",
"J+	c #FAFAFA",
"K+	c #F6F6F6",
"L+	c #F0F0F0",
"M+	c #949495",
"N+	c #282828",
"O+	c #878787",
"P+	c #888988",
"Q+	c #C0C0C0",
"R+	c #AAABAA",
"S+	c #D1D1D1",
"T+	c #DADADA",
"U+	c #E0DFDF",
"V+	c #E8E8E8",
"W+	c #E7E8E7",
"X+	c #E7E7E7",
"Y+	c #333433",
"Z+	c #A3A2A2",
"`+	c #B4B4B4",
" @	c #B9B8B8",
".@	c #BABABA",
"+@	c #B2B3B2",
"@@	c #B9B9B9",
"#@	c #B3B3B3",
"$@	c #A8A8A9",
"%@	c #A9A9AA",
"&@	c #737474",
"*@	c #515150",
"=@	c #535454",
"-@	c #7F7F7F",
";@	c #707071",
">@	c #797979",
",@	c #808081",
"'@	c #898989",
")@	c #B4B4B5",
"!@	c #ACABAC",
"~@	c #B0B1B0",
"{@	c #A2A2A2",
"]@	c #9D9D9D",
"^@	c #868685",
"/@	c #767675",
"(@	c #676666",
"_@	c #646464",
":@	c #6C6C6D",
"<@	c #505050",
"[@	c #7B7A7B",
"}@	c #8E8E8E",
"|@	c #A3A3A4",
"1@	c #A6A7A6",
"2@	c #A6A6A6",
"3@	c #8D8D8C",
"4@	c #888888",
"5@	c #5A5A5A",
"6@	c #646463",
"7@	c #636263",
"8@	c #6C6C6C",
"9@	c #7D7E7E",
"0@	c #848585",
"a@	c #939494",
"b@	c #A4A3A3",
"c@	c #777878",
"d@	c #707070",
"e@	c #6A6969",
"f@	c #636363",
"g@	c #595959",
"h@	c #585958",
"i@	c #5B5B5B",
"j@	c #6A6A6A",
"k@	c #717171",
"l@	c #858585",
"m@	c #676767",
"n@	c #8C8B8C",
"o@	c #717271",
"p@	c #696868",
"q@	c #656564",
"r@	c #2E2E2E",
"s@	c #434444",
"t@	c #555454",
"u@	c #6B6C6B",
"v@	c #666767",
"w@	c #535453",
"x@	c #7B7B7A",
"y@	c #717172",
"z@	c #717071",
"A@	c #69696A",
"B@	c #585857",
"C@	c #2D2D2C",
"D@	c #5A5A5B",
"E@	c #50504F",
"F@	c #2F3030",
"G@	c #242323",
"H@	c #3D3E3E",
"I@	c #2E2F2F",
"J@	c #282929",
"K@	c #080808",
"L@	c #3B3A3B",
"M@	c #2D2C2D",
"N@	c #444343",
"O@	c #3B3B3A",
"P@	c #2C2C2D",
"Q@	c #29292A",
"R@	c #262626",
"S@	c #222322",
"T@	c #020202",
"U@	c #3C3B3C",
"V@	c #3D3C3D",
"W@	c #333332",
"X@	c #292928",
"Y@	c #414041",
"Z@	c #3B3C3C",
"`@	c #383837",
" #	c #272727",
".#	c #242423",
"+#	c #202120",
"@#	c #010101",
"##	c #333233",
"$#	c #2F2F2E",
"%#	c #202021",
"&#	c #2F2E2E",
"*#	c #282727",
"=#	c #242324",
"-#	c #393839",
";#	c #353534",
">#	c #232324",
",#	c #222323",
"'#	c #252524",
"          . + @ # $ % % % % % % % $ $ $ $ $ $ & @ * = - ; > , ' ",
"        ) ; @ ! $ % % % % % % % ~ $ $ $ $ $ $ $ & * { - ; > , ] ",
"        ^ / * & $ % % % % $ ( _ $ $ $ $ $ $ $ $ : * { - ; > , ] ",
"      < ] * & % [ } % % % $ $ $ _ $ $ $ $ $ $ $ ! * { - ; > , | ",
"      1 2 3 4 5 6 7 % } % % % % % % % % ~ $ $ & @ * 8 - ; > 9 0 ",
"      . a b c b b d e f g h h i i h h j k } [ $ & * 8 2 ; l ] 3 ",
"      . b c m n o p . o q r s r r t s u v w x y h z & { A > ] 3 ",
"    B C D E . E F G H I J K L M N N M L O P Q R S T y U V - W q ",
"    X b Y & U k * Z `  ...+.@.#.$.$.%.+.&.*.=.N -.;.s >.,.% 8 > ",
"    X > x '.% ).!...'.~.{.].^./.(._.:.<.[.}.|.#.1.K 2.3.4.5.k / ",
"    6.7.>.V i 8.9.;.0.a.&.b.c.d.e.f.g.$.{.$.|.h.i.%.j.k.l.u x h ",
"    m.n.o.p.q.r._.b.s.t.u.v.w.x.t.y.% z., A.- B.C.D.E.F.G.;.n.H.",
"    I.J.K.|.L.M.N.O.P.L.u.Q.f.R.S.A.T.2 2 2 A.q U.V.0 h W.R.9.X.",
"    , %.Y.^.Z.`. +.+++@+#+$+%+r &+W *+=+^ U.3 ] 3 -+a ;+>+z 9.9.",
"    { u.,+'+/.>.)+!+~+{+]+^+/+(+I m _+5.j :+<+E [+^ >+}+|+. |+1+",
"    2+3+4+5+B.; 6+7+7+8+9+0+)+u.u a+b+c+d+e+]+F.{ <+6.f+m.f+d o ",
"    g+i.h+i+j+4.k+++l+m+n+o+9+p+c.q+a+U h r+7+7+s+t+u+6.) b v+w+",
"    >.L.x+y+e.9+z+A+B+C+D+D+E+F+]+G+H+H.a.I+7+J+K+J+L+M+U.  ) N+",
"    r O+P+[.w.f./+%+f.0+M.z+9+)+M.q+Q+E+R+S+T+U+V+W+X+N.a+Y+- >.",
"    t +.=.$.i.4+p+g.Z+`+ @.@t+0+P.+@9+@@q+#@$@b+c.x+%@g.{.&@r *@",
"    =@-@=.;@>@,@'@u.Q.h+h+)@!@e.~@x.{@{@b+]@_.3+^@t./@(@_@:@Q <@",
"    H.K.a+[@a+$.}@p+|@x.1@2@u.w.f.g.3+3@|.4@#.a+{.O l.5@6@;.4.'.",
"    } 7@8@d+9@0@|.3+a@u.[.H+a+b+b@{@^.#.c@d@e@f@j+g@h@i@g@H.k 8 ",
"    W 4.5@p.j@k@F.t.&.,@l@M m@3+n@6+6+O+t.o@p@q@8.;.5@4.y & A.r@",
"    a s@y >.t@5@.._@2.u@v@<@w@x@E.=.y@z@N A@_@;.B@<@y [ 8 , C@N+",
"    . { @ [ j '.5.u+x <@h 2 @ D@l.j+r =@E@H.5.i ).: - l F@S.N+G@",
"    D A.8 * & $ ~ $ [ H@q V.I.i '.'.h % & @ { - 2 > ] I@S.J@a :+",
"    K@q - L@@ & & # % - &+Z M@N@j k $ * O@8 - ; > ] 3 P@Q@R@S@;+",
"    T@V.; 8 U@& V@% ( W@X@a r@k Y@% Z@O@8 `@; W ] 3 S.U. #.#+#|+",
"    @#^ ##2 O@* & } & S.N+>+$#[ & @ L@8 2 A.W 7 r@S.Q@ #>+5 ~.[+",
"      %#&#> 8 { q 3 3 V.*#=#r@& * { -#2 ;#, F@r@&+V. #a 5 :+~.|+",
"      ;+C@] ; { > V.>#,#^ 5 I.U@8 - ; > ] I@S.U.N+R@'#^ :++#~.|+"};
