/* XPM */
static char * nrm_world_xpm[] = {
"32 32 428 2",
"  	c #535454",
". 	c #4B4C4C",
"+ 	c #4A4A4B",
"@ 	c #434344",
"# 	c #58554C",
"$ 	c #595546",
"% 	c #424243",
"& 	c #4D4D4E",
"* 	c #444445",
"= 	c #494949",
"- 	c #DBCB78",
"; 	c #E9D261",
"> 	c #3E3D3A",
", 	c #4F4F4F",
"' 	c #464646",
") 	c #BAAC70",
"! 	c #FFEF82",
"~ 	c #FFE961",
"{ 	c #B29A30",
"] 	c #404040",
"^ 	c #454545",
"/ 	c #4F4F50",
"( 	c #464647",
"_ 	c #7E775A",
": 	c #F8EA7D",
"< 	c #FFE46E",
"[ 	c #FFDD4D",
"} 	c #F7E237",
"| 	c #5D5329",
"1 	c #414142",
"2 	c #454546",
"3 	c #505151",
"4 	c #474848",
"5 	c #56544A",
"6 	c #F1DB66",
"7 	c #FFE259",
"8 	c #FFDB40",
"9 	c #EECB31",
"0 	c #D9BB2E",
"a 	c #C3AB2C",
"b 	c #3D3B32",
"c 	c #444545",
"d 	c #515253",
"e 	c #48494A",
"f 	c #494945",
"g 	c #F1D547",
"h 	c #FFED3E",
"i 	c #ECD534",
"j 	c #D7BD2E",
"k 	c #C2A729",
"l 	c #B19F27",
"m 	c #ABA028",
"n 	c #A28D25",
"o 	c #3C3D3B",
"p 	c #464748",
"q 	c #535353",
"r 	c #504C39",
"s 	c #70672F",
"t 	c #65592A",
"u 	c #5F5528",
"v 	c #8B7826",
"w 	c #AA9126",
"x 	c #4E4623",
"y 	c #4A4223",
"z 	c #514A24",
"A 	c #3D3B30",
"B 	c #49494A",
"C 	c #535354",
"D 	c #4B4B4C",
"E 	c #404041",
"F 	c #595335",
"G 	c #B49B2C",
"H 	c #3B3B3C",
"I 	c #3E3E3F",
"J 	c #474748",
"K 	c #545455",
"L 	c #4C4C4D",
"M 	c #4B4B4B",
"N 	c #62574F",
"O 	c #9F724F",
"P 	c #E18F44",
"Q 	c #F7932A",
"R 	c #884C20",
"S 	c #483B32",
"T 	c #484848",
"U 	c #555756",
"V 	c #4D4F4E",
"W 	c #5B5753",
"X 	c #C08C63",
"Y 	c #F39E66",
"Z 	c #D88A74",
"` 	c #B96D6C",
" .	c #B05D5B",
"..	c #D26945",
"+.	c #F87A23",
"@.	c #9F5B25",
"#.	c #474542",
"$.	c #4C4E4D",
"%.	c #575757",
"&.	c #545350",
"*.	c #79704B",
"=.	c #4D4D4D",
"-.	c #4E4E4E",
";.	c #5A5653",
">.	c #F8A667",
",.	c #E09579",
"'.	c #795C9E",
").	c #463DA4",
"!.	c #352B9A",
"~.	c #2A2095",
"{.	c #2B2095",
"].	c #5D307A",
"^.	c #E36B2E",
"/.	c #E16A0E",
"(.	c #464342",
"_.	c #50504F",
":.	c #666252",
"<.	c #575959",
"[.	c #4F5151",
"}.	c #67665A",
"|.	c #E5D66E",
"1.	c #BEAA50",
"2.	c #484A4A",
"3.	c #4D4E4E",
"4.	c #C5895D",
"5.	c #E19070",
"6.	c #5A49A5",
"7.	c #372B99",
"8.	c #2D168A",
"9.	c #230B85",
"0.	c #200883",
"a.	c #240C85",
"b.	c #1C118E",
"c.	c #32127F",
"d.	c #E86017",
"e.	c #95501E",
"f.	c #4F5150",
"g.	c #F8E17B",
"h.	c #938A57",
"i.	c #4A4C4C",
"j.	c #4E5050",
"k.	c #585A5A",
"l.	c #505252",
"m.	c #525453",
"n.	c #928C6A",
"o.	c #F8E580",
"p.	c #FFED68",
"q.	c #A99541",
"r.	c #444646",
"s.	c #625850",
"t.	c #F8995A",
"u.	c #704E96",
"v.	c #332797",
"w.	c #250D86",
"x.	c #1C0381",
"y.	c #19007F",
"z.	c #1A0180",
"A.	c #1E0481",
"B.	c #0F0488",
"C.	c #561A63",
"D.	c #F77619",
"E.	c #484643",
"F.	c #F7E07B",
"G.	c #FFF171",
"H.	c #BAA94C",
"I.	c #4C4C43",
"J.	c #5A5B5B",
"K.	c #525353",
"L.	c #5C5B56",
"M.	c #CDC076",
"N.	c #FFF184",
"O.	c #FFE570",
"P.	c #FFE54D",
"Q.	c #A28E33",
"R.	c #9D6D4C",
"S.	c #D77E62",
"T.	c #3A309E",
"U.	c #291288",
"V.	c #1A0281",
"W.	c #1A0886",
"X.	c #E36931",
"Y.	c #9F6037",
"Z.	c #4F534D",
"`.	c #F5DC6E",
" +	c #FFE463",
".+	c #FFE752",
"++	c #EED23F",
"@+	c #5D5635",
"#+	c #4F5050",
"$+	c #515252",
"%+	c #5B5C5C",
"&+	c #5A584C",
"*+	c #F8E05D",
"=+	c #FFE962",
"-+	c #FFDF5C",
";+	c #FFDC46",
">+	c #F2D032",
",+	c #D6B82F",
"'+	c #B19B3B",
")+	c #EC902F",
"!+	c #AE5857",
"~+	c #261B93",
"{+	c #0E0086",
"]+	c #B44530",
"^+	c #F1921F",
"/+	c #D7C149",
"(+	c #FCDC4E",
"_+	c #FFDD45",
":+	c #FFD935",
"<+	c #E9CA31",
"[+	c #D3C031",
"}+	c #72662C",
"|+	c #4C4C4C",
"1+	c #5D5E5D",
"2+	c #515250",
"3+	c #726733",
"4+	c #E6CE34",
"5+	c #E6C832",
"6+	c #DCBB2E",
"7+	c #CAAF2B",
"8+	c #A28B28",
"9+	c #5E562D",
"0+	c #D06A0A",
"a+	c #A6413B",
"b+	c #160B8B",
"c+	c #18007C",
"d+	c #0D007B",
"e+	c #A13B24",
"f+	c #B96105",
"g+	c #83751D",
"h+	c #E4C22F",
"i+	c #DEBE2E",
"j+	c #C3A629",
"k+	c #A89124",
"l+	c #988B24",
"m+	c #645925",
"n+	c #474847",
"o+	c #595A59",
"p+	c #5E5F5E",
"q+	c #555655",
"r+	c #525352",
"s+	c #4C4834",
"t+	c #A99428",
"u+	c #B4A128",
"v+	c #A89524",
"w+	c #6C5F23",
"x+	c #434443",
"y+	c #713F1C",
"z+	c #C74E21",
"A+	c #0E0085",
"B+	c #19007D",
"C+	c #150075",
"D+	c #130065",
"E+	c #9E3E0F",
"F+	c #4D1D00",
"G+	c #000301",
"H+	c #AD9323",
"I+	c #918120",
"J+	c #897820",
"K+	c #423E29",
"L+	c #4B4C4B",
"M+	c #5A5B5A",
"N+	c #5F6060",
"O+	c #575858",
"P+	c #565757",
"Q+	c #464541",
"R+	c #746625",
"S+	c #978F23",
"T+	c #675A22",
"U+	c #48413B",
"V+	c #DD5F07",
"W+	c #48125E",
"X+	c #0B0082",
"Y+	c #1A007D",
"Z+	c #170076",
"`+	c #06006E",
" @	c #431437",
".@	c #8E3D02",
"+@	c #3B3A39",
"@@	c #414241",
"#@	c #937E1E",
"$@	c #918621",
"%@	c #685C21",
"&@	c #3B3A36",
"*@	c #454646",
"=@	c #4C4D4D",
"-@	c #5E5F5F",
";@	c #606161",
">@	c #585959",
",@	c #555656",
"'@	c #57502A",
")@	c #6F6022",
"!@	c #494A4A",
"~@	c #864718",
"{@	c #C65211",
"]@	c #290866",
"^@	c #0A007D",
"/@	c #16007C",
"(@	c #18007B",
"_@	c #140075",
":@	c #2A0B44",
"<@	c #8E3C06",
"[@	c #4E311C",
"}@	c #484948",
"|@	c #917C21",
"1@	c #4F4827",
"2@	c #424343",
"3@	c #616262",
"4@	c #595A5A",
"5@	c #464642",
"6@	c #4E4F4F",
"7@	c #4E4D4C",
"8@	c #AB5009",
"9@	c #B84C0E",
"0@	c #4B1850",
"a@	c #140077",
"b@	c #0D0080",
"c@	c #0D007A",
"d@	c #140164",
"e@	c #421634",
"f@	c #6F370D",
"g@	c #414141",
"h@	c #515251",
"i@	c #4B4940",
"j@	c #626363",
"k@	c #4D4D4B",
"l@	c #72411C",
"m@	c #D65B03",
"n@	c #D55417",
"o@	c #B24428",
"p@	c #9F3A21",
"q@	c #A3410F",
"r@	c #8C3D03",
"s@	c #4D321D",
"t@	c #414242",
"u@	c #545555",
"v@	c #646464",
"w@	c #5C5C5C",
"x@	c #5B5B5B",
"y@	c #5A5A5A",
"z@	c #555555",
"A@	c #4A4542",
"B@	c #87400D",
"C@	c #D87107",
"D@	c #E07E08",
"E@	c #572500",
"F@	c #3F3D3C",
"G@	c #565656",
"H@	c #646665",
"I@	c #5C5E5D",
"J@	c #5B5D5C",
"K@	c #5A5C5B",
"L@	c #585A59",
"M@	c #2E312F",
"N@	c #8A7D30",
"O@	c #D3B72A",
"P@	c #474948",
"Q@	c #505251",
"R@	c #565856",
"S@	c #666767",
"T@	c #5F5E56",
"U@	c #D7C25A",
"V@	c #EAD05C",
"W@	c #E8CC55",
"X@	c #F3D247",
"Y@	c #F8D332",
"Z@	c #CCAD27",
"`@	c #BDA025",
" #	c #BEA827",
".#	c #645C37",
"+#	c #5D5E5E",
"@#	c #676867",
"##	c #5F6160",
"$#	c #5E605F",
"%#	c #847843",
"&#	c #FFEF4B",
"*#	c #FFE147",
"=#	c #FFDD3C",
"-#	c #EDCB31",
";#	c #CCB22C",
">#	c #B0A128",
",#	c #837225",
"'#	c #4C4E4C",
")#	c #575958",
"!#	c #5D5F5E",
"~#	c #676868",
"{#	c #A99331",
"]#	c #EDD334",
"^#	c #E7C530",
"/#	c #C9AB2A",
"(#	c #9F8A22",
"_#	c #817220",
":#	c #41403D",
"<#	c #676969",
"[#	c #606262",
"}#	c #5F6161",
"|#	c #52524C",
"1#	c #C7AE2D",
"2#	c #C5AB2A",
"3#	c #A08821",
"4#	c #8E8122",
"5#	c #434031",
"6#	c #5E6060",
"7#	c #696A69",
"8#	c #626362",
"9#	c #606160",
"0#	c #5C5539",
"a#	c #A99A28",
"b#	c #918420",
"c#	c #574E26",
"d#	c #4C4D4C",
"e#	c #565756",
"f#	c #5F605F",
"g#	c #6A6C6B",
"h#	c #636564",
"i#	c #6C612C",
"j#	c #716423",
"k#	c #4A4B4A",
"l#	c #545655",
"m#	c #626463",
"n#	c #646564",
"o#	c #636463",
"p#	c #5A5A59",
"q#	c #4F504D",
"r#	c #737473",
"s#	c #6C6D6C",
"t#	c #6A6B6A",
"u#	c #666766",
"  . . . . . . . . . . . . . . . . . . . . . . . . . . . . . .   ",
"+ @ @ @ @ @ @ @ @ @ @ @ @ @ @ # $ % @ @ @ @ @ @ @ @ @ @ @ @ @ + ",
"& * * * * * * * * * * * * * = - ; > % * * * * * * * * * * * * & ",
", ' ' ' ' ' ' ' ' ' ' ' ' ' ) ! ~ { ] ^ ' ' ' ' ' ' ' ' ' ' ' , ",
"/ ( ( ( ( ( ( ( ( ( ( ( ( _ : < [ } | 1 2 ( ( ( ( ( ( ( ( ( ( / ",
"3 4 4 4 4 4 4 4 4 4 4 4 5 6 7 8 9 0 a b c 4 4 4 4 4 4 4 4 4 4 3 ",
"d e e e e e e e e e e f g h i j k l m n o p e e e e e e e e e d ",
"q + + + + + + + + + + r s t u v w x y z A 2 B + + + + + + + + q ",
"C D D D D D D D D D D + ( % E F G H I E % J + D D D D D D D D C ",
"K L L L L L L L L L L L M N O P Q R S T B M L L L L L L L L L K ",
"U V V V V V V V V V V W X Y Z `  ...+.@.#.$.V V V V V V V V V U ",
"%., , , , , &.*.=.-.;.>.,.'.).!.~.{.].^./.(.=._.:.-.-., , , , %.",
"<.[.[.[.[.}.|.1.2.3.4.5.6.7.8.9.0.a.b.c.d.e.2.f.g.h.i.j.[.[.[.<.",
"k.l.l.m.n.o.p.q.r.s.t.u.v.w.x.y.y.z.A.B.C.D.E.V F.G.H.I.j.l.l.k.",
"J.K.L.M.N.O.P.Q.c R.S.T.U.x.y.y.y.y.y.V.W.X.Y.Z.`. +.+++@+#+$+J.",
"%+&+*+=+-+;+>+,+'+)+!+~+0.y.y.y.y.y.y.y.{+]+^+/+(+_+:+<+[+}+|+J.",
"1+2+3+4+5+6+7+8+9+0+a+b+x.y.y.y.y.y.y.c+d+e+f+g+h+i+j+k+l+m+n+o+",
"p+q+r+s+t+u+v+w+x+y+z+A+y.y.y.y.y.y.B+C+D+E+F+G+H+k+I+J+K+x+L+M+",
"N+O+P+  Q+R+S+T+4 U+V+W+X+Y+y.y.y.B+Z+`+ @.@+@@@#@$@%@&@*@=@K.-@",
";@>@>@O+,@#+'@)@!@K.~@{@]@^@/@B+(@_@`+:@<@[@*@}@|@1@2@!@#+,@O+;@",
"3@4@4@4@4@O+  5@6@,@7@8@9@0@a@b@c@d@e@<@f@g@=@h@i@. =@  O+4@4@3@",
"j@J.J.J.J.J.4@P+,@>@4@k@l@m@n@o@p@q@r@s@t@. u@4@O+u@P+4@J.J.J.j@",
"v@w@w@w@w@w@w@w@x@w@w@y@z@A@B@C@D@E@F@= , G@x@w@x@x@w@w@w@w@w@v@",
"H@I@I@I@I@I@I@I@I@I@I@J@K@L@M@N@O@G+P@Q@R@J@I@I@I@I@I@I@I@I@I@H@",
"S@-@-@-@-@-@-@-@-@-@-@T@U@V@W@X@Y@Z@`@ #.#%++#-@-@-@-@-@-@-@-@S@",
"@#####################$#%#&#*#=#-#;#>#,#'#)#!#################@#",
"~#;@;@;@;@;@;@;@;@;@;@;@%+{#]#^#/#(#_#:##+4@N+;@;@;@;@;@;@;@;@~#",
"<#[#[#[#[#[#[#[#[#[#[#[#}#|#1#2#3#4#5#3.<.6#[#[#[#[#[#[#[#[#[#<#",
"7#8#8#8#8#8#8#8#8#8#8#8#8#9#0#a#b#c#d#e#f#8#8#8#8#8#8#8#8#8#8#7#",
"g#h#h#h#h#h#h#h#h#h#h#h#h#h###i#j#k#l#$#m#h#h#h#h#h#h#h#h#h#h#g#",
"7#n#n#n#n#n#n#n#n#n#n#n#n#n#o#p#q#q+1+o#n#n#n#n#n#n#n#n#n#n#n#7#",
"r#s#s#s#s#s#s#s#s#s#s#s#s#s#s#t#@#u#t#s#s#s#s#s#s#s#s#s#s#s#s#r#"};
