/* XPM */
static char * nrm_lfikleg_xpm[] = {
"32 32 387 2",
"  	c #C3C2C2",
". 	c #C0BFBF",
"+ 	c #B7B6B6",
"@ 	c #BABABA",
"# 	c #BFBFBF",
"$ 	c #B6B6B6",
"% 	c #A9A8A8",
"& 	c #8E8E8E",
"* 	c #878686",
"= 	c #B9B8B8",
"- 	c #BEBDBD",
"; 	c #BEBEBD",
"> 	c #BCBCBB",
", 	c #B7B7B7",
"' 	c #C0C0C0",
") 	c #C4C4C4",
"! 	c #B8B8B8",
"~ 	c #C5C5C5",
"{ 	c #A3A3A3",
"] 	c #7B7B7B",
"^ 	c #B2B2B1",
"/ 	c #BBBBBA",
"( 	c #CCCCCC",
"_ 	c #D4D4D5",
": 	c #CFCFCF",
"< 	c #C9C8C8",
"[ 	c #BDBDBD",
"} 	c #AEAFAF",
"| 	c #898689",
"1 	c #5C5E5C",
"2 	c #A6A6A5",
"3 	c #B6B6B5",
"4 	c #898988",
"5 	c #000000",
"6 	c #646463",
"7 	c #969695",
"8 	c #BCBCBC",
"9 	c #B9B9B9",
"0 	c #B3B3B3",
"a 	c #AFAFAF",
"b 	c #9B9B9B",
"c 	c #919191",
"d 	c #858185",
"e 	c #5F715F",
"f 	c #2E8E2E",
"g 	c #989A98",
"h 	c #B0B0B0",
"i 	c #6F6F6F",
"j 	c #949494",
"k 	c #B9B9B8",
"l 	c #C5C5C4",
"m 	c #9C9C9C",
"n 	c #787878",
"o 	c #656565",
"p 	c #5D5D5D",
"q 	c #534E53",
"r 	c #3B893B",
"s 	c #2CC42C",
"t 	c #6D8C6D",
"u 	c #ACACAB",
"v 	c #B8B8B7",
"w 	c #6F6F6E",
"x 	c #ADADAC",
"y 	c #0C0C0C",
"z 	c #4A4A4A",
"A 	c #BBBABA",
"B 	c #B8B7B7",
"C 	c #B2B1B1",
"D 	c #6B6B6B",
"E 	c #3F3F3F",
"F 	c #3B3B3B",
"G 	c #353435",
"H 	c #434543",
"I 	c #378E37",
"J 	c #43D243",
"K 	c #3D963C",
"L 	c #A3A2A2",
"M 	c #B4B3B3",
"N 	c #6E6E6E",
"O 	c #313131",
"P 	c #252525",
"Q 	c #BAB9B8",
"R 	c #B7B6B5",
"S 	c #C3C3C3",
"T 	c #565656",
"U 	c #848382",
"V 	c #717171",
"W 	c #797877",
"X 	c #908F8F",
"Y 	c #768C74",
"Z 	c #41D841",
"` 	c #2FC92F",
" .	c #849382",
"..	c #AEADAC",
"+.	c #B6B5B4",
"@.	c #6E6D6D",
"#.	c #ABAAA9",
"$.	c #B5B5B4",
"%.	c #5C5C5B",
"&.	c #929291",
"*.	c #A0A0A0",
"=.	c #A4A4A3",
"-.	c #A5A5A4",
";.	c #A8A8A7",
">.	c #48BA47",
",.	c #4AF14A",
"'.	c #4B924B",
").	c #6D6D6C",
"!.	c #919190",
"~.	c #484848",
"{.	c #B4B4B3",
"].	c #C2C2C2",
"^.	c #6C6C6B",
"/.	c #9A9A99",
"(.	c #B3B3B2",
"_.	c #7AA57A",
":.	c #51F951",
"<.	c #31C331",
"[.	c #919890",
"}.	c #787877",
"|.	c #90908F",
"1.	c #B7B7B6",
"2.	c #B0B0AF",
"3.	c #737373",
"4.	c #7D7D7D",
"5.	c #9E9E9D",
"6.	c #AFAFAE",
"7.	c #AEAFAD",
"8.	c #4BD14C",
"9.	c #49F149",
"0.	c #598F59",
"a.	c #6A6A6A",
"b.	c #30302F",
"c.	c #242424",
"d.	c #B6B4B5",
"e.	c #B2B0B1",
"f.	c #AFAEAE",
"g.	c #CBCBCB",
"h.	c #606060",
"i.	c #8C8B8C",
"j.	c #A2A0A1",
"k.	c #B0AEAF",
"l.	c #B1AFB0",
"m.	c #68A967",
"n.	c #59FD59",
"o.	c #33B433",
"p.	c #999998",
"q.	c #7E7D7D",
"r.	c #838182",
"s.	c #9A9999",
"t.	c #5F5E5E",
"u.	c #B4B4B4",
"v.	c #B1B1B1",
"w.	c #585858",
"x.	c #8F8F8F",
"y.	c #A5A5A5",
"z.	c #9FA89F",
"A.	c #4DE24D",
"B.	c #43EC43",
"C.	c #668D66",
"D.	c #A4A4A4",
"E.	c #B4B2B2",
"F.	c #B0AEAE",
"G.	c #BFBEBE",
"H.	c #A7A7A7",
"I.	c #5D5C5C",
"J.	c #939191",
"K.	c #A8A6A6",
"L.	c #AEACAC",
"M.	c #5AB259",
"N.	c #5CFE5C",
"O.	c #38A738",
"P.	c #9B9A9A",
"Q.	c #ACAAAA",
"R.	c #B3B1B1",
"S.	c #AFADAD",
"T.	c #ABA9A9",
"U.	c #CDCDCD",
"V.	c #898989",
"W.	c #6C6C6C",
"X.	c #979595",
"Y.	c #A9A7A7",
"Z.	c #8CA28B",
"`.	c #4FF24F",
" +	c #37DC37",
".+	c #6F896D",
"++	c #A5A3A3",
"@+	c #B1B0B0",
"#+	c #ADACAC",
"$+	c #6D6D6D",
"%+	c #797979",
"&+	c #AAA9A9",
"*+	c #4ABF4A",
"=+	c #39F139",
"-+	c #448C43",
";+	c #B0AFAF",
">+	c #ACABAB",
",+	c #A8A7A7",
"'+	c #5F5F5F",
")+	c #888787",
"!+	c #9D9C9C",
"~+	c #ABAAAA",
"{+	c #89A188",
"]+	c #50ED50",
"^+	c #2FAC2F",
"/+	c #909290",
"(+	c #A5A4A4",
"_+	c #AEADAE",
":+	c #AAA9AA",
"<+	c #9D9C9D",
"[+	c #838283",
"}+	c #9F9E9F",
"|+	c #A9A8A9",
"1+	c #96AA96",
"2+	c #4EEC4E",
"3+	c #18B318",
"4+	c #798579",
"5+	c #ADACAD",
"6+	c #ADADAE",
"7+	c #7A7A7A",
"8+	c #646364",
"9+	c #9B9A9B",
"0+	c #A8A7A8",
"a+	c #92AB92",
"b+	c #50F550",
"c+	c #18C218",
"d+	c #637C63",
"e+	c #9A999A",
"f+	c #A7A6A7",
"g+	c #9E9E9E",
"h+	c #515050",
"i+	c #949393",
"j+	c #8EA78D",
"k+	c #4BF44B",
"l+	c #17C617",
"m+	c #527751",
"n+	c #969595",
"o+	c #A7A6A6",
"p+	c #A6A5A5",
"q+	c #979697",
"r+	c #979797",
"s+	c #575656",
"t+	c #7B7A7A",
"u+	c #9E9D9D",
"v+	c #8AAF8A",
"w+	c #4BF24B",
"x+	c #18CE18",
"y+	c #437443",
"z+	c #A2A1A1",
"A+	c #5B5A5A",
"B+	c #979696",
"C+	c #A4A3A3",
"D+	c #87A886",
"E+	c #4BF54B",
"F+	c #1AD719",
"G+	c #367535",
"H+	c #8E8D8D",
"I+	c #A09F9F",
"J+	c #A4A5A4",
"K+	c #7C7C7C",
"L+	c #4C4C4C",
"M+	c #84AA83",
"N+	c #4DF44D",
"O+	c #1BE01B",
"P+	c #2B782B",
"Q+	c #8B8A8A",
"R+	c #929292",
"S+	c #8C8C8C",
"T+	c #535352",
"U+	c #999999",
"V+	c #A2A2A2",
"W+	c #80B080",
"X+	c #4DF34D",
"Y+	c #1EE91E",
"Z+	c #1E801E",
"`+	c #878787",
" @	c #A7A5A6",
".@	c #A3A1A2",
"+@	c #9B999A",
"@@	c #626363",
"#@	c #5B5A5B",
"$@	c #939192",
"%@	c #A09E9F",
"&@	c #7FAC7E",
"*@	c #28EE28",
"=@	c #129112",
"-@	c #787F77",
";@	c #999798",
">@	c #A1A0A0",
",@	c #717071",
"'@	c #474747",
")@	c #7FA27F",
"!@	c #4CF54C",
"~@	c #39F439",
"{@	c #13AE13",
"]@	c #617860",
"^@	c #A4A3A4",
"/@	c #808080",
"(@	c #464646",
"_@	c #777677",
":@	c #979596",
"<@	c #9F9D9E",
"[@	c #849B83",
"}@	c #33D733",
"|@	c #2FE730",
"1@	c #0FAD0F",
"2@	c #477747",
"3@	c #8E8D8E",
"4@	c #9D9B9C",
"5@	c #9F9E9E",
"6@	c #9A9A9A",
"7@	c #AAAAAA",
"8@	c #727172",
"9@	c #696868",
"0@	c #929191",
"a@	c #8EA18D",
"b@	c #35CB35",
"c@	c #51DB51",
"d@	c #51D250",
"e@	c #26AE26",
"f@	c #7C857B",
"g@	c #989797",
"h@	c #A4A2A2",
"i@	c #9F9D9D",
"j@	c #414041",
"k@	c #636262",
"l@	c #8F8D8D",
"m@	c #9D9B9B",
"n@	c #939C91",
"o@	c #43CB42",
"p@	c #6BC86C",
"q@	c #3FAA3F",
"r@	c #20A520",
"s@	c #369136",
"t@	c #828D80",
"u@	c #9C9A9A",
"v@	c #9E9C9C",
"w@	c #A2A1A2",
"x@	c #A1A1A1",
"y@	c #7E7E7E",
"z@	c #595959",
"A@	c #3A393A",
"B@	c #626262",
"C@	c #9C9B9C",
"D@	c #7C917C",
"E@	c #518651",
"F@	c #298329",
"G@	c #509C50",
"H@	c #4AAA4A",
"I@	c #259025",
"J@	c #5F875F",
"K@	c #989798",
"L@	c #A19FA0",
"M@	c #9C9A9B",
"N@	c #999898",
"O@	c #C7C7C7",
"P@	c #ADAEAE",
"Q@	c #646464",
"R@	c #323232",
"S@	c #4E4D4E",
"T@	c #7E7C7D",
"U@	c #8F8D8E",
"V@	c #9A9899",
"W@	c #989697",
"X@	c #838382",
"Y@	c #667E66",
"Z@	c #59825A",
"`@	c #607A5F",
" #	c #7A8279",
".#	c #929091",
"+#	c #908F90",
"@#	c #7D7C7D",
"##	c #605F60",
"$#	c #6C6B6C",
"%#	c #828182",
"&#	c #969596",
"*#	c #999899",
"=#	c #8B8A8B",
"-#	c #898889",
";#	c #8D8C8D",
">#	c #949394",
",#	c #A3A2A3",
"'#	c #959495",
")#	c #8A8A8A",
"!#	c #878687",
"~#	c #919091",
"{#	c #9E9D9E",
"  . . . . . . . . + @ # $ % & * = - . . . . . . . . . . . . .   ",
"; > > > > > > > > , ' ) ! ~ ' { ] ^ / > > > > > > > > > > > > ; ",
"; / / / / / / / / ( _ : < [ } | 1 2 3 / / 4 5 / 4 5 / / 6 5 7 ; ",
"8 9 9 9 9 9 9 9 ! 0 @ a b c d e f g h 9 9 i 5 9 i 5 9 j 5 i 9 8 ",
"> k k k k k k k 3 l m n o p q r s t u v k w 5 k w 5 x y z k k > ",
"A B B B B B B B C ( D E F G H I J K L M B N 5 B N 5 O P B B B A ",
"Q R R R R R R R C S T U V W X Y Z `  ...+.@.5 R @.5 5 y #.R R Q ",
"! $.$.$.$.$.$.$.v a %.&.*.=.-.;.>.,.'.=.^ ).5 $.).5 !.y ~.$.$.! ",
"v {.{.{.{.{.{.{.].c ^./.u ^ ^ (._.:.<.[.x ^.5 {.^.5 {.}.5 |.{.v ",
"1.(.(.(.(.(.(.2.( 3.4.5.6.(.(.(.7.8.9.0.-.a.5 (.D 5 (.(.b.c.(.1.",
"d.e.e.e.e.e.e.f.g.h.i.j.k.e.e.e.l.m.n.o.p.q.5 e.r.5 e.e.s.5 t.d.",
"u.h h h h h h v.' w.x.y.a h h h h z.A.B.C.D.a h h h h h h h h u.",
"E.F.F.F.F.F.F.G.H.I.J.K.F.F.F.F.F.L.M.N.O.P.Q.F.F.F.F.F.F.F.F.E.",
"R.S.S.S.S.S.T.U.V.W.X.Y.S.S.S.S.S.S.Z.`. +.+++L.S.S.S.S.S.S.S.R.",
"@+#+#+#+#+#+% g.$+%+s.&+#+#+#+#+#+#+&+*+=+-+P.&+#+#+#+#+#+#+#+@+",
";+>+>+>+>+>+,+~ '+)+!+&+>+>+>+>+>+>+~+{+]+^+/+(+>+>+>+>+>+>+>+;+",
"_+:+:+:+:+:+<+H.'+[+}+|+:+:+:+:+:+:+:+1+2+3+4+}+|+:+:+:+:+:+:+_+",
"5+|+|+|+|+|+<+6+7+8+9+0+|+|+|+|+|+|+|+a+b+c+d+e+f+|+|+|+|+|+|+5+",
">+,+,+,+,+,+g+D.V.h+i+L ,+,+,+,+,+,+,+j+k+l+m+n+(+,+,+,+,+,+,+>+",
"~+o+o+o+o+o+p+q+r+s+t+u+p+o+o+o+o+o+o+v+w+x+y+c z+o+o+o+o+o+o+~+",
"&+p+p+p+p+p+(+X *.a.A+B+C+p+p+p+p+p+p+D+E+F+G+H+I+p+p+p+p+p+p+&+",
"% (+(+(+(+(+(+& J+K+L+H+I+(+(+(+(+(+(+M+N+O+P+Q+u+(+(+(+(+(+(+% ",
"H.{ { { { { { R+y.S+T+3.U+V+{ { { { { W+X+Y+Z+`+b { { { { { { H.",
" @.@.@.@.@.@.@+@*.U+@@#@$@%@.@.@.@.@.@&@w+*@=@-@;@j..@.@.@.@.@ @",
"(+>@>@>@>@>@>@I+m D.,@'@Q+P.>@>@>@>@>@)@!@~@{@]@i+I+>@>@>@>@>@(+",
"^@%@%@%@%@%@%@%@m v./@(@_@:@<@%@%@%@%@[@}@|@1@2@3@4@%@%@%@%@%@^@",
"C+5@5@5@5@5@5@5@6@7@8@F 9@0@u+5@5@5@5@a@b@c@d@e@f@g@u+5@5@5@5@C+",
"h@i@i@i@i@i@i@i@~ , a.j@k@l@m@i@i@i@i@n@o@p@q@r@s@t@u@v@i@i@i@h@",
"w@<+<+<+<+<+}+x@y@W.z@A@B@i.e+<+<+<+<+C@D@E@F@G@H@I@J@K@C@<+<+w@",
"L@M@M@M@M@N@O@P@Q@R@S@'+T@U@V@M@M@M@M@M@W@U@X@Y@Z@`@ #.#V@M@M@L@",
"}+9+9+9+9+3@+#@###$#] %#i.&#e+9+9+9+9+9+e+*#&#+#=#-#;#>#*#9+9+}+",
",#}+}+}+}+<+'#)#!#)#~#q+C@{#}+}+}+}+}+}+}+}+}+{#<+9+<+{#{#}+}+,#"};
