/* XPM */
static char * nrm_root_xpm[] = {
"32 32 407 2",
"  	c #C3C2C2",
". 	c #C0BFBF",
"+ 	c #BEBEBD",
"@ 	c #BCBCBB",
"# 	c #A5A5A4",
"$ 	c #717475",
"% 	c #686969",
"& 	c #9E9E9D",
"* 	c #BBBBBA",
"= 	c #7D7F7E",
"- 	c #5B5D5D",
"; 	c #6C6B6B",
"> 	c #767675",
", 	c #BCBCBC",
"' 	c #B9B9B9",
") 	c #5F6262",
"! 	c #797979",
"~ 	c #909090",
"{ 	c #6D6D6D",
"] 	c #B9B9B8",
"^ 	c #727372",
"/ 	c #363636",
"( 	c #707070",
"_ 	c #757575",
": 	c #BBBABA",
"< 	c #B8B7B7",
"[ 	c #B7B6B6",
"} 	c #3C3C3C",
"| 	c #5D5D5D",
"1 	c #B2B2B2",
"2 	c #B1B0AF",
"3 	c #ABAAA9",
"4 	c #ABABAA",
"5 	c #AFAFAE",
"6 	c #979796",
"7 	c #8D8C8C",
"8 	c #91908F",
"9 	c #989797",
"0 	c #A9A8A7",
"a 	c #878887",
"b 	c #747676",
"c 	c #5D6060",
"d 	c #626464",
"e 	c #7E7D7C",
"f 	c #A6A6A5",
"g 	c #B1B0B0",
"h 	c #A7A7A6",
"i 	c #9B9B9A",
"j 	c #959594",
"k 	c #919191",
"l 	c #979695",
"m 	c #AFAEAD",
"n 	c #ADACAB",
"o 	c #B0AFAE",
"p 	c #838383",
"q 	c #696969",
"r 	c #4D4E4E",
"s 	c #454747",
"t 	c #323333",
"u 	c #373838",
"v 	c #393A3A",
"w 	c #3B3C3C",
"x 	c #4B4C4C",
"y 	c #555555",
"z 	c #565756",
"A 	c #4A4C4C",
"B 	c #494C4C",
"C 	c #454646",
"D 	c #545454",
"E 	c #5E5E5E",
"F 	c #747474",
"G 	c #6A6B6B",
"H 	c #5A5B5B",
"I 	c #616161",
"J 	c #616261",
"K 	c #636463",
"L 	c #545757",
"M 	c #5C5D5D",
"N 	c #636464",
"O 	c #676868",
"P 	c #757777",
"Q 	c #737474",
"R 	c #747574",
"S 	c #868787",
"T 	c #B8B8B7",
"U 	c #737372",
"V 	c #828282",
"W 	c #7D7D7C",
"X 	c #818181",
"Y 	c #898989",
"Z 	c #9A9A99",
"` 	c #434545",
" .	c #333333",
"..	c #505050",
"+.	c #626262",
"@.	c #5A5A5A",
"#.	c #999998",
"$.	c #8A8A89",
"%.	c #828281",
"&.	c #7E7E7D",
"*.	c #838382",
"=.	c #787877",
"-.	c #676767",
";.	c #B7B7B6",
">.	c #ACACAB",
",.	c #B3B3B2",
"'.	c #606160",
").	c #272727",
"!.	c #444444",
"~.	c #4F4F4F",
"{.	c #646464",
"].	c #666666",
"^.	c #ADADAC",
"/.	c #AEAEAD",
"(.	c #B6B4B5",
"_.	c #B2B0B1",
":.	c #7F7E7E",
"<.	c #252626",
"[.	c #464747",
"}.	c #535353",
"|.	c #4D4D4D",
"1.	c #7B7A7B",
"2.	c #B4B4B4",
"3.	c #B0B0B0",
"4.	c #3E3F3F",
"5.	c #343434",
"6.	c #565656",
"7.	c #A8A8A8",
"8.	c #B0B0AF",
"9.	c #B4B2B2",
"0.	c #B0AEAE",
"a.	c #B1ADAA",
"b.	c #5C5D5E",
"c.	c #595959",
"d.	c #B3B1B1",
"e.	c #AFADAD",
"f.	c #AEACAC",
"g.	c #ADABAA",
"h.	c #ACAAA8",
"i.	c #B0ADA6",
"j.	c #B1ADA2",
"k.	c #A9A69F",
"l.	c #ADA9A7",
"m.	c #AEA8A7",
"n.	c #AB9EA0",
"o.	c #ADA29A",
"p.	c #606061",
"q.	c #2B2B2B",
"r.	c #4E4E4E",
"s.	c #605F5F",
"t.	c #AAA49F",
"u.	c #AFA6A1",
"v.	c #AEA8A5",
"w.	c #AAA8A4",
"x.	c #B2AFA4",
"y.	c #B1ADA5",
"z.	c #ACAAA7",
"A.	c #AEABA9",
"B.	c #AEABAB",
"C.	c #AFADAC",
"D.	c #ADACAC",
"E.	c #ACABAA",
"F.	c #A8A7A5",
"G.	c #A4A29D",
"H.	c #A3A095",
"I.	c #B2AB8B",
"J.	c #C2B77D",
"K.	c #B6AB75",
"L.	c #A89B8E",
"M.	c #AA948C",
"N.	c #A3787C",
"O.	c #887085",
"P.	c #4A4C4E",
"Q.	c #484848",
"R.	c #5C5C5C",
"S.	c #989598",
"T.	c #A48B97",
"U.	c #B18C7F",
"V.	c #A59181",
"W.	c #989580",
"X.	c #BEB681",
"Y.	c #B5AC80",
"Z.	c #9E9A89",
"`.	c #A6A394",
" +	c #A6A4A0",
".+	c #ACABAB",
"++	c #B0AFAF",
"@+	c #9D9B90",
"#+	c #ACA371",
"$+	c #CFBE61",
"%+	c #EADF55",
"&+	c #D7C94D",
"*+	c #A5985C",
"=+	c #C78C50",
"-+	c #AE6F67",
";+	c #55439C",
">+	c #433A93",
",+	c #1C1B36",
"'+	c #2F2F32",
")+	c #3E3E3F",
"!+	c #46464A",
"~+	c #7C7A9A",
"{+	c #675FAF",
"]+	c #B66869",
"^+	c #B76733",
"/+	c #74683A",
"(+	c #DCC848",
"_+	c #EDE44B",
":+	c #C7B33E",
"<+	c #AB9E4A",
"[+	c #948E70",
"}+	c #9B988E",
"|+	c #A9A8A8",
"1+	c #ABAAAA",
"2+	c #AEADAE",
"3+	c #AAA9AA",
"4+	c #A7A6A6",
"5+	c #9B9789",
"6+	c #B2A65F",
"7+	c #B3A13F",
"8+	c #A79F32",
"9+	c #918942",
"0+	c #88836E",
"a+	c #AC7136",
"b+	c #983830",
"c+	c #381C87",
"d+	c #2F228F",
"e+	c #322877",
"f+	c #3A345A",
"g+	c #44405B",
"h+	c #524C73",
"i+	c #635AA3",
"j+	c #36228E",
"k+	c #943835",
"l+	c #8A4A1F",
"m+	c #61573D",
"n+	c #867931",
"o+	c #A29D31",
"p+	c #9F9033",
"q+	c #807741",
"r+	c #868068",
"s+	c #97948A",
"t+	c #A4A3A4",
"u+	c #A9A8A9",
"v+	c #ADACAD",
"w+	c #A6A5A6",
"x+	c #9F9E9D",
"y+	c #8A8884",
"z+	c #6D6A5C",
"A+	c #797564",
"B+	c #8E8E8E",
"C+	c #8C857E",
"D+	c #7D5644",
"E+	c #964430",
"F+	c #722F55",
"G+	c #673C7D",
"H+	c #72518F",
"I+	c #785B94",
"J+	c #6D4C87",
"K+	c #723762",
"L+	c #793533",
"M+	c #6E432F",
"N+	c #73685F",
"O+	c #898889",
"P+	c #76726A",
"Q+	c #726D5B",
"R+	c #7D796C",
"S+	c #878585",
"T+	c #929192",
"U+	c #9C9B9C",
"V+	c #A8A7A8",
"W+	c #A8A7A7",
"X+	c #A5A4A4",
"Y+	c #A1A0A0",
"Z+	c #949490",
"`+	c #92918D",
" @	c #9A9999",
".@	c #9E9C9C",
"+@	c #918C86",
"@@	c #917B64",
"#@	c #84654E",
"$@	c #7D503D",
"%@	c #9C654E",
"&@	c #C58750",
"*@	c #885032",
"=@	c #673F2E",
"-@	c #7F6C59",
";@	c #7B756D",
">@	c #888685",
",@	c #979696",
"'@	c #989695",
")@	c #94928D",
"!@	c #949391",
"~@	c #999898",
"{@	c #9F9E9E",
"]@	c #A3A2A2",
"^@	c #A6A5A5",
"/@	c #A4A3A3",
"(@	c #A2A1A1",
"_@	c #9A9992",
":@	c #A69A6C",
"<@	c #AD9A54",
"[@	c #B39134",
"}@	c #D0A02F",
"|@	c #FFC729",
"1@	c #B98B14",
"2@	c #836A25",
"3@	c #908150",
"4@	c #837F71",
"5@	c #AAA9A9",
"6@	c #928E7D",
"7@	c #BDAF50",
"8@	c #ECDD4A",
"9@	c #F9E848",
"0@	c #F0D73A",
"a@	c #EED334",
"b@	c #CAB72D",
"c@	c #AB9F28",
"d@	c #998F2E",
"e@	c #736D4D",
"f@	c #8A8883",
"g@	c #9B9A98",
"h@	c #837F6A",
"i@	c #ADA037",
"j@	c #ECD936",
"k@	c #E2CF34",
"l@	c #C9B12B",
"m@	c #A7A128",
"n@	c #847823",
"o@	c #666042",
"p@	c #797770",
"q@	c #92908F",
"r@	c #A7A7A7",
"s@	c #A3A3A3",
"t@	c #A2A2A2",
"u@	c #969594",
"v@	c #767157",
"w@	c #8E8026",
"x@	c #B8AF2B",
"y@	c #9C9424",
"z@	c #71681E",
"A@	c #5E583A",
"B@	c #75736D",
"C@	c #8B8B8A",
"D@	c #979797",
"E@	c #9F9F9F",
"F@	c #A7A5A6",
"G@	c #A3A1A2",
"H@	c #A19FA0",
"I@	c #818081",
"J@	c #494327",
"K@	c #82752B",
"L@	c #7F7424",
"M@	c #413B1E",
"N@	c #5E5D5A",
"O@	c #8B8A8A",
"P@	c #979697",
"Q@	c #9F9D9E",
"R@	c #A2A0A1",
"S@	c #7C7C7C",
"T@	c #363630",
"U@	c #5D5A4E",
"V@	c #595546",
"W@	c #302F27",
"X@	c #646363",
"Y@	c #969595",
"Z@	c #9E9D9D",
"`@	c #A09F9F",
" #	c #A09E9F",
".#	c #767576",
"+#	c #343535",
"@#	c #717071",
"##	c #747373",
"$#	c #666465",
"%#	c #9D9B9C",
"&#	c #6E6E6E",
"*#	c #6E6D6D",
"=#	c #383838",
"-#	c #636262",
";#	c #A4A2A2",
">#	c #9F9D9D",
",#	c #676768",
"'#	c #363637",
")#	c #686767",
"!#	c #717171",
"~#	c #3A3B3B",
"{#	c #5E5D5D",
"]#	c #A2A1A2",
"^#	c #9D9C9D",
"/#	c #5E5E5F",
"(#	c #313232",
"_#	c #666667",
":#	c #343435",
"<#	c #9C9A9B",
"[#	c #616262",
"}#	c #5D6262",
"|#	c #5A595A",
"1#	c #515152",
"2#	c #9F9E9F",
"3#	c #9B9A9B",
"4#	c #707374",
"5#	c #626565",
"6#	c #5B5B5C",
"7#	c #747778",
"8#	c #636667",
"9#	c #515151",
"0#	c #A3A2A3",
"  . . . . . . . . . . . . . . . . . . . . . . . . . . . . . .   ",
"+ @ @ @ @ @ @ @ @ @ @ @ @ @ # $ % & @ @ @ @ @ @ @ @ @ @ @ @ @ + ",
"+ * * * * * * * * * * * * * = - ; > * * * * * * * * * * * * * + ",
", ' ' ' ' ' ' ' ' ' ' ' ' ' ) ! ~ { ' ' ' ' ' ' ' ' ' ' ' ' ' , ",
"@ ] ] ] ] ] ] ] ] ] ] ] ] ] ^ / ( _ ] ] ] ] ] ] ] ] ] ] ] ] ] @ ",
": < < < < < < < < < < < < < [ } | 1 < < < < < < < < < < < < < : ",
"2 3 4 5 6 7 8 9 # 2 2 2 0 a b c d ( e f g 2 2 h i j k l m n 3 o ",
"p q r s t u v w x y y z A B C D E F G H I J K L M N % O P Q R S ",
"T 4 | U V W X Y Z h h h i `  ...+.! @.#.h h h #.$.%.&.*.=.-.h T ",
";.5 >.,.,.,.,.,.,.,.,.,.,.'.).!.~.{.].,.,.,.,.,.,.,.,.,.,.^./.;.",
"(._._._._._._._._._._._._.:.<.[.}.|.1._._._._._._._._._._._._.(.",
"2.3.3.3.3.3.3.3.3.3.3.3.3.>.4.5.6...7.8.3.3.3.3.3.3.3.3.3.3.3.2.",
"9.0.0.0.0.0.0.0.0.0.0.0.0.a.b.u c.c.0.0.0.0.0.0.0.0.0.0.0.0.0.9.",
"d.e.e.e.f.g.h.i.j.k.l.m.n.o.p.q.r.s.e.t.u.v.w.x.y.z.A.B.C.e.e.d.",
"g D.D.E.F.G.H.I.J.K.L.M.N.O.P./ Q.R.S.T.U.V.W.X.Y.Z.`. +0 .+D.g ",
"++.+.+0 @+#+$+%+&+*+=+-+;+>+,+'+)+!+~+{+]+^+/+(+_+:+<+[+}+|+1+++",
"2+3+3+4+5+6+7+8+9+0+a+b+c+d+e+f+g+h+i+j+k+l+m+n+o+p+q+r+s+t+u+2+",
"v+u+u+u+w+x+y+z+A+B+C+D+E+F+G+H+I+J+K+L+M+N+O+P+Q+R+S+T+U+t+V+v+",
".+W+W+W+4+X+Y+Z+`+ @.@+@@@#@$@%@&@*@=@-@;@>@,@'@)@!@~@{@]@^@4+.+",
"1+4+4+4+4+4+^@/@(@]@X+_@:@<@[@}@|@1@2@3@4@!@Y+X+]@(@/@^@4+4+4+1+",
"5@^@^@^@^@^@^@^@X+X+^@6@7@8@9@0@a@b@c@d@e@f@Y+X+X+X+X+^@^@^@^@5@",
"|+X+X+X+X+X+X+X+X+X+X+g@h@i@j@k@l@m@n@o@p@q@{@/@X+X+X+X+X+X+X+|+",
"r@s@s@s@s@s@s@s@s@s@s@t@u@v@w@x@y@z@A@B@C@D@E@t@s@s@s@s@s@s@s@r@",
"F@G@G@G@G@G@G@G@G@G@G@G@H@I@J@K@L@M@N@O@P@Q@R@G@G@G@G@G@G@G@G@F@",
"X+Y+Y+Y+Y+Y+Y+Y+Y+Y+Y+Y+Y+S@T@U@V@W@X@Y@Z@`@Y+Y+Y+Y+Y+Y+Y+Y+Y+X+",
"t+ # # # # # # # # # # # #.#+#@###+#$#%#Q@ # # # # # # # # # #t+",
"/@{@{@{@{@{@{@{@{@{@{@{@{@&#+#*#_ =#-#Z@{@{@{@{@{@{@{@{@{@{@{@/@",
";#>#>#>#>#>#>#>#>#>#>#>#>#,#'#)#!#~#{#>#>#>#>#>#>#>#>#>#>#>#>#;#",
"]#^#^#^#^#^#^#^#^#^#^#^#^#/#(#I _#:#6.^#^#^#^#^#^#^#^#^#^#^#^#]#",
"H@<#<#<#<#<#<#<#<#<#<#<#<#[#}#|#N }#1#<#<#<#<#<#<#<#<#<#<#<#<#H@",
"2#3#3#3#3#3#3#3#3#3#3#3#3#4#5#6#7#8#9#3#3#3#3#3#3#3#3#3#3#3#3#2#",
"0#2#2#2#2#2#2#2#2#2#2#2#2#2#2#2#2#2#2#2#2#2#2#2#2#2#2#2#2#2#2#0#"};
