/* XPM */
static char * nrm_lffkelbow_xpm[] = {
"32 32 260 2",
"  	c #C3C2C2",
". 	c #C0BFBF",
"+ 	c #BEBEBD",
"@ 	c #BCBCBB",
"# 	c #BBBBBA",
"$ 	c #BCBCBC",
"% 	c #B9B9B9",
"& 	c #949494",
"* 	c #000000",
"= 	c #3E3E3E",
"- 	c #0C0C0C",
"; 	c #888888",
"> 	c #B9B9B8",
", 	c #888887",
"' 	c #ADADAC",
") 	c #565656",
"! 	c #BBBABA",
"~ 	c #B8B7B7",
"{ 	c #878686",
"] 	c #252525",
"^ 	c #4A4949",
"/ 	c #BAB9B8",
"( 	c #B7B6B5",
"_ 	c #868585",
": 	c #626161",
"< 	c #555554",
"[ 	c #B8B8B8",
"} 	c #B5B5B4",
"| 	c #858584",
"1 	c #B8B8B7",
"2 	c #B4B4B3",
"3 	c #848483",
"4 	c #545454",
"5 	c #181818",
"6 	c #A8A8A7",
"7 	c #B7B7B6",
"8 	c #B3B3B2",
"9 	c #8F8F8E",
"0 	c #A7A7A6",
"a 	c #242424",
"b 	c #5F5F5F",
"c 	c #B6B4B5",
"d 	c #B2B0B1",
"e 	c #B4B4B4",
"f 	c #B0B0B0",
"g 	c #B4B2B2",
"h 	c #B0AEAE",
"i 	c #A8ADA8",
"j 	c #9AAA9E",
"k 	c #88A791",
"l 	c #82A68C",
"m 	c #80A68B",
"n 	c #72A681",
"o 	c #71A581",
"p 	c #70A580",
"q 	c #64A578",
"r 	c #61A877",
"s 	c #60A775",
"t 	c #53A56C",
"u 	c #4CA668",
"v 	c #4CA768",
"w 	c #4CA767",
"x 	c #50A66A",
"y 	c #5EA574",
"z 	c #61AA77",
"A 	c #6BA87E",
"B 	c #72A782",
"C 	c #73A883",
"D 	c #A0AEA3",
"E 	c #7AA686",
"F 	c #67A378",
"G 	c #57A66F",
"H 	c #45A663",
"I 	c #36AA5A",
"J 	c #28B254",
"K 	c #20BA4F",
"L 	c #1FBF51",
"M 	c #20C453",
"N 	c #20C554",
"O 	c #20C353",
"P 	c #20C754",
"Q 	c #20C252",
"R 	c #20C653",
"S 	c #21C954",
"T 	c #21CA55",
"U 	c #20C954",
"V 	c #22D359",
"W 	c #25E05E",
"X 	c #35EA6E",
"Y 	c #55ED86",
"Z 	c #68EF92",
"` 	c #51AC6D",
" .	c #1CA445",
"..	c #1DAF4A",
"+.	c #1DB14B",
"@.	c #1DAE4A",
"#.	c #1CA847",
"$.	c #1BA044",
"%.	c #199941",
"&.	c #18913D",
"*.	c #178C3B",
"=.	c #178A3A",
"-.	c #178839",
";.	c #178739",
">.	c #168538",
",.	c #168338",
"'.	c #168237",
").	c #168037",
"!.	c #167F36",
"~.	c #157E35",
"{.	c #157C34",
"].	c #157F36",
"^.	c #178B3B",
"/.	c #1A9F43",
"(.	c #1DB74E",
"_.	c #23DA5C",
":.	c #4BED7F",
"<.	c #46AD66",
"[.	c #157933",
"}.	c #147833",
"|.	c #3D902A",
"1.	c #64A521",
"2.	c #88BA19",
"3.	c #A1C814",
"4.	c #C2DB0D",
"5.	c #A1C714",
"6.	c #A1C713",
"7.	c #93BE16",
"8.	c #6FA91D",
"9.	c #428D26",
"0.	c #19732E",
"a.	c #13702F",
"b.	c #136F2F",
"c.	c #136D2E",
"d.	c #136C2E",
"e.	c #126C2E",
"f.	c #126A2D",
"g.	c #126D2E",
"h.	c #1CAF4A",
"i.	c #1BA144",
"j.	c #1E8635",
"k.	c #68AC22",
"l.	c #BDDB0F",
"m.	c #FFFF00",
"n.	c #D3E509",
"o.	c #7DB21B",
"p.	c #277F2D",
"q.	c #137230",
"r.	c #12682C",
"s.	c #0F5926",
"t.	c #0E5324",
"u.	c #105F28",
"v.	c #147933",
"w.	c #168739",
"x.	c #259D3D",
"y.	c #DEEE08",
"z.	c #F4F802",
"A.	c #3F8D27",
"B.	c #12692D",
"C.	c #105E28",
"D.	c #0D4C20",
"E.	c #0C431D",
"F.	c #0E5524",
"G.	c #2DA13C",
"H.	c #ECF505",
"I.	c #FCFD01",
"J.	c #509523",
"K.	c #105C27",
"L.	c #0B3C1A",
"M.	c #0A3A19",
"N.	c #147C35",
"O.	c #288630",
"P.	c #83B61A",
"Q.	c #E1ED06",
"R.	c #EEF503",
"S.	c #9BC113",
"T.	c #3C8425",
"U.	c #116129",
"V.	c #0F5524",
"W.	c #0C461E",
"X.	c #0A3617",
"Y.	c #093015",
"Z.	c #317D27",
"`.	c #5A981F",
" +	c #82B018",
".+	c #A0C312",
"++	c #ABCA10",
"@+	c #D0E109",
"#+	c #B7D00D",
"$+	c #A0C111",
"%+	c #8DB515",
"&+	c #659B1B",
"*+	c #3B8023",
"=+	c #11652A",
"-+	c #11632A",
";+	c #0B3D1A",
">+	c #093215",
",+	c #082E14",
"'+	c #158036",
")+	c #105A26",
"!+	c #0F5625",
"~+	c #0E4F21",
"{+	c #082B12",
"]+	c #083015",
"^+	c #0E5022",
"/+	c #0D4B20",
"(+	c #0C481F",
"_+	c #0D491F",
":+	c #0D4D21",
"<+	c #0D4F21",
"[+	c #082C13",
"}+	c #072611",
"|+	c #168639",
"1+	c #157031",
"2+	c #11622A",
"3+	c #0D4A1F",
"4+	c #0B3F1B",
"5+	c #0A3818",
"6+	c #0A3317",
"7+	c #093516",
"8+	c #093517",
"9+	c #093617",
"0+	c #072410",
"a+	c #072912",
"b+	c #30894B",
"c+	c #A5A4A4",
"d+	c #9FA09E",
"e+	c #959F97",
"f+	c #889D8D",
"g+	c #789B82",
"h+	c #699776",
"i+	c #59936A",
"j+	c #478D5C",
"k+	c #398750",
"l+	c #36854E",
"m+	c #2A7D43",
"n+	c #24793E",
"o+	c #247A3F",
"p+	c #20763A",
"q+	c #166C30",
"r+	c #166C31",
"s+	c #11602A",
"t+	c #0F5B27",
"u+	c #0F5C27",
"v+	c #0F5A27",
"w+	c #559468",
"x+	c #A4A3A4",
"y+	c #A09E9F",
"z+	c #9E9E9D",
"A+	c #A4A3A3",
"B+	c #9F9E9E",
"C+	c #A4A2A2",
"D+	c #9F9D9D",
"E+	c #A2A1A2",
"F+	c #9D9C9D",
"G+	c #A19FA0",
"H+	c #9C9A9B",
"I+	c #9F9E9F",
"J+	c #9B9A9B",
"K+	c #A3A2A3",
"  . . . . . . . . . . . . . . . . . . . . . . . . . . . . . .   ",
"+ @ @ @ @ @ @ @ @ @ @ @ @ @ @ @ @ @ @ @ @ @ @ @ @ @ @ @ @ @ @ + ",
"+ # # # # # # # # # # # # # # # # # # # # # # # # # # # # # # + ",
"$ % % % % % % % % % % % % % % % % % % & * * * = & - % & - ; % $ ",
"@ > > > > > > > > > > > > > > > > > > , * > > > , * ' - ) > > @ ",
"! ~ ~ ~ ~ ~ ~ ~ ~ ~ ~ ~ ~ ~ ~ ~ ~ ~ ~ { * ~ ~ ~ { * ] ^ ~ ~ ~ ! ",
"/ ( ( ( ( ( ( ( ( ( ( ( ( ( ( ( ( ( ( _ * * * : _ * * < ( ( ( / ",
"[ } } } } } } } } } } } } } } } } } } | * } } } | * | * | } } [ ",
"1 2 2 2 2 2 2 2 2 2 2 2 2 2 2 2 2 2 2 3 * 2 2 2 3 * 2 4 5 6 2 1 ",
"7 8 8 8 8 8 8 8 8 8 8 8 8 8 8 8 8 8 8 9 - 8 8 8 9 - 8 0 a b 8 7 ",
"c d d d d d d d d d d d d d d d d d d d d d d d d d d d d d d c ",
"e f f f f f f f f f f f f f f f f f f f f f f f f f f f f f f e ",
"g h h h h h i j k l m n o p q r s t u v w v v x y z z A B C C D ",
"E F G H I J K L M N O P P N P M Q R R Q Q R S T P U V W X Y Z ` ",
" ...+.@.#.$.%.&.*.=.-.;.>.,.'.).!.~.~.{.{.{.~.].).'.^./.(._.:.<.",
">.!.{.[.}.|.1.2.3.3.3.4.5.5.6.7.8.9.0.a.b.b.c.d.e.f.f.g.}.*.h.i.",
"-.j.k.l.m.m.m.m.m.m.m.m.m.m.m.m.m.m.m.n.o.p.q.a.a.a.r.s.t.u.v.w.",
"x.y.m.m.m.m.m.m.m.m.m.m.m.m.m.m.m.m.m.m.m.z.A.q.q.a.B.C.D.E.F.>.",
"G.H.m.m.m.m.m.m.m.m.m.m.m.m.m.m.m.m.m.m.m.I.J.b.b.b.r.K.D.L.M.N.",
";.O.P.Q.m.m.m.m.m.m.m.m.m.m.m.m.m.m.m.R.S.T.f.f.B.B.U.V.W.X.Y.>.",
"[.a.e.e.Z.`. +.+++@+@+@+@+@+#+$+%+&+*+=+=+-+-+U.U.U.s.D.;+>+,+'+",
"f.U.u.u.u.u.u.u.u.u.C.C.K.K.K.)+K.)+)+)+)+)+s.s.s.!+~+E.X.{+]+!.",
"^+/+(+_+_+/+D.:+~+^+<+:+:+:+:+:+:+:+:+D.:+D.D.D.D./+E.X.[+}+,+|+",
"1+2+V.3+4+5+6+>+7+7+8+9+7+7+9+7+7+7+7+7+7+7+7+7+7+7+,+}+0+0+a+b+",
"c+d+e+f+g+h+i+j+k+l+m+n+o+p+q+r+r+s+t+u+u+u+u+u+u+u+u+t+t+u+v+w+",
"x+y+y+y+y+y+y+y+y+y+y+y+y+y+y+y+y+y+z+z+z+z+z+z+z+z+z+z+z+z+z+x+",
"A+B+B+B+B+B+B+B+B+B+B+B+B+B+B+B+B+B+B+B+B+B+B+B+B+B+B+B+B+B+B+A+",
"C+D+D+D+D+D+D+D+D+D+D+D+D+D+D+D+D+D+D+D+D+D+D+D+D+D+D+D+D+D+D+C+",
"E+F+F+F+F+F+F+F+F+F+F+F+F+F+F+F+F+F+F+F+F+F+F+F+F+F+F+F+F+F+F+E+",
"G+H+H+H+H+H+H+H+H+H+H+H+H+H+H+H+H+H+H+H+H+H+H+H+H+H+H+H+H+H+H+G+",
"I+J+J+J+J+J+J+J+J+J+J+J+J+J+J+J+J+J+J+J+J+J+J+J+J+J+J+J+J+J+J+I+",
"K+I+I+I+I+I+I+I+I+I+I+I+I+I+I+I+I+I+I+I+I+I+I+I+I+I+I+I+I+I+I+K+"};
