/* XPM */
static char * nrm_tngA_xpm[] = {
"32 32 532 2",
"  	c #C3C2C2",
". 	c #C0BFBF",
"+ 	c #B8B8B8",
"@ 	c #A0A2A4",
"# 	c #8F9497",
"$ 	c #949A9C",
"% 	c #9B9FA2",
"& 	c #848788",
"* 	c #77797B",
"= 	c #818385",
"- 	c #878B8D",
"; 	c #8E9293",
"> 	c #94989A",
", 	c #979B9D",
"' 	c #9B9EA0",
") 	c #9CA0A3",
"! 	c #A2A6A7",
"~ 	c #BEBEBD",
"{ 	c #BCBCBB",
"] 	c #B4B5B4",
"^ 	c #9B9E9F",
"/ 	c #757879",
"( 	c #65686A",
"_ 	c #65696B",
": 	c #6D7173",
"< 	c #777C7E",
"[ 	c #7F8487",
"} 	c #868B8F",
"| 	c #8B9093",
"1 	c #8E9396",
"2 	c #919699",
"3 	c #959B9D",
"4 	c #BBBBBA",
"5 	c #B3B4B3",
"6 	c #7C7B79",
"7 	c #646768",
"8 	c #676C6E",
"9 	c #6D7274",
"0 	c #767B7D",
"a 	c #808588",
"b 	c #878C8F",
"c 	c #909699",
"d 	c #979C9F",
"e 	c #BCBCBC",
"f 	c #B9B9B9",
"g 	c #AAAAA8",
"h 	c #787874",
"i 	c #686A6B",
"j 	c #696D6F",
"k 	c #707476",
"l 	c #808688",
"m 	c #878D8F",
"n 	c #8B9194",
"o 	c #8E9497",
"p 	c #969C9F",
"q 	c #B9B9B8",
"r 	c #A1A19D",
"s 	c #71706B",
"t 	c #6B6D6C",
"u 	c #6C6F71",
"v 	c #727678",
"w 	c #7A7E80",
"x 	c #868C8E",
"y 	c #8B9193",
"z 	c #8F9597",
"A 	c #919799",
"B 	c #BBBABA",
"C 	c #B8B7B7",
"D 	c #B6B5B5",
"E 	c #908F8A",
"F 	c #72716D",
"G 	c #6E6F6E",
"H 	c #707274",
"I 	c #75797B",
"J 	c #7C8183",
"K 	c #82888A",
"L 	c #8C9194",
"M 	c #8F9598",
"N 	c #92979A",
"O 	c #969C9E",
"P 	c #BAB9B8",
"Q 	c #B7B6B5",
"R 	c #A1A19F",
"S 	c #84827D",
"T 	c #737271",
"U 	c #707171",
"V 	c #747777",
"W 	c #7A7D7F",
"X 	c #7E8385",
"Y 	c #84898B",
"Z 	c #8C9294",
"` 	c #909698",
" .	c #92989A",
"..	c #B5B5B4",
"+.	c #B4B4B3",
"@.	c #848685",
"#.	c #6E6F6F",
"$.	c #747474",
"%.	c #757678",
"&.	c #797C7D",
"*.	c #7D8182",
"=.	c #808587",
"-.	c #868A8C",
";.	c #898F91",
">.	c #8C9395",
",.	c #B8B8B7",
"'.	c #B3B3B2",
").	c #969A9A",
"!.	c #727376",
"~.	c #777779",
"{.	c #7F8082",
"].	c #7E8183",
"^.	c #7F8485",
"/.	c #828789",
"(.	c #888C8E",
"_.	c #929899",
":.	c #969C9D",
"<.	c #B7B7B6",
"[.	c #8E9899",
"}.	c #6E7A7C",
"|.	c #848789",
"1.	c #838788",
"2.	c #838688",
"3.	c #868A8D",
"4.	c #898E90",
"5.	c #8C9093",
"6.	c #8F9496",
"7.	c #969B9D",
"8.	c #B6B4B5",
"9.	c #B2B0B1",
"0.	c #929092",
"a.	c #788687",
"b.	c #858B8D",
"c.	c #86898B",
"d.	c #878B8E",
"e.	c #909597",
"f.	c #93989B",
"g.	c #979C9E",
"h.	c #B4B4B4",
"i.	c #B0B0B0",
"j.	c #B4ADAD",
"k.	c #C4A09F",
"l.	c #C18C8B",
"m.	c #8A7274",
"n.	c #6E8387",
"o.	c #858D90",
"p.	c #888D90",
"q.	c #909498",
"r.	c #B4B2B2",
"s.	c #B0AEAE",
"t.	c #BFA0A0",
"u.	c #D49291",
"v.	c #E17C7C",
"w.	c #E3696C",
"x.	c #EF5D60",
"y.	c #D66264",
"z.	c #907778",
"A.	c #71878A",
"B.	c #818C8F",
"C.	c #898D90",
"D.	c #909598",
"E.	c #93999B",
"F.	c #B3B1B1",
"G.	c #AFADAD",
"H.	c #C59A99",
"I.	c #DC8887",
"J.	c #E16C6C",
"K.	c #DF5A5E",
"L.	c #E25D60",
"M.	c #E96264",
"N.	c #F9B236",
"O.	c #FFD520",
"P.	c #EB7C5B",
"Q.	c #A06567",
"R.	c #787B7E",
"S.	c #858E90",
"T.	c #B1B0B0",
"U.	c #ADACAC",
"V.	c #BD9395",
"W.	c #D97C7D",
"X.	c #DD6262",
"Y.	c #D95055",
"Z.	c #E3595D",
"`.	c #EC6164",
" +	c #F46B6A",
".+	c #F1775D",
"++	c #FFFD01",
"@+	c #FFFF00",
"#+	c #F1D010",
"$+	c #AE2533",
"%+	c #7E525B",
"&+	c #7F8A8D",
"*+	c #8C9295",
"=+	c #8F9396",
"-+	c #B0AFAF",
";+	c #ACABAB",
">+	c #B29B9C",
",+	c #CD7577",
"'+	c #D6585C",
")+	c #D0474E",
"!+	c #DA4F55",
"~+	c #EB5D5E",
"{+	c #EE6363",
"]+	c #DE585A",
"^+	c #CD4A4F",
"/+	c #CA6636",
"(+	c #CB5E33",
"_+	c #9F4B5A",
":+	c #7A7E81",
"<+	c #879195",
"[+	c #91979A",
"}+	c #AEADAE",
"|+	c #AAA9AA",
"1+	c #B98184",
"2+	c #CC555A",
"3+	c #C73F47",
"4+	c #D4464D",
"5+	c #DF5055",
"6+	c #DD5356",
"7+	c #BF3D44",
"8+	c #A92A36",
"9+	c #9F2232",
"0+	c #9D2132",
"a+	c #B44B30",
"b+	c #FBB347",
"c+	c #C8717F",
"d+	c #7D7D81",
"e+	c #858F91",
"f+	c #ADACAD",
"g+	c #A9A8A9",
"h+	c #AA9D9F",
"i+	c #BB6268",
"j+	c #C44249",
"k+	c #C53B43",
"l+	c #CF4349",
"m+	c #CF484D",
"n+	c #B6363F",
"o+	c #9C202E",
"p+	c #901527",
"q+	c #971B2F",
"r+	c #A62A3E",
"s+	c #B93C50",
"t+	c #D25667",
"u+	c #FDF30A",
"v+	c #FFBE3E",
"w+	c #BC6F7B",
"x+	c #808486",
"y+	c #879093",
"z+	c #8F9498",
"A+	c #92989B",
"B+	c #A8A7A7",
"C+	c #A88D8F",
"D+	c #B1474F",
"E+	c #BB373F",
"F+	c #C43941",
"G+	c #C13A42",
"H+	c #B0313A",
"I+	c #991F2D",
"J+	c #8E1528",
"K+	c #951C30",
"L+	c #A92E41",
"M+	c #BF4357",
"N+	c #D75B6E",
"O+	c #EC6D81",
"P+	c #F57488",
"Q+	c #F8B245",
"R+	c #D5963A",
"S+	c #87797C",
"T+	c #808A8B",
"U+	c #8A9092",
"V+	c #8E9498",
"W+	c #959A9D",
"X+	c #ABAAAA",
"Y+	c #A7A6A6",
"Z+	c #A38488",
"`+	c #A4343F",
" @	c #AE2934",
".@	c #B12C37",
"+@	c #A62933",
"@@	c #951D2B",
"#@	c #8A1325",
"$@	c #92192C",
"%@	c #A52B3E",
"&@	c #BB4054",
"*@	c #D4576B",
"=@	c #E8687C",
"-@	c #ED6A7E",
";@	c #E45E74",
">@	c #D34E64",
",@	c #C54659",
"'@	c #DFA227",
")@	c #E4C41B",
"!@	c #8F7B73",
"~@	c #859191",
"{@	c #8B9295",
"]@	c #8E9496",
"^@	c #AAA9A9",
"/@	c #A6A5A5",
"(@	c #9F8386",
"_@	c #982C39",
":@	c #9E1E2B",
"<@	c #9B1E2A",
"[@	c #8A1523",
"}@	c #840F1F",
"|@	c #8A1326",
"1@	c #9A2336",
"2@	c #B03649",
"3@	c #C94C5F",
"4@	c #DD5D71",
"5@	c #E45F74",
"6@	c #DB546A",
"7@	c #CC495F",
"8@	c #BD4158",
"9@	c #B03F54",
"0@	c #9E384C",
"a@	c #88263A",
"b@	c #7F565C",
"c@	c #899190",
"d@	c #90989A",
"e@	c #A9A8A8",
"f@	c #A5A4A4",
"g@	c #A09092",
"h@	c #8C2B38",
"i@	c #8C1121",
"j@	c #86111F",
"k@	c #760718",
"l@	c #78081A",
"m@	c #8B1527",
"n@	c #A1293C",
"o@	c #BC3E52",
"p@	c #D14F63",
"q@	c #DA5469",
"r@	c #D54E65",
"s@	c #C8465C",
"t@	c #B94158",
"u@	c #A73C51",
"v@	c #8C3042",
"w@	c #722031",
"x@	c #5E0D1A",
"y@	c #591C24",
"z@	c #777072",
"A@	c #8E999B",
"B@	c #94999C",
"C@	c #A7A7A7",
"D@	c #A3A3A3",
"E@	c #A19E9E",
"F@	c #843A45",
"G@	c #7A0716",
"H@	c #740717",
"I@	c #6D0212",
"J@	c #77071A",
"K@	c #8D182A",
"L@	c #A62A3D",
"M@	c #BE3C50",
"N@	c #CF475C",
"O@	c #D14960",
"P@	c #C8455D",
"Q@	c #B9445A",
"R@	c #9F3A4E",
"S@	c #7E2738",
"T@	c #651A27",
"U@	c #581420",
"V@	c #67373A",
"W@	c #877274",
"X@	c #827578",
"Y@	c #848D8D",
"Z@	c #8E9699",
"`@	c #8E9598",
" #	c #8F9699",
".#	c #90979A",
"+#	c #93999C",
"@#	c #A7A5A6",
"##	c #A3A1A2",
"$#	c #8D6268",
"%#	c #700A19",
"&#	c #670010",
"*#	c #750616",
"=#	c #8C1527",
"-#	c #A52439",
";#	c #BB3249",
">#	c #C83F55",
",#	c #C9455D",
"'#	c #BE485F",
")#	c #A03B4F",
"!#	c #782535",
"~#	c #5E1724",
"{#	c #5D252E",
"]#	c #7A585D",
"^#	c #95888A",
"/#	c #858B8C",
"(#	c #81888B",
"_#	c #8B9396",
":#	c #8D9396",
"<#	c #A1A0A0",
"[#	c #9D9596",
"}#	c #752833",
"|#	c #61000F",
"1#	c #64000F",
"2#	c #720213",
"3#	c #890D21",
"4#	c #A01B2F",
"5#	c #B52C43",
"6#	c #C63F57",
"7#	c #C74B63",
"8#	c #A84257",
"9#	c #7A2738",
"0#	c #5D1C27",
"a#	c #663B41",
"b#	c #887476",
"c#	c #9F9D9D",
"d#	c #9A9B9B",
"e#	c #767A7B",
"f#	c #7A8184",
"g#	c #858C90",
"h#	c #878F92",
"i#	c #888F92",
"j#	c #899093",
"k#	c #8C9396",
"l#	c #8D9497",
"m#	c #A4A3A4",
"n#	c #A09E9F",
"o#	c #855A61",
"p#	c #5E0513",
"q#	c #62000F",
"r#	c #700012",
"s#	c #820519",
"t#	c #971127",
"u#	c #B62D44",
"v#	c #CB4B64",
"w#	c #BC4F66",
"x#	c #892F41",
"y#	c #60202B",
"z#	c #6E484D",
"A#	c #8C7C7E",
"B#	c #908F90",
"C#	c #6D7074",
"D#	c #737B7E",
"E#	c #7D8589",
"F#	c #80888C",
"G#	c #828B8E",
"H#	c #8A9194",
"I#	c #A4A3A3",
"J#	c #9F9E9E",
"K#	c #6C2E38",
"L#	c #5F000F",
"M#	c #6E0011",
"N#	c #7A0012",
"O#	c #920A21",
"P#	c #BA324A",
"Q#	c #CE566E",
"R#	c #A7465A",
"S#	c #6C2835",
"T#	c #673F43",
"U#	c #8B7D7E",
"V#	c #808182",
"W#	c #5F6669",
"X#	c #6B7377",
"Y#	c #747C80",
"Z#	c #7A8286",
"`#	c #7E868A",
" $	c #868E91",
".$	c #A4A2A2",
"+$	c #5F101D",
"@$	c #690010",
"#$	c #75000E",
"$$	c #8F091E",
"%$	c #C03B53",
"&$	c #CA5971",
"*$	c #8B394A",
"=$	c #65343C",
"-$	c #847373",
";$	c #888888",
">$	c #697072",
",$	c #666F73",
"'$	c #727A7E",
")$	c #798185",
"!$	c #7F878B",
"~$	c #838B8F",
"{$	c #A2A1A2",
"]$	c #9D9C9D",
"^$	c #72000D",
"/$	c #911023",
"($	c #C3435C",
"_$	c #BB5369",
":$	c #773743",
"<$	c #795E61",
"[$	c #9A9698",
"}$	c #909092",
"|$	c #70767A",
"1$	c #636C70",
"2$	c #6A7376",
"3$	c #737C7F",
"4$	c #7B8386",
"5$	c #80888B",
"6$	c #848C8F",
"7$	c #878D90",
"8$	c #A19FA0",
"9$	c #9C9A9B",
"0$	c #62000D",
"a$	c #8A1023",
"b$	c #B73F58",
"c$	c #A4475B",
"d$	c #71434B",
"e$	c #877B7C",
"f$	c #919193",
"g$	c #6E7376",
"h$	c #656E71",
"i$	c #6E787A",
"j$	c #778083",
"k$	c #818A8D",
"l$	c #9F9E9F",
"m$	c #9B9A9B",
"n$	c #72343E",
"o$	c #882D3E",
"p$	c #874854",
"q$	c #82656A",
"r$	c #979395",
"s$	c #686F72",
"t$	c #6B7376",
"u$	c #7A8285",
"v$	c #80878A",
"w$	c #838B8E",
"x$	c #898F92",
"y$	c #A3A2A3",
"z$	c #999092",
"A$	c #947E83",
"B$	c #989092",
"C$	c #797E80",
"D$	c #70777A",
"E$	c #787F82",
"F$	c #7E8588",
"G$	c #828A8D",
"  . . . . . . . . . . . . . . . . + @ # $ % & * = - ; > , ' ) ! ",
"~ { { { { { { { { { { { { { { { { { { ] ^ / ( _ : < [ } | 1 2 3 ",
"~ 4 4 4 4 4 4 4 4 4 4 4 4 4 4 4 4 4 4 4 5 6 7 8 9 0 a b | 1 c d ",
"e f f f f f f f f f f f f f f f f f f f g h i j k < l m n o c p ",
"{ q q q q q q q q q q q q q q q q q q q r s t u v w l x y z A p ",
"B C C C C C C C C C C C C C C C C C C D E F G H I J K x L M N O ",
"P Q Q Q Q Q Q Q Q Q Q Q Q Q Q Q Q Q Q R S T U V W X Y m Z `  .O ",
"+ ..................................+.@.#.$.%.&.*.=.-.;.>.`  .O ",
",.+.+.+.+.+.+.+.+.+.+.+.+.+.+.+.+.+.'.).!.~.{.].^./.(.| o ` _.:.",
"<.'.'.'.'.'.'.'.'.'.'.'.'.'.'.'.'.'.'.'.[.}.|.1.2.3.4.5.6.`  .7.",
"8.9.9.9.9.9.9.9.9.9.9.9.9.9.9.9.9.9.9.9.9.0.a.b.c.d.4.L e.A f.g.",
"h.i.i.i.i.i.i.i.i.i.i.i.i.i.i.i.i.i.i.j.k.l.m.n.o.(.p.L q.N f.g.",
"r.s.s.s.s.s.s.s.s.s.s.s.s.s.s.s.s.t.u.v.w.x.y.z.A.B.C.L D.N E.g.",
"F.G.G.G.G.G.G.G.G.G.G.G.G.G.G.H.I.J.K.L.M.N.O.P.Q.R.S.Z # N E.g.",
"T.U.U.U.U.U.U.U.U.U.U.U.U.V.W.X.Y.Z.`. +.+++@+#+$+%+&+*+=+ .E.O ",
"-+;+;+;+;+;+;+;+;+;+;+>+,+'+)+!+~+{+]+^+/+@+@+@+(+_+:+<+o [+E.O ",
"}+|+|+|+|+|+|+|+|+|+1+2+3+4+5+6+7+8+9+0+a+@+@+@+b+c+d+e+o [+E.3 ",
"f+g+g+g+g+g+g+g+h+i+j+k+l+m+n+o+p+q+r+s+t+u+@+@+v+w+x+y+z+A A+3 ",
";+B+B+B+B+B+B+C+D+E+F+G+H+I+J+K+L+M+N+O+P+Q+@+@+R+S+T+U+V+A A+W+",
"X+Y+Y+Y+Y+Y+Z+`+ @.@+@@@#@$@%@&@*@=@-@;@>@,@'@)@!@~@{@]@M c A+W+",
"^@/@/@/@/@(@_@:@<@[@}@|@1@2@3@4@5@6@7@8@9@0@a@b@c@d@e.o D.[+A+W+",
"e@f@f@f@g@h@i@j@k@l@m@n@o@p@q@r@s@t@u@v@w@x@y@z@A@c M M c [+[+B@",
"C@D@D@E@F@G@H@I@J@K@L@M@N@O@P@Q@R@S@T@U@V@W@X@Y@Z@`@V+M  #c .#+#",
"@#####$#%#&#&#*#=#-#;#>#,#'#)#!#~#{#]#^#####/#(#{@_#*+:#`@ # #f.",
"f@<#[#}#|#1#2#3#4#5#6#7#8#9#0#a#b#c#<#<#<#d#e#f#g#h#i#j#k#l#`@A+",
"m#n#o#p#q#r#s#t#u#v#w#x#y#z#A#n#n#n#n#n#n#B#C#D#E#F#G#o.j#H#k#c ",
"I#J#K#L#M#N#O#P#Q#R#S#T#U#J#J#J#J#J#J#J#J#V#W#X#Y#Z#`#G# $i#H#o ",
".$c#+$@$#$$$%$&$*$=$-$c#c#c#c#c#c#c#c#c#c#;$>$,$X#'$)$!$~$ $i#:#",
"{$]$L#^$/$($_$:$<$[$]$]$]$]$]$]$]$]$]$]$]$]$}$|$1$2$3$4$5$6$7$*+",
"8$9$0$a$b$c$d$e$9$9$9$9$9$9$9$9$9$9$9$9$9$9$9$f$g$h$i$j$E#k$o.n ",
"l$m$n$o$p$q$r$m$m$m$m$m$m$m$m$m$m$m$m$m$m$m$m$m$}$s$t$3$u$v$w$x$",
"y$l$z$A$B$l$l$l$l$l$l$l$l$l$l$l$l$l$l$l$l$l$l$l$l$C$h$D$E$F$G$i#"};
